<?xml version="1.0" encoding="UTF-8"?>
<svg xmlns="http://www.w3.org/2000/svg" xmlns:xlink="http://www.w3.org/1999/xlink" version="1.2" >
<font id="Carson Oblique">
<font-face  font-family="Carson" units-per-em="2048" ascent="1511" descent="-446" font-style="italic" font-weight="400" font-stretch="normal" cap-height="1434" x-height="1040" underline-position="-217" underline-thickness="150" />
<missing-glyph  horiz-adv-x="644" d="M307.378 330 Q372.378 330 406.335 287 Q441.151 243 433.173 172 Q423.335 102 375.011 57 Q327.827 13 262.827 13 Q198.827 13 164.87 56 Q130.335 102 140.173 172 Q150.011 242 197.335 287 Q243.378 330 307.378 330 Z M490.13 1424 Q666.13 1424 747.341 1333 Q820.238 1254 802.39 1127 Q788.617 1029 722.968 939 Q696.768 902 658.006 861 Q643.757 845 626.087 826 L608.838 810 L591.308 792 Q461.038 662 439.957 512 L438.833 504 Q438.411 501 437.27 500 L256.27 500 Q248.27 500 243.973 505 Q238.957 512 239.503 523 Q240.049 534 241.454 544 Q262.114 691 396.071 833 Q466.892 910 497.514 950 Q547.071 1018 555.222 1076 Q576.865 1230 394.99 1238 Q334.99 1238 263.898 1216 Q254.476 1213 245.476 1213 Q233.476 1213 221.319 1219 Q202.865 1230 198.519 1256 L190.703 1300 Q188.968 1309 190.233 1318 Q192.2 1332 201.168 1346 Q216.541 1370 238.665 1378 Q360.13 1424 490.13 1424 Z " />
<glyph glyph-name="&amp;#x0;" horiz-adv-x="20" d="" />
<glyph glyph-name="&amp;#x1d;" unicode="&#x1d;" horiz-adv-x="20" d="" />
<glyph glyph-name="&amp;#x20;" unicode="&#x20;" horiz-adv-x="404" d="" />
<glyph glyph-name="&amp;#xa0;" unicode="&#xa0;" horiz-adv-x="404" d="" />
<glyph glyph-name="exclam" unicode="&#x21;" horiz-adv-x="457" d="M290.763 1336 L291.465 1341 Q294.979 1366 314.649 1385 Q334.179 1403 358.179 1403 L484.179 1403 Q508.179 1403 523.509 1384 Q536.979 1366 533.606 1342 L532.763 1336 L390.108 570 Q384.454 544 365.065 527 Q346.676 510 323.676 510 L269.676 510 Q246.676 510 233.065 527 Q218.454 544 220.108 570 L290.763 1336 Z M102.595 175 Q112.573 246 160.757 290 Q206.8 333 271.8 333 Q335.8 333 369.757 290 Q403.573 246 395.595 175 Q385.616 104 339.432 60 Q292.249 16 227.249 16 Q162.249 16 127.432 60 Q92.7568 105 102.595 175 Z " />
<glyph glyph-name="quotedbl" unicode="&#x22;" horiz-adv-x="626" d="M483.86 1664 L490.86 1664 Q517.86 1664 531.628 1641 Q540.238 1624 537.568 1605 Q535.882 1593 530.195 1581 Q425.4 1369 304.665 1193 Q285.73 1165 256.449 1163 L249.449 1163 Q224.449 1163 211.4 1184 Q199.93 1202 202.741 1222 Q204.146 1232 208.692 1243 Q290.254 1432 348.271 1610 Q354.082 1630 371.049 1644 Q386.876 1657 407.157 1659 L483.86 1664 Z M878.86 1664 L884.86 1664 Q911.86 1664 926.487 1640 Q936.238 1624 933.709 1606 Q932.022 1594 925.195 1581 Q818.698 1364 700.665 1193 Q682.73 1165 673.73 1165 Q663.59 1164 656.59 1164 Q618.59 1164 606.4 1184 Q594.93 1202 597.741 1222 Q599.146 1232 603.692 1243 Q685.254 1432 743.13 1609 Q749.082 1630 767.049 1644 Q783.017 1658 801.157 1659 L878.86 1664 Z " />
<glyph glyph-name="numbersign" unicode="&#x23;" horiz-adv-x="940" d="M739.86 924 Q741.844 931 742.687 937 Q746.762 966 731.714 987 Q712.93 1017 674.93 1017 L587.93 1017 Q557.93 1017 531.979 996 Q509.308 977 500.092 947 L461.698 809 L460.433 800 Q456.216 770 471.125 748 Q489.908 718 526.908 718 L614.908 718 Q644.908 718 670 740 Q692.53 758 701.746 788 L739.86 924 Z M1031.18 1154 Q1055.18 1154 1070.65 1136 Q1086.12 1118 1082.33 1091 L1080.92 1081 Q1076.99 1053 1056.46 1035 Q1035.93 1017 1011.93 1017 L884.93 1017 L801.908 718 L914.908 718 Q939.908 718 954.379 700 Q969.849 682 966.054 655 L964.93 647 Q960.995 619 940.465 601 Q920.935 583 895.935 583 L759.935 583 L671.119 257 Q664.746 233 644.497 217 Q626.389 202 605.389 202 L602.389 202 Q576.389 202 561.341 223 Q549.011 242 552.103 264 Q552.805 269 554.368 273 L638.935 583 L392.935 583 L305.119 257 Q298.746 233 278.497 217 Q259.389 202 238.389 202 L236.389 202 Q210.389 202 195.341 223 Q182.87 241 185.962 263 Q186.665 268 188.649 275 L273.935 583 L164.935 583 Q140.935 583 125.465 601 Q110.995 619 114.93 647 L116.054 655 Q119.849 682 139.379 700 Q159.908 718 183.908 718 L318.908 718 L399.93 1017 L282.93 1017 Q258.93 1017 243.46 1035 Q228.989 1053 232.925 1081 L234.33 1091 Q238.125 1118 257.654 1136 Q278.184 1154 302.184 1154 L440.184 1154 L527.595 1470 Q533.968 1494 554.076 1509 Q572.325 1525 593.325 1525 Q620.325 1525 635.233 1503 Q647.703 1485 644.611 1463 Q643.909 1458 641.925 1451 L560.184 1154 L804.184 1154 L894.736 1471 Q900.968 1494 920.217 1510 Q938.325 1525 960.325 1525 Q986.325 1525 1001.23 1503 Q1013.56 1484 1010.47 1462 Q1009.77 1457 1008.07 1452 L923.184 1154 L1031.18 1154 Z " />
<glyph glyph-name="dollar" unicode="&#x24;" horiz-adv-x="951" d="M683.67 759 Q846.816 696 908.589 609 Q966.065 527 947.373 394 Q928.681 261 832.189 165 Q728.995 64 536.357 31 L515.276 -119 Q511.622 -145 490.092 -163 Q471.562 -181 448.562 -181 L435.562 -181 Q412.562 -181 398.092 -163 Q383.622 -145 387.276 -119 L406.67 19 Q234.935 28 124.259 73 Q104.524 82 96.3352 102 Q91.4433 117 93.5514 132 Q94.6757 140 97.8 148 L119.811 205 Q130.746 233 156.433 245 Q169.416 252 181.416 252 Q191.416 252 201.714 247 Q321.827 198 448.827 198 Q546.827 198 614.308 237 Q690.773 283 702.297 365 Q712.979 441 657.427 494 Q608.892 540 494.935 583 Q332.227 642 262.189 720 Q184.416 807 202.968 939 Q220.957 1067 314.887 1159 Q411.957 1252 594.298 1290 L612.849 1422 Q616.644 1449 637.173 1467 Q655.563 1484 680.563 1484 L692.563 1484 Q717.563 1484 731.173 1467 Q745.644 1449 741.849 1422 L724.563 1299 Q870.579 1292 955.503 1263 Q976.519 1256 984.568 1235 Q990.46 1220 988.352 1205 Q987.227 1197 982.963 1188 L963.795 1137 Q954.141 1111 930.314 1098 Q916.33 1091 902.33 1091 Q892.33 1091 883.752 1094 Q787.671 1129 679.671 1129 Q575.671 1129 513.346 1084 Q457.444 1042 448.027 975 Q438.33 906 502.162 855 Q552.4 814 683.67 759 Z " />
<glyph glyph-name="percent" unicode="&#x25;" horiz-adv-x="1732" d="M484.8 703 Q566.8 703 620.465 786 Q665.443 857 683.011 982 Q699.735 1101 676.573 1171 Q648.222 1261 561.222 1261 Q478.222 1261 420.573 1171 Q374.454 1099 358.011 982 Q341.287 863 367.887 789 Q401.8 703 484.8 703 Z M854.119 997 Q826.714 802 708.692 688 Q600.357 586 461.357 586 Q320.357 586 243.692 688 Q162.871 796 187.746 973 Q212.763 1151 321.644 1264 Q431.525 1377 583.525 1377 Q735.525 1377 807.768 1272 Q878.152 1168 854.119 997 Z M1389.52 1377 Q1412.52 1377 1421.43 1355 Q1426.75 1343 1425.06 1331 Q1423.51 1320 1415.97 1309 L557.357 31 Q543.124 8 519.124 8 Q496.124 8 486.216 30 Q481.762 41 483.449 53 Q485.135 65 492.681 76 L1348.29 1354 Q1363.52 1377 1387.52 1377 L1389.52 1377 Z M1352.13 129 Q1434.13 129 1488.65 211 Q1533.63 282 1551.34 408 Q1590.41 686 1430.41 686 Q1344.41 686 1288.9 597 Q1243.78 525 1227.34 408 L1225.65 396 Q1210.05 285 1236.22 215 Q1268.13 129 1352.13 129 Z M1450.85 803 Q1602.85 803 1675.1 698 Q1746.48 594 1722.45 423 Q1694.9 227 1575.02 114 Q1468.69 12 1329.69 12 Q1189.69 12 1113.02 114 Q1032.06 221 1056.08 399 Q1081.09 577 1188.97 690 Q1298.85 803 1450.85 803 Z " />
<glyph glyph-name="ampersand" unicode="&#x26;" horiz-adv-x="1284" d="M712.827 198 Q752.778 219 763.4 259 Q765.384 266 766.368 273 Q771.005 306 752.378 330 Q676.73 425 551.887 604 Q531.681 631 496.822 632 L493.822 632 Q459.822 632 432.308 607 Q342.065 527 326.746 418 Q311.568 310 372.168 236 Q435.205 158 552.205 158 Q636.205 158 712.827 198 Z M744.768 1272 Q670.768 1272 616.476 1213 Q570.308 1162 560.33 1091 Q546.979 996 603.627 901 Q621.552 872 655.989 868 L664.989 868 Q693.989 868 719.379 885 Q789.406 935 825.73 980 Q866.179 1033 874.892 1095 Q884.449 1163 854.476 1213 Q819.768 1272 744.768 1272 Z M1289.5 772 Q1317.5 772 1331.27 749 Q1341.74 731 1338.78 710 Q1337.66 702 1334.54 694 Q1237.12 442 1060.1 264 Q1129.33 166 1160.01 121 Q1173.48 103 1170.52 82 Q1168.56 68 1160.59 54 Q1139.39 17 1102.39 17 L993.389 17 Q969.389 17 955.2 37 Q926.541 75 884.692 133 Q695.157 -6 486.157 -6 Q268.157 -6 165.741 112 Q76.0757 214 97.2974 365 Q115.006 491 194.919 590 Q267.989 683 411.108 755 L416.871 796 Q375.303 856 359.579 922 Q341.698 994 351.114 1061 Q370.087 1196 476.86 1294 Q596.46 1405 773.46 1405 Q921.46 1405 1003.94 1323 Q1086.13 1239 1067.16 1104 Q1038.35 899 753.67 759 L736.908 718 Q769.865 675 798.103 634 L822.184 599 L847.124 563 Q907.179 478 965.357 401 Q1081.86 554 1143.03 726 Q1149.84 746 1168.67 759 Q1184.5 772 1205.5 772 L1289.5 772 Z " />
<glyph glyph-name="quotesingle" unicode="&#x27;" horiz-adv-x="257" d="M382.141 1666 Q409.141 1666 425.33 1646 Q439.8 1628 436.427 1604 L435.584 1598 L353.319 1219 Q347.806 1194 326.417 1177 Q306.027 1160 282.027 1160 Q257.027 1160 241.417 1177 Q224.806 1194 226.319 1219 L250.444 1597 L251.146 1602 Q254.66 1627 274.33 1646 Q296.141 1666 324.141 1666 L382.141 1666 Z " />
<glyph glyph-name="parenleft" unicode="&#x28;" horiz-adv-x="453" d="M389.951 -164 Q394.124 -177 392.297 -190 Q389.768 -208 376.378 -225 Q356.443 -253 325.443 -253 L313.443 -253 Q281.443 -253 268.519 -224 Q203.616 -81 177.351 95 Q147.411 316 183.108 570 Q250.6 1036 491.838 1365 Q512.773 1393 544.773 1393 L555.773 1393 Q586.773 1393 599.838 1365 Q607.59 1349 605.2 1332 Q603.373 1319 595.406 1305 Q412.714 987 353.687 567 Q296.346 159 389.951 -164 Z " />
<glyph glyph-name="parenright" unicode="&#x29;" horiz-adv-x="465" d="M353.4 1369 Q418.163 1225 444.708 1051 Q474.649 830 438.952 576 Q403.114 321 310.054 100 Q235.459 -75 130.081 -220 Q109.005 -249 77.0053 -249 L65.0053 -249 Q34.0053 -249 21.081 -220 Q13.3297 -204 15.7189 -187 Q17.5459 -174 25.3729 -161 Q211.33 166 268.952 576 Q326.573 986 232.968 1309 Q228.936 1323 230.763 1336 Q233.292 1354 245.541 1370 Q265.336 1397 297.336 1397 L309.336 1397 Q341.336 1397 353.4 1369 Z " />
<glyph glyph-name="asterisk" unicode="&#x2a;" horiz-adv-x="636" d="M817.525 1377 Q823.806 1379 829.806 1379 Q846.806 1379 859.838 1365 Q878.449 1348 874.514 1320 L874.373 1319 Q870.438 1291 848.049 1274 Q831.222 1261 814.222 1261 Q809.222 1261 803.363 1262 L583.125 1303 Q560.125 1303 546.173 1282 Q539.33 1276 538.206 1268 Q536.66 1257 546.973 1245 L671.957 1067 Q684.427 1049 681.476 1028 Q680.773 1023 679.071 1018 Q671.135 990 645.168 976 L640.746 973 Q627.762 966 614.762 966 Q605.762 966 596.184 969 Q573.589 979 567.103 1004 L520.865 1230 Q517.8 1258 498.8 1258 Q485.8 1258 469.833 1244 L468.692 1243 L461.849 1237 L346.103 1004 Q332.73 980 306.325 970 Q294.762 966 285.762 966 Q274.762 966 268.325 970 L267.606 972 Q240.276 991 240.93 1017 Q240.773 1023 241.476 1028 Q244.287 1048 260.817 1066 L445.941 1259 L447.768 1272 Q452.406 1305 416.406 1305 L192.503 1263 Q186.363 1262 181.363 1262 Q163.363 1262 149.19 1275 Q132.579 1292 136.514 1320 Q140.449 1348 163.979 1366 Q179.806 1379 196.806 1379 Q202.806 1379 209.525 1377 L410.481 1334 Q417.06 1331 423.06 1331 Q436.06 1331 437.779 1329 Q459.417 1362 460.119 1367 Q461.665 1378 453.071 1388 L332.071 1573 Q321.319 1589 324.13 1609 Q324.973 1615 326.817 1621 Q334.611 1648 359.579 1662 L366.141 1666 Q379.125 1673 392.125 1673 Q401.125 1673 410.563 1669 Q432.298 1660 438.784 1635 L485.881 1408 Q493.071 1388 513.071 1388 L514.071 1388 Q533.071 1388 545.881 1408 L658.784 1635 Q672.438 1661 696.703 1670 Q707.125 1673 715.125 1673 Q729.125 1673 742.86 1664 L745.719 1663 Q764.033 1651 764.238 1624 Q764.114 1616 763.271 1610 Q760.319 1589 745.071 1573 L569.071 1388 Q557.665 1378 556.119 1367 Q555.417 1362 556.854 1358 L556.433 1355 Q565.919 1330 583.919 1330 Q589.919 1330 596.2 1332 L817.525 1377 Z " />
<glyph glyph-name="plus" unicode="&#x2b;" horiz-adv-x="1026" d="M1061.14 805 Q1082.14 805 1094.03 790 Q1106.64 773 1103.41 750 L1100.45 729 Q1097.22 706 1080.97 690 Q1063.87 675 1042.87 675 L669.865 675 L611.822 262 Q608.589 239 590.2 222 Q574.092 207 554.092 207 L525.092 207 Q506.092 207 494.2 222 Q480.589 239 483.822 262 L541.865 675 L167.865 675 Q147.865 675 134.973 690 Q122.222 706 125.454 729 L128.406 750 Q131.638 773 150.027 790 Q166.135 805 186.135 805 L560.135 805 L617.617 1214 Q620.849 1237 639.098 1253 Q655.346 1269 674.346 1269 L703.346 1269 Q722.346 1269 735.098 1253 Q748.849 1237 745.617 1214 L688.135 805 L1061.14 805 Z " />
<glyph glyph-name="comma" unicode="&#x2c;" horiz-adv-x="284" d="M233.605 232 L237.605 232 Q265.605 232 280.232 208 Q289.843 191 287.173 172 Q285.627 161 279.941 149 Q161.07 -92 40.1945 -269 Q20.2594 -297 -9.16225 -300 L-27.3028 -301 L-36.3028 -301 Q-61.3028 -301 -74.3514 -280 Q-85.8217 -262 -82.8703 -241 Q-81.6055 -232 -78.2001 -222 Q11.4703 -18 71.7352 176 Q77.546 196 94.5136 210 Q110.341 223 129.622 225 L233.605 232 Z " />
<glyph glyph-name="&amp;#x2d;" unicode="&#x2d;" horiz-adv-x="527" d="M538.027 790 Q558.027 790 569.919 775 Q583.53 758 580.298 735 L575.379 700 Q572.146 677 553.757 660 Q537.649 645 517.649 645 L156.649 645 Q136.649 645 124.757 660 Q111.146 677 114.379 700 L119.298 735 Q122.53 758 140.919 775 Q157.027 790 177.027 790 L538.027 790 Z " />
<glyph glyph-name="&amp;#xad;" unicode="&#xad;" horiz-adv-x="527" d="M538.027 790 Q558.027 790 569.919 775 Q583.53 758 580.298 735 L575.379 700 Q572.146 677 553.757 660 Q537.649 645 517.649 645 L156.649 645 Q136.649 645 124.757 660 Q111.146 677 114.379 700 L119.298 735 Q122.53 758 140.919 775 Q157.027 790 177.027 790 L538.027 790 Z " />
<glyph glyph-name="period" unicode="&#x2e;" horiz-adv-x="309" d="M183.605 232 Q248.605 232 282.562 189 Q317.238 144 306.838 70 Q296.859 -1 248.254 -48 Q202.211 -91 137.211 -91 Q73.2108 -91 38.3946 -47 Q3.85946 -1 13.8379 70 Q23.9568 142 72.2811 187 Q119.605 232 183.605 232 Z " />
<glyph glyph-name="slash" unicode="&#x2f;" horiz-adv-x="557" d="M666.022 1409 Q698.022 1409 713.227 1382 Q723.698 1364 720.606 1342 Q719.2 1332 714.795 1322 L146.486 -25 Q137.535 -46 119.708 -59 Q99.7405 -73 79.7405 -73 L69.7405 -73 Q37.7405 -73 22.5351 -46 Q12.0649 -28 15.1568 -6 Q16.5622 4 20.9676 14 L589.276 1361 Q598.227 1382 617.195 1396 Q635.022 1409 657.022 1409 L666.022 1409 Z " />
<glyph glyph-name="zero" unicode="0" horiz-adv-x="1178" d="M649.249 201 Q878.249 201 953.016 733 Q1026.8 1258 794.8 1258 Q679.8 1258 597.844 1116 Q522.011 982 487.438 736 L485.049 719 Q450.897 476 488.346 344 Q530.249 201 649.249 201 Z M826.379 1440 Q1066.38 1440 1159.99 1238 Q1247.57 1050 1203.44 736 Q1156.5 402 1004.79 212 Q851.67 19 615.67 19 Q381.67 19 285.06 221 Q193.762 411 236.314 728 Q281.427 1049 432.271 1240 Q590.379 1440 826.379 1440 Z " />
<glyph glyph-name="one" unicode="1" horiz-adv-x="690" d="M696.584 1413 Q720.584 1413 736.773 1393 Q753.103 1374 749.027 1345 L571.103 79 Q567.168 51 545.497 32 Q523.686 12 499.686 12 L379.686 12 Q354.686 12 339.497 32 Q323.168 51 327.103 79 L466.519 1071 Q474.53 1128 418.763 1151 L415.763 1151 Q407.184 1154 395.184 1154 Q378.184 1154 360.2 1147 L256.314 1098 Q242.471 1092 229.471 1092 Q216.471 1092 204.314 1098 Q179.281 1112 177.638 1143 L173.665 1193 Q172.79 1201 173.773 1208 Q176.022 1224 186.271 1240 Q197.081 1260 219.346 1269 L518.6 1406 Q532.584 1413 545.584 1413 L696.584 1413 Z " />
<glyph glyph-name="two" unicode="2" horiz-adv-x="1027" d="M912.762 226 Q938.762 226 955.092 207 Q970.281 187 966.346 159 L955.805 84 Q951.73 55 930.919 35 Q909.249 16 883.249 16 L86.2487 16 Q61.2487 16 44.9189 35 Q29.7297 55 33.8054 84 L41.9568 142 Q46.3136 173 70.1244 193 L237.8 333 Q523.108 570 635.676 695 Q778.46 850 800.433 985 Q815.892 1095 760.449 1163 Q700.849 1237 569.849 1237 Q459.849 1237 336.995 1174 Q320.871 1166 306.871 1166 Q296.871 1166 286.433 1170 Q261.838 1180 255.633 1207 L243.66 1257 Q240.627 1271 242.454 1284 Q244 1295 249.687 1307 Q261.06 1331 283.887 1344 Q463.379 1440 664.379 1440 Q882.379 1440 986.514 1320 Q1087.63 1207 1060.51 1014 Q1038.16 855 910.816 696 Q811.389 572 614.341 408 L569.281 372 Q543.611 353 534.395 323 Q532.411 316 531.708 311 Q528.335 287 538.384 266 Q555.762 226 600.762 226 L912.762 226 Z " />
<glyph glyph-name="three" unicode="3" horiz-adv-x="962" d="M724.984 747 Q866.908 718 929.243 635 Q995.735 546 978.87 426 Q953.854 248 801.254 137 Q640.67 19 395.67 19 Q274.67 19 167.746 48 Q75.5406 75 40.1946 101 L130.07 278 Q168.681 261 205.714 247 Q308.076 214 400.076 214 Q531.076 214 619.93 277 Q703.643 339 718.119 442 Q734.843 561 643.4 629 Q566.13 684 439.13 684 L345.13 684 L369.022 854 L457.022 854 Q564.303 856 645.065 897 Q751.795 952 766.552 1057 Q778.357 1141 721.665 1193 Q664.692 1243 554.692 1243 Q473.692 1243 375.195 1211 Q295.541 1185 280.276 1176 L258.73 1350 Q302.525 1377 411.6 1406 Q532.957 1437 653.957 1437 Q853.957 1437 954.465 1341 Q1048.96 1252 1029.7 1115 Q1014.95 1010 948.265 934 Q879.303 856 732.995 804 L724.984 747 Z " />
<glyph glyph-name="four" unicode="4" horiz-adv-x="1118" d="M829.016 918 Q844.617 1029 877.4 1184 Q883.444 1227 843.444 1227 Q802.444 1227 798.087 1196 Q783.995 1174 759.373 1134 L719.817 1066 L699.119 997 L691.433 985 L695.649 1015 L398.027 605 L396.2 592 Q390.86 554 430.86 554 L689.86 554 Q727.86 554 756.935 583 Q785.589 609 790.649 645 L829.016 918 Z M1125.86 554 Q1150.86 554 1165.47 537 Q1180.66 517 1176.58 488 L1169.84 440 Q1165.62 410 1141.53 388 Q1118.58 367 1093.58 367 L1078.58 367 Q1039.58 367 1010.64 339 Q985.13 314 980.351 280 L953.227 87 Q949.151 58 925.341 38 Q902.249 16 876.249 16 L769.249 16 Q742.249 16 725.2 37 Q708.151 58 712.368 88 L739.07 278 Q744.551 317 721.924 341 Q701.578 367 665.578 367 L195.578 367 Q170.578 367 153.53 388 Q135.622 410 139.838 440 L151.924 526 Q154.876 547 167.546 566 L769.649 1385 Q794.568 1420 830.568 1420 L1073.57 1420 Q1099.57 1420 1116.48 1398 Q1134.67 1378 1130.45 1348 L1031.37 643 Q1026.31 607 1044.94 583 Q1065.86 554 1104.86 554 L1125.86 554 Z " />
<glyph glyph-name="five" unicode="5" horiz-adv-x="985" d="M907.806 824 Q1046.49 715 1014.44 487 Q987.178 293 822.346 159 Q642.827 13 388.827 13 Q230.827 13 105.87 56 Q83.9946 64 74.0865 86 Q68.4757 103 71.0054 121 Q72.2703 130 75.3946 138 L95.4055 195 Q105.2 222 132.308 237 Q148.573 246 163.573 246 Q171.573 246 179.292 244 Q293.232 208 400.232 208 Q525.232 208 619.524 267 Q732.643 339 750.211 464 Q789.422 743 364.422 743 Q324.422 743 291 740 L289 740 Q261 740 244.952 761 Q230.762 781 234.557 808 Q235.119 812 236.822 817 L379.136 1360 Q385.93 1387 407.319 1404 Q426.568 1420 449.568 1420 L1027.57 1420 Q1053.57 1420 1068.18 1403 Q1083.23 1382 1079.15 1353 L1068.75 1279 Q1064.82 1251 1044.01 1231 Q1023.34 1212 998.335 1212 L527.335 1212 L446.876 917 L491.876 917 Q522.719 923 577.719 923 Q790.719 923 907.806 824 Z " />
<glyph glyph-name="six" unicode="6" horiz-adv-x="1155" d="M665.281 187 Q767.281 187 843.93 277 Q912.454 359 929.741 482 Q946.746 603 898.708 681 Q845.357 771 727.357 771 Q652.357 771 580.892 725 Q519.27 685 479.854 618 Q459.076 584 449.941 519 Q437.406 380 484.46 295 Q539.281 187 665.281 187 Z M858.249 941 Q1025.25 941 1118.37 828 Q1219.22 706 1190.41 501 Q1161.32 294 1007.5 153 Q851.265 9 644.265 9 Q395.265 9 282.719 183 Q175.768 347 212.73 610 Q240.135 805 328.465 971 Q411.39 1127 534.427 1234 Q759.849 1422 1076.1 1438 Q1092.1 1438 1104.38 1440 L1108.38 1440 Q1131.38 1440 1148.99 1423 Q1164.18 1403 1159.82 1372 L1152.09 1317 Q1148.02 1288 1128.21 1268 Q1108.82 1251 1080.54 1249 Q1067.97 1245 1050.97 1245 Q834.444 1227 692.125 1118 Q566.914 1024 512.552 872 Q510.849 867 510.006 861 Q504.665 823 545.665 823 Q560.665 823 576.352 835 Q687.249 941 858.249 941 Z " />
<glyph glyph-name="seven" unicode="7" horiz-adv-x="971" d="M1069.15 1417 Q1094.15 1417 1109.34 1397 Q1127.38 1376 1123.31 1347 L1110.8 1258 Q1108.41 1241 1100.44 1227 L389.746 48 Q367.405 10 327.405 10 L206.405 10 Q170.405 10 156.043 43 Q148.432 60 150.962 78 Q153.211 94 163.6 111 L819.325 1155 L820.59 1164 Q826.352 1205 787.352 1205 L245.352 1205 Q219.352 1205 204.022 1224 Q186.973 1245 190.908 1273 L201.309 1347 Q205.384 1376 228.336 1397 Q249.146 1417 275.146 1417 L1069.15 1417 Z " />
<glyph glyph-name="eight" unicode="8" horiz-adv-x="1153" d="M628.297 180 Q726.297 180 798.151 243 Q868.584 303 881.654 396 Q899.643 524 806.746 603 Q759.368 643 697.649 645 Q689.789 646 681.789 646 Q633.789 646 581.557 623 Q525.481 594 484.595 545 Q444.146 492 431.589 424 L429.903 412 Q416.973 320 468.838 255 Q525.297 180 628.297 180 Z M775.892 1280 Q682.892 1280 616.319 1219 Q557.59 1164 545.644 1079 Q530.044 968 631.206 898 Q674.708 866 727.708 866 Q773.708 866 823.362 892 Q929.952 946 949.254 1062 L949.957 1067 Q962.325 1155 922.335 1212 Q876.892 1280 775.892 1280 Z M958.843 746 Q1054.08 705 1101.98 626 Q1157.61 538 1141.03 420 Q1115.59 239 967.551 132 Q819.67 19 593.67 19 Q362.67 19 248.395 138 Q150.589 239 171.108 385 Q202.449 608 440.206 713 Q464.173 727 467.265 749 Q471.341 778 447.465 786 Q370.071 833 333.611 908 Q301.73 980 313.957 1067 Q337.006 1231 478.341 1333 Q615.957 1437 811.957 1437 Q1022.96 1437 1120.64 1328 Q1203.71 1236 1185.02 1103 Q1172.79 1016 1118.67 944 Q1061.57 865 968.103 819 Q944.557 808 940.903 782 Q937.811 760 958.843 746 Z " />
<glyph glyph-name="nine" unicode="9" horiz-adv-x="1125" d="M888.087 826 Q915.849 867 924.562 929 Q943.817 1066 905.465 1156 Q859.487 1270 734.487 1270 Q634.487 1270 557.681 1186 Q485.438 1106 468.152 983 L467.589 979 Q451.989 868 497.73 795 Q550.925 711 661.925 711 Q732.925 711 796.562 744 Q852.06 776 888.087 826 Z M767.222 1446 Q1005.22 1446 1109.33 1276 Q1208.7 1115 1172.3 856 Q1113.42 437 851.216 215 Q635.778 34 317.951 21 Q295.67 19 273.67 19 L270.67 19 Q245.67 19 231.2 37 Q214.87 56 219.087 86 L227.378 145 Q231.173 172 252.124 193 Q271.514 210 297.654 211 Q316.795 212 345.216 215 Q518.903 227 648.708 311 Q805.184 414 875.06 591 Q876.903 597 877.746 603 Q881.681 631 835.054 655 Q714.033 541 552.033 541 Q384.033 541 288.633 652 Q187.076 769 213.779 959 Q242.308 1162 397.984 1302 Q557.222 1446 767.222 1446 Z " />
<glyph glyph-name="colon" unicode="&#x3a;" horiz-adv-x="437" d="M122.373 394 Q132.351 465 180.676 510 Q227.86 554 291.86 554 Q356.86 554 389.957 512 Q423.633 467 415.373 394 Q405.535 324 357.211 279 Q311.027 235 246.027 235 Q182.027 235 147.211 279 Q112.535 324 122.373 394 Z M218.925 1081 Q229.044 1153 277.227 1197 Q324.552 1242 388.552 1242 Q453.552 1242 486.508 1199 Q520.325 1155 511.925 1081 Q502.087 1011 453.762 966 Q407.579 922 342.579 922 Q278.579 922 243.762 966 Q209.087 1011 218.925 1081 Z " />
<glyph glyph-name="&amp;#x3b;" unicode="&#x3b;" horiz-adv-x="442" d="M392.687 937 Q328.687 937 293.871 981 Q260.054 1025 269.19 1090 L270.033 1096 Q280.152 1168 327.617 1214 Q373.66 1257 437.66 1257 Q502.66 1257 535.617 1214 Q569.433 1170 561.033 1096 Q551.195 1026 504.73 980 Q458.687 937 392.687 937 Z M372.687 567 L375.687 567 Q402.687 567 418.033 541 Q427.643 524 425.114 506 Q423.568 495 417.881 483 Q300.151 243 177.276 66 Q158.341 38 128.919 35 L113.778 34 L104.778 34 Q79.7784 34 66.7297 55 Q55.4 74 58.3514 95 Q59.6162 104 63.0217 114 Q150.27 315 213.535 509 Q219.487 530 237.595 545 Q253.562 559 272.703 560 L372.687 567 Z " />
<glyph glyph-name="&amp;#x37e;" unicode="&#x37e;" horiz-adv-x="442" d="M392.687 937 Q328.687 937 293.871 981 Q260.054 1025 269.19 1090 L270.033 1096 Q280.152 1168 327.617 1214 Q373.66 1257 437.66 1257 Q502.66 1257 535.617 1214 Q569.433 1170 561.033 1096 Q551.195 1026 504.73 980 Q458.687 937 392.687 937 Z M372.687 567 L375.687 567 Q402.687 567 418.033 541 Q427.643 524 425.114 506 Q423.568 495 417.881 483 Q300.151 243 177.276 66 Q158.341 38 128.919 35 L113.778 34 L104.778 34 Q79.7784 34 66.7297 55 Q55.4 74 58.3514 95 Q59.6162 104 63.0217 114 Q150.27 315 213.535 509 Q219.487 530 237.595 545 Q253.562 559 272.703 560 L372.687 567 Z " />
<glyph glyph-name="less" unicode="&#x3c;" horiz-adv-x="978" d="M309.979 811 L304.076 769 L955.962 448 Q972.697 439 981.589 424 Q988.2 407 985.249 386 L983.984 377 Q978.643 339 947.973 320 Q928.427 309 912.427 309 Q899.427 309 887.27 315 L154.379 700 Q119.908 718 125.952 761 L134.243 820 Q140.287 863 179.816 881 L1020.78 1265 Q1034.63 1271 1047.63 1271 Q1063.63 1271 1080.08 1260 Q1105.41 1241 1100.07 1203 L1098.81 1194 Q1095.85 1173 1084.61 1157 Q1070.36 1141 1052.09 1132 L309.979 811 Z " />
<glyph glyph-name="equal" unicode="&#x3d;" horiz-adv-x="1092" d="M1065.5 587 Q1088.5 587 1103.11 570 Q1115.72 553 1112.21 528 L1109.54 509 Q1106.02 484 1087.49 466 Q1069.1 449 1046.1 449 L171.103 449 Q149.103 449 135.492 466 Q121.022 484 124.535 509 L127.206 528 Q130.719 553 149.108 570 Q168.497 587 190.497 587 L1065.5 587 Z M1127.34 1027 Q1150.34 1027 1164.95 1010 Q1177.56 993 1174.04 968 L1171.37 949 Q1167.86 924 1149.33 906 Q1130.94 889 1107.94 889 L232.941 889 Q210.941 889 197.33 906 Q182.86 924 186.373 949 L189.044 968 Q192.557 993 210.946 1010 Q230.335 1027 252.335 1027 L1127.34 1027 Z " />
<glyph glyph-name="greater" unicode="&#x3e;" horiz-adv-x="987" d="M1043.96 882 Q1078.43 864 1072.38 821 L1062.27 749 Q1056.22 706 1016.69 688 L176.427 309 Q162.584 303 150.584 303 Q133.584 303 119.13 314 Q91.8001 333 97.1406 371 L98.4055 380 Q101.357 401 113.746 418 Q127.995 434 145.26 443 L904.373 764 L910.276 806 L241.39 1127 Q226.514 1135 216.903 1152 Q209.292 1169 212.244 1190 L213.508 1199 Q218.849 1237 251.519 1256 Q269.065 1267 286.065 1267 Q298.065 1267 310.222 1261 L1043.96 882 Z " />
<glyph glyph-name="question" unicode="&#x3f;" horiz-adv-x="679" d="M301.47 352 Q366.47 352 400.427 309 Q435.243 265 427.265 194 Q417.427 124 369.103 79 Q321.919 35 256.919 35 Q192.919 35 158.962 78 Q124.427 124 134.265 194 Q144.103 264 191.427 309 Q237.47 352 301.47 352 Z M484.222 1446 Q660.222 1446 741.433 1355 Q814.33 1276 796.481 1149 Q782.708 1051 717.06 961 Q690.86 924 652.098 883 Q637.849 867 620.179 848 L602.93 832 L585.4 814 Q455.13 684 434.049 534 L432.924 526 Q432.503 523 431.362 522 L250.362 522 Q242.362 522 238.065 527 Q233.049 534 233.595 545 Q234.141 556 235.546 566 Q256.206 713 390.162 855 Q460.984 932 491.606 972 Q541.162 1040 549.314 1098 Q570.957 1252 389.081 1260 Q329.081 1260 257.99 1238 Q248.568 1235 239.568 1235 Q227.568 1235 215.411 1241 Q196.957 1252 192.611 1278 L184.795 1322 Q183.06 1331 184.325 1340 Q186.292 1354 195.26 1368 Q210.633 1392 232.757 1400 Q354.222 1446 484.222 1446 Z " />
<glyph glyph-name="at" unicode="&#x40;" horiz-adv-x="1461" d="M1008.07 897 Q1009.91 903 1010.89 910 Q1014.83 938 1000.2 962 Q980.557 993 941.557 993 L938.557 993 Q921.838 995 904.838 995 Q773.838 995 678.503 893 Q589.011 797 568.492 651 Q558.373 579 584.33 536 Q612.724 489 676.724 489 Q748.724 489 841.827 568 Q937.352 650 967.265 749 L1008.07 897 Z M1119.07 1082 Q1125.64 1079 1127.52 1071 Q1130.54 1064 1129.55 1057 L1128.99 1053 Q1095.45 914 1074.06 776 L1072.23 763 Q1031.48 473 1125.05 470 L1128.05 470 Q1217.05 470 1296.25 571 Q1381.57 680 1406.87 860 Q1438.77 1087 1327.87 1230 Q1207.95 1380 966.946 1380 Q844.946 1380 726.06 1331 Q607.314 1283 510.806 1194 Q301.119 997 257.973 690 Q219.465 416 351.978 256 Q480.335 102 724.335 102 Q856.335 102 976.378 145 Q981.66 147 986.66 147 Q992.66 147 999.097 143 Q1010.25 137 1011.43 124 Q1012.72 119 1011.74 112 Q1010.62 104 1006.63 97 Q999.087 86 987.524 82 Q849.216 30 673.216 30 Q552.216 30 449.4 74 Q347.584 118 276.108 200 Q120.406 380 161.162 670 Q183.087 826 255.325 970 Q327.141 1111 437.179 1218 Q550.638 1328 690.071 1388 Q836.925 1451 997.925 1451 Q1253.92 1451 1394.74 1286 Q1534.69 1122 1498.71 866 Q1467.93 647 1344.24 514 Q1228.81 390 1076.81 390 Q1013.81 390 983.168 421 Q947.946 455 951.362 522 Q955.719 553 922.719 553 Q890.719 553 887.487 530 Q800.622 410 642.622 410 Q555.622 410 511.335 472 Q463.892 540 480.335 657 Q506.898 846 642.325 970 Q784.876 1102 983.876 1102 Q1066.88 1102 1119.07 1082 Z " />
<glyph glyph-name="A" unicode="A" horiz-adv-x="1063" d="M682 555 Q725 555 752.919 590 Q774.011 612 777.946 640 Q779.633 652 777.319 664 L747.049 904 Q741.076 954 734.335 1027 Q731.989 1053 730.19 1090 L726.687 1122 L722.854 1173 Q696.838 1180 677.838 1180 Q668.838 1180 647.557 1178 Q630.53 1128 617.19 1090 L595.054 1025 Q568.233 948 551.049 904 L457.179 663 Q451.492 651 449.946 640 Q446.152 613 460.779 589 Q480 555 522 555 L682 555 Z M1070.77 98 Q1071.37 88 1070.1 79 Q1067.15 58 1051.48 39 Q1033.11 15 1007.11 15 L876.108 15 Q860.108 15 849.514 25 Q835.481 39 832.011 57 L797.973 320 Q789.827 383 726.827 383 L429.827 383 Q365.827 383 339.833 319 L238.292 59 Q230.481 39 213.654 26 Q199.108 15 183.108 15 L64.1081 15 Q38.1081 15 26.4811 39 Q16.1514 58 19.1027 79 Q20.3676 88 24.773 98 L540.622 1335 Q549.573 1356 567.26 1368 Q580.806 1379 597.806 1379 L851.806 1379 Q868.806 1379 880.26 1368 Q893.573 1356 896.622 1335 L1070.77 98 Z " />
<glyph glyph-name="B" unicode="B" horiz-adv-x="1040" d="M504 185 Q624 185 707.589 239 Q805.443 302 823.011 427 Q840.157 549 755.87 611 Q686.319 664 558.319 664 L504.319 664 Q469.319 664 441.525 637 Q416.011 612 411.092 577 L368.368 273 Q363.589 239 381.076 214 Q400.281 187 434.141 186 Q454 185 504 185 Z M578.568 1235 Q544.146 1232 518.352 1205 Q495.979 1181 491.341 1148 L458.173 912 Q453.254 877 472.881 853 Q492.087 826 527.087 826 L576.087 826 Q702.087 826 781.816 881 Q863.968 939 877.741 1037 Q891.514 1135 831.103 1189 Q775.99 1238 663.99 1238 Q614.99 1238 578.568 1235 Z M870.016 733 Q972.519 701 1022.28 621 Q1076.33 536 1059.18 414 Q1035.71 247 897.114 136 Q742.108 15 393.108 15 Q266.108 15 162.654 26 Q141.935 28 130.324 45 Q117.854 63 121.508 89 L295.076 1324 Q298.73 1350 315.26 1368 Q332.649 1385 351.93 1387 Q489.319 1404 650.319 1404 Q784.319 1404 863.93 1387 Q945.541 1370 1003.64 1328 Q1062.3 1290 1090.58 1228 Q1120.31 1162 1108.5 1078 Q1095.99 989 1039.16 919 Q980.476 843 878.995 804 Q854.308 792 851.076 769 Q847.843 746 870.016 733 Z " />
<glyph glyph-name="C" unicode="C" horiz-adv-x="980" d="M886.163 1225 Q688.163 1225 548.173 1097 Q400.919 960 366.627 716 Q334.303 486 433.33 351 Q535.935 213 745.935 213 Q825.935 213 913.605 232 Q920.887 234 926.887 234 Q940.887 234 951.622 225 Q969.654 211 969.719 183 L972.865 120 Q972.881 113 971.897 106 Q969.368 88 957.978 71 Q943.168 51 922.324 45 Q810.108 15 674.108 15 Q365.108 15 220.232 208 Q83.092 392 125.957 697 Q173.881 1038 398.708 1236 Q608.99 1423 900.99 1423 Q1025.99 1423 1123.05 1395 Q1143.07 1388 1151.98 1366 Q1157.73 1350 1155.34 1333 Q1154.08 1324 1150.95 1316 L1125.25 1247 Q1115.6 1221 1094.91 1209 Q1080.65 1200 1066.65 1200 Q1060.65 1200 1053.93 1202 Q976.163 1225 886.163 1225 Z " />
<glyph glyph-name="D" unicode="D" horiz-adv-x="1149" d="M469.827 198 Q669.827 198 799.66 332 Q938.476 473 975.298 735 L975.86 739 Q1008.04 968 918.173 1097 Q828.163 1225 636.163 1225 Q586.163 1225 545.46 1220 Q515.898 1216 492.244 1190 Q471.871 1166 467.654 1136 L347.914 284 Q343.416 252 358.184 229 Q376.389 202 407.968 199 Q419.827 198 436.827 198 L469.827 198 Z M1075.08 1260 Q1239.19 1090 1190.84 746 Q1139.41 380 926.703 190 Q728.108 15 380.108 15 Q257.108 15 155.654 26 Q139.935 28 130.184 44 Q117.854 63 121.649 90 L294.936 1323 Q298.59 1349 315.26 1368 Q328.509 1384 346.79 1386 Q477.319 1404 633.319 1404 Q795.319 1404 901.4 1369 Q1003.48 1334 1075.08 1260 Z " />
<glyph glyph-name="E" unicode="E" horiz-adv-x="919" d="M841.654 211 Q862.654 211 876.265 194 Q890.454 174 886.66 147 L877.103 79 Q873.168 51 853.497 32 Q835.108 15 814.108 15 L165.108 15 Q145.108 15 130.638 33 Q116.168 51 120.103 79 L293.811 1315 Q297.606 1342 317.417 1362 Q335.806 1379 356.806 1379 L978.806 1379 Q999.806 1379 1013.42 1362 Q1027.61 1342 1023.81 1315 L1014.11 1246 Q1010.32 1219 990.508 1199 Q973.26 1183 951.26 1183 L581.26 1183 Q547.26 1183 518.606 1157 Q492.092 1132 487.033 1096 L459.768 902 Q454.708 866 474.195 841 Q495.541 815 529.541 815 L871.541 815 Q892.541 815 906.152 798 Q919.481 779 915.546 751 L906.27 685 Q902.335 657 883.665 638 Q865.276 621 844.276 621 L502.276 621 Q468.276 621 439.622 595 Q413.108 570 408.049 534 L374.881 298 Q369.822 262 389.308 237 Q410.654 211 444.654 211 L841.654 211 Z " />
<glyph glyph-name="F" unicode="F" horiz-adv-x="877" d="M972.806 1379 Q993.806 1379 1006.56 1363 Q1019.89 1344 1016.09 1317 L1005.83 1244 Q1002.18 1218 983.508 1199 Q966.26 1183 945.26 1183 L580.26 1183 Q545.26 1183 518.465 1156 Q492.092 1132 487.173 1097 L455.271 870 Q450.492 836 470.119 812 Q489.325 785 524.325 785 L857.325 785 Q877.325 785 890.076 769 Q904.265 749 900.611 723 L890.773 653 Q887.119 627 867.449 608 Q849.06 591 830.06 591 L497.06 591 Q462.06 591 435.406 565 Q409.033 541 404.114 506 L343.822 77 Q340.027 50 321.357 31 Q304.108 15 283.108 15 L164.108 15 Q143.108 15 130.357 31 Q116.168 51 119.822 77 L294.092 1317 Q297.746 1343 317.557 1363 Q334.806 1379 355.806 1379 L972.806 1379 Z " />
<glyph glyph-name="G" unicode="G" horiz-adv-x="1190" d="M1120.69 133 Q1117.6 111 1104.21 94 Q1089.96 78 1072.12 72 Q986.746 48 900.638 33 Q797.108 15 706.108 15 Q376.108 15 230.827 198 Q158.054 285 132.043 413 Q104.892 540 125.833 689 L126.676 695 Q175.617 1029 401.881 1223 Q620.022 1409 933.022 1409 Q1081.02 1409 1193.96 1373 Q1213.98 1366 1222.89 1344 Q1229.64 1328 1227.25 1311 Q1226.12 1303 1222 1295 L1196.3 1226 Q1186.65 1200 1163.82 1187 Q1149.56 1178 1137.56 1178 Q1131.56 1178 1125.84 1180 Q1029.19 1211 902.195 1211 Q696.195 1211 552.487 1085 Q400.514 950 367.065 712 Q334.319 479 438.206 343 Q540.092 207 739.092 207 Q806.092 207 855.357 216 Q886.341 223 906.714 247 Q927.087 271 931.162 300 L961.097 513 Q966.016 548 947.389 572 Q926.043 598 893.043 598 L827.043 598 Q806.043 598 792.433 615 Q779.103 634 782.897 661 L790.908 718 Q794.703 745 813.373 764 Q831.762 781 852.762 781 L1157.76 781 Q1178.76 781 1192.37 764 Q1206.56 744 1202.91 718 L1120.69 133 Z " />
<glyph glyph-name="H" unicode="H" horiz-adv-x="1232" d="M461.173 912 Q456.676 880 474.881 853 Q497.368 828 530.368 828 L922.368 828 Q954.368 828 983.881 853 Q1009.68 880 1014.17 912 L1071.09 1317 Q1074.75 1343 1094.42 1362 Q1112.81 1379 1132.81 1379 L1249.81 1379 Q1270.81 1379 1283.42 1362 Q1297.75 1343 1294.09 1317 L1119.82 77 Q1116.17 51 1096.5 32 Q1079.11 15 1058.11 15 L941.108 15 Q921.108 15 907.497 32 Q893.168 51 896.822 77 L960.487 530 Q965.406 565 946.779 589 Q925.433 615 892.433 615 L500.433 615 Q466.433 615 437.779 589 Q412.406 565 407.487 530 L343.822 77 Q340.168 51 321.497 32 Q303.108 15 283.108 15 L164.108 15 Q143.108 15 130.497 32 Q116.168 51 119.822 77 L294.092 1317 Q297.746 1343 317.417 1362 Q334.806 1379 355.806 1379 L474.806 1379 Q494.806 1379 508.417 1362 Q521.746 1343 518.092 1317 L461.173 912 Z " />
<glyph glyph-name="I" unicode="I" horiz-adv-x="458" d="M470.806 1379 Q493.806 1379 508.276 1361 Q523.606 1342 519.952 1316 L345.962 78 Q342.168 51 321.638 33 Q302.108 15 279.108 15 L170.108 15 Q145.108 15 130.638 33 Q116.168 51 119.962 78 L293.952 1316 Q297.606 1342 318.276 1361 Q337.806 1379 361.806 1379 L470.806 1379 Z " />
<glyph glyph-name="J" unicode="J" horiz-adv-x="672" d="M687.038 1402 Q711.038 1402 725.509 1384 Q740.838 1365 737.184 1339 L623.627 531 Q584.276 251 451.849 127 Q334.108 15 125.108 15 Q69.1081 15 9.65406 26 Q-12.7838 30 -25.8324 51 Q-35.5838 67 -32.7729 87 Q-32.0702 92 -30.3675 97 L-12.8108 165 Q-6.1567 191 15.9514 206 Q34.919 220 51.919 220 Q55.919 220 59.7784 219 Q91.2163 215 122.216 215 Q239.216 215 307.476 288 Q378.157 364 402.189 535 L515.184 1339 Q518.838 1365 540.509 1384 Q560.038 1402 583.038 1402 L687.038 1402 Z " />
<glyph glyph-name="K" unicode="K" horiz-adv-x="1056" d="M1082.35 95 Q1088.66 83 1086.7 69 Q1084.87 56 1074.76 41 Q1057.11 15 1031.11 15 L870.108 15 Q843.108 15 832.622 40 L628.406 565 Q613.184 599 575.746 603 L568.746 603 Q532.746 603 508.67 574 L422.46 480 Q404.649 460 400.995 434 L349.557 68 Q346.324 45 329.216 30 Q313.108 15 295.108 15 L158.108 15 Q140.108 15 128.216 30 Q115.324 45 118.557 68 L295.357 1326 Q298.59 1349 315.698 1364 Q331.806 1379 349.806 1379 L486.806 1379 Q504.806 1379 516.698 1364 Q529.59 1349 526.357 1326 L450.184 784 Q444.703 745 483.703 745 Q506.703 745 520.654 766 Q542.152 798 576.476 843 L604.816 881 L632.157 919 L973.573 1356 Q990.806 1379 1014.81 1379 L1176.81 1379 Q1205.81 1379 1214.87 1351 Q1219.04 1338 1217.36 1326 Q1214.97 1309 1201.72 1293 L777.135 805 L1082.35 95 Z " />
<glyph glyph-name="L" unicode="L" horiz-adv-x="871" d="M480.806 1379 Q502.806 1379 517.276 1361 Q532.606 1342 528.811 1315 L386.584 303 Q381.665 268 401.151 243 Q422.497 217 457.497 217 L851.497 217 Q874.497 217 888.108 200 Q903.297 180 899.643 154 L889.103 79 Q885.308 52 864.638 33 Q845.108 15 823.108 15 L168.108 15 Q146.108 15 131.638 33 Q116.308 52 120.103 79 L293.811 1315 Q297.606 1342 318.276 1361 Q337.806 1379 359.806 1379 L480.806 1379 Z " />
<glyph glyph-name="M" unicode="M" horiz-adv-x="1477" d="M1500.81 1379 Q1517.81 1379 1530.42 1362 Q1542.89 1344 1538.81 1315 L1365.1 79 Q1361.03 50 1343.5 32 Q1326.11 15 1309.11 15 L1223.11 15 Q1206.11 15 1194.5 32 Q1182.03 50 1186.1 79 L1330.3 1105 L1334.04 1153 L1267.04 1153 Q1174.3 856 1058.69 567 L867.946 85 Q857.854 63 839.887 49 Q824.341 38 805.341 38 L668.341 38 Q649.341 38 637.027 50 Q621.854 63 619.946 85 L562.687 567 Q528.303 856 519.044 1153 L450.044 1153 L299.103 79 Q295.027 50 277.497 32 Q261.108 15 243.108 15 L158.108 15 Q140.108 15 128.497 32 Q116.027 50 120.103 79 L293.811 1315 Q297.887 1344 316.417 1362 Q331.806 1379 349.806 1379 L609.806 1379 Q627.806 1379 640.119 1367 Q655.152 1353 659.341 1333 L713.141 926 Q745.119 627 754.389 387 L817.389 387 Q893.119 627 1010.14 926 L1178.48 1334 Q1187.15 1353 1207.12 1367 Q1221.81 1379 1240.81 1379 L1500.81 1379 Z " />
<glyph glyph-name="N" unicode="N" horiz-adv-x="1274" d="M293.952 1316 Q297.606 1342 318.276 1361 Q337.806 1379 359.806 1379 L568.806 1379 Q601.806 1379 614.449 1348 L799.552 872 Q890.665 638 947.092 392 Q942.876 362 979.876 362 Q1019.88 362 1024.51 395 Q1025.22 400 1025.06 406 Q1034.07 648 1082.7 994 L1127.95 1316 Q1131.61 1342 1151.28 1361 Q1170.81 1379 1192.81 1379 L1288.81 1379 Q1310.81 1379 1325.28 1361 Q1339.61 1342 1335.95 1316 L1161.96 78 Q1158.17 51 1138.64 33 Q1119.11 15 1097.11 15 L924.108 15 Q891.108 15 878.465 46 L688.157 549 Q586.681 816 528.287 1048 Q523.941 1074 498.941 1074 Q492.941 1074 483.519 1071 Q455.254 1062 451.319 1034 Q423.546 751 375.903 412 L328.962 78 Q325.168 51 304.638 33 Q285.108 15 263.108 15 L168.108 15 Q146.108 15 131.638 33 Q116.168 51 119.962 78 L293.952 1316 Z " />
<glyph glyph-name="O" unicode="O" horiz-adv-x="1252" d="M638.53 203 Q801.53 203 917.314 358 Q1023.27 500 1054.89 725 Q1084.69 937 1019.5 1078 Q946.99 1238 781.99 1238 Q619.99 1238 502.065 1082 Q396.249 941 364.627 716 Q333.146 492 401.47 352 Q476.53 203 638.53 203 Z M816.411 1426 Q1083.41 1426 1212.16 1225 Q1334.18 1033 1292.3 735 Q1245.08 399 1052.81 205 Q865.108 15 597.108 15 Q337.108 15 209.795 212 Q85.0596 406 127.643 709 Q171.914 1024 363.022 1224 Q553.411 1426 816.411 1426 Z " />
<glyph glyph-name="P" unicode="P" horiz-adv-x="1054" d="M580.643 709 Q717.643 709 807.762 781 Q899.022 854 916.871 981 Q933.454 1099 869.73 1165 Q805.865 1230 677.865 1230 Q630.865 1230 590.163 1225 Q557.6 1221 533.087 1196 Q506.573 1171 501.654 1136 L454.433 800 Q449.514 765 470.141 741 Q487.065 712 522.925 711 Q544.643 709 580.643 709 Z M1063.7 1300 Q1118.39 1248 1140.43 1170 Q1166.77 1087 1153.28 991 Q1124.61 787 992.162 670 Q832.065 527 557.065 527 Q532.065 527 507.487 530 L503.487 530 Q467.487 530 439.692 503 Q409.038 477 403.979 441 L353.243 80 Q349.449 53 328.638 33 Q309.108 15 286.108 15 L169.108 15 Q146.108 15 131.638 33 Q116.449 53 120.243 80 L295.357 1326 Q298.871 1351 316.26 1368 Q333.93 1387 357.352 1390 Q498.741 1407 686.741 1407 Q951.741 1407 1063.7 1300 Z " />
<glyph glyph-name="Q" unicode="Q" horiz-adv-x="1254" d="M816.606 417 Q833.281 372 879.281 372 L881.281 372 Q933.281 372 960.168 421 Q1032.3 550 1057.03 726 Q1086.83 938 1021.78 1080 Q947.271 1240 784.271 1240 Q621.271 1240 503.206 1083 Q397.389 942 365.908 718 Q343.984 562 371.4 444 Q400.114 321 476.541 260 Q497.151 243 520.151 243 Q548.151 243 577.805 269 Q606.46 295 610.957 327 Q613.627 346 607.578 367 L568.741 482 Q568.022 484 568.443 487 Q569.568 495 574.833 504 Q588.643 524 614.611 538 L702.497 587 Q724.184 599 741.184 599 L745.184 599 Q756.043 598 757.341 593 L816.606 417 Z M817.552 1427 Q1085.55 1427 1214.3 1226 Q1336.46 1035 1294.44 736 Q1266.33 536 1182.55 381 Q1102.61 232 981.957 142 Q956.427 124 943.93 92 Q941.665 83 940.681 76 Q937.87 56 943.2 37 L989.086 -99 Q989.805 -101 989.524 -103 Q988.681 -109 982.135 -120 Q968.184 -141 943.216 -155 L855.47 -203 Q833.784 -215 815.784 -215 L811.784 -215 Q801.924 -214 800.627 -209 L739.486 -25 Q722.811 20 676.811 20 L667.811 20 Q633.249 16 598.249 16 Q338.249 16 210.076 214 Q85.3407 408 127.925 711 Q172.195 1026 363.163 1225 Q554.552 1427 817.552 1427 Z " />
<glyph glyph-name="R" unicode="R" horiz-adv-x="1089" d="M605.687 752 Q732.687 752 817.103 819 Q903.379 885 919.26 998 Q935.281 1112 871.135 1175 Q812.568 1235 691.708 1236 Q635.708 1236 591.146 1232 Q558.584 1228 532.93 1202 Q508.417 1177 503.779 1144 L461.054 840 Q456.135 805 475.622 780 Q496.687 752 533.687 752 L605.687 752 Z M1040.49 96 Q1042.23 87 1040.96 78 Q1038.01 57 1023.48 39 Q1003.11 15 974.108 15 L849.108 15 Q832.108 15 818.654 26 Q804.2 37 801.011 57 Q787.238 144 771.676 325 Q761.773 468 712.924 526 Q666.216 585 553.497 587 L510.497 587 Q475.497 587 444.843 561 Q417.908 533 413.13 499 L353.962 78 Q350.308 52 329.638 33 Q310.108 15 288.108 15 L168.108 15 Q146.108 15 131.638 33 Q116.308 52 119.962 78 L295.638 1328 Q299.152 1353 316.681 1371 Q333.071 1388 355.352 1390 Q506.881 1408 680.881 1408 Q889.881 1408 1009.69 1307 Q1133.07 1203 1107.91 1024 Q1089.92 896 1030.98 811 Q974.735 731 869.114 691 L861.665 638 Q984.654 581 1008.41 380 L1017.01 306 L1024.61 232 Q1035.68 140 1040.49 96 Z " />
<glyph glyph-name="S" unicode="S" horiz-adv-x="918" d="M671.103 819 Q831.827 753 894.335 657 Q958.124 563 938.73 425 Q913.995 249 778.395 138 Q627.108 15 382.108 15 Q233.108 15 104.995 64 Q84.1189 72 77.0703 93 Q71.1784 108 73.4271 124 Q74.5514 132 77.6757 140 L104.076 214 Q113.87 241 138.838 255 Q153.822 262 166.822 262 Q176.822 262 187.26 258 Q306.654 211 427.654 211 Q540.654 211 611.681 261 Q686.708 311 699.357 401 Q710.881 483 654.752 539 Q609.357 586 487.384 636 Q165.373 764 202.335 1027 Q226.368 1198 362.827 1308 Q507.99 1423 722.99 1423 Q854.99 1423 960.93 1387 Q981.946 1380 990.854 1358 Q996.746 1343 994.498 1327 Q993.373 1319 990.108 1310 L961.411 1241 Q951.617 1214 926.79 1201 Q912.665 1193 899.665 1193 Q890.665 1193 882.087 1196 Q791.444 1227 690.444 1227 Q585.444 1227 517.698 1179 Q448.811 1130 438.13 1054 Q426.465 971 491.876 917 Q536.535 879 671.103 819 Z " />
<glyph glyph-name="T" unicode="T" horiz-adv-x="871" d="M1096.48 1398 Q1121.48 1398 1135.95 1380 Q1151.14 1360 1147.34 1333 L1136.8 1258 Q1132.72 1229 1112.05 1210 Q1092.52 1192 1067.52 1192 L846.525 1192 Q812.525 1192 783.152 1168 Q754.357 1141 749.438 1106 L605.243 80 Q601.449 53 580.638 33 Q561.108 15 536.108 15 L423.108 15 Q399.108 15 384.638 33 Q368.449 53 372.243 80 L516.438 1106 Q521.357 1141 501.011 1167 Q478.525 1192 444.525 1192 L229.525 1192 Q203.525 1192 189.054 1210 Q173.725 1229 177.8 1258 L188.341 1333 Q192.136 1360 212.946 1380 Q232.476 1398 258.476 1398 L1096.48 1398 Z " />
<glyph glyph-name="U" unicode="U" horiz-adv-x="1213" d="M1243.04 1402 Q1267.04 1402 1281.51 1384 Q1295.98 1366 1292.18 1339 L1192.96 633 Q1149.11 321 989.908 163 Q838.108 15 590.108 15 Q95.1081 15 182.525 637 L281.184 1339 Q284.979 1366 304.509 1384 Q324.038 1402 348.038 1402 L462.038 1402 Q485.038 1402 499.509 1384 Q514.979 1366 511.184 1339 L408.87 611 Q381.606 417 435.13 314 Q491.811 205 626.811 205 Q904.811 205 961.87 611 L1064.18 1339 Q1067.98 1366 1088.51 1384 Q1108.04 1402 1131.04 1402 L1243.04 1402 Z " />
<glyph glyph-name="V" unicode="V" horiz-adv-x="1108" d="M1244.81 1379 Q1273.81 1379 1288.29 1354 Q1296.9 1337 1294.23 1318 Q1292.69 1307 1288.14 1296 L729.011 57 Q720.341 38 702.795 27 Q687.108 15 669.108 15 L454.108 15 Q436.108 15 422.795 27 Q408.481 39 405.292 59 L213.422 1298 Q211.968 1309 213.373 1319 Q216.044 1338 229.292 1354 Q250.806 1379 279.806 1379 L411.806 1379 Q430.806 1379 444.119 1367 Q457.292 1354 461.341 1333 L527.152 798 Q559.47 537 568.157 364 Q572.535 324 633.973 320 L634.973 320 Q657.973 320 674.157 364 Q745.108 570 836.308 792 L1062.62 1335 Q1071.15 1353 1088.98 1366 Q1105.81 1379 1123.81 1379 L1244.81 1379 Z " />
<glyph glyph-name="W" unicode="W" horiz-adv-x="1605" d="M1743.81 1379 Q1770.81 1379 1785.43 1355 Q1795.9 1337 1792.95 1316 Q1791.83 1308 1788.7 1300 L1320.85 63 Q1312.76 41 1295.08 29 Q1276.11 15 1257.11 15 L1084.11 15 Q1063.11 15 1048.94 28 Q1035.04 43 1034.28 66 L1012.89 604 Q1004.51 829 1009.28 991 Q1012.18 1033 979.179 1033 Q972.179 1033 964.898 1031 L961.898 1031 Q931.211 1019 922.557 993 Q855.233 763 798.887 604 L613.135 65 Q606.903 42 588.076 29 Q570.108 15 550.108 15 L378.108 15 Q356.108 15 341.076 29 Q324.324 45 322.557 68 L225.703 1300 Q224.827 1308 226.092 1317 Q229.044 1338 244.573 1356 Q265.806 1379 293.806 1379 L416.806 1379 Q437.806 1379 452.838 1365 Q466.73 1350 467.357 1326 L481.822 817 Q484.346 714 486.795 582 Q488.708 496 489.314 358 Q492.535 324 525.535 324 L540.535 324 Q567.362 337 576.314 358 Q624.065 527 721.103 819 L887.795 1322 Q895.449 1348 915.698 1364 Q935.806 1379 958.806 1379 L1110.81 1379 Q1133.81 1379 1149.56 1363 Q1166.17 1346 1166.65 1321 L1183.99 804 Q1191.9 597 1189.02 363 Q1183.54 324 1244.54 324 Q1265.54 324 1271.02 363 Q1296.66 453 1337.64 588 L1371.94 704 L1407.24 820 L1570.65 1321 Q1578.31 1347 1598.7 1364 Q1618.81 1379 1641.81 1379 L1743.81 1379 Z " />
<glyph glyph-name="X" unicode="X" horiz-adv-x="985" d="M968.459 110 Q974.07 93 971.962 78 Q969.714 62 958.465 46 Q937.108 15 904.108 15 L777.108 15 Q741.108 15 729.887 49 L664.838 255 Q645.427 309 627.578 367 Q619.811 390 610.887 419 L594.914 469 Q587.692 503 583.692 503 L584.114 506 Q511.27 500 492.492 466 Q471.73 425 439.438 366 L424.784 340 L408.989 313 Q389.789 276 376.697 254 L263.308 52 Q253.919 35 238.514 25 Q221.108 15 205.108 15 L83.1081 15 Q50.1081 15 36.3243 45 Q30.7135 62 32.8216 77 Q35.0703 93 45.4595 110 L414.038 662 Q428.989 683 432.222 706 Q435.033 726 427.265 749 L223.454 1284 Q217.844 1301 220.092 1317 Q222.2 1332 232.449 1348 Q254.806 1379 286.806 1379 L412.806 1379 Q429.806 1379 443.4 1369 Q456.136 1360 460.746 1343 L522.935 1138 Q553.303 1041 573.498 957 Q584.281 927 617.157 919 L628.157 919 Q665.157 919 686.779 959 Q720.054 1025 780.935 1138 L896.606 1342 Q905.995 1359 922.4 1369 Q938.806 1379 954.806 1379 L1075.81 1379 Q1108.81 1379 1122.45 1348 Q1129.2 1332 1126.95 1316 Q1124.7 1300 1113.31 1283 L759.389 757 Q745.438 736 742.346 714 Q739.395 693 747.162 670 L968.459 110 Z " />
<glyph glyph-name="Y" unicode="Y" horiz-adv-x="892" d="M1102.81 1379 Q1135.81 1379 1149.45 1348 Q1156.2 1332 1153.95 1316 Q1151.84 1301 1140.31 1283 L698.573 616 Q679.497 587 674.719 553 L608.103 79 Q604.308 52 582.638 33 Q563.108 15 540.108 15 L430.108 15 Q406.108 15 391.638 33 Q376.308 52 380.103 79 L445.314 543 Q449.811 575 439.887 604 L199.595 1285 Q193.703 1300 195.811 1315 Q198.2 1332 209.59 1349 Q231.806 1379 264.806 1379 L387.806 1379 Q405.806 1379 418.4 1369 Q432.714 1357 438.184 1339 L508.552 1057 Q535.514 950 568.152 798 Q574.341 778 630.233 763 L650.433 800 Q693.362 892 780.552 1057 L929.325 1340 Q937.714 1357 956.4 1369 Q971.806 1379 988.806 1379 L1102.81 1379 Z " />
<glyph glyph-name="Z" unicode="Z" horiz-adv-x="982" d="M940.935 213 Q963.935 213 978.405 195 Q993.876 177 990.081 150 L979.962 78 Q976.168 51 955.638 33 Q936.108 15 913.108 15 L71.1081 15 Q47.1081 15 32.6378 33 Q18.1676 51 21.9622 78 L28.4271 124 Q31.2379 144 44.6271 161 L773.752 1094 Q783.719 1108 786.108 1125 Q793.979 1181 738.979 1181 L293.979 1181 Q269.979 1181 256.368 1198 Q241.038 1217 244.833 1244 L254.952 1316 Q258.606 1342 279.276 1361 Q298.806 1379 321.806 1379 L1094.81 1379 Q1117.81 1379 1132.28 1361 Q1148.61 1342 1144.95 1316 L1136.52 1256 Q1133.99 1238 1120.6 1221 L412.146 307 L400.897 291 L399.351 280 Q394.854 248 408.605 232 Q422.935 213 448.935 213 L940.935 213 Z " />
<glyph glyph-name="bracketleft" unicode="&#x5b;" horiz-adv-x="355" d="M343.876 1287 L147.4 -111 L284.4 -111 Q307.4 -111 321.011 -128 Q334.481 -146 331.108 -170 Q327.595 -195 309.065 -213 Q290.676 -230 267.676 -230 L22.6756 -230 Q0.675608 -230 -12.9352 -213 Q-27.4055 -195 -23.8919 -170 L189.168 1346 Q192.681 1371 211.071 1388 Q230.46 1405 252.46 1405 L497.46 1405 Q520.46 1405 535.071 1388 Q547.681 1371 544.168 1346 Q540.654 1321 523.265 1304 Q503.876 1287 480.876 1287 L343.876 1287 Z " />
<glyph glyph-name="backslash" unicode="&#x5c;" horiz-adv-x="507" d="M499.108 15 Q500.562 4 499.157 -6 Q496.065 -28 480.535 -46 Q457.741 -73 425.741 -73 L416.741 -73 Q396.741 -73 380.708 -59 Q366.535 -46 363.768 -23 L194.936 1323 Q193.2 1332 194.465 1341 Q197.557 1363 214.368 1383 Q237.022 1409 268.022 1409 L279.022 1409 Q299.022 1409 315.054 1395 Q330.087 1381 332.995 1359 L499.108 15 Z " />
<glyph glyph-name="bracketright" unicode="&#x5d;" horiz-adv-x="353" d="M496.444 1412 Q518.444 1412 532.914 1394 Q546.525 1377 543.011 1352 L329.67 -166 Q326.157 -191 307.627 -209 Q289.238 -226 266.238 -226 L23.2378 -226 Q1.23777 -226 -12.373 -209 Q-26.8433 -191 -23.3298 -166 Q-19.9568 -142 -0.427064 -124 Q17.9621 -107 39.9621 -107 L177.962 -107 L374.719 1293 L236.719 1293 Q214.719 1293 200.108 1310 Q186.498 1327 190.011 1352 Q193.525 1377 212.914 1394 Q231.444 1412 253.444 1412 L496.444 1412 Z " />
<glyph glyph-name="asciicircum" unicode="&#x5e;" horiz-adv-x="895" d="M691.606 1527 Q684.136 1545 663.136 1545 Q642.136 1545 629.606 1527 L284.649 1015 Q278.103 1004 261.119 997 Q242.714 987 222.714 987 L210.714 987 Q173.714 987 157.665 1008 Q151.071 1018 152.617 1029 Q153.6 1036 158.584 1043 L585.487 1640 Q594.033 1651 611.298 1660 Q628.422 1668 649.422 1668 L714.422 1668 Q735.422 1668 750.298 1660 Q764.173 1652 769.487 1640 L1028.58 1043 Q1032.46 1035 1031.48 1028 Q1030.21 1019 1019.81 1009 Q997.714 987 961.714 987 L945.714 987 Q925.714 987 910.119 997 Q895.103 1004 889.789 1016 L691.606 1527 Z " />
<glyph glyph-name="underscore" unicode="&#x5f;" horiz-adv-x="973" d="M955.087 86 Q967.087 86 973.822 77 Q982.416 67 980.449 53 Q978.622 40 966.935 28 Q957.811 20 945.811 20 L32.8108 20 Q20.8108 20 13.9351 28 Q5.62163 40 7.44866 53 Q9.41624 67 20.8216 77 Q30.0865 86 42.0865 86 L955.087 86 Z " />
<glyph glyph-name="grave" unicode="&#x60;" horiz-adv-x="245" d="M399.13 1239 Q405.881 1223 403.633 1207 Q401.525 1192 390.276 1176 Q368.919 1145 335.919 1145 L329.919 1145 Q301.919 1145 288.011 1167 L209 1295 Q196.671 1314 199.481 1334 Q201.309 1347 211.557 1363 Q232.476 1398 268.476 1398 L302.476 1398 Q336.476 1398 348.26 1368 L399.13 1239 Z " />
<glyph glyph-name="a" unicode="a" horiz-adv-x="904" d="M656.26 443 Q661.319 479 640.973 505 Q618.346 529 584.346 529 L581.346 529 Q453.503 523 365.319 479 Q250.589 424 236.676 325 Q225.854 248 297.811 205 Q352.314 173 422.314 173 Q488.314 173 547.216 215 Q603.838 255 634.254 322 L634.535 324 Q643.189 350 647.827 383 L656.26 443 Z M573.038 1032 Q781.038 1032 860.173 912 Q929.698 809 902.995 619 L830.195 101 Q825.4 74 805.73 55 Q786.341 38 760.2 37 L678.919 35 Q653.919 35 637.73 55 Q623.259 73 626.773 98 L633.097 143 L574.097 143 Q511.4 74 443.184 44 Q377.108 15 308.108 15 L299.108 15 Q172.67 19 107.476 103 Q44.8595 184 61.0217 299 Q85.7569 475 233.968 569 Q382.897 661 629.038 662 Q678.038 662 685.065 712 Q694.622 780 657.806 824 Q611.816 881 498.816 881 Q406.816 881 309.038 847 Q296.476 843 286.476 843 Q273.476 843 261.319 849 Q240.287 863 237.081 890 L235.908 903 Q234.173 912 235.579 922 Q237.687 937 246.654 951 Q259.746 973 282.871 981 Q420.038 1032 573.038 1032 Z " />
<glyph glyph-name="b" unicode="b" horiz-adv-x="1063" d="M573.249 201 Q688.249 201 765.897 291 Q840.265 379 861.346 529 Q880.6 666 836.827 753 Q784.881 853 664.881 853 Q589.881 853 523.292 799 Q457.843 746 428.46 665 Q417.962 633 413.184 599 L391.681 446 Q386.622 410 389.546 381 Q395.584 303 444.557 253 Q495.249 201 573.249 201 Z M805.038 1032 Q963.038 1032 1044.91 903 Q1130.79 767 1099.59 545 L1099.03 541 Q1063.76 290 913.238 144 Q782.108 15 618.108 15 Q443.108 15 373.719 183 L312.719 183 L302.476 103 L302.054 100 Q298.541 75 278.011 57 Q258.341 38 235.341 38 L168.341 38 Q144.341 38 130.73 55 Q115.259 73 117.914 99 Q120.724 119 124.503 153 L129.67 204 Q136.103 264 143.13 314 L297.865 1415 Q301.66 1442 322.33 1461 Q341.86 1479 365.86 1479 L477.86 1479 Q500.86 1479 515.33 1461 Q531.66 1442 527.865 1415 L453.379 885 L511.379 885 Q571.341 963 640.979 996 Q716.038 1032 805.038 1032 Z " />
<glyph glyph-name="c" unicode="c" horiz-adv-x="755" d="M741.757 105 Q742.054 100 741.492 96 Q738.822 77 724.292 59 Q708.341 38 685.778 34 Q601.108 15 508.108 15 Q288.108 15 179.66 147 Q69.492 281 101.957 512 Q133.438 736 285.535 879 Q448.757 1030 691.757 1030 Q756.757 1030 820.789 1016 Q844.227 1012 854.135 990 Q862.027 975 859.498 957 Q858.514 950 855.389 942 L839.644 894 Q831.271 870 809.022 854 Q793.616 844 777.616 844 Q772.616 844 766.757 845 Q727.6 851 680.6 851 Q547.6 851 452.389 757 Q360.741 667 341.346 529 L340.784 525 Q319.281 372 394.633 282 Q465.827 198 594.827 198 Q640.827 198 681.67 204 Q687.811 205 692.811 205 Q709.811 205 723.265 194 Q741.157 179 741.362 152 L741.757 105 Z " />
<glyph glyph-name="d" unicode="d" horiz-adv-x="1078" d="M810.184 599 Q814.962 633 813.46 665 Q806.984 747 754.292 799 Q703.881 853 628.881 853 Q508.881 853 428.827 753 Q360.6 666 341.346 529 Q320.265 379 370.897 291 Q422.249 201 537.249 201 Q615.249 201 680.557 253 Q744.584 303 772.546 381 Q783.622 410 788.681 446 L810.184 599 Z M1103.86 1479 Q1126.86 1479 1141.33 1461 Q1157.66 1442 1153.87 1415 L999.13 314 Q992.103 264 981.53 203 L973.362 152 Q968.005 121 964.195 101 Q959.259 73 939.73 55 Q921.341 38 897.341 38 L830.341 38 Q806.341 38 792.011 57 Q776.681 76 780.476 103 L792.719 183 L732.719 183 Q615.108 15 440.108 15 Q277.108 15 180.238 144 Q71.7568 290 107.033 541 L107.595 545 Q138.795 767 262.908 903 Q381.038 1032 540.038 1032 Q629.038 1032 693.979 996 Q754.341 963 792.379 885 L850.379 885 L924.865 1415 Q928.66 1442 949.33 1461 Q968.86 1479 992.86 1479 L1103.86 1479 Z " />
<glyph glyph-name="e" unicode="e" horiz-adv-x="940" d="M663.887 604 Q705.887 604 734.665 638 Q756.897 661 760.833 689 Q762.238 699 761.643 709 Q757.762 781 722.227 827 Q675.379 885 588.379 885 Q508.379 885 444.789 831 Q393.746 788 361.049 719 Q353.941 704 351.973 690 Q348.319 664 361.227 642 Q380.887 604 424.887 604 L663.887 604 Z M626.757 1030 Q825.757 1030 909.957 882 Q982.546 751 953.735 546 Q951.627 531 948.238 514 Q942.584 488 923.054 470 Q904.665 453 881.665 453 L409.665 453 Q362.665 453 330.762 411 Q314.67 389 311.578 367 Q308.627 346 316.816 326 Q341.978 256 418.638 218 Q486 185 579 185 Q676 185 762.53 203 Q769.811 205 774.811 205 Q791.811 205 805.265 194 Q824.157 179 824.643 154 L825.146 122 Q826.022 114 825.178 108 Q822.649 90 811.541 75 Q795.73 55 772.605 47 Q652.108 15 512.108 15 Q283.108 15 174.66 147 Q69.0704 278 101.676 510 Q130.908 718 262.568 865 Q409.757 1030 626.757 1030 Z " />
<glyph glyph-name="f" unicode="f" horiz-adv-x="593" d="M767.579 1477 Q790.298 1475 802.768 1457 Q816.098 1438 812.584 1413 L803.573 1356 Q799.779 1329 780.108 1310 Q760.719 1293 735.719 1293 L732.719 1293 Q643.719 1293 586.881 1223 Q539.871 1166 526.8 1073 L523.989 1053 Q520.195 1026 535.384 1006 Q554.433 985 581.433 985 L649.433 985 Q673.433 985 688.044 968 Q702.373 949 698.579 922 L692.676 880 Q689.022 854 668.352 835 Q648.822 817 625.822 817 L559.822 817 Q532.822 817 509.011 797 Q487.2 777 483.265 749 L388.822 77 Q385.168 51 364.638 33 Q345.108 15 322.108 15 L205.108 15 Q182.108 15 167.638 33 Q153.168 51 156.822 77 L251.265 749 Q255.2 777 239.871 796 Q222.822 817 194.822 817 L192.822 817 Q169.822 817 155.352 835 Q140.022 854 143.676 880 L149.579 922 Q153.373 949 173.044 968 Q192.433 985 216.433 985 L218.433 985 Q247.433 985 269.525 1007 Q290.195 1026 293.989 1053 L295.114 1061 Q308.606 1157 347.13 1239 Q388.919 1330 453.509 1384 Q557.86 1479 707.86 1479 Q740.86 1479 767.579 1477 Z " />
<glyph glyph-name="g" unicode="g" horiz-adv-x="1029" d="M777.843 561 Q783.465 601 779.541 630 Q772.222 706 728.406 750 Q682.292 799 608.292 799 Q506.292 799 428.503 708 Q350.573 616 329.773 468 Q311.222 336 356.416 252 Q407.065 157 518.065 157 Q588.065 157 647.53 203 Q703.573 246 730.989 313 Q740.66 332 746.595 360 Q752.687 382 756.341 408 L777.843 561 Z M1007.51 950 Q1030.51 950 1044.98 932 Q1059.31 913 1055.8 888 L1055.38 885 Q1039.59 794 1023.01 676 L941.492 96 Q897.362 -218 745.232 -347 Q598.649 -465 359.649 -465 Q217.649 -465 108.551 -423 Q88.535 -416 80.6269 -394 Q75.735 -379 77.8431 -364 Q78.9675 -356 82.0918 -348 L102.4 -296 Q112.195 -269 136.022 -256 Q151.005 -249 164.005 -249 Q174.005 -249 182.584 -252 Q276.384 -289 376.384 -289 Q503.384 -289 591.065 -213 Q684.73 -130 705.951 21 L715.227 87 Q720.427 124 682.427 124 Q667.427 124 651.6 111 Q552.314 -12 401.314 -12 Q239.314 -12 154.443 117 Q64.9947 249 94.7893 461 Q127.395 693 268.633 837 Q402.746 973 569.746 973 Q727.746 973 786.335 842 Q799.227 827 815.227 827 Q852.227 827 857.287 863 L863.362 892 Q868.876 917 889.265 934 Q907.514 950 930.514 950 L1007.51 950 Z " />
<glyph glyph-name="h" unicode="h" horiz-adv-x="1032" d="M783.665 1008 Q917.665 1008 982.033 911 Q1056.57 801 1026.64 588 L954.962 78 Q951.168 51 931.638 33 Q912.108 15 888.108 15 L774.108 15 Q751.108 15 736.638 33 Q721.168 51 724.962 78 L791.579 552 Q828.822 817 637.822 817 Q571.822 817 512.638 773 Q465.719 738 435.849 682 Q420.07 648 412.903 597 L339.962 78 Q336.168 51 315.638 33 Q296.108 15 273.108 15 L159.108 15 Q135.108 15 120.638 33 Q106.168 51 109.962 78 L294.773 1393 Q298.427 1419 317.957 1437 Q337.487 1455 361.487 1455 L475.487 1455 Q498.487 1455 512.957 1437 Q528.427 1419 524.773 1393 L455.487 900 Q450.146 862 487.146 862 Q503.146 862 518.973 875 Q568.406 935 640.746 973 Q705.665 1008 783.665 1008 Z " />
<glyph glyph-name="i" unicode="i" horiz-adv-x="436" d="M388.26 1183 Q333.26 1183 304.319 1219 Q276.238 1254 283.546 1306 L284.39 1312 Q292.26 1368 329.038 1402 Q369.098 1438 425.098 1438 Q480.098 1438 509.038 1402 Q538.119 1367 531.968 1309 Q524.379 1255 485.319 1219 Q445.26 1183 388.26 1183 Z M418.433 985 Q441.433 985 455.044 968 Q471.233 948 467.579 922 L349.103 79 Q345.168 51 324.638 33 Q305.108 15 282.108 15 L169.108 15 Q145.108 15 130.638 33 Q115.168 51 119.103 79 L237.579 922 Q241.233 948 263.044 968 Q281.433 985 305.433 985 L418.433 985 Z " />
<glyph glyph-name="j" unicode="j" horiz-adv-x="439" d="M381.119 1182 Q327.119 1182 299.319 1219 Q270.379 1255 277.968 1309 Q286.119 1367 325.179 1403 Q363.098 1438 421.098 1438 Q476.098 1438 504.179 1403 Q532.119 1367 525.968 1309 Q518.379 1255 478.319 1219 Q439.119 1182 381.119 1182 Z M414.433 985 Q437.433 985 451.903 967 Q466.373 949 462.719 923 L349.584 118 Q306.859 -186 164.151 -312 Q60.2215 -404 -112.589 -424 Q-116.73 -425 -120.73 -425 Q-138.73 -425 -151.043 -413 Q-168.654 -396 -167 -370 L-166.443 -302 L-165.319 -294 Q-162.368 -273 -149.119 -257 Q-133.449 -238 -112.465 -231 Q-36.7947 -212 10.6702 -166 Q56.854 -122 82.5189 -39 Q107.341 38 129.405 195 L231.719 923 Q235.373 949 255.903 967 Q275.433 985 298.433 985 L414.433 985 Z " />
<glyph glyph-name="k" unicode="k" horiz-adv-x="948" d="M930.881 113 Q940.351 95 937.962 78 Q935.995 64 925.746 48 Q905.108 15 870.108 15 L729.108 15 Q696.108 15 683.465 46 L557.595 360 Q540.076 399 497.778 404 L490.778 404 Q451.778 404 421.141 371 L393.784 340 Q373.692 318 369.476 288 L339.822 77 Q336.168 51 314.638 33 Q296.108 15 273.108 15 L159.108 15 Q135.108 15 120.638 33 Q106.168 51 109.822 77 L294.773 1393 Q298.427 1419 318.098 1438 Q337.487 1455 361.487 1455 L475.487 1455 Q498.487 1455 512.098 1438 Q528.427 1419 524.773 1393 L411.216 585 Q405.876 547 442.876 547 Q458.876 547 475.984 562 Q516.979 626 562.833 689 L768.498 957 Q789.433 985 820.433 985 L929.433 985 Q965.433 985 976.514 950 Q981.406 935 979.438 921 Q976.487 900 957.957 882 L689.465 601 L930.881 113 Z " />
<glyph glyph-name="l" unicode="l" horiz-adv-x="462" d="M485.487 1455 Q508.487 1455 522.957 1437 Q538.427 1419 534.633 1392 L349.962 78 Q346.168 51 325.638 33 Q306.108 15 283.108 15 L170.108 15 Q145.108 15 130.638 33 Q116.168 51 119.962 78 L304.633 1392 Q308.427 1419 327.957 1437 Q347.487 1455 372.487 1455 L485.487 1455 Z " />
<glyph glyph-name="m" unicode="m" horiz-adv-x="1564" d="M357.433 985 Q379.433 985 393.044 968 Q408.654 951 406.141 926 L401.238 884 Q395.757 845 434.757 845 Q457.757 845 470.427 864 Q491.081 890 513.173 912 Q541.968 939 572.779 959 Q653.665 1008 751.665 1008 Q832.665 1008 888.762 966 Q944.281 927 961.162 855 Q969.93 832 993.93 832 Q1008.93 832 1024.76 845 Q1085.16 919 1157.2 962 Q1233.67 1008 1326.67 1008 Q1456.67 1008 1518.45 914 Q1588.99 804 1559.34 593 L1486.82 77 Q1483.17 51 1462.64 33 Q1443.11 15 1420.11 15 L1313.11 15 Q1291.11 15 1276.64 33 Q1261.17 51 1264.82 77 L1330.74 546 Q1369.1 819 1192.1 819 Q1130.1 819 1076.2 777 Q1029.28 742 1001.99 683 Q982.087 641 974.638 588 L902.822 77 Q899.168 51 878.638 33 Q859.108 15 837.108 15 L730.108 15 Q707.108 15 692.638 33 Q678.168 51 681.822 77 L750.124 563 Q765.725 674 736.141 741 Q701.103 819 612.103 819 Q546.103 819 489.357 771 Q446.016 733 419.427 679 Q401.508 644 393.357 586 L321.822 77 Q318.168 51 298.638 33 Q279.108 15 256.108 15 L148.108 15 Q124.108 15 110.497 32 Q95.1676 51 98.8216 77 L124.962 263 Q141.53 388 155.849 497 Q194.887 789 212.579 922 L213 925 Q216.514 950 236.044 968 Q254.433 985 278.433 985 L357.433 985 Z " />
<glyph glyph-name="n" unicode="n" horiz-adv-x="1023" d="M766.665 1008 Q905.665 1008 973.173 912 Q1048.28 806 1018.9 597 L945.822 77 Q942.168 51 921.638 33 Q902.108 15 879.108 15 L764.108 15 Q742.108 15 727.638 33 Q712.168 51 715.822 77 L783.141 556 Q819.822 817 632.822 817 Q561.822 817 503.216 770 Q455.735 731 427.443 672 Q408.806 639 400.514 580 L329.822 77 Q326.168 51 305.638 33 Q286.108 15 263.108 15 L148.108 15 Q125.108 15 110.497 32 Q96.1676 51 99.8216 77 Q111.892 170 125.103 264 Q141.67 389 155.849 497 Q194.887 789 212.579 922 L213 925 Q216.514 950 235.044 968 Q255.433 985 278.573 986 L366.714 987 Q389.714 987 404.184 969 Q419.514 950 415.719 923 L409.957 882 Q404.335 842 442.335 842 Q463.335 842 479.006 861 Q521.016 918 585.357 956 Q670.665 1008 766.665 1008 Z " />
<glyph glyph-name="o" unicode="o" horiz-adv-x="1015" d="M798.649 460 Q805.865 490 810.081 520 Q822.589 609 809.27 685 Q784.806 824 677.022 854 Q647.287 863 620.287 863 Q517.287 863 440.827 753 Q369.633 652 350.097 513 Q332.951 391 360.443 302 Q400.016 178 513.47 167 Q523.33 166 533.33 166 Q635.33 166 711.962 263 Q773.206 343 798.649 460 Z M106.881 483 Q107.849 497 109.676 510 Q140.454 729 296.708 866 Q446.26 998 641.525 1007 Q655.665 1008 667.665 1008 Q843.665 1008 953.065 897 Q1083.23 763 1049.64 524 Q1017.04 292 854.362 152 Q706.514 25 517.249 16 Q503.108 15 491.108 15 Q320.108 15 211.146 122 Q83.1352 250 106.881 483 Z " />
<glyph glyph-name="p" unicode="p" horiz-adv-x="1046" d="M550.908 163 Q670.908 163 750.962 263 Q819.189 350 838.443 487 Q859.525 637 809.892 725 Q757.541 815 642.541 815 Q564.541 815 499.233 763 Q436.206 713 408.243 635 Q397.168 606 392.108 570 L370.606 417 Q365.827 383 367.189 350 Q373.805 269 424.357 216 Q475.908 163 550.908 163 Z M739.681 1001 Q903.681 1001 998.552 872 Q1107.89 725 1072.62 474 L1072.05 470 Q1040.99 249 916.741 112 Q798.751 -16 640.751 -16 Q551.751 -16 486.811 20 Q426.449 53 388.411 131 L330.411 131 L255.924 -399 Q252.13 -426 230.459 -445 Q210.93 -463 187.93 -463 L75.9296 -463 Q51.9296 -463 37.4593 -445 Q22.1296 -426 25.9242 -399 L180.66 702 Q187.687 752 198.119 812 L207.287 863 Q212.925 896 215.876 917 Q220.53 943 240.919 960 Q259.308 977 283.308 977 L350.308 977 Q373.308 977 387.779 959 Q403.249 941 399.735 916 L399.314 913 L387.071 833 L448.071 833 Q564.681 1001 739.681 1001 Z " />
<glyph glyph-name="q" unicode="q" horiz-adv-x="1050" d="M806.249 571 Q811.308 607 808.384 636 Q802.346 714 752.373 764 Q701.681 816 623.681 816 Q508.681 816 432.033 726 Q356.665 638 335.584 488 Q316.33 351 360.103 264 Q412.049 164 532.049 164 Q607.049 164 672.497 217 Q739.805 269 769.33 351 Q779.968 384 784.746 418 L806.249 571 Z M1078.74 916 Q1076.78 895 1073.57 865 L1067.4 814 Q1060.83 753 1053.8 703 L899.065 -398 Q895.27 -425 873.6 -444 Q854.07 -462 831.07 -462 L720.07 -462 Q696.07 -462 681.6 -444 Q666.27 -425 670.065 -398 L744.551 132 L686.551 132 Q626.589 54 556.951 21 Q481.892 -15 392.892 -15 Q233.892 -15 151.881 113 Q66.1352 250 97.1947 471 L97.7569 475 Q133.033 726 282.692 873 Q415.822 1002 578.822 1002 Q753.822 1002 824.211 834 L884.211 834 L894.454 914 Q898.249 941 918.919 960 Q938.449 978 962.449 978 L1029.45 978 Q1053.45 978 1067.2 962 Q1081.67 944 1078.74 916 Z " />
<glyph glyph-name="r" unicode="r" horiz-adv-x="671" d="M726.773 1023 Q738.773 1023 745.508 1014 Q753.384 1006 751.417 992 L729.914 839 Q726.962 818 710.854 803 Q696.027 790 677.027 790 L676.027 790 Q581.027 790 508.579 737 Q436.27 685 405.762 596 Q394.562 559 388.379 515 L326.962 78 Q323.308 52 300.638 33 Q282.108 15 259.108 15 L143.108 15 Q119.108 15 103.638 33 Q89.3081 52 92.9622 78 L213.687 937 Q217.341 963 237.011 982 Q257.541 1000 281.541 1000 L357.541 1000 Q382.541 1000 396.011 982 Q410.481 964 406.968 939 L393.757 845 Q388.135 805 429.135 805 Q453.135 805 470.649 830 Q516.562 929 593.73 980 Q659.773 1023 726.773 1023 Z " />
<glyph glyph-name="s" unicode="s" horiz-adv-x="730" d="M535.887 604 Q657.281 557 703.584 488 Q748.027 420 735.411 316 Q716.578 182 611.195 101 Q498.108 15 310.108 15 Q189.108 15 93.8865 49 Q73.8703 56 65.9622 78 Q60.0703 93 62.319 109 Q63.4433 117 66.5676 125 L79.7676 162 Q89.5622 189 114.53 203 Q128.514 210 141.514 210 Q150.514 210 160.951 206 Q252.892 170 331.892 170 Q494.892 170 512.178 293 Q520.049 349 483.827 383 Q454.043 413 368.541 445 Q241.427 494 189.389 572 Q144.384 636 156.049 719 L156.892 725 Q175.303 856 281.249 941 Q394.757 1030 556.757 1030 Q649.757 1030 731.384 1006 Q751.4 999 761.308 977 Q767.2 962 764.952 946 Q763.827 938 760.703 930 L749.346 899 Q739.692 873 715.865 860 Q700.741 852 686.741 852 Q678.741 852 672.022 854 Q606.254 877 545.254 877 Q478.254 877 435.038 847 Q387.26 813 379.249 756 Q371.941 704 413.741 667 Q446.087 641 535.887 604 Z " />
<glyph glyph-name="t" unicode="t" horiz-adv-x="627" d="M432.011 427 Q414.443 302 423.087 271 Q440.232 208 535.232 208 Q545.232 208 556.373 209 Q577.373 209 590.124 193 Q603.876 177 601.362 152 L592.243 80 Q589.151 58 572.903 42 Q557.654 26 538.232 23 Q486.108 15 423.108 15 Q294.108 15 235.07 93 Q172.735 176 201.124 378 L254.952 761 Q259.449 793 240.681 816 Q220.773 838 190.773 838 Q169.773 838 156.162 855 Q142.411 871 145.925 896 L153.373 949 Q156.746 973 175.276 991 Q192.384 1006 214.384 1006 Q246.384 1006 270.757 1030 Q295.849 1052 300.346 1084 L323.254 1247 Q326.627 1271 345.017 1288 Q363.265 1304 384.265 1304 L502.265 1304 Q523.265 1304 537.017 1288 Q550.627 1271 547.254 1247 L524.346 1084 Q519.849 1052 537.757 1030 Q555.384 1006 588.384 1006 L675.384 1006 Q697.384 1006 710.276 991 Q723.746 973 720.373 949 L712.925 896 Q709.411 871 691.162 855 Q672.773 838 651.773 838 L564.773 838 Q531.773 838 508.541 815 Q483.449 793 478.952 761 L432.011 427 Z " />
<glyph glyph-name="u" unicode="u" horiz-adv-x="1002" d="M1045.81 945 L986.784 525 Q950.946 270 928.476 103 Q924.541 75 903.011 57 Q883.341 38 859.341 38 L780.341 38 Q757.341 38 742.011 57 Q726.681 76 730.476 103 L736.519 146 Q742 185 703 185 Q680 185 666.33 166 Q648.816 141 625.584 118 Q596.508 89 563.557 68 Q478.108 15 375.108 15 Q236.108 15 173.319 109 Q99.2163 215 129.854 433 L201.811 945 Q205.465 971 227.276 991 Q245.665 1008 270.665 1008 L382.665 1008 Q407.665 1008 422.276 991 Q437.465 971 433.811 945 L369.022 484 Q330.092 207 515.092 207 Q585.092 207 642.557 253 Q688.335 287 716.206 343 Q732.141 371 739.73 425 L812.811 945 Q816.465 971 838.276 991 Q856.665 1008 881.665 1008 L994.665 1008 Q1019.67 1008 1034.28 991 Q1049.61 972 1045.81 945 Z " />
<glyph glyph-name="v" unicode="v" horiz-adv-x="925" d="M956.433 985 Q985.433 985 999.919 960 Q1008.39 942 1005.86 924 Q1004.31 913 998.627 901 L588.87 56 Q579.2 37 562.654 26 Q546.108 15 528.108 15 L359.108 15 Q342.108 15 328.654 26 Q314.2 37 310.87 56 L147.519 886 Q145.346 899 147.173 912 Q150.265 934 166.216 955 Q191.433 985 226.433 985 L334.433 985 Q353.433 985 367.746 973 Q380.919 960 384.249 941 L437.206 528 Q448.433 430 453.519 331 Q457.319 294 493.319 294 L494.319 294 Q537.319 294 550.362 337 Q585.838 440 618.206 528 L780.968 939 Q789.779 959 809.606 972 Q825.433 985 844.433 985 L956.433 985 Z " />
<glyph glyph-name="w" unicode="w" horiz-adv-x="1362" d="M1418.43 985 Q1448.43 985 1462.78 959 Q1472.39 942 1469.58 922 Q1468.31 913 1464.91 903 L1106.43 60 Q1097.62 40 1079.94 28 Q1062.11 15 1043.11 15 L904.108 15 Q883.108 15 869.935 28 Q854.762 41 853.714 62 L821.751 354 Q810.881 483 806.962 633 Q806.162 670 770.162 670 L762.162 670 Q731.319 664 721.103 634 Q678.584 488 625.892 355 L507.573 61 Q498.762 41 480.935 28 Q463.108 15 444.108 15 L304.108 15 Q285.108 15 271.935 28 Q257.762 41 253.573 61 L146.049 904 Q144.454 914 145.579 922 Q148.389 942 163.919 960 Q185.433 985 214.433 985 L317.433 985 Q338.433 985 352.606 972 Q367.357 956 368.125 933 L381.638 588 Q390.06 406 389.789 276 Q384.449 238 439.449 238 L439.589 239 Q459.151 243 471.087 271 Q493.346 344 525.995 434 Q538.914 469 553.957 512 L567.157 549 L580.357 586 L714.546 936 Q722.779 959 741.606 972 Q758.433 985 778.433 985 L867.433 985 Q888.433 985 901.606 972 Q915.779 959 916.827 938 L949.043 598 Q965.406 380 970.508 274 Q966.433 245 997.308 237 Q1003.17 236 1008.17 236 Q1041.17 236 1051.37 273 Q1086.06 406 1149.32 600 L1263.41 935 Q1270.5 957 1289.61 972 Q1307.43 985 1327.43 985 L1418.43 985 Z " />
<glyph glyph-name="x" unicode="x" horiz-adv-x="853" d="M823.6 111 Q831.351 95 829.103 79 Q826.854 63 815.465 46 Q795.108 15 761.108 15 L645.108 15 Q610.108 15 598.605 47 L546.719 183 Q527.887 234 494.206 343 Q479.454 359 463.454 359 Q446.454 359 426.065 342 Q404.584 303 377.119 257 L353.919 220 L330.578 182 L246.746 48 Q227.108 15 191.108 15 L91.1081 15 Q56.1081 15 44.6054 47 Q37.9946 64 40.1027 79 Q42.4919 96 55.8811 113 L322.211 464 Q339.443 487 342.676 510 Q345.908 533 335.141 556 L173.8 888 Q165.049 904 167.579 922 Q169.546 936 179.935 953 Q201.433 985 235.433 985 L344.433 985 Q377.433 985 390.076 954 L440.93 832 L455.449 793 L468.968 754 Q487.8 703 499.881 668 Q517.476 658 527.476 658 Q543.476 658 562.725 674 L590.33 721 L613.952 761 Q641.135 805 660.492 836 L735.795 952 Q756.433 985 791.433 985 L885.433 985 Q920.433 985 932.795 952 Q938.546 936 936.579 922 Q934.189 905 919.66 887 L672.108 570 Q655.157 549 651.643 524 Q648.551 502 658.319 479 L823.6 111 Z " />
<glyph glyph-name="y" unicode="y" horiz-adv-x="927" d="M958.714 987 Q988.714 987 1003.2 962 Q1011.67 944 1009 925 Q1007.45 914 1003.05 904 L742.908 348 Q683.481 224 622.384 81 Q612.151 58 598.654 26 L588.141 1 L577.627 -24 Q554.038 -78 539.541 -110 Q470.038 -263 401.027 -320 Q305.205 -397 197.286 -432 Q187.865 -435 177.865 -435 Q163.865 -435 152.849 -428 Q132.816 -414 129.751 -386 L120.4 -296 Q119.524 -288 120.508 -281 Q122.476 -267 132.724 -251 Q144.676 -230 165.8 -222 Q198.768 -208 232.438 -189 Q306.919 -150 358.351 -90 Q378.724 -66 382.378 -40 Q384.908 -22 380.297 -5 Q359.541 75 278.076 399 Q246.941 519 209.022 669 Q180.481 779 150.487 900 Q146.314 913 148.141 926 Q150.671 944 163.919 960 Q184.714 987 215.714 987 L340.714 987 Q358.714 987 373.027 975 Q387.2 962 390.53 943 L452.551 502 L454.319 479 L456.946 455 Q460.011 427 462.919 405 Q468.189 350 471.849 312 Q476.773 283 505.773 283 Q532.773 283 545.708 311 Q559.346 344 582.341 408 L600.368 458 Q609.162 485 616.551 502 L780.108 940 Q787.06 961 804.887 974 Q821.714 987 841.714 987 L958.714 987 Z " />
<glyph glyph-name="z" unicode="z" horiz-adv-x="839" d="M754.53 203 Q778.53 203 793.86 184 Q809.33 166 805.395 138 L797.103 79 Q793.308 52 772.638 33 Q753.108 15 728.108 15 L80.1081 15 Q56.1081 15 41.6378 33 Q25.3081 52 29.1027 79 L36.4108 131 Q39.5027 153 55.0325 171 L393 555 Q453.135 620 523.973 690 Q541.784 710 544.735 731 L545.86 739 Q546.654 766 530.043 783 Q514.433 800 489.433 800 L223.433 800 Q199.433 800 184.962 818 Q169.633 837 173.427 864 L181.438 921 Q185.233 948 205.903 967 Q225.433 985 249.433 985 L849.433 985 Q874.433 985 888.903 967 Q904.233 948 900.438 921 L892.006 861 Q888.773 838 872.384 821 L551.806 454 L518.887 419 L487.108 385 Q450.768 347 426.114 321 Q413.427 309 405.476 288 Q401.492 281 400.227 272 Q397.697 254 407.746 233 Q426.53 203 460.53 203 L754.53 203 Z " />
<glyph glyph-name="braceleft" unicode="&#x7b;" horiz-adv-x="440" d="M620.579 1292 Q462.579 1292 436.438 1106 Q432.784 1080 430.865 1045 L429.508 1014 Q428.417 992 428.871 981 L427.622 965 L427.092 947 Q426.141 926 426.173 912 Q423.411 871 419.054 840 L418.352 835 Q404.298 735 360.411 686 Q322.649 645 216.276 621 L207.703 560 Q307.47 537 333.568 495 Q363.541 445 349.487 345 L348.784 340 Q344.146 307 335.384 266 Q331.276 251 326.043 228 L318.405 195 L309.908 163 L302.551 132 Q294.492 96 291.119 72 Q264.697 -116 422.697 -116 Q423.557 -117 423.276 -119 L408.378 -225 L371.378 -225 Q100.378 -225 136.076 29 Q146.054 100 169.265 194 L179.168 236 L190.211 279 Q199.957 327 205.016 363 Q214.151 428 194.773 468 Q166.206 528 77.8921 540 Q76.8921 540 76.0326 541 L89.6651 638 Q90.8056 639 91.8056 639 Q183.492 651 228.643 709 Q259.406 750 268.822 817 Q276.13 869 280.714 987 Q283.784 1080 293.763 1151 Q311.892 1280 391.746 1343 Q469.179 1403 602.179 1403 L636.179 1403 Q637.038 1402 636.617 1399 L621.579 1292 L620.579 1292 Z " />
<glyph glyph-name="bar" unicode="&#x7c;" horiz-adv-x="145" d="M322.546 1676 Q346.546 1676 361.157 1659 Q375.487 1640 371.692 1613 L100.308 -318 Q96.5134 -345 76.9837 -363 Q57.4539 -381 33.4539 -381 L4.45394 -381 Q-19.5461 -381 -34.0163 -363 Q-48.4866 -345 -44.692 -318 L226.692 1613 Q230.487 1640 250.157 1659 Q269.546 1676 293.546 1676 L322.546 1676 Z " />
<glyph glyph-name="braceright" unicode="&#x7d;" horiz-adv-x="440" d="M528.103 634 L529.103 634 L515.33 536 L514.189 535 Q423.503 523 377.07 463 Q345.308 422 336.314 358 Q328.865 305 325.422 188 L323.519 146 L321.616 104 Q319.151 58 314.373 24 Q278.676 -230 5.67561 -230 L-31.3244 -230 L-31.1839 -229 Q-32.1839 -229 -31.7622 -226 L-17.4271 -124 Q-17.2865 -123 -16.2865 -123 Q-15.146 -122 -15.0054 -121 L-16.0054 -121 Q70.1351 -120 116.865 -65 Q157.33 -19 169.416 67 Q176.443 117 176.843 191 L177.481 224 Q178.292 244 180.4 259 Q182.443 302 187.081 335 L187.784 340 Q201.979 441 244.865 490 Q283.768 532 392 555 L400.573 616 Q298.806 639 271.708 681 Q242.595 730 256.649 830 L257.352 835 Q261.708 866 271.752 909 Q273.719 923 278.389 942 L282.779 959 L287.027 975 Q307.849 1052 314.735 1101 Q340.033 1281 181.876 1287 L182.017 1288 Q181.017 1288 181.298 1290 L195.914 1394 Q196.195 1396 197.195 1396 Q198.336 1397 198.476 1398 L232.476 1398 Q366.476 1398 428.044 1338 Q490.19 1275 472.06 1146 Q464.752 1094 437.011 982 Q407.427 864 400.119 812 Q390.843 746 410.941 704 Q440.789 646 528.103 634 Z " />
<glyph glyph-name="asciitilde" unicode="&#x7e;" horiz-adv-x="963" d="M1038.73 980 Q1064.73 980 1079.92 960 Q1092.39 942 1089.3 920 Q1088.59 915 1087.03 911 Q1055.94 768 978.66 702 Q914.07 648 818.07 648 Q758.07 648 696.584 673 Q650.395 693 566.703 745 Q427.914 839 368.914 839 Q274.914 839 231.487 715 Q224.395 693 205.287 678 Q187.46 665 167.46 665 L156.46 665 Q129.46 665 115.411 686 Q102.941 704 106.033 726 Q106.876 732 108.579 737 Q144.411 871 220.546 936 Q287.557 993 384.557 993 Q447.557 993 505.184 969 Q551.514 950 637.925 896 Q778.557 808 834.557 808 Q919.557 808 961.422 928 Q968.654 951 987.762 966 Q1005.73 980 1025.73 980 L1038.73 980 Z " />
<glyph glyph-name="exclamdown" unicode="&#xa1;" horiz-adv-x="293" d="M180.038 847 Q184.552 872 203.8 888 Q225.33 906 250.33 906 L295.33 906 Q320.33 906 335.8 888 Q350.552 872 349.038 847 L277.665 83 L276.962 78 Q273.589 54 254.059 36 Q233.389 17 206.389 17 L90.3892 17 Q62.3892 17 47.0595 36 Q32.5892 54 35.9622 78 L36.6649 83 L180.038 847 Z M347.038 1402 Q409.038 1402 442.995 1359 Q477.671 1314 467.692 1243 Q455.573 1171 410.53 1128 Q364.487 1085 300.487 1085 Q233.487 1085 199.53 1128 Q164.714 1172 174.692 1243 Q184.671 1314 232.995 1359 Q279.038 1402 345.038 1402 L347.038 1402 Z " />
<glyph glyph-name="cent" unicode="&#xa2;" horiz-adv-x="738" d="M745.492 96 Q746.508 89 745.805 84 Q743.557 68 731.449 53 Q715.638 33 689.795 27 Q635.968 14 543.843 6 L524.589 -131 Q520.935 -157 500.546 -174 Q478.876 -193 452.876 -193 L448.876 -193 Q421.876 -193 407.405 -175 Q391.935 -157 395.589 -131 L415.546 11 Q215.762 41 125.189 165 Q40.8974 291 69.2866 493 Q95.4272 679 213.26 813 Q336.795 952 553.838 995 L572.671 1129 Q576.465 1156 597.135 1175 Q616.525 1192 643.525 1192 L647.525 1192 Q673.525 1192 689.995 1174 Q705.465 1156 701.671 1129 L683.26 998 Q761.119 997 810.292 984 Q834.73 980 843.638 958 Q852.389 942 850 925 Q849.157 919 846.173 912 L829.849 867 Q821.335 842 799.368 828 Q781.962 818 763.962 818 Q757.962 818 751.103 819 Q708.087 826 656.087 826 Q521.087 826 427.298 735 Q335.07 648 314.833 504 Q293.751 354 370.243 265 Q441.86 184 568.86 184 Q625.86 184 680.124 193 Q688.405 195 694.405 195 Q711.405 195 724.86 184 Q744.611 168 744.957 142 L745.492 96 Z " />
<glyph glyph-name="sterling" unicode="&#xa3;" horiz-adv-x="855" d="M823.184 229 Q850.184 229 864.514 210 Q881.984 192 878.189 165 L868.773 98 Q865.119 72 842.589 54 Q822.919 35 795.919 35 L67.9189 35 Q40.9189 35 26.5892 54 Q9.9784 71 13.773 98 L15.8811 113 Q20.9406 149 54.4703 167 Q144.638 218 207.741 297 Q281.389 387 295.162 485 L300.784 525 Q301.562 559 281.795 582 Q261.027 605 227.027 605 L170.027 605 Q144.027 605 128.697 624 Q112.227 642 116.022 669 L119.395 693 Q123.189 720 143.579 737 Q165.249 756 191.249 756 L198.249 756 Q236.249 756 265.325 785 Q290.698 809 295.054 840 Q295.757 845 295.741 852 Q295.471 907 303.341 963 Q329.341 1148 461.081 1260 Q592.681 1371 784.681 1371 Q859.681 1371 920.433 1355 Q944.59 1349 955.498 1327 Q964.249 1311 961.86 1294 Q961.017 1288 958.033 1281 L939.303 1226 Q931.79 1201 907.963 1188 Q888.276 1176 871.276 1176 Q864.276 1176 858.417 1177 Q819.4 1184 774.4 1184 Q657.4 1184 586.86 1109 Q531.427 1049 517.373 949 Q509.644 894 511.087 826 Q512.73 795 533.2 777 Q552.249 756 584.249 756 L725.249 756 Q751.249 756 767.579 737 Q783.189 720 779.395 693 L776.022 669 Q772.227 642 750.697 624 Q730.027 605 704.027 605 L599.027 605 Q565.027 605 537.795 582 Q511.562 559 502.924 526 Q492.335 472 474.292 429 Q437.47 352 366.319 294 Q352.633 282 350.524 267 Q345.184 229 383.184 229 L823.184 229 Z " />
<glyph glyph-name="currency" unicode="&#xa4;" horiz-adv-x="909" d="M541.103 634 Q633.103 634 704.222 706 Q783.184 784 802.016 918 Q818.319 1034 770.141 1111 Q717.806 1194 619.806 1194 L617.806 1194 Q521.806 1194 447.422 1113 Q375.6 1036 358.735 916 Q340.325 785 400.362 707 Q453.103 634 541.103 634 Z M957.487 530 Q972.238 514 969.146 492 Q965.914 469 948.524 452 L947.384 451 Q927.854 433 903.854 433 L900.854 433 Q876.135 435 862.946 455 L816.643 524 Q803.157 549 772 555 Q765.141 556 760.141 556 Q735.141 556 714.173 542 Q622.443 487 520.443 487 Q413.443 487 342.752 539 Q324.438 551 302.438 551 Q296.438 551 289.297 550 Q259.735 546 236.503 523 L172.946 455 Q154.276 436 128.995 434 L123.995 434 Q100.995 434 88.5245 452 Q74.7731 468 77.5839 488 L78.0055 491 Q82.238 514 100.487 530 L193.87 611 Q221.525 637 225.46 665 Q228.27 685 219.222 706 Q180.73 795 197.454 914 Q213.617 1029 276.687 1122 Q290.498 1142 293.308 1162 Q297.384 1191 274.898 1216 L202 1295 Q187.108 1310 188.341 1333 L188.763 1336 Q191.714 1357 210.103 1374 L214.806 1379 Q234.336 1397 260.336 1397 Q285.195 1396 299.525 1377 L352.265 1304 Q367.173 1282 395.611 1278 Q401.471 1277 408.471 1277 Q429.471 1277 451.157 1289 Q535.325 1340 642.325 1340 L644.325 1340 Q751.325 1340 823.298 1290 Q841.611 1278 862.611 1278 Q869.611 1278 876.752 1279 Q904.595 1285 926.546 1306 L998.665 1378 Q1018.34 1397 1042.34 1397 L1045.34 1397 Q1069.34 1397 1082.09 1381 L1085.38 1376 Q1098.85 1358 1096.04 1338 L1095.62 1335 Q1091.39 1312 1072.14 1296 L975.757 1215 Q945.384 1191 941.027 1160 Q938.498 1142 945.827 1123 Q978.617 1029 963.298 920 Q946.152 798 885.643 709 Q870.833 689 868.022 669 Q864.087 641 884.573 616 L957.487 530 Z " />
<glyph glyph-name="yen" unicode="&#xa5;" horiz-adv-x="933" d="M1048.45 1348 Q1083.45 1348 1097.95 1316 Q1104.84 1301 1102.59 1285 Q1100.49 1270 1089.24 1254 L723.422 743 L950.422 743 Q968.422 743 976.876 732 Q988.189 720 985.8 703 Q983.552 687 968.725 674 Q956.038 662 939.038 662 L743.038 662 Q710.038 662 682.806 639 Q654.292 614 649.654 581 L643.611 538 Q638.973 505 659.46 480 Q681.087 456 714.087 456 L910.087 456 Q927.087 456 936.4 444 Q947.714 432 945.465 416 Q943.076 399 928.53 388 Q915.703 375 898.703 375 L702.703 375 Q669.703 375 642.47 352 Q613.957 327 609.178 293 L581.632 97 Q577.978 71 557.449 53 Q537.919 35 510.919 35 L415.919 35 Q389.919 35 373.589 54 Q357.978 71 361.632 97 L389.178 293 Q393.957 327 374.47 352 Q352.703 375 319.703 375 L125.703 375 Q108.703 375 98.5298 388 Q88.0758 399 90.465 416 Q92.8542 433 105.4 444 Q120.087 456 137.087 456 L331.087 456 Q364.087 456 392.6 481 Q418.973 505 423.611 538 L429.654 581 Q434.292 614 414.806 639 Q393.038 662 360.038 662 L166.038 662 Q149.038 662 138.865 675 Q128.411 686 130.8 703 Q133.189 720 145.876 732 Q160.422 743 177.422 743 L404.422 743 L196.379 1255 Q189.627 1271 191.736 1286 Q193.984 1302 206.092 1317 Q228.449 1348 263.449 1348 L365.449 1348 Q383.449 1348 396.903 1337 Q412.357 1326 417.968 1309 L495.476 1028 Q509.308 977 524.033 911 L529.957 882 L536.162 855 L551.06 776 L606.06 776 Q627.243 820 643.881 853 L658.816 881 L673.033 911 Q709.152 983 735.757 1030 L892.968 1309 Q903.498 1327 919.903 1337 Q938.449 1348 956.449 1348 L1048.45 1348 Z " />
<glyph glyph-name="brokenbar" unicode="&#xa6;" horiz-adv-x="165" d="M78.0812 520 Q82.0812 520 89.5029 523 Q111.908 533 142.908 533 L171.908 533 Q202.908 533 222.503 523 L237.519 516 L114.805 -286 L-30.1947 -286 L78.0812 520 Z M283.535 879 Q279.535 879 272.114 876 Q249.708 866 218.708 866 L189.708 866 Q158.708 866 139.114 876 L124.098 883 L246.811 1685 L391.811 1685 L283.535 879 Z " />
<glyph glyph-name="section" unicode="&#xa7;" horiz-adv-x="885" d="M294.222 891 Q276.935 768 466.535 694 Q497.849 682 553.897 661 L575.633 652 L595.649 645 Q617.384 636 633.541 630 Q656.416 622 677.416 622 Q712.416 622 747.227 642 Q807.287 678 817.422 743 L817.984 747 Q834.708 866 682.125 933 Q661.249 941 632.935 953 L607.341 963 L581.887 974 Q515.541 1000 484.508 1014 Q461.773 1023 438.773 1023 Q411.773 1023 384.087 1011 Q328.854 988 307.406 935 Q297.454 914 294.503 893 L294.222 891 Z M966.86 1479 Q955.784 1450 930.817 1436 Q913.692 1428 897.692 1428 Q888.692 1428 879.114 1431 Q798.346 1454 702.346 1454 Q607.346 1454 545.709 1421 Q477.509 1384 468.092 1317 Q458.957 1252 522.492 1206 Q568.854 1173 683.514 1135 Q860.222 1076 927.946 1010 Q1015.7 930 996.73 795 Q982.254 692 896.152 613 Q860.935 583 851.892 540 Q849.908 533 848.924 526 Q844.146 492 858.93 462 Q884.919 405 875.784 340 Q854 185 704.476 103 Q580.919 35 417.919 35 Q252.919 35 139.946 85 Q118.211 94 109.443 117 Q105.27 130 107.097 143 Q108.362 152 112.627 161 L116.751 169 Q128.546 196 155.232 208 Q170.216 215 184.216 215 Q196.216 215 207.654 211 Q317.47 167 424.47 167 Q516.47 167 576.968 199 Q651.308 237 661.708 311 Q671.406 380 613.87 426 Q568.07 463 449.692 503 Q270.984 562 195.26 628 Q99.6435 709 117.492 836 Q132.249 941 227.211 1019 Q264.568 1050 279.752 1094 Q283.719 1108 285.406 1120 Q289.763 1151 279.838 1180 Q261.287 1233 269.157 1289 Q288.552 1427 412.654 1506 Q534.476 1583 716.476 1583 Q839.476 1583 933.541 1555 Q957.417 1547 967.325 1525 Q974.357 1511 972.249 1496 Q971.125 1488 968.282 1482 L966.86 1479 Z " />
<glyph glyph-name="dieresis" unicode="&#xa8;" horiz-adv-x="641" d="M698.417 1177 Q655.417 1177 629.054 1210 Q602.833 1244 609.719 1293 Q616.746 1343 651.384 1376 Q686.741 1407 734.741 1407 Q778.741 1407 803.384 1376 Q829.746 1343 822.719 1293 Q815.833 1244 780.914 1209 Q746.417 1177 702.417 1177 L698.417 1177 Z M274.417 1177 Q228.417 1177 202.054 1210 Q174.833 1244 181.719 1293 Q188.606 1342 226.244 1375 Q261.741 1407 308.741 1407 Q351.741 1407 376.384 1376 Q402.606 1342 395.719 1293 Q388.833 1244 352.914 1209 Q318.417 1177 276.417 1177 L274.417 1177 Z " />
<glyph glyph-name="copyright" unicode="&#xa9;" horiz-adv-x="1240" d="M1254.62 659 Q1217.09 392 1030.95 206 Q942.584 118 837.838 70 Q729.811 20 617.811 20 Q505.811 20 409.838 70 Q316.584 118 252.951 206 Q117.092 392 154.616 659 Q191.86 924 380 1110 Q468.227 1197 574.973 1245 Q685 1295 797 1295 L799 1295 Q909 1295 1002.97 1245 Q1095.23 1197 1158 1110 Q1291.86 924 1254.62 659 Z M781.617 1214 Q587.617 1214 427.568 1050 Q269.8 888 237.335 657 Q204.87 426 317.103 264 Q431.195 101 627.195 101 L629.195 101 Q823.195 101 980.962 263 Q1138.87 426 1171.34 657 Q1203.8 888 1091.57 1050 Q978.617 1214 783.617 1214 L781.617 1214 Z M965.108 940 Q959 925 945.016 918 Q935.314 913 926.314 913 Q920.314 913 915.595 915 Q853.687 937 790.687 937 Q674.687 937 596.865 860 Q519.325 785 500.773 653 Q483.346 529 539.103 449 Q597.578 367 708.578 367 Q782.578 367 848.811 390 Q855.233 393 862.233 393 Q870.233 393 877.53 388 Q891.546 381 892.719 368 L892.438 366 Q893.595 360 892.751 354 Q891.768 347 887.924 341 Q881.238 329 870.535 324 Q786.633 282 680.633 282 Q530.633 282 457.249 386 Q387.303 486 409.93 647 Q433.681 816 551.579 922 Q662.633 1022 802.633 1022 Q891.633 1022 955.276 991 Q965.573 986 969.887 974 Q972.903 967 971.779 959 Q971.076 954 969.514 950 L965.108 940 Z " />
<glyph glyph-name="ordfeminine" unicode="&#xaa;" horiz-adv-x="506" d="M529.611 1093 L504.611 1093 Q408.611 1093 353.098 1068 Q277.038 1032 267.06 961 Q260.314 913 287.676 880 Q315.179 848 362.179 848 Q400.179 848 439.411 871 Q476.925 896 493.562 929 Q503.671 944 509.2 962 Q512.887 974 514.854 988 L529.611 1093 Z M507.616 844 L460.616 844 Q376.233 763 283.233 763 L276.233 763 Q199.233 763 159.541 815 Q121.427 864 132.249 941 Q146.865 1045 241.735 1101 Q338.887 1159 532.887 1159 L539.071 1203 Q541.319 1219 537.427 1234 Q534.238 1254 520.627 1271 Q487.671 1314 409.671 1314 Q351.671 1314 291.86 1294 Q284.438 1291 277.438 1291 Q269.438 1291 261.141 1296 Q245.406 1305 243.514 1320 Q243.217 1325 243.919 1330 Q245.325 1340 250.73 1350 Q258.417 1362 273.4 1369 Q361.46 1405 459.46 1405 Q586.46 1405 637.498 1327 Q682.8 1258 665.795 1137 L633.892 910 Q624.335 842 619.119 812 Q616.589 794 601.341 778 Q587.373 764 573.373 764 L537.233 763 L535.233 763 Q521.233 763 512.2 777 Q500.589 794 503.26 813 L507.616 844 Z " />
<glyph glyph-name="guillemotleft" unicode="&#xab;" horiz-adv-x="722" d="M270.249 756 Q255.438 736 252.346 714 Q249.395 693 258.584 673 L368.995 434 Q376.746 418 374.497 402 Q372.53 388 361.281 372 Q338.784 340 302.784 340 Q267.784 340 254.141 371 L117.568 680 Q110.098 698 112.346 714 Q114.735 731 127.265 749 L350.973 1060 Q373.33 1091 428.33 1091 Q444.33 1091 457.833 1059 Q465.584 1043 463.476 1028 Q461.368 1013 449.119 997 L270.249 756 Z M761.995 434 Q770.606 417 768.357 401 Q766.389 387 755.281 372 Q731.784 340 696.784 340 Q660.784 340 647.141 371 L510.568 680 Q503.098 698 505.346 714 Q507.735 731 520.265 749 L743.973 1060 Q766.33 1091 822.33 1091 Q837.33 1091 851.833 1059 Q858.725 1044 856.757 1030 Q854.508 1014 841.119 997 L664.249 756 Q649.438 736 646.346 714 Q643.395 693 652.584 673 L761.995 434 Z " />
<glyph glyph-name="logicalnot" unicode="&#xac;" horiz-adv-x="890" d="M1032.93 1017 L956.054 470 Q952.822 447 933.573 431 Q916.324 415 892.324 415 Q869.324 415 856.573 431 Q841.822 447 845.054 470 L903.941 889 L179.941 889 Q156.941 889 144.189 905 Q129.438 921 132.671 944 L135.06 961 Q138.292 984 157.541 1000 Q175.93 1017 197.93 1017 L1032.93 1017 Z " />
<glyph glyph-name="registered" unicode="&#xae;" horiz-adv-x="620" d="M357.265 749 Q351.925 711 388.925 711 L399.925 711 Q475.925 711 484.498 772 Q493.211 834 419.211 834 L404.071 833 Q368.789 831 363.871 796 L357.265 749 Z M302.703 560 Q290.703 560 284.687 567 Q277.811 575 279.357 586 L317.303 856 L315.303 856 L322.443 857 Q335.865 860 351.146 862 Q391.849 867 430.849 867 Q506.849 867 534.476 843 Q556.087 826 550.465 786 Q548.216 770 531.968 754 Q515.719 738 489.454 729 Q474.47 722 472.503 708 Q470.535 694 483.552 687 Q516.725 674 519.854 618 Q519.887 604 520.06 591 Q520.497 587 520.076 584 Q518.952 576 513.108 570 Q503.703 560 490.703 560 L482.703 560 Q461.703 560 459.373 579 Q459.216 585 458.903 597 L456.573 616 Q454.708 681 395.708 681 L345.708 681 L332.357 586 Q330.811 575 322.687 567 Q313.703 560 302.703 560 Z M449.525 1007 Q341.525 1007 257.016 918 Q176.071 833 158.784 710 Q141.638 588 200.692 503 Q261.465 416 369.465 416 L374.465 416 Q480.465 416 563.692 503 Q646.779 589 664.065 712 Q681.071 833 621.157 919 Q560.525 1007 450.525 1007 L449.525 1007 Z M461.692 1058 Q589.692 1058 665.638 958 Q740.303 856 720.065 712 Q699.546 566 596.211 464 Q492.157 364 362.157 364 Q233.157 364 157.211 464 Q79.6867 567 100.065 712 Q120.303 856 226.638 958 Q330.692 1058 459.692 1058 L461.692 1058 Z " />
<glyph glyph-name="macron" unicode="&#xaf;" horiz-adv-x="437" d="M622.373 1319 Q620.687 1307 611.563 1299 Q602.438 1291 590.438 1291 L209.438 1291 Q197.438 1291 190.563 1299 Q183.687 1307 185.373 1319 L192.822 1372 Q194.368 1383 203.633 1392 Q212.757 1400 224.757 1400 L605.757 1400 Q617.757 1400 624.633 1392 Q631.368 1383 629.822 1372 L622.373 1319 Z " />
<glyph glyph-name="degree" unicode="&#xb0;" horiz-adv-x="404" d="M393.995 1359 Q450.995 1359 491.898 1401 Q527.957 1437 535.687 1492 Q543.136 1545 518.336 1582 Q490.519 1626 431.519 1626 L429.519 1626 Q372.519 1626 333.195 1581 Q298.995 1544 291.406 1490 Q284.238 1439 310.038 1402 Q339.995 1359 393.995 1359 Z M441.984 1672 Q536.984 1672 581.676 1620 Q624.93 1572 613.687 1492 Q602.725 1414 542.838 1365 Q481.53 1313 389.53 1313 Q294.53 1313 244.838 1365 Q198.584 1413 209.406 1490 Q220.509 1569 279.536 1619 Q341.984 1672 439.984 1672 L441.984 1672 Z " />
<glyph glyph-name="plusminus" unicode="&#xb1;" horiz-adv-x="975" d="M1065.4 999 Q1085.4 999 1098.15 983 Q1110.9 967 1107.67 944 L1104.72 923 Q1101.49 900 1085.24 884 Q1068.13 869 1047.13 869 L674.13 869 L615.946 455 Q612.714 432 595.465 416 Q578.357 401 558.357 401 L529.357 401 Q510.357 401 498.465 416 Q484.714 432 487.946 455 L546.13 869 L172.13 869 Q152.13 869 139.238 884 Q126.487 900 129.719 923 L132.671 944 Q135.903 967 154.152 983 Q171.4 999 190.4 999 L564.4 999 L621.881 1408 Q625.114 1431 643.363 1447 Q659.471 1462 678.471 1462 L707.471 1462 Q727.471 1462 740.363 1447 Q753.114 1431 749.881 1408 L692.4 999 L1065.4 999 Z M860.189 165 Q885.189 165 901.66 147 Q917.13 129 913.476 103 L912.632 97 Q908.978 71 888.589 54 Q866.919 35 841.919 35 L143.919 35 Q117.919 35 102.589 54 Q86.9784 71 90.6325 97 L91.4757 103 Q95.1298 129 115.66 147 Q136.189 165 162.189 165 L860.189 165 Z " />
<glyph glyph-name="acute" unicode="&#xb4;" horiz-adv-x="245" d="M281.26 1368 Q301.476 1398 335.476 1398 L369.476 1398 Q405.476 1398 416.557 1363 Q422.309 1347 420.481 1334 Q417.671 1314 400 1295 L285.011 1167 Q264.919 1145 236.919 1145 L230.919 1145 Q197.919 1145 185.276 1176 Q178.525 1192 180.633 1207 Q182.881 1223 194.13 1239 L281.26 1368 Z " />
<glyph glyph-name="mu" unicode="&#xb5;" horiz-adv-x="947" d="M632.968 199 Q589.287 123 531.946 85 Q464.762 41 388.762 41 Q316.762 41 231.049 164 L205.049 -21 Q185.935 -157 177.351 -275 L176.367 -282 Q171.87 -314 145.497 -338 Q116.703 -365 80.7026 -365 L41.7026 -365 Q10.7026 -365 -12.2055 -343 Q-33.1136 -321 -30.6163 -289 Q-25.5784 -182 -3.23244 -23 L132.389 942 Q137.449 978 165.822 1002 Q193.335 1027 228.335 1027 L298.335 1027 Q334.335 1027 353.822 1002 Q375.449 978 370.389 942 L305.6 481 Q269.2 222 454.2 222 Q521.2 222 583.384 266 Q639.005 306 665.314 358 Q683.67 389 691.119 442 L761.389 942 Q766.449 978 794.822 1002 Q821.335 1027 857.335 1027 L927.335 1027 Q962.335 1027 982.822 1002 Q1004.45 978 999.389 942 L917.595 360 Q903.962 263 943.903 227 Q972.53 203 966.487 160 L965.643 154 L955.459 110 Q948.822 77 921.73 55 Q894.638 33 862.638 33 L861.638 33 Q711.638 33 687.968 199 L632.968 199 Z " />
<glyph glyph-name="paragraph" unicode="&#xb6;" horiz-adv-x="822" d="M447.352 650 Q453.957 697 406.957 697 Q367.957 697 321.768 717 Q269.141 741 231.184 784 Q131.222 891 152.833 1059 L154.66 1072 Q180.098 1253 299.276 1361 Q460.795 1507 777.795 1507 Q891.795 1507 976.39 1497 Q1000.11 1495 1013.72 1478 Q1027.05 1459 1023.82 1436 L835.632 97 Q831.978 71 811.589 54 Q789.919 35 764.919 35 Q737.919 35 722.589 54 Q706.978 71 710.632 97 L878.86 1294 Q883.638 1328 863.152 1353 Q841.525 1377 806.525 1377 Q752.525 1377 708.184 1339 Q663.563 1299 655.973 1245 L494.632 97 Q490.978 71 469.589 54 Q449.919 35 423.919 35 Q396.919 35 382.589 54 Q365.978 71 369.632 97 L447.352 650 Z " />
<glyph glyph-name="&amp;#xb7;" unicode="&#xb7;" horiz-adv-x="212" d="M98.8486 -58 Q54.8486 -58 28.4865 -25 Q1.26487 9 7.87029 56 Q15.0379 107 50.6757 140 Q86.173 172 133.173 172 Q176.173 172 200.676 140 Q227.038 107 219.87 56 Q213.265 9 177.346 -26 Q142.849 -58 100.849 -58 L98.8486 -58 Z " />
<glyph glyph-name="&amp;#x2219;" unicode="&#x2219;" horiz-adv-x="212" d="M98.8486 -58 Q54.8486 -58 28.4865 -25 Q1.26487 9 7.87029 56 Q15.0379 107 50.6757 140 Q86.173 172 133.173 172 Q176.173 172 200.676 140 Q227.038 107 219.87 56 Q213.265 9 177.346 -26 Q142.849 -58 100.849 -58 L98.8486 -58 Z " />
<glyph glyph-name="cedilla" unicode="&#xb8;" horiz-adv-x="328" d="M146.665 -102 Q244.838 -115 272.2 -148 Q302.562 -181 295.816 -229 Q284.854 -307 220.794 -343 Q159.735 -379 62.735 -379 Q11.735 -379 -29.4379 -366 Q-38.8758 -362 -43.1893 -350 Q-45.346 -344 -44.3623 -337 Q-43.6596 -332 -40.8163 -326 Q-36.8325 -319 -24.9893 -313 Q-17.4271 -309 -10.4271 -309 Q-6.42712 -309 -3.56766 -310 Q30.7459 -322 59.7459 -322 Q100.746 -322 129.416 -303 Q172.93 -278 179.535 -231 Q193.027 -135 54.7135 -123 L115.768 -23 Q126.016 -7 144.016 -7 L165.016 -7 Q182.016 -7 187.189 -20 Q191.205 -27 190.081 -35 Q189.238 -41 184.254 -48 L146.665 -102 Z " />
<glyph glyph-name="guillemotright" unicode="&#xbb;" horiz-adv-x="722" d="M161.119 997 Q153.368 1013 155.617 1029 Q157.584 1043 168.833 1059 Q191.33 1091 226.33 1091 Q262.33 1091 275.973 1060 L411.546 751 Q420.016 733 417.627 716 Q415.379 700 401.849 682 L179.141 371 Q156.784 340 140.784 340 Q84.7839 340 71.1406 371 Q64.3893 387 66.4974 402 Q68.7461 418 80.9947 434 L259.865 675 Q274.676 695 277.768 717 Q280.719 738 271.67 759 L161.119 997 Z M554.119 997 Q546.368 1013 548.617 1029 Q550.584 1043 561.833 1059 Q584.33 1091 620.33 1091 Q655.33 1091 668.973 1060 L805.546 751 Q814.016 733 811.627 716 Q809.379 700 795.849 682 L572.141 371 Q549.784 340 514.784 340 L513.784 340 Q477.784 340 464.141 371 Q457.389 387 459.357 401 Q461.606 417 474.995 434 L652.865 675 Q667.676 695 670.768 717 Q673.719 738 664.67 759 L554.119 997 Z " />
<glyph glyph-name="questiondown" unicode="&#xbf;" horiz-adv-x="644" d="M581.6 1406 Q644.6 1406 678.557 1363 Q713.373 1319 703.395 1248 Q693.276 1176 647.233 1133 Q601.049 1089 536.049 1089 Q470.049 1089 436.233 1133 Q402.276 1176 412.395 1248 Q422.373 1319 469.557 1363 Q515.6 1406 580.6 1406 L581.6 1406 Z M584.157 919 Q593.157 919 600.173 912 Q606.33 906 605.925 896 L603.816 881 Q582.314 728 449.779 589 Q376.957 512 347.914 469 Q298.497 402 290.346 344 Q280.087 271 322.184 229 Q363 185 448.86 184 Q508.86 184 572.67 204 Q582.951 206 591.951 206 Q607.951 206 621.968 199 Q643.141 186 647.627 161 L653.865 120 Q654.6 111 653.335 102 Q651.227 87 643.4 74 Q629.449 53 605.184 44 Q483.719 -2 353.719 -2 Q178.719 -2 96.3676 88 Q23.4703 167 41.1785 293 Q54.9515 391 120.6 481 Q146.66 517 186.562 559 Q200.952 576 219.622 595 L238.011 612 L254.541 630 Q384.811 760 405.611 908 L406.735 916 Q407.016 918 408.016 918 Q408.157 919 410.157 919 L584.157 919 Z " />
<glyph glyph-name="AE" unicode="&#xc6;" horiz-adv-x="1576" d="M789.573 616 Q819.573 616 839.665 638 Q859.054 655 862.427 679 L863.552 687 L870.822 1002 L871.195 1026 L871.849 1052 L872.017 1103 Q873.449 1163 874.93 1202 Q880.411 1241 813.411 1241 Q748.454 1099 702.525 1007 L544.8 703 Q538.114 691 536.427 679 Q533.757 660 544.368 643 Q559.573 616 592.573 616 L789.573 616 Z M1536.46 231 Q1562.46 231 1577.79 212 Q1593.41 195 1589.75 169 L1579.63 97 Q1575.98 71 1555.59 54 Q1534.92 35 1508.92 35 L908.919 35 Q886.919 35 870.168 51 Q855.276 66 855.649 90 L860.751 354 Q860.389 387 838.06 406 Q817.87 426 786.87 426 L463.87 426 Q406.87 426 378.281 372 L223.541 75 Q215.011 57 197.605 47 Q179.919 35 159.919 35 L53.9189 35 Q20.9189 35 5.71353 62 Q-2.75673 80 -0.367539 97 Q1.17841 108 7.8649 120 L686.276 1361 Q694.665 1378 712.071 1388 Q729.617 1399 748.617 1399 L1625.62 1399 Q1651.62 1399 1666.95 1380 Q1682.56 1363 1678.76 1336 L1668.78 1265 Q1665.13 1239 1644.6 1221 Q1624.07 1203 1598.07 1203 L1177.07 1203 Q1145.07 1203 1120.7 1179 Q1099.03 1160 1095.37 1134 Q1094.53 1128 1094.55 1121 L1087.36 892 Q1087.85 867 1105.04 847 Q1124.51 829 1151.51 829 L1537.51 829 Q1563.51 829 1578.98 811 Q1594.31 792 1590.79 767 L1580.96 697 Q1577.3 671 1556.91 654 Q1536.24 635 1510.24 635 L1173.24 635 Q1140.24 635 1114.73 610 Q1094.64 588 1090.98 562 L1089.86 554 L1086.32 294 Q1086.52 267 1104.99 249 Q1121.46 231 1149.46 231 L1536.46 231 Z " />
<glyph glyph-name="Ccedilla" unicode="&#xc7;" horiz-adv-x="980" d="M473.432 60 Q311.319 109 223.043 228 Q85.9028 412 128.768 717 Q176.692 1058 401.519 1256 Q611.8 1443 903.8 1443 Q1028.8 1443 1125.87 1415 Q1145.88 1408 1154.79 1386 Q1160.54 1370 1158.15 1353 Q1156.89 1344 1153.76 1336 L1128.07 1267 Q1118.41 1241 1097.72 1229 Q1083.46 1220 1069.46 1220 Q1063.46 1220 1056.74 1222 Q978.973 1245 888.973 1245 Q690.973 1245 550.984 1117 Q403.73 980 369.438 736 Q337.114 506 436.141 371 Q538.746 233 748.746 233 Q828.746 233 916.416 252 Q923.697 254 929.697 254 Q943.697 254 954.433 245 Q972.465 231 972.53 203 L975.676 140 Q975.692 133 974.708 126 Q972.178 108 960.789 91 Q945.978 71 925.135 65 Q812.919 35 676.919 35 Q615.919 35 544.324 45 Q541.092 22 536.108 15 L498.519 -39 Q596.692 -52 624.054 -85 Q654.416 -118 647.67 -166 Q636.708 -244 572.649 -280 Q511.589 -316 414.589 -316 Q363.589 -316 322.416 -303 Q312.978 -299 308.665 -287 Q306.508 -281 307.492 -274 Q308.195 -269 311.038 -263 Q315.022 -256 326.865 -250 Q334.427 -246 341.427 -246 Q345.427 -246 348.286 -247 Q382.6 -259 411.6 -259 Q452.6 -259 481.27 -240 Q524.784 -215 531.389 -168 Q544.881 -72 406.568 -60 L466.341 38 Q470.903 42 473.432 60 Z " />
<glyph glyph-name="Eth" unicode="&#xd0;" horiz-adv-x="1149" d="M408.065 712 L350.724 304 Q346.227 272 360.995 249 Q379.2 222 410.778 219 Q422.638 218 439.638 218 L472.638 218 Q672.638 218 802.47 352 Q925.897 476 971.065 712 L408.065 712 Z M977.125 748 Q1009.99 989 920.984 1117 Q830.973 1245 638.973 1245 Q588.973 1245 548.271 1240 Q518.708 1236 495.054 1210 Q474.681 1186 470.465 1156 L413.125 748 L977.125 748 Z M1077.89 1280 Q1242 1110 1193.65 766 Q1142.22 400 929.514 210 Q730.919 35 382.919 35 Q259.919 35 158.465 46 Q142.746 48 132.995 64 Q120.665 83 124.459 110 L297.746 1343 Q301.4 1369 318.071 1388 Q331.319 1404 349.6 1406 Q480.13 1424 636.13 1424 Q798.13 1424 904.211 1389 Q1006.29 1354 1077.89 1280 Z " />
<glyph glyph-name="multiply" unicode="&#xd7;" horiz-adv-x="915" d="M917.097 143 Q932.427 124 928.773 98 Q925.119 72 905.449 53 L903.168 51 Q880.216 30 851.216 30 Q822.216 30 805.308 52 L516.465 416 L124.308 52 Q101.216 30 72.2162 30 Q43.2162 30 26.1676 51 L24.4487 53 Q10.1189 72 13.773 98 Q17.4271 124 38.0973 143 L437.379 515 L142.941 889 Q127.611 908 131.265 934 Q134.919 960 155.589 979 Q177.541 1000 207.541 1000 Q235.541 1000 252.449 978 L543.87 611 L938.449 978 Q961.541 1000 989.541 1000 Q1018.54 1000 1034.59 979 Q1049.92 960 1046.27 934 Q1042.61 908 1021.94 889 L623.379 515 L917.097 143 Z " />
<glyph glyph-name="Oslash" unicode="&#xd8;" horiz-adv-x="1252" d="M388.681 76 Q279.27 130 212.605 232 Q87.8704 426 130.454 729 Q174.725 1044 365.833 1244 Q556.222 1446 819.222 1446 Q890.222 1446 961.833 1429 Q974.222 1446 983.065 1452 Q999.752 1464 1019.75 1464 L1028.75 1464 Q1057.75 1464 1072.24 1439 Q1081.85 1422 1079.04 1402 Q1078.48 1398 1073.37 1383 Q1160.78 1329 1214.97 1245 Q1336.99 1053 1295.11 755 Q1247.89 419 1055.62 225 Q867.919 35 599.919 35 Q557.919 35 509.762 41 Q495.108 15 480.703 5 Q462.876 -8 443.876 -8 L433.876 -8 Q404.876 -8 390.389 17 Q380.778 34 383.589 54 Q384.292 59 388.681 76 Z M981.871 1166 L586.903 227 Q621.341 223 641.341 223 Q804.341 223 920.124 378 Q1026.08 520 1057.7 745 Q1087.5 957 1022.31 1098 Q1010.83 1123 981.871 1166 Z M475.07 278 L881.411 1241 Q829.8 1258 784.8 1258 Q622.8 1258 504.876 1102 Q399.06 961 367.438 736 Q335.957 512 404.281 372 Q426.816 326 475.07 278 Z " />
<glyph glyph-name="Thorn" unicode="&#xde;" horiz-adv-x="1039" d="M835.438 551 Q854.13 684 812.498 772 Q764.411 871 659.411 871 Q594.411 871 536.93 832 Q480.73 795 444.595 730 Q433.503 708 422.849 682 Q413.633 652 410.4 629 L386.227 457 Q379.622 410 392.314 358 Q409.897 291 455.697 254 Q503.357 216 567.357 216 Q672.357 216 748.13 314 Q814.497 402 833.33 536 L835.438 551 Z M1052 555 L1048.63 531 Q1015.6 296 886.784 155 Q831.211 94 765.714 62 Q704.638 33 644.638 33 L636.638 33 Q473.638 33 405.719 183 L347.719 183 L311.741 -73 Q306.541 -110 276.027 -135 Q248.373 -161 211.373 -161 L174.373 -161 Q137.373 -161 116.027 -135 Q93.5405 -110 98.7405 -73 L271.887 1159 Q277.087 1196 306.6 1221 Q335.254 1247 372.254 1247 L409.254 1247 Q446.254 1247 466.6 1221 Q490.087 1196 484.887 1159 L448.908 903 L506.908 903 Q617.13 1054 780.13 1054 L788.13 1054 Q848.13 1054 901.054 1025 Q957.417 992 995.984 932 Q1085.03 790 1052 555 Z " />
<glyph glyph-name="germandbls" unicode="&#xdf;" horiz-adv-x="1090" d="M169.151 58 Q143.151 58 128.681 76 Q112.351 95 115.865 120 L231.108 940 Q275.8 1258 441.476 1398 Q581.903 1522 798.903 1522 Q972.903 1522 1072.13 1424 Q1172.22 1325 1149.45 1163 Q1146.92 1145 1141.11 1125 Q1120.16 1040 1043.85 988 Q950.86 924 939.054 840 Q928.233 763 997.146 677 L1007.04 662 L1018.93 647 Q1029.54 630 1038.57 616 Q1063.51 580 1077.88 547 Q1116.07 463 1102.44 366 Q1081.36 216 972.989 128 Q860.919 35 682.919 35 Q622.919 35 568.184 44 Q541.746 48 529.697 69 Q521.805 84 524.335 102 Q525.319 109 527.303 116 L540.487 160 Q548 185 568.968 199 Q587.795 212 607.795 212 Q611.795 212 614.654 211 Q641.092 207 668.092 207 Q745.092 207 797.854 248 Q850.335 287 859.33 351 Q865.935 398 849.838 440 Q837.616 474 801.222 521 L791.189 535 L780.297 550 Q766.546 566 758.373 579 Q734.152 613 720.368 643 Q682.049 719 693.433 800 Q711.703 930 836.227 1012 Q908.833 1059 920.076 1139 L920.217 1140 Q932.584 1228 888.454 1284 Q843.027 1345 756.027 1345 Q526.027 1345 473.044 968 L353.865 120 Q350.351 95 328.681 76 Q309.151 58 283.151 58 L169.151 58 Z " />
<glyph glyph-name="ae" unicode="&#xe6;" horiz-adv-x="1451" d="M823.243 80 Q811.135 65 806.573 61 Q787.043 43 760.903 42 L679.622 40 Q654.622 40 638.432 60 Q623.962 78 627.476 103 L633.8 148 L574.8 148 Q512.103 79 443.887 49 Q377.811 20 308.811 20 L299.811 20 Q173.373 24 108.178 108 Q45.5622 189 61.7244 304 Q86.4596 480 234.67 574 Q383.6 666 629.741 667 Q678.741 667 685.768 717 Q695.325 785 658.508 829 Q612.519 886 499.519 886 Q407.519 886 309.741 852 Q297.179 848 287.179 848 Q274.179 848 262.022 854 Q240.989 868 237.784 895 L236.611 908 Q234.876 917 236.281 927 Q238.389 942 247.357 956 Q260.449 978 283.573 986 Q420.741 1037 573.741 1037 Q756.741 1037 849.125 933 Q990.568 1050 1164.57 1050 Q1363.57 1050 1447.77 902 Q1520.36 771 1491.55 566 Q1489.44 551 1486.05 534 Q1480.39 508 1460.87 490 Q1442.48 473 1419.48 473 L947.476 473 Q909.476 473 878.26 443 L861.957 327 Q892.805 269 956.449 238 Q1023.81 205 1116.81 205 Q1213.81 205 1300.34 223 Q1307.62 225 1312.62 225 Q1329.62 225 1343.08 214 Q1361.97 199 1362.45 174 L1362.96 142 Q1363.83 134 1362.99 128 Q1360.46 110 1349.35 95 Q1333.54 75 1310.42 67 Q1189.92 35 1049.92 35 Q923.919 35 823.243 80 Z M909.952 761 Q912.643 709 906.211 649 Q930.697 624 962.697 624 L1201.7 624 Q1243.7 624 1272.48 658 Q1294.71 681 1298.64 709 Q1300.05 719 1299.45 729 Q1295.57 801 1260.04 847 Q1213.19 905 1126.19 905 Q1046.19 905 982.6 851 Q940.822 817 909.952 761 Z M637.784 340 Q626.465 416 637.238 514 Q612.049 534 585.049 534 L582.049 534 Q454.206 528 366.022 484 Q251.292 429 237.378 330 Q226.557 253 298.514 210 Q353.016 178 423.016 178 Q489.016 178 547.919 220 Q604.541 260 634.957 327 L635.097 328 Q636.66 332 637.784 340 Z " />
<glyph glyph-name="ccedilla" unicode="&#xe7;" horiz-adv-x="755" d="M351.011 57 Q242.351 95 182.47 167 Q72.3028 301 104.768 532 Q136.249 756 288.346 899 Q451.568 1050 694.568 1050 Q759.568 1050 823.6 1036 Q847.038 1032 856.946 1010 Q864.838 995 862.308 977 Q861.325 970 858.2 962 L842.454 914 Q834.081 890 811.833 874 Q796.427 864 780.427 864 Q775.427 864 769.568 865 Q730.411 871 683.411 871 Q550.411 871 455.2 777 Q363.552 687 344.157 549 L343.595 545 Q322.092 392 397.443 302 Q468.638 218 597.638 218 Q643.638 218 684.481 224 Q690.622 225 695.622 225 Q712.622 225 726.076 214 Q743.968 199 744.173 172 L744.568 125 Q744.865 120 744.303 116 Q741.632 97 727.103 79 Q711.151 58 688.589 54 Q603.919 35 510.919 35 Q468.919 35 414.903 42 Q411.67 19 406.686 12 L369.097 -42 Q467.27 -55 494.632 -88 Q524.995 -121 518.249 -169 Q507.286 -247 443.227 -283 Q382.167 -319 285.167 -319 Q234.167 -319 192.995 -306 Q183.557 -302 179.243 -290 Q177.086 -284 178.07 -277 Q178.773 -272 181.616 -266 Q185.6 -259 197.443 -253 Q205.005 -249 212.005 -249 Q216.005 -249 218.865 -250 Q253.178 -262 282.178 -262 Q323.178 -262 351.849 -243 Q395.362 -218 401.968 -171 Q415.459 -75 277.146 -63 L338.2 37 Q339.481 39 351.011 57 Z " />
<glyph glyph-name="eth" unicode="&#xf0;" horiz-adv-x="1028" d="M541.405 195 Q653.405 195 729.741 297 Q796.249 386 817.189 535 Q841.222 706 796.341 778 Q744.146 862 637.146 862 Q513.146 862 432.141 741 Q372.633 652 355.065 527 Q335.811 390 379.162 300 Q428.405 195 539.405 195 L541.405 195 Z M1042.67 944 Q1099.18 784 1068.69 567 Q1032.01 306 862.768 162 Q713.919 35 514.919 35 Q307.919 35 195.47 167 Q77.4433 302 108.643 524 Q137.735 731 284.865 860 Q424.292 984 607.854 988 L617.854 988 Q681.854 988 751.703 930 L796.135 990 Q729.298 1105 650.135 1175 Q628.665 1193 602.665 1193 Q584.665 1193 564.541 1185 L352.892 1095 Q341.19 1090 332.19 1090 Q316.19 1090 310.281 1112 L309.562 1114 Q306.968 1124 308.092 1132 Q310.341 1148 331.606 1157 L400.822 1187 Q453.054 1210 461.644 1264 L461.925 1266 Q469.233 1318 426.606 1342 L424.746 1343 Q401.573 1356 399.368 1383 Q398.492 1391 399.476 1398 Q402.146 1417 416.536 1434 L438.049 1459 Q461.844 1486 487.844 1486 Q501.844 1486 516.86 1479 Q621.833 1429 717.136 1360 Q738.168 1346 761.168 1346 Q779.168 1346 798.292 1354 L1002.38 1440 Q1013.08 1445 1022.08 1445 Q1038.08 1445 1044.27 1425 Q1048.58 1413 1047.32 1404 Q1045.21 1389 1022.81 1379 L940.887 1344 Q894.936 1323 881.752 1279 Q879.487 1270 878.363 1262 Q873.725 1229 895.071 1203 Q993.19 1090 1042.67 944 Z " />
<glyph glyph-name="divide" unicode="&#xf7;" horiz-adv-x="890" d="M552.903 782 Q508.903 782 486.26 813 Q462.898 846 471.049 904 Q479.2 962 512.979 996 Q544.195 1026 589.195 1026 Q634.195 1026 656.979 996 Q679.341 963 672.049 904 Q663.898 846 631.26 813 Q599.903 782 554.903 782 L552.903 782 Z M908.481 594 Q936.481 594 951.952 576 Q968.422 558 964.627 531 Q960.833 504 938.303 486 Q918.633 467 890.633 467 L129.633 467 Q102.633 467 87.3028 486 Q70.8326 504 74.6272 531 Q78.4218 558 98.9515 576 Q120.481 594 147.481 594 L908.481 594 Z M484.351 280 Q529.351 280 551.995 249 Q574.357 216 567.205 158 Q558.914 99 526.276 66 Q494.919 35 449.919 35 L447.919 35 Q403.919 35 381.276 66 Q357.914 99 366.205 158 Q374.216 215 407.995 249 Q439.351 280 484.351 280 Z " />
<glyph glyph-name="oslash" unicode="&#xf8;" horiz-adv-x="1015" d="M311.697 69 Q253.054 100 213.395 138 Q85.3839 266 109.13 499 Q110.097 513 111.924 526 Q142.703 745 298.957 882 Q448.508 1014 643.773 1023 Q658.914 1024 673.914 1024 Q687.914 1024 713.633 1022 L796.46 1220 Q805.13 1239 822.957 1252 Q839.644 1264 859.644 1264 L868.644 1264 Q897.644 1264 912.13 1239 Q921.741 1222 918.93 1202 Q917.665 1193 914.26 1183 L833.698 994 Q907.2 962 955.314 913 Q1085.48 779 1051.89 540 Q1019.29 308 856.611 168 Q708.762 41 519.497 32 Q505.357 31 493.357 31 Q467.357 31 429.919 35 L345.951 -164 Q337.281 -183 320.595 -195 Q302.768 -208 283.768 -208 L273.768 -208 Q244.768 -208 230.281 -183 Q220.67 -166 223.481 -146 Q224.746 -137 228.151 -127 L311.697 69 Z M761.525 822 L494.562 189 Q512.719 183 515.719 183 Q525.578 182 535.578 182 Q637.578 182 714.211 279 Q775.454 359 800.897 476 Q808.114 506 812.33 536 Q824.838 625 811.519 701 Q800.67 759 761.525 822 Z M389.697 254 L653.395 878 L621.395 878 Q519.395 878 443.076 769 Q371.881 668 352.346 529 Q335.2 407 362.692 318 Q369.162 300 389.697 254 Z " />
<glyph glyph-name="thorn" unicode="&#xfe;" horiz-adv-x="1003" d="M375.103 449 Q371.308 422 373.67 389 Q378.47 352 389.66 332 Q405.492 281 448.854 248 Q492.216 215 550.216 215 Q657.216 215 733.708 311 Q804.497 402 825.157 549 Q843.989 683 802.357 771 Q754.13 869 649.13 869 Q585.13 869 526.789 831 Q470.589 794 434.454 729 Q423.222 706 412.568 680 Q403.352 650 400.4 629 L375.103 449 Z M438.768 902 L496.768 902 Q606.989 1053 769.989 1053 L773.989 1053 Q835.989 1053 890.914 1024 Q947.276 991 985.703 930 Q1074.89 789 1041.86 554 Q1006.02 299 861.924 156 Q739.059 36 595.059 36 Q524.059 36 471.276 66 Q424.07 93 391.065 157 L334.065 157 L269.838 -300 Q266.184 -326 245.794 -343 Q224.124 -362 199.124 -362 L110.124 -362 Q84.1242 -362 69.7945 -343 Q53.1837 -326 56.8377 -300 L290.698 1364 Q294.492 1391 316.022 1409 Q335.552 1427 361.552 1427 L450.552 1427 Q475.552 1427 492.022 1409 Q507.492 1391 503.698 1364 L438.768 902 Z " />
<glyph glyph-name="Aogonek" unicode="&#x104;" horiz-adv-x="1077" d="M684.811 575 Q727.811 575 755.73 610 Q776.822 632 780.757 660 Q782.443 672 780.13 684 L749.86 924 Q743.887 974 737.146 1047 Q734.8 1073 733 1110 L729.498 1142 L725.665 1193 Q699.649 1200 680.649 1200 Q671.649 1200 650.368 1198 Q633.341 1148 620 1110 L597.865 1045 Q571.044 968 553.86 924 L459.989 683 Q454.303 671 452.757 660 Q448.962 633 463.589 609 Q482.811 575 524.811 575 L684.811 575 Z M844.73 55 Q835.978 71 835.822 77 L800.784 340 Q792.638 403 729.638 403 L432.638 403 Q368.638 403 342.643 339 L241.103 79 Q233.292 59 216.465 46 Q201.919 35 185.919 35 L66.9189 35 Q40.9189 35 29.2919 59 Q18.9622 78 21.9135 99 Q23.1784 108 27.5838 118 L543.433 1355 Q552.384 1376 570.071 1388 Q583.617 1399 600.617 1399 L854.617 1399 Q871.617 1399 883.071 1388 Q896.384 1376 899.433 1355 L1073.58 118 Q1074.18 108 1072.91 99 Q1069.96 78 1054.29 59 Q1035.92 35 1009.92 35 L903.919 35 Q901.249 16 899.827 13 Q878.503 -32 873.162 -70 Q864.308 -133 895.546 -174 Q929.362 -218 994.362 -218 Q1016.36 -218 1037.78 -215 Q1040.92 -214 1042.92 -214 Q1050.92 -214 1056.36 -218 Q1064.52 -224 1066.97 -235 L1073.51 -281 Q1073.81 -286 1073.1 -291 Q1072.4 -296 1069.84 -300 Q1064.43 -310 1053.73 -315 Q982.092 -348 903.092 -348 Q810.092 -348 767.697 -301 Q724.303 -254 737.795 -158 Q744.681 -109 770.551 -53 Q791.876 -8 820.059 36 Q825.043 43 844.73 55 Z " />
<glyph glyph-name="aogonek" unicode="&#x105;" horiz-adv-x="903" d="M656.962 448 Q662.022 484 641.676 510 Q619.049 534 585.049 534 L582.049 534 Q454.206 528 366.022 484 Q251.292 429 237.378 330 Q226.557 253 298.514 210 Q353.016 178 423.016 178 Q489.016 178 547.919 220 Q604.541 260 634.957 327 L635.238 329 Q643.892 355 648.53 388 L656.962 448 Z M635.432 60 Q625.368 88 627.616 104 L633.8 148 L574.8 148 Q512.103 79 443.887 49 Q377.811 20 308.811 20 L299.811 20 Q173.373 24 108.178 108 Q45.5622 189 61.7244 304 Q86.4596 480 234.67 574 Q383.6 666 629.741 667 Q678.741 667 685.768 717 Q695.325 785 658.508 829 Q612.519 886 499.519 886 Q407.519 886 309.741 852 Q297.179 848 287.179 848 Q274.179 848 262.022 854 Q240.989 868 237.784 895 L236.611 908 Q234.876 917 236.281 927 Q238.389 942 247.357 956 Q260.449 978 283.573 986 Q420.741 1037 573.741 1037 Q781.741 1037 860.876 917 Q930.4 814 903.697 624 L830.897 106 Q826.103 79 806.432 60 Q787.043 43 760.903 42 L688.762 41 Q686.092 22 684.67 19 Q663.346 -26 658.005 -64 Q649.151 -127 680.389 -168 Q714.205 -212 779.205 -212 Q801.205 -212 822.627 -209 Q825.768 -208 827.768 -208 Q835.768 -208 841.205 -212 Q849.362 -218 851.816 -229 L858.351 -275 Q858.649 -280 857.946 -285 Q857.243 -290 854.681 -294 Q849.276 -304 838.573 -309 Q766.935 -342 687.935 -342 Q594.935 -342 552.54 -295 Q509.146 -248 522.638 -152 Q529.524 -103 555.395 -47 Q576.719 -2 604.903 42 Q611.168 51 635.432 60 Z " />
<glyph glyph-name="Dcroat" unicode="&#x110;" horiz-adv-x="1188" d="M259.308 792 L336.746 1343 Q340.4 1369 357.071 1388 Q370.319 1404 388.6 1406 Q519.13 1424 675.13 1424 Q837.13 1424 943.211 1389 Q1045.29 1354 1116.89 1280 Q1281 1110 1232.65 766 Q1181.22 400 968.514 210 Q769.919 35 421.919 35 Q298.919 35 197.465 46 Q181.746 48 171.995 64 Q159.665 83 163.459 110 L241.038 662 Q143.897 661 118.897 661 Q109.897 661 110.179 663 Q110.881 668 109.725 674 Q106.816 696 110.892 725 Q115.108 755 123.919 775 Q126.762 781 127.465 786 L128.449 793 L259.308 792 Z M457.746 788 L570.465 786 Q569.762 781 570.919 775 Q574.108 755 569.892 725 Q565.816 696 556.725 674 Q553.881 668 553.179 663 L561.914 654 L439.195 656 L389.724 304 Q385.227 272 399.995 249 Q418.2 222 449.778 219 Q461.638 218 478.638 218 L511.638 218 Q711.638 218 841.47 352 Q980.287 493 1017.11 755 L1017.67 759 Q1049.85 988 959.984 1117 Q869.973 1245 677.973 1245 Q627.973 1245 587.271 1240 Q557.708 1236 534.054 1210 Q513.681 1186 509.465 1156 L457.746 788 Z " />
<glyph glyph-name="dcroat" unicode="&#x111;" horiz-adv-x="1052" d="M809.762 596 Q814.541 630 813.038 662 Q806.562 744 753.871 796 Q703.46 850 628.46 850 Q508.46 850 428.406 750 Q360.179 663 340.924 526 Q319.843 376 370.476 288 Q421.827 198 536.827 198 Q614.827 198 680.135 250 Q744.162 300 772.124 378 Q783.2 407 788.26 443 L809.762 596 Z M897.881 1223 L924.444 1412 Q928.238 1439 948.909 1458 Q968.438 1476 992.438 1476 L1103.44 1476 Q1126.44 1476 1140.91 1458 Q1157.24 1439 1153.44 1412 L1125.9 1216 L1214.62 1214 Q1214.48 1213 1215.34 1212 Q1218.07 1203 1212.47 1156 L1117.47 1156 L998.708 311 Q991.681 261 981.108 200 L972.941 149 Q967.584 118 963.773 98 Q958.838 70 939.308 52 Q920.919 35 896.919 35 L829.919 35 Q805.919 35 791.589 54 Q776.259 73 780.054 100 L792.297 180 L732.297 180 Q614.686 12 439.686 12 Q276.686 12 179.816 141 Q71.3352 287 106.611 538 L107.173 542 Q138.373 764 262.487 900 Q380.617 1029 539.617 1029 Q628.617 1029 693.557 993 Q753.919 960 791.957 882 L849.957 882 L888.606 1157 L764.606 1157 Q759.606 1157 759.746 1158 Q760.73 1165 757.292 1169 Q755.276 1176 757.244 1190 Q759.071 1203 764.335 1212 Q768.038 1217 768.741 1222 L769.444 1227 L897.881 1223 Z " />
<glyph glyph-name="Eogonek" unicode="&#x118;" horiz-adv-x="919" d="M570.919 35 L167.919 35 Q147.919 35 133.449 53 Q118.978 71 122.914 99 L296.622 1335 Q300.417 1362 320.227 1382 Q338.617 1399 359.617 1399 L981.617 1399 Q1002.62 1399 1016.23 1382 Q1030.42 1362 1026.62 1335 L1016.92 1266 Q1013.13 1239 993.319 1219 Q976.071 1203 954.071 1203 L584.071 1203 Q550.071 1203 521.417 1177 Q494.903 1152 489.844 1116 L462.579 922 Q457.519 886 477.006 861 Q498.352 835 532.352 835 L874.352 835 Q895.352 835 908.962 818 Q922.292 799 918.357 771 L909.081 705 Q905.146 677 886.476 658 Q868.087 641 847.087 641 L505.087 641 Q471.087 641 442.433 615 Q415.919 590 410.86 554 L377.692 318 Q372.633 282 392.119 257 Q413.465 231 447.465 231 L844.465 231 Q865.465 231 879.076 214 Q893.265 194 889.47 167 L879.914 99 Q875.978 71 856.308 52 Q837.919 35 816.919 35 L652.919 35 L650.249 16 Q649.686 12 648.265 9 Q626.941 -36 621.6 -74 Q612.746 -137 643.984 -178 Q677.8 -222 742.8 -222 Q764.8 -222 786.222 -219 Q789.362 -218 791.362 -218 Q799.362 -218 804.8 -222 Q812.957 -228 815.411 -239 L821.946 -285 Q822.243 -290 821.54 -295 Q820.838 -300 818.276 -304 Q812.87 -314 802.167 -319 Q730.53 -352 651.53 -352 Q558.53 -352 516.135 -305 Q472.74 -258 486.232 -162 Q493.119 -113 518.989 -57 Q535.908 -22 570.919 35 Z " />
<glyph glyph-name="eogonek" unicode="&#x119;" horiz-adv-x="928" d="M666.697 624 Q708.697 624 737.476 658 Q759.708 681 763.643 709 Q765.049 719 764.454 729 Q760.573 801 725.038 847 Q678.189 905 591.189 905 Q511.189 905 447.6 851 Q396.557 808 363.86 739 Q356.752 724 354.784 710 Q351.13 684 364.038 662 Q383.697 624 427.697 624 L666.697 624 Z M541.919 35 L514.919 35 Q285.919 35 177.47 167 Q71.8812 298 104.487 530 Q133.719 738 265.379 885 Q412.568 1050 629.568 1050 Q828.568 1050 912.768 902 Q985.357 771 956.546 566 Q954.438 551 951.049 534 Q945.395 508 925.865 490 Q907.476 473 884.476 473 L412.476 473 Q365.476 473 333.573 431 Q317.481 409 314.389 387 Q311.438 366 319.627 346 Q344.789 276 421.449 238 Q488.811 205 581.811 205 Q678.811 205 765.341 223 Q772.622 225 777.622 225 Q794.622 225 808.076 214 Q826.968 199 827.454 174 L827.957 142 Q828.832 134 827.989 128 Q825.459 110 814.351 95 Q798.541 75 775.416 67 Q722.449 53 652.043 43 Q642.503 -32 672.881 -72 Q706.697 -116 771.697 -116 Q793.697 -116 815.119 -113 Q818.259 -112 820.259 -112 Q828.259 -112 833.697 -116 Q841.854 -122 844.308 -133 L850.843 -179 Q851.14 -184 850.438 -189 Q849.735 -194 847.173 -198 Q841.768 -208 831.065 -213 Q759.427 -246 680.427 -246 Q587.427 -246 545.032 -199 Q501.638 -152 515.13 -56 Q519.908 -22 541.919 35 Z " />
<glyph glyph-name="uni0122" unicode="&#x122;" horiz-adv-x="1190" d="M630.389 17 Q353.043 43 230.827 198 Q158.054 285 132.043 413 Q104.892 540 125.833 689 L126.676 695 Q175.617 1029 401.881 1223 Q620.022 1409 933.022 1409 Q1081.02 1409 1193.96 1373 Q1213.98 1366 1222.89 1344 Q1229.64 1328 1227.25 1311 Q1226.12 1303 1222 1295 L1196.3 1226 Q1186.65 1200 1163.82 1187 Q1149.56 1178 1137.56 1178 Q1131.56 1178 1125.84 1180 Q1029.19 1211 902.195 1211 Q696.195 1211 552.487 1085 Q400.514 950 367.065 712 Q334.319 479 438.206 343 Q540.092 207 739.092 207 Q806.092 207 855.357 216 Q886.341 223 906.714 247 Q927.087 271 931.162 300 L961.097 513 Q966.016 548 947.389 572 Q926.043 598 893.043 598 L827.043 598 Q806.043 598 792.433 615 Q779.103 634 782.897 661 L790.908 718 Q794.703 745 813.373 764 Q831.762 781 852.762 781 L1157.76 781 Q1178.76 781 1192.37 764 Q1206.56 744 1202.91 718 L1120.69 133 Q1117.6 111 1104.21 94 Q1089.96 78 1072.12 72 Q986.746 48 900.638 33 Q805.249 16 709.108 15 Q704.281 2 701.719 -2 L664.13 -56 Q762.303 -69 789.665 -102 Q820.027 -135 813.281 -183 Q802.319 -261 738.259 -297 Q677.2 -333 580.2 -333 Q529.2 -333 488.027 -320 Q478.589 -316 474.276 -304 Q472.119 -298 473.103 -291 Q473.805 -286 476.649 -280 Q480.632 -273 492.476 -267 Q500.038 -263 507.038 -263 Q511.038 -263 513.897 -264 Q548.211 -276 577.211 -276 Q618.211 -276 646.881 -257 Q690.395 -232 697 -185 Q710.492 -89 572.178 -77 L630.389 17 Z " />
<glyph glyph-name="uni0123" unicode="&#x123;" horiz-adv-x="1029" d="M777.843 561 Q783.465 601 779.541 630 Q772.222 706 728.406 750 Q682.292 799 608.292 799 Q506.292 799 428.503 708 Q350.573 616 329.773 468 Q311.222 336 356.416 252 Q407.065 157 518.065 157 Q588.065 157 647.53 203 Q703.573 246 730.989 313 Q740.66 332 746.595 360 Q752.687 382 756.341 408 L777.843 561 Z M1007.51 950 Q1030.51 950 1044.98 932 Q1059.31 913 1055.8 888 L1055.38 885 Q1039.59 794 1023.01 676 L941.492 96 Q897.362 -218 745.232 -347 Q598.649 -465 359.649 -465 Q217.649 -465 108.551 -423 Q88.535 -416 80.6269 -394 Q75.735 -379 77.8431 -364 Q78.9675 -356 82.0918 -348 L102.4 -296 Q112.195 -269 136.022 -256 Q151.005 -249 164.005 -249 Q174.005 -249 182.584 -252 Q276.384 -289 376.384 -289 Q503.384 -289 591.065 -213 Q684.73 -130 705.951 21 L715.227 87 Q720.427 124 682.427 124 Q667.427 124 651.6 111 Q552.314 -12 401.314 -12 Q239.314 -12 154.443 117 Q64.9947 249 94.7893 461 Q127.395 693 268.633 837 Q402.746 973 569.746 973 Q727.746 973 786.335 842 Q799.227 827 815.227 827 Q852.227 827 857.287 863 L863.362 892 Q868.876 917 889.265 934 Q907.514 950 930.514 950 L1007.51 950 Z M808.227 1382 L814.227 1382 Q835.227 1382 843.541 1370 Q848.698 1364 847.854 1358 Q847.433 1355 846.152 1353 Q759.195 1211 667.438 1106 Q655.471 1092 634.33 1091 L620.19 1090 L614.19 1090 Q593.19 1090 582.735 1101 Q577.579 1107 578.281 1112 Q578.703 1115 580.125 1118 Q644.411 1241 689.995 1359 Q691.838 1365 700.681 1371 Q711.525 1377 726.665 1378 L808.227 1382 Z " />
<glyph glyph-name="hcircumflex" unicode="&#x125;" horiz-adv-x="1034" d="M788.476 1028 Q922.476 1028 986.844 931 Q1061.38 821 1031.45 608 L959.773 98 Q955.978 71 936.449 53 Q916.919 35 892.919 35 L778.919 35 Q755.919 35 741.449 53 Q725.978 71 729.773 98 L796.389 572 Q833.633 837 642.633 837 Q576.633 837 517.449 793 Q470.53 758 440.66 702 Q424.881 668 417.714 617 L344.773 98 Q340.978 71 320.449 53 Q300.919 35 277.919 35 L163.919 35 Q139.919 35 125.449 53 Q110.978 71 114.773 98 L299.584 1413 Q303.238 1439 322.768 1457 Q342.298 1475 366.298 1475 L480.298 1475 Q503.298 1475 517.768 1457 Q533.238 1439 529.584 1413 L460.298 920 Q454.957 882 491.957 882 Q507.957 882 523.784 895 Q573.216 955 645.557 993 Q710.476 1028 788.476 1028 Z M658.287 1603 Q663.022 1594 662.038 1587 Q661.195 1581 656.352 1575 Q645.244 1560 629.244 1560 L579.244 1560 Q562.244 1560 557.211 1574 L487.244 1745 L441.244 1745 L323.211 1574 Q312.244 1560 296.244 1560 L246.244 1560 Q230.244 1560 223.492 1576 Q220.336 1582 221.179 1588 Q222.022 1594 229.287 1603 L379.974 1800 Q389.801 1813 405.801 1813 L541.801 1813 Q557.801 1813 563.833 1799 L658.287 1603 Z " />
<glyph glyph-name="Hbar" unicode="&#x126;" horiz-adv-x="1232" d="M496.449 1163 L463.984 932 Q459.487 900 477.692 873 Q500.179 848 533.179 848 L925.179 848 Q957.179 848 986.692 873 Q1012.49 900 1016.98 932 L1049.45 1163 L496.449 1163 Z M1054.51 1199 L1073.9 1337 Q1077.56 1363 1097.23 1382 Q1115.62 1399 1135.62 1399 L1252.62 1399 Q1273.62 1399 1286.23 1382 Q1300.56 1363 1296.9 1337 L1122.63 97 Q1118.98 71 1099.31 52 Q1081.92 35 1060.92 35 L943.919 35 Q923.919 35 910.308 52 Q895.978 71 899.632 97 L963.297 550 Q968.216 585 949.589 609 Q928.243 635 895.243 635 L503.243 635 Q469.243 635 440.589 609 Q415.216 585 410.297 550 L346.632 97 Q342.978 71 324.308 52 Q305.919 35 285.919 35 L166.919 35 Q145.919 35 133.308 52 Q118.978 71 122.632 97 L296.903 1337 Q300.557 1363 320.227 1382 Q337.617 1399 358.617 1399 L477.617 1399 Q497.617 1399 511.227 1382 Q524.557 1363 520.903 1337 L501.508 1199 L1054.51 1199 Z " />
<glyph glyph-name="hbar" unicode="&#x127;" horiz-adv-x="1052" d="M512.308 1162 L478.298 920 Q474.362 892 501.362 892 Q513.362 892 524.768 902 Q575.2 962 649.822 1002 Q716.881 1038 797.881 1038 Q936.881 1038 1003.69 937 Q1079.81 824 1049.45 608 L977.773 98 Q973.416 67 950.465 46 Q927.514 25 899.514 25 L785.514 25 Q758.514 25 741.465 46 Q723.416 67 727.773 98 L794.389 572 Q830.227 827 649.227 827 Q586.227 827 531.465 786 Q486.687 752 457.238 699 Q442.741 667 435.714 617 L362.773 98 Q358.416 67 334.465 46 Q311.514 25 284.514 25 L170.514 25 Q142.514 25 125.465 46 Q108.416 67 112.773 98 L297.584 1413 Q301.8 1443 324.752 1464 Q347.703 1485 375.703 1485 L489.703 1485 Q516.703 1485 533.752 1464 Q551.8 1443 547.584 1413 L520.179 1218 L1036.77 1208 Q1048.49 1206 1046.24 1190 Q1044.14 1175 1034.43 1170 L512.308 1162 Z " />
<glyph glyph-name="Iogonek" unicode="&#x12e;" horiz-adv-x="514" d="M185.762 41 Q176.449 53 175.449 53 Q160.978 71 164.773 98 L338.763 1336 Q342.417 1362 363.087 1381 Q382.617 1399 406.617 1399 L515.617 1399 Q538.617 1399 553.087 1381 Q568.417 1362 564.763 1336 L390.773 98 Q386.978 71 366.449 53 Q346.919 35 323.919 35 L248.919 35 Q249.968 14 249.405 10 Q248.562 4 246.859 -1 Q225.676 -45 220.335 -83 Q211.481 -146 242.719 -187 Q276.535 -231 341.535 -231 Q363.535 -231 384.957 -228 Q388.097 -227 390.097 -227 Q398.097 -227 403.535 -231 Q411.692 -237 414.146 -248 L420.681 -294 Q420.978 -299 420.276 -304 Q419.573 -309 417.011 -313 Q411.605 -323 400.903 -328 Q329.265 -361 250.265 -361 Q157.265 -361 114.87 -314 Q71.4756 -267 84.9675 -171 Q91.854 -122 117.724 -66 Q139.049 -21 167.232 23 Q169.795 27 185.762 41 Z " />
<glyph glyph-name="iogonek" unicode="&#x12f;" horiz-adv-x="459" d="M372.071 1203 Q317.071 1203 288.13 1239 Q260.049 1274 267.357 1326 L268.2 1332 Q276.071 1388 312.849 1422 Q352.909 1458 408.909 1458 Q463.909 1458 492.849 1422 Q521.93 1387 515.779 1329 Q508.19 1275 469.13 1239 Q429.071 1203 372.071 1203 Z M118.746 48 L114.589 54 Q98.9784 71 102.914 99 L221.389 942 Q225.044 968 246.854 988 Q265.244 1005 289.244 1005 L402.244 1005 Q425.244 1005 438.854 988 Q455.044 968 451.389 942 L332.914 99 Q328.978 71 308.449 53 Q288.919 35 265.919 35 L197.919 35 L195.249 16 Q194.686 12 193.265 9 Q171.941 -36 166.6 -74 Q157.746 -137 188.984 -178 Q222.8 -222 287.8 -222 Q309.8 -222 331.222 -219 Q334.362 -218 336.362 -218 Q344.362 -218 349.8 -222 Q357.957 -228 360.411 -239 L366.946 -285 Q367.243 -290 366.54 -295 Q365.838 -300 363.276 -304 Q357.87 -314 347.167 -319 Q275.53 -352 196.53 -352 Q103.53 -352 61.135 -305 Q17.7405 -258 31.2324 -162 Q38.1189 -113 63.9892 -57 Q85.3135 -12 112.216 30 Q116.778 34 118.746 48 Z " />
<glyph glyph-name="dotlessi" unicode="&#x131;" horiz-adv-x="400" d="M395.244 1005 Q418.244 1005 431.854 988 Q448.044 968 444.389 942 L325.914 99 Q321.978 71 301.449 53 Q281.919 35 258.919 35 L145.919 35 Q121.919 35 107.449 53 Q91.9784 71 95.9135 99 L214.389 942 Q218.044 968 239.854 988 Q258.244 1005 282.244 1005 L395.244 1005 Z " />
<glyph glyph-name="Jcircumflex" unicode="&#x134;" horiz-adv-x="647" d="M689.849 1422 Q713.849 1422 728.319 1404 Q743.649 1385 739.995 1359 L626.438 551 Q587.087 271 454.66 147 Q336.919 35 127.919 35 Q71.9189 35 12.4649 46 Q-9.97296 50 -23.0216 71 Q-32.7729 87 -29.9621 107 Q-29.2594 112 -27.5567 117 L-9.99995 185 Q-3.34588 211 18.7622 226 Q37.7298 240 54.7298 240 Q58.7298 240 62.5893 239 Q94.0271 235 125.027 235 Q242.027 235 310.287 308 Q380.968 384 405 555 L517.995 1359 Q521.649 1385 543.319 1404 Q562.849 1422 585.849 1422 L689.849 1422 Z M860.146 1602 Q864.882 1593 863.898 1586 Q863.055 1580 858.211 1574 Q847.103 1559 831.103 1559 L781.103 1559 Q764.103 1559 759.071 1573 L689.103 1744 L643.103 1744 L525.071 1573 Q514.103 1559 498.103 1559 L448.103 1559 Q432.103 1559 425.352 1575 Q422.195 1581 423.038 1587 Q423.882 1593 431.146 1602 L581.833 1799 Q591.66 1812 607.66 1812 L743.66 1812 Q759.66 1812 765.692 1798 L860.146 1602 Z " />
<glyph glyph-name="uni0136" unicode="&#x136;" horiz-adv-x="1056" d="M1082.35 95 Q1088.66 83 1086.7 69 Q1084.87 56 1074.76 41 Q1057.11 15 1031.11 15 L870.108 15 Q843.108 15 832.622 40 L628.406 565 Q613.184 599 575.746 603 L568.746 603 Q532.746 603 508.67 574 L422.46 480 Q404.649 460 400.995 434 L349.557 68 Q346.324 45 329.216 30 Q313.108 15 295.108 15 L158.108 15 Q140.108 15 128.216 30 Q115.324 45 118.557 68 L295.357 1326 Q298.59 1349 315.698 1364 Q331.806 1379 349.806 1379 L486.806 1379 Q504.806 1379 516.698 1364 Q529.59 1349 526.357 1326 L450.184 784 Q444.703 745 483.703 745 Q506.703 745 520.654 766 Q542.152 798 576.476 843 L604.816 881 L632.157 919 L973.573 1356 Q990.806 1379 1014.81 1379 L1176.81 1379 Q1205.81 1379 1214.87 1351 Q1219.04 1338 1217.36 1326 Q1214.97 1309 1201.72 1293 L777.135 805 L1082.35 95 Z M607.816 -44 L613.816 -44 Q634.816 -44 643.13 -56 Q648.286 -62 647.443 -68 Q647.022 -71 645.741 -73 Q558.784 -215 467.027 -320 Q455.059 -334 433.919 -335 L419.778 -336 L413.778 -336 Q392.778 -336 382.324 -325 Q377.167 -319 377.87 -314 Q378.292 -311 379.713 -308 Q444 -185 489.584 -67 Q491.427 -61 500.27 -55 Q511.113 -49 526.254 -48 L607.816 -44 Z " />
<glyph glyph-name="uni0137" unicode="&#x137;" horiz-adv-x="948" d="M930.881 113 Q940.351 95 937.962 78 Q935.995 64 925.746 48 Q905.108 15 870.108 15 L729.108 15 Q696.108 15 683.465 46 L557.595 360 Q540.076 399 497.778 404 L490.778 404 Q451.778 404 421.141 371 L393.784 340 Q373.692 318 369.476 288 L339.822 77 Q336.168 51 314.638 33 Q296.108 15 273.108 15 L159.108 15 Q135.108 15 120.638 33 Q106.168 51 109.822 77 L294.773 1393 Q298.427 1419 318.098 1438 Q337.487 1455 361.487 1455 L475.487 1455 Q498.487 1455 512.098 1438 Q528.427 1419 524.773 1393 L411.216 585 Q405.876 547 442.876 547 Q458.876 547 475.984 562 Q516.979 626 562.833 689 L768.498 957 Q789.433 985 820.433 985 L929.433 985 Q965.433 985 976.514 950 Q981.406 935 979.438 921 Q976.487 900 957.957 882 L689.465 601 L930.881 113 Z M521.395 -47 L527.395 -47 Q548.395 -47 556.708 -59 Q561.865 -65 561.022 -71 Q560.6 -74 559.319 -76 Q472.362 -218 380.605 -323 Q368.638 -337 347.497 -338 L333.357 -339 L327.357 -339 Q306.357 -339 295.903 -328 Q290.746 -322 291.449 -317 Q291.87 -314 293.292 -311 Q357.578 -188 403.162 -70 Q405.005 -64 413.849 -58 Q424.692 -52 439.832 -51 L521.395 -47 Z " />
<glyph glyph-name="kgreenlandic" unicode="&#x138;" horiz-adv-x="789" d="M765.962 78 Q769.119 72 768.135 65 Q767.011 57 760.746 48 Q751.919 35 738.919 35 L622.919 35 Q609.919 35 604.746 48 L456.87 426 Q443.946 455 413.368 458 Q409.508 459 404.508 459 Q376.508 459 354.854 433 L292.438 366 Q277.768 347 274.957 327 L237.854 63 Q236.308 52 226.043 43 Q217.919 35 209.919 35 L110.919 35 Q102.919 35 96.0433 43 Q89.1676 51 90.8541 63 L218.184 969 Q219.871 981 228.995 989 Q238.119 997 246.119 997 L345.119 997 Q353.119 997 358.995 989 Q366.73 980 365.184 969 L310.373 579 Q305.033 541 342.033 541 Q358.033 541 375.141 556 Q394.076 584 418.573 616 L438.368 643 L458.303 671 L704.433 985 Q713.119 997 725.119 997 L841.119 997 Q856.119 997 860.152 983 Q863.027 975 862.044 968 Q860.779 959 853.654 951 L543.481 594 L765.962 78 Z " />
<glyph glyph-name="uni013B" unicode="&#x13b;" horiz-adv-x="871" d="M483.617 1399 Q505.617 1399 520.087 1381 Q535.417 1362 531.622 1335 L389.395 323 Q384.476 288 403.962 263 Q425.308 237 460.308 237 L854.308 237 Q877.308 237 890.919 220 Q906.108 200 902.454 174 L891.914 99 Q888.119 72 867.449 53 Q847.919 35 825.919 35 L170.919 35 Q148.919 35 134.449 53 Q119.119 72 122.914 99 L296.622 1335 Q300.417 1362 321.087 1381 Q340.617 1399 362.617 1399 L483.617 1399 Z M555.211 -91 L561.211 -91 Q582.211 -91 590.524 -103 Q595.681 -109 594.838 -115 Q594.416 -118 593.135 -120 Q506.178 -262 414.422 -367 Q402.454 -381 381.313 -382 L367.173 -383 L361.173 -383 Q340.173 -383 329.719 -372 Q324.562 -366 325.265 -361 Q325.686 -358 327.108 -355 Q391.395 -232 436.978 -114 Q438.822 -108 447.665 -102 Q458.508 -96 473.649 -95 L555.211 -91 Z " />
<glyph glyph-name="uni013C" unicode="&#x13c;" horiz-adv-x="478" d="M496.298 1475 Q519.298 1475 533.768 1457 Q549.238 1439 545.444 1412 L360.773 98 Q356.978 71 336.449 53 Q316.919 35 293.919 35 L180.919 35 Q155.919 35 141.449 53 Q126.978 71 130.773 98 L315.444 1412 Q319.238 1439 338.768 1457 Q358.298 1475 383.298 1475 L496.298 1475 Z M294.211 -91 L300.211 -91 Q321.211 -91 330.524 -103 Q334.681 -109 334.119 -113 Q333.838 -115 331.416 -118 Q244.178 -262 153.422 -367 Q141.454 -381 119.313 -382 L105.173 -383 L99.1729 -383 Q78.1729 -383 67.7188 -372 Q62.5621 -366 63.2648 -361 Q63.6864 -358 64.9675 -356 Q130.395 -232 174.978 -114 Q176.822 -108 185.665 -102 Q196.508 -96 211.649 -95 L294.211 -91 Z " />
<glyph glyph-name="ldot" unicode="&#x140;" horiz-adv-x="634" d="M478.298 1475 Q501.298 1475 515.768 1457 Q531.238 1439 527.444 1412 L342.773 98 Q338.978 71 318.449 53 Q298.919 35 275.919 35 L162.919 35 Q137.919 35 123.449 53 Q108.978 71 112.773 98 L297.444 1412 Q301.238 1439 320.768 1457 Q340.298 1475 365.298 1475 L478.298 1475 Z M612.946 640 Q568.946 640 542.584 673 Q515.362 707 521.968 754 Q529.135 805 564.773 838 Q600.271 870 647.271 870 Q690.271 870 714.773 838 Q741.135 805 733.968 754 Q727.362 707 691.443 672 Q656.946 640 614.946 640 L612.946 640 Z " />
<glyph glyph-name="Lslash" unicode="&#x141;" horiz-adv-x="942" d="M460.833 689 L409.395 323 Q405.038 292 421.946 270 Q440.714 247 471.714 247 L865.714 247 Q893.714 247 908.903 227 Q926.67 204 922.454 174 L911.914 99 Q907.557 68 883.465 46 Q861.514 25 834.514 25 L179.514 25 Q152.514 25 136.465 46 Q118.557 68 122.914 99 L296.622 1335 Q300.979 1366 325.071 1388 Q347.022 1409 374.022 1409 L495.022 1409 Q522.022 1409 538.071 1388 Q555.979 1366 551.622 1335 L468.703 745 L1002.58 737 Q1006.59 730 1004.77 717 Q1002.66 702 992.238 699 L460.833 689 Z " />
<glyph glyph-name="lslash" unicode="&#x142;" horiz-adv-x="822" d="M395.638 773 L485.444 1412 Q489.238 1439 508.768 1457 Q528.298 1475 553.298 1475 L666.298 1475 Q689.298 1475 703.768 1457 Q719.238 1439 715.444 1412 L625.638 773 L912.638 773 Q916.638 773 918.076 769 Q923.233 763 922.108 755 Q920.984 747 913.86 739 Q911.579 737 907.579 737 L620.579 737 L530.773 98 Q526.978 71 506.449 53 Q486.919 35 463.919 35 L350.919 35 Q325.919 35 311.449 53 Q296.978 71 300.773 98 L390.579 737 L93.5786 737 Q89.5786 737 87.8597 739 Q82.984 747 84.1083 755 Q85.2327 763 92.0759 769 Q94.6381 773 98.6381 773 L395.638 773 Z " />
<glyph glyph-name="uni0145" unicode="&#x145;" horiz-adv-x="1274" d="M293.952 1316 Q297.606 1342 318.276 1361 Q337.806 1379 359.806 1379 L568.806 1379 Q601.806 1379 614.449 1348 L799.552 872 Q890.665 638 947.092 392 Q942.876 362 979.876 362 Q1019.88 362 1024.51 395 Q1025.22 400 1025.06 406 Q1034.07 648 1082.7 994 L1127.95 1316 Q1131.61 1342 1151.28 1361 Q1170.81 1379 1192.81 1379 L1288.81 1379 Q1310.81 1379 1325.28 1361 Q1339.61 1342 1335.95 1316 L1161.96 78 Q1158.17 51 1138.64 33 Q1119.11 15 1097.11 15 L924.108 15 Q891.108 15 878.465 46 L688.157 549 Q586.681 816 528.287 1048 Q523.941 1074 498.941 1074 Q492.941 1074 483.519 1071 Q455.254 1062 451.319 1034 Q423.546 751 375.903 412 L328.962 78 Q325.168 51 304.638 33 Q285.108 15 263.108 15 L168.108 15 Q146.108 15 131.638 33 Q116.168 51 119.962 78 L293.952 1316 Z M678.395 -47 L684.395 -47 Q705.395 -47 713.708 -59 Q718.865 -65 718.022 -71 Q717.6 -74 716.319 -76 Q629.362 -218 537.605 -323 Q525.638 -337 504.497 -338 L490.357 -339 L484.357 -339 Q463.357 -339 452.903 -328 Q447.746 -322 448.449 -317 Q448.87 -314 450.292 -311 Q514.578 -188 560.162 -70 Q562.005 -64 570.849 -58 Q581.692 -52 596.832 -51 L678.395 -47 Z " />
<glyph glyph-name="uni0146" unicode="&#x146;" horiz-adv-x="1023" d="M766.665 1008 Q905.665 1008 973.173 912 Q1048.28 806 1018.9 597 L945.822 77 Q942.168 51 921.638 33 Q902.108 15 879.108 15 L764.108 15 Q742.108 15 727.638 33 Q712.168 51 715.822 77 L783.141 556 Q819.822 817 632.822 817 Q561.822 817 503.216 770 Q455.735 731 427.443 672 Q408.806 639 400.514 580 L329.822 77 Q326.168 51 305.638 33 Q286.108 15 263.108 15 L148.108 15 Q125.108 15 110.497 32 Q96.1676 51 99.8216 77 Q111.892 170 125.103 264 Q141.67 389 155.849 497 Q194.887 789 212.579 922 L213 925 Q216.514 950 235.044 968 Q255.433 985 278.573 986 L366.714 987 Q389.714 987 404.184 969 Q419.514 950 415.719 923 L409.957 882 Q404.335 842 442.335 842 Q463.335 842 479.006 861 Q521.016 918 585.357 956 Q670.665 1008 766.665 1008 Z M557.551 -53 L563.551 -53 Q584.551 -53 592.865 -65 Q598.022 -71 597.178 -77 Q596.757 -80 595.476 -82 Q508.519 -224 416.762 -329 Q404.794 -343 383.654 -344 L369.513 -345 L363.513 -345 Q342.513 -345 332.059 -334 Q326.903 -328 327.605 -323 Q328.027 -320 329.449 -317 Q393.735 -194 439.319 -76 Q441.162 -70 450.005 -64 Q460.849 -58 475.989 -57 L557.551 -53 Z " />
<glyph glyph-name="Eng" unicode="&#x14a;" horiz-adv-x="1274" d="M926.827 13 Q888.811 20 878.465 46 L688.157 549 Q586.681 816 528.287 1048 Q523.941 1074 498.941 1074 Q492.941 1074 483.519 1071 Q455.254 1062 451.319 1034 Q423.546 751 375.903 412 L328.962 78 Q325.168 51 304.638 33 Q285.108 15 263.108 15 L168.108 15 Q146.108 15 131.638 33 Q116.168 51 119.962 78 L293.952 1316 Q297.606 1342 318.276 1361 Q337.806 1379 359.806 1379 L568.806 1379 Q601.806 1379 614.449 1348 L799.552 872 Q890.665 638 947.092 392 Q942.876 362 979.876 362 Q1019.88 362 1024.51 395 Q1025.22 400 1025.06 406 Q1034.07 648 1082.7 994 L1127.95 1316 Q1131.61 1342 1151.28 1361 Q1170.81 1379 1192.81 1379 L1288.81 1379 Q1310.81 1379 1325.28 1361 Q1339.61 1342 1335.95 1316 L1165.34 102 Q1166.93 92 1165.66 83 Q1164.12 72 1158.43 60 Q1039.56 -181 918.686 -358 Q898.751 -386 869.33 -389 L851.189 -390 L842.189 -390 Q817.189 -390 804.14 -369 Q792.67 -351 795.622 -330 Q796.886 -321 800.292 -311 Q869.357 -154 926.827 13 Z " />
<glyph glyph-name="eng" unicode="&#x14b;" horiz-adv-x="1023" d="M719.195 101 L783.141 556 Q819.822 817 632.822 817 Q561.822 817 503.216 770 Q455.735 731 427.443 672 Q408.806 639 400.514 580 L329.822 77 Q326.168 51 305.638 33 Q286.108 15 263.108 15 L148.108 15 Q125.108 15 110.497 32 Q96.1676 51 99.8216 77 Q111.892 170 125.103 264 Q141.67 389 155.849 497 Q194.887 789 212.579 922 L213 925 Q216.514 950 235.044 968 Q255.433 985 278.573 986 L366.714 987 Q389.714 987 404.184 969 Q419.514 950 415.719 923 L409.957 882 Q404.335 842 442.335 842 Q463.335 842 479.006 861 Q521.016 918 585.357 956 Q670.665 1008 766.665 1008 Q905.665 1008 973.173 912 Q1048.28 806 1018.9 597 L945.822 77 Q942.168 51 921.638 33 Q906.811 20 883.108 15 Q795.34 -147 712.195 -269 Q692.259 -297 662.838 -300 L644.697 -301 L635.697 -301 Q610.697 -301 597.649 -280 Q586.178 -262 589.13 -241 Q590.395 -232 593.8 -222 Q665.708 -59 719.195 101 Z " />
<glyph glyph-name="OE" unicode="&#x152;" horiz-adv-x="1733" d="M1048.02 1103 Q1064.18 1218 952.568 1235 Q916.271 1240 874.271 1240 Q693.271 1240 558.438 1106 Q415.903 967 382.454 729 Q350.692 503 444.157 364 Q544.778 219 752.778 219 Q778.778 219 805.06 221 Q926.027 235 942.751 354 L1048.02 1103 Z M1697.01 121 Q1693.21 94 1672.82 77 Q1651.15 58 1625.15 58 L964.151 58 Q938.151 58 902.589 54 L869.027 50 L836.324 45 L800.903 42 L760.481 39 Q712.919 35 672.919 35 Q361.919 35 217.449 238 Q87.4488 423 128.768 717 Q174.303 1041 380.287 1233 Q583.13 1424 874.13 1424 Q956.13 1424 1048.3 1411 L1083.88 1408 L1116.32 1404 Q1153.9 1401 1176.9 1401 L1785.9 1401 Q1811.9 1401 1827.23 1382 Q1843.7 1364 1840.04 1338 L1830.63 1271 Q1826.97 1245 1806.44 1227 Q1784.91 1209 1758.91 1209 L1382.91 1209 Q1295.91 1209 1283.69 1122 L1256.98 932 Q1244.76 845 1331.76 845 L1677.76 845 Q1703.76 845 1720.23 827 Q1735.7 809 1731.9 782 L1722.91 718 Q1719.25 692 1697.72 674 Q1677.05 655 1651.05 655 L1305.05 655 Q1218.05 655 1205.83 568 L1173.36 337 Q1161.14 250 1248.14 250 L1652.14 250 Q1678.14 250 1694.46 231 Q1710.08 214 1706.28 187 L1697.01 121 Z " />
<glyph glyph-name="oe" unicode="&#x153;" horiz-adv-x="1540" d="M1330.34 593 Q1384.34 593 1391.65 645 L1392.21 649 Q1399.45 729 1369.76 781 Q1328.3 856 1224.3 856 Q1133.3 856 1066.32 785 Q1013.59 730 992.914 654 Q991.07 648 990.227 642 Q983.341 593 1037.34 593 L1330.34 593 Z M603.335 842 Q482.335 842 406.173 727 Q350.368 643 332.238 514 Q312.703 375 354.195 286 Q401.86 184 508.86 184 Q614.86 184 689.633 282 Q755 370 775.519 516 Q794.211 649 759.298 735 Q715.335 842 604.335 842 L603.335 842 Z M1017.09 456 Q967.087 456 960.762 411 Q959.919 405 960.216 400 Q960.584 303 1038.57 246 Q1108.98 192 1218.98 192 Q1311.98 192 1394.94 213 Q1402.22 215 1409.22 215 Q1426.22 215 1439.81 205 Q1459.98 192 1461.33 166 L1462.82 141 Q1463.55 132 1462.29 123 Q1457.23 87 1414.26 73 Q1353.45 53 1277.04 43 Q1216.92 35 1156.92 35 Q946.919 35 861.827 198 L846.514 210 L822.514 210 L803.827 198 Q672.919 35 456.919 35 Q275.919 35 177.346 159 Q71.0379 292 101.957 512 Q132.173 727 275.865 860 Q416.135 990 610.135 990 Q822.135 990 889.508 829 L911.26 813 L943.525 822 Q1077.14 990 1268.14 990 Q1456.14 990 1535.46 850 Q1603.45 729 1576.61 538 L1572.96 512 Q1567.72 489 1548.34 472 Q1531.09 456 1508.09 456 L1017.09 456 Z " />
<glyph glyph-name="uni0156" unicode="&#x156;" horiz-adv-x="1076" d="M601.092 762 Q727.092 762 810.368 828 Q895.503 893 911.103 1004 Q926.984 1117 863.698 1179 Q805.99 1238 686.13 1239 Q631.13 1239 587.568 1235 Q555.006 1231 530.492 1206 Q504.979 1181 500.341 1148 L458.319 849 Q453.4 814 472.887 789 Q495.092 762 530.092 762 L601.092 762 Z M1014.99 249 Q1025.21 158 1030.16 115 Q1031.9 106 1030.63 97 Q1027.82 77 1013.29 59 Q992.919 35 964.919 35 L841.919 35 Q824.919 35 811.465 46 Q798.011 57 794.681 76 Q780.768 162 765.924 341 Q755.741 482 707.752 539 Q660.903 597 550.184 599 L507.184 599 Q473.184 599 442.53 573 Q415.876 547 410.957 512 L352.632 97 Q348.978 71 329.449 53 Q309.919 35 287.919 35 L169.919 35 Q147.919 35 134.449 53 Q118.978 71 122.632 97 L295.919 1330 Q299.292 1354 316.822 1372 Q333.211 1389 354.492 1391 Q504.022 1409 676.022 1409 Q882.022 1409 999.968 1309 Q1121.49 1206 1096.76 1030 Q1079.05 904 1021.24 820 Q966.141 741 861.66 702 L854.211 649 Q975.341 593 998.514 395 L1007.25 322 L1014.99 249 Z M606.551 -53 L612.551 -53 Q633.551 -53 641.865 -65 Q647.022 -71 646.178 -77 Q645.757 -80 644.476 -82 Q557.519 -224 465.762 -329 Q453.794 -343 432.654 -344 L418.513 -345 L412.513 -345 Q391.513 -345 381.059 -334 Q375.903 -328 376.605 -323 Q377.027 -320 378.449 -317 Q442.735 -194 488.319 -76 Q490.162 -70 499.005 -64 Q509.849 -58 524.989 -57 L606.551 -53 Z " />
<glyph glyph-name="uni0157" unicode="&#x157;" horiz-adv-x="652" d="M622.573 986 Q687.476 1028 753.476 1028 Q764.476 1028 771.211 1019 Q779.087 1011 777.26 998 L756.038 847 Q753.087 826 737.26 813 Q722.292 799 704.292 799 L703.292 799 Q609.292 799 537.984 747 Q466.676 695 436.308 607 Q425.249 571 419.206 528 L358.632 97 Q354.978 71 333.449 53 Q314.919 35 291.919 35 L177.919 35 Q153.919 35 139.449 53 Q124.978 71 128.632 97 L247.53 943 Q251.184 969 270.854 988 Q290.244 1005 314.244 1005 L389.244 1005 Q413.244 1005 426.854 988 Q441.325 970 437.811 945 L424.881 853 Q419.26 813 459.26 813 Q483.26 813 500.773 838 Q546.406 935 622.573 986 Z M267.897 -79 L273.897 -79 Q294.897 -79 303.211 -91 Q308.368 -97 307.524 -103 Q307.103 -106 305.822 -108 Q218.865 -250 127.108 -355 Q115.14 -369 93.9999 -370 L79.8594 -371 L73.8594 -371 Q52.8594 -371 42.4053 -360 Q37.2485 -354 37.9512 -349 Q38.3729 -346 39.7945 -343 Q104.081 -220 149.665 -102 Q151.508 -96 160.351 -90 Q171.195 -84 186.335 -83 L267.897 -79 Z " />
<glyph glyph-name="Scedilla" unicode="&#x15e;" horiz-adv-x="918" d="M426.919 35 L384.919 35 Q235.919 35 107.805 84 Q86.9298 92 79.8811 113 Q73.9892 128 76.2379 144 Q77.3622 152 80.4865 160 L106.887 234 Q116.681 261 141.649 275 Q156.633 282 169.633 282 Q179.633 282 190.07 278 Q309.465 231 430.465 231 Q543.465 231 614.492 281 Q689.519 331 702.168 421 Q713.692 503 657.562 559 Q612.168 606 490.195 656 Q168.184 784 205.146 1047 Q229.179 1218 365.638 1328 Q510.8 1443 725.8 1443 Q857.8 1443 963.741 1407 Q984.757 1400 993.665 1378 Q999.557 1363 997.309 1347 Q996.184 1339 992.919 1330 L964.222 1261 Q954.427 1234 929.6 1221 Q915.476 1213 902.476 1213 Q893.476 1213 884.898 1216 Q794.254 1247 693.254 1247 Q588.254 1247 520.508 1199 Q451.622 1150 440.941 1074 Q429.276 991 494.687 937 Q539.346 899 673.914 839 Q834.638 773 897.146 677 Q960.935 583 941.541 445 Q916.805 269 781.205 158 Q671.697 69 497.903 42 Q500.373 24 500.092 22 Q499.249 16 494.265 9 L456.676 -45 Q554.849 -58 582.211 -91 Q612.573 -124 605.827 -172 Q594.865 -250 530.805 -286 Q469.746 -322 372.746 -322 Q321.746 -322 280.573 -309 Q271.135 -305 266.822 -293 Q264.665 -287 265.649 -280 Q266.351 -275 269.195 -269 Q273.178 -262 285.022 -256 Q292.584 -252 299.584 -252 Q303.584 -252 306.443 -253 Q340.757 -265 369.757 -265 Q410.757 -265 439.427 -246 Q482.94 -221 489.546 -174 Q503.038 -78 364.724 -66 L426.919 35 Z " />
<glyph glyph-name="scedilla" unicode="&#x15f;" horiz-adv-x="730" d="M335.919 35 Q191.919 35 96.6973 69 Q76.6811 76 68.773 98 Q62.8811 113 65.1298 129 Q66.2541 137 69.3784 145 L82.5784 182 Q92.373 209 117.341 223 Q131.324 230 144.324 230 Q153.324 230 163.762 226 Q255.703 190 334.703 190 Q497.703 190 514.989 313 Q522.86 369 486.638 403 Q456.854 433 371.351 465 Q244.238 514 192.2 592 Q147.195 656 158.86 739 L159.703 745 Q178.114 876 284.06 961 Q397.568 1050 559.568 1050 Q652.568 1050 734.195 1026 Q754.211 1019 764.119 997 Q770.011 982 767.762 966 Q766.638 958 763.514 950 L752.157 919 Q742.503 893 718.676 880 Q703.552 872 689.552 872 Q681.552 872 674.833 874 Q609.065 897 548.065 897 Q481.065 897 437.849 867 Q390.071 833 382.06 776 Q374.752 724 416.552 687 Q448.897 661 538.697 624 Q660.092 577 706.395 508 Q750.838 440 738.222 336 Q719.389 202 614.005 121 Q533.292 59 388.481 39 Q399.827 13 398.843 6 Q398 0 393.016 -7 L355.427 -61 Q453.6 -74 480.962 -107 Q511.324 -140 504.578 -188 Q493.616 -266 429.557 -302 Q368.497 -338 271.497 -338 Q220.497 -338 179.324 -325 Q169.886 -321 165.573 -309 Q163.416 -303 164.4 -296 Q165.103 -291 167.946 -285 Q171.93 -278 183.773 -272 Q191.335 -268 198.335 -268 Q202.335 -268 205.195 -269 Q239.508 -281 268.508 -281 Q309.508 -281 338.178 -262 Q381.692 -237 388.297 -190 Q401.789 -94 263.476 -82 L335.919 35 Z " />
<glyph glyph-name="uni0162" unicode="&#x162;" horiz-adv-x="858" d="M436.638 33 Q395.059 36 382.449 53 Q366.119 72 369.914 99 L512.141 1111 Q517.06 1146 496.573 1171 Q475.087 1196 441.087 1196 L229.087 1196 Q204.087 1196 189.617 1214 Q174.287 1233 178.222 1261 L188.622 1335 Q192.417 1362 213.087 1381 Q232.617 1399 257.617 1399 L1084.62 1399 Q1108.62 1399 1123.09 1381 Q1138.42 1362 1134.62 1335 L1124.22 1261 Q1120.29 1233 1099.62 1214 Q1080.09 1196 1056.09 1196 L838.087 1196 Q804.087 1196 774.714 1172 Q747.06 1146 742.141 1111 L599.914 99 Q596.119 72 575.449 53 Q555.919 35 531.919 35 L503.919 35 Q505.968 14 505.686 12 Q504.984 7 500.141 1 L462.411 -54 Q560.584 -67 587.946 -100 Q618.308 -133 611.562 -181 Q600.6 -259 536.54 -295 Q475.481 -331 378.481 -331 Q327.481 -331 286.308 -318 Q276.87 -314 272.557 -302 Q270.4 -296 271.384 -289 Q272.086 -284 274.93 -278 Q278.913 -271 290.757 -265 Q298.319 -261 305.319 -261 Q309.319 -261 312.178 -262 Q346.492 -274 375.492 -274 Q416.492 -274 445.162 -255 Q488.676 -230 495.281 -183 Q508.773 -87 370.459 -75 L436.638 33 Z " />
<glyph glyph-name="uni0163" unicode="&#x163;" horiz-adv-x="600" d="M330.746 48 Q268.259 73 237.881 113 Q175.546 196 203.935 398 L257.762 781 Q262.26 813 243.492 836 Q223.584 858 193.584 858 Q172.584 858 158.973 875 Q145.222 891 148.735 916 L156.184 969 Q159.557 993 178.087 1011 Q195.195 1026 217.195 1026 Q249.195 1026 273.568 1050 Q298.66 1072 303.157 1104 L326.065 1267 Q329.438 1291 347.827 1308 Q366.076 1324 387.076 1324 L505.076 1324 Q526.076 1324 539.827 1308 Q553.438 1291 550.065 1267 L527.157 1104 Q522.66 1072 540.568 1050 Q558.195 1026 591.195 1026 L678.195 1026 Q700.195 1026 713.087 1011 Q726.557 993 723.184 969 L715.735 916 Q712.222 891 693.973 875 Q675.584 858 654.584 858 L567.584 858 Q534.584 858 511.352 835 Q486.26 813 481.762 781 L434.822 447 Q417.254 322 425.897 291 Q443.043 228 538.043 228 Q548.043 228 559.184 229 Q580.184 229 592.935 213 Q606.687 197 604.173 172 L595.054 100 Q591.962 78 575.714 62 Q560.465 46 541.043 43 Q488.919 35 425.919 35 L404.919 35 Q396.951 21 394.249 16 L356.659 -38 Q454.832 -51 482.195 -84 Q512.557 -117 505.811 -165 Q494.849 -243 430.789 -279 Q369.73 -315 272.73 -315 Q221.73 -315 180.557 -302 Q171.119 -298 166.805 -286 Q164.649 -280 165.632 -273 Q166.335 -268 169.178 -262 Q173.162 -255 185.005 -249 Q192.567 -245 199.567 -245 Q203.567 -245 206.427 -246 Q240.74 -258 269.74 -258 Q310.74 -258 339.411 -239 Q382.924 -214 389.53 -167 Q403.022 -71 264.708 -59 L330.746 48 Z " />
<glyph glyph-name="Tcaron" unicode="&#x164;" horiz-adv-x="871" d="M1096.48 1398 Q1121.48 1398 1135.95 1380 Q1151.14 1360 1147.34 1333 L1136.8 1258 Q1132.72 1229 1112.05 1210 Q1092.52 1192 1067.52 1192 L846.525 1192 Q812.525 1192 783.152 1168 Q754.357 1141 749.438 1106 L605.243 80 Q601.449 53 580.638 33 Q561.108 15 536.108 15 L423.108 15 Q399.108 15 384.638 33 Q368.449 53 372.243 80 L516.438 1106 Q521.357 1141 501.011 1167 Q478.525 1192 444.525 1192 L229.525 1192 Q203.525 1192 189.054 1210 Q173.725 1229 177.8 1258 L188.341 1333 Q192.136 1360 212.946 1380 Q232.476 1398 258.476 1398 L1096.48 1398 Z M506.914 1764 Q503.038 1772 504.022 1779 Q504.865 1785 509.709 1791 Q520.817 1806 536.817 1806 L586.817 1806 Q602.817 1806 609.849 1792 L678.957 1622 L723.957 1622 L842.849 1792 Q853.817 1806 869.817 1806 L919.817 1806 Q935.817 1806 942.709 1791 Q945.865 1785 945.022 1779 Q944.038 1772 937.914 1764 L786.087 1566 Q776.26 1553 760.26 1553 L623.26 1553 Q607.26 1553 601.227 1567 L506.914 1764 Z " />
<glyph glyph-name="tcaron" unicode="&#x165;" horiz-adv-x="607" d="M432.011 427 Q414.443 302 423.087 271 Q440.232 208 535.232 208 Q545.232 208 556.373 209 Q577.373 209 590.124 193 Q603.876 177 601.362 152 L592.243 80 Q589.151 58 572.903 42 Q557.654 26 538.232 23 Q486.108 15 423.108 15 Q294.108 15 235.07 93 Q172.735 176 201.124 378 L254.952 761 Q259.449 793 240.681 816 Q220.773 838 190.773 838 Q169.773 838 156.162 855 Q142.411 871 145.925 896 L153.373 949 Q156.746 973 175.276 991 Q192.384 1006 214.384 1006 Q246.384 1006 270.757 1030 Q295.849 1052 300.346 1084 L323.254 1247 Q326.627 1271 345.017 1288 Q363.265 1304 384.265 1304 L502.265 1304 Q523.265 1304 537.017 1288 Q550.627 1271 547.254 1247 L524.346 1084 Q519.849 1052 537.757 1030 Q555.384 1006 588.384 1006 L675.384 1006 Q697.384 1006 710.276 991 Q723.746 973 720.373 949 L712.925 896 Q709.411 871 691.162 855 Q672.773 838 651.773 838 L564.773 838 Q531.773 838 508.541 815 Q483.449 793 478.952 761 L432.011 427 Z M291.719 1663 Q287.844 1671 288.828 1678 Q289.671 1684 294.514 1690 Q305.622 1705 321.622 1705 L371.622 1705 Q387.622 1705 394.655 1691 L463.763 1521 L508.763 1521 L627.655 1691 Q638.622 1705 654.622 1705 L704.622 1705 Q720.622 1705 727.514 1690 Q730.671 1684 729.828 1678 Q728.844 1671 722.719 1663 L570.892 1465 Q561.065 1452 545.065 1452 L408.065 1452 Q392.065 1452 386.033 1466 L291.719 1663 Z " />
<glyph glyph-name="Tbar" unicode="&#x166;" horiz-adv-x="994" d="M480.298 735 L533.141 1111 Q538.06 1146 517.573 1171 Q496.087 1196 462.087 1196 L250.087 1196 Q225.087 1196 210.617 1214 Q195.287 1233 199.222 1261 L209.622 1335 Q213.417 1362 234.087 1381 Q253.617 1399 278.617 1399 L1105.62 1399 Q1129.62 1399 1144.09 1381 Q1159.42 1362 1155.62 1335 L1145.22 1261 Q1141.29 1233 1120.62 1214 Q1101.09 1196 1077.09 1196 L859.087 1196 Q825.087 1196 795.714 1172 Q768.06 1146 763.141 1111 L710.298 735 L1055.3 735 Q1060.3 735 1063.74 731 Q1068.89 725 1067.77 717 Q1066.64 709 1059.66 702 Q1056.24 699 1050.24 699 L705.238 699 L620.914 99 Q617.119 72 596.449 53 Q576.919 35 552.919 35 L440.919 35 Q417.919 35 403.449 53 Q387.119 72 390.914 99 L475.238 699 L137.238 699 Q131.238 699 128.66 702 Q123.643 709 124.768 717 Q125.892 725 132.735 731 Q137.298 735 142.298 735 L480.298 735 Z " />
<glyph glyph-name="tbar" unicode="&#x167;" horiz-adv-x="878" d="M559.924 526 L548.822 447 Q531.254 322 539.897 291 Q557.043 228 652.043 228 Q662.043 228 673.184 229 Q694.184 229 706.935 213 Q720.687 197 718.173 172 L709.054 100 Q705.962 78 689.714 62 Q674.465 46 655.043 43 Q602.919 35 539.919 35 Q410.919 35 351.881 113 Q289.546 196 317.935 398 L335.924 526 L34.9245 526 Q28.9245 526 26.3461 529 Q21.3299 536 22.4542 544 Q23.5785 552 30.4218 558 Q34.9839 562 39.9839 562 L340.984 562 L371.762 781 Q376.26 813 357.492 836 Q337.584 858 307.584 858 Q286.584 858 272.973 875 Q259.222 891 262.735 916 L270.184 969 Q273.557 993 292.087 1011 Q309.195 1026 331.195 1026 Q363.195 1026 387.568 1050 Q412.66 1072 417.157 1104 L440.065 1267 Q443.438 1291 461.827 1308 Q480.076 1324 501.076 1324 L619.076 1324 Q640.076 1324 653.827 1308 Q667.438 1291 664.065 1267 L641.157 1104 Q636.66 1072 654.568 1050 Q672.195 1026 705.195 1026 L792.195 1026 Q814.195 1026 827.087 1011 Q840.557 993 837.184 969 L829.735 916 Q826.222 891 807.973 875 Q789.584 858 768.584 858 L681.584 858 Q648.584 858 625.352 835 Q600.26 813 595.762 781 L564.984 562 L952.984 562 Q957.984 562 961.422 558 Q966.579 552 965.454 544 Q964.33 536 957.346 529 Q953.924 526 947.924 526 L559.924 526 Z " />
<glyph glyph-name="Uogonek" unicode="&#x172;" horiz-adv-x="1213" d="M516.481 39 Q106.492 96 185.335 657 L283.995 1359 Q287.79 1386 307.319 1404 Q326.849 1422 350.849 1422 L464.849 1422 Q487.849 1422 502.319 1404 Q517.79 1386 513.995 1359 L411.681 631 Q384.416 437 437.941 334 Q494.622 225 629.622 225 Q907.622 225 964.681 631 L1066.99 1359 Q1070.79 1386 1091.32 1404 Q1110.85 1422 1133.85 1422 L1245.85 1422 Q1269.85 1422 1284.32 1404 Q1298.79 1386 1294.99 1359 L1195.77 653 Q1151.92 341 992.719 183 Q855.887 49 622.919 35 Q617.081 -35 645.881 -72 Q679.697 -116 744.697 -116 Q766.697 -116 788.119 -113 Q791.259 -112 793.259 -112 Q801.259 -112 806.697 -116 Q814.854 -122 817.308 -133 L823.843 -179 Q824.14 -184 823.438 -189 Q822.735 -194 820.173 -198 Q814.768 -208 804.065 -213 Q732.427 -246 653.427 -246 Q560.427 -246 518.032 -199 Q474.638 -152 488.13 -56 Q493.33 -19 516.481 39 Z " />
<glyph glyph-name="uogonek" unicode="&#x173;" horiz-adv-x="1002" d="M389.919 35 Q237.341 38 176.13 129 Q102.027 235 132.665 453 L204.622 965 Q208.276 991 230.087 1011 Q248.476 1028 273.476 1028 L385.476 1028 Q410.476 1028 425.087 1011 Q440.276 991 436.622 965 L371.833 504 Q332.903 227 517.903 227 Q587.903 227 645.368 273 Q691.146 307 719.016 363 Q734.951 391 742.541 445 L815.622 965 Q819.276 991 841.087 1011 Q859.476 1028 884.476 1028 L997.476 1028 Q1022.48 1028 1037.09 1011 Q1052.42 992 1048.62 965 L989.595 545 Q953.757 290 931.287 123 Q927.351 95 905.822 77 Q886.151 58 862.151 58 L783.151 58 Q760.151 58 744.822 77 Q729.492 96 733.287 123 L739.33 166 Q744.811 205 705.811 205 Q682.811 205 669.141 186 Q651.627 161 628.395 138 Q599.319 109 566.368 88 Q535.697 69 492.449 53 L491.184 44 Q471.281 2 465.941 -36 Q457.086 -99 488.324 -140 Q522.14 -184 587.14 -184 Q609.14 -184 630.562 -181 Q633.703 -180 635.703 -180 Q643.703 -180 649.14 -184 Q657.297 -190 659.751 -201 L666.286 -247 Q666.584 -252 665.881 -257 Q665.178 -262 662.616 -266 Q657.211 -276 646.508 -281 Q574.87 -314 495.87 -314 Q402.87 -314 360.476 -267 Q317.081 -220 330.573 -124 Q337.459 -75 363.33 -19 Q371.719 -2 389.919 35 Z " />
<glyph glyph-name="longs" unicode="&#x17f;" horiz-adv-x="496" d="M663.671 1499 Q696.671 1499 723.39 1497 Q746.109 1495 758.579 1477 Q771.909 1458 768.395 1433 L759.384 1376 Q755.59 1349 735.919 1330 Q716.53 1313 691.53 1313 L688.53 1313 Q599.53 1313 542.692 1243 Q495.681 1186 482.611 1093 L479.8 1073 Q477.973 1060 439.076 769 L344.632 97 Q340.978 71 320.449 53 Q300.919 35 277.919 35 L160.919 35 Q137.919 35 123.449 53 Q108.978 71 112.632 97 L250.925 1081 Q264.417 1177 302.941 1259 Q344.73 1350 409.319 1404 Q513.671 1499 663.671 1499 Z " />
<glyph glyph-name="uni01E3" unicode="&#x1e3;" horiz-adv-x="1451" d="M1119.09 1317 Q1117.41 1305 1108.28 1297 Q1099.16 1289 1087.16 1289 L706.157 1289 Q694.157 1289 687.281 1297 Q680.406 1305 682.092 1317 L689.541 1370 Q691.087 1381 700.352 1390 Q709.476 1398 721.476 1398 L1102.48 1398 Q1114.48 1398 1121.35 1390 Q1128.09 1381 1126.54 1370 L1119.09 1317 Z M909.952 761 Q912.643 709 906.211 649 Q930.697 624 962.697 624 L1201.7 624 Q1243.7 624 1272.48 658 Q1294.71 681 1298.64 709 Q1300.05 719 1299.45 729 Q1295.57 801 1260.04 847 Q1213.19 905 1126.19 905 Q1046.19 905 982.6 851 Q940.822 817 909.952 761 Z M637.784 340 Q626.465 416 637.238 514 Q612.049 534 585.049 534 L582.049 534 Q454.206 528 366.022 484 Q251.292 429 237.378 330 Q226.557 253 298.514 210 Q353.016 178 423.016 178 Q489.016 178 547.919 220 Q604.541 260 634.957 327 L635.097 328 Q636.66 332 637.784 340 Z M823.243 80 Q811.135 65 806.573 61 Q787.043 43 760.903 42 L679.622 40 Q654.622 40 638.432 60 Q623.962 78 627.476 103 L633.8 148 L574.8 148 Q512.103 79 443.887 49 Q377.811 20 308.811 20 L299.811 20 Q173.373 24 108.178 108 Q45.5622 189 61.7244 304 Q86.4596 480 234.67 574 Q383.6 666 629.741 667 Q678.741 667 685.768 717 Q695.325 785 658.508 829 Q612.519 886 499.519 886 Q407.519 886 309.741 852 Q297.179 848 287.179 848 Q274.179 848 262.022 854 Q240.989 868 237.784 895 L236.611 908 Q234.876 917 236.281 927 Q238.389 942 247.357 956 Q260.449 978 283.573 986 Q420.741 1037 573.741 1037 Q756.741 1037 849.125 933 Q990.568 1050 1164.57 1050 Q1363.57 1050 1447.77 902 Q1520.36 771 1491.55 566 Q1489.44 551 1486.05 534 Q1480.39 508 1460.87 490 Q1442.48 473 1419.48 473 L947.476 473 Q909.476 473 878.26 443 L861.957 327 Q892.805 269 956.449 238 Q1023.81 205 1116.81 205 Q1213.81 205 1300.34 223 Q1307.62 225 1312.62 225 Q1329.62 225 1343.08 214 Q1361.97 199 1362.45 174 L1362.96 142 Q1363.83 134 1362.99 128 Q1360.46 110 1349.35 95 Q1333.54 75 1310.42 67 Q1189.92 35 1049.92 35 Q923.919 35 823.243 80 Z " />
<glyph glyph-name="uni01E4" unicode="&#x1e4;" horiz-adv-x="1291" d="M1159.62 410 L1361.62 410 L1359.09 392 Q1356.84 376 1355.56 374 L1154.56 374 L1123.5 153 Q1120.41 131 1107.02 114 Q1092.77 98 1074.93 92 Q989.557 68 903.449 53 Q799.919 35 708.919 35 Q378.919 35 233.638 218 Q160.865 305 134.854 433 Q107.703 560 128.643 709 L129.487 715 Q178.427 1049 404.692 1243 Q622.833 1429 935.833 1429 Q1083.83 1429 1196.77 1393 Q1216.79 1386 1225.7 1364 Q1232.45 1348 1230.06 1331 Q1228.94 1323 1224.81 1315 L1199.11 1246 Q1189.46 1220 1166.63 1207 Q1152.37 1198 1140.37 1198 Q1134.37 1198 1128.65 1200 Q1032.01 1231 905.006 1231 Q699.006 1231 555.298 1105 Q403.325 970 369.876 732 Q337.13 499 441.016 363 Q542.903 227 741.903 227 Q808.903 227 858.168 236 Q889.151 243 909.524 267 Q929.897 291 933.973 320 L963.908 533 Q968.827 568 950.2 592 Q928.854 618 895.854 618 L829.854 618 Q808.854 618 795.243 635 Q781.914 654 785.708 681 L793.719 738 Q797.514 765 816.184 784 Q834.573 801 855.573 801 L1160.57 801 Q1181.57 801 1195.18 784 Q1209.37 764 1205.72 738 L1159.62 410 Z " />
<glyph glyph-name="uni01E5" unicode="&#x1e5;" horiz-adv-x="1049" d="M794.73 610 Q800.352 650 796.427 679 Q789.108 755 745.292 799 Q699.179 848 625.179 848 Q523.179 848 445.389 757 Q367.46 665 346.66 517 Q328.108 385 373.303 301 Q423.951 206 534.951 206 Q604.951 206 664.416 252 Q720.46 295 747.876 362 Q757.546 381 763.481 409 Q769.573 431 773.227 457 L794.73 610 Z M681.395 -47 Q703.984 7 712.838 70 L722.114 136 Q725.908 163 697.908 163 Q686.908 163 674.503 153 Q572.795 27 416.795 27 Q249.795 27 162.487 160 Q71.4595 295 101.676 510 Q134.703 745 279.503 893 Q416.038 1032 588.038 1032 Q752.038 1032 812.065 897 Q821.519 886 833.519 886 Q860.519 886 864.173 912 L870.389 942 Q877.465 971 900.135 990 Q921.806 1009 948.806 1009 L1025.81 1009 Q1053.81 1009 1069.85 988 Q1086.76 966 1082.69 937 L1082.27 934 Q1066.48 843 1049.89 725 L968.378 145 Q923.686 -173 768.135 -305 Q618.13 -426 375.13 -426 Q231.13 -426 121.173 -383 Q97.2972 -375 87.8107 -350 Q82.1999 -333 84.7296 -315 Q85.9945 -306 89.2594 -297 L109.708 -244 Q121.065 -213 149.173 -198 Q166.297 -190 182.297 -190 Q193.297 -190 203.735 -194 Q296.676 -230 394.676 -230 Q517.676 -230 601.935 -157 Q624.886 -136 649.524 -103 L119.524 -103 L116.368 -97 Q116.227 -98 116.946 -100 Q112.351 -90 114.459 -75 Q116.568 -60 123.973 -50 Q122.692 -52 122.411 -54 Q121.989 -57 125.989 -57 L681.395 -47 Z " />
<glyph glyph-name="uni01E9" unicode="&#x1e9;" horiz-adv-x="894" d="M919.692 133 Q929.162 115 926.773 98 Q924.805 84 914.557 68 Q893.919 35 858.919 35 L717.919 35 Q684.919 35 672.276 66 L546.406 380 Q528.887 419 486.589 424 L479.589 424 Q440.589 424 409.951 391 L382.595 360 Q362.503 338 358.287 308 L328.632 97 Q324.978 71 303.449 53 Q284.919 35 261.919 35 L147.919 35 Q123.919 35 109.449 53 Q94.9784 71 98.6325 97 L283.584 1413 Q287.238 1439 306.909 1458 Q326.298 1475 350.298 1475 L464.298 1475 Q487.298 1475 500.909 1458 Q517.238 1439 513.584 1413 L400.027 605 Q394.687 567 431.687 567 Q447.687 567 464.795 582 Q505.789 646 551.643 709 L757.308 977 Q778.244 1005 809.244 1005 L918.244 1005 Q954.244 1005 965.325 970 Q970.216 955 968.249 941 Q965.298 920 946.768 902 L678.276 621 L919.692 133 Z M244.676 1805 Q240.801 1813 241.784 1820 Q242.628 1826 247.471 1832 Q258.579 1847 274.579 1847 L324.579 1847 Q340.579 1847 347.611 1833 L416.719 1663 L461.719 1663 L580.611 1833 Q591.579 1847 607.579 1847 L657.579 1847 Q673.579 1847 680.471 1832 Q683.628 1826 682.784 1820 Q681.801 1813 675.676 1805 L523.849 1607 Q514.022 1594 498.022 1594 L361.022 1594 Q345.022 1594 338.99 1608 L244.676 1805 Z " />
<glyph glyph-name="uni01EA" unicode="&#x1ea;" horiz-adv-x="1252" d="M641.341 223 Q804.341 223 920.124 378 Q1026.08 520 1057.7 745 Q1087.5 957 1022.31 1098 Q949.8 1258 784.8 1258 Q622.8 1258 504.876 1102 Q399.06 961 367.438 736 Q335.957 512 404.281 372 Q479.341 223 641.341 223 Z M642.919 35 L599.919 35 Q339.919 35 212.605 232 Q87.8704 426 130.454 729 Q174.725 1044 365.833 1244 Q556.222 1446 819.222 1446 Q1086.22 1446 1214.97 1245 Q1336.99 1053 1295.11 755 Q1247.89 419 1055.62 225 Q929.492 96 754.449 53 L751.497 32 Q742.643 -31 773.881 -72 Q807.697 -116 872.697 -116 Q894.697 -116 916.119 -113 Q919.259 -112 921.259 -112 Q929.259 -112 934.697 -116 Q942.854 -122 945.308 -133 L951.843 -179 Q952.14 -184 951.438 -189 Q950.735 -194 948.173 -198 Q942.768 -208 932.065 -213 Q860.427 -246 781.427 -246 Q688.427 -246 646.032 -199 Q602.638 -152 616.13 -56 Q620.908 -22 642.919 35 Z " />
<glyph glyph-name="uni01EB" unicode="&#x1eb;" horiz-adv-x="1029" d="M800.897 476 Q808.114 506 812.33 536 Q824.838 625 811.519 701 Q787.054 840 679.271 870 Q649.535 879 622.535 879 Q519.535 879 443.076 769 Q371.881 668 352.346 529 Q335.2 407 362.692 318 Q402.265 194 515.719 183 Q525.578 182 535.578 182 Q637.578 182 714.211 279 Q775.454 359 800.897 476 Z M648.308 52 Q572.919 35 519.497 32 Q505.357 31 493.357 31 Q322.357 31 213.395 138 Q85.3839 266 109.13 499 Q110.097 513 111.924 526 Q142.703 745 298.957 882 Q448.508 1014 643.773 1023 Q657.914 1024 669.914 1024 Q845.914 1024 955.314 913 Q1085.48 779 1051.89 540 Q1019.29 308 856.611 168 Q818.114 136 773.038 107 Q753.854 63 749.076 29 Q740.222 -34 771.459 -75 Q805.276 -119 870.276 -119 Q892.276 -119 913.697 -116 Q916.838 -115 918.838 -115 Q926.838 -115 932.276 -119 Q940.432 -125 942.886 -136 L949.422 -182 Q949.719 -187 949.016 -192 Q948.313 -197 945.751 -201 Q940.346 -211 929.643 -216 Q858.005 -249 779.005 -249 Q686.005 -249 643.611 -202 Q600.216 -155 613.708 -59 Q619.47 -18 648.308 52 Z " />
<glyph glyph-name="aeacute" unicode="&#x1fd;" horiz-adv-x="1451" d="M924.26 1368 Q944.476 1398 978.476 1398 L1012.48 1398 Q1048.48 1398 1059.56 1363 Q1065.31 1347 1063.48 1334 Q1060.67 1314 1043 1295 L928.011 1167 Q907.919 1145 879.919 1145 L873.919 1145 Q840.919 1145 828.276 1176 Q821.525 1192 823.633 1207 Q825.881 1223 837.13 1239 L924.26 1368 Z M909.952 761 Q912.643 709 906.211 649 Q930.697 624 962.697 624 L1201.7 624 Q1243.7 624 1272.48 658 Q1294.71 681 1298.64 709 Q1300.05 719 1299.45 729 Q1295.57 801 1260.04 847 Q1213.19 905 1126.19 905 Q1046.19 905 982.6 851 Q940.822 817 909.952 761 Z M637.784 340 Q626.465 416 637.238 514 Q612.049 534 585.049 534 L582.049 534 Q454.206 528 366.022 484 Q251.292 429 237.378 330 Q226.557 253 298.514 210 Q353.016 178 423.016 178 Q489.016 178 547.919 220 Q604.541 260 634.957 327 L635.097 328 Q636.66 332 637.784 340 Z M823.243 80 Q811.135 65 806.573 61 Q787.043 43 760.903 42 L679.622 40 Q654.622 40 638.432 60 Q623.962 78 627.476 103 L633.8 148 L574.8 148 Q512.103 79 443.887 49 Q377.811 20 308.811 20 L299.811 20 Q173.373 24 108.178 108 Q45.5622 189 61.7244 304 Q86.4596 480 234.67 574 Q383.6 666 629.741 667 Q678.741 667 685.768 717 Q695.325 785 658.508 829 Q612.519 886 499.519 886 Q407.519 886 309.741 852 Q297.179 848 287.179 848 Q274.179 848 262.022 854 Q240.989 868 237.784 895 L236.611 908 Q234.876 917 236.281 927 Q238.389 942 247.357 956 Q260.449 978 283.573 986 Q420.741 1037 573.741 1037 Q756.741 1037 849.125 933 Q990.568 1050 1164.57 1050 Q1363.57 1050 1447.77 902 Q1520.36 771 1491.55 566 Q1489.44 551 1486.05 534 Q1480.39 508 1460.87 490 Q1442.48 473 1419.48 473 L947.476 473 Q909.476 473 878.26 443 L861.957 327 Q892.805 269 956.449 238 Q1023.81 205 1116.81 205 Q1213.81 205 1300.34 223 Q1307.62 225 1312.62 225 Q1329.62 225 1343.08 214 Q1361.97 199 1362.45 174 L1362.96 142 Q1363.83 134 1362.99 128 Q1360.46 110 1349.35 95 Q1333.54 75 1310.42 67 Q1189.92 35 1049.92 35 Q923.919 35 823.243 80 Z " />
<glyph glyph-name="oslashacute" unicode="&#x1ff;" horiz-adv-x="1015" d="M755.033 1651 Q775.249 1681 809.249 1681 L843.249 1681 Q879.249 1681 890.33 1646 Q896.082 1630 894.255 1617 Q891.444 1597 873.773 1578 L758.784 1450 Q738.692 1428 710.692 1428 L704.692 1428 Q671.692 1428 659.049 1459 Q652.298 1475 654.406 1490 Q656.654 1506 667.903 1522 L755.033 1651 Z M311.697 69 Q253.054 100 213.395 138 Q85.3839 266 109.13 499 Q110.097 513 111.924 526 Q142.703 745 298.957 882 Q448.508 1014 643.773 1023 Q658.914 1024 673.914 1024 Q687.914 1024 713.633 1022 L796.46 1220 Q805.13 1239 822.957 1252 Q839.644 1264 859.644 1264 L868.644 1264 Q897.644 1264 912.13 1239 Q921.741 1222 918.93 1202 Q917.665 1193 914.26 1183 L833.698 994 Q907.2 962 955.314 913 Q1085.48 779 1051.89 540 Q1019.29 308 856.611 168 Q708.762 41 519.497 32 Q505.357 31 493.357 31 Q467.357 31 429.919 35 L345.951 -164 Q337.281 -183 320.595 -195 Q302.768 -208 283.768 -208 L273.768 -208 Q244.768 -208 230.281 -183 Q220.67 -166 223.481 -146 Q224.746 -137 228.151 -127 L311.697 69 Z M761.525 822 L494.562 189 Q512.719 183 515.719 183 Q525.578 182 535.578 182 Q637.578 182 714.211 279 Q775.454 359 800.897 476 Q808.114 506 812.33 536 Q824.838 625 811.519 701 Q800.67 759 761.525 822 Z M389.697 254 L653.395 878 L621.395 878 Q519.395 878 443.076 769 Q371.881 668 352.346 529 Q335.2 407 362.692 318 Q369.162 300 389.697 254 Z " />
<glyph glyph-name="uni0237" unicode="&#x237;" horiz-adv-x="421" d="M407.962 1003 Q430.962 1003 445.433 985 Q459.903 967 456.249 941 L343.114 136 Q300.389 -168 157.681 -294 Q53.7512 -386 -119.06 -406 Q-123.2 -407 -127.2 -407 Q-145.2 -407 -157.514 -395 Q-175.124 -378 -173.47 -352 L-172.914 -284 L-171.789 -276 Q-168.838 -255 -155.589 -239 Q-139.919 -220 -118.935 -213 Q-43.2649 -194 4.19996 -148 Q50.3838 -104 76.0486 -21 Q100.87 56 122.935 213 L225.249 941 Q228.903 967 249.433 985 Q268.962 1003 291.962 1003 L407.962 1003 Z " />
<glyph glyph-name="circumflex" unicode="&#x2c6;" horiz-adv-x="527" d="M658.946 1195 Q663.541 1185 662.276 1176 Q661.292 1169 655.168 1161 Q642.779 1144 623.779 1144 L573.779 1144 Q553.779 1144 548.168 1161 L478.779 1329 L438.779 1329 L322.168 1161 Q309.779 1144 290.779 1144 L240.779 1144 Q221.779 1144 214.308 1162 Q210.433 1170 211.417 1177 Q212.541 1185 219.946 1195 L370.633 1392 Q382.741 1407 401.741 1407 L537.741 1407 Q555.741 1407 564.492 1391 L658.946 1195 Z " />
<glyph glyph-name="caron" unicode="&#x2c7;" horiz-adv-x="506" d="M242.433 1355 Q237.557 1363 238.822 1372 Q239.806 1379 245.93 1387 Q258.319 1404 277.319 1404 L327.319 1404 Q346.319 1404 353.93 1387 L422.46 1220 L461.46 1220 L578.93 1387 Q591.319 1404 610.319 1404 L660.319 1404 Q679.319 1404 686.93 1387 Q690.806 1379 689.822 1372 Q688.557 1363 681.433 1355 L530.465 1156 Q518.357 1141 499.357 1141 L362.357 1141 Q344.357 1141 336.606 1157 L242.433 1355 Z " />
<glyph glyph-name="uni02C9" unicode="&#x2c9;" horiz-adv-x="447" d="M632.092 1317 Q630.125 1303 619.719 1293 Q608.454 1284 594.454 1284 L213.454 1284 Q199.454 1284 190.719 1293 Q183.125 1303 185.092 1317 L192.541 1370 Q194.368 1383 204.773 1393 Q216.179 1403 230.179 1403 L611.179 1403 Q625.179 1403 633.773 1393 Q641.368 1383 639.541 1370 L632.092 1317 Z " />
<glyph glyph-name="breve" unicode="&#x2d8;" horiz-adv-x="497" d="M275.179 1403 Q298.179 1403 303.087 1381 Q323.908 1273 424.908 1273 Q536.908 1273 584.946 1380 Q589.352 1390 599.336 1397 Q608.179 1403 620.179 1403 L658.179 1403 Q673.179 1403 681.492 1391 Q688.087 1381 686.681 1371 Q686.26 1368 684.838 1365 Q655.346 1269 584.898 1216 Q514.168 1161 411.168 1161 Q308.168 1161 251.179 1218 Q198.346 1269 195.838 1365 Q195.4 1369 195.822 1372 Q197.227 1382 205.492 1391 Q217.179 1403 232.179 1403 L275.179 1403 Z " />
<glyph glyph-name="dotaccent" unicode="&#x2d9;" horiz-adv-x="222" d="M275.871 1166 Q228.871 1166 201.79 1201 Q173.708 1236 180.595 1285 Q188.044 1338 224.822 1372 Q262.6 1406 311.6 1406 Q357.6 1406 382.822 1372 Q410.044 1338 402.595 1285 Q395.708 1236 358.649 1200 Q322.871 1166 277.871 1166 L275.871 1166 Z " />
<glyph glyph-name="ring" unicode="&#x2da;" horiz-adv-x="360" d="M339.39 1127 Q391.39 1127 427.871 1166 Q460.368 1198 467.395 1248 Q474.141 1296 451.779 1329 Q426.4 1369 373.4 1369 L371.4 1369 Q320.4 1369 284.638 1328 Q253.141 1296 246.114 1246 Q239.649 1200 262.871 1166 Q290.39 1127 339.39 1127 Z M381.881 1408 Q466.881 1408 507.417 1362 Q545.373 1319 535.395 1248 Q525.557 1178 472.514 1135 Q417.908 1088 335.908 1088 Q250.908 1088 206.514 1135 Q165.417 1177 175.114 1246 Q184.952 1316 237.276 1361 Q292.881 1408 380.881 1408 L381.881 1408 Z " />
<glyph glyph-name="ogonek" unicode="&#x2db;" horiz-adv-x="366" d="M312.811 -350 Q314.108 -355 313.265 -361 Q312.422 -367 309.719 -372 Q302.032 -384 291.33 -389 Q217.551 -423 137.551 -423 Q42.5512 -423 -0.702813 -375 Q-45.8163 -326 -32.0433 -228 Q-25.1568 -179 1.99456 -121 Q22.3189 -76 51.5027 -32 Q62.8919 -15 82.8919 -15 L113.892 -15 Q131.892 -15 139.065 -28 Q143.8 -37 142.395 -47 Q141.411 -54 138.708 -59 Q118.665 -102 113.324 -140 Q104.751 -201 135.13 -241 Q168.227 -283 230.227 -283 Q252.227 -283 272.649 -280 Q275.789 -279 278.789 -279 Q288.789 -279 295.086 -284 Q304.103 -291 306.276 -304 L312.811 -350 Z " />
<glyph glyph-name="tilde" unicode="&#x2dc;" horiz-adv-x="518" d="M200.4 1184 Q186.4 1184 177.946 1195 Q170.352 1205 172.179 1218 L172.6 1221 Q193.249 1311 239.276 1361 Q280.179 1403 333.179 1403 Q361.179 1403 390.492 1391 Q402.79 1386 417.806 1379 L444.557 1363 L455.714 1357 L465.871 1351 Q478.465 1341 486.763 1336 Q514.514 1320 538.514 1320 Q597.514 1320 622.93 1387 Q627.617 1399 636.6 1406 Q646.584 1413 658.584 1413 L682.584 1413 Q697.584 1413 706.179 1403 Q712.773 1393 711.087 1381 L710.665 1378 Q673.79 1201 549.79 1201 Q518.79 1201 486.617 1214 Q475.179 1218 460.444 1227 L429.692 1243 Q370.892 1280 343.892 1280 Q289.892 1280 262.914 1209 Q258.368 1198 249.384 1191 Q239.4 1184 227.4 1184 L200.4 1184 Z " />
<glyph glyph-name="endash" unicode="&#x2013;" horiz-adv-x="822" d="M922.346 714 Q918.692 688 898.303 671 Q877.633 652 851.633 652 L153.633 652 Q127.633 652 113.303 671 Q96.6921 688 100.346 714 L101.189 720 Q104.843 746 126.373 764 Q145.903 782 171.903 782 L869.903 782 Q895.903 782 911.373 764 Q926.843 746 923.189 720 L922.346 714 Z " />
<glyph glyph-name="emdash" unicode="&#x2014;" horiz-adv-x="1835" d="M1882.9 782 Q1909.9 782 1924.51 765 Q1939.84 746 1936.19 720 L1935.35 714 Q1931.69 688 1911.16 670 Q1891.63 652 1864.63 652 L153.633 652 Q127.633 652 113.303 671 Q96.6921 688 100.346 714 L101.189 720 Q104.843 746 126.373 764 Q145.903 782 171.903 782 L1882.9 782 Z " />
<glyph glyph-name="quoteleft" unicode="&#x2018;" horiz-adv-x="305" d="M344.163 1410 Q324.163 1410 317.692 1428 L239.238 1624 Q235.503 1633 236.768 1642 Q237.892 1650 243.017 1658 Q255.125 1673 275.125 1673 L348.125 1673 Q365.125 1673 373.298 1660 L495.752 1464 Q502.346 1454 500.941 1444 Q499.817 1436 494.692 1428 Q483.163 1410 462.163 1410 L344.163 1410 Z " />
<glyph glyph-name="quoteright" unicode="&#x2019;" horiz-adv-x="305" d="M499.844 1671 Q519.844 1671 526.314 1653 Q529.19 1645 528.065 1637 Q526.66 1627 518.395 1618 L339.709 1421 Q327.881 1408 311.881 1408 L237.881 1408 Q219.881 1408 211.13 1424 Q207.395 1433 208.519 1441 Q209.503 1448 215.627 1456 L350.595 1655 Q360.844 1671 380.844 1671 L499.844 1671 Z " />
<glyph glyph-name="quotesinglbase" unicode="&#x201a;" horiz-adv-x="305" d="M288.47 167 Q308.47 167 314.941 149 Q317.816 141 316.692 133 Q315.287 123 307.022 114 L128.335 -83 Q116.508 -96 100.508 -96 L26.5081 -96 Q8.50808 -96 -0.243267 -80 Q-3.9784 -71 -2.85407 -63 Q-1.87029 -56 4.25404 -48 L139.222 151 Q149.47 167 169.47 167 L288.47 167 Z " />
<glyph glyph-name="quotedblleft" unicode="&#x201c;" horiz-adv-x="656" d="M499.703 1670 Q519.703 1670 527.595 1655 Q530.471 1647 529.346 1639 Q528.082 1630 521.817 1621 L388.271 1425 Q376.741 1407 356.741 1407 L238.741 1407 Q217.741 1407 211.271 1425 Q208.395 1433 209.519 1441 Q210.925 1451 220.33 1461 L397.876 1657 Q409.703 1670 426.703 1670 L499.703 1670 Z M851.703 1670 Q870.703 1670 878.595 1655 Q881.471 1647 880.346 1639 Q879.082 1630 872.817 1621 L739.271 1425 Q727.741 1407 707.741 1407 L589.741 1407 Q568.741 1407 562.271 1425 Q559.395 1433 560.519 1441 Q561.925 1451 571.33 1461 L749.876 1657 Q761.703 1670 776.703 1670 L851.703 1670 Z " />
<glyph glyph-name="quotedblright" unicode="&#x201d;" horiz-adv-x="656" d="M589.303 1411 Q571.303 1411 562.552 1427 Q558.817 1436 559.941 1444 Q560.925 1451 567.049 1459 L701.876 1657 Q713.265 1674 732.265 1674 L851.265 1674 Q871.265 1674 877.736 1656 Q880.611 1648 879.487 1640 Q878.082 1630 869.817 1621 L691.13 1424 Q679.303 1411 663.303 1411 L589.303 1411 Z M238.303 1411 Q220.303 1411 211.552 1427 Q207.817 1436 208.941 1444 Q209.925 1451 216.049 1459 L351.017 1658 Q361.265 1674 381.265 1674 L500.265 1674 Q520.265 1674 526.736 1656 Q529.611 1648 528.487 1640 Q527.082 1630 518.817 1621 L340.13 1424 Q328.303 1411 312.303 1411 L238.303 1411 Z " />
<glyph glyph-name="quotedblbase" unicode="&#x201e;" horiz-adv-x="656" d="M377.508 -96 Q359.508 -96 350.757 -80 Q347.022 -71 348.146 -63 Q349.13 -56 355.254 -48 L490.081 150 Q501.47 167 520.47 167 L639.47 167 Q659.47 167 665.941 149 Q668.816 141 667.692 133 Q666.287 123 658.022 114 L479.335 -83 Q467.508 -96 451.508 -96 L377.508 -96 Z M26.5081 -96 Q8.50808 -96 -0.243267 -80 Q-3.9784 -71 -2.85407 -63 Q-1.87029 -56 4.25404 -48 L139.222 151 Q149.47 167 169.47 167 L288.47 167 Q308.47 167 314.941 149 Q317.816 141 316.692 133 Q315.287 123 307.022 114 L128.335 -83 Q116.508 -96 100.508 -96 L26.5081 -96 Z " />
<glyph glyph-name="bullet" unicode="&#x2022;" horiz-adv-x="344" d="M100.908 718 Q111.027 790 168.484 839.5 Q225.941 889 297.941 889 Q368.941 889 411.914 839 Q454.887 789 444.908 718 Q434.93 647 377.262 596 Q319.595 545 248.595 545 Q175.595 545 133.192 595.5 Q90.7894 646 100.908 718 Z " />
<glyph glyph-name="ellipsis" unicode="&#x2026;" horiz-adv-x="1647" d="M1474.51 -160 Q1412.51 -160 1378.56 -117 Q1344.16 -70 1354.14 1 Q1364.54 75 1412.86 120 Q1458.91 163 1524.91 163 Q1587.91 163 1621.01 121 Q1656.68 76 1647.14 1 Q1637.16 -70 1589.56 -117 Q1543.51 -160 1476.51 -160 L1474.51 -160 Z M797.513 -160 Q735.513 -160 701.557 -117 Q667.162 -70 677.141 1 Q687.541 75 735.865 120 Q781.908 163 847.908 163 Q910.908 163 944.005 121 Q978.681 76 970.141 1 Q960.162 -70 912.557 -117 Q866.513 -160 800.513 -160 L797.513 -160 Z M121.513 -160 Q58.5135 -160 24.5567 -117 Q-9.83786 -70 0.140541 1 Q10.5406 75 58.8649 120 Q104.908 163 170.908 163 Q233.908 163 268.005 121 Q301.681 76 293.141 1 Q283.162 -70 235.557 -117 Q189.513 -160 123.513 -160 L121.513 -160 Z " />
<glyph glyph-name="guilsinglleft" unicode="&#x2039;" horiz-adv-x="329" d="M369.276 436 Q377.027 420 374.919 405 Q372.811 390 360.422 373 Q338.924 341 302.924 341 Q267.924 341 254.281 372 L116.849 682 Q109.379 700 111.627 716 Q114.016 733 126.546 751 L351.254 1062 Q373.611 1093 408.611 1093 Q444.611 1093 458.254 1062 Q465.006 1046 462.898 1031 Q460.649 1015 448.4 999 L270.53 758 Q255.719 738 252.627 716 Q249.676 695 258.725 674 L369.276 436 Z " />
<glyph glyph-name="guilsinglright" unicode="&#x203a;" horiz-adv-x="329" d="M258.725 674 Q273.676 695 276.627 716 Q279.719 738 270.53 758 L160.4 999 Q152.649 1015 154.898 1031 Q157.006 1046 168.254 1062 Q190.611 1093 226.611 1093 Q262.611 1093 276.254 1062 L412.546 751 Q421.016 733 418.627 716 Q416.379 700 402.849 682 L179.281 372 Q156.924 341 120.924 341 Q85.9244 341 71.4217 373 Q64.6704 389 66.638 403 Q68.8866 419 82.2758 436 L258.725 674 Z " />
<glyph glyph-name="&amp;#x2044;" unicode="&#x2044;" horiz-adv-x="795" d="M931.022 1409 Q962.022 1409 974.509 1384 Q980.541 1370 978.573 1356 Q976.746 1343 967.779 1329 L117.887 49 Q98.8108 20 64.8108 20 Q33.8108 20 22.4649 46 Q16.4325 60 18.4 74 Q20.2271 87 29.0541 100 L879.087 1381 Q898.022 1409 931.022 1409 Z " />
<glyph glyph-name="&amp;#x2215;" unicode="&#x2215;" horiz-adv-x="795" d="M931.022 1409 Q962.022 1409 974.509 1384 Q980.541 1370 978.573 1356 Q976.746 1343 967.779 1329 L117.887 49 Q98.8108 20 64.8108 20 Q33.8108 20 22.4649 46 Q16.4325 60 18.4 74 Q20.2271 87 29.0541 100 L879.087 1381 Q898.022 1409 931.022 1409 Z " />
<glyph glyph-name="Euro" unicode="&#x20ac;" horiz-adv-x="1008" d="M955.378 145 Q955.676 140 954.692 133 Q952.724 119 943.757 105 Q929.946 85 907.822 77 Q802.919 35 697.919 35 Q567.919 35 466.07 93 Q361.362 152 304.681 261 Q246.578 367 242.86 554 L143.86 554 Q137.86 554 133.422 558 Q129.984 562 130.968 569 L138.135 620 Q138.979 626 144.541 630 Q149.243 635 155.243 635 L240.243 635 L250.222 706 L255.438 736 L268.135 805 L177.135 805 Q171.135 805 167.838 810 Q163.4 814 164.243 820 L171.411 871 Q172.395 878 177.957 882 Q181.519 886 188.519 886 L291.519 886 Q358.222 1076 462.103 1189 Q551.876 1287 660.465 1341 Q771.914 1394 892.914 1394 Q988.914 1394 1073.98 1366 Q1095.85 1358 1104.9 1337 Q1110.94 1323 1108.83 1308 Q1107.84 1301 1104.72 1293 L1086.27 1240 Q1077.62 1214 1052.65 1200 Q1036.24 1190 1019.24 1190 Q1011.24 1190 1002.52 1192 Q943.914 1209 886.914 1209 Q724.914 1209 611.784 1080 Q560.914 1024 508.519 886 L965.519 886 Q972.519 886 976.957 882 Q980.395 878 979.411 871 L972.243 820 Q971.4 814 965.838 810 Q961.135 805 954.135 805 L482.135 805 Q469.546 751 462.941 704 L453.243 635 L930.243 635 Q937.243 635 940.541 630 Q944.979 626 944.135 620 L936.968 569 Q935.984 562 931.422 558 Q925.86 554 918.86 554 L458.86 554 Q469.622 410 508.049 349 Q585.903 227 757.903 227 Q816.903 227 882.292 244 Q891.573 246 899.573 246 Q916.573 246 931.168 236 Q951.341 223 952.405 195 L955.378 145 Z " />
<glyph glyph-name="uni2116" unicode="&#x2116;" horiz-adv-x="1562" d="M955.73 1350 Q977.73 1350 991.341 1333 Q1004.67 1314 1000.88 1287 L833.773 98 Q829.978 71 811.308 52 Q792.919 35 770.919 35 L635.919 35 Q619.919 35 608.184 44 Q595.589 54 591.119 72 L472.173 542 Q450.541 630 422.779 774 L411.352 835 L400.065 897 Q385.606 972 376.914 1024 Q361.303 1041 346.303 1041 Q308.303 1041 303.103 1004 Q266.335 657 229.654 396 L187.773 98 Q183.978 71 163.449 53 Q144.919 35 122.919 35 L59.9189 35 Q38.9189 35 25.4487 53 Q9.9784 71 13.773 98 L180.876 1287 Q184.53 1313 205.341 1333 Q223.73 1350 244.73 1350 L401.73 1350 Q417.73 1350 429.465 1341 Q441.919 1330 446.53 1313 L558.865 860 Q600.411 686 657.422 373 L723.422 373 Q743.692 688 787.541 1000 L827.876 1287 Q831.53 1313 851.341 1333 Q869.73 1350 891.73 1350 L955.73 1350 Z M1542.02 484 Q1557.02 484 1567.34 472 Q1577.51 459 1574.7 439 Q1572.03 420 1558.2 407 Q1544.51 395 1529.51 395 L1127.51 395 Q1113.51 395 1104.2 407 Q1093.03 420 1095.7 439 Q1098.51 459 1113.34 472 Q1126.02 484 1140.02 484 L1542.02 484 Z M1443.72 1229 Q1367.72 1229 1315.09 1132 Q1278.54 1064 1265.89 974 Q1251.83 874 1277.42 807 Q1306.17 727 1374.17 727 Q1450.17 727 1498.7 809 Q1537.83 874 1552.59 979 Q1565.8 1073 1546.22 1140 Q1519.72 1229 1444.72 1229 L1443.72 1229 Z M1360.52 637 Q1232.52 637 1165.47 722 Q1094.54 815 1116.61 972 Q1139.09 1132 1235.44 1227 Q1329.23 1318 1461.23 1318 L1463.23 1318 Q1593.23 1318 1657.44 1227 Q1721.65 1136 1700.43 985 Q1675.7 809 1575.77 717 Q1487.52 637 1360.52 637 Z " />
<glyph glyph-name="trademark" unicode="&#x2122;" horiz-adv-x="1046" d="M570.141 1666 Q585.141 1666 593.595 1655 Q603.19 1645 601.082 1630 Q598.833 1614 586.427 1604 Q574.882 1593 559.882 1593 L451.882 1593 L395.384 1191 Q393.276 1176 380.871 1166 Q369.325 1155 353.325 1155 L341.325 1155 Q326.325 1155 317.73 1165 Q309.276 1176 311.384 1191 L367.882 1593 L259.882 1593 Q244.882 1593 236.427 1604 Q226.833 1614 229.082 1630 Q231.19 1645 243.595 1655 Q255.141 1666 270.141 1666 L570.141 1666 Z M1250.14 1666 Q1263.14 1666 1269.88 1657 Q1277.75 1649 1276.07 1637 L1211.4 1184 Q1209.71 1172 1199.59 1164 Q1190.32 1155 1178.32 1155 Q1165.32 1155 1158.59 1164 Q1151.57 1171 1152.98 1181 L1185.72 1414 Q1207.52 1562 1217.92 1636 L1142.92 1636 Q1090.77 1457 1070.09 1381 L1007.1 1189 Q1004.7 1179 995.854 1173 Q986.871 1166 975.871 1166 L909.871 1166 Q897.871 1166 891.714 1172 Q884.698 1179 884.244 1190 L874.087 1381 Q875.768 1457 873.925 1636 L799.925 1636 L768.725 1414 Q760.995 1359 752.298 1290 L737.4 1184 Q735.714 1172 725.59 1164 Q716.325 1155 703.325 1155 Q691.325 1155 684.59 1164 Q676.714 1172 678.4 1184 L742.065 1637 Q743.752 1649 753.017 1658 Q762.141 1666 774.141 1666 L898.141 1666 Q908.141 1666 916.157 1659 Q922.455 1654 922.909 1643 L930.979 1551 Q934.827 1493 935.763 1336 L998.763 1336 Q1041.97 1494 1061.98 1551 L1094.77 1642 Q1100.31 1653 1108.16 1659 Q1118.14 1666 1128.14 1666 L1250.14 1666 Z " />
<glyph glyph-name="partialdiff" unicode="&#x2202;" horiz-adv-x="895" d="M713.692 503 Q724.908 533 729.124 563 Q738.962 633 706.395 693 Q659.043 783 557.465 786 L551.465 786 Q448.465 786 369.833 689 Q297.465 601 279.476 473 Q263.595 360 306.319 294 Q349.622 225 435.622 225 L437.622 225 Q523.622 225 602.989 313 Q671.389 387 713.692 503 Z M593.276 1546 Q701.276 1546 788.249 1496 Q875.222 1446 932.292 1354 Q1056.62 1150 1009.54 815 Q957.26 443 768.043 228 Q684.832 134 582.805 84 Q483.919 35 378.919 35 Q201.919 35 117.016 178 Q42.7244 304 66.7569 475 Q96.5516 687 221.087 826 Q345.622 965 511.622 965 Q598.622 965 661.876 917 Q712.395 878 742.135 805 L799.135 805 L809.114 876 Q837.925 1081 764.476 1213 Q689.292 1354 529.292 1354 Q432.292 1354 341.092 1317 Q331.53 1313 321.53 1313 Q311.53 1313 301.233 1318 Q283.498 1327 277.871 1351 L267.773 1393 Q264.6 1406 266.287 1418 Q267.833 1429 273.519 1441 Q283.752 1464 305.157 1474 Q366.514 1505 429.184 1524 Q510.276 1546 593.276 1546 Z " />
<glyph glyph-name="Delta" unicode="&#x2206;" horiz-adv-x="949" d="M591.184 229 Q655.184 229 700.773 283 Q730.833 319 736.735 361 Q739.406 380 736.216 400 L686.589 794 Q679.098 883 673.2 962 Q665.098 1068 661.53 1128 Q658.027 1160 626.027 1160 Q595.027 1160 582.53 1128 Q561.395 1063 530.449 978 Q494.973 875 471.26 813 L306.076 399 Q297.265 379 294.595 360 Q288.692 318 309.633 282 Q339.184 229 402.184 229 L591.184 229 Z M971.346 159 L962.914 99 Q959.119 72 939.308 52 Q920.919 35 897.919 35 L60.9189 35 Q38.9189 35 25.3081 52 Q10.1189 72 13.9135 99 L22.0649 157 L507.687 1307 Q516.498 1327 534.184 1339 Q551.011 1352 568.011 1352 L772.011 1352 Q789.011 1352 802.184 1339 Q816.498 1327 819.687 1307 L971.346 159 Z " />
<glyph glyph-name="product" unicode="&#x220f;" horiz-adv-x="1122" d="M1286.29 1539 Q1306.29 1539 1319.9 1522 Q1333.51 1505 1330 1480 L1319.04 1402 Q1315.67 1378 1296.99 1359 Q1279.75 1343 1258.75 1343 Q1208.75 1343 1166.27 1304 Q1127.07 1267 1119.62 1214 L962.351 95 Q958.697 69 940.168 51 Q922.919 35 901.919 35 L813.919 35 Q792.919 35 780.168 51 Q766.697 69 770.351 95 L927.617 1214 Q935.065 1267 906.265 1304 Q874.746 1343 824.746 1343 L675.746 1343 Q623.746 1343 583.265 1304 Q543.065 1267 535.617 1214 L378.351 95 Q374.697 69 356.168 51 Q338.919 35 318.919 35 L229.919 35 Q207.919 35 196.027 50 Q182.697 69 186.351 95 L343.617 1214 Q351.065 1267 322.125 1303 Q292.746 1343 240.746 1343 Q219.746 1343 206.995 1359 Q193.665 1378 197.038 1402 L208 1480 Q211.514 1505 230.044 1523 Q247.292 1539 268.292 1539 L1286.29 1539 Z " />
<glyph glyph-name="summation" unicode="&#x2211;" horiz-adv-x="904" d="M882.465 231 Q904.465 231 918.076 214 Q931.405 195 927.751 169 L917.632 97 Q913.978 71 895.308 52 Q876.919 35 854.919 35 L59.9189 35 Q38.9189 35 24.4487 53 Q9.9784 71 13.6325 97 L24.173 172 L458.081 705 Q485.719 738 491.762 781 L492.184 784 Q497.946 825 478.584 858 L213.103 1374 L227.438 1476 Q231.233 1503 251.903 1522 Q270.292 1539 291.292 1539 L1016.29 1539 Q1038.29 1539 1051.04 1523 Q1065.23 1503 1061.44 1476 L1051.6 1406 Q1047.81 1379 1027.99 1359 Q1010.75 1343 988.746 1343 L538.746 1343 Q497.746 1343 491.984 1302 Q490.438 1291 494.892 1280 L722.93 832 Q732.4 814 729.589 794 Q725.638 773 712.249 756 L338.319 294 Q330.773 283 329.227 272 Q323.465 231 364.465 231 L882.465 231 Z " />
<glyph glyph-name="minus" unicode="&#x2212;" horiz-adv-x="832" d="M875.887 789 Q903.887 789 921.216 770 Q937.406 750 933.47 722 L932.627 716 Q928.692 688 907.022 669 Q884.211 649 856.211 649 L158.211 649 Q130.211 649 114.022 669 Q96.6921 688 100.627 716 L101.47 722 Q105.406 750 128.216 770 Q149.887 789 177.887 789 L875.887 789 Z " />
<glyph glyph-name="radical" unicode="&#x221a;" horiz-adv-x="1022" d="M1236.98 1672 Q1244.98 1672 1249.14 1666 Q1252.44 1661 1251.31 1653 Q1250.89 1650 1249.33 1646 L586.908 -207 Q584.924 -214 579.222 -219 Q574.8 -222 568.8 -222 L449.8 -222 Q438.8 -222 435.627 -209 L263.179 663 L125.887 604 Q122.746 603 120.746 603 Q117.746 603 115.027 605 Q107.449 608 106.714 617 L96.4597 665 Q96.0218 669 96.3029 671 Q96.8651 675 100.708 681 Q104.973 690 111.395 693 L368.135 805 Q371.416 807 373.416 807 Q375.416 807 378.135 805 Q385.714 802 386.449 793 L488.076 214 Q495.314 173 500.287 123 Q502.476 103 504.384 81 Q505.135 65 511.53 18 L559.53 18 L572.168 51 L575.714 62 Q578.119 72 581.103 79 Q588.757 105 594.568 125 Q612.016 178 628.341 223 L1126.88 1657 Q1129 1665 1134.42 1668 Q1138.98 1672 1143.98 1672 L1236.98 1672 Z " />
<glyph glyph-name="infinity" unicode="&#x221e;" horiz-adv-x="1226" d="M1018.5 523 Q1089.5 523 1147.79 582 Q1203.95 640 1214.77 717 Q1226.29 799 1188.16 855 Q1148.17 912 1077.17 912 Q1016.17 912 948.849 867 Q906.914 839 843.481 779 Q816.968 754 812.189 720 Q807.411 686 825.897 661 Q845.822 632 860.292 614 Q882.779 589 902.249 571 Q956.503 523 1016.5 523 L1018.5 523 Z M352.503 523 Q411.503 523 478.687 567 Q520.762 596 585.335 657 Q610.849 682 615.487 715 Q620.125 748 603.779 774 Q581.854 803 567.103 819 Q546.898 846 525.427 864 Q471.173 912 411.173 912 Q338.173 912 279.881 853 Q223.73 795 212.768 717 Q201.384 636 240.373 579 Q280.503 523 350.503 523 L352.503 523 Z M1000.79 397 Q922.795 397 847.789 461 Q816.443 487 782.206 528 Q760.86 554 700.962 633 L629.546 566 L588.065 527 Q542.162 485 505.789 461 Q413.795 397 320.795 397 Q203.795 397 143.443 487 Q80.9515 576 100.768 717 Q119.741 852 209.53 943 Q302.881 1038 424.881 1038 Q503.881 1038 579.746 973 Q611.092 947 645.33 906 Q665.816 881 726.573 801 L798.13 869 L839.611 908 Q885.373 949 921.887 974 Q1014.88 1038 1107.88 1038 Q1223.88 1038 1284.09 947 Q1346.58 858 1326.77 717 Q1307.94 583 1218.01 491 Q1124.79 397 1002.79 397 L1000.79 397 Z " />
<glyph glyph-name="integral" unicode="&#x222b;" horiz-adv-x="550" d="M746.687 1677 Q762.546 1676 771.438 1661 Q779.033 1651 777.487 1640 Q777.065 1637 775.644 1634 L761.476 1583 Q758.509 1569 745.103 1559 L720.433 1540 Q710.573 1541 701.573 1541 Q630.573 1541 586.017 1473 Q531.773 1393 496.498 1142 Q474.573 986 445.708 681 Q431.768 532 423.103 449 Q408.411 316 391.546 196 Q355.708 -59 279.843 -179 Q233.443 -253 169.384 -289 Q112.746 -322 44.7459 -322 Q16.7459 -322 -8.69199 -318 Q-24.4109 -316 -32.4433 -302 Q-38.8974 -291 -37.0704 -278 Q-36.7893 -276 -35.3676 -273 L-17.0757 -214 Q-13.1082 -200 -1.8433 -191 Q12.5621 -181 28.5621 -181 L37.5621 -181 Q102.562 -181 155.416 -118 Q218.8 -37 250.422 188 Q267.427 309 282.822 447 Q291.908 533 306.411 686 Q335.838 995 359.308 1162 Q382.357 1326 424.254 1432 Q462.606 1527 526.163 1595 Q604.828 1678 720.828 1678 Q732.828 1678 746.687 1677 Z " />
<glyph glyph-name="uni222E" unicode="&#x222e;" horiz-adv-x="946" d="M535.935 953 Q467.438 921 428.973 875 Q359.308 792 343.427 679 Q329.514 580 360.395 508 Q392.135 435 482.497 402 Q484.416 437 485.822 447 Q494.908 533 509.411 686 Q522.525 822 535.935 953 Z M675.935 953 Q662.384 821 648.708 681 Q634.768 532 626.103 449 L621.043 413 Q680.4 444 711.038 477 Q770.033 541 793.384 636 Q799.897 661 803.27 685 Q813.389 757 798.103 819 Q774.033 911 675.935 953 Z M549.676 1065 Q556.968 1124 562.308 1162 Q585.357 1326 627.254 1432 Q665.606 1527 729.163 1595 Q807.828 1678 923.828 1678 Q935.828 1678 949.687 1677 Q965.546 1676 974.438 1661 Q982.033 1651 980.487 1640 Q980.065 1637 978.644 1634 L964.476 1583 Q961.509 1569 948.103 1559 L923.433 1540 Q913.573 1541 904.573 1541 Q833.573 1541 789.017 1473 Q734.773 1393 699.498 1142 L689.379 1070 Q843.552 1057 936.152 983 Q1069.25 877 1042.69 688 Q1016.97 505 859.373 394 Q752.692 318 608.178 293 L594.546 196 Q558.708 -59 482.843 -179 Q436.443 -253 372.384 -289 Q315.746 -322 247.746 -322 Q219.746 -322 194.308 -318 Q178.589 -316 170.557 -302 Q164.103 -291 165.93 -278 Q166.211 -276 167.632 -273 L185.924 -214 Q189.892 -200 201.157 -191 Q215.562 -181 231.562 -181 L240.562 -181 Q305.562 -181 358.416 -118 Q421.8 -37 453.422 188 L467.054 285 Q311.6 296 215 370 Q84.1947 471 101.054 655 Q101.6 666 103.006 676 Q127.46 850 277.638 958 Q392.303 1041 549.676 1065 Z " />
<glyph glyph-name="approxequal" unicode="&#x2248;" horiz-adv-x="945" d="M120.292 799 Q114.838 810 116.946 825 L117.508 829 Q119.757 845 132.584 858 Q262.119 997 398.119 997 Q457.119 997 511.746 973 Q531.481 964 556.373 949 L578.406 935 L600.719 923 L619.173 912 L638.487 900 Q666.379 885 684.254 877 Q744.179 848 804.179 848 Q888.179 848 976.86 924 Q993.827 938 1012.83 938 L1017.83 938 Q1039.69 937 1051.02 918 L1056.17 912 Q1064.35 899 1063.82 881 Q1061.43 864 1049.46 850 Q992.325 785 927.265 749 Q855.784 710 786.784 710 Q729.784 710 673.298 735 Q653.422 743 626.67 759 L602.498 772 Q591.341 778 583.184 784 L561.589 794 L543.135 805 Q515.525 822 497.649 830 Q437.725 859 376.725 859 Q289.725 859 199.465 786 Q183.638 773 164.638 773 L157.638 773 Q134.919 775 122.871 796 L120.292 799 Z M996.492 466 Q1005.52 452 1004.14 435 L1003.29 429 Q1001.32 415 990.638 403 Q932.941 334 864.6 296 Q793.119 257 723.119 257 Q667.119 257 610.633 282 Q590.757 290 564.005 306 L541.692 318 Q528.816 326 520.378 330 L501.065 342 L480.611 353 Q453.86 369 434.984 377 Q375.06 406 311.06 406 Q229.06 406 140.081 335 Q122.114 321 103.114 321 L96.1136 321 Q74.5352 324 63.346 344 L60.9082 348 Q54.5947 360 56.8434 376 L57.265 379 Q59.6542 396 71.4812 409 Q128.054 470 195.114 506 Q266.454 544 334.454 544 Q393.454 544 449.081 520 Q468.676 510 495.568 495 L516.741 482 L538.054 470 L558.508 459 L576.822 447 Q604.714 432 623.449 423 Q682.514 395 742.514 395 Q832.514 395 921.914 469 Q937.881 483 957.881 483 L962.881 483 Q984.741 482 996.492 466 Z " />
<glyph glyph-name="notequal" unicode="&#x2260;" horiz-adv-x="900" d="M242.73 55 Q226.216 30 197.216 30 L196.216 30 Q168.216 30 157.589 54 Q151.416 67 153.103 79 Q154.649 90 163.335 102 L186.832 134 Q199.643 154 202.032 171 Q204.843 191 195.232 208 Q179.433 245 137.433 245 L102.433 245 Q73.4325 245 57.2433 265 Q39.9136 284 43.9893 313 L44.1298 314 Q48.2055 343 71.0163 363 Q92.6866 382 121.687 382 L317.687 382 Q361.687 382 388.027 420 L503.497 587 Q514.746 603 517.276 621 Q519.946 640 511.616 659 Q494.816 696 452.816 696 L165.816 696 Q136.816 696 120.487 715 Q103.298 735 107.373 764 L107.514 765 Q111.589 794 134.4 814 Q156.211 834 185.211 834 L632.211 834 Q676.211 834 702.692 873 L804.773 1023 Q821.427 1049 850.427 1049 Q878.427 1049 889.054 1025 Q895.227 1012 893.541 1000 Q891.995 989 883.308 977 L859.671 944 Q847.141 926 844.471 907 Q841.8 888 851.411 871 Q867.211 834 909.211 834 L948.211 834 Q977.211 834 994.4 814 Q1011.59 794 1007.51 765 L1007.37 764 Q1003.3 735 980.487 715 Q957.816 696 928.816 696 L729.816 696 Q685.816 696 659.476 658 L544.287 493 Q531.757 475 529.087 456 Q526.416 437 533.887 419 Q551.687 382 592.687 382 L884.687 382 Q913.687 382 931.016 363 Q948.206 343 944.13 314 L943.989 313 Q939.914 284 917.243 265 Q894.433 245 865.433 245 L415.433 245 Q371.433 245 344.092 207 L242.73 55 Z " />
<glyph glyph-name="lessequal" unicode="&#x2264;" horiz-adv-x="833" d="M789.784 155 Q816.784 155 832.254 137 Q846.724 119 842.93 92 Q839.276 66 819.746 48 Q799.216 30 772.216 30 L69.2162 30 Q42.2162 30 26.746 48 Q11.2757 66 14.9298 92 Q18.7244 119 39.2541 137 Q59.7838 155 86.7838 155 L789.784 155 Z M853.93 462 Q872.946 455 883.416 437 Q892.027 420 888.935 398 L888.795 397 Q883.595 360 848.784 340 Q830.097 328 811.097 328 Q798.097 328 784.941 334 L130.119 627 Q112.384 636 102.773 653 Q94.1624 670 96.9732 690 L105.968 754 Q108.779 774 122.308 792 Q136.698 809 156.822 817 L892.86 1109 Q906.562 1114 919.562 1114 Q938.562 1114 954.876 1102 Q982.065 1082 976.865 1045 Q973.914 1024 960.384 1006 Q945.995 989 926.011 982 L305.546 751 Q284.141 741 281.33 721 Q278.519 701 297.114 691 L853.93 462 Z " />
<glyph glyph-name="greaterequal" unicode="&#x2265;" horiz-adv-x="833" d="M789.784 155 Q816.784 155 832.254 137 Q846.724 119 842.93 92 Q839.276 66 819.746 48 Q799.216 30 772.216 30 L69.2162 30 Q42.2162 30 26.746 48 Q11.2757 66 14.9298 92 Q18.7244 119 39.2541 137 Q59.7838 155 86.7838 155 L789.784 155 Z M904.681 816 Q923.698 809 932.308 792 Q941.779 774 938.968 754 L929.973 690 Q927.162 670 912.773 653 Q899.384 636 878.119 627 L141.941 334 Q127.097 328 114.097 328 Q95.0974 328 78.7839 340 Q50.5947 360 55.7947 397 L55.9353 398 Q59.0272 420 74.4163 437 Q87.9461 455 107.93 462 L735.254 692 Q751.362 707 753.33 721 Q755.298 735 743.406 750 L183.011 982 Q164.995 989 155.525 1007 Q145.914 1024 148.865 1045 Q154.065 1082 187.876 1102 Q207.562 1114 226.562 1114 Q239.562 1114 251.86 1109 L904.681 816 Z " />
<glyph glyph-name="&amp;#xf001;" unicode="&#xf001;" horiz-adv-x="889" d="M222.752 724 Q232.027 790 167.027 790 Q144.027 790 130.416 807 Q115.665 823 119.179 848 L124.519 886 Q127.892 910 147.422 928 Q165.671 944 188.671 944 Q253.671 944 262.946 1010 L264.492 1021 Q290.211 1204 425.687 1307 Q557.881 1408 760.881 1408 Q852.881 1408 935.509 1384 Q956.525 1377 964.854 1358 Q970.887 1344 968.779 1329 Q967.795 1322 964.671 1314 L945.925 1266 Q936.271 1240 914.584 1228 Q900.46 1220 885.46 1220 Q878.46 1220 871.741 1222 Q811.99 1238 744.99 1238 Q507.99 1238 476.368 1013 L475.946 1010 Q466.671 944 531.671 944 L965.671 944 Q988.671 944 1002.42 928 Q1016.89 910 1013.52 886 L902.07 93 Q898.697 69 879.168 51 Q860.919 35 837.919 35 L735.919 35 Q711.919 35 698.168 51 Q684.697 69 688.07 93 L776.752 724 Q786.027 790 720.027 790 L512.027 790 Q447.027 790 437.752 724 L349.07 93 Q345.697 69 326.168 51 Q307.919 35 283.919 35 L182.919 35 Q158.919 35 145.168 51 Q130.697 69 134.07 93 L222.752 724 Z " />
<glyph glyph-name="&amp;#xfb01;" unicode="&#xfb01;" horiz-adv-x="889" d="M222.752 724 Q232.027 790 167.027 790 Q144.027 790 130.416 807 Q115.665 823 119.179 848 L124.519 886 Q127.892 910 147.422 928 Q165.671 944 188.671 944 Q253.671 944 262.946 1010 L264.492 1021 Q290.211 1204 425.687 1307 Q557.881 1408 760.881 1408 Q852.881 1408 935.509 1384 Q956.525 1377 964.854 1358 Q970.887 1344 968.779 1329 Q967.795 1322 964.671 1314 L945.925 1266 Q936.271 1240 914.584 1228 Q900.46 1220 885.46 1220 Q878.46 1220 871.741 1222 Q811.99 1238 744.99 1238 Q507.99 1238 476.368 1013 L475.946 1010 Q466.671 944 531.671 944 L965.671 944 Q988.671 944 1002.42 928 Q1016.89 910 1013.52 886 L902.07 93 Q898.697 69 879.168 51 Q860.919 35 837.919 35 L735.919 35 Q711.919 35 698.168 51 Q684.697 69 688.07 93 L776.752 724 Q786.027 790 720.027 790 L512.027 790 Q447.027 790 437.752 724 L349.07 93 Q345.697 69 326.168 51 Q307.919 35 283.919 35 L182.919 35 Q158.919 35 145.168 51 Q130.697 69 134.07 93 L222.752 724 Z " />
<glyph glyph-name="&amp;#xf002;" unicode="&#xf002;" horiz-adv-x="877" d="M218.379 700 Q227.514 765 162.514 765 Q139.514 765 125.903 782 Q112.011 797 115.243 820 L120.443 857 Q123.676 880 141.925 896 Q160.173 912 183.173 912 Q248.173 912 257.308 977 L258.854 988 Q282.746 1158 422.644 1264 Q553.417 1362 756.417 1362 Q912.417 1362 1026.39 1312 Q1059.42 1298 1054.22 1261 L889.649 90 Q886.416 67 868.168 51 Q849.919 35 826.919 35 L726.919 35 Q702.919 35 690.168 51 Q675.416 67 678.649 90 L831.417 1177 Q778.476 1213 694.476 1213 Q499.476 1213 467.292 984 L466.308 977 Q457.173 912 522.173 912 L566.173 912 Q589.173 912 602.925 896 Q616.676 880 613.443 857 L608.243 820 Q605.011 797 586.903 782 Q568.514 765 545.514 765 L502.514 765 Q438.514 765 429.379 700 L343.649 90 Q340.416 67 321.168 51 Q303.919 35 279.919 35 L179.919 35 Q156.919 35 143.168 51 Q129.416 67 132.649 90 L218.379 700 Z " />
<glyph glyph-name="&amp;#xfb02;" unicode="&#xfb02;" horiz-adv-x="877" d="M218.379 700 Q227.514 765 162.514 765 Q139.514 765 125.903 782 Q112.011 797 115.243 820 L120.443 857 Q123.676 880 141.925 896 Q160.173 912 183.173 912 Q248.173 912 257.308 977 L258.854 988 Q282.746 1158 422.644 1264 Q553.417 1362 756.417 1362 Q912.417 1362 1026.39 1312 Q1059.42 1298 1054.22 1261 L889.649 90 Q886.416 67 868.168 51 Q849.919 35 826.919 35 L726.919 35 Q702.919 35 690.168 51 Q675.416 67 678.649 90 L831.417 1177 Q778.476 1213 694.476 1213 Q499.476 1213 467.292 984 L466.308 977 Q457.173 912 522.173 912 L566.173 912 Q589.173 912 602.925 896 Q616.676 880 613.443 857 L608.243 820 Q605.011 797 586.903 782 Q568.514 765 545.514 765 L502.514 765 Q438.514 765 429.379 700 L343.649 90 Q340.416 67 321.168 51 Q303.919 35 279.919 35 L179.919 35 Q156.919 35 143.168 51 Q129.416 67 132.649 90 L218.379 700 Z " />
<glyph glyph-name="Agrave" unicode="&#xc0;" horiz-adv-x="1093" d="M667 555 Q710 555 737.919 590 Q759.011 612 762.946 640 Q764.633 652 762.319 664 L732.049 904 Q726.076 954 719.335 1027 Q716.989 1053 715.19 1090 L711.687 1122 L707.854 1173 Q681.838 1180 662.838 1180 Q653.838 1180 632.557 1178 Q615.53 1128 602.19 1090 L580.054 1025 Q553.233 948 536.049 904 L442.179 663 Q436.492 651 434.946 640 Q431.152 613 445.779 589 Q465 555 507 555 L667 555 Z M1055.77 98 Q1056.37 88 1055.1 79 Q1052.15 58 1036.48 39 Q1018.11 15 992.108 15 L861.108 15 Q845.108 15 834.514 25 Q820.481 39 817.011 57 L782.973 320 Q774.827 383 711.827 383 L414.827 383 Q350.827 383 324.833 319 L223.292 59 Q215.481 39 198.654 26 Q184.108 15 168.108 15 L49.1081 15 Q23.1081 15 11.4811 39 Q1.15137 58 4.10273 79 Q5.36759 88 9.773 98 L525.622 1335 Q534.573 1356 552.26 1368 Q565.806 1379 582.806 1379 L836.806 1379 Q853.806 1379 865.26 1368 Q878.573 1356 881.622 1335 L1055.77 98 Z M803.752 1649 Q810.503 1633 808.255 1617 Q806.146 1602 794.898 1586 Q773.541 1555 740.541 1555 L734.541 1555 Q706.541 1555 692.633 1577 L613.622 1705 Q601.292 1724 604.103 1744 Q605.93 1757 616.179 1773 Q637.098 1808 673.098 1808 L707.098 1808 Q741.098 1808 752.882 1778 L803.752 1649 Z " />
<glyph glyph-name="Aacute" unicode="&#xc1;" horiz-adv-x="1093" d="M667 555 Q710 555 737.919 590 Q759.011 612 762.946 640 Q764.633 652 762.319 664 L732.049 904 Q726.076 954 719.335 1027 Q716.989 1053 715.19 1090 L711.687 1122 L707.854 1173 Q681.838 1180 662.838 1180 Q653.838 1180 632.557 1178 Q615.53 1128 602.19 1090 L580.054 1025 Q553.233 948 536.049 904 L442.179 663 Q436.492 651 434.946 640 Q431.152 613 445.779 589 Q465 555 507 555 L667 555 Z M1055.77 98 Q1056.37 88 1055.1 79 Q1052.15 58 1036.48 39 Q1018.11 15 992.108 15 L861.108 15 Q845.108 15 834.514 25 Q820.481 39 817.011 57 L782.973 320 Q774.827 383 711.827 383 L414.827 383 Q350.827 383 324.833 319 L223.292 59 Q215.481 39 198.654 26 Q184.108 15 168.108 15 L49.1081 15 Q23.1081 15 11.4811 39 Q1.15137 58 4.10273 79 Q5.36759 88 9.773 98 L525.622 1335 Q534.573 1356 552.26 1368 Q565.806 1379 582.806 1379 L836.806 1379 Q853.806 1379 865.26 1368 Q878.573 1356 881.622 1335 L1055.77 98 Z M760.882 1778 Q781.098 1808 815.098 1808 L849.098 1808 Q885.098 1808 896.179 1773 Q901.93 1757 900.103 1744 Q897.292 1724 879.622 1705 L764.633 1577 Q744.541 1555 716.541 1555 L710.541 1555 Q677.541 1555 664.898 1586 Q658.146 1602 660.255 1617 Q662.503 1633 673.752 1649 L760.882 1778 Z " />
</font>
</svg>
