<?xml version="1.0" encoding="UTF-8"?>
<svg xmlns="http://www.w3.org/2000/svg" xmlns:xlink="http://www.w3.org/1999/xlink" version="1.2" >
<font id="Carson Bold">
<font-face  font-family="Carson" units-per-em="2048" ascent="1511" descent="-446" font-style="normal" font-weight="700" font-stretch="normal" cap-height="1434" x-height="1040" underline-position="-217" underline-thickness="150" />
<missing-glyph  horiz-adv-x="724" d="M301 365 Q385 365 437 309 Q487 256 489 172 Q489 90 438 35 Q385 -22 301 -22 Q218 -22 166 34 Q116 90 116 172 Q116 254 166 309 Q219 365 301 365 Z M330 1459 Q524 1459 629 1357 Q724 1267 724 1127 Q724 1021 667 923 Q644 884 610 842 Q598 826 582 805 L567 789 L553 771 Q448 650 448 512 L448 504 Q448 490 438 478 Q425 465 407 465 L226 465 Q200 465 182 483 Q167 499 166 521 Q165 532 165 544 Q165 702 286 852 Q345 929 368 966 Q404 1026 404 1076 Q404 1197 260 1203 Q208 1203 147 1183 Q131 1178 115 1178 Q92 1178 70 1189 Q35 1208 24 1248 L10 1290 Q5 1305 5 1318 Q5 1340 16 1360 Q33 1397 69 1410 Q191 1459 330 1459 Z " />
<glyph glyph-name="&amp;#x0;" horiz-adv-x="20" d="" />
<glyph glyph-name="&amp;#x1d;" unicode="&#x1d;" horiz-adv-x="20" d="" />
<glyph glyph-name="&amp;#x20;" unicode="&#x20;" horiz-adv-x="404" d="" />
<glyph glyph-name="&amp;#xa0;" unicode="&#xa0;" horiz-adv-x="404" d="" />
<glyph glyph-name="exclam" unicode="&#x21;" horiz-adv-x="537" d="M103 1336 L103 1341 Q103 1378 131 1408 Q157 1438 201 1438 L327 1438 Q370 1438 400 1406 Q425 1378 425 1342 L425 1336 L390 568 Q388 530 360 502 Q333 475 292 475 L238 475 Q197 475 170 502 Q142 530 140 568 L103 1336 Z M78 175 Q78 259 129 312 Q182 368 265 368 Q348 368 398 314 Q449 259 451 175 Q451 92 402 38 Q349 -19 265 -19 Q182 -19 128 38 Q78 93 78 175 Z " />
<glyph glyph-name="quotedbl" unicode="&#x22;" horiz-adv-x="706" d="M289 1699 L297 1699 Q345 1699 375 1660 Q392 1633 392 1605 Q392 1589 386 1571 Q311 1357 213 1178 Q189 1132 135 1128 L126 1128 Q80 1128 52 1165 Q31 1192 31 1222 Q31 1236 36 1251 Q89 1439 122 1616 Q127 1646 151 1668 Q176 1691 211 1694 L289 1699 Z M684 1699 L691 1699 Q740 1699 770 1659 Q788 1634 788 1606 Q788 1588 781 1571 Q705 1352 609 1178 Q585 1132 553 1130 Q542 1129 533 1129 Q473 1129 447 1165 Q426 1192 426 1222 Q426 1236 431 1251 Q484 1439 517 1615 Q522 1647 547 1668 Q572 1692 605 1694 L684 1699 Z " />
<glyph glyph-name="numbersign" unicode="&#x23;" horiz-adv-x="1010" d="M610 928 Q611 933 611 937 Q611 956 599 970 Q586 987 567 987 L480 987 Q465 987 453 976 Q440 964 437 944 L418 807 L418 800 Q418 780 430 764 Q443 748 461 748 L549 748 Q563 748 575 760 Q588 771 591 791 L610 928 Z M904 1184 Q944 1184 971 1157 Q999 1129 999 1091 L999 1081 Q999 1042 971 1014 Q944 987 904 987 L808 987 L775 748 L849 748 Q890 748 918 719 Q944 693 944 655 L944 647 Q944 608 918 582 Q890 553 849 553 L744 553 L705 254 Q700 220 675 197 Q648 172 612 172 L609 172 Q565 172 536 206 Q515 232 515 264 Q515 271 516 277 L553 553 L378 553 L339 254 Q334 220 307 195 Q281 172 245 172 L243 172 Q199 172 170 206 Q149 231 149 263 Q149 270 150 278 L188 553 L118 553 Q78 553 49 582 Q24 608 24 647 L24 655 Q24 693 49 719 Q78 748 118 748 L222 748 L253 987 L175 987 Q135 987 106 1016 Q81 1042 81 1081 L81 1091 Q81 1129 106 1155 Q135 1184 175 1184 L282 1184 L321 1473 Q326 1508 351 1529 Q377 1555 414 1555 Q459 1555 488 1520 Q509 1495 509 1463 Q509 1456 508 1448 L472 1184 L646 1184 L688 1474 Q693 1507 719 1532 Q744 1555 781 1555 Q825 1555 854 1520 Q875 1494 875 1462 Q875 1455 874 1448 L836 1184 L904 1184 Z " />
<glyph glyph-name="dollar" unicode="&#x24;" horiz-adv-x="1031" d="M632 791 Q815 725 895 630 Q972 538 972 394 Q972 249 880 144 Q783 32 612 2 L612 -119 Q612 -158 584 -185 Q557 -216 514 -216 L501 -216 Q458 -216 430 -185 Q404 -158 404 -119 L404 -14 Q262 -7 137 41 Q102 56 86 88 Q75 109 75 132 Q75 142 77 154 L91 213 Q103 255 141 275 Q162 287 186 287 Q205 287 224 279 Q343 233 461 233 Q546 233 598 266 Q651 300 651 365 Q651 426 600 469 Q551 510 438 551 Q259 613 172 696 Q71 794 71 939 Q71 1079 161 1180 Q253 1284 413 1317 L413 1422 Q413 1462 440 1489 Q469 1519 512 1519 L524 1519 Q567 1519 594 1491 Q622 1462 622 1422 L622 1332 Q737 1327 832 1296 Q869 1283 887 1250 Q899 1228 899 1205 Q899 1193 896 1180 L884 1129 Q874 1089 837 1069 Q815 1056 789 1056 Q772 1056 756 1062 Q661 1094 561 1094 Q472 1094 429 1058 Q391 1027 391 975 Q391 923 448 882 Q499 844 632 791 Z " />
<glyph glyph-name="percent" unicode="&#x25;" horiz-adv-x="1802" d="M421 733 Q480 733 513 797 Q545 863 545 982 Q545 1096 515 1160 Q483 1231 419 1231 Q359 1231 322 1158 Q290 1093 290 982 Q290 869 324 801 Q360 733 421 733 Z M784 997 Q784 792 674 669 Q569 556 414 556 Q256 556 155 670 Q51 786 51 973 Q51 1161 150 1281 Q255 1407 425 1407 Q595 1407 693 1289 Q784 1178 784 997 Z M1231 1407 Q1276 1407 1298 1368 Q1308 1350 1308 1331 Q1308 1314 1299 1297 L620 19 Q600 -22 553 -22 Q508 -22 485 17 Q476 35 476 53 Q476 71 485 88 L1161 1367 Q1183 1407 1229 1407 L1231 1407 Z M1369 159 Q1428 159 1462 223 Q1494 288 1494 408 Q1494 656 1369 656 Q1306 656 1272 586 Q1240 519 1240 408 L1240 396 Q1240 291 1273 227 Q1308 159 1369 159 Z M1373 833 Q1543 833 1641 715 Q1733 604 1733 423 Q1733 217 1621 95 Q1519 -18 1363 -18 Q1206 -18 1105 95 Q1001 211 1000 399 Q1000 587 1098 707 Q1203 833 1373 833 Z " />
<glyph glyph-name="ampersand" unicode="&#x26;" horiz-adv-x="1364" d="M704 227 Q724 239 727 263 Q728 268 728 273 Q728 294 715 308 Q626 404 476 583 Q463 596 447 597 L445 597 Q429 597 418 585 Q348 514 348 418 Q348 323 410 258 Q471 193 570 193 Q642 193 704 227 Z M606 1237 Q553 1237 519 1194 Q487 1152 487 1091 Q487 1006 550 920 Q562 905 577 903 L583 903 Q597 903 609 911 Q667 957 693 997 Q721 1042 721 1095 Q721 1153 690 1194 Q659 1237 606 1237 Z M1221 807 Q1271 807 1300 768 Q1319 741 1319 710 Q1319 700 1317 688 Q1253 427 1113 264 Q1178 187 1216 142 Q1239 114 1239 82 Q1239 62 1231 42 Q1205 -18 1140 -18 L1031 -18 Q987 -18 958 16 Q925 54 901 81 Q751 -41 527 -41 Q291 -41 160 89 Q46 201 46 365 Q46 501 117 607 Q183 708 305 774 L305 785 Q259 840 232 911 Q202 988 202 1061 Q202 1209 304 1316 Q421 1440 616 1440 Q781 1440 886 1347 Q992 1253 992 1104 Q992 879 722 737 L720 726 Q746 696 782 655 L811 619 L840 584 Q911 499 943 464 Q1006 566 1041 732 Q1048 763 1074 785 Q1100 807 1137 807 L1221 807 Z " />
<glyph glyph-name="quotesingle" unicode="&#x27;" horiz-adv-x="337" d="M188 1701 Q234 1701 265 1668 Q291 1641 291 1604 L291 1596 L262 1217 Q260 1179 230 1153 Q200 1125 159 1125 Q117 1125 87 1153 Q59 1179 55 1217 L26 1595 L26 1602 Q26 1639 52 1668 Q83 1701 130 1701 L188 1701 Z " />
<glyph glyph-name="parenleft" unicode="&#x28;" horiz-adv-x="533" d="M491 -152 Q499 -171 499 -190 Q499 -216 484 -242 Q456 -288 401 -288 L389 -288 Q334 -288 304 -240 Q217 -93 166 87 Q103 312 103 570 Q105 1044 304 1382 Q334 1428 389 1428 L400 1428 Q454 1428 483 1382 Q498 1357 498 1332 Q498 1313 490 1293 Q354 981 354 567 Q354 165 491 -152 Z " />
<glyph glyph-name="parenright" unicode="&#x29;" horiz-adv-x="545" d="M237 1385 Q324 1237 375 1059 Q438 834 438 576 Q438 317 374 91 Q324 -87 237 -236 Q209 -284 152 -284 L140 -284 Q86 -284 56 -236 Q42 -212 42 -187 Q42 -168 50 -149 Q188 172 188 576 Q188 980 51 1297 Q43 1317 43 1336 Q43 1362 57 1387 Q86 1432 141 1432 L153 1432 Q209 1432 237 1385 Z " />
<glyph glyph-name="asterisk" unicode="&#x2a;" horiz-adv-x="706" d="M650 1406 Q660 1409 671 1409 Q703 1409 728 1387 Q759 1361 759 1320 L759 1319 Q759 1280 729 1253 Q703 1231 672 1231 Q664 1231 654 1232 L431 1273 L434 1264 L586 1084 Q607 1059 607 1028 Q607 1021 606 1014 Q599 973 565 953 L561 950 Q538 936 514 936 Q498 936 482 942 Q442 957 428 996 L349 1223 L273 996 Q259 958 219 943 Q202 936 185 936 Q163 936 138 950 L137 953 Q103 975 98 1014 Q97 1021 97 1028 Q97 1058 117 1083 L269 1269 L269 1272 L57 1233 Q47 1232 39 1232 Q7 1232 -19 1253 Q-49 1279 -49 1320 Q-49 1361 -18 1387 Q6 1409 38 1409 Q49 1409 60 1406 L266 1370 L117 1556 Q98 1579 98 1609 Q98 1617 99 1625 Q106 1665 141 1686 L146 1689 Q167 1703 192 1703 Q209 1703 226 1696 Q263 1682 277 1643 L350 1418 L431 1643 Q445 1683 484 1697 Q500 1703 515 1703 Q540 1703 560 1690 L563 1690 Q600 1668 606 1627 Q607 1618 607 1610 Q607 1580 588 1556 L436 1369 L436 1364 L650 1406 Z " />
<glyph glyph-name="plus" unicode="&#x2b;" horiz-adv-x="1106" d="M988 840 Q1027 840 1054 812 Q1078 785 1078 750 L1078 729 Q1078 694 1055 668 Q1027 640 988 640 L655 640 L655 262 Q655 226 630 200 Q603 172 565 172 L536 172 Q497 172 472 200 Q447 226 447 262 L447 640 L113 640 Q75 640 47 668 Q23 693 23 729 L23 750 Q23 786 48 812 Q75 840 113 840 L447 840 L447 1214 Q447 1250 472 1275 Q497 1304 536 1304 L565 1304 Q604 1304 630 1275 Q655 1250 655 1214 L655 840 L988 840 Z " />
<glyph glyph-name="comma" unicode="&#x2c;" horiz-adv-x="364" d="M239 267 L245 267 Q295 267 325 227 Q343 201 343 172 Q343 155 337 139 Q252 -104 154 -284 Q128 -329 76 -335 L56 -336 L46 -336 Q0 -336 -28 -299 Q-49 -272 -49 -241 Q-49 -228 -45 -214 Q14 -12 47 180 Q52 211 76 234 Q101 257 135 260 L239 267 Z " />
<glyph glyph-name="&amp;#x2d;" unicode="&#x2d;" horiz-adv-x="607" d="M467 825 Q505 825 532 797 Q557 771 557 735 L557 700 Q557 664 532 638 Q505 610 467 610 L106 610 Q68 610 41 638 Q16 664 16 700 L16 735 Q16 771 41 797 Q68 825 106 825 L467 825 Z " />
<glyph glyph-name="&amp;#xad;" unicode="&#xad;" horiz-adv-x="607" d="M467 825 Q505 825 532 797 Q557 771 557 735 L557 700 Q557 664 532 638 Q505 610 467 610 L106 610 Q68 610 41 638 Q16 664 16 700 L16 735 Q16 771 41 797 Q68 825 106 825 L467 825 Z " />
<glyph glyph-name="period" unicode="&#x2e;" horiz-adv-x="389" d="M191 267 Q275 267 327 211 Q377 156 377 70 Q377 -13 326 -70 Q274 -126 190 -126 Q108 -126 54 -69 Q4 -13 4 70 Q4 154 55 209 Q107 267 191 267 Z " />
<glyph glyph-name="slash" unicode="&#x2f;" horiz-adv-x="627" d="M503 1439 Q554 1439 584 1398 Q602 1372 602 1342 Q602 1329 598 1315 L219 -32 Q211 -62 186 -81 Q159 -103 125 -103 L115 -103 Q64 -103 34 -62 Q16 -36 16 -6 Q16 7 20 21 L399 1368 Q407 1398 433 1418 Q459 1439 494 1439 L503 1439 Z " />
<glyph glyph-name="zero" unicode="0" horiz-adv-x="1258" d="M661 236 Q850 236 850 733 Q850 1223 658 1223 Q571 1223 519 1104 Q464 976 464 736 L464 719 Q464 482 518 356 Q570 236 661 236 Z M664 1475 Q928 1475 1062 1254 Q1180 1058 1180 736 Q1180 393 1050 195 Q912 -16 653 -16 Q396 -16 259 204 Q136 402 134 728 Q134 1058 263 1257 Q405 1475 664 1475 Z " />
<glyph glyph-name="one" unicode="1" horiz-adv-x="770" d="M538 1448 Q581 1448 612 1415 Q640 1387 640 1345 L640 79 Q640 38 612 10 Q581 -23 538 -23 L418 -23 Q373 -23 344 10 Q316 38 316 79 L316 1071 Q316 1105 289 1116 L287 1116 Q278 1119 273 1119 Q265 1119 257 1116 L162 1068 Q139 1057 116 1057 Q92 1057 70 1068 Q27 1090 17 1137 L6 1187 Q4 1197 4 1208 Q4 1232 15 1253 Q29 1285 63 1300 L341 1436 Q362 1448 387 1448 L538 1448 Z " />
<glyph glyph-name="two" unicode="2" horiz-adv-x="1107" d="M921 261 Q965 261 997 229 Q1024 199 1024 159 L1024 84 Q1024 43 997 13 Q965 -19 921 -19 L124 -19 Q81 -19 49 13 Q22 43 22 84 L22 142 Q22 186 54 217 L202 357 Q452 592 545 714 Q659 861 662 985 Q662 1082 606 1141 Q549 1202 436 1202 Q338 1202 233 1145 Q209 1131 183 1131 Q164 1131 146 1138 Q103 1155 88 1197 L69 1246 Q62 1265 62 1284 Q62 1301 68 1317 Q79 1352 112 1373 Q289 1475 502 1475 Q738 1475 870 1344 Q998 1220 998 1014 Q998 846 888 679 Q804 551 626 384 L585 348 Q572 336 569 317 Q568 314 568 311 Q568 296 576 283 Q589 261 609 261 L921 261 Z " />
<glyph glyph-name="three" unicode="3" horiz-adv-x="1046" d="M704 775 Q833 750 915 656 Q1003 558 1003 426 Q1003 233 853 111 Q697 -16 437 -16 Q310 -16 193 15 Q91 43 26 88 L92 338 Q123 322 153 310 Q192 293 229 280 Q328 249 414 249 Q530 249 598 303 Q660 354 660 442 Q660 544 575 601 Q501 649 387 649 L253 649 L253 889 L381 889 Q476 891 542 926 Q622 971 622 1057 Q622 1126 572 1167 Q519 1208 424 1208 Q350 1208 264 1179 Q192 1154 134 1118 L69 1363 Q135 1409 246 1439 Q369 1472 496 1472 Q713 1472 838 1366 Q957 1267 957 1115 Q957 1000 895 915 Q829 827 704 781 L704 775 Z " />
<glyph glyph-name="four" unicode="4" horiz-adv-x="1198" d="M700 918 Q700 1031 711 1186 L711 1192 Q710 1192 710 1189 Q696 1161 678 1121 L647 1053 L393 597 L393 589 L652 589 Q670 589 684 605 Q700 622 700 645 L700 918 Z M1088 589 Q1131 589 1161 559 Q1188 529 1188 488 L1188 440 Q1188 397 1158 366 Q1126 332 1082 332 L1067 332 Q1048 332 1034 318 Q1021 302 1021 280 L1021 87 Q1021 45 991 15 Q958 -19 914 -19 L807 -19 Q762 -19 729 15 Q700 45 700 88 L700 278 Q700 303 684 318 Q670 332 654 332 L184 332 Q140 332 108 366 Q78 397 78 440 L78 526 Q78 555 92 581 L579 1400 Q610 1455 671 1455 L914 1455 Q958 1455 991 1421 Q1021 1391 1021 1348 L1021 643 Q1021 619 1034 604 Q1048 589 1067 589 L1088 589 Z " />
<glyph glyph-name="five" unicode="5" horiz-adv-x="1065" d="M858 851 Q1026 732 1026 487 Q1026 279 869 135 Q698 -22 427 -22 Q262 -22 123 24 Q86 37 66 71 Q54 95 54 121 Q54 132 56 144 L68 201 Q78 242 116 266 Q142 281 169 281 Q183 281 197 277 Q310 243 411 243 Q522 243 597 294 Q685 356 685 464 Q685 708 300 708 Q262 708 229 705 L225 705 Q177 705 146 740 Q121 770 121 808 Q121 814 122 821 L188 1364 Q193 1402 221 1428 Q250 1455 290 1455 L868 1455 Q912 1455 942 1425 Q969 1394 969 1353 L969 1279 Q969 1239 940 1207 Q912 1177 868 1177 L432 1177 L399 952 Q429 958 488 958 Q716 958 858 851 Z " />
<glyph glyph-name="six" unicode="6" horiz-adv-x="1235" d="M679 222 Q759 222 811 296 Q862 369 862 482 Q862 593 810 662 Q755 736 659 736 Q598 736 544 698 Q496 664 470 605 Q457 577 457 519 Q464 390 517 312 Q576 222 679 222 Z M766 976 Q951 976 1073 850 Q1200 719 1200 501 Q1200 281 1057 131 Q908 -26 683 -26 Q413 -26 264 164 Q127 336 127 610 Q127 811 194 982 Q258 1144 372 1258 Q582 1456 913 1473 Q927 1473 939 1475 L946 1475 Q986 1475 1018 1447 Q1047 1415 1047 1372 L1047 1317 Q1047 1277 1021 1246 Q993 1217 953 1214 Q939 1210 918 1210 Q720 1193 603 1093 Q500 1007 470 866 Q469 863 469 861 L469 858 Q575 976 766 976 Z " />
<glyph glyph-name="seven" unicode="7" horiz-adv-x="1051" d="M910 1452 Q955 1452 984 1419 Q1014 1389 1014 1347 L1014 1258 Q1014 1235 1006 1215 L461 35 Q434 -25 366 -25 L245 -25 Q185 -25 154 27 Q140 52 140 78 Q140 102 152 125 L657 1162 L657 1164 Q657 1170 658 1170 L116 1170 Q71 1170 41 1202 Q12 1232 12 1273 L12 1347 Q12 1389 41 1419 Q70 1452 116 1452 L910 1452 Z " />
<glyph glyph-name="eight" unicode="8" horiz-adv-x="1233" d="M643 215 Q723 215 774 267 Q826 316 826 396 Q826 509 738 575 Q694 608 644 610 Q636 611 631 611 Q593 611 554 593 Q511 569 483 528 Q455 482 452 424 L452 412 Q452 332 504 277 Q560 215 643 215 Z M636 1245 Q561 1245 516 1197 Q474 1152 474 1079 Q474 986 568 927 Q607 901 646 901 Q680 901 717 921 Q797 966 800 1062 L800 1067 Q800 1143 759 1191 Q716 1245 636 1245 Z M914 776 Q1023 732 1087 645 Q1162 548 1162 420 Q1162 224 1017 106 Q873 -16 631 -16 Q383 -16 240 114 Q117 225 117 385 Q117 629 359 743 Q362 744 362 749 Q362 753 359 754 Q263 809 210 892 Q164 972 164 1067 Q164 1246 303 1359 Q439 1472 650 1472 Q879 1472 1003 1352 Q1110 1249 1110 1103 Q1110 1008 1062 928 Q1011 840 913 789 Q911 788 911 782 Q911 778 914 776 Z " />
<glyph glyph-name="nine" unicode="9" horiz-adv-x="1205" d="M776 841 Q794 875 794 929 Q794 1058 747 1141 Q696 1235 596 1235 Q517 1235 464 1167 Q410 1096 410 983 L410 979 Q410 878 459 814 Q512 746 602 746 Q661 746 709 773 Q752 800 776 841 Z M604 1481 Q863 1481 1003 1295 Q1132 1125 1132 856 Q1132 424 890 191 Q689 -1 358 -14 Q335 -16 311 -16 L308 -16 Q265 -16 235 15 Q207 43 207 86 L207 145 Q207 184 234 215 Q262 245 306 246 Q324 247 351 250 Q512 261 620 338 Q751 433 772 517 Q793 601 793 603 L794 611 Q697 506 516 506 Q330 506 207 629 Q79 756 79 959 Q79 1175 224 1324 Q376 1481 604 1481 Z " />
<glyph glyph-name="colon" unicode="&#x3a;" horiz-adv-x="517" d="M67 394 Q67 477 118 532 Q171 589 254 589 Q338 589 389 534 Q438 479 440 394 Q440 312 389 257 Q338 200 253 200 Q171 200 117 257 Q67 312 67 394 Z M67 1081 Q67 1166 118 1219 Q170 1277 254 1277 Q339 1277 389 1221 Q438 1168 440 1081 Q440 999 389 944 Q338 887 253 887 Q171 887 117 944 Q67 999 67 1081 Z " />
<glyph glyph-name="&amp;#x3b;" unicode="&#x3b;" horiz-adv-x="522" d="M301 902 Q218 902 165 959 Q116 1013 116 1090 L116 1096 Q116 1180 166 1236 Q218 1292 301 1292 Q386 1292 436 1236 Q485 1183 487 1096 Q487 1014 438 958 Q385 902 301 902 Z M331 602 L336 602 Q385 602 416 560 Q434 534 434 506 Q434 489 428 473 Q344 230 244 51 Q219 6 168 0 L150 -1 L140 -1 Q94 -1 66 36 Q45 64 45 95 Q45 108 49 122 Q106 322 142 515 Q147 546 172 569 Q197 594 231 595 L331 602 Z " />
<glyph glyph-name="&amp;#x37e;" unicode="&#x37e;" horiz-adv-x="522" d="M301 902 Q218 902 165 959 Q116 1013 116 1090 L116 1096 Q116 1180 166 1236 Q218 1292 301 1292 Q386 1292 436 1236 Q485 1183 487 1096 Q487 1014 438 958 Q385 902 301 902 Z M331 602 L336 602 Q385 602 416 560 Q434 534 434 506 Q434 489 428 473 Q344 230 244 51 Q219 6 168 0 L150 -1 L140 -1 Q94 -1 66 36 Q45 64 45 95 Q45 108 49 122 Q106 322 142 515 Q147 546 172 569 Q197 594 231 595 L331 602 Z " />
<glyph glyph-name="less" unicode="&#x3c;" horiz-adv-x="1048" d="M266 794 L266 786 L944 474 Q972 461 987 438 Q1001 414 1001 386 L1001 377 Q1001 325 959 297 Q932 279 904 279 Q882 279 861 289 L74 674 Q19 701 19 761 L19 820 Q19 880 74 907 L861 1291 Q882 1301 904 1301 Q932 1301 959 1283 Q1001 1255 1001 1203 L1001 1194 Q1001 1166 987 1143 Q971 1119 945 1106 L266 794 Z " />
<glyph glyph-name="equal" unicode="&#x3d;" horiz-adv-x="1162" d="M1018 617 Q1057 617 1085 589 Q1108 563 1108 528 L1108 509 Q1108 474 1084 447 Q1057 419 1018 419 L143 419 Q105 419 78 447 Q53 473 53 509 L53 528 Q53 564 77 589 Q105 617 143 617 L1018 617 Z M1018 1057 Q1057 1057 1085 1029 Q1108 1003 1108 968 L1108 949 Q1108 914 1084 887 Q1057 859 1018 859 L143 859 Q105 859 78 887 Q53 913 53 949 L53 968 Q53 1004 77 1029 Q105 1057 143 1057 L1018 1057 Z " />
<glyph glyph-name="greater" unicode="&#x3e;" horiz-adv-x="1057" d="M972 908 Q1027 881 1027 821 L1027 749 Q1027 689 972 662 L184 283 Q164 273 143 273 Q114 273 88 291 Q45 319 45 371 L45 380 Q45 409 60 432 Q76 456 101 469 L797 782 L797 788 L102 1101 Q76 1113 60 1138 Q45 1161 45 1190 L45 1199 Q45 1251 88 1279 Q114 1297 143 1297 Q164 1297 184 1287 L972 908 Z " />
<glyph glyph-name="question" unicode="&#x3f;" horiz-adv-x="759" d="M292 387 Q376 387 428 331 Q478 278 480 194 Q480 112 429 57 Q376 0 292 0 Q209 0 157 56 Q107 112 107 194 Q107 276 157 331 Q210 387 292 387 Z M321 1481 Q515 1481 620 1379 Q715 1289 715 1149 Q715 1043 658 945 Q635 906 601 864 Q589 848 573 827 L558 811 L544 793 Q439 672 439 534 L439 526 Q439 512 429 500 Q416 487 398 487 L217 487 Q191 487 173 505 Q158 521 157 543 Q156 554 156 566 Q156 724 277 874 Q336 951 359 988 Q395 1048 395 1098 Q395 1219 251 1225 Q199 1225 138 1205 Q122 1200 106 1200 Q83 1200 61 1211 Q26 1230 15 1270 L1 1312 Q-4 1327 -4 1340 Q-4 1362 7 1382 Q24 1419 60 1432 Q182 1481 321 1481 Z " />
<glyph glyph-name="at" unicode="&#x40;" horiz-adv-x="1531" d="M882 901 Q883 905 883 910 Q883 930 871 946 Q857 963 837 963 L831 963 Q814 965 800 965 Q688 965 616 875 Q547 788 547 651 Q547 587 573 552 Q598 519 643 519 Q699 519 771 588 Q848 663 862 752 L882 901 Z M1015 1109 Q1036 1102 1044 1083 Q1051 1071 1051 1057 L1051 1051 Q1037 912 1035 776 L1035 763 Q1035 502 1095 500 L1097 500 Q1166 500 1221 585 Q1286 688 1286 860 Q1286 1077 1163 1211 Q1033 1350 808 1350 Q694 1350 590 1304 Q484 1259 405 1175 Q231 987 231 690 Q231 427 378 275 Q517 132 745 132 Q870 132 976 172 Q988 177 1001 177 Q1018 177 1033 169 Q1056 156 1063 131 Q1066 122 1066 112 Q1066 99 1060 86 Q1048 63 1025 55 Q888 0 704 0 Q575 0 459 47 Q344 93 257 181 Q67 369 67 670 Q67 831 121 978 Q174 1125 274 1236 Q376 1351 514 1414 Q660 1481 829 1481 Q1101 1481 1274 1307 Q1447 1133 1447 866 Q1447 638 1336 498 Q1228 360 1057 360 Q979 360 934 399 Q885 442 880 523 Q800 380 620 380 Q515 380 451 455 Q388 530 388 657 Q388 857 514 989 Q649 1132 864 1132 Q954 1132 1015 1109 Z " />
<glyph glyph-name="A" unicode="A" horiz-adv-x="1143" d="M557 1145 Q552 1121 544 1084 L531 1019 Q515 942 504 896 L442 655 Q440 647 440 640 Q440 623 452 608 Q464 590 484 590 L644 590 Q664 590 676 609 Q688 623 688 640 Q688 648 686 656 L622 896 Q607 946 590 1021 Q584 1047 577 1084 L569 1116 L563 1146 Q562 1145 557 1145 Z M1135 106 Q1139 92 1139 79 Q1139 49 1121 22 Q1094 -20 1045 -20 L914 -20 Q881 -20 858 0 Q834 20 826 49 L755 312 Q745 348 713 348 L416 348 Q384 348 375 311 L309 51 Q301 20 278 1 Q254 -20 221 -20 L102 -20 Q53 -20 26 22 Q8 49 8 79 Q8 92 12 106 L355 1343 Q363 1374 387 1394 Q412 1414 444 1414 L698 1414 Q730 1414 756 1394 Q779 1373 787 1343 L1135 106 Z " />
<glyph glyph-name="B" unicode="B" horiz-adv-x="1120" d="M518 220 Q624 220 689 266 Q763 319 763 427 Q763 532 686 584 Q619 629 505 629 L451 629 Q436 629 423 616 Q410 600 410 577 L410 273 Q410 251 424 235 Q435 222 450 221 Q469 220 518 220 Z M448 1200 Q433 1199 422 1185 Q410 1170 410 1148 L410 912 Q410 890 424 875 Q436 861 451 861 L500 861 Q611 861 672 907 Q732 954 732 1037 Q732 1120 678 1163 Q627 1203 530 1203 Q483 1203 448 1200 Z M824 765 Q940 730 1008 640 Q1081 546 1081 414 Q1081 233 946 112 Q797 -20 431 -20 Q301 -20 194 -9 Q155 -5 133 23 Q109 52 109 89 L109 1324 Q109 1360 130 1388 Q156 1418 191 1422 Q329 1439 493 1439 Q632 1439 718 1421 Q810 1402 880 1357 Q952 1314 994 1244 Q1037 1170 1037 1078 Q1037 979 985 902 Q930 816 824 773 Q823 772 823 769 Q823 766 824 765 Z " />
<glyph glyph-name="C" unicode="C" horiz-adv-x="1060" d="M754 1190 Q574 1190 465 1075 Q346 948 346 716 Q346 498 455 372 Q566 248 756 248 Q831 248 911 266 Q922 269 934 269 Q963 269 986 252 Q1018 229 1024 188 L1036 124 Q1037 115 1037 106 Q1037 80 1024 56 Q1004 22 968 12 Q854 -20 712 -20 Q383 -20 200 187 Q28 380 28 697 Q28 1051 234 1259 Q431 1458 741 1458 Q872 1458 980 1428 Q1017 1415 1036 1381 Q1048 1358 1048 1333 Q1048 1322 1046 1310 L1030 1239 Q1020 1201 989 1181 Q965 1165 938 1165 Q927 1165 914 1168 Q838 1190 754 1190 Z " />
<glyph glyph-name="D" unicode="D" horiz-adv-x="1229" d="M482 233 Q662 233 761 353 Q872 484 872 735 L872 739 Q872 957 772 1076 Q676 1190 504 1190 Q457 1190 420 1185 Q408 1184 399 1171 Q388 1156 388 1136 L388 284 Q388 263 399 249 Q410 235 423 234 Q434 233 449 233 L482 233 Z M967 1284 Q1166 1104 1166 746 Q1166 367 971 167 Q784 -20 418 -20 Q292 -20 186 -9 Q153 -4 131 25 Q109 52 109 90 L109 1323 Q109 1359 129 1387 Q150 1416 186 1421 Q317 1439 476 1439 Q645 1439 763 1402 Q879 1364 967 1284 Z " />
<glyph glyph-name="E" unicode="E" horiz-adv-x="999" d="M852 246 Q893 246 920 215 Q946 186 946 147 L946 79 Q946 39 920 10 Q893 -20 852 -20 L203 -20 Q163 -20 135 11 Q109 38 109 79 L109 1315 Q109 1354 135 1384 Q164 1414 203 1414 L825 1414 Q866 1414 893 1383 Q919 1354 919 1315 L919 1246 Q919 1207 893 1177 Q865 1148 825 1148 L455 1148 Q439 1148 427 1135 Q413 1120 413 1096 L413 902 Q413 878 427 863 Q439 850 455 850 L797 850 Q836 850 865 820 Q890 791 890 751 L890 685 Q890 645 865 616 Q836 586 797 586 L455 586 Q439 586 427 573 Q413 558 413 534 L413 298 Q413 274 427 259 Q439 246 455 246 L852 246 Z " />
<glyph glyph-name="F" unicode="F" horiz-adv-x="957" d="M819 1414 Q858 1414 886 1385 Q911 1356 911 1317 L911 1244 Q911 1206 886 1177 Q858 1148 819 1148 L454 1148 Q439 1148 427 1134 Q413 1119 413 1097 L413 870 Q413 849 427 834 Q439 820 454 820 L787 820 Q825 820 853 791 Q879 761 879 723 L879 653 Q879 615 853 586 Q826 556 787 556 L454 556 Q439 556 427 543 Q413 528 413 506 L413 77 Q413 38 388 9 Q360 -20 321 -20 L202 -20 Q161 -20 135 10 Q109 39 109 77 L109 1317 Q109 1355 135 1384 Q161 1414 202 1414 L819 1414 Z " />
<glyph glyph-name="G" unicode="G" horiz-adv-x="1270" d="M1182 133 Q1182 101 1165 75 Q1145 49 1115 39 Q1031 14 944 -2 Q839 -20 744 -20 Q395 -20 212 176 Q122 268 76 403 Q29 534 29 689 L29 695 Q31 1042 241 1247 Q444 1444 775 1444 Q929 1444 1055 1406 Q1092 1393 1110 1359 Q1123 1336 1123 1311 Q1123 1299 1119 1287 L1104 1218 Q1094 1179 1061 1158 Q1038 1143 1012 1143 Q999 1143 986 1147 Q893 1176 772 1176 Q584 1176 471 1062 Q347 937 347 712 Q347 491 461 365 Q571 242 750 242 Q813 242 856 250 Q870 253 880 267 Q889 281 889 300 L889 513 Q889 536 876 550 Q864 563 849 563 L783 563 Q742 563 715 594 Q690 622 690 661 L690 718 Q690 757 715 785 Q742 816 783 816 L1088 816 Q1129 816 1156 785 Q1182 756 1182 718 L1182 133 Z " />
<glyph glyph-name="H" unicode="H" horiz-adv-x="1312" d="M413 912 Q413 891 426 875 Q438 863 454 863 L846 863 Q861 863 873 875 Q886 891 886 912 L886 1317 Q886 1355 912 1384 Q939 1414 979 1414 L1096 1414 Q1137 1414 1163 1383 Q1189 1355 1189 1317 L1189 77 Q1189 39 1163 11 Q1137 -20 1096 -20 L979 -20 Q939 -20 912 10 Q886 39 886 77 L886 530 Q886 553 873 567 Q861 580 846 580 L454 580 Q438 580 426 567 Q413 553 413 530 L413 77 Q413 39 388 11 Q361 -20 321 -20 L202 -20 Q161 -20 135 11 Q109 39 109 77 L109 1317 Q109 1355 135 1383 Q161 1414 202 1414 L321 1414 Q361 1414 388 1383 Q413 1355 413 1317 L413 912 Z " />
<glyph glyph-name="I" unicode="I" horiz-adv-x="538" d="M317 1414 Q360 1414 388 1383 Q415 1355 415 1316 L415 78 Q415 38 388 11 Q360 -20 317 -20 L208 -20 Q165 -20 135 11 Q109 38 109 78 L109 1316 Q109 1355 136 1383 Q164 1414 208 1414 L317 1414 Z " />
<glyph glyph-name="J" unicode="J" horiz-adv-x="752" d="M530 1437 Q574 1437 602 1406 Q629 1378 629 1339 L629 531 Q629 239 505 105 Q392 -20 163 -20 Q103 -20 38 -9 Q-2 -2 -27 32 Q-45 57 -45 87 Q-45 94 -44 101 L-36 169 Q-31 208 0 232 Q27 255 61 255 Q69 255 76 254 Q104 250 132 250 Q228 250 274 308 Q327 375 327 535 L327 1339 Q327 1378 355 1406 Q383 1437 426 1437 L530 1437 Z " />
<glyph glyph-name="K" unicode="K" horiz-adv-x="1136" d="M420 787 Q436 817 462 859 L485 897 L507 936 L788 1373 Q814 1414 861 1414 L1023 1414 Q1078 1414 1102 1364 Q1111 1344 1111 1326 Q1111 1299 1094 1274 L750 803 L1145 111 Q1157 92 1157 69 Q1157 48 1145 26 Q1120 -20 1069 -20 L908 -20 Q856 -20 831 25 L553 550 Q543 567 529 568 L524 568 Q511 568 502 555 L428 461 Q420 450 420 434 L420 68 Q420 32 396 8 Q371 -20 333 -20 L196 -20 Q158 -20 133 8 Q109 32 109 68 L109 1326 Q109 1362 133 1386 Q158 1414 196 1414 L333 1414 Q371 1414 396 1386 Q420 1362 420 1326 L420 787 Z " />
<glyph glyph-name="L" unicode="L" horiz-adv-x="951" d="M327 1414 Q369 1414 397 1383 Q424 1355 424 1315 L424 303 Q424 280 438 265 Q450 252 467 252 L861 252 Q904 252 931 222 Q958 192 958 154 L958 79 Q958 39 931 11 Q903 -20 861 -20 L206 -20 Q164 -20 136 11 Q109 39 109 79 L109 1315 Q109 1355 136 1383 Q164 1414 206 1414 L327 1414 Z " />
<glyph glyph-name="M" unicode="M" horiz-adv-x="1557" d="M771 441 Q808 647 881 934 L993 1342 Q1001 1372 1027 1393 Q1053 1414 1087 1414 L1347 1414 Q1384 1414 1411 1383 Q1434 1355 1434 1315 L1434 79 Q1434 38 1409 9 Q1384 -20 1347 -20 L1261 -20 Q1224 -20 1198 11 Q1175 38 1175 79 L1175 1089 Q1130 834 1059 559 L934 77 Q925 46 901 24 Q874 3 840 3 L703 3 Q669 3 642 24 Q617 46 609 77 L483 559 Q413 831 368 1084 L368 79 Q368 38 345 11 Q319 -20 281 -20 L196 -20 Q158 -20 132 11 Q109 38 109 79 L109 1315 Q109 1355 132 1383 Q158 1414 196 1414 L456 1414 Q489 1414 516 1393 Q541 1372 550 1341 L663 934 Q734 647 771 441 Z " />
<glyph glyph-name="N" unicode="N" horiz-adv-x="1354" d="M386 1030 Q398 748 398 412 L398 78 Q398 38 371 11 Q343 -20 301 -20 L206 -20 Q164 -20 136 11 Q109 38 109 78 L109 1316 Q109 1355 136 1383 Q164 1414 206 1414 L415 1414 Q473 1414 501 1363 L753 887 Q876 657 967 411 Q943 653 943 994 L943 1316 Q943 1354 971 1384 Q997 1414 1039 1414 L1135 1414 Q1177 1414 1203 1384 Q1231 1354 1231 1316 L1231 78 Q1231 38 1205 11 Q1177 -20 1135 -20 L962 -20 Q904 -20 876 31 L615 535 Q476 798 386 1030 Z " />
<glyph glyph-name="O" unicode="O" horiz-adv-x="1332" d="M650 238 Q789 238 871 374 Q953 508 953 725 Q953 929 872 1062 Q788 1203 648 1203 Q509 1203 425 1065 Q344 933 344 716 Q344 501 427 369 Q511 238 650 238 Z M656 1461 Q944 1461 1113 1244 Q1269 1043 1269 735 Q1269 387 1096 184 Q923 -20 635 -20 Q354 -20 187 193 Q28 395 28 709 Q28 1035 198 1244 Q373 1461 656 1461 Z " />
<glyph glyph-name="P" unicode="P" horiz-adv-x="1134" d="M521 744 Q641 744 709 805 Q779 868 779 981 Q779 1085 717 1141 Q656 1195 545 1195 Q501 1195 464 1190 Q448 1188 436 1175 Q422 1159 422 1136 L422 800 Q422 778 438 762 Q449 747 466 746 Q487 744 521 744 Z M949 1325 Q1017 1267 1054 1182 Q1094 1093 1094 991 Q1094 774 969 647 Q816 492 523 492 Q495 492 470 495 L469 495 Q453 495 440 481 Q422 464 422 441 L422 80 Q422 41 395 11 Q367 -20 324 -20 L207 -20 Q166 -20 136 11 Q109 41 109 80 L109 1326 Q109 1362 131 1389 Q156 1419 196 1425 Q338 1442 529 1442 Q811 1442 949 1325 Z " />
<glyph glyph-name="Q" unicode="Q" horiz-adv-x="1334" d="M834 431 Q847 407 867 407 L869 407 Q893 407 903 433 Q955 556 955 726 Q955 930 876 1062 Q789 1205 650 1205 Q511 1205 427 1066 Q345 934 345 718 Q345 568 387 454 Q429 342 506 287 Q518 278 526 278 Q536 278 549 291 Q565 308 565 327 Q565 340 559 354 L503 470 Q500 478 500 487 Q500 501 508 518 Q524 548 556 567 L637 616 Q668 634 697 634 L703 634 Q740 630 751 606 L834 431 Z M657 1462 Q946 1462 1115 1245 Q1271 1046 1271 736 Q1271 530 1207 369 Q1145 213 1029 116 Q1015 105 1011 86 Q1010 81 1010 76 Q1010 62 1016 50 L1081 -87 Q1084 -95 1084 -103 Q1084 -117 1075 -134 Q1061 -164 1026 -185 L947 -232 Q916 -250 886 -250 L879 -250 Q844 -246 833 -222 L746 -39 Q734 -15 714 -15 L708 -15 Q674 -19 636 -19 Q355 -19 187 195 Q28 397 28 711 Q28 1037 198 1245 Q374 1462 657 1462 Z " />
<glyph glyph-name="R" unicode="R" horiz-adv-x="1169" d="M540 787 Q650 787 714 843 Q779 900 779 998 Q779 1097 718 1151 Q662 1200 558 1201 Q504 1201 463 1197 Q449 1195 437 1181 Q423 1165 423 1144 L423 840 Q423 817 437 802 Q451 787 468 787 L540 787 Z M1106 104 Q1110 91 1110 78 Q1110 47 1092 21 Q1064 -20 1012 -20 L887 -20 Q855 -20 829 -1 Q803 17 795 49 Q768 136 726 319 Q698 453 648 504 Q605 550 511 552 L468 552 Q450 552 437 539 Q423 522 423 499 L423 78 Q423 39 396 11 Q368 -20 326 -20 L206 -20 Q164 -20 136 11 Q109 39 109 78 L109 1328 Q109 1364 133 1393 Q156 1421 195 1425 Q346 1443 523 1443 Q747 1443 892 1334 Q1044 1218 1044 1024 Q1044 888 993 796 Q942 704 852 669 L852 660 Q978 605 1035 388 L1054 314 L1072 240 Q1096 148 1106 104 Z " />
<glyph glyph-name="S" unicode="S" horiz-adv-x="998" d="M613 851 Q792 780 875 677 Q959 574 959 425 Q959 235 826 112 Q682 -20 420 -20 Q263 -20 121 32 Q83 45 68 79 Q56 100 56 124 Q56 134 58 146 L74 220 Q84 262 122 284 Q146 297 170 297 Q189 297 206 290 Q325 246 438 246 Q536 246 589 287 Q643 328 643 401 Q643 468 591 515 Q544 557 422 604 Q58 741 58 1027 Q58 1212 190 1332 Q331 1458 563 1458 Q702 1458 820 1420 Q857 1407 875 1375 Q888 1351 888 1327 Q888 1315 884 1302 L867 1233 Q857 1192 820 1172 Q797 1158 772 1158 Q756 1158 740 1163 Q652 1192 558 1192 Q468 1192 418 1153 Q370 1115 370 1054 Q370 988 429 944 Q475 908 613 851 Z " />
<glyph glyph-name="T" unicode="T" horiz-adv-x="951" d="M940 1433 Q985 1433 1013 1402 Q1040 1372 1040 1333 L1040 1258 Q1040 1216 1013 1188 Q985 1157 940 1157 L719 1157 Q702 1157 689 1145 Q674 1128 674 1106 L674 80 Q674 41 647 11 Q619 -20 574 -20 L461 -20 Q417 -20 389 11 Q361 40 361 80 L361 1106 Q361 1129 346 1145 Q334 1157 317 1157 L102 1157 Q58 1157 30 1186 Q1 1216 1 1258 L1 1333 Q1 1372 28 1402 Q58 1433 102 1433 L940 1433 Z " />
<glyph glyph-name="U" unicode="U" horiz-adv-x="1293" d="M1086 1437 Q1128 1437 1158 1406 Q1184 1379 1184 1339 L1184 633 Q1184 309 1038 142 Q896 -20 628 -20 Q93 -20 93 637 L93 1339 Q93 1379 119 1406 Q149 1437 191 1437 L305 1437 Q348 1437 376 1406 Q403 1379 403 1339 L403 611 Q403 427 466 331 Q526 240 638 240 Q876 240 876 611 L876 1339 Q876 1379 903 1406 Q931 1437 974 1437 L1086 1437 Z " />
<glyph glyph-name="V" unicode="V" horiz-adv-x="1188" d="M1091 1414 Q1142 1414 1172 1372 Q1189 1347 1189 1318 Q1189 1303 1184 1287 L799 49 Q791 18 765 1 Q740 -20 707 -20 L492 -20 Q459 -20 433 1 Q407 20 399 51 L33 1290 Q28 1305 28 1319 Q28 1348 45 1373 Q75 1414 126 1414 L258 1414 Q292 1414 319 1393 Q343 1373 352 1341 L494 806 Q564 543 597 370 L623 370 Q665 577 727 800 L877 1343 Q885 1372 909 1392 Q937 1414 970 1414 L1091 1414 Z " />
<glyph glyph-name="W" unicode="W" horiz-adv-x="1685" d="M1590 1414 Q1639 1414 1669 1374 Q1688 1347 1688 1316 Q1688 1306 1686 1294 L1392 55 Q1383 22 1358 3 Q1331 -20 1295 -20 L1122 -20 Q1084 -20 1057 4 Q1031 26 1025 60 L928 598 Q888 825 870 989 L863 989 Q828 757 794 598 L684 59 Q679 25 652 3 Q625 -20 588 -20 L416 -20 Q377 -20 349 4 Q321 28 313 62 L43 1294 Q41 1306 41 1317 Q41 1348 61 1375 Q91 1414 140 1414 L263 1414 Q301 1414 329 1389 Q355 1367 361 1332 L447 821 Q464 718 485 586 Q499 500 519 364 L520 359 L524 359 Q525 359 526 364 Q550 531 606 825 L702 1328 Q708 1365 738 1390 Q765 1414 805 1414 L957 1414 Q997 1414 1026 1387 Q1055 1363 1061 1327 L1151 810 Q1188 601 1218 365 L1220 365 Q1233 457 1255 592 L1273 708 L1292 826 L1385 1327 Q1391 1363 1419 1388 Q1448 1414 1488 1414 L1590 1414 Z " />
<glyph glyph-name="X" unicode="X" horiz-adv-x="1065" d="M1029 124 Q1041 101 1041 78 Q1041 54 1028 31 Q1000 -20 942 -20 L815 -20 Q752 -20 725 36 L632 242 Q605 296 579 354 Q568 377 554 406 L531 457 Q527 468 513 468 Q510 467 505 455 Q490 414 466 354 L455 328 L443 301 Q429 264 419 242 L334 40 Q322 13 299 -2 Q273 -20 243 -20 L121 -20 Q63 -20 34 30 Q22 54 22 77 Q22 101 34 124 L325 677 Q333 691 333 706 Q333 720 326 735 L47 1270 Q35 1293 35 1317 Q35 1340 47 1363 Q76 1414 133 1414 L259 1414 Q290 1414 315 1396 Q338 1382 350 1355 L441 1150 Q485 1053 517 969 Q523 956 533 954 L539 954 Q548 954 554 970 Q578 1036 623 1150 L710 1354 Q722 1381 746 1396 Q771 1414 801 1414 L922 1414 Q980 1414 1009 1363 Q1022 1340 1022 1316 Q1022 1292 1009 1268 L729 743 Q722 728 722 714 Q722 699 729 684 L1029 124 Z " />
<glyph glyph-name="Y" unicode="Y" horiz-adv-x="972" d="M949 1414 Q1007 1414 1036 1363 Q1049 1340 1049 1316 Q1049 1293 1036 1269 L688 602 Q677 579 677 553 L677 79 Q677 39 649 11 Q621 -20 578 -20 L468 -20 Q424 -20 396 11 Q369 39 369 79 L369 543 Q369 568 359 590 L22 1271 Q11 1294 11 1315 Q11 1340 24 1364 Q53 1414 111 1414 L234 1414 Q266 1414 292 1396 Q315 1378 328 1351 L438 1068 Q480 960 534 810 Q535 807 538 806 L540 810 Q570 902 634 1068 L743 1350 Q753 1378 779 1396 Q804 1414 835 1414 L949 1414 Z " />
<glyph glyph-name="Z" unicode="Z" horiz-adv-x="1062" d="M951 248 Q994 248 1022 217 Q1049 190 1049 150 L1049 78 Q1049 38 1022 11 Q994 -20 951 -20 L109 -20 Q67 -20 37 11 Q11 38 11 78 L11 124 Q11 152 27 178 L625 1111 Q628 1116 628 1125 Q628 1146 613 1146 L168 1146 Q124 1146 97 1176 Q70 1204 70 1244 L70 1316 Q70 1355 97 1383 Q125 1414 168 1414 L941 1414 Q984 1414 1012 1383 Q1040 1355 1040 1316 L1040 1256 Q1040 1228 1023 1204 L445 291 L440 283 L440 280 Q440 261 447 254 Q452 248 459 248 L951 248 Z " />
<glyph glyph-name="bracketleft" unicode="&#x5b;" horiz-adv-x="425" d="M233 1257 L233 -81 L335 -81 Q374 -81 401 -109 Q425 -136 425 -170 Q425 -205 401 -232 Q374 -260 335 -260 L90 -260 Q52 -260 25 -232 Q0 -206 0 -170 L0 1346 Q0 1382 24 1407 Q52 1435 90 1435 L335 1435 Q374 1435 402 1407 Q425 1381 425 1346 Q425 1311 402 1285 Q374 1257 335 1257 L233 1257 Z " />
<glyph glyph-name="backslash" unicode="&#x5c;" horiz-adv-x="577" d="M567 21 Q570 7 570 -6 Q570 -36 552 -62 Q522 -103 471 -103 L462 -103 Q428 -103 401 -81 Q376 -62 368 -30 L10 1316 Q6 1329 6 1341 Q6 1371 25 1399 Q55 1439 105 1439 L116 1439 Q150 1439 176 1419 Q203 1397 211 1366 L567 21 Z " />
<glyph glyph-name="bracketright" unicode="&#x5d;" horiz-adv-x="423" d="M333 1442 Q371 1442 399 1413 Q423 1388 423 1352 L423 -166 Q423 -201 399 -228 Q372 -256 333 -256 L90 -256 Q52 -256 25 -228 Q0 -202 0 -166 Q0 -131 25 -105 Q52 -77 90 -77 L193 -77 L193 1263 L90 1263 Q52 1263 24 1291 Q0 1316 0 1352 Q0 1388 25 1413 Q51 1442 90 1442 L333 1442 Z " />
<glyph glyph-name="asciicircum" unicode="&#x5e;" horiz-adv-x="965" d="M481 1512 L209 1003 Q199 982 174 971 Q150 957 119 957 L107 957 Q52 957 22 991 Q8 1010 8 1029 Q8 1042 15 1056 L358 1654 Q371 1673 395 1686 Q420 1698 450 1698 L515 1698 Q545 1698 571 1686 Q593 1672 606 1654 L949 1056 Q957 1042 957 1028 Q957 1009 942 991 Q912 957 858 957 L842 957 Q811 957 787 971 Q763 982 750 1003 L481 1512 Z " />
<glyph glyph-name="underscore" unicode="&#x5f;" horiz-adv-x="1023" d="M968 106 Q993 106 1008 89 Q1023 74 1023 53 Q1023 34 1008 16 Q992 0 968 0 L55 0 Q31 0 15 16 Q0 34 0 53 Q0 74 15 89 Q30 106 55 106 L968 106 Z " />
<glyph glyph-name="grave" unicode="&#x60;" horiz-adv-x="325" d="M301 1254 Q314 1231 314 1207 Q314 1184 301 1161 Q273 1110 215 1110 L209 1110 Q160 1110 131 1148 L34 1276 Q12 1303 12 1334 Q12 1355 23 1376 Q49 1433 112 1433 L146 1433 Q205 1433 232 1383 L301 1254 Z " />
<glyph glyph-name="a" unicode="a" horiz-adv-x="984" d="M594 443 Q594 466 580 482 Q567 494 550 494 L548 494 Q432 488 358 449 Q271 404 271 325 Q271 267 330 235 Q379 208 438 208 Q489 208 531 241 Q572 274 589 326 Q594 352 594 383 L594 443 Z M613 105 Q567 46 495 13 Q424 -20 346 -20 L337 -20 Q190 -16 102 81 Q19 172 19 299 Q19 492 170 596 Q316 696 576 697 Q585 697 585 712 Q585 767 551 802 Q510 846 415 846 Q331 846 245 815 Q226 808 208 808 Q184 808 161 819 Q124 841 112 882 L109 895 Q106 908 106 922 Q106 943 116 964 Q132 1000 170 1013 Q306 1067 468 1067 Q697 1067 805 932 Q896 820 896 619 L896 101 Q895 61 869 33 Q839 3 796 2 L714 0 Q671 0 639 33 Q613 60 613 98 L613 105 Z " />
<glyph glyph-name="b" unicode="b" horiz-adv-x="1143" d="M585 236 Q678 236 731 310 Q787 389 787 529 Q787 657 736 736 Q682 818 585 818 Q527 818 480 775 Q430 729 415 659 Q409 631 409 599 L409 446 Q409 414 416 387 Q430 320 478 277 Q524 236 585 236 Z M409 928 Q451 990 521 1026 Q600 1067 700 1067 Q879 1067 991 922 Q1103 777 1103 545 L1103 541 Q1103 278 964 123 Q840 -20 656 -20 Q460 -20 367 141 L368 103 L368 100 Q368 62 341 35 Q313 3 270 3 L203 3 Q161 3 132 33 Q105 60 104 99 Q104 119 103 151 L101 202 Q99 264 99 314 L99 1415 Q99 1455 126 1483 Q154 1514 198 1514 L310 1514 Q353 1514 381 1483 Q409 1455 409 1415 L409 928 Z " />
<glyph glyph-name="c" unicode="c" horiz-adv-x="835" d="M807 109 Q808 102 808 96 Q808 67 791 42 Q769 8 730 0 Q644 -20 546 -20 Q308 -20 170 123 Q30 268 30 512 Q30 748 171 901 Q325 1065 587 1065 Q657 1065 727 1050 Q768 1042 790 1007 Q805 984 805 957 Q805 946 803 936 L794 888 Q786 851 755 827 Q729 809 699 809 Q691 809 682 810 Q645 816 601 816 Q488 816 417 736 Q347 655 347 529 L347 525 Q347 385 426 305 Q496 233 607 233 Q650 233 687 239 Q696 240 704 240 Q736 240 762 221 Q794 196 800 156 L807 109 Z " />
<glyph glyph-name="d" unicode="d" horiz-adv-x="1158" d="M726 599 Q726 631 720 659 Q705 730 653 775 Q607 818 549 818 Q452 818 398 736 Q347 657 347 529 Q347 389 402 312 Q456 236 549 236 Q610 236 657 277 Q705 320 719 387 Q726 414 726 446 L726 599 Z M726 928 L726 1415 Q726 1455 753 1483 Q781 1514 825 1514 L936 1514 Q979 1514 1007 1483 Q1035 1455 1035 1415 L1035 314 Q1035 264 1033 203 L1032 152 Q1031 119 1030 99 Q1029 60 1001 31 Q974 3 932 3 L865 3 Q821 3 793 35 Q766 63 766 103 L767 139 Q673 -20 478 -20 Q295 -20 169 123 Q31 278 31 541 L31 545 Q31 777 143 922 Q255 1067 435 1067 Q535 1067 614 1026 Q684 990 726 928 Z " />
<glyph glyph-name="e" unicode="e" horiz-adv-x="1020" d="M619 639 Q639 639 652 657 Q664 672 664 689 Q664 695 662 703 Q650 766 615 805 Q573 850 504 850 Q442 850 397 807 Q359 771 338 708 Q335 700 335 690 Q335 674 345 659 Q359 639 380 639 L619 639 Z M522 1065 Q743 1065 860 901 Q957 761 957 546 Q957 531 956 512 Q954 475 926 446 Q899 418 858 418 L386 418 Q363 418 349 395 Q340 381 340 367 Q340 354 347 340 Q377 281 446 249 Q510 220 593 220 Q685 220 764 237 Q775 240 786 240 Q818 240 843 221 Q877 198 883 158 L888 128 Q890 118 890 108 Q890 82 877 58 Q856 26 819 14 Q696 -20 550 -20 Q303 -20 163 125 Q30 265 30 510 Q30 728 148 884 Q284 1065 522 1065 Z " />
<glyph glyph-name="f" unicode="f" horiz-adv-x="673" d="M603 1512 Q644 1509 670 1478 Q694 1450 694 1413 L693 1356 Q693 1317 667 1288 Q637 1258 594 1258 L591 1258 Q525 1258 489 1206 Q456 1156 456 1073 L456 1053 Q456 1038 465 1028 Q473 1020 483 1020 L551 1020 Q593 1020 623 990 Q649 961 649 922 L649 880 Q649 841 622 813 Q594 782 551 782 L485 782 Q476 782 466 772 Q458 764 458 749 L458 77 Q458 38 431 11 Q403 -20 360 -20 L243 -20 Q202 -20 172 11 Q146 38 146 77 L146 749 Q146 765 137 774 Q130 782 120 782 L118 782 Q75 782 47 813 Q20 841 20 880 L20 922 Q20 961 46 990 Q76 1020 118 1020 L120 1020 Q129 1020 137 1029 Q146 1038 146 1053 L146 1061 Q146 1161 175 1249 Q206 1347 269 1407 Q372 1514 540 1514 Q575 1514 603 1512 Z " />
<glyph glyph-name="g" unicode="g" horiz-adv-x="1109" d="M699 561 Q699 597 692 622 Q676 689 634 726 Q593 764 536 764 Q456 764 403 689 Q344 606 344 468 Q344 346 395 269 Q448 192 536 192 Q589 192 631 228 Q673 263 689 321 Q694 338 696 364 Q699 384 699 408 L699 561 Z M736 869 L738 894 Q742 932 769 958 Q796 985 837 985 L914 985 Q957 985 983 955 Q1011 925 1011 888 L1011 885 Q1008 794 1008 676 L1008 96 Q1008 -231 863 -371 Q721 -500 465 -500 Q315 -500 193 -455 Q157 -443 140 -408 Q129 -387 129 -364 Q129 -354 131 -342 L144 -288 Q154 -247 191 -226 Q215 -214 239 -214 Q256 -214 273 -220 Q365 -254 457 -254 Q566 -254 632 -188 Q703 -117 703 21 L703 83 Q612 -47 443 -47 Q260 -47 145 97 Q30 238 30 461 Q30 704 159 858 Q286 1008 473 1008 Q651 1008 736 869 Z " />
<glyph glyph-name="h" unicode="h" horiz-adv-x="1112" d="M409 904 Q453 963 522 1002 Q592 1043 682 1043 Q836 1043 927 931 Q1024 812 1024 588 L1024 78 Q1024 38 998 11 Q968 -20 926 -20 L812 -20 Q771 -20 741 11 Q714 38 714 78 L714 552 Q714 782 563 782 Q512 782 472 748 Q437 719 418 672 Q409 644 409 597 L409 78 Q409 38 382 11 Q352 -20 311 -20 L197 -20 Q155 -20 125 11 Q99 38 99 78 L99 1393 Q99 1432 125 1459 Q155 1490 197 1490 L311 1490 Q352 1490 382 1459 Q409 1432 409 1393 L409 904 Z " />
<glyph glyph-name="i" unicode="i" horiz-adv-x="516" d="M262 1148 Q189 1148 142 1197 Q100 1241 100 1306 L100 1312 Q100 1381 141 1424 Q189 1473 263 1473 Q337 1473 383 1424 Q426 1380 428 1309 Q428 1242 385 1197 Q337 1148 262 1148 Z M320 1020 Q363 1020 390 990 Q418 961 418 922 L418 79 Q418 38 391 11 Q361 -20 320 -20 L207 -20 Q165 -20 135 11 Q108 38 108 79 L108 922 Q108 961 136 990 Q163 1020 207 1020 L320 1020 Z " />
<glyph glyph-name="j" unicode="j" horiz-adv-x="519" d="M255 1147 Q181 1147 137 1197 Q94 1242 94 1309 Q94 1380 139 1427 Q183 1473 259 1473 Q333 1473 376 1427 Q420 1380 422 1309 Q422 1242 378 1197 Q333 1147 255 1147 Z M316 1020 Q359 1020 387 989 Q413 962 413 923 L413 118 Q413 -199 279 -335 Q177 -437 -6 -459 Q-13 -460 -21 -460 Q-55 -460 -81 -438 Q-111 -412 -115 -374 L-124 -304 L-124 -294 Q-124 -264 -108 -240 Q-88 -209 -52 -198 Q10 -182 43 -145 Q76 -108 88 -33 Q102 40 102 195 L102 923 Q102 962 129 989 Q157 1020 200 1020 L316 1020 Z " />
<glyph glyph-name="k" unicode="k" horiz-adv-x="1028" d="M409 593 Q437 647 470 705 L639 974 Q668 1020 722 1020 L831 1020 Q894 1020 921 962 Q930 941 930 921 Q930 889 907 861 L692 599 L990 130 Q1007 105 1007 78 Q1007 56 995 34 Q969 -20 908 -20 L767 -20 Q709 -20 681 31 L511 345 Q498 367 478 369 L474 369 Q456 369 442 352 L419 321 Q409 307 409 288 L409 77 Q409 38 381 11 Q354 -20 311 -20 L197 -20 Q155 -20 125 11 Q99 38 99 77 L99 1393 Q99 1431 125 1460 Q155 1490 197 1490 L311 1490 Q354 1490 381 1460 Q409 1432 409 1393 L409 593 Z " />
<glyph glyph-name="l" unicode="l" horiz-adv-x="542" d="M321 1490 Q362 1490 392 1459 Q419 1432 419 1392 L419 78 Q419 38 392 11 Q362 -20 321 -20 L208 -20 Q165 -20 135 11 Q109 38 109 78 L109 1392 Q109 1432 135 1459 Q165 1490 208 1490 L321 1490 Z " />
<glyph glyph-name="m" unicode="m" horiz-adv-x="1644" d="M917 872 Q968 945 1038 991 Q1119 1043 1225 1043 Q1376 1043 1463 933 Q1556 815 1556 593 L1556 77 Q1556 38 1529 11 Q1501 -20 1458 -20 L1351 -20 Q1309 -20 1281 11 Q1254 38 1254 77 L1254 546 Q1254 784 1117 784 Q1072 784 1035 752 Q1001 723 984 673 Q972 637 972 588 L972 77 Q972 38 945 11 Q917 -20 875 -20 L768 -20 Q725 -20 697 11 Q671 38 671 77 L671 563 Q671 666 636 725 Q601 784 537 784 Q488 784 450 747 Q419 716 402 669 Q391 638 391 586 L391 77 Q391 38 365 11 Q335 -20 294 -20 L186 -20 Q144 -20 115 10 Q88 38 88 77 L88 263 Q87 388 86 497 Q84 789 83 922 L83 925 Q83 963 111 992 Q138 1020 180 1020 L259 1020 Q299 1020 326 993 Q355 964 356 926 L357 886 Q375 911 394 934 Q422 964 454 986 Q538 1043 650 1043 Q745 1043 817 994 Q886 950 917 872 Z " />
<glyph glyph-name="n" unicode="n" horiz-adv-x="1103" d="M366 883 Q404 944 467 984 Q555 1043 665 1043 Q824 1043 917 933 Q1015 817 1015 597 L1015 77 Q1015 38 988 11 Q958 -20 917 -20 L802 -20 Q760 -20 732 11 Q705 38 705 77 L705 556 Q705 782 558 782 Q504 782 464 746 Q429 714 411 661 Q399 633 399 580 L399 77 Q399 38 372 11 Q344 -20 301 -20 L186 -20 Q145 -20 115 10 Q89 39 89 77 Q88 170 88 264 Q87 389 86 497 Q84 789 83 922 L83 925 Q83 962 108 990 Q139 1020 179 1021 L268 1022 Q311 1022 339 991 Q366 963 366 923 L366 883 Z " />
<glyph glyph-name="o" unicode="o" horiz-adv-x="1095" d="M734 462 Q737 492 737 520 Q737 605 715 675 Q676 797 585 821 Q560 828 539 828 Q461 828 411 738 Q358 644 358 513 Q358 397 396 315 Q443 210 534 202 Q542 201 550 201 Q629 201 680 280 Q725 353 734 462 Z M39 481 Q38 495 38 510 Q38 742 186 891 Q327 1032 537 1042 Q552 1043 566 1043 Q759 1043 896 921 Q1056 777 1056 524 Q1056 279 902 128 Q761 -9 558 -19 Q543 -20 529 -20 Q341 -20 206 98 Q48 235 39 481 Z " />
<glyph glyph-name="p" unicode="p" horiz-adv-x="1126" d="M568 198 Q665 198 719 280 Q770 359 770 487 Q770 627 714 706 Q661 780 568 780 Q507 780 461 739 Q413 696 399 629 Q392 602 392 570 L392 417 Q392 385 398 356 Q413 286 463 240 Q510 198 568 198 Z M350 875 Q443 1036 639 1036 Q823 1036 947 893 Q1086 737 1086 474 L1086 470 Q1086 239 974 93 Q862 -51 683 -51 Q583 -51 504 -10 Q434 25 392 88 L392 -399 Q392 -439 364 -467 Q336 -498 293 -498 L181 -498 Q137 -498 109 -467 Q82 -439 82 -399 L82 702 Q82 752 84 814 L86 865 Q87 896 87 917 Q88 956 117 985 Q144 1012 186 1012 L253 1012 Q296 1012 324 981 Q351 954 351 916 L351 913 L350 875 Z " />
<glyph glyph-name="q" unicode="q" horiz-adv-x="1130" d="M726 571 Q726 603 719 630 Q705 697 657 740 Q610 781 549 781 Q456 781 402 705 Q347 628 347 488 Q347 360 398 281 Q452 199 549 199 Q607 199 654 241 Q705 286 720 357 Q726 386 726 418 L726 571 Z M767 878 L766 914 Q766 954 793 982 Q821 1013 865 1013 L932 1013 Q974 1013 1003 984 Q1029 957 1030 918 Q1031 897 1032 865 L1033 814 Q1035 753 1035 703 L1035 -398 Q1035 -438 1007 -466 Q979 -497 936 -497 L825 -497 Q781 -497 753 -466 Q726 -438 726 -398 L726 89 Q684 26 614 -9 Q535 -50 435 -50 Q255 -50 143 94 Q31 240 31 471 L31 475 Q31 738 169 894 Q295 1037 478 1037 Q673 1037 767 878 Z " />
<glyph glyph-name="r" unicode="r" horiz-adv-x="751" d="M356 842 Q391 949 470 1007 Q542 1058 623 1058 Q653 1058 672 1039 Q692 1019 692 992 L692 839 Q692 805 669 781 Q643 755 606 755 L605 755 Q525 755 472 711 Q417 668 402 590 Q396 557 396 515 L396 78 Q396 39 367 11 Q340 -20 297 -20 L181 -20 Q139 -20 108 11 Q82 40 82 78 L82 937 Q82 975 108 1004 Q139 1035 181 1035 L257 1035 Q302 1035 329 1004 Q355 977 355 939 L355 845 L356 842 Z " />
<glyph glyph-name="s" unicode="s" horiz-adv-x="810" d="M506 636 Q645 586 708 508 Q769 431 771 316 Q771 167 665 76 Q553 -20 348 -20 Q220 -20 113 17 Q76 29 59 64 Q47 85 47 109 Q47 119 49 131 L57 168 Q67 210 105 232 Q127 245 152 245 Q170 245 187 238 Q277 205 348 205 Q471 205 471 293 Q471 334 442 358 Q413 383 331 413 Q186 465 116 551 Q55 625 55 719 L55 725 Q55 870 161 965 Q273 1065 452 1065 Q551 1065 643 1039 Q679 1026 700 992 Q712 970 712 946 Q712 936 710 924 L703 892 Q693 853 658 831 Q633 817 607 817 Q593 817 578 821 Q516 842 462 842 Q410 842 382 821 Q353 798 353 756 Q353 719 386 693 Q417 671 506 636 Z " />
<glyph glyph-name="t" unicode="t" horiz-adv-x="707" d="M452 427 Q452 308 463 283 Q479 243 546 243 Q554 243 565 244 Q606 244 634 215 Q659 190 660 152 L661 80 Q661 47 640 21 Q617 -6 582 -12 Q527 -20 461 -20 Q312 -20 231 72 Q148 164 148 378 L148 761 Q148 780 137 791 Q125 803 113 803 Q74 803 45 833 Q20 858 20 896 L20 949 Q20 985 45 1013 Q73 1041 113 1041 Q125 1041 135 1052 Q148 1065 148 1084 L148 1247 Q148 1284 173 1310 Q202 1339 241 1339 L359 1339 Q398 1339 427 1310 Q452 1284 452 1247 L452 1084 Q452 1065 464 1052 Q474 1041 487 1041 L574 1041 Q614 1041 642 1013 Q667 985 667 949 L667 896 Q667 858 642 833 Q613 803 574 803 L487 803 Q474 803 465 793 Q452 780 452 761 L452 427 Z " />
<glyph glyph-name="u" unicode="u" horiz-adv-x="1082" d="M716 145 Q701 120 680 97 Q653 65 619 41 Q530 -20 413 -20 Q254 -20 165 88 Q69 204 69 433 L69 945 Q69 984 97 1013 Q124 1043 169 1043 L281 1043 Q324 1043 354 1013 Q381 983 381 945 L381 484 Q381 242 526 242 Q579 242 619 277 Q653 306 670 354 Q680 377 680 425 L680 945 Q680 984 708 1013 Q735 1043 780 1043 L893 1043 Q936 1043 966 1013 Q993 985 993 945 L993 525 Q993 270 994 103 Q994 62 966 35 Q938 3 894 3 L815 3 Q773 3 743 35 Q716 63 716 103 L716 145 Z " />
<glyph glyph-name="v" unicode="v" horiz-adv-x="1005" d="M858 1020 Q910 1020 939 977 Q956 952 956 924 Q956 907 950 891 L659 46 Q648 17 625 0 Q599 -20 566 -20 L397 -20 Q365 -20 339 -1 Q314 17 305 46 L25 876 Q19 895 19 912 Q19 944 38 972 Q70 1020 128 1020 L236 1020 Q270 1020 297 999 Q322 979 330 949 L441 536 Q468 436 487 337 Q489 329 492 329 L493 329 Q501 329 503 343 Q524 446 544 536 L651 947 Q659 978 685 998 Q710 1020 746 1020 L858 1020 Z " />
<glyph glyph-name="w" unicode="w" horiz-adv-x="1442" d="M1320 1020 Q1373 1020 1402 978 Q1420 952 1420 922 Q1420 909 1416 895 L1176 52 Q1168 21 1142 2 Q1115 -20 1081 -20 L942 -20 Q905 -20 879 2 Q853 22 845 55 L772 347 Q743 477 718 629 Q717 635 716 635 L713 635 L712 628 Q690 482 656 347 L577 53 Q569 22 542 0 Q516 -20 482 -20 L342 -20 Q308 -20 280 2 Q256 22 247 53 L19 896 Q16 910 16 922 Q16 952 35 979 Q65 1020 116 1020 L219 1020 Q257 1020 284 996 Q311 973 317 939 L379 594 Q413 410 431 278 L433 277 Q445 350 465 440 Q473 475 482 518 L491 556 L498 592 L583 944 Q592 976 617 998 Q645 1020 680 1020 L769 1020 Q805 1020 833 998 Q859 976 865 944 L945 604 Q992 386 1012 276 L1013 277 Q1029 410 1065 606 L1132 941 Q1138 974 1165 997 Q1192 1020 1229 1020 L1320 1020 Z " />
<glyph glyph-name="x" unicode="x" horiz-adv-x="933" d="M475 696 L491 733 L510 774 Q532 819 547 850 L606 966 Q632 1020 693 1020 L787 1020 Q848 1020 875 966 Q887 944 887 922 Q887 895 870 870 L667 553 Q658 539 658 524 Q658 510 667 495 L884 127 Q898 103 898 79 Q898 55 885 31 Q859 -20 799 -20 L683 -20 Q622 -20 596 33 L525 169 Q498 220 453 323 Q440 290 418 244 L400 207 L382 169 L317 35 Q291 -20 229 -20 L129 -20 Q68 -20 42 33 Q29 56 29 79 Q29 104 45 130 L262 481 Q271 496 271 510 Q271 524 262 539 L54 871 Q38 895 38 922 Q38 944 50 967 Q77 1020 137 1020 L246 1020 Q304 1020 332 969 L400 847 L420 807 L439 768 Q463 721 475 696 Z " />
<glyph glyph-name="y" unicode="y" horiz-adv-x="1007" d="M505 324 Q512 355 525 414 L536 464 Q541 491 546 510 L648 946 Q654 978 680 1000 Q708 1022 743 1022 L860 1022 Q913 1022 942 979 Q959 954 959 925 Q959 910 954 894 L772 338 Q730 215 689 73 Q682 50 673 18 L666 -8 L659 -32 Q643 -86 633 -119 Q583 -280 515 -344 Q424 -427 312 -464 Q296 -470 279 -470 Q253 -470 230 -457 Q195 -435 184 -394 L162 -302 Q160 -292 160 -281 Q160 -259 171 -238 Q186 -205 219 -190 Q247 -178 276 -160 Q339 -125 377 -71 Q388 -56 388 -40 Q388 -28 383 -17 Q351 63 224 387 Q176 507 117 657 Q73 768 26 888 Q18 907 18 926 Q18 953 34 977 Q63 1022 117 1022 L242 1022 Q275 1022 302 1001 Q328 981 336 951 L460 510 L467 487 L472 464 Q479 435 486 413 Q498 359 505 324 Z " />
<glyph glyph-name="z" unicode="z" horiz-adv-x="919" d="M766 238 Q809 238 839 206 Q866 179 866 138 L866 79 Q866 39 839 11 Q811 -20 766 -20 L118 -20 Q74 -20 46 11 Q18 39 18 79 L18 131 Q18 163 37 190 L322 574 Q373 641 434 711 Q442 721 442 731 L442 737 Q441 751 431 759 Q425 765 417 765 L151 765 Q107 765 79 796 Q52 824 52 864 L52 921 Q52 961 79 989 Q107 1020 151 1020 L751 1020 Q794 1020 822 991 Q851 961 851 921 L851 861 Q851 827 830 802 L561 435 L533 399 L506 365 Q475 326 453 300 Q447 294 443 278 Q442 275 442 272 Q442 262 449 250 Q459 238 472 238 L766 238 Z " />
<glyph glyph-name="braceleft" unicode="&#x7b;" horiz-adv-x="520" d="M479 1257 Q361 1257 361 1106 Q361 1082 364 1047 L367 1016 Q369 996 371 985 L372 967 L374 951 Q376 930 378 916 Q381 873 381 840 L381 835 Q381 725 337 667 Q297 615 209 594 L209 587 Q297 567 337 514 Q381 455 381 345 L381 340 Q381 305 378 262 Q376 247 374 226 L371 191 L367 159 L364 130 Q361 94 361 72 Q361 -81 479 -81 Q497 -81 510 -94 Q520 -106 520 -119 L520 -221 Q520 -236 511 -247 Q498 -260 479 -260 L443 -260 Q132 -260 132 29 Q132 102 142 196 L146 240 L151 281 Q154 327 154 363 Q154 419 134 451 Q106 496 36 505 Q20 508 9 519 Q0 530 0 544 L0 636 Q0 649 9 660 Q20 671 36 674 Q107 683 134 726 Q154 758 154 817 Q154 867 142 983 Q132 1078 132 1151 Q132 1295 215 1367 Q295 1438 445 1438 L479 1438 Q497 1438 510 1425 Q520 1413 520 1399 L520 1295 Q520 1281 511 1270 Q498 1257 479 1257 Z " />
<glyph glyph-name="bar" unicode="&#x7c;" horiz-adv-x="225" d="M127 1711 Q169 1711 199 1681 Q225 1652 225 1613 L225 -318 Q225 -358 199 -385 Q169 -416 127 -416 L98 -416 Q56 -416 26 -385 Q0 -358 0 -318 L0 1613 Q0 1652 26 1681 Q56 1711 98 1711 L127 1711 Z " />
<glyph glyph-name="braceright" unicode="&#x7d;" horiz-adv-x="520" d="M485 669 Q501 666 511 656 Q520 645 520 632 L520 538 Q520 525 511 514 Q500 503 486 500 Q415 491 387 446 Q366 413 366 358 Q366 307 379 192 L383 148 L387 106 Q391 60 391 24 Q391 -265 78 -265 L41 -265 Q23 -265 12 -254 Q0 -242 0 -226 L0 -124 Q0 -110 12 -98 Q24 -86 41 -86 Q105 -85 132 -46 Q160 -9 160 67 Q160 115 150 187 L146 220 Q144 242 144 257 Q140 300 140 335 L140 340 Q140 451 183 509 Q224 563 314 582 L314 589 Q224 609 183 662 Q140 720 140 830 L140 835 Q140 868 144 911 Q144 925 146 946 L148 963 L150 979 Q160 1054 160 1101 Q160 1248 40 1252 Q23 1252 12 1263 Q0 1275 0 1290 L0 1394 Q0 1409 12 1421 Q24 1433 41 1433 L76 1433 Q227 1433 308 1362 Q391 1290 391 1146 Q391 1092 379 978 Q366 862 366 812 Q366 755 387 721 Q415 678 485 669 Z " />
<glyph glyph-name="asciitilde" unicode="&#x7e;" horiz-adv-x="1043" d="M941 1015 Q987 1015 1016 981 Q1040 954 1040 920 Q1040 913 1039 907 Q1026 753 949 678 Q880 613 767 613 Q698 613 626 641 Q573 662 479 716 Q338 804 291 804 Q230 804 211 709 Q205 676 178 653 Q151 630 114 630 L103 630 Q56 630 26 666 Q4 693 4 726 Q4 734 5 741 Q24 886 100 960 Q170 1028 285 1028 Q357 1028 425 1001 Q477 981 573 925 Q717 843 761 843 Q813 843 831 934 Q837 968 864 990 Q891 1015 928 1015 L941 1015 Z " />
<glyph glyph-name="exclamdown" unicode="&#xa1;" horiz-adv-x="373" d="M61 849 Q62 887 90 912 Q121 941 163 941 L208 941 Q251 941 280 912 Q308 887 310 849 L346 83 L346 78 Q346 41 320 14 Q289 -18 244 -18 L128 -18 Q82 -18 51 14 Q25 41 25 78 L25 83 L61 849 Z M190 1437 Q271 1437 323 1381 Q373 1326 373 1243 Q371 1158 323 1106 Q271 1050 188 1050 Q103 1050 52 1104 Q0 1160 0 1243 Q0 1326 51 1381 Q104 1437 188 1437 L190 1437 Z " />
<glyph glyph-name="cent" unicode="&#xa2;" horiz-adv-x="818" d="M812 102 Q814 93 814 84 Q814 58 798 36 Q777 4 737 -7 Q681 -21 623 -26 L623 -131 Q623 -170 594 -198 Q564 -228 520 -228 L516 -228 Q471 -228 441 -197 Q414 -170 414 -131 L414 -19 Q228 9 110 144 Q0 280 0 493 Q0 689 105 832 Q218 983 414 1023 L414 1129 Q414 1169 441 1197 Q471 1227 516 1227 L520 1227 Q563 1227 594 1198 Q623 1169 623 1129 L623 1033 Q667 1032 721 1018 Q763 1010 784 975 Q800 952 800 925 Q800 915 798 905 L788 861 Q780 823 747 801 Q721 783 689 783 Q680 783 670 784 Q629 791 580 791 Q465 791 395 713 Q324 636 324 504 Q324 367 403 288 Q474 219 583 219 Q636 219 684 227 Q696 230 707 230 Q739 230 765 211 Q799 187 805 146 L812 102 Z " />
<glyph glyph-name="sterling" unicode="&#xa3;" horiz-adv-x="935" d="M831 264 Q876 264 905 233 Q935 205 935 165 L935 98 Q935 59 905 31 Q876 0 831 0 L103 0 Q58 0 29 31 Q0 58 0 98 L0 113 Q0 167 48 196 Q124 242 172 314 Q227 397 227 485 L227 523 Q225 544 211 558 Q199 570 182 570 L125 570 Q81 570 52 599 Q22 629 22 669 L22 693 Q22 733 51 761 Q81 791 125 791 L132 791 Q150 791 164 806 Q177 821 177 840 Q177 843 176 846 Q168 905 168 963 Q168 1161 295 1284 Q423 1406 632 1406 Q713 1406 781 1389 Q823 1378 844 1344 Q860 1321 860 1294 Q860 1284 858 1275 L847 1220 Q839 1181 805 1159 Q777 1141 746 1141 Q736 1141 726 1142 Q689 1149 648 1149 Q552 1149 504 1089 Q464 1038 464 949 Q464 896 475 832 Q478 812 492 802 Q503 791 518 791 L659 791 Q703 791 733 761 Q762 733 762 693 L762 669 Q762 629 732 599 Q703 570 659 570 L554 570 Q537 570 525 558 Q511 544 509 524 Q506 466 492 420 Q464 335 394 270 Q393 269 393 267 Q393 264 391 264 L831 264 Z " />
<glyph glyph-name="currency" unicode="&#xa4;" horiz-adv-x="989" d="M492 669 Q564 669 613 727 Q673 796 673 918 Q673 1024 621 1092 Q569 1159 492 1159 L490 1159 Q415 1159 364 1094 Q310 1025 310 916 Q310 797 372 728 Q424 669 492 669 Z M953 553 Q980 527 980 492 Q980 457 956 430 L955 429 Q927 398 883 398 L879 398 Q833 401 806 436 L750 505 Q741 518 725 521 L722 521 Q711 521 702 515 Q608 452 492 452 Q372 452 284 510 Q275 516 265 516 Q262 516 258 515 Q246 514 236 502 L182 435 Q155 402 109 399 L103 399 Q60 399 34 430 Q9 455 9 488 L9 491 Q10 527 35 553 L117 634 Q132 650 132 665 Q132 677 124 690 Q69 787 69 914 Q69 1037 123 1137 Q130 1150 130 1162 Q130 1178 115 1192 L31 1271 Q4 1295 1 1333 L1 1336 Q1 1370 26 1395 L30 1400 Q60 1432 104 1432 Q149 1431 177 1398 L241 1325 Q250 1314 263 1313 Q266 1312 269 1312 Q278 1312 287 1318 Q374 1375 494 1375 L496 1375 Q615 1375 705 1319 Q714 1313 723 1313 L728 1313 Q741 1316 752 1328 L813 1399 Q842 1432 886 1432 L889 1432 Q931 1432 959 1402 L964 1397 Q988 1370 988 1338 L988 1335 Q987 1297 959 1272 L874 1191 Q858 1177 858 1160 Q858 1150 864 1137 Q914 1036 914 920 Q914 790 862 694 Q854 681 854 669 Q854 654 868 639 L953 553 Z " />
<glyph glyph-name="yen" unicode="&#xa5;" horiz-adv-x="1013" d="M510 818 Q516 836 526 864 L537 891 L547 921 Q573 994 593 1042 L711 1321 Q724 1349 748 1364 Q775 1383 807 1383 L899 1383 Q959 1383 989 1332 Q1002 1309 1002 1285 Q1002 1262 989 1239 L724 778 L886 778 Q922 778 943 757 Q967 733 967 703 Q967 674 945 652 Q921 627 886 627 L690 627 Q674 627 662 615 Q648 601 648 581 L648 538 Q648 518 661 505 Q675 491 690 491 L886 491 Q921 491 943 469 Q967 445 967 416 Q967 386 944 365 Q921 340 886 340 L690 340 Q674 340 662 328 Q648 314 648 293 L648 97 Q648 58 621 31 Q591 0 546 0 L451 0 Q407 0 377 30 Q348 58 348 97 L348 293 Q348 314 335 329 Q323 340 307 340 L113 340 Q78 340 55 363 Q32 386 32 416 Q32 446 54 468 Q79 491 113 491 L307 491 Q322 491 334 503 Q348 518 348 538 L348 581 Q348 601 335 616 Q323 627 307 627 L113 627 Q78 627 55 650 Q32 673 32 703 Q32 732 54 756 Q79 778 113 778 L277 778 L24 1240 Q11 1263 11 1286 Q11 1311 25 1333 Q54 1383 114 1383 L216 1383 Q249 1383 274 1364 Q299 1348 312 1321 L429 1040 Q450 988 474 921 L484 892 L494 865 L510 818 Z " />
<glyph glyph-name="brokenbar" unicode="&#xa6;" horiz-adv-x="225" d="M225 1720 L225 875 Q225 858 197 845 Q167 831 127 831 L98 831 Q58 831 28 845 Q0 858 0 875 L0 1720 L225 1720 Z M0 -321 L0 525 Q0 541 28 554 Q58 568 98 568 L127 568 Q167 568 197 554 Q225 541 225 525 L225 -321 L0 -321 Z " />
<glyph glyph-name="section" unicode="&#xa7;" horiz-adv-x="965" d="M249 891 Q249 791 424 726 Q457 714 516 693 L539 684 L560 677 Q583 668 600 662 Q616 657 630 657 Q652 657 674 671 Q712 696 713 743 L713 747 Q713 844 575 901 Q554 909 523 921 L496 931 L469 942 Q399 968 365 982 Q350 988 335 988 Q318 988 300 980 Q265 964 254 927 Q249 910 249 893 L249 891 Z M837 1469 Q828 1429 790 1407 Q764 1393 737 1393 Q722 1393 706 1397 Q628 1419 538 1419 Q455 1419 409 1392 Q363 1365 363 1317 Q363 1269 417 1235 Q463 1204 578 1168 Q770 1106 854 1036 Q965 945 965 795 Q965 679 881 591 Q858 569 856 536 Q855 531 855 526 Q855 501 869 479 Q908 413 908 340 Q908 166 751 73 Q628 0 453 0 Q279 0 151 53 Q114 67 98 101 Q87 122 87 143 Q87 156 92 171 L95 179 Q107 220 147 239 Q170 250 194 250 Q213 250 233 243 Q342 202 441 202 Q521 202 568 228 Q618 256 618 311 Q618 363 568 399 Q523 432 405 470 Q211 532 121 602 Q0 694 0 836 Q0 955 95 1043 Q119 1066 126 1100 Q128 1110 128 1120 Q128 1144 118 1166 Q88 1226 88 1289 Q88 1444 216 1533 Q338 1618 534 1618 Q663 1618 767 1588 Q808 1576 829 1541 Q842 1519 842 1496 Q842 1484 838 1470 L837 1469 Z " />
<glyph glyph-name="dieresis" unicode="&#xa8;" horiz-adv-x="721" d="M573 1142 Q511 1142 470 1186 Q428 1232 428 1293 Q428 1355 467 1398 Q511 1442 577 1442 Q639 1442 681 1398 Q721 1356 721 1293 Q721 1232 682 1187 Q639 1142 577 1142 L573 1142 Z M149 1142 Q85 1142 43 1186 Q0 1231 0 1293 Q0 1355 42 1398 Q86 1442 151 1442 Q212 1442 254 1398 Q294 1354 294 1293 Q294 1232 254 1187 Q212 1142 151 1142 L149 1142 Z " />
<glyph glyph-name="copyright" unicode="&#xa9;" horiz-adv-x="1290" d="M1212 659 Q1212 386 1048 195 Q968 103 866 53 Q759 0 640 0 Q521 0 412 53 Q308 103 228 195 Q62 386 62 659 Q62 930 229 1121 Q308 1212 412 1262 Q521 1315 640 1315 L642 1315 Q759 1315 866 1262 Q969 1212 1048 1121 Q1212 930 1212 659 Z M636 1194 Q455 1194 326 1039 Q195 882 195 657 Q195 432 326 275 Q455 121 638 121 L640 121 Q821 121 948 274 Q1079 432 1079 657 Q1079 882 948 1039 Q820 1194 638 1194 L636 1194 Z M882 936 Q876 913 855 901 Q840 893 823 893 Q811 893 802 897 Q742 917 684 917 Q581 917 521 849 Q459 779 459 653 Q459 535 522 460 Q584 387 682 387 Q751 387 807 408 Q818 413 832 413 Q848 413 862 405 Q885 394 891 370 L891 368 Q893 362 893 354 Q893 343 889 334 Q881 316 863 307 Q779 262 666 262 Q503 262 407 375 Q319 480 319 647 Q319 823 427 934 Q532 1042 684 1042 Q779 1042 853 1008 Q872 1000 881 982 Q887 971 887 959 Q887 952 885 946 L882 936 Z " />
<glyph glyph-name="ordfeminine" unicode="&#xaa;" horiz-adv-x="576" d="M376 1063 Q296 1062 255 1042 Q202 1015 202 961 Q202 924 226 899 Q247 878 278 878 Q304 878 330 894 Q356 913 365 939 Q372 952 374 967 Q376 976 376 988 L376 1063 Z M389 809 Q317 733 211 733 L204 733 Q110 733 53 796 Q0 854 0 941 Q0 1061 102 1125 Q199 1189 370 1189 L370 1203 Q370 1214 366 1226 Q361 1240 350 1252 Q321 1284 260 1284 Q209 1284 160 1267 Q146 1261 131 1261 Q113 1261 95 1270 Q67 1286 58 1315 Q57 1323 57 1330 Q57 1345 63 1361 Q75 1384 100 1395 Q191 1435 297 1435 Q443 1435 515 1344 Q576 1267 576 1137 L576 910 Q576 842 575 812 Q575 784 554 759 Q533 734 501 734 L465 733 L463 733 Q430 733 409 760 Q390 782 389 809 Z " />
<glyph glyph-name="guillemotleft" unicode="&#xab;" horiz-adv-x="792" d="M231 743 Q222 729 222 714 Q222 700 231 686 L375 447 Q388 425 388 402 Q388 381 376 359 Q348 310 290 310 Q233 310 205 358 L25 667 Q12 691 12 714 Q12 738 25 762 L205 1073 Q233 1121 310 1121 Q348 1121 376 1072 Q389 1050 389 1028 Q389 1006 376 984 L231 743 Z M767 448 Q782 425 782 401 Q782 380 770 359 Q741 310 684 310 Q626 310 598 358 L418 667 Q405 691 405 714 Q405 738 418 762 L598 1073 Q626 1121 704 1121 Q741 1121 770 1072 Q782 1051 782 1030 Q782 1006 767 983 L625 743 Q616 729 616 714 Q616 700 625 686 L767 448 Z " />
<glyph glyph-name="logicalnot" unicode="&#xac;" horiz-adv-x="970" d="M970 1052 L970 470 Q970 434 942 406 Q916 380 874 380 Q833 380 807 406 Q779 434 779 470 L779 854 L95 854 Q54 854 28 880 Q0 908 0 944 L0 961 Q0 997 28 1025 Q55 1052 95 1052 L970 1052 Z " />
<glyph glyph-name="registered" unicode="&#xae;" horiz-adv-x="732" d="M364 749 Q364 731 376 731 L387 731 Q438 731 438 772 Q438 814 390 814 L376 813 Q364 812 364 796 L364 749 Z M311 540 Q287 540 274 553 Q259 568 259 586 L259 836 L284 877 Q297 880 313 882 Q355 887 396 887 Q482 887 520 858 Q552 835 552 786 Q552 764 532 741 Q515 722 486 711 Q485 711 485 708 Q485 705 486 705 Q532 688 545 621 Q547 606 549 594 Q550 589 550 584 Q550 570 541 559 Q526 540 499 540 L491 540 Q450 540 440 576 Q439 582 437 594 L432 613 Q424 661 387 661 L362 661 L362 586 Q362 569 349 555 Q333 540 311 540 Z M395 987 Q300 987 236 907 Q171 827 171 710 Q171 594 238 514 Q303 436 398 436 L403 436 Q496 436 559 514 Q626 595 626 712 Q626 827 558 908 Q493 987 396 987 L395 987 Z M400 1078 Q541 1078 638 969 Q732 862 732 712 Q732 560 638 453 Q541 344 398 344 Q256 344 159 452 Q62 561 62 712 Q62 862 159 970 Q256 1078 398 1078 L400 1078 Z " />
<glyph glyph-name="macron" unicode="&#xaf;" horiz-adv-x="517" d="M517 1319 Q517 1295 499 1276 Q478 1256 449 1256 L68 1256 Q39 1256 18 1276 Q0 1295 0 1319 L0 1372 Q0 1395 17 1414 Q38 1435 68 1435 L449 1435 Q479 1435 500 1414 Q517 1395 517 1372 L517 1319 Z " />
<glyph glyph-name="degree" unicode="&#xb0;" horiz-adv-x="474" d="M238 1389 Q277 1389 301 1418 Q326 1447 326 1492 Q326 1535 302 1566 Q278 1596 238 1596 L236 1596 Q198 1596 175 1565 Q152 1535 152 1490 Q152 1449 177 1419 Q202 1389 238 1389 Z M242 1702 Q353 1702 415 1640 Q474 1583 474 1492 Q474 1403 412 1345 Q348 1283 240 1283 Q130 1283 62 1345 Q0 1402 0 1490 Q0 1580 61 1639 Q126 1702 240 1702 L242 1702 Z " />
<glyph glyph-name="plusminus" unicode="&#xb1;" horiz-adv-x="1055" d="M965 1034 Q1003 1034 1031 1005 Q1055 980 1055 944 L1055 923 Q1055 888 1032 862 Q1004 834 965 834 L632 834 L632 455 Q632 419 608 394 Q580 366 542 366 L513 366 Q474 366 449 394 Q424 419 424 455 L424 834 L90 834 Q52 834 24 862 Q0 887 0 923 L0 944 Q0 980 25 1005 Q51 1034 90 1034 L424 1034 L424 1408 Q424 1444 449 1469 Q474 1497 513 1497 L542 1497 Q580 1497 608 1469 Q632 1444 632 1408 L632 1034 L965 1034 Z M877 200 Q919 200 950 171 Q979 142 979 103 L979 97 Q979 58 950 30 Q920 0 877 0 L179 0 Q135 0 106 29 Q77 58 77 97 L77 103 Q77 142 105 170 Q136 200 179 200 L877 200 Z " />
<glyph glyph-name="acute" unicode="&#xb4;" horiz-adv-x="325" d="M93 1383 Q120 1433 179 1433 L213 1433 Q276 1433 302 1376 Q313 1355 313 1334 Q313 1303 291 1276 L194 1148 Q165 1110 116 1110 L110 1110 Q52 1110 24 1161 Q11 1184 11 1207 Q11 1231 24 1254 L93 1383 Z " />
<glyph glyph-name="mu" unicode="&#xb5;" horiz-adv-x="1027" d="M671 159 Q643 100 586 58 Q513 6 423 6 Q331 6 288 57 L288 -21 Q288 -155 296 -273 L296 -282 Q296 -327 264 -360 Q226 -400 172 -400 L133 -400 Q85 -400 47 -367 Q14 -336 10 -291 Q0 -184 0 -23 L0 942 Q0 991 36 1027 Q71 1062 124 1062 L194 1062 Q248 1062 284 1025 Q318 991 318 942 L318 481 Q318 257 463 257 Q515 257 560 292 Q601 325 617 370 Q629 395 629 442 L629 942 Q629 991 663 1025 Q699 1062 753 1062 L823 1062 Q876 1062 911 1027 Q947 991 947 942 L947 360 Q947 278 978 253 Q1024 218 1024 160 L1024 152 L1020 108 Q1018 62 983 31 Q947 -2 898 -2 L897 -2 Q719 -2 671 159 Z " />
<glyph glyph-name="paragraph" unicode="&#xb6;" horiz-adv-x="902" d="M356 650 Q356 662 349 662 Q301 662 244 685 Q181 712 132 760 Q6 877 4 1059 L4 1072 Q4 1266 117 1383 Q271 1542 606 1542 Q723 1542 810 1532 Q850 1529 877 1499 Q902 1471 902 1436 L902 97 Q902 58 873 30 Q843 0 800 0 Q755 0 726 29 Q697 58 697 97 L697 1294 Q697 1315 684 1328 Q670 1342 653 1342 Q617 1342 589 1314 Q561 1286 561 1245 L561 97 Q561 58 532 31 Q503 0 459 0 Q414 0 385 31 Q356 58 356 97 L356 650 Z " />
<glyph glyph-name="&amp;#xb7;" unicode="&#xb7;" horiz-adv-x="292" d="M147 -93 Q84 -93 41 -47 Q0 -4 0 56 Q0 120 40 162 Q84 207 149 207 Q212 207 252 162 Q292 120 292 56 Q292 -3 252 -48 Q210 -93 149 -93 L147 -93 Z " />
<glyph glyph-name="&amp;#x2219;" unicode="&#x2219;" horiz-adv-x="292" d="M147 -93 Q84 -93 41 -47 Q0 -4 0 56 Q0 120 40 162 Q84 207 149 207 Q212 207 252 162 Q292 120 292 56 Q292 -3 252 -48 Q210 -93 149 -93 L147 -93 Z " />
<glyph glyph-name="cedilla" unicode="&#xb8;" horiz-adv-x="408" d="M261 -74 Q321 -83 363 -125 Q408 -168 408 -229 Q408 -325 332 -372 Q265 -414 156 -414 Q99 -414 48 -398 Q21 -389 10 -364 Q3 -352 3 -337 Q3 -328 7 -316 Q15 -295 38 -283 Q54 -274 73 -274 Q84 -274 93 -277 Q123 -287 145 -287 Q172 -287 188 -276 Q212 -260 212 -231 Q212 -167 54 -153 L123 -9 Q141 28 185 28 L206 28 Q247 28 265 -3 Q275 -18 275 -35 Q275 -49 267 -63 L261 -74 Z " />
<glyph glyph-name="guillemotright" unicode="&#xbb;" horiz-adv-x="792" d="M24 984 Q11 1006 11 1029 Q11 1050 23 1072 Q51 1121 108 1121 Q166 1121 194 1073 L373 764 Q387 740 387 716 Q387 693 373 669 L194 358 Q166 310 128 310 Q50 310 22 358 Q10 380 10 402 Q10 425 23 447 L168 688 Q177 702 177 717 Q177 731 168 746 L24 984 Z M417 984 Q404 1006 404 1029 Q404 1050 416 1072 Q444 1121 502 1121 Q559 1121 587 1073 L767 764 Q781 740 781 716 Q781 693 767 669 L587 358 Q559 310 502 310 L501 310 Q443 310 415 358 Q403 380 403 401 Q403 425 418 448 L561 688 Q570 702 570 717 Q570 731 561 746 L417 984 Z " />
<glyph glyph-name="questiondown" unicode="&#xbf;" horiz-adv-x="724" d="M424 1441 Q506 1441 558 1385 Q608 1331 608 1248 Q608 1164 559 1111 Q508 1054 423 1054 Q337 1054 286 1111 Q237 1164 237 1248 Q237 1331 287 1385 Q339 1441 423 1441 L424 1441 Z M495 954 Q521 954 541 936 Q557 921 560 898 L560 881 Q560 717 440 569 Q380 495 358 454 Q322 394 322 344 Q322 286 359 253 Q394 220 463 219 Q516 219 572 237 Q588 241 603 241 Q629 241 654 229 Q692 208 703 169 L715 128 Q719 115 719 102 Q719 81 709 60 Q693 26 656 12 Q533 -37 394 -37 Q202 -37 95 64 Q0 154 0 293 Q0 399 57 497 Q80 536 115 578 Q127 595 144 616 L159 633 L173 651 Q278 772 278 908 L278 916 Q278 931 290 943 Q301 954 321 954 L495 954 Z " />
<glyph glyph-name="Agrave" unicode="&#xc0;" horiz-adv-x="1093" d="M582 1145 Q577 1121 569 1084 L556 1019 Q540 942 529 896 L467 655 Q465 647 465 640 Q465 623 477 608 Q489 590 509 590 L669 590 Q689 590 701 609 Q713 623 713 640 Q713 648 711 656 L647 896 Q632 946 615 1021 Q609 1047 602 1084 L594 1116 L588 1146 Q587 1145 582 1145 Z M1160 106 Q1164 92 1164 79 Q1164 49 1146 22 Q1119 -20 1070 -20 L939 -20 Q906 -20 883 0 Q859 20 851 49 L780 312 Q770 348 738 348 L441 348 Q409 348 400 311 L334 51 Q326 20 303 1 Q279 -20 246 -20 L127 -20 Q78 -20 51 22 Q33 49 33 79 Q33 92 37 106 L380 1343 Q388 1374 412 1394 Q437 1414 469 1414 L723 1414 Q755 1414 781 1394 Q804 1373 812 1343 L1160 106 Z M688 1664 Q701 1641 701 1617 Q701 1594 688 1571 Q660 1520 602 1520 L596 1520 Q547 1520 518 1558 L421 1686 Q399 1713 399 1744 Q399 1765 410 1786 Q436 1843 499 1843 L533 1843 Q592 1843 619 1793 L688 1664 Z " />
<glyph glyph-name="Aacute" unicode="&#xc1;" horiz-adv-x="1093" d="M582 1145 Q577 1121 569 1084 L556 1019 Q540 942 529 896 L467 655 Q465 647 465 640 Q465 623 477 608 Q489 590 509 590 L669 590 Q689 590 701 609 Q713 623 713 640 Q713 648 711 656 L647 896 Q632 946 615 1021 Q609 1047 602 1084 L594 1116 L588 1146 Q587 1145 582 1145 Z M1160 106 Q1164 92 1164 79 Q1164 49 1146 22 Q1119 -20 1070 -20 L939 -20 Q906 -20 883 0 Q859 20 851 49 L780 312 Q770 348 738 348 L441 348 Q409 348 400 311 L334 51 Q326 20 303 1 Q279 -20 246 -20 L127 -20 Q78 -20 51 22 Q33 49 33 79 Q33 92 37 106 L380 1343 Q388 1374 412 1394 Q437 1414 469 1414 L723 1414 Q755 1414 781 1394 Q804 1373 812 1343 L1160 106 Z M555 1793 Q582 1843 641 1843 L675 1843 Q738 1843 764 1786 Q775 1765 775 1744 Q775 1713 753 1686 L656 1558 Q627 1520 578 1520 L572 1520 Q514 1520 486 1571 Q473 1594 473 1617 Q473 1641 486 1664 L555 1793 Z " />
<glyph glyph-name="Acircumflex" unicode="&#xc2;" horiz-adv-x="1093" d="M582 1145 Q577 1121 569 1084 L556 1019 Q540 942 529 896 L467 655 Q465 647 465 640 Q465 623 477 608 Q489 590 509 590 L669 590 Q689 590 701 609 Q713 623 713 640 Q713 648 711 656 L647 896 Q632 946 615 1021 Q609 1047 602 1084 L594 1116 L588 1146 Q587 1145 582 1145 Z M1160 106 Q1164 92 1164 79 Q1164 49 1146 22 Q1119 -20 1070 -20 L939 -20 Q906 -20 883 0 Q859 20 851 49 L780 312 Q770 348 738 348 L441 348 Q409 348 400 311 L334 51 Q326 20 303 1 Q279 -20 246 -20 L127 -20 Q78 -20 51 22 Q33 49 33 79 Q33 92 37 106 L380 1343 Q388 1374 412 1394 Q437 1414 469 1414 L723 1414 Q755 1414 781 1394 Q804 1373 812 1343 L1160 106 Z M888 1619 Q899 1603 899 1586 Q899 1572 891 1558 Q871 1524 830 1524 L780 1524 Q737 1524 720 1559 L640 1709 L639 1709 L558 1558 Q538 1524 497 1524 L447 1524 Q406 1524 386 1559 Q378 1573 378 1587 Q378 1603 389 1619 L512 1816 Q532 1847 571 1847 L707 1847 Q746 1847 766 1815 L888 1619 Z " />
<glyph glyph-name="Atilde" unicode="&#xc3;" horiz-adv-x="1093" d="M582 1145 Q577 1121 569 1084 L556 1019 Q540 942 529 896 L467 655 Q465 647 465 640 Q465 623 477 608 Q489 590 509 590 L669 590 Q689 590 701 609 Q713 623 713 640 Q713 648 711 656 L647 896 Q632 946 615 1021 Q609 1047 602 1084 L594 1116 L588 1146 Q587 1145 582 1145 Z M1160 106 Q1164 92 1164 79 Q1164 49 1146 22 Q1119 -20 1070 -20 L939 -20 Q906 -20 883 0 Q859 20 851 49 L780 312 Q770 348 738 348 L441 348 Q409 348 400 311 L334 51 Q326 20 303 1 Q279 -20 246 -20 L127 -20 Q78 -20 51 22 Q33 49 33 79 Q33 92 37 106 L380 1343 Q388 1374 412 1394 Q437 1414 469 1414 L723 1414 Q755 1414 781 1394 Q804 1373 812 1343 L1160 106 Z M374 1564 Q344 1564 323 1586 Q306 1605 306 1628 L306 1632 Q314 1731 359 1788 Q405 1843 476 1843 Q512 1843 550 1828 Q563 1823 581 1815 L611 1799 L624 1792 L636 1785 Q650 1776 658 1772 Q679 1760 693 1760 Q723 1760 733 1803 Q739 1825 756 1838 Q775 1853 800 1853 L824 1853 Q855 1853 876 1832 Q892 1813 892 1791 L892 1787 Q878 1581 721 1581 Q682 1581 643 1597 Q629 1601 610 1611 L576 1627 Q520 1660 504 1660 Q479 1660 468 1613 Q462 1592 445 1579 Q426 1564 401 1564 L374 1564 Z " />
<glyph glyph-name="Adieresis" unicode="&#xc4;" horiz-adv-x="1093" d="M582 1145 Q577 1121 569 1084 L556 1019 Q540 942 529 896 L467 655 Q465 647 465 640 Q465 623 477 608 Q489 590 509 590 L669 590 Q689 590 701 609 Q713 623 713 640 Q713 648 711 656 L647 896 Q632 946 615 1021 Q609 1047 602 1084 L594 1116 L588 1146 Q587 1145 582 1145 Z M1160 106 Q1164 92 1164 79 Q1164 49 1146 22 Q1119 -20 1070 -20 L939 -20 Q906 -20 883 0 Q859 20 851 49 L780 312 Q770 348 738 348 L441 348 Q409 348 400 311 L334 51 Q326 20 303 1 Q279 -20 246 -20 L127 -20 Q78 -20 51 22 Q33 49 33 79 Q33 92 37 106 L380 1343 Q388 1374 412 1394 Q437 1414 469 1414 L723 1414 Q755 1414 781 1394 Q804 1373 812 1343 L1160 106 Z M811 1552 Q749 1552 708 1596 Q666 1642 666 1703 Q666 1765 705 1808 Q749 1852 815 1852 Q877 1852 919 1808 Q959 1766 959 1703 Q959 1642 920 1597 Q877 1552 815 1552 L811 1552 Z M387 1552 Q323 1552 281 1596 Q238 1641 238 1703 Q238 1765 280 1808 Q324 1852 389 1852 Q450 1852 492 1808 Q532 1764 532 1703 Q532 1642 492 1597 Q450 1552 389 1552 L387 1552 Z " />
<glyph glyph-name="Aring" unicode="&#xc5;" horiz-adv-x="1093" d="M582 1145 Q577 1121 569 1084 L556 1019 Q540 942 529 896 L467 655 Q465 647 465 640 Q465 623 477 608 Q489 590 509 590 L669 590 Q689 590 701 609 Q713 623 713 640 Q713 648 711 656 L647 896 Q632 946 615 1021 Q609 1047 602 1084 L594 1116 L588 1146 Q587 1145 582 1145 Z M1160 106 Q1164 92 1164 79 Q1164 49 1146 22 Q1119 -20 1070 -20 L939 -20 Q906 -20 883 0 Q859 20 851 49 L780 312 Q770 348 738 348 L441 348 Q409 348 400 311 L334 51 Q326 20 303 1 Q279 -20 246 -20 L127 -20 Q78 -20 51 22 Q33 49 33 79 Q33 92 37 106 L380 1343 Q388 1374 412 1394 Q437 1414 469 1414 L723 1414 Q755 1414 781 1394 Q804 1373 812 1343 L1160 106 Z M593 1567 Q626 1567 647 1593 Q669 1618 669 1658 Q669 1696 648 1722 Q627 1749 593 1749 L591 1749 Q559 1749 539 1722 Q518 1696 518 1656 Q518 1620 540 1593 Q562 1567 593 1567 Z M596 1848 Q697 1848 754 1792 Q807 1740 807 1658 Q807 1577 751 1525 Q693 1468 595 1468 Q495 1468 433 1525 Q377 1576 377 1656 Q377 1737 432 1791 Q491 1848 595 1848 L596 1848 Z " />
<glyph glyph-name="AE" unicode="&#xc6;" horiz-adv-x="1656" d="M706 1197 Q671 1086 639 997 L524 691 Q521 685 521 679 Q521 670 528 662 Q535 651 546 651 L743 651 Q752 651 759 659 Q767 668 767 679 L767 685 L730 998 L727 1022 L724 1048 L717 1099 Q710 1157 706 1197 Z M1544 266 Q1588 266 1617 237 Q1646 208 1646 169 L1646 97 Q1646 58 1617 29 Q1588 0 1544 0 L944 0 Q905 0 875 27 Q848 51 843 86 L811 350 Q808 370 794 380 Q781 391 767 391 L444 391 Q415 391 404 361 L291 65 Q281 35 256 20 Q230 0 195 0 L89 0 Q33 0 3 45 Q-14 70 -14 97 Q-14 114 -7 132 L497 1372 Q507 1400 533 1415 Q558 1434 592 1434 L1469 1434 Q1513 1434 1542 1405 Q1571 1376 1571 1336 L1571 1265 Q1571 1226 1543 1198 Q1512 1168 1469 1168 L1048 1168 Q1036 1168 1026 1157 Q1016 1147 1016 1134 Q1016 1130 1017 1125 L1042 896 Q1044 882 1055 871 Q1063 864 1075 864 L1461 864 Q1505 864 1536 833 Q1563 805 1563 767 L1563 697 Q1563 658 1534 629 Q1505 600 1461 600 L1124 600 Q1111 600 1102 589 Q1092 577 1092 562 L1092 556 L1125 298 Q1127 283 1139 273 Q1146 266 1157 266 L1544 266 Z " />
<glyph glyph-name="Ccedilla" unicode="&#xc7;" horiz-adv-x="1060" d="M458 37 Q309 82 200 207 Q28 400 28 717 Q28 1071 234 1279 Q431 1478 741 1478 Q872 1478 980 1448 Q1017 1435 1036 1401 Q1048 1378 1048 1353 Q1048 1342 1046 1330 L1030 1259 Q1020 1221 989 1201 Q965 1185 938 1185 Q927 1185 914 1188 Q838 1210 754 1210 Q574 1210 465 1095 Q346 968 346 736 Q346 518 455 392 Q566 268 756 268 Q831 268 911 286 Q922 289 934 289 Q963 289 986 272 Q1018 249 1024 208 L1036 144 Q1037 135 1037 126 Q1037 100 1024 76 Q1004 42 968 32 Q854 0 712 0 Q648 0 618 4 L610 0 L604 -11 Q664 -20 706 -62 Q751 -105 751 -166 Q751 -262 675 -309 Q608 -351 499 -351 Q442 -351 391 -335 Q364 -326 353 -301 Q346 -289 346 -274 Q346 -265 350 -253 Q358 -232 381 -220 Q397 -211 416 -211 Q427 -211 436 -214 Q466 -224 488 -224 Q515 -224 531 -213 Q555 -197 555 -168 Q555 -104 397 -90 L458 37 Z " />
<glyph glyph-name="Egrave" unicode="&#xc8;" horiz-adv-x="949" d="M877 246 Q918 246 945 215 Q971 186 971 147 L971 79 Q971 39 945 10 Q918 -20 877 -20 L228 -20 Q188 -20 160 11 Q134 38 134 79 L134 1315 Q134 1354 160 1384 Q189 1414 228 1414 L850 1414 Q891 1414 918 1383 Q944 1354 944 1315 L944 1246 Q944 1207 918 1177 Q890 1148 850 1148 L480 1148 Q464 1148 452 1135 Q438 1120 438 1096 L438 902 Q438 878 452 863 Q464 850 480 850 L822 850 Q861 850 890 820 Q915 791 915 751 L915 685 Q915 645 890 616 Q861 586 822 586 L480 586 Q464 586 452 573 Q438 558 438 534 L438 298 Q438 274 452 259 Q464 246 480 246 L877 246 Z M642 1664 Q655 1641 655 1617 Q655 1594 642 1571 Q614 1520 556 1520 L550 1520 Q501 1520 472 1558 L375 1686 Q353 1713 353 1744 Q353 1765 364 1786 Q390 1843 453 1843 L487 1843 Q546 1843 573 1793 L642 1664 Z " />
<glyph glyph-name="Eacute" unicode="&#xc9;" horiz-adv-x="949" d="M877 246 Q918 246 945 215 Q971 186 971 147 L971 79 Q971 39 945 10 Q918 -20 877 -20 L228 -20 Q188 -20 160 11 Q134 38 134 79 L134 1315 Q134 1354 160 1384 Q189 1414 228 1414 L850 1414 Q891 1414 918 1383 Q944 1354 944 1315 L944 1246 Q944 1207 918 1177 Q890 1148 850 1148 L480 1148 Q464 1148 452 1135 Q438 1120 438 1096 L438 902 Q438 878 452 863 Q464 850 480 850 L822 850 Q861 850 890 820 Q915 791 915 751 L915 685 Q915 645 890 616 Q861 586 822 586 L480 586 Q464 586 452 573 Q438 558 438 534 L438 298 Q438 274 452 259 Q464 246 480 246 L877 246 Z M533 1793 Q560 1843 619 1843 L653 1843 Q716 1843 742 1786 Q753 1765 753 1744 Q753 1713 731 1686 L634 1558 Q605 1520 556 1520 L550 1520 Q492 1520 464 1571 Q451 1594 451 1617 Q451 1641 464 1664 L533 1793 Z " />
<glyph glyph-name="Ecircumflex" unicode="&#xca;" horiz-adv-x="949" d="M877 246 Q918 246 945 215 Q971 186 971 147 L971 79 Q971 39 945 10 Q918 -20 877 -20 L228 -20 Q188 -20 160 11 Q134 38 134 79 L134 1315 Q134 1354 160 1384 Q189 1414 228 1414 L850 1414 Q891 1414 918 1383 Q944 1354 944 1315 L944 1246 Q944 1207 918 1177 Q890 1148 850 1148 L480 1148 Q464 1148 452 1135 Q438 1120 438 1096 L438 902 Q438 878 452 863 Q464 850 480 850 L822 850 Q861 850 890 820 Q915 791 915 751 L915 685 Q915 645 890 616 Q861 586 822 586 L480 586 Q464 586 452 573 Q438 558 438 534 L438 298 Q438 274 452 259 Q464 246 480 246 L877 246 Z M782 1619 Q793 1603 793 1586 Q793 1572 785 1558 Q765 1524 724 1524 L674 1524 Q631 1524 614 1559 L534 1709 L533 1709 L452 1558 Q432 1524 391 1524 L341 1524 Q300 1524 280 1559 Q272 1573 272 1587 Q272 1603 283 1619 L406 1816 Q426 1847 465 1847 L601 1847 Q640 1847 660 1815 L782 1619 Z " />
<glyph glyph-name="Edieresis" unicode="&#xcb;" horiz-adv-x="949" d="M877 246 Q918 246 945 215 Q971 186 971 147 L971 79 Q971 39 945 10 Q918 -20 877 -20 L228 -20 Q188 -20 160 11 Q134 38 134 79 L134 1315 Q134 1354 160 1384 Q189 1414 228 1414 L850 1414 Q891 1414 918 1383 Q944 1354 944 1315 L944 1246 Q944 1207 918 1177 Q890 1148 850 1148 L480 1148 Q464 1148 452 1135 Q438 1120 438 1096 L438 902 Q438 878 452 863 Q464 850 480 850 L822 850 Q861 850 890 820 Q915 791 915 751 L915 685 Q915 645 890 616 Q861 586 822 586 L480 586 Q464 586 452 573 Q438 558 438 534 L438 298 Q438 274 452 259 Q464 246 480 246 L877 246 Z M765 1552 Q703 1552 662 1596 Q620 1642 620 1703 Q620 1765 659 1808 Q703 1852 769 1852 Q831 1852 873 1808 Q913 1766 913 1703 Q913 1642 874 1597 Q831 1552 769 1552 L765 1552 Z M341 1552 Q277 1552 235 1596 Q192 1641 192 1703 Q192 1765 234 1808 Q278 1852 343 1852 Q404 1852 446 1808 Q486 1764 486 1703 Q486 1642 446 1597 Q404 1552 343 1552 L341 1552 Z " />
<glyph glyph-name="Igrave" unicode="&#xcc;" horiz-adv-x="547" d="M401 1414 Q444 1414 472 1383 Q499 1355 499 1316 L499 78 Q499 38 472 11 Q444 -20 401 -20 L292 -20 Q249 -20 219 11 Q193 38 193 78 L193 1316 Q193 1355 220 1383 Q248 1414 292 1414 L401 1414 Z M435 1664 Q448 1641 448 1617 Q448 1594 435 1571 Q407 1520 349 1520 L343 1520 Q294 1520 265 1558 L168 1686 Q146 1713 146 1744 Q146 1765 157 1786 Q183 1843 246 1843 L280 1843 Q339 1843 366 1793 L435 1664 Z " />
<glyph glyph-name="Iacute" unicode="&#xcd;" horiz-adv-x="463" d="M342 1414 Q385 1414 413 1383 Q440 1355 440 1316 L440 78 Q440 38 413 11 Q385 -20 342 -20 L233 -20 Q190 -20 160 11 Q134 38 134 78 L134 1316 Q134 1355 161 1383 Q189 1414 233 1414 L342 1414 Z M267 1793 Q294 1843 353 1843 L387 1843 Q450 1843 476 1786 Q487 1765 487 1744 Q487 1713 465 1686 L368 1558 Q339 1520 290 1520 L284 1520 Q226 1520 198 1571 Q185 1594 185 1617 Q185 1641 198 1664 L267 1793 Z " />
<glyph glyph-name="Icircumflex" unicode="&#xce;" horiz-adv-x="475" d="M338 1414 Q381 1414 409 1383 Q436 1355 436 1316 L436 78 Q436 38 409 11 Q381 -20 338 -20 L229 -20 Q186 -20 156 11 Q130 38 130 78 L130 1316 Q130 1355 157 1383 Q185 1414 229 1414 L338 1414 Z M573 1619 Q584 1603 584 1586 Q584 1572 576 1558 Q556 1524 515 1524 L465 1524 Q422 1524 405 1559 L325 1709 L324 1709 L243 1558 Q223 1524 182 1524 L132 1524 Q91 1524 71 1559 Q63 1573 63 1587 Q63 1603 74 1619 L197 1816 Q217 1847 256 1847 L392 1847 Q431 1847 451 1815 L573 1619 Z " />
<glyph glyph-name="Idieresis" unicode="&#xcf;" horiz-adv-x="521" d="M359 1414 Q402 1414 430 1383 Q457 1355 457 1316 L457 78 Q457 38 430 11 Q402 -20 359 -20 L250 -20 Q207 -20 177 11 Q151 38 151 78 L151 1316 Q151 1355 178 1383 Q206 1414 250 1414 L359 1414 Z M517 1552 Q455 1552 414 1596 Q372 1642 372 1703 Q372 1765 411 1808 Q455 1852 521 1852 Q583 1852 625 1808 Q665 1766 665 1703 Q665 1642 626 1597 Q583 1552 521 1552 L517 1552 Z M93 1552 Q29 1552 -13 1596 Q-56 1641 -56 1703 Q-56 1765 -14 1808 Q30 1852 95 1852 Q156 1852 198 1808 Q238 1764 238 1703 Q238 1642 198 1597 Q156 1552 95 1552 L93 1552 Z " />
<glyph glyph-name="Eth" unicode="&#xd0;" horiz-adv-x="1229" d="M388 677 L388 304 Q388 283 399 269 Q410 255 423 254 Q434 253 449 253 L482 253 Q662 253 761 373 Q859 488 869 677 L388 677 Z M872 783 Q871 978 772 1096 Q676 1210 504 1210 Q457 1210 420 1205 Q408 1204 399 1191 Q388 1176 388 1156 L388 783 L872 783 Z M967 1304 Q1166 1124 1166 766 Q1166 387 971 187 Q784 0 418 0 Q292 0 186 11 Q153 16 131 45 Q109 72 109 110 L109 1343 Q109 1379 129 1407 Q150 1436 186 1441 Q317 1459 476 1459 Q645 1459 763 1422 Q879 1384 967 1304 Z " />
<glyph glyph-name="Ntilde" unicode="&#xd1;" horiz-adv-x="1304" d="M411 1030 Q423 748 423 412 L423 78 Q423 38 396 11 Q368 -20 326 -20 L231 -20 Q189 -20 161 11 Q134 38 134 78 L134 1316 Q134 1355 161 1383 Q189 1414 231 1414 L440 1414 Q498 1414 526 1363 L778 887 Q901 657 992 411 Q968 653 968 994 L968 1316 Q968 1354 996 1384 Q1022 1414 1064 1414 L1160 1414 Q1202 1414 1228 1384 Q1256 1354 1256 1316 L1256 78 Q1256 38 1230 11 Q1202 -20 1160 -20 L987 -20 Q929 -20 901 31 L640 535 Q501 798 411 1030 Z M470 1564 Q440 1564 419 1586 Q402 1605 402 1628 L402 1632 Q410 1731 455 1788 Q501 1843 572 1843 Q608 1843 646 1828 Q659 1823 677 1815 L707 1799 L720 1792 L732 1785 Q746 1776 754 1772 Q775 1760 789 1760 Q819 1760 829 1803 Q835 1825 852 1838 Q871 1853 896 1853 L920 1853 Q951 1853 972 1832 Q988 1813 988 1791 L988 1787 Q974 1581 817 1581 Q778 1581 739 1597 Q725 1601 706 1611 L672 1627 Q616 1660 600 1660 Q575 1660 564 1613 Q558 1592 541 1579 Q522 1564 497 1564 L470 1564 Z " />
<glyph glyph-name="Ograve" unicode="&#xd2;" horiz-adv-x="1282" d="M675 238 Q814 238 896 374 Q978 508 978 725 Q978 929 897 1062 Q813 1203 673 1203 Q534 1203 450 1065 Q369 933 369 716 Q369 501 452 369 Q536 238 675 238 Z M681 1461 Q969 1461 1138 1244 Q1294 1043 1294 735 Q1294 387 1121 184 Q948 -20 660 -20 Q379 -20 212 193 Q53 395 53 709 Q53 1035 223 1244 Q398 1461 681 1461 Z M763 1664 Q776 1641 776 1617 Q776 1594 763 1571 Q735 1520 677 1520 L671 1520 Q622 1520 593 1558 L496 1686 Q474 1713 474 1744 Q474 1765 485 1786 Q511 1843 574 1843 L608 1843 Q667 1843 694 1793 L763 1664 Z " />
<glyph glyph-name="Oacute" unicode="&#xd3;" horiz-adv-x="1282" d="M675 238 Q814 238 896 374 Q978 508 978 725 Q978 929 897 1062 Q813 1203 673 1203 Q534 1203 450 1065 Q369 933 369 716 Q369 501 452 369 Q536 238 675 238 Z M681 1461 Q969 1461 1138 1244 Q1294 1043 1294 735 Q1294 387 1121 184 Q948 -20 660 -20 Q379 -20 212 193 Q53 395 53 709 Q53 1035 223 1244 Q398 1461 681 1461 Z M654 1793 Q681 1843 740 1843 L774 1843 Q837 1843 863 1786 Q874 1765 874 1744 Q874 1713 852 1686 L755 1558 Q726 1520 677 1520 L671 1520 Q613 1520 585 1571 Q572 1594 572 1617 Q572 1641 585 1664 L654 1793 Z " />
<glyph glyph-name="Ocircumflex" unicode="&#xd4;" horiz-adv-x="1282" d="M675 238 Q814 238 896 374 Q978 508 978 725 Q978 929 897 1062 Q813 1203 673 1203 Q534 1203 450 1065 Q369 933 369 716 Q369 501 452 369 Q536 238 675 238 Z M681 1461 Q969 1461 1138 1244 Q1294 1043 1294 735 Q1294 387 1121 184 Q948 -20 660 -20 Q379 -20 212 193 Q53 395 53 709 Q53 1035 223 1244 Q398 1461 681 1461 Z M963 1619 Q974 1603 974 1586 Q974 1572 966 1558 Q946 1524 905 1524 L855 1524 Q812 1524 795 1559 L715 1709 L714 1709 L633 1558 Q613 1524 572 1524 L522 1524 Q481 1524 461 1559 Q453 1573 453 1587 Q453 1603 464 1619 L587 1816 Q607 1847 646 1847 L782 1847 Q821 1847 841 1815 L963 1619 Z " />
<glyph glyph-name="Otilde" unicode="&#xd5;" horiz-adv-x="1282" d="M675 238 Q814 238 896 374 Q978 508 978 725 Q978 929 897 1062 Q813 1203 673 1203 Q534 1203 450 1065 Q369 933 369 716 Q369 501 452 369 Q536 238 675 238 Z M681 1461 Q969 1461 1138 1244 Q1294 1043 1294 735 Q1294 387 1121 184 Q948 -20 660 -20 Q379 -20 212 193 Q53 395 53 709 Q53 1035 223 1244 Q398 1461 681 1461 Z M449 1564 Q419 1564 398 1586 Q381 1605 381 1628 L381 1632 Q389 1731 434 1788 Q480 1843 551 1843 Q587 1843 625 1828 Q638 1823 656 1815 L686 1799 L699 1792 L711 1785 Q725 1776 733 1772 Q754 1760 768 1760 Q798 1760 808 1803 Q814 1825 831 1838 Q850 1853 875 1853 L899 1853 Q930 1853 951 1832 Q967 1813 967 1791 L967 1787 Q953 1581 796 1581 Q757 1581 718 1597 Q704 1601 685 1611 L651 1627 Q595 1660 579 1660 Q554 1660 543 1613 Q537 1592 520 1579 Q501 1564 476 1564 L449 1564 Z " />
<glyph glyph-name="Odieresis" unicode="&#xd6;" horiz-adv-x="1282" d="M675 238 Q814 238 896 374 Q978 508 978 725 Q978 929 897 1062 Q813 1203 673 1203 Q534 1203 450 1065 Q369 933 369 716 Q369 501 452 369 Q536 238 675 238 Z M681 1461 Q969 1461 1138 1244 Q1294 1043 1294 735 Q1294 387 1121 184 Q948 -20 660 -20 Q379 -20 212 193 Q53 395 53 709 Q53 1035 223 1244 Q398 1461 681 1461 Z M886 1552 Q824 1552 783 1596 Q741 1642 741 1703 Q741 1765 780 1808 Q824 1852 890 1852 Q952 1852 994 1808 Q1034 1766 1034 1703 Q1034 1642 995 1597 Q952 1552 890 1552 L886 1552 Z M462 1552 Q398 1552 356 1596 Q313 1641 313 1703 Q313 1765 355 1808 Q399 1852 464 1852 Q525 1852 567 1808 Q607 1764 607 1703 Q607 1642 567 1597 Q525 1552 464 1552 L462 1552 Z " />
<glyph glyph-name="multiply" unicode="&#xd7;" horiz-adv-x="985" d="M959 162 Q985 135 985 98 Q985 62 960 34 L958 32 Q927 0 882 0 Q837 0 806 33 L493 368 L179 33 Q148 0 103 0 Q58 0 27 32 L25 34 Q0 62 0 98 Q0 135 26 162 L355 515 L26 870 Q0 897 0 934 Q0 971 26 998 Q56 1030 102 1030 Q146 1030 177 997 L493 659 L809 997 Q838 1030 884 1030 Q929 1030 959 998 Q985 971 985 934 Q985 897 959 870 L631 515 L959 162 Z " />
<glyph glyph-name="Oslash" unicode="&#xd8;" horiz-adv-x="1332" d="M644 258 L650 258 Q789 258 871 394 Q953 528 953 745 Q953 946 875 1078 L644 258 Z M454 347 L700 1219 Q686 1223 648 1223 Q509 1223 425 1085 Q344 953 344 736 Q344 521 427 389 L454 347 Z M375 56 Q273 103 187 213 Q28 415 28 729 Q28 1055 198 1264 Q373 1481 656 1481 Q732 1481 781 1470 L793 1478 Q819 1499 854 1499 L863 1499 Q914 1499 944 1458 Q962 1432 962 1402 L963 1400 Q1042 1355 1113 1264 Q1269 1063 1269 755 Q1269 407 1096 204 Q923 0 635 0 Q590 0 570 3 Q567 -5 547 -21 Q519 -43 485 -43 L475 -43 Q424 -43 394 -2 Q376 24 376 54 L375 56 Z " />
<glyph glyph-name="Ugrave" unicode="&#xd9;" horiz-adv-x="1243" d="M1111 1437 Q1153 1437 1183 1406 Q1209 1379 1209 1339 L1209 633 Q1209 309 1063 142 Q921 -20 653 -20 Q118 -20 118 637 L118 1339 Q118 1379 144 1406 Q174 1437 216 1437 L330 1437 Q373 1437 401 1406 Q428 1379 428 1339 L428 611 Q428 427 491 331 Q551 240 663 240 Q901 240 901 611 L901 1339 Q901 1379 928 1406 Q956 1437 999 1437 L1111 1437 Z M753 1664 Q766 1641 766 1617 Q766 1594 753 1571 Q725 1520 667 1520 L661 1520 Q612 1520 583 1558 L486 1686 Q464 1713 464 1744 Q464 1765 475 1786 Q501 1843 564 1843 L598 1843 Q657 1843 684 1793 L753 1664 Z " />
<glyph glyph-name="Uacute" unicode="&#xda;" horiz-adv-x="1243" d="M1111 1437 Q1153 1437 1183 1406 Q1209 1379 1209 1339 L1209 633 Q1209 309 1063 142 Q921 -20 653 -20 Q118 -20 118 637 L118 1339 Q118 1379 144 1406 Q174 1437 216 1437 L330 1437 Q373 1437 401 1406 Q428 1379 428 1339 L428 611 Q428 427 491 331 Q551 240 663 240 Q901 240 901 611 L901 1339 Q901 1379 928 1406 Q956 1437 999 1437 L1111 1437 Z M644 1793 Q671 1843 730 1843 L764 1843 Q827 1843 853 1786 Q864 1765 864 1744 Q864 1713 842 1686 L745 1558 Q716 1520 667 1520 L661 1520 Q603 1520 575 1571 Q562 1594 562 1617 Q562 1641 575 1664 L644 1793 Z " />
<glyph glyph-name="Ucircumflex" unicode="&#xdb;" horiz-adv-x="1243" d="M1111 1437 Q1153 1437 1183 1406 Q1209 1379 1209 1339 L1209 633 Q1209 309 1063 142 Q921 -20 653 -20 Q118 -20 118 637 L118 1339 Q118 1379 144 1406 Q174 1437 216 1437 L330 1437 Q373 1437 401 1406 Q428 1379 428 1339 L428 611 Q428 427 491 331 Q551 240 663 240 Q901 240 901 611 L901 1339 Q901 1379 928 1406 Q956 1437 999 1437 L1111 1437 Z M953 1619 Q964 1603 964 1586 Q964 1572 956 1558 Q936 1524 895 1524 L845 1524 Q802 1524 785 1559 L705 1709 L704 1709 L623 1558 Q603 1524 562 1524 L512 1524 Q471 1524 451 1559 Q443 1573 443 1587 Q443 1603 454 1619 L577 1816 Q597 1847 636 1847 L772 1847 Q811 1847 831 1815 L953 1619 Z " />
<glyph glyph-name="Udieresis" unicode="&#xdc;" horiz-adv-x="1243" d="M1111 1437 Q1153 1437 1183 1406 Q1209 1379 1209 1339 L1209 633 Q1209 309 1063 142 Q921 -20 653 -20 Q118 -20 118 637 L118 1339 Q118 1379 144 1406 Q174 1437 216 1437 L330 1437 Q373 1437 401 1406 Q428 1379 428 1339 L428 611 Q428 427 491 331 Q551 240 663 240 Q901 240 901 611 L901 1339 Q901 1379 928 1406 Q956 1437 999 1437 L1111 1437 Z M876 1552 Q814 1552 773 1596 Q731 1642 731 1703 Q731 1765 770 1808 Q814 1852 880 1852 Q942 1852 984 1808 Q1024 1766 1024 1703 Q1024 1642 985 1597 Q942 1552 880 1552 L876 1552 Z M452 1552 Q388 1552 346 1596 Q303 1641 303 1703 Q303 1765 345 1808 Q389 1852 454 1852 Q515 1852 557 1808 Q597 1764 597 1703 Q597 1642 557 1597 Q515 1552 454 1552 L452 1552 Z " />
<glyph glyph-name="Yacute" unicode="&#xdd;" horiz-adv-x="922" d="M974 1414 Q1032 1414 1061 1363 Q1074 1340 1074 1316 Q1074 1293 1061 1269 L713 602 Q702 579 702 553 L702 79 Q702 39 674 11 Q646 -20 603 -20 L493 -20 Q449 -20 421 11 Q394 39 394 79 L394 543 Q394 568 384 590 L47 1271 Q36 1294 36 1315 Q36 1340 49 1364 Q78 1414 136 1414 L259 1414 Q291 1414 317 1396 Q340 1378 353 1351 L463 1068 Q505 960 559 810 Q560 807 563 806 L565 810 Q595 902 659 1068 L768 1350 Q778 1378 804 1396 Q829 1414 860 1414 L974 1414 Z M535 1793 Q562 1843 621 1843 L655 1843 Q718 1843 744 1786 Q755 1765 755 1744 Q755 1713 733 1686 L636 1558 Q607 1520 558 1520 L552 1520 Q494 1520 466 1571 Q453 1594 453 1617 Q453 1641 466 1664 L535 1793 Z " />
<glyph glyph-name="Thorn" unicode="&#xde;" horiz-adv-x="1119" d="M758 551 Q758 676 709 755 Q659 836 577 836 Q527 836 486 805 Q443 774 420 718 Q412 698 407 676 Q402 650 402 629 L402 457 Q402 416 420 369 Q443 312 486 281 Q527 251 577 251 Q659 251 709 331 Q758 410 758 536 L758 551 Z M402 949 Q491 1089 672 1089 L680 1089 Q751 1089 817 1055 Q886 1018 938 951 Q1054 800 1054 555 L1054 531 Q1054 286 938 136 Q886 68 817 32 Q751 -2 680 -2 L672 -2 Q491 -2 402 137 L402 -73 Q402 -123 365 -158 Q329 -196 274 -196 L237 -196 Q182 -196 146 -160 Q109 -123 109 -73 L109 1159 Q109 1209 146 1246 Q182 1282 237 1282 L274 1282 Q329 1282 365 1244 Q402 1209 402 1159 L402 949 Z " />
<glyph glyph-name="germandbls" unicode="&#xdf;" horiz-adv-x="1170" d="M201 23 Q157 23 127 54 Q99 82 99 120 L99 940 Q99 1271 255 1422 Q390 1557 625 1557 Q816 1557 940 1448 Q1066 1340 1066 1163 Q1066 1143 1063 1121 Q1052 1023 971 962 Q901 909 901 840 Q901 775 974 698 L986 683 L1000 668 Q1014 649 1025 636 Q1056 599 1077 563 Q1131 471 1131 366 Q1131 202 1024 104 Q913 0 718 0 Q655 0 595 9 Q551 16 526 51 Q510 75 510 102 Q510 111 511 120 L518 164 Q524 203 555 226 Q583 247 618 247 Q626 247 633 246 Q655 242 679 242 Q739 242 775 273 Q810 302 810 351 Q810 390 792 426 Q777 455 737 500 L724 514 L712 528 Q696 544 684 558 Q654 594 635 626 Q581 710 581 800 Q581 947 708 1039 Q760 1076 760 1139 L760 1140 Q760 1216 717 1262 Q674 1310 607 1310 Q417 1310 417 968 L417 120 Q417 82 389 54 Q359 23 315 23 L201 23 Z " />
<glyph glyph-name="agrave" unicode="&#xe0;" horiz-adv-x="934" d="M619 443 Q619 466 605 482 Q592 494 575 494 L573 494 Q457 488 383 449 Q296 404 296 325 Q296 267 355 235 Q404 208 463 208 Q514 208 556 241 Q597 274 614 326 Q619 352 619 383 L619 443 Z M638 105 Q592 46 520 13 Q449 -20 371 -20 L362 -20 Q215 -16 127 81 Q44 172 44 299 Q44 492 195 596 Q341 696 601 697 Q610 697 610 712 Q610 767 576 802 Q535 846 440 846 Q356 846 270 815 Q251 808 233 808 Q209 808 186 819 Q149 841 137 882 L134 895 Q131 908 131 922 Q131 943 141 964 Q157 1000 195 1013 Q331 1067 493 1067 Q722 1067 830 932 Q921 820 921 619 L921 101 Q920 61 894 33 Q864 3 821 2 L739 0 Q696 0 664 33 Q638 60 638 98 L638 105 Z M572 1254 Q585 1231 585 1207 Q585 1184 572 1161 Q544 1110 486 1110 L480 1110 Q431 1110 402 1148 L305 1276 Q283 1303 283 1334 Q283 1355 294 1376 Q320 1433 383 1433 L417 1433 Q476 1433 503 1383 L572 1254 Z " />
<glyph glyph-name="aacute" unicode="&#xe1;" horiz-adv-x="934" d="M619 443 Q619 466 605 482 Q592 494 575 494 L573 494 Q457 488 383 449 Q296 404 296 325 Q296 267 355 235 Q404 208 463 208 Q514 208 556 241 Q597 274 614 326 Q619 352 619 383 L619 443 Z M638 105 Q592 46 520 13 Q449 -20 371 -20 L362 -20 Q215 -16 127 81 Q44 172 44 299 Q44 492 195 596 Q341 696 601 697 Q610 697 610 712 Q610 767 576 802 Q535 846 440 846 Q356 846 270 815 Q251 808 233 808 Q209 808 186 819 Q149 841 137 882 L134 895 Q131 908 131 922 Q131 943 141 964 Q157 1000 195 1013 Q331 1067 493 1067 Q722 1067 830 932 Q921 820 921 619 L921 101 Q920 61 894 33 Q864 3 821 2 L739 0 Q696 0 664 33 Q638 60 638 98 L638 105 Z M463 1383 Q490 1433 549 1433 L583 1433 Q646 1433 672 1376 Q683 1355 683 1334 Q683 1303 661 1276 L564 1148 Q535 1110 486 1110 L480 1110 Q422 1110 394 1161 Q381 1184 381 1207 Q381 1231 394 1254 L463 1383 Z " />
<glyph glyph-name="acircumflex" unicode="&#xe2;" horiz-adv-x="934" d="M619 443 Q619 466 605 482 Q592 494 575 494 L573 494 Q457 488 383 449 Q296 404 296 325 Q296 267 355 235 Q404 208 463 208 Q514 208 556 241 Q597 274 614 326 Q619 352 619 383 L619 443 Z M638 105 Q592 46 520 13 Q449 -20 371 -20 L362 -20 Q215 -16 127 81 Q44 172 44 299 Q44 492 195 596 Q341 696 601 697 Q610 697 610 712 Q610 767 576 802 Q535 846 440 846 Q356 846 270 815 Q251 808 233 808 Q209 808 186 819 Q149 841 137 882 L134 895 Q131 908 131 922 Q131 943 141 964 Q157 1000 195 1013 Q331 1067 493 1067 Q722 1067 830 932 Q921 820 921 619 L921 101 Q920 61 894 33 Q864 3 821 2 L739 0 Q696 0 664 33 Q638 60 638 98 L638 105 Z M772 1209 Q783 1193 783 1176 Q783 1162 775 1148 Q755 1114 714 1114 L664 1114 Q621 1114 604 1149 L524 1299 L523 1299 L442 1148 Q422 1114 381 1114 L331 1114 Q290 1114 270 1149 Q262 1163 262 1177 Q262 1193 273 1209 L396 1406 Q416 1437 455 1437 L591 1437 Q630 1437 650 1405 L772 1209 Z " />
<glyph glyph-name="atilde" unicode="&#xe3;" horiz-adv-x="934" d="M619 443 Q619 466 605 482 Q592 494 575 494 L573 494 Q457 488 383 449 Q296 404 296 325 Q296 267 355 235 Q404 208 463 208 Q514 208 556 241 Q597 274 614 326 Q619 352 619 383 L619 443 Z M638 105 Q592 46 520 13 Q449 -20 371 -20 L362 -20 Q215 -16 127 81 Q44 172 44 299 Q44 492 195 596 Q341 696 601 697 Q610 697 610 712 Q610 767 576 802 Q535 846 440 846 Q356 846 270 815 Q251 808 233 808 Q209 808 186 819 Q149 841 137 882 L134 895 Q131 908 131 922 Q131 943 141 964 Q157 1000 195 1013 Q331 1067 493 1067 Q722 1067 830 932 Q921 820 921 619 L921 101 Q920 61 894 33 Q864 3 821 2 L739 0 Q696 0 664 33 Q638 60 638 98 L638 105 Z M258 1154 Q228 1154 207 1176 Q190 1195 190 1218 L190 1222 Q198 1321 243 1378 Q289 1433 360 1433 Q396 1433 434 1418 Q447 1413 465 1405 L495 1389 L508 1382 L520 1375 Q534 1366 542 1362 Q563 1350 577 1350 Q607 1350 617 1393 Q623 1415 640 1428 Q659 1443 684 1443 L708 1443 Q739 1443 760 1422 Q776 1403 776 1381 L776 1377 Q762 1171 605 1171 Q566 1171 527 1187 Q513 1191 494 1201 L460 1217 Q404 1250 388 1250 Q363 1250 352 1203 Q346 1182 329 1169 Q310 1154 285 1154 L258 1154 Z " />
<glyph glyph-name="adieresis" unicode="&#xe4;" horiz-adv-x="942" d="M627 443 Q627 466 613 482 Q600 494 583 494 L581 494 Q465 488 391 449 Q304 404 304 325 Q304 267 363 235 Q412 208 471 208 Q522 208 564 241 Q605 274 622 326 Q627 352 627 383 L627 443 Z M646 105 Q600 46 528 13 Q457 -20 379 -20 L370 -20 Q223 -16 135 81 Q52 172 52 299 Q52 492 203 596 Q349 696 609 697 Q618 697 618 712 Q618 767 584 802 Q543 846 448 846 Q364 846 278 815 Q259 808 241 808 Q217 808 194 819 Q157 841 145 882 L142 895 Q139 908 139 922 Q139 943 149 964 Q165 1000 203 1013 Q339 1067 501 1067 Q730 1067 838 932 Q929 820 929 619 L929 101 Q928 61 902 33 Q872 3 829 2 L747 0 Q704 0 672 33 Q646 60 646 98 L646 105 Z M703 1142 Q641 1142 600 1186 Q558 1232 558 1293 Q558 1355 597 1398 Q641 1442 707 1442 Q769 1442 811 1398 Q851 1356 851 1293 Q851 1232 812 1187 Q769 1142 707 1142 L703 1142 Z M279 1142 Q215 1142 173 1186 Q130 1231 130 1293 Q130 1355 172 1398 Q216 1442 281 1442 Q342 1442 384 1398 Q424 1354 424 1293 Q424 1232 384 1187 Q342 1142 281 1142 L279 1142 Z " />
<glyph glyph-name="aring" unicode="&#xe5;" horiz-adv-x="934" d="M619 443 Q619 466 605 482 Q592 494 575 494 L573 494 Q457 488 383 449 Q296 404 296 325 Q296 267 355 235 Q404 208 463 208 Q514 208 556 241 Q597 274 614 326 Q619 352 619 383 L619 443 Z M638 105 Q592 46 520 13 Q449 -20 371 -20 L362 -20 Q215 -16 127 81 Q44 172 44 299 Q44 492 195 596 Q341 696 601 697 Q610 697 610 712 Q610 767 576 802 Q535 846 440 846 Q356 846 270 815 Q251 808 233 808 Q209 808 186 819 Q149 841 137 882 L134 895 Q131 908 131 922 Q131 943 141 964 Q157 1000 195 1013 Q331 1067 493 1067 Q722 1067 830 932 Q921 820 921 619 L921 101 Q920 61 894 33 Q864 3 821 2 L739 0 Q696 0 664 33 Q638 60 638 98 L638 105 Z M477 1187 Q510 1187 531 1213 Q553 1238 553 1278 Q553 1316 532 1342 Q511 1369 477 1369 L475 1369 Q443 1369 423 1342 Q402 1316 402 1276 Q402 1240 424 1213 Q446 1187 477 1187 Z M480 1468 Q581 1468 638 1412 Q691 1360 691 1278 Q691 1197 635 1145 Q577 1088 479 1088 Q379 1088 317 1145 Q261 1196 261 1276 Q261 1357 316 1411 Q375 1468 479 1468 L480 1468 Z " />
<glyph glyph-name="ae" unicode="&#xe6;" horiz-adv-x="1531" d="M885 757 Q893 713 895 664 Q900 659 915 659 L1154 659 Q1174 659 1187 677 Q1199 692 1199 709 Q1199 715 1197 723 Q1185 786 1150 825 Q1108 870 1039 870 Q977 870 932 827 Q901 798 885 757 Z M590 336 Q568 412 565 497 Q563 499 550 499 L548 499 Q432 493 358 454 Q271 409 271 330 Q271 272 330 240 Q379 213 438 213 Q489 213 531 246 Q572 279 589 331 L589 332 L590 336 Z M613 110 Q567 51 495 18 Q424 -15 346 -15 L337 -15 Q190 -11 102 86 Q19 177 19 304 Q19 497 170 601 Q316 701 576 702 Q585 702 585 717 Q585 772 551 807 Q510 851 415 851 Q331 851 245 820 Q226 813 208 813 Q184 813 161 824 Q124 846 112 887 L109 900 Q106 913 106 927 Q106 948 116 969 Q132 1005 170 1018 Q306 1072 468 1072 Q669 1072 758 985 Q866 1085 1057 1085 Q1278 1085 1395 921 Q1492 781 1492 566 Q1492 551 1491 532 Q1489 495 1461 466 Q1434 438 1393 438 L921 438 Q903 438 896 431 L896 337 Q924 295 981 269 Q1045 240 1128 240 Q1220 240 1299 257 Q1310 260 1321 260 Q1353 260 1378 241 Q1412 218 1418 178 L1423 148 Q1425 138 1425 128 Q1425 102 1412 78 Q1391 46 1354 34 Q1231 0 1085 0 Q950 0 868 34 L867 36 Q839 8 796 7 L714 5 Q671 5 639 38 Q613 65 613 103 L613 110 Z " />
<glyph glyph-name="ccedilla" unicode="&#xe7;" horiz-adv-x="835" d="M330 37 Q245 66 168 145 Q30 288 30 532 Q30 768 171 921 Q325 1085 587 1085 Q657 1085 727 1070 Q768 1062 790 1027 Q805 1004 805 977 Q805 966 803 956 L794 908 Q786 871 755 847 Q729 829 699 829 Q691 829 682 830 Q645 836 601 836 Q488 836 417 756 Q347 675 347 549 L347 545 Q347 405 426 325 Q496 253 607 253 Q650 253 687 259 Q696 260 704 260 Q736 260 762 241 Q794 216 800 176 L807 129 Q808 122 808 116 Q808 87 791 62 Q769 28 730 20 Q644 0 546 0 Q501 0 489 2 L481 -3 L475 -14 Q535 -23 577 -65 Q622 -108 622 -169 Q622 -265 546 -312 Q479 -354 370 -354 Q313 -354 262 -338 Q235 -329 224 -304 Q217 -292 217 -277 Q217 -268 221 -256 Q229 -235 252 -223 Q268 -214 287 -214 Q298 -214 307 -217 Q337 -227 359 -227 Q386 -227 402 -216 Q426 -200 426 -171 Q426 -107 268 -93 L330 37 Z " />
<glyph glyph-name="egrave" unicode="&#xe8;" horiz-adv-x="971" d="M645 639 Q665 639 678 657 Q690 672 690 689 Q690 695 688 703 Q676 766 641 805 Q599 850 530 850 Q468 850 423 807 Q385 771 364 708 Q361 700 361 690 Q361 674 371 659 Q385 639 406 639 L645 639 Z M548 1065 Q769 1065 886 901 Q983 761 983 546 Q983 531 982 512 Q980 475 952 446 Q925 418 884 418 L412 418 Q389 418 375 395 Q366 381 366 367 Q366 354 373 340 Q403 281 472 249 Q536 220 619 220 Q711 220 790 237 Q801 240 812 240 Q844 240 869 221 Q903 198 909 158 L914 128 Q916 118 916 108 Q916 82 903 58 Q882 26 845 14 Q722 -20 576 -20 Q329 -20 189 125 Q56 265 56 510 Q56 728 174 884 Q310 1065 548 1065 Z M609 1254 Q622 1231 622 1207 Q622 1184 609 1161 Q581 1110 523 1110 L517 1110 Q468 1110 439 1148 L342 1276 Q320 1303 320 1334 Q320 1355 331 1376 Q357 1433 420 1433 L454 1433 Q513 1433 540 1383 L609 1254 Z " />
<glyph glyph-name="eacute" unicode="&#xe9;" horiz-adv-x="970" d="M644 639 Q664 639 677 657 Q689 672 689 689 Q689 695 687 703 Q675 766 640 805 Q598 850 529 850 Q467 850 422 807 Q384 771 363 708 Q360 700 360 690 Q360 674 370 659 Q384 639 405 639 L644 639 Z M547 1065 Q768 1065 885 901 Q982 761 982 546 Q982 531 981 512 Q979 475 951 446 Q924 418 883 418 L411 418 Q388 418 374 395 Q365 381 365 367 Q365 354 372 340 Q402 281 471 249 Q535 220 618 220 Q710 220 789 237 Q800 240 811 240 Q843 240 868 221 Q902 198 908 158 L913 128 Q915 118 915 108 Q915 82 902 58 Q881 26 844 14 Q721 -20 575 -20 Q328 -20 188 125 Q55 265 55 510 Q55 728 173 884 Q309 1065 547 1065 Z M499 1383 Q526 1433 585 1433 L619 1433 Q682 1433 708 1376 Q719 1355 719 1334 Q719 1303 697 1276 L600 1148 Q571 1110 522 1110 L516 1110 Q458 1110 430 1161 Q417 1184 417 1207 Q417 1231 430 1254 L499 1383 Z " />
<glyph glyph-name="ecircumflex" unicode="&#xea;" horiz-adv-x="971" d="M645 639 Q665 639 678 657 Q690 672 690 689 Q690 695 688 703 Q676 766 641 805 Q599 850 530 850 Q468 850 423 807 Q385 771 364 708 Q361 700 361 690 Q361 674 371 659 Q385 639 406 639 L645 639 Z M548 1065 Q769 1065 886 901 Q983 761 983 546 Q983 531 982 512 Q980 475 952 446 Q925 418 884 418 L412 418 Q389 418 375 395 Q366 381 366 367 Q366 354 373 340 Q403 281 472 249 Q536 220 619 220 Q711 220 790 237 Q801 240 812 240 Q844 240 869 221 Q903 198 909 158 L914 128 Q916 118 916 108 Q916 82 903 58 Q882 26 845 14 Q722 -20 576 -20 Q329 -20 189 125 Q56 265 56 510 Q56 728 174 884 Q310 1065 548 1065 Z M809 1209 Q820 1193 820 1176 Q820 1162 812 1148 Q792 1114 751 1114 L701 1114 Q658 1114 641 1149 L561 1299 L560 1299 L479 1148 Q459 1114 418 1114 L368 1114 Q327 1114 307 1149 Q299 1163 299 1177 Q299 1193 310 1209 L433 1406 Q453 1437 492 1437 L628 1437 Q667 1437 687 1405 L809 1209 Z " />
<glyph glyph-name="edieresis" unicode="&#xeb;" horiz-adv-x="975" d="M649 639 Q669 639 682 657 Q694 672 694 689 Q694 695 692 703 Q680 766 645 805 Q603 850 534 850 Q472 850 427 807 Q389 771 368 708 Q365 700 365 690 Q365 674 375 659 Q389 639 410 639 L649 639 Z M552 1065 Q773 1065 890 901 Q987 761 987 546 Q987 531 986 512 Q984 475 956 446 Q929 418 888 418 L416 418 Q393 418 379 395 Q370 381 370 367 Q370 354 377 340 Q407 281 476 249 Q540 220 623 220 Q715 220 794 237 Q805 240 816 240 Q848 240 873 221 Q907 198 913 158 L918 128 Q920 118 920 108 Q920 82 907 58 Q886 26 849 14 Q726 -20 580 -20 Q333 -20 193 125 Q60 265 60 510 Q60 728 178 884 Q314 1065 552 1065 Z M736 1142 Q674 1142 633 1186 Q591 1232 591 1293 Q591 1355 630 1398 Q674 1442 740 1442 Q802 1442 844 1398 Q884 1356 884 1293 Q884 1232 845 1187 Q802 1142 740 1142 L736 1142 Z M312 1142 Q248 1142 206 1186 Q163 1231 163 1293 Q163 1355 205 1398 Q249 1442 314 1442 Q375 1442 417 1398 Q457 1354 457 1293 Q457 1232 417 1187 Q375 1142 314 1142 L312 1142 Z " />
<glyph glyph-name="igrave" unicode="&#xec;" horiz-adv-x="459" d="M348 1040 Q391 1040 418 1010 Q446 981 446 942 L446 99 Q446 58 419 31 Q389 0 348 0 L235 0 Q193 0 163 31 Q136 58 136 99 L136 942 Q136 981 164 1010 Q191 1040 235 1040 L348 1040 Z M380 1254 Q393 1231 393 1207 Q393 1184 380 1161 Q352 1110 294 1110 L288 1110 Q239 1110 210 1148 L113 1276 Q91 1303 91 1334 Q91 1355 102 1376 Q128 1433 191 1433 L225 1433 Q284 1433 311 1383 L380 1254 Z " />
<glyph glyph-name="iacute" unicode="&#xed;" horiz-adv-x="444" d="M325 1040 Q368 1040 395 1010 Q423 981 423 942 L423 99 Q423 58 396 31 Q366 0 325 0 L212 0 Q170 0 140 31 Q113 58 113 99 L113 942 Q113 981 141 1010 Q168 1040 212 1040 L325 1040 Z M248 1383 Q275 1433 334 1433 L368 1433 Q431 1433 457 1376 Q468 1355 468 1334 Q468 1303 446 1276 L349 1148 Q320 1110 271 1110 L265 1110 Q207 1110 179 1161 Q166 1184 166 1207 Q166 1231 179 1254 L248 1383 Z " />
<glyph glyph-name="icircumflex" unicode="&#xee;" horiz-adv-x="480" d="M345 1040 Q388 1040 415 1010 Q443 981 443 942 L443 99 Q443 58 416 31 Q386 0 345 0 L232 0 Q190 0 160 31 Q133 58 133 99 L133 942 Q133 981 161 1010 Q188 1040 232 1040 L345 1040 Z M558 1209 Q569 1193 569 1176 Q569 1162 561 1148 Q541 1114 500 1114 L450 1114 Q407 1114 390 1149 L310 1299 L309 1299 L228 1148 Q208 1114 167 1114 L117 1114 Q76 1114 56 1149 Q48 1163 48 1177 Q48 1193 59 1209 L182 1406 Q202 1437 241 1437 L377 1437 Q416 1437 436 1405 L558 1209 Z " />
<glyph glyph-name="idieresis" unicode="&#xef;" horiz-adv-x="557" d="M399 1040 Q442 1040 469 1010 Q497 981 497 942 L497 99 Q497 58 470 31 Q440 0 399 0 L286 0 Q244 0 214 31 Q187 58 187 99 L187 942 Q187 981 215 1010 Q242 1040 286 1040 L399 1040 Z M555 1142 Q493 1142 452 1186 Q410 1232 410 1293 Q410 1355 449 1398 Q493 1442 559 1442 Q621 1442 663 1398 Q703 1356 703 1293 Q703 1232 664 1187 Q621 1142 559 1142 L555 1142 Z M131 1142 Q67 1142 25 1186 Q-18 1231 -18 1293 Q-18 1355 24 1398 Q68 1442 133 1442 Q194 1442 236 1398 Q276 1354 276 1293 Q276 1232 236 1187 Q194 1142 133 1142 L131 1142 Z " />
<glyph glyph-name="eth" unicode="&#xf0;" horiz-adv-x="1108" d="M554 230 Q642 230 692 313 Q742 394 742 535 Q742 696 694 759 Q642 827 556 827 Q457 827 404 726 Q361 644 361 527 Q361 399 412 317 Q465 230 552 230 L554 230 Z M986 958 Q1069 792 1069 567 Q1069 293 909 138 Q767 0 550 0 Q325 0 182 144 Q35 289 35 524 Q35 744 173 883 Q308 1019 509 1023 L519 1023 Q598 1023 649 985 L651 988 Q583 1083 499 1149 Q486 1158 475 1158 Q466 1158 456 1153 L257 1063 Q237 1055 219 1055 Q175 1055 156 1099 L155 1102 Q149 1118 149 1132 Q149 1168 191 1188 L256 1218 Q283 1231 284 1264 L284 1266 Q284 1298 258 1312 L256 1313 Q215 1334 205 1377 Q203 1387 203 1398 Q203 1427 221 1453 L239 1478 Q272 1521 319 1521 Q342 1521 367 1511 Q482 1459 589 1389 Q601 1381 612 1381 Q620 1381 630 1385 L822 1471 Q841 1480 859 1480 Q901 1480 921 1438 Q930 1419 930 1404 Q930 1368 887 1348 L810 1313 Q786 1301 782 1275 Q781 1268 781 1262 Q781 1242 795 1228 Q914 1109 986 958 Z " />
<glyph glyph-name="ntilde" unicode="&#xf1;" horiz-adv-x="1052" d="M390 883 Q428 944 491 984 Q579 1043 689 1043 Q848 1043 941 933 Q1039 817 1039 597 L1039 77 Q1039 38 1012 11 Q982 -20 941 -20 L826 -20 Q784 -20 756 11 Q729 38 729 77 L729 556 Q729 782 582 782 Q528 782 488 746 Q453 714 435 661 Q423 633 423 580 L423 77 Q423 38 396 11 Q368 -20 325 -20 L210 -20 Q169 -20 139 10 Q113 39 113 77 Q112 170 112 264 Q111 389 110 497 Q108 789 107 922 L107 925 Q107 962 132 990 Q163 1020 203 1021 L292 1022 Q335 1022 363 991 Q390 963 390 923 L390 883 Z M348 1154 Q318 1154 297 1176 Q280 1195 280 1218 L280 1222 Q288 1321 333 1378 Q379 1433 450 1433 Q486 1433 524 1418 Q537 1413 555 1405 L585 1389 L598 1382 L610 1375 Q624 1366 632 1362 Q653 1350 667 1350 Q697 1350 707 1393 Q713 1415 730 1428 Q749 1443 774 1443 L798 1443 Q829 1443 850 1422 Q866 1403 866 1381 L866 1377 Q852 1171 695 1171 Q656 1171 617 1187 Q603 1191 584 1201 L550 1217 Q494 1250 478 1250 Q453 1250 442 1203 Q436 1182 419 1169 Q400 1154 375 1154 L348 1154 Z " />
<glyph glyph-name="ograve" unicode="&#xf2;" horiz-adv-x="1045" d="M759 462 Q762 492 762 520 Q762 605 740 675 Q701 797 610 821 Q585 828 564 828 Q486 828 436 738 Q383 644 383 513 Q383 397 421 315 Q468 210 559 202 Q567 201 575 201 Q654 201 705 280 Q750 353 759 462 Z M64 481 Q63 495 63 510 Q63 742 211 891 Q352 1032 562 1042 Q577 1043 591 1043 Q784 1043 921 921 Q1081 777 1081 524 Q1081 279 927 128 Q786 -9 583 -19 Q568 -20 554 -20 Q366 -20 231 98 Q73 235 64 481 Z M661 1254 Q674 1231 674 1207 Q674 1184 661 1161 Q633 1110 575 1110 L569 1110 Q520 1110 491 1148 L394 1276 Q372 1303 372 1334 Q372 1355 383 1376 Q409 1433 472 1433 L506 1433 Q565 1433 592 1383 L661 1254 Z " />
<glyph glyph-name="oacute" unicode="&#xf3;" horiz-adv-x="1045" d="M759 462 Q762 492 762 520 Q762 605 740 675 Q701 797 610 821 Q585 828 564 828 Q486 828 436 738 Q383 644 383 513 Q383 397 421 315 Q468 210 559 202 Q567 201 575 201 Q654 201 705 280 Q750 353 759 462 Z M64 481 Q63 495 63 510 Q63 742 211 891 Q352 1032 562 1042 Q577 1043 591 1043 Q784 1043 921 921 Q1081 777 1081 524 Q1081 279 927 128 Q786 -9 583 -19 Q568 -20 554 -20 Q366 -20 231 98 Q73 235 64 481 Z M553 1383 Q580 1433 639 1433 L673 1433 Q736 1433 762 1376 Q773 1355 773 1334 Q773 1303 751 1276 L654 1148 Q625 1110 576 1110 L570 1110 Q512 1110 484 1161 Q471 1184 471 1207 Q471 1231 484 1254 L553 1383 Z " />
<glyph glyph-name="ocircumflex" unicode="&#xf4;" horiz-adv-x="1045" d="M759 462 Q762 492 762 520 Q762 605 740 675 Q701 797 610 821 Q585 828 564 828 Q486 828 436 738 Q383 644 383 513 Q383 397 421 315 Q468 210 559 202 Q567 201 575 201 Q654 201 705 280 Q750 353 759 462 Z M64 481 Q63 495 63 510 Q63 742 211 891 Q352 1032 562 1042 Q577 1043 591 1043 Q784 1043 921 921 Q1081 777 1081 524 Q1081 279 927 128 Q786 -9 583 -19 Q568 -20 554 -20 Q366 -20 231 98 Q73 235 64 481 Z M862 1209 Q873 1193 873 1176 Q873 1162 865 1148 Q845 1114 804 1114 L754 1114 Q711 1114 694 1149 L614 1299 L613 1299 L532 1148 Q512 1114 471 1114 L421 1114 Q380 1114 360 1149 Q352 1163 352 1177 Q352 1193 363 1209 L486 1406 Q506 1437 545 1437 L681 1437 Q720 1437 740 1405 L862 1209 Z " />
<glyph glyph-name="otilde" unicode="&#xf5;" horiz-adv-x="1046" d="M760 462 Q763 492 763 520 Q763 605 741 675 Q702 797 611 821 Q586 828 565 828 Q487 828 437 738 Q384 644 384 513 Q384 397 422 315 Q469 210 560 202 Q568 201 576 201 Q655 201 706 280 Q751 353 760 462 Z M65 481 Q64 495 64 510 Q64 742 212 891 Q353 1032 563 1042 Q578 1043 592 1043 Q785 1043 922 921 Q1082 777 1082 524 Q1082 279 928 128 Q787 -9 584 -19 Q569 -20 555 -20 Q367 -20 232 98 Q74 235 65 481 Z M348 1154 Q318 1154 297 1176 Q280 1195 280 1218 L280 1222 Q288 1321 333 1378 Q379 1433 450 1433 Q486 1433 524 1418 Q537 1413 555 1405 L585 1389 L598 1382 L610 1375 Q624 1366 632 1362 Q653 1350 667 1350 Q697 1350 707 1393 Q713 1415 730 1428 Q749 1443 774 1443 L798 1443 Q829 1443 850 1422 Q866 1403 866 1381 L866 1377 Q852 1171 695 1171 Q656 1171 617 1187 Q603 1191 584 1201 L550 1217 Q494 1250 478 1250 Q453 1250 442 1203 Q436 1182 419 1169 Q400 1154 375 1154 L348 1154 Z " />
<glyph glyph-name="odieresis" unicode="&#xf6;" horiz-adv-x="1046" d="M760 462 Q763 492 763 520 Q763 605 741 675 Q702 797 611 821 Q586 828 565 828 Q487 828 437 738 Q384 644 384 513 Q384 397 422 315 Q469 210 560 202 Q568 201 576 201 Q655 201 706 280 Q751 353 760 462 Z M65 481 Q64 495 64 510 Q64 742 212 891 Q353 1032 563 1042 Q578 1043 592 1043 Q785 1043 922 921 Q1082 777 1082 524 Q1082 279 928 128 Q787 -9 584 -19 Q569 -20 555 -20 Q367 -20 232 98 Q74 235 65 481 Z M786 1142 Q724 1142 683 1186 Q641 1232 641 1293 Q641 1355 680 1398 Q724 1442 790 1442 Q852 1442 894 1398 Q934 1356 934 1293 Q934 1232 895 1187 Q852 1142 790 1142 L786 1142 Z M362 1142 Q298 1142 256 1186 Q213 1231 213 1293 Q213 1355 255 1398 Q299 1442 364 1442 Q425 1442 467 1398 Q507 1354 507 1293 Q507 1232 467 1187 Q425 1142 364 1142 L362 1142 Z " />
<glyph glyph-name="divide" unicode="&#xf7;" horiz-adv-x="970" d="M483 747 Q419 747 380 792 Q344 835 344 904 Q344 974 382 1017 Q420 1061 485 1061 Q550 1061 589 1017 Q624 975 625 904 Q625 835 589 792 Q550 747 485 747 L483 747 Z M865 629 Q911 629 940 600 Q970 571 970 531 Q970 491 940 463 Q911 432 865 432 L104 432 Q59 432 30 461 Q0 491 0 531 Q0 571 29 600 Q60 629 104 629 L865 629 Z M485 315 Q550 315 589 270 Q624 228 625 158 Q625 88 589 45 Q550 0 485 0 L483 0 Q419 0 380 45 Q344 88 344 158 Q344 227 381 270 Q420 315 485 315 Z " />
<glyph glyph-name="oslash" unicode="&#xf8;" horiz-adv-x="1095" d="M296 52 Q255 71 206 113 Q48 251 39 497 Q38 511 38 526 Q38 758 186 907 Q327 1048 537 1058 Q554 1059 570 1059 L579 1059 L627 1228 Q635 1258 661 1278 Q687 1299 722 1299 L731 1299 Q782 1299 812 1258 Q830 1232 830 1202 Q830 1189 826 1175 L781 1014 Q835 991 896 937 Q1056 793 1056 540 Q1056 295 902 144 Q761 7 558 -3 Q543 -4 529 -4 Q500 -4 495 -3 L447 -172 Q439 -202 414 -221 Q387 -243 353 -243 L343 -243 Q292 -243 262 -202 Q244 -176 244 -146 Q244 -133 248 -119 L296 52 Z M703 737 L555 211 Q629 217 680 296 Q725 369 734 478 Q737 508 737 536 Q737 621 715 691 L703 737 Z M380 352 L519 843 Q461 843 411 754 Q358 660 358 529 Q358 413 380 352 Z " />
<glyph glyph-name="ugrave" unicode="&#xf9;" horiz-adv-x="1032" d="M741 145 Q726 120 705 97 Q678 65 644 41 Q555 -20 438 -20 Q279 -20 190 88 Q94 204 94 433 L94 945 Q94 984 122 1013 Q149 1043 194 1043 L306 1043 Q349 1043 379 1013 Q406 983 406 945 L406 484 Q406 242 551 242 Q604 242 644 277 Q678 306 695 354 Q705 377 705 425 L705 945 Q705 984 733 1013 Q760 1043 805 1043 L918 1043 Q961 1043 991 1013 Q1018 985 1018 945 L1018 525 Q1018 270 1019 103 Q1019 62 991 35 Q963 3 919 3 L840 3 Q798 3 768 35 Q741 63 741 103 L741 145 Z M646 1254 Q659 1231 659 1207 Q659 1184 646 1161 Q618 1110 560 1110 L554 1110 Q505 1110 476 1148 L379 1276 Q357 1303 357 1334 Q357 1355 368 1376 Q394 1433 457 1433 L491 1433 Q550 1433 577 1383 L646 1254 Z " />
<glyph glyph-name="uacute" unicode="&#xfa;" horiz-adv-x="1032" d="M741 145 Q726 120 705 97 Q678 65 644 41 Q555 -20 438 -20 Q279 -20 190 88 Q94 204 94 433 L94 945 Q94 984 122 1013 Q149 1043 194 1043 L306 1043 Q349 1043 379 1013 Q406 983 406 945 L406 484 Q406 242 551 242 Q604 242 644 277 Q678 306 695 354 Q705 377 705 425 L705 945 Q705 984 733 1013 Q760 1043 805 1043 L918 1043 Q961 1043 991 1013 Q1018 985 1018 945 L1018 525 Q1018 270 1019 103 Q1019 62 991 35 Q963 3 919 3 L840 3 Q798 3 768 35 Q741 63 741 103 L741 145 Z M537 1383 Q564 1433 623 1433 L657 1433 Q720 1433 746 1376 Q757 1355 757 1334 Q757 1303 735 1276 L638 1148 Q609 1110 560 1110 L554 1110 Q496 1110 468 1161 Q455 1184 455 1207 Q455 1231 468 1254 L537 1383 Z " />
<glyph glyph-name="ucircumflex" unicode="&#xfb;" horiz-adv-x="1032" d="M741 145 Q726 120 705 97 Q678 65 644 41 Q555 -20 438 -20 Q279 -20 190 88 Q94 204 94 433 L94 945 Q94 984 122 1013 Q149 1043 194 1043 L306 1043 Q349 1043 379 1013 Q406 983 406 945 L406 484 Q406 242 551 242 Q604 242 644 277 Q678 306 695 354 Q705 377 705 425 L705 945 Q705 984 733 1013 Q760 1043 805 1043 L918 1043 Q961 1043 991 1013 Q1018 985 1018 945 L1018 525 Q1018 270 1019 103 Q1019 62 991 35 Q963 3 919 3 L840 3 Q798 3 768 35 Q741 63 741 103 L741 145 Z M846 1209 Q857 1193 857 1176 Q857 1162 849 1148 Q829 1114 788 1114 L738 1114 Q695 1114 678 1149 L598 1299 L597 1299 L516 1148 Q496 1114 455 1114 L405 1114 Q364 1114 344 1149 Q336 1163 336 1177 Q336 1193 347 1209 L470 1406 Q490 1437 529 1437 L665 1437 Q704 1437 724 1405 L846 1209 Z " />
<glyph glyph-name="udieresis" unicode="&#xfc;" horiz-adv-x="1036" d="M745 145 Q730 120 709 97 Q682 65 648 41 Q559 -20 442 -20 Q283 -20 194 88 Q98 204 98 433 L98 945 Q98 984 126 1013 Q153 1043 198 1043 L310 1043 Q353 1043 383 1013 Q410 983 410 945 L410 484 Q410 242 555 242 Q608 242 648 277 Q682 306 699 354 Q709 377 709 425 L709 945 Q709 984 737 1013 Q764 1043 809 1043 L922 1043 Q965 1043 995 1013 Q1022 985 1022 945 L1022 525 Q1022 270 1023 103 Q1023 62 995 35 Q967 3 923 3 L844 3 Q802 3 772 35 Q745 63 745 103 L745 145 Z M773 1142 Q711 1142 670 1186 Q628 1232 628 1293 Q628 1355 667 1398 Q711 1442 777 1442 Q839 1442 881 1398 Q921 1356 921 1293 Q921 1232 882 1187 Q839 1142 777 1142 L773 1142 Z M349 1142 Q285 1142 243 1186 Q200 1231 200 1293 Q200 1355 242 1398 Q286 1442 351 1442 Q412 1442 454 1398 Q494 1354 494 1293 Q494 1232 454 1187 Q412 1142 351 1142 L349 1142 Z " />
<glyph glyph-name="yacute" unicode="&#xfd;" horiz-adv-x="932" d="M530 324 Q537 355 550 414 L561 464 Q566 491 571 510 L673 946 Q679 978 705 1000 Q733 1022 768 1022 L885 1022 Q938 1022 967 979 Q984 954 984 925 Q984 910 979 894 L797 338 Q755 215 714 73 Q707 50 698 18 L691 -8 L684 -32 Q668 -86 658 -119 Q608 -280 540 -344 Q449 -427 337 -464 Q321 -470 304 -470 Q278 -470 255 -457 Q220 -435 209 -394 L187 -302 Q185 -292 185 -281 Q185 -259 196 -238 Q211 -205 244 -190 Q272 -178 301 -160 Q364 -125 402 -71 Q413 -56 413 -40 Q413 -28 408 -17 Q376 63 249 387 Q201 507 142 657 Q98 768 51 888 Q43 907 43 926 Q43 953 59 977 Q88 1022 142 1022 L267 1022 Q300 1022 327 1001 Q353 981 361 951 L485 510 L492 487 L497 464 Q504 435 511 413 Q523 359 530 324 Z M494 1383 Q521 1433 580 1433 L614 1433 Q677 1433 703 1376 Q714 1355 714 1334 Q714 1303 692 1276 L595 1148 Q566 1110 517 1110 L511 1110 Q453 1110 425 1161 Q412 1184 412 1207 Q412 1231 425 1254 L494 1383 Z " />
<glyph glyph-name="thorn" unicode="&#xfe;" horiz-adv-x="1083" d="M392 449 Q392 426 399 397 Q407 365 419 348 Q439 302 478 275 Q516 250 560 250 Q644 250 695 328 Q748 411 748 549 Q748 675 699 754 Q649 834 567 834 Q517 834 476 804 Q433 773 410 717 Q402 697 397 674 Q392 648 392 629 L392 449 Z M385 937 Q474 1088 662 1088 L666 1088 Q739 1088 807 1054 Q876 1017 928 949 Q1044 799 1044 554 Q1044 287 911 135 Q794 1 630 1 Q548 1 482 36 Q422 67 392 112 L392 -300 Q392 -339 363 -367 Q333 -397 290 -397 L201 -397 Q157 -397 128 -366 Q99 -339 99 -300 L99 1364 Q99 1404 129 1434 Q157 1462 201 1462 L290 1462 Q332 1462 363 1433 Q392 1404 392 1364 L385 937 Z " />
<glyph glyph-name="ydieresis" unicode="&#xff;" horiz-adv-x="950" d="M523 324 Q530 355 543 414 L554 464 Q559 491 564 510 L666 946 Q672 978 698 1000 Q726 1022 761 1022 L878 1022 Q931 1022 960 979 Q977 954 977 925 Q977 910 972 894 L790 338 Q748 215 707 73 Q700 50 691 18 L684 -8 L677 -32 Q661 -86 651 -119 Q601 -280 533 -344 Q442 -427 330 -464 Q314 -470 297 -470 Q271 -470 248 -457 Q213 -435 202 -394 L180 -302 Q178 -292 178 -281 Q178 -259 189 -238 Q204 -205 237 -190 Q265 -178 294 -160 Q357 -125 395 -71 Q406 -56 406 -40 Q406 -28 401 -17 Q369 63 242 387 Q194 507 135 657 Q91 768 44 888 Q36 907 36 926 Q36 953 52 977 Q81 1022 135 1022 L260 1022 Q293 1022 320 1001 Q346 981 354 951 L478 510 L485 487 L490 464 Q497 435 504 413 Q516 359 523 324 Z M719 1142 Q657 1142 616 1186 Q574 1232 574 1293 Q574 1355 613 1398 Q657 1442 723 1442 Q785 1442 827 1398 Q867 1356 867 1293 Q867 1232 828 1187 Q785 1142 723 1142 L719 1142 Z M295 1142 Q231 1142 189 1186 Q146 1231 146 1293 Q146 1355 188 1398 Q232 1442 297 1442 Q358 1442 400 1398 Q440 1354 440 1293 Q440 1232 400 1187 Q358 1142 297 1142 L295 1142 Z " />
<glyph glyph-name="dotlessi" unicode="&#x131;" horiz-adv-x="480" d="M294 1040 Q337 1040 364 1010 Q392 981 392 942 L392 99 Q392 58 365 31 Q335 0 294 0 L181 0 Q139 0 109 31 Q82 58 82 99 L82 942 Q82 981 110 1010 Q137 1040 181 1040 L294 1040 Z " />
<glyph glyph-name="circumflex" unicode="&#x2c6;" horiz-adv-x="597" d="M556 1209 Q567 1193 567 1176 Q567 1162 559 1148 Q539 1114 498 1114 L448 1114 Q405 1114 388 1149 L308 1299 L307 1299 L226 1148 Q206 1114 165 1114 L115 1114 Q74 1114 54 1149 Q46 1163 46 1177 Q46 1193 57 1209 L180 1406 Q200 1437 239 1437 L375 1437 Q414 1437 434 1405 L556 1209 Z " />
<glyph glyph-name="caron" unicode="&#x2c7;" horiz-adv-x="576" d="M57 1340 Q46 1355 46 1372 Q46 1386 54 1400 Q74 1434 115 1434 L165 1434 Q206 1434 226 1400 L305 1250 L307 1250 L387 1400 Q407 1434 448 1434 L498 1434 Q539 1434 559 1400 Q567 1386 567 1372 Q567 1355 556 1340 L433 1142 Q413 1111 374 1111 L237 1111 Q198 1111 178 1143 L57 1340 Z " />
<glyph glyph-name="uni02C9" unicode="&#x2c9;" horiz-adv-x="517" d="M517 1317 Q517 1293 499 1274 Q478 1254 449 1254 L68 1254 Q39 1254 18 1274 Q0 1293 0 1317 L0 1370 Q0 1393 17 1412 Q38 1433 68 1433 L449 1433 Q479 1433 500 1412 Q517 1393 517 1370 L517 1317 Z " />
<glyph glyph-name="breve" unicode="&#x2d8;" horiz-adv-x="567" d="M113 1433 Q162 1433 177 1389 Q206 1303 281 1303 Q366 1303 392 1387 Q397 1406 415 1420 Q434 1433 458 1433 L496 1433 Q529 1433 550 1408 Q564 1391 564 1371 Q564 1365 563 1360 Q545 1255 474 1194 Q401 1131 283 1131 Q165 1131 90 1197 Q22 1255 4 1360 Q3 1367 3 1372 Q3 1392 16 1408 Q37 1433 70 1433 L113 1433 Z " />
<glyph glyph-name="dotaccent" unicode="&#x2d9;" horiz-adv-x="292" d="M147 1136 Q84 1136 41 1182 Q0 1225 0 1285 Q0 1349 40 1391 Q84 1436 149 1436 Q212 1436 252 1391 Q292 1349 292 1285 Q292 1226 252 1181 Q210 1136 149 1136 L147 1136 Z " />
<glyph glyph-name="ring" unicode="&#x2da;" horiz-adv-x="430" d="M216 1157 Q249 1157 270 1183 Q292 1208 292 1248 Q292 1286 271 1312 Q250 1339 216 1339 L214 1339 Q182 1339 162 1312 Q141 1286 141 1246 Q141 1210 163 1183 Q185 1157 216 1157 Z M219 1438 Q320 1438 377 1382 Q430 1330 430 1248 Q430 1167 374 1115 Q316 1058 218 1058 Q118 1058 56 1115 Q0 1166 0 1246 Q0 1327 55 1381 Q114 1438 218 1438 L219 1438 Z " />
<glyph glyph-name="ogonek" unicode="&#x2db;" horiz-adv-x="436" d="M431 -343 Q434 -352 434 -361 Q434 -372 430 -382 Q419 -404 398 -415 Q321 -453 232 -453 Q121 -453 61 -395 Q0 -337 0 -228 Q0 -175 20 -113 Q35 -66 59 -19 Q78 15 120 15 L151 15 Q188 15 208 -13 Q219 -29 219 -47 Q219 -57 216 -67 Q203 -106 203 -140 Q203 -191 231 -222 Q259 -253 305 -253 Q324 -253 339 -251 Q345 -249 353 -249 Q375 -249 392 -261 Q411 -274 418 -297 L431 -343 Z " />
<glyph glyph-name="tilde" unicode="&#x2dc;" horiz-adv-x="588" d="M69 1154 Q39 1154 18 1176 Q1 1195 1 1218 L1 1222 Q9 1321 54 1378 Q100 1433 171 1433 Q207 1433 245 1418 Q258 1413 276 1405 L306 1389 L319 1382 L331 1375 Q345 1366 353 1362 Q374 1350 388 1350 Q418 1350 428 1393 Q434 1415 451 1428 Q470 1443 495 1443 L519 1443 Q550 1443 571 1422 Q587 1403 587 1381 L587 1377 Q573 1171 416 1171 Q377 1171 338 1187 Q324 1191 305 1201 L271 1217 Q215 1250 199 1250 Q174 1250 163 1203 Q157 1182 140 1169 Q121 1154 96 1154 L69 1154 Z " />
<glyph glyph-name="hungarumlaut" unicode="&#x2dd;" horiz-adv-x="676" d="M325 1425 Q365 1425 385 1394 Q394 1379 394 1364 Q394 1349 386 1334 L280 1137 Q262 1102 219 1102 L101 1102 Q57 1102 40 1137 Q32 1152 32 1166 Q32 1184 46 1202 L196 1398 Q216 1425 252 1425 L325 1425 Z M677 1425 Q716 1425 736 1394 Q745 1379 745 1364 Q745 1349 737 1334 L631 1137 Q613 1102 570 1102 L452 1102 Q408 1102 391 1137 Q383 1152 383 1166 Q383 1184 397 1202 L548 1398 Q568 1425 602 1425 L677 1425 Z " />
<glyph glyph-name="endash" unicode="&#x2013;" horiz-adv-x="902" d="M902 714 Q902 675 873 646 Q844 617 800 617 L102 617 Q58 617 29 648 Q0 675 0 714 L0 720 Q0 759 30 789 Q58 817 102 817 L800 817 Q843 817 874 787 Q902 759 902 720 L902 714 Z " />
<glyph glyph-name="emdash" unicode="&#x2014;" horiz-adv-x="1915" d="M1813 817 Q1858 817 1888 787 Q1915 759 1915 720 L1915 714 Q1915 675 1888 648 Q1858 617 1813 617 L102 617 Q58 617 29 648 Q0 675 0 714 L0 720 Q0 759 30 789 Q58 817 102 817 L1813 817 Z " />
<glyph glyph-name="quoteleft" unicode="&#x2018;" horiz-adv-x="375" d="M181 1380 Q138 1380 120 1415 L14 1612 Q6 1627 6 1642 Q6 1657 15 1672 Q35 1703 75 1703 L148 1703 Q184 1703 204 1676 L354 1480 Q368 1462 368 1444 Q368 1430 360 1415 Q343 1380 299 1380 L181 1380 Z " />
<glyph glyph-name="quoteright" unicode="&#x2019;" horiz-adv-x="375" d="M300 1701 Q343 1701 360 1666 Q368 1651 368 1637 Q368 1619 355 1602 L204 1405 Q184 1378 149 1378 L75 1378 Q36 1378 16 1410 Q6 1425 6 1441 Q6 1455 14 1469 L121 1668 Q138 1701 181 1701 L300 1701 Z " />
<glyph glyph-name="quotesinglbase" unicode="&#x201a;" horiz-adv-x="375" d="M300 197 Q343 197 360 162 Q368 147 368 133 Q368 115 355 98 L204 -99 Q184 -126 149 -126 L75 -126 Q36 -126 16 -94 Q6 -79 6 -63 Q6 -49 14 -35 L121 164 Q138 197 181 197 L300 197 Z " />
<glyph glyph-name="quotedblleft" unicode="&#x201c;" horiz-adv-x="726" d="M300 1700 Q340 1700 360 1669 Q369 1654 369 1639 Q369 1624 361 1609 L255 1412 Q237 1377 194 1377 L76 1377 Q32 1377 15 1412 Q7 1427 7 1441 Q7 1459 21 1477 L171 1673 Q191 1700 227 1700 L300 1700 Z M652 1700 Q691 1700 711 1669 Q720 1654 720 1639 Q720 1624 712 1609 L606 1412 Q588 1377 545 1377 L427 1377 Q383 1377 366 1412 Q358 1427 358 1441 Q358 1459 372 1477 L523 1673 Q543 1700 577 1700 L652 1700 Z " />
<glyph glyph-name="quotedblright" unicode="&#x201d;" horiz-adv-x="726" d="M426 1381 Q387 1381 367 1413 Q357 1428 357 1444 Q357 1458 365 1472 L472 1670 Q491 1704 532 1704 L651 1704 Q694 1704 711 1669 Q719 1654 719 1640 Q719 1622 706 1605 L555 1408 Q535 1381 500 1381 L426 1381 Z M75 1381 Q36 1381 16 1413 Q6 1428 6 1444 Q6 1458 14 1472 L121 1671 Q138 1704 181 1704 L300 1704 Q343 1704 360 1669 Q368 1654 368 1640 Q368 1622 355 1605 L204 1408 Q184 1381 149 1381 L75 1381 Z " />
<glyph glyph-name="quotedblbase" unicode="&#x201e;" horiz-adv-x="726" d="M426 -126 Q387 -126 367 -94 Q357 -79 357 -63 Q357 -49 365 -35 L472 163 Q491 197 532 197 L651 197 Q694 197 711 162 Q719 147 719 133 Q719 115 706 98 L555 -99 Q535 -126 500 -126 L426 -126 Z M75 -126 Q36 -126 16 -94 Q6 -79 6 -63 Q6 -49 14 -35 L121 164 Q138 197 181 197 L300 197 Q343 197 360 162 Q368 147 368 133 Q368 115 355 98 L204 -99 Q184 -126 149 -126 L75 -126 Z " />
<glyph glyph-name="bullet" unicode="&#x2022;" horiz-adv-x="424" d="M0 718 Q0 803 61.5 863.5 Q123 924 213 924 Q302 924 363 863 Q424 802 424 718 Q424 634 362.5 572 Q301 510 212 510 Q121 510 60.5 571.5 Q0 633 0 718 Z " />
<glyph glyph-name="ellipsis" unicode="&#x2026;" horiz-adv-x="1727" d="M1537 -195 Q1457 -195 1404 -139 Q1354 -82 1354 1 Q1354 87 1405 142 Q1458 198 1542 198 Q1624 198 1675 143 Q1726 89 1727 1 Q1727 -82 1677 -139 Q1624 -195 1539 -195 L1537 -195 Z M860 -195 Q780 -195 727 -139 Q677 -82 677 1 Q677 87 728 142 Q781 198 865 198 Q947 198 998 143 Q1048 89 1050 1 Q1050 -82 1000 -139 Q947 -195 863 -195 L860 -195 Z M184 -195 Q103 -195 50 -139 Q0 -82 0 1 Q0 87 51 142 Q104 198 188 198 Q270 198 322 143 Q371 88 373 1 Q373 -82 323 -139 Q270 -195 186 -195 L184 -195 Z " />
<glyph glyph-name="guilsinglleft" unicode="&#x2039;" horiz-adv-x="399" d="M375 449 Q388 427 388 405 Q388 383 375 360 Q348 311 290 311 Q233 311 205 359 L24 669 Q11 693 11 716 Q11 740 24 764 L205 1075 Q233 1123 290 1123 Q348 1123 376 1075 Q388 1053 388 1031 Q388 1008 375 986 L231 745 Q222 731 222 716 Q222 702 231 687 L375 449 Z " />
<glyph glyph-name="guilsinglright" unicode="&#x203a;" horiz-adv-x="399" d="M167 687 Q176 702 176 716 Q176 731 167 745 L23 986 Q10 1008 10 1031 Q10 1053 22 1075 Q50 1123 108 1123 Q166 1123 194 1075 L374 764 Q388 740 388 716 Q388 693 374 669 L194 359 Q166 311 108 311 Q51 311 22 360 Q10 382 10 403 Q10 427 25 450 L167 687 Z " />
<glyph glyph-name="&amp;#x2044;" unicode="&#x2044;" horiz-adv-x="845" d="M758 1429 Q804 1429 828 1392 Q838 1374 838 1356 Q838 1339 829 1322 L159 42 Q138 0 87 0 Q40 0 18 38 Q8 56 8 74 Q8 91 17 108 L687 1389 Q709 1429 758 1429 Z " />
<glyph glyph-name="&amp;#x2215;" unicode="&#x2215;" horiz-adv-x="845" d="M758 1429 Q804 1429 828 1392 Q838 1374 838 1356 Q838 1339 829 1322 L159 42 Q138 0 87 0 Q40 0 18 38 Q8 56 8 74 Q8 91 17 108 L687 1389 Q709 1429 758 1429 Z " />
<glyph glyph-name="Euro" unicode="&#x20ac;" horiz-adv-x="1088" d="M1015 151 Q1016 142 1016 133 Q1016 111 1005 91 Q988 58 954 45 Q847 0 733 0 Q592 0 472 63 Q351 127 274 244 Q197 355 170 519 L106 519 Q83 519 66 534 Q51 549 51 569 L51 620 Q51 639 67 655 Q82 670 106 670 L151 670 L151 706 L152 738 L153 770 L104 770 Q80 770 65 785 Q49 801 49 820 L49 871 Q49 891 65 907 Q79 921 104 921 L174 921 Q209 1089 302 1208 Q383 1313 492 1371 Q605 1429 737 1429 Q840 1429 936 1398 Q973 1385 993 1353 Q1005 1331 1005 1308 Q1005 1297 1003 1287 L992 1234 Q983 1194 947 1171 Q921 1155 892 1155 Q878 1155 863 1159 Q808 1174 757 1174 Q617 1174 533 1061 Q495 1010 473 921 L881 921 Q905 921 922 906 Q937 891 937 871 L937 820 Q937 801 921 785 Q906 770 881 770 L446 770 Q444 749 444 704 L444 670 L881 670 Q906 670 921 655 Q937 639 937 620 L937 569 Q937 549 922 534 Q905 519 881 519 L470 519 Q490 423 531 370 Q615 262 766 262 Q819 262 876 277 Q891 281 905 281 Q934 281 961 265 Q997 243 1005 201 L1015 151 Z " />
<glyph glyph-name="uni2116" unicode="&#x2116;" horiz-adv-x="1642" d="M806 1385 Q846 1385 875 1355 Q900 1326 900 1287 L900 98 Q900 59 875 30 Q846 0 806 0 L671 0 Q641 0 617 17 Q593 34 583 61 L398 531 Q364 620 316 764 L296 825 L276 887 Q251 962 242 1004 Q254 657 254 396 L254 98 Q254 58 227 31 Q200 0 158 0 L95 0 Q54 0 27 31 Q0 58 0 98 L0 1287 Q0 1325 27 1355 Q54 1385 95 1385 L252 1385 Q282 1385 307 1368 Q330 1350 340 1324 L516 871 Q582 696 673 412 L674 412 Q647 686 647 1000 L647 1287 Q647 1325 673 1355 Q702 1385 742 1385 L806 1385 Z M1514 519 Q1547 519 1572 494 Q1593 471 1593 439 Q1593 408 1572 385 Q1547 360 1514 360 L1112 360 Q1078 360 1056 385 Q1034 407 1034 439 Q1034 472 1056 494 Q1078 519 1112 519 L1514 519 Z M1311 1194 Q1263 1194 1234 1120 Q1209 1058 1209 974 Q1209 882 1240 821 Q1270 762 1312 762 Q1361 762 1387 822 Q1415 880 1415 979 Q1415 1067 1389 1126 Q1359 1194 1312 1194 L1311 1194 Z M1311 602 Q1164 602 1073 700 Q980 803 980 972 Q980 1144 1072 1248 Q1164 1353 1316 1353 L1318 1353 Q1468 1353 1555 1250 Q1642 1147 1642 985 Q1642 796 1546 695 Q1456 602 1311 602 Z " />
<glyph glyph-name="trademark" unicode="&#x2122;" horiz-adv-x="1126" d="M819 1400 Q833 1506 844 1557 L866 1650 Q872 1672 889 1685 Q909 1701 934 1701 L1056 1701 Q1087 1701 1106 1682 Q1126 1662 1126 1637 L1125 1184 Q1125 1159 1105 1139 Q1086 1120 1056 1120 Q1025 1120 1006 1139 Q987 1158 987 1181 L987 1414 Q988 1562 988 1601 Q966 1453 956 1377 L920 1185 Q917 1162 898 1147 Q878 1131 852 1131 L786 1131 Q759 1131 739 1146 Q721 1162 717 1184 L680 1377 Q671 1451 650 1594 L650 1414 Q650 1359 651 1290 L651 1184 Q651 1159 631 1139 Q612 1120 581 1120 Q551 1120 532 1139 Q512 1159 512 1184 L512 1637 Q512 1661 529 1680 Q550 1701 580 1701 L704 1701 Q729 1701 749 1685 Q766 1672 772 1650 L793 1557 Q804 1506 819 1400 Z M376 1701 Q409 1701 430 1680 Q452 1658 452 1630 Q452 1601 430 1579 Q409 1558 376 1558 L308 1558 L308 1191 Q308 1163 286 1141 Q265 1120 231 1120 L219 1120 Q186 1120 163 1143 Q144 1164 144 1191 L144 1558 L76 1558 Q43 1558 22 1579 Q0 1601 0 1630 Q0 1658 22 1680 Q43 1701 76 1701 L376 1701 Z " />
<glyph glyph-name="partialdiff" unicode="&#x2202;" horiz-adv-x="975" d="M643 509 Q650 537 650 563 Q650 623 615 676 Q566 748 487 751 L481 751 Q401 751 347 672 Q293 591 293 473 Q293 371 338 313 Q379 260 444 260 L446 260 Q511 260 566 332 Q619 401 643 509 Z M416 1581 Q535 1581 639 1526 Q740 1472 815 1373 Q975 1160 975 815 Q975 433 810 209 Q734 108 632 54 Q530 0 414 0 Q215 0 98 159 Q0 294 0 475 Q0 697 112 845 Q229 1000 416 1000 Q517 1000 598 944 Q661 900 690 846 L692 845 L688 875 Q686 1071 600 1196 Q516 1319 379 1319 Q291 1319 213 1285 Q196 1278 177 1278 Q158 1278 138 1287 Q104 1303 90 1341 L74 1382 Q67 1400 67 1418 Q67 1435 73 1451 Q84 1486 117 1504 Q178 1537 243 1557 Q327 1581 416 1581 Z " />
<glyph glyph-name="Delta" unicode="&#x2206;" horiz-adv-x="1029" d="M504 1119 Q492 1055 473 972 Q452 869 437 805 L328 391 Q324 375 324 360 Q324 328 344 301 Q369 264 410 264 L599 264 Q641 264 667 302 Q686 329 686 361 Q686 376 682 392 L575 786 Q555 877 538 956 Q515 1060 504 1119 Z M1029 163 L1029 99 Q1029 60 1003 30 Q974 0 933 0 L96 0 Q54 0 27 30 Q0 60 0 99 L0 161 L326 1315 Q334 1346 359 1365 Q384 1387 418 1387 L622 1387 Q656 1387 681 1365 Q706 1346 714 1315 L1029 163 Z " />
<glyph glyph-name="product" unicode="&#x220f;" horiz-adv-x="1202" d="M1110 1574 Q1150 1574 1177 1544 Q1202 1518 1202 1480 L1202 1402 Q1202 1366 1177 1337 Q1149 1308 1110 1308 Q1078 1308 1054 1282 Q1029 1255 1029 1214 L1029 95 Q1029 57 1004 29 Q976 0 937 0 L849 0 Q810 0 782 29 Q757 57 757 95 L757 1214 Q757 1255 732 1282 Q708 1308 676 1308 L527 1308 Q495 1308 471 1282 Q445 1255 445 1214 L445 95 Q445 57 420 29 Q392 0 354 0 L265 0 Q225 0 198 28 Q173 57 173 95 L173 1214 Q173 1255 148 1281 Q124 1308 92 1308 Q51 1308 25 1338 Q0 1366 0 1402 L0 1480 Q0 1517 25 1545 Q51 1574 92 1574 L1110 1574 Z " />
<glyph glyph-name="summation" unicode="&#x2211;" horiz-adv-x="984" d="M890 266 Q930 266 959 236 Q984 207 984 169 L984 97 Q984 59 959 30 Q930 0 890 0 L95 0 Q54 0 26 31 Q0 58 0 97 L0 182 L365 722 Q382 748 382 781 L382 784 Q382 815 364 840 L20 1365 L20 1476 Q20 1516 47 1544 Q74 1574 115 1574 L840 1574 Q880 1574 908 1545 Q934 1515 934 1476 L934 1406 Q934 1367 908 1337 Q880 1308 840 1308 L390 1308 Q389 1308 389 1302 Q389 1299 391 1297 L681 849 Q698 824 698 794 Q697 763 681 739 L372 277 Q371 275 371 272 Q371 266 372 266 L890 266 Z " />
<glyph glyph-name="minus" unicode="&#x2212;" horiz-adv-x="902" d="M800 819 Q843 819 874 789 Q902 761 902 722 L902 716 Q902 677 873 648 Q844 619 800 619 L102 619 Q58 619 29 650 Q0 677 0 716 L0 722 Q0 761 30 791 Q58 819 102 819 L800 819 Z " />
<glyph glyph-name="radical" unicode="&#x221a;" horiz-adv-x="1092" d="M567 67 Q568 78 570 84 Q574 108 577 129 Q587 183 597 228 L894 1662 Q897 1679 912 1691 Q924 1702 944 1702 L1037 1702 Q1064 1702 1079 1682 Q1089 1669 1089 1653 Q1089 1648 1088 1641 L686 -212 Q683 -227 671 -239 Q656 -252 635 -252 L516 -252 Q479 -252 467 -217 L183 619 L91 577 Q81 573 71 573 Q57 573 47 579 Q27 588 21 609 L5 657 Q2 664 2 671 Q2 682 7 692 Q13 709 31 719 L271 831 Q282 837 295 837 Q308 837 318 831 Q338 822 344 801 L527 222 Q540 180 553 129 Q558 109 563 86 Q565 77 567 67 Z " />
<glyph glyph-name="infinity" unicode="&#x221e;" horiz-adv-x="1306" d="M985 558 Q1036 558 1074 603 Q1114 651 1114 717 Q1114 788 1075 834 Q1040 877 989 877 Q943 877 893 840 Q858 815 805 757 Q791 742 791 720 Q791 698 805 682 Q828 654 843 639 Q869 613 889 597 Q938 558 983 558 L985 558 Z M319 558 Q364 558 413 594 Q448 620 502 678 Q515 694 515 715 Q515 737 502 753 Q478 781 461 797 Q439 822 418 838 Q368 877 323 877 Q270 877 232 832 Q192 784 192 717 Q192 647 231 600 Q267 558 317 558 L319 558 Z M985 362 Q892 362 797 434 Q760 463 717 506 Q692 532 652 577 L621 544 L585 505 Q542 461 507 434 Q413 362 305 362 Q168 362 82 466 Q0 565 0 717 Q0 863 85 964 Q177 1073 319 1073 Q413 1073 509 999 Q546 971 589 928 Q613 903 654 857 L685 891 L721 930 Q764 973 799 1000 Q894 1073 1002 1073 Q1138 1073 1224 968 Q1306 869 1306 717 Q1306 572 1221 470 Q1129 362 987 362 L985 362 Z " />
<glyph glyph-name="integral" unicode="&#x222b;" horiz-adv-x="630" d="M554 1712 Q590 1709 611 1682 Q627 1663 627 1640 Q627 1635 626 1628 L619 1579 Q616 1552 594 1534 Q572 1515 560 1515 Q485 1515 455 1458 Q416 1385 416 1142 Q416 986 430 683 Q437 534 440 449 Q444 316 444 196 Q444 -67 381 -193 Q342 -275 273 -318 Q210 -357 130 -357 Q99 -357 70 -353 Q35 -348 16 -321 Q2 -301 2 -278 Q2 -272 3 -267 L13 -210 Q17 -183 38 -165 Q63 -146 94 -146 L103 -146 Q146 -146 178 -101 Q224 -28 224 188 Q224 309 220 447 Q217 531 210 684 Q196 995 196 1162 Q196 1330 223 1440 Q250 1541 309 1615 Q389 1713 525 1713 Q539 1713 554 1712 Z " />
<glyph glyph-name="approxequal" unicode="&#x2248;" horiz-adv-x="1015" d="M14 782 Q1 802 1 825 L1 829 Q1 855 18 875 Q138 1027 293 1027 Q360 1027 425 1000 Q448 990 477 974 L501 961 L524 949 L545 937 L566 926 Q593 911 612 904 Q668 878 720 878 Q788 878 856 944 Q882 968 916 968 L922 968 Q962 966 985 936 L992 930 Q1008 909 1010 882 Q1010 856 995 834 Q943 763 877 724 Q802 680 722 680 Q657 680 590 708 Q568 717 537 733 L512 746 Q498 753 489 758 L468 768 L446 780 Q418 796 400 803 Q344 829 291 829 Q219 829 150 766 Q125 743 91 743 L81 743 Q40 747 17 779 L14 782 Z M995 483 Q1012 462 1013 435 L1013 429 Q1013 407 999 387 Q947 314 878 271 Q803 227 722 227 Q658 227 591 255 Q569 264 538 280 L513 292 Q500 300 491 304 L469 316 L447 327 Q420 343 402 350 Q345 376 289 376 Q222 376 153 314 Q127 291 93 291 L83 291 Q42 297 20 328 L17 332 Q4 352 4 376 L4 379 Q4 404 20 425 Q71 492 140 531 Q214 574 293 574 Q360 574 427 547 Q449 536 480 521 L503 508 L525 496 L548 485 L568 472 Q596 458 615 450 Q670 425 722 425 Q797 425 865 489 Q889 513 925 513 L931 513 Q970 512 995 483 Z " />
<glyph glyph-name="lessequal" unicode="&#x2264;" horiz-adv-x="903" d="M803 185 Q846 185 875 156 Q900 130 900 92 Q900 55 875 29 Q846 0 803 0 L100 0 Q57 0 30 27 Q2 55 2 92 Q2 130 30 158 Q57 185 100 185 L803 185 Z M838 489 Q867 479 887 453 Q903 428 903 398 L903 397 Q903 346 858 317 Q831 298 800 298 Q779 298 757 307 L61 600 Q33 613 16 638 Q0 662 0 690 L0 754 Q0 782 17 808 Q33 832 62 844 L757 1136 Q777 1144 798 1144 Q829 1144 857 1125 Q900 1096 900 1045 Q900 1016 883 990 Q867 966 836 955 L251 724 Q250 724 250 721 Q250 718 251 718 L838 489 Z " />
<glyph glyph-name="greaterequal" unicode="&#x2265;" horiz-adv-x="903" d="M803 185 Q846 185 875 156 Q900 130 900 92 Q900 55 875 29 Q846 0 803 0 L100 0 Q57 0 30 27 Q2 55 2 92 Q2 130 30 158 Q57 185 100 185 L803 185 Z M840 843 Q870 832 886 806 Q903 782 903 754 L903 690 Q903 662 886 638 Q871 613 841 600 L146 307 Q124 298 103 298 Q72 298 44 317 Q0 346 0 397 L0 398 Q0 428 18 452 Q34 478 65 489 L651 717 Q652 718 652 721 Q652 724 651 725 L66 955 Q36 966 19 992 Q2 1016 2 1045 Q2 1096 46 1125 Q74 1144 105 1144 Q126 1144 146 1136 L840 843 Z " />
<glyph glyph-name="&amp;#xf001;" unicode="&#xf001;" horiz-adv-x="969" d="M121 724 Q121 755 96 755 Q55 755 28 782 Q0 810 0 848 L0 886 Q0 923 26 950 Q55 979 96 979 Q121 979 121 1010 L121 1021 Q121 1219 254 1332 Q383 1443 603 1443 Q701 1443 793 1417 Q831 1406 850 1373 Q862 1352 862 1329 Q862 1318 860 1308 L848 1258 Q838 1220 805 1199 Q781 1185 754 1185 Q742 1185 729 1188 Q672 1203 611 1203 Q414 1203 414 1013 L414 1010 Q414 979 439 979 L873 979 Q914 979 943 950 Q969 923 969 886 L969 93 Q969 56 943 29 Q914 0 873 0 L771 0 Q729 0 700 29 Q675 57 675 93 L675 724 Q675 755 649 755 L441 755 Q416 755 416 724 L416 93 Q416 56 390 29 Q361 0 319 0 L218 0 Q176 0 147 29 Q121 56 121 93 L121 724 Z " />
<glyph glyph-name="&amp;#xfb01;" unicode="&#xfb01;" horiz-adv-x="969" d="M121 724 Q121 755 96 755 Q55 755 28 782 Q0 810 0 848 L0 886 Q0 923 26 950 Q55 979 96 979 Q121 979 121 1010 L121 1021 Q121 1219 254 1332 Q383 1443 603 1443 Q701 1443 793 1417 Q831 1406 850 1373 Q862 1352 862 1329 Q862 1318 860 1308 L848 1258 Q838 1220 805 1199 Q781 1185 754 1185 Q742 1185 729 1188 Q672 1203 611 1203 Q414 1203 414 1013 L414 1010 Q414 979 439 979 L873 979 Q914 979 943 950 Q969 923 969 886 L969 93 Q969 56 943 29 Q914 0 873 0 L771 0 Q729 0 700 29 Q675 57 675 93 L675 724 Q675 755 649 755 L441 755 Q416 755 416 724 L416 93 Q416 56 390 29 Q361 0 319 0 L218 0 Q176 0 147 29 Q121 56 121 93 L121 724 Z " />
<glyph glyph-name="&amp;#xf002;" unicode="&#xf002;" horiz-adv-x="957" d="M120 700 Q120 730 95 730 Q54 730 27 757 Q0 784 0 820 L0 857 Q0 893 26 919 Q55 947 95 947 Q120 947 120 977 L120 988 Q120 1173 257 1289 Q387 1397 605 1397 Q770 1397 899 1344 Q957 1320 957 1261 L957 90 Q957 54 931 28 Q902 0 862 0 L762 0 Q720 0 694 26 Q666 54 666 90 L666 1159 Q636 1178 564 1178 Q409 1178 409 984 L409 977 Q409 947 434 947 L478 947 Q518 947 547 919 Q573 893 573 857 L573 820 Q573 784 546 757 Q519 730 478 730 L435 730 Q411 730 411 700 L411 90 Q411 54 383 26 Q357 0 315 0 L215 0 Q175 0 146 28 Q120 54 120 90 L120 700 Z " />
<glyph glyph-name="&amp;#xfb02;" unicode="&#xfb02;" horiz-adv-x="957" d="M120 700 Q120 730 95 730 Q54 730 27 757 Q0 784 0 820 L0 857 Q0 893 26 919 Q55 947 95 947 Q120 947 120 977 L120 988 Q120 1173 257 1289 Q387 1397 605 1397 Q770 1397 899 1344 Q957 1320 957 1261 L957 90 Q957 54 931 28 Q902 0 862 0 L762 0 Q720 0 694 26 Q666 54 666 90 L666 1159 Q636 1178 564 1178 Q409 1178 409 984 L409 977 Q409 947 434 947 L478 947 Q518 947 547 919 Q573 893 573 857 L573 820 Q573 784 546 757 Q519 730 478 730 L435 730 Q411 730 411 700 L411 90 Q411 54 383 26 Q357 0 315 0 L215 0 Q175 0 146 28 Q120 54 120 90 L120 700 Z " />
<glyph glyph-name="notequal" unicode="&#x2260;" horiz-adv-x="970" d="M302 42 Q279 0 228 0 L227 0 Q177 0 153 41 Q142 60 142 79 Q142 97 152 115 L171 147 Q178 160 178 171 Q178 183 171 194 Q158 215 138 215 L103 215 Q58 215 29 246 Q0 273 0 313 L0 314 Q0 354 30 384 Q58 412 103 412 L299 412 Q321 412 332 433 L424 600 Q430 610 430 621 Q430 633 422 646 Q410 666 390 666 L103 666 Q58 666 30 694 Q0 724 0 764 L0 765 Q0 805 28 833 Q58 864 103 864 L550 864 Q572 864 583 886 L664 1036 Q686 1079 738 1079 Q788 1079 812 1038 Q823 1019 823 1000 Q823 982 813 964 L794 931 Q787 919 787 907 Q787 896 794 885 Q807 864 827 864 L866 864 Q911 864 940 835 Q970 805 970 765 L970 764 Q970 724 941 695 Q910 666 866 666 L667 666 Q645 666 634 645 L542 480 Q535 468 535 456 Q535 444 542 432 Q554 412 574 412 L866 412 Q910 412 941 383 Q970 354 970 314 L970 313 Q970 273 941 245 Q911 215 866 215 L416 215 Q394 215 382 194 L302 42 Z " />
<glyph glyph-name="asteriskmath" unicode="&#x2217;" horiz-adv-x="758" d="M724 804 Q734 807 745 807 Q777 807 802 785 Q833 759 833 718 L833 717 Q833 678 803 651 Q777 629 746 629 Q738 629 728 630 L505 671 L508 662 L660 482 Q681 457 681 426 Q681 419 680 412 Q673 371 639 351 L635 348 Q612 334 588 334 Q572 334 556 340 Q516 355 502 394 L423 621 L347 394 Q333 356 293 341 Q276 334 259 334 Q237 334 212 348 L211 351 Q177 373 172 412 Q171 419 171 426 Q171 456 191 481 L343 667 L343 670 L131 631 Q121 630 113 630 Q81 630 55 651 Q25 677 25 718 Q25 759 56 785 Q80 807 112 807 Q123 807 134 804 L340 768 L191 954 Q172 977 172 1007 Q172 1015 173 1023 Q180 1063 215 1084 L220 1087 Q241 1101 266 1101 Q283 1101 300 1094 Q337 1080 351 1041 L424 816 L505 1041 Q519 1081 558 1095 Q574 1101 589 1101 Q614 1101 634 1088 L637 1088 Q674 1066 680 1025 Q681 1016 681 1008 Q681 978 662 954 L510 767 L510 762 L724 804 Z " />
<glyph glyph-name="uni222E" unicode="&#x222e;" horiz-adv-x="1026" d="M404 894 Q328 782 328 679 Q328 588 365 523 Q400 462 421 455 L423 447 Q420 531 413 684 Q407 820 404 894 Z M624 897 Q627 823 633 683 Q640 534 643 449 L643 478 Q696 553 704 640 Q707 663 707 685 Q707 751 685 807 Q653 885 624 897 Z M400 1094 Q399 1124 399 1162 Q399 1330 426 1440 Q453 1541 512 1615 Q592 1713 728 1713 Q742 1713 757 1712 Q793 1709 814 1682 Q830 1663 830 1640 Q830 1635 829 1628 L822 1579 Q819 1552 797 1534 Q775 1515 763 1515 Q688 1515 658 1458 Q619 1385 619 1142 L619 1102 Q750 1091 863 1010 Q1026 894 1026 688 Q1026 490 870 368 Q766 286 647 264 L647 196 Q647 -67 584 -193 Q545 -275 476 -318 Q413 -357 333 -357 Q302 -357 273 -353 Q238 -348 219 -321 Q205 -301 205 -278 Q205 -272 206 -267 L216 -210 Q220 -183 241 -165 Q266 -146 297 -146 L306 -146 Q349 -146 381 -101 Q427 -28 427 188 L427 253 Q295 262 178 343 Q18 454 9 653 Q8 664 8 676 Q8 865 156 984 Q268 1073 400 1094 Z " />
<glyph glyph-name="Amacron" unicode="&#x100;" horiz-adv-x="1093" d="M582 1145 Q577 1121 569 1084 L556 1019 Q540 942 529 896 L467 655 Q465 647 465 640 Q465 623 477 608 Q489 590 509 590 L669 590 Q689 590 701 609 Q713 623 713 640 Q713 648 711 656 L647 896 Q632 946 615 1021 Q609 1047 602 1084 L594 1116 L588 1146 Q587 1145 582 1145 Z M1160 106 Q1164 92 1164 79 Q1164 49 1146 22 Q1119 -20 1070 -20 L939 -20 Q906 -20 883 0 Q859 20 851 49 L780 312 Q770 348 738 348 L441 348 Q409 348 400 311 L334 51 Q326 20 303 1 Q279 -20 246 -20 L127 -20 Q78 -20 51 22 Q33 49 33 79 Q33 92 37 106 L380 1343 Q388 1374 412 1394 Q437 1414 469 1414 L723 1414 Q755 1414 781 1394 Q804 1373 812 1343 L1160 106 Z M857 1727 Q857 1703 839 1684 Q818 1664 789 1664 L408 1664 Q379 1664 358 1684 Q340 1703 340 1727 L340 1780 Q340 1803 357 1822 Q378 1843 408 1843 L789 1843 Q819 1843 840 1822 Q857 1803 857 1780 L857 1727 Z " />
<glyph glyph-name="amacron" unicode="&#x101;" horiz-adv-x="934" d="M619 443 Q619 466 605 482 Q592 494 575 494 L573 494 Q457 488 383 449 Q296 404 296 325 Q296 267 355 235 Q404 208 463 208 Q514 208 556 241 Q597 274 614 326 Q619 352 619 383 L619 443 Z M638 105 Q592 46 520 13 Q449 -20 371 -20 L362 -20 Q215 -16 127 81 Q44 172 44 299 Q44 492 195 596 Q341 696 601 697 Q610 697 610 712 Q610 767 576 802 Q535 846 440 846 Q356 846 270 815 Q251 808 233 808 Q209 808 186 819 Q149 841 137 882 L134 895 Q131 908 131 922 Q131 943 141 964 Q157 1000 195 1013 Q331 1067 493 1067 Q722 1067 830 932 Q921 820 921 619 L921 101 Q920 61 894 33 Q864 3 821 2 L739 0 Q696 0 664 33 Q638 60 638 98 L638 105 Z M741 1317 Q741 1293 723 1274 Q702 1254 673 1254 L292 1254 Q263 1254 242 1274 Q224 1293 224 1317 L224 1370 Q224 1393 241 1412 Q262 1433 292 1433 L673 1433 Q703 1433 724 1412 Q741 1393 741 1370 L741 1317 Z " />
<glyph glyph-name="Abreve" unicode="&#x102;" horiz-adv-x="1093" d="M582 1145 Q577 1121 569 1084 L556 1019 Q540 942 529 896 L467 655 Q465 647 465 640 Q465 623 477 608 Q489 590 509 590 L669 590 Q689 590 701 609 Q713 623 713 640 Q713 648 711 656 L647 896 Q632 946 615 1021 Q609 1047 602 1084 L594 1116 L588 1146 Q587 1145 582 1145 Z M1160 106 Q1164 92 1164 79 Q1164 49 1146 22 Q1119 -20 1070 -20 L939 -20 Q906 -20 883 0 Q859 20 851 49 L780 312 Q770 348 738 348 L441 348 Q409 348 400 311 L334 51 Q326 20 303 1 Q279 -20 246 -20 L127 -20 Q78 -20 51 22 Q33 49 33 79 Q33 92 37 106 L380 1343 Q388 1374 412 1394 Q437 1414 469 1414 L723 1414 Q755 1414 781 1394 Q804 1373 812 1343 L1160 106 Z M428 1843 Q477 1843 492 1799 Q521 1713 596 1713 Q681 1713 707 1797 Q712 1816 730 1830 Q749 1843 773 1843 L811 1843 Q844 1843 865 1818 Q879 1801 879 1781 Q879 1775 878 1770 Q860 1665 789 1604 Q716 1541 598 1541 Q480 1541 405 1607 Q337 1665 319 1770 Q318 1777 318 1782 Q318 1802 331 1818 Q352 1843 385 1843 L428 1843 Z " />
<glyph glyph-name="abreve" unicode="&#x103;" horiz-adv-x="934" d="M619 443 Q619 466 605 482 Q592 494 575 494 L573 494 Q457 488 383 449 Q296 404 296 325 Q296 267 355 235 Q404 208 463 208 Q514 208 556 241 Q597 274 614 326 Q619 352 619 383 L619 443 Z M638 105 Q592 46 520 13 Q449 -20 371 -20 L362 -20 Q215 -16 127 81 Q44 172 44 299 Q44 492 195 596 Q341 696 601 697 Q610 697 610 712 Q610 767 576 802 Q535 846 440 846 Q356 846 270 815 Q251 808 233 808 Q209 808 186 819 Q149 841 137 882 L134 895 Q131 908 131 922 Q131 943 141 964 Q157 1000 195 1013 Q331 1067 493 1067 Q722 1067 830 932 Q921 820 921 619 L921 101 Q920 61 894 33 Q864 3 821 2 L739 0 Q696 0 664 33 Q638 60 638 98 L638 105 Z M312 1433 Q361 1433 376 1389 Q405 1303 480 1303 Q565 1303 591 1387 Q596 1406 614 1420 Q633 1433 657 1433 L695 1433 Q728 1433 749 1408 Q763 1391 763 1371 Q763 1365 762 1360 Q744 1255 673 1194 Q600 1131 482 1131 Q364 1131 289 1197 Q221 1255 203 1360 Q202 1367 202 1372 Q202 1392 215 1408 Q236 1433 269 1433 L312 1433 Z " />
<glyph glyph-name="Aogonek" unicode="&#x104;" horiz-adv-x="1143" d="M557 1145 Q552 1121 544 1084 L531 1019 Q515 942 504 896 L442 655 Q440 647 440 640 Q440 623 452 608 Q464 590 484 590 L644 590 Q664 590 676 609 Q688 623 688 640 Q688 648 686 656 L622 896 Q607 946 590 1021 Q584 1047 577 1084 L569 1116 L563 1146 Q562 1145 557 1145 Z M849 9 Q832 26 826 49 L755 312 Q745 348 713 348 L416 348 Q384 348 375 311 L309 51 Q301 20 278 1 Q254 -20 221 -20 L102 -20 Q53 -20 26 22 Q8 49 8 79 Q8 92 12 106 L355 1343 Q363 1374 387 1394 Q412 1414 444 1414 L698 1414 Q730 1414 756 1394 Q779 1373 787 1343 L1135 106 Q1139 92 1139 79 Q1139 49 1121 22 Q1094 -20 1045 -20 L995 -20 Q997 -27 997 -35 Q997 -45 994 -55 Q981 -94 981 -128 Q981 -179 1009 -210 Q1037 -241 1083 -241 Q1102 -241 1117 -239 Q1123 -237 1131 -237 Q1153 -237 1170 -249 Q1189 -262 1196 -285 L1209 -331 Q1212 -340 1212 -349 Q1212 -360 1208 -370 Q1197 -392 1176 -403 Q1099 -441 1010 -441 Q899 -441 839 -383 Q778 -325 778 -216 Q778 -163 798 -101 Q813 -54 837 -7 Q842 2 849 9 Z " />
<glyph glyph-name="aogonek" unicode="&#x105;" horiz-adv-x="984" d="M594 443 Q594 466 580 482 Q567 494 550 494 L548 494 Q432 488 358 449 Q271 404 271 325 Q271 267 330 235 Q379 208 438 208 Q489 208 531 241 Q572 274 589 326 Q594 352 594 383 L594 443 Z M626 50 Q613 71 613 98 L613 105 Q567 46 495 13 Q424 -20 346 -20 L337 -20 Q190 -16 102 81 Q19 172 19 299 Q19 492 170 596 Q316 696 576 697 Q585 697 585 712 Q585 767 551 802 Q510 846 415 846 Q331 846 245 815 Q226 808 208 808 Q184 808 161 819 Q124 841 112 882 L109 895 Q106 908 106 922 Q106 943 116 964 Q132 1000 170 1013 Q306 1067 468 1067 Q697 1067 805 932 Q896 820 896 619 L896 101 Q895 61 869 33 Q839 3 796 2 L778 2 Q778 -4 776 -9 Q763 -48 763 -82 Q763 -133 791 -164 Q819 -195 865 -195 Q884 -195 899 -193 Q905 -191 913 -191 Q935 -191 952 -203 Q971 -216 978 -239 L991 -285 Q994 -294 994 -303 Q994 -314 990 -324 Q979 -346 958 -357 Q881 -395 792 -395 Q681 -395 621 -337 Q560 -279 560 -170 Q560 -117 580 -55 Q595 -8 619 39 Q622 45 626 50 Z " />
<glyph glyph-name="Cacute" unicode="&#x106;" horiz-adv-x="1010" d="M779 1190 Q599 1190 490 1075 Q371 948 371 716 Q371 498 480 372 Q591 248 781 248 Q856 248 936 266 Q947 269 959 269 Q988 269 1011 252 Q1043 229 1049 188 L1061 124 Q1062 115 1062 106 Q1062 80 1049 56 Q1029 22 993 12 Q879 -20 737 -20 Q408 -20 225 187 Q53 380 53 697 Q53 1051 259 1259 Q456 1458 766 1458 Q897 1458 1005 1428 Q1042 1415 1061 1381 Q1073 1358 1073 1333 Q1073 1322 1071 1310 L1055 1239 Q1045 1201 1014 1181 Q990 1165 963 1165 Q952 1165 939 1168 Q863 1190 779 1190 Z M543 1793 Q570 1843 629 1843 L663 1843 Q726 1843 752 1786 Q763 1765 763 1744 Q763 1713 741 1686 L644 1558 Q615 1520 566 1520 L560 1520 Q502 1520 474 1571 Q461 1594 461 1617 Q461 1641 474 1664 L543 1793 Z " />
<glyph glyph-name="cacute" unicode="&#x107;" horiz-adv-x="785" d="M832 109 Q833 102 833 96 Q833 67 816 42 Q794 8 755 0 Q669 -20 571 -20 Q333 -20 195 123 Q55 268 55 512 Q55 748 196 901 Q350 1065 612 1065 Q682 1065 752 1050 Q793 1042 815 1007 Q830 984 830 957 Q830 946 828 936 L819 888 Q811 851 780 827 Q754 809 724 809 Q716 809 707 810 Q670 816 626 816 Q513 816 442 736 Q372 655 372 529 L372 525 Q372 385 451 305 Q521 233 632 233 Q675 233 712 239 Q721 240 729 240 Q761 240 787 221 Q819 196 825 156 L832 109 Z M424 1383 Q451 1433 510 1433 L544 1433 Q607 1433 633 1376 Q644 1355 644 1334 Q644 1303 622 1276 L525 1148 Q496 1110 447 1110 L441 1110 Q383 1110 355 1161 Q342 1184 342 1207 Q342 1231 355 1254 L424 1383 Z " />
<glyph glyph-name="Ccircumflex" unicode="&#x108;" horiz-adv-x="1010" d="M779 1190 Q599 1190 490 1075 Q371 948 371 716 Q371 498 480 372 Q591 248 781 248 Q856 248 936 266 Q947 269 959 269 Q988 269 1011 252 Q1043 229 1049 188 L1061 124 Q1062 115 1062 106 Q1062 80 1049 56 Q1029 22 993 12 Q879 -20 737 -20 Q408 -20 225 187 Q53 380 53 697 Q53 1051 259 1259 Q456 1458 766 1458 Q897 1458 1005 1428 Q1042 1415 1061 1381 Q1073 1358 1073 1333 Q1073 1322 1071 1310 L1055 1239 Q1045 1201 1014 1181 Q990 1165 963 1165 Q952 1165 939 1168 Q863 1190 779 1190 Z M932 1619 Q943 1603 943 1586 Q943 1572 935 1558 Q915 1524 874 1524 L824 1524 Q781 1524 764 1559 L684 1709 L683 1709 L602 1558 Q582 1524 541 1524 L491 1524 Q450 1524 430 1559 Q422 1573 422 1587 Q422 1603 433 1619 L556 1816 Q576 1847 615 1847 L751 1847 Q790 1847 810 1815 L932 1619 Z " />
<glyph glyph-name="ccircumflex" unicode="&#x109;" horiz-adv-x="790" d="M837 109 Q838 102 838 96 Q838 67 821 42 Q799 8 760 0 Q674 -20 576 -20 Q338 -20 200 123 Q60 268 60 512 Q60 748 201 901 Q355 1065 617 1065 Q687 1065 757 1050 Q798 1042 820 1007 Q835 984 835 957 Q835 946 833 936 L824 888 Q816 851 785 827 Q759 809 729 809 Q721 809 712 810 Q675 816 631 816 Q518 816 447 736 Q377 655 377 529 L377 525 Q377 385 456 305 Q526 233 637 233 Q680 233 717 239 Q726 240 734 240 Q766 240 792 221 Q824 196 830 156 L837 109 Z M738 1209 Q749 1193 749 1176 Q749 1162 741 1148 Q721 1114 680 1114 L630 1114 Q587 1114 570 1149 L490 1299 L489 1299 L408 1148 Q388 1114 347 1114 L297 1114 Q256 1114 236 1149 Q228 1163 228 1177 Q228 1193 239 1209 L362 1406 Q382 1437 421 1437 L557 1437 Q596 1437 616 1405 L738 1209 Z " />
<glyph glyph-name="Cdotaccent" unicode="&#x10a;" horiz-adv-x="1010" d="M779 1190 Q599 1190 490 1075 Q371 948 371 716 Q371 498 480 372 Q591 248 781 248 Q856 248 936 266 Q947 269 959 269 Q988 269 1011 252 Q1043 229 1049 188 L1061 124 Q1062 115 1062 106 Q1062 80 1049 56 Q1029 22 993 12 Q879 -20 737 -20 Q408 -20 225 187 Q53 380 53 697 Q53 1051 259 1259 Q456 1458 766 1458 Q897 1458 1005 1428 Q1042 1415 1061 1381 Q1073 1358 1073 1333 Q1073 1322 1071 1310 L1055 1239 Q1045 1201 1014 1181 Q990 1165 963 1165 Q952 1165 939 1168 Q863 1190 779 1190 Z M564 1546 Q501 1546 458 1592 Q417 1635 417 1695 Q417 1759 457 1801 Q501 1846 566 1846 Q629 1846 669 1801 Q709 1759 709 1695 Q709 1636 669 1591 Q627 1546 566 1546 L564 1546 Z " />
<glyph glyph-name="cdotaccent" unicode="&#x10b;" horiz-adv-x="786" d="M833 109 Q834 102 834 96 Q834 67 817 42 Q795 8 756 0 Q670 -20 572 -20 Q334 -20 196 123 Q56 268 56 512 Q56 748 197 901 Q351 1065 613 1065 Q683 1065 753 1050 Q794 1042 816 1007 Q831 984 831 957 Q831 946 829 936 L820 888 Q812 851 781 827 Q755 809 725 809 Q717 809 708 810 Q671 816 627 816 Q514 816 443 736 Q373 655 373 529 L373 525 Q373 385 452 305 Q522 233 633 233 Q676 233 713 239 Q722 240 730 240 Q762 240 788 221 Q820 196 826 156 L833 109 Z M446 1136 Q383 1136 340 1182 Q299 1225 299 1285 Q299 1349 339 1391 Q383 1436 448 1436 Q511 1436 551 1391 Q591 1349 591 1285 Q591 1226 551 1181 Q509 1136 448 1136 L446 1136 Z " />
<glyph glyph-name="Ccaron" unicode="&#x10c;" horiz-adv-x="1010" d="M779 1190 Q599 1190 490 1075 Q371 948 371 716 Q371 498 480 372 Q591 248 781 248 Q856 248 936 266 Q947 269 959 269 Q988 269 1011 252 Q1043 229 1049 188 L1061 124 Q1062 115 1062 106 Q1062 80 1049 56 Q1029 22 993 12 Q879 -20 737 -20 Q408 -20 225 187 Q53 380 53 697 Q53 1051 259 1259 Q456 1458 766 1458 Q897 1458 1005 1428 Q1042 1415 1061 1381 Q1073 1358 1073 1333 Q1073 1322 1071 1310 L1055 1239 Q1045 1201 1014 1181 Q990 1165 963 1165 Q952 1165 939 1168 Q863 1190 779 1190 Z M353 1750 Q342 1765 342 1782 Q342 1796 350 1810 Q370 1844 411 1844 L461 1844 Q502 1844 522 1810 L601 1660 L603 1660 L683 1810 Q703 1844 744 1844 L794 1844 Q835 1844 855 1810 Q863 1796 863 1782 Q863 1765 852 1750 L729 1552 Q709 1521 670 1521 L533 1521 Q494 1521 474 1553 L353 1750 Z " />
<glyph glyph-name="ccaron" unicode="&#x10d;" horiz-adv-x="790" d="M837 109 Q838 102 838 96 Q838 67 821 42 Q799 8 760 0 Q674 -20 576 -20 Q338 -20 200 123 Q60 268 60 512 Q60 748 201 901 Q355 1065 617 1065 Q687 1065 757 1050 Q798 1042 820 1007 Q835 984 835 957 Q835 946 833 936 L824 888 Q816 851 785 827 Q759 809 729 809 Q721 809 712 810 Q675 816 631 816 Q518 816 447 736 Q377 655 377 529 L377 525 Q377 385 456 305 Q526 233 637 233 Q680 233 717 239 Q726 240 734 240 Q766 240 792 221 Q824 196 830 156 L837 109 Z M239 1340 Q228 1355 228 1372 Q228 1386 236 1400 Q256 1434 297 1434 L347 1434 Q388 1434 408 1400 L487 1250 L489 1250 L569 1400 Q589 1434 630 1434 L680 1434 Q721 1434 741 1400 Q749 1386 749 1372 Q749 1355 738 1340 L615 1142 Q595 1111 556 1111 L419 1111 Q380 1111 360 1143 L239 1340 Z " />
<glyph glyph-name="Dcaron" unicode="&#x10e;" horiz-adv-x="1179" d="M507 233 Q687 233 786 353 Q897 484 897 735 L897 739 Q897 957 797 1076 Q701 1190 529 1190 Q482 1190 445 1185 Q433 1184 424 1171 Q413 1156 413 1136 L413 284 Q413 263 424 249 Q435 235 448 234 Q459 233 474 233 L507 233 Z M992 1284 Q1191 1104 1191 746 Q1191 367 996 167 Q809 -20 443 -20 Q317 -20 211 -9 Q178 -4 156 25 Q134 52 134 90 L134 1323 Q134 1359 154 1387 Q175 1416 211 1421 Q342 1439 501 1439 Q670 1439 788 1402 Q904 1364 992 1284 Z M313 1750 Q302 1765 302 1782 Q302 1796 310 1810 Q330 1844 371 1844 L421 1844 Q462 1844 482 1810 L561 1660 L563 1660 L643 1810 Q663 1844 704 1844 L754 1844 Q795 1844 815 1810 Q823 1796 823 1782 Q823 1765 812 1750 L689 1552 Q669 1521 630 1521 L493 1521 Q454 1521 434 1553 L313 1750 Z " />
<glyph glyph-name="dcaron" unicode="&#x10f;" horiz-adv-x="1108" d="M751 599 Q751 631 745 659 Q730 730 678 775 Q632 818 574 818 Q477 818 423 736 Q372 657 372 529 Q372 389 427 312 Q481 236 574 236 Q635 236 682 277 Q730 320 744 387 Q751 414 751 446 L751 599 Z M751 928 L751 1415 Q751 1455 778 1483 Q806 1514 850 1514 L961 1514 Q1004 1514 1032 1483 Q1060 1455 1060 1415 L1060 314 Q1060 264 1058 203 L1057 152 Q1056 119 1055 99 Q1054 60 1026 31 Q999 3 957 3 L890 3 Q846 3 818 35 Q791 63 791 103 L792 139 Q698 -20 503 -20 Q320 -20 194 123 Q56 278 56 541 L56 545 Q56 777 168 922 Q280 1067 460 1067 Q560 1067 639 1026 Q709 990 751 928 Z " />
<glyph glyph-name="Dcroat" unicode="&#x110;" horiz-adv-x="1229" d="M109 825 L109 1323 Q109 1359 129 1387 Q150 1416 186 1421 Q317 1439 476 1439 Q645 1439 763 1402 Q879 1364 967 1284 Q1166 1104 1166 746 Q1166 367 971 167 Q784 -20 418 -20 Q292 -20 186 -9 Q153 -4 131 25 Q109 52 109 90 L109 610 L69 610 Q31 610 4 638 Q-21 664 -21 700 L-21 735 Q-21 771 4 797 Q31 825 69 825 L109 825 Z M388 825 L430 825 Q468 825 495 797 Q520 771 520 735 L520 700 Q520 664 495 638 Q468 610 430 610 L388 610 L388 284 Q388 263 399 249 Q410 235 423 234 Q434 233 449 233 L482 233 Q662 233 761 353 Q872 484 872 735 L872 739 Q872 957 772 1076 Q676 1190 504 1190 Q457 1190 420 1185 Q408 1184 399 1171 Q388 1156 388 1136 L388 825 Z " />
<glyph glyph-name="dcroat" unicode="&#x111;" horiz-adv-x="1158" d="M726 599 Q726 631 720 659 Q705 730 653 775 Q607 818 549 818 Q452 818 398 736 Q347 657 347 529 Q347 389 402 312 Q456 236 549 236 Q610 236 657 277 Q705 320 719 387 Q726 414 726 446 L726 599 Z M1035 1120 L1035 314 Q1035 264 1033 203 L1032 152 Q1031 119 1030 99 Q1029 60 1001 31 Q974 3 932 3 L865 3 Q821 3 793 35 Q766 63 766 103 L767 139 Q673 -20 478 -20 Q295 -20 169 123 Q31 278 31 541 L31 545 Q31 777 143 922 Q255 1067 435 1067 Q535 1067 614 1026 Q684 990 726 928 L726 1120 L687 1120 Q649 1120 622 1148 Q597 1174 597 1210 L597 1245 Q597 1281 622 1307 Q649 1335 687 1335 L726 1335 L726 1415 Q726 1455 753 1483 Q781 1514 825 1514 L936 1514 Q979 1514 1007 1483 Q1035 1455 1035 1415 L1035 1335 L1048 1335 Q1086 1335 1113 1307 Q1138 1281 1138 1245 L1138 1210 Q1138 1174 1113 1148 Q1086 1120 1048 1120 L1035 1120 Z " />
<glyph glyph-name="Emacron" unicode="&#x112;" horiz-adv-x="949" d="M877 246 Q918 246 945 215 Q971 186 971 147 L971 79 Q971 39 945 10 Q918 -20 877 -20 L228 -20 Q188 -20 160 11 Q134 38 134 79 L134 1315 Q134 1354 160 1384 Q189 1414 228 1414 L850 1414 Q891 1414 918 1383 Q944 1354 944 1315 L944 1246 Q944 1207 918 1177 Q890 1148 850 1148 L480 1148 Q464 1148 452 1135 Q438 1120 438 1096 L438 902 Q438 878 452 863 Q464 850 480 850 L822 850 Q861 850 890 820 Q915 791 915 751 L915 685 Q915 645 890 616 Q861 586 822 586 L480 586 Q464 586 452 573 Q438 558 438 534 L438 298 Q438 274 452 259 Q464 246 480 246 L877 246 Z M811 1727 Q811 1703 793 1684 Q772 1664 743 1664 L362 1664 Q333 1664 312 1684 Q294 1703 294 1727 L294 1780 Q294 1803 311 1822 Q332 1843 362 1843 L743 1843 Q773 1843 794 1822 Q811 1803 811 1780 L811 1727 Z " />
<glyph glyph-name="emacron" unicode="&#x113;" horiz-adv-x="971" d="M645 639 Q665 639 678 657 Q690 672 690 689 Q690 695 688 703 Q676 766 641 805 Q599 850 530 850 Q468 850 423 807 Q385 771 364 708 Q361 700 361 690 Q361 674 371 659 Q385 639 406 639 L645 639 Z M548 1065 Q769 1065 886 901 Q983 761 983 546 Q983 531 982 512 Q980 475 952 446 Q925 418 884 418 L412 418 Q389 418 375 395 Q366 381 366 367 Q366 354 373 340 Q403 281 472 249 Q536 220 619 220 Q711 220 790 237 Q801 240 812 240 Q844 240 869 221 Q903 198 909 158 L914 128 Q916 118 916 108 Q916 82 903 58 Q882 26 845 14 Q722 -20 576 -20 Q329 -20 189 125 Q56 265 56 510 Q56 728 174 884 Q310 1065 548 1065 Z M778 1317 Q778 1293 760 1274 Q739 1254 710 1254 L329 1254 Q300 1254 279 1274 Q261 1293 261 1317 L261 1370 Q261 1393 278 1412 Q299 1433 329 1433 L710 1433 Q740 1433 761 1412 Q778 1393 778 1370 L778 1317 Z " />
<glyph glyph-name="Ebreve" unicode="&#x114;" horiz-adv-x="949" d="M877 246 Q918 246 945 215 Q971 186 971 147 L971 79 Q971 39 945 10 Q918 -20 877 -20 L228 -20 Q188 -20 160 11 Q134 38 134 79 L134 1315 Q134 1354 160 1384 Q189 1414 228 1414 L850 1414 Q891 1414 918 1383 Q944 1354 944 1315 L944 1246 Q944 1207 918 1177 Q890 1148 850 1148 L480 1148 Q464 1148 452 1135 Q438 1120 438 1096 L438 902 Q438 878 452 863 Q464 850 480 850 L822 850 Q861 850 890 820 Q915 791 915 751 L915 685 Q915 645 890 616 Q861 586 822 586 L480 586 Q464 586 452 573 Q438 558 438 534 L438 298 Q438 274 452 259 Q464 246 480 246 L877 246 Z M382 1843 Q431 1843 446 1799 Q475 1713 550 1713 Q635 1713 661 1797 Q666 1816 684 1830 Q703 1843 727 1843 L765 1843 Q798 1843 819 1818 Q833 1801 833 1781 Q833 1775 832 1770 Q814 1665 743 1604 Q670 1541 552 1541 Q434 1541 359 1607 Q291 1665 273 1770 Q272 1777 272 1782 Q272 1802 285 1818 Q306 1843 339 1843 L382 1843 Z " />
<glyph glyph-name="ebreve" unicode="&#x115;" horiz-adv-x="971" d="M645 639 Q665 639 678 657 Q690 672 690 689 Q690 695 688 703 Q676 766 641 805 Q599 850 530 850 Q468 850 423 807 Q385 771 364 708 Q361 700 361 690 Q361 674 371 659 Q385 639 406 639 L645 639 Z M548 1065 Q769 1065 886 901 Q983 761 983 546 Q983 531 982 512 Q980 475 952 446 Q925 418 884 418 L412 418 Q389 418 375 395 Q366 381 366 367 Q366 354 373 340 Q403 281 472 249 Q536 220 619 220 Q711 220 790 237 Q801 240 812 240 Q844 240 869 221 Q903 198 909 158 L914 128 Q916 118 916 108 Q916 82 903 58 Q882 26 845 14 Q722 -20 576 -20 Q329 -20 189 125 Q56 265 56 510 Q56 728 174 884 Q310 1065 548 1065 Z M349 1433 Q398 1433 413 1389 Q442 1303 517 1303 Q602 1303 628 1387 Q633 1406 651 1420 Q670 1433 694 1433 L732 1433 Q765 1433 786 1408 Q800 1391 800 1371 Q800 1365 799 1360 Q781 1255 710 1194 Q637 1131 519 1131 Q401 1131 326 1197 Q258 1255 240 1360 Q239 1367 239 1372 Q239 1392 252 1408 Q273 1433 306 1433 L349 1433 Z " />
<glyph glyph-name="Edotaccent" unicode="&#x116;" horiz-adv-x="949" d="M877 246 Q918 246 945 215 Q971 186 971 147 L971 79 Q971 39 945 10 Q918 -20 877 -20 L228 -20 Q188 -20 160 11 Q134 38 134 79 L134 1315 Q134 1354 160 1384 Q189 1414 228 1414 L850 1414 Q891 1414 918 1383 Q944 1354 944 1315 L944 1246 Q944 1207 918 1177 Q890 1148 850 1148 L480 1148 Q464 1148 452 1135 Q438 1120 438 1096 L438 902 Q438 878 452 863 Q464 850 480 850 L822 850 Q861 850 890 820 Q915 791 915 751 L915 685 Q915 645 890 616 Q861 586 822 586 L480 586 Q464 586 452 573 Q438 558 438 534 L438 298 Q438 274 452 259 Q464 246 480 246 L877 246 Z M554 1546 Q491 1546 448 1592 Q407 1635 407 1695 Q407 1759 447 1801 Q491 1846 556 1846 Q619 1846 659 1801 Q699 1759 699 1695 Q699 1636 659 1591 Q617 1546 556 1546 L554 1546 Z " />
<glyph glyph-name="edotaccent" unicode="&#x117;" horiz-adv-x="970" d="M644 639 Q664 639 677 657 Q689 672 689 689 Q689 695 687 703 Q675 766 640 805 Q598 850 529 850 Q467 850 422 807 Q384 771 363 708 Q360 700 360 690 Q360 674 370 659 Q384 639 405 639 L644 639 Z M547 1065 Q768 1065 885 901 Q982 761 982 546 Q982 531 981 512 Q979 475 951 446 Q924 418 883 418 L411 418 Q388 418 374 395 Q365 381 365 367 Q365 354 372 340 Q402 281 471 249 Q535 220 618 220 Q710 220 789 237 Q800 240 811 240 Q843 240 868 221 Q902 198 908 158 L913 128 Q915 118 915 108 Q915 82 902 58 Q881 26 844 14 Q721 -20 575 -20 Q328 -20 188 125 Q55 265 55 510 Q55 728 173 884 Q309 1065 547 1065 Z M520 1136 Q457 1136 414 1182 Q373 1225 373 1285 Q373 1349 413 1391 Q457 1436 522 1436 Q585 1436 625 1391 Q665 1349 665 1285 Q665 1226 625 1181 Q583 1136 522 1136 L520 1136 Z " />
<glyph glyph-name="Eogonek" unicode="&#x118;" horiz-adv-x="999" d="M546 0 L203 0 Q163 0 135 31 Q109 58 109 99 L109 1335 Q109 1374 135 1404 Q164 1434 203 1434 L825 1434 Q866 1434 893 1403 Q919 1374 919 1335 L919 1266 Q919 1227 893 1197 Q865 1168 825 1168 L455 1168 Q439 1168 427 1155 Q413 1140 413 1116 L413 922 Q413 898 427 883 Q439 870 455 870 L797 870 Q836 870 865 840 Q890 811 890 771 L890 705 Q890 665 865 636 Q836 606 797 606 L455 606 Q439 606 427 593 Q413 578 413 554 L413 318 Q413 294 427 279 Q439 266 455 266 L852 266 Q893 266 920 235 Q946 206 946 167 L946 99 Q946 59 920 30 Q893 0 852 0 L728 0 L728 16 Q728 8 725 -2 Q712 -40 712 -74 Q712 -125 740 -156 Q768 -187 814 -187 Q833 -187 848 -185 Q854 -183 862 -183 Q884 -183 901 -195 Q920 -208 927 -231 L940 -277 Q943 -286 943 -295 Q943 -306 939 -316 Q928 -338 907 -349 Q830 -387 741 -387 Q630 -387 570 -329 Q509 -271 509 -162 Q509 -109 529 -47 Q541 -10 546 0 Z " />
<glyph glyph-name="eogonek" unicode="&#x119;" horiz-adv-x="1008" d="M619 659 Q639 659 652 677 Q664 692 664 709 Q664 715 662 723 Q650 786 615 825 Q573 870 504 870 Q442 870 397 827 Q359 791 338 728 Q335 720 335 710 Q335 694 345 679 Q359 659 380 659 L619 659 Z M528 0 L550 0 Q303 0 163 145 Q30 285 30 530 Q30 748 148 904 Q284 1085 522 1085 Q743 1085 860 921 Q957 781 957 566 Q957 551 956 532 Q954 495 926 466 Q899 438 858 438 L386 438 Q363 438 349 415 Q340 401 340 387 Q340 374 347 360 Q377 301 446 269 Q510 240 593 240 Q685 240 764 257 Q775 260 786 260 Q818 260 843 241 Q877 218 883 178 L888 148 Q890 138 890 128 Q890 102 877 78 Q856 46 819 34 Q764 19 726 13 Q727 -20 754 -50 Q782 -81 828 -81 Q847 -81 862 -79 Q868 -77 876 -77 Q898 -77 915 -89 Q934 -102 941 -125 L954 -171 Q957 -180 957 -189 Q957 -200 953 -210 Q942 -232 921 -243 Q844 -281 755 -281 Q644 -281 584 -223 Q523 -165 523 -56 Q523 -18 528 0 Z " />
<glyph glyph-name="Ecaron" unicode="&#x11a;" horiz-adv-x="949" d="M877 246 Q918 246 945 215 Q971 186 971 147 L971 79 Q971 39 945 10 Q918 -20 877 -20 L228 -20 Q188 -20 160 11 Q134 38 134 79 L134 1315 Q134 1354 160 1384 Q189 1414 228 1414 L850 1414 Q891 1414 918 1383 Q944 1354 944 1315 L944 1246 Q944 1207 918 1177 Q890 1148 850 1148 L480 1148 Q464 1148 452 1135 Q438 1120 438 1096 L438 902 Q438 878 452 863 Q464 850 480 850 L822 850 Q861 850 890 820 Q915 791 915 751 L915 685 Q915 645 890 616 Q861 586 822 586 L480 586 Q464 586 452 573 Q438 558 438 534 L438 298 Q438 274 452 259 Q464 246 480 246 L877 246 Z M243 1750 Q232 1765 232 1782 Q232 1796 240 1810 Q260 1844 301 1844 L351 1844 Q392 1844 412 1810 L491 1660 L493 1660 L573 1810 Q593 1844 634 1844 L684 1844 Q725 1844 745 1810 Q753 1796 753 1782 Q753 1765 742 1750 L619 1552 Q599 1521 560 1521 L423 1521 Q384 1521 364 1553 L243 1750 Z " />
<glyph glyph-name="ecaron" unicode="&#x11b;" horiz-adv-x="971" d="M645 639 Q665 639 678 657 Q690 672 690 689 Q690 695 688 703 Q676 766 641 805 Q599 850 530 850 Q468 850 423 807 Q385 771 364 708 Q361 700 361 690 Q361 674 371 659 Q385 639 406 639 L645 639 Z M548 1065 Q769 1065 886 901 Q983 761 983 546 Q983 531 982 512 Q980 475 952 446 Q925 418 884 418 L412 418 Q389 418 375 395 Q366 381 366 367 Q366 354 373 340 Q403 281 472 249 Q536 220 619 220 Q711 220 790 237 Q801 240 812 240 Q844 240 869 221 Q903 198 909 158 L914 128 Q916 118 916 108 Q916 82 903 58 Q882 26 845 14 Q722 -20 576 -20 Q329 -20 189 125 Q56 265 56 510 Q56 728 174 884 Q310 1065 548 1065 Z M310 1340 Q299 1355 299 1372 Q299 1386 307 1400 Q327 1434 368 1434 L418 1434 Q459 1434 479 1400 L558 1250 L560 1250 L640 1400 Q660 1434 701 1434 L751 1434 Q792 1434 812 1400 Q820 1386 820 1372 Q820 1355 809 1340 L686 1142 Q666 1111 627 1111 L490 1111 Q451 1111 431 1143 L310 1340 Z " />
<glyph glyph-name="Gcircumflex" unicode="&#x11c;" horiz-adv-x="1220" d="M1207 133 Q1207 101 1190 75 Q1170 49 1140 39 Q1056 14 969 -2 Q864 -20 769 -20 Q420 -20 237 176 Q147 268 101 403 Q54 534 54 689 L54 695 Q56 1042 266 1247 Q469 1444 800 1444 Q954 1444 1080 1406 Q1117 1393 1135 1359 Q1148 1336 1148 1311 Q1148 1299 1144 1287 L1129 1218 Q1119 1179 1086 1158 Q1063 1143 1037 1143 Q1024 1143 1011 1147 Q918 1176 797 1176 Q609 1176 496 1062 Q372 937 372 712 Q372 491 486 365 Q596 242 775 242 Q838 242 881 250 Q895 253 905 267 Q914 281 914 300 L914 513 Q914 536 901 550 Q889 563 874 563 L808 563 Q767 563 740 594 Q715 622 715 661 L715 718 Q715 757 740 785 Q767 816 808 816 L1113 816 Q1154 816 1181 785 Q1207 756 1207 718 L1207 133 Z M920 1619 Q931 1603 931 1586 Q931 1572 923 1558 Q903 1524 862 1524 L812 1524 Q769 1524 752 1559 L672 1709 L671 1709 L590 1558 Q570 1524 529 1524 L479 1524 Q438 1524 418 1559 Q410 1573 410 1587 Q410 1603 421 1619 L544 1816 Q564 1847 603 1847 L739 1847 Q778 1847 798 1815 L920 1619 Z " />
<glyph glyph-name="gcircumflex" unicode="&#x11d;" horiz-adv-x="1059" d="M724 561 Q724 597 717 622 Q701 689 659 726 Q618 764 561 764 Q481 764 428 689 Q369 606 369 468 Q369 346 420 269 Q473 192 561 192 Q614 192 656 228 Q698 263 714 321 Q719 338 721 364 Q724 384 724 408 L724 561 Z M761 869 L763 894 Q767 932 794 958 Q821 985 862 985 L939 985 Q982 985 1008 955 Q1036 925 1036 888 L1036 885 Q1033 794 1033 676 L1033 96 Q1033 -231 888 -371 Q746 -500 490 -500 Q340 -500 218 -455 Q182 -443 165 -408 Q154 -387 154 -364 Q154 -354 156 -342 L169 -288 Q179 -247 216 -226 Q240 -214 264 -214 Q281 -214 298 -220 Q390 -254 482 -254 Q591 -254 657 -188 Q728 -117 728 21 L728 83 Q637 -47 468 -47 Q285 -47 170 97 Q55 238 55 461 Q55 704 184 858 Q311 1008 498 1008 Q676 1008 761 869 Z M835 1209 Q846 1193 846 1176 Q846 1162 838 1148 Q818 1114 777 1114 L727 1114 Q684 1114 667 1149 L587 1299 L586 1299 L505 1148 Q485 1114 444 1114 L394 1114 Q353 1114 333 1149 Q325 1163 325 1177 Q325 1193 336 1209 L459 1406 Q479 1437 518 1437 L654 1437 Q693 1437 713 1405 L835 1209 Z " />
<glyph glyph-name="Gbreve" unicode="&#x11e;" horiz-adv-x="1220" d="M1207 133 Q1207 101 1190 75 Q1170 49 1140 39 Q1056 14 969 -2 Q864 -20 769 -20 Q420 -20 237 176 Q147 268 101 403 Q54 534 54 689 L54 695 Q56 1042 266 1247 Q469 1444 800 1444 Q954 1444 1080 1406 Q1117 1393 1135 1359 Q1148 1336 1148 1311 Q1148 1299 1144 1287 L1129 1218 Q1119 1179 1086 1158 Q1063 1143 1037 1143 Q1024 1143 1011 1147 Q918 1176 797 1176 Q609 1176 496 1062 Q372 937 372 712 Q372 491 486 365 Q596 242 775 242 Q838 242 881 250 Q895 253 905 267 Q914 281 914 300 L914 513 Q914 536 901 550 Q889 563 874 563 L808 563 Q767 563 740 594 Q715 622 715 661 L715 718 Q715 757 740 785 Q767 816 808 816 L1113 816 Q1154 816 1181 785 Q1207 756 1207 718 L1207 133 Z M460 1843 Q509 1843 524 1799 Q553 1713 628 1713 Q713 1713 739 1797 Q744 1816 762 1830 Q781 1843 805 1843 L843 1843 Q876 1843 897 1818 Q911 1801 911 1781 Q911 1775 910 1770 Q892 1665 821 1604 Q748 1541 630 1541 Q512 1541 437 1607 Q369 1665 351 1770 Q350 1777 350 1782 Q350 1802 363 1818 Q384 1843 417 1843 L460 1843 Z " />
<glyph glyph-name="gbreve" unicode="&#x11f;" horiz-adv-x="1060" d="M725 561 Q725 597 718 622 Q702 689 660 726 Q619 764 562 764 Q482 764 429 689 Q370 606 370 468 Q370 346 421 269 Q474 192 562 192 Q615 192 657 228 Q699 263 715 321 Q720 338 722 364 Q725 384 725 408 L725 561 Z M762 869 L764 894 Q768 932 795 958 Q822 985 863 985 L940 985 Q983 985 1009 955 Q1037 925 1037 888 L1037 885 Q1034 794 1034 676 L1034 96 Q1034 -231 889 -371 Q747 -500 491 -500 Q341 -500 219 -455 Q183 -443 166 -408 Q155 -387 155 -364 Q155 -354 157 -342 L170 -288 Q180 -247 217 -226 Q241 -214 265 -214 Q282 -214 299 -220 Q391 -254 483 -254 Q592 -254 658 -188 Q729 -117 729 21 L729 83 Q638 -47 469 -47 Q286 -47 171 97 Q56 238 56 461 Q56 704 185 858 Q312 1008 499 1008 Q677 1008 762 869 Z M376 1433 Q425 1433 440 1389 Q469 1303 544 1303 Q629 1303 655 1387 Q660 1406 678 1420 Q697 1433 721 1433 L759 1433 Q792 1433 813 1408 Q827 1391 827 1371 Q827 1365 826 1360 Q808 1255 737 1194 Q664 1131 546 1131 Q428 1131 353 1197 Q285 1255 267 1360 Q266 1367 266 1372 Q266 1392 279 1408 Q300 1433 333 1433 L376 1433 Z " />
<glyph glyph-name="Gdotaccent" unicode="&#x120;" horiz-adv-x="1220" d="M1207 133 Q1207 101 1190 75 Q1170 49 1140 39 Q1056 14 969 -2 Q864 -20 769 -20 Q420 -20 237 176 Q147 268 101 403 Q54 534 54 689 L54 695 Q56 1042 266 1247 Q469 1444 800 1444 Q954 1444 1080 1406 Q1117 1393 1135 1359 Q1148 1336 1148 1311 Q1148 1299 1144 1287 L1129 1218 Q1119 1179 1086 1158 Q1063 1143 1037 1143 Q1024 1143 1011 1147 Q918 1176 797 1176 Q609 1176 496 1062 Q372 937 372 712 Q372 491 486 365 Q596 242 775 242 Q838 242 881 250 Q895 253 905 267 Q914 281 914 300 L914 513 Q914 536 901 550 Q889 563 874 563 L808 563 Q767 563 740 594 Q715 622 715 661 L715 718 Q715 757 740 785 Q767 816 808 816 L1113 816 Q1154 816 1181 785 Q1207 756 1207 718 L1207 133 Z M631 1546 Q568 1546 525 1592 Q484 1635 484 1695 Q484 1759 524 1801 Q568 1846 633 1846 Q696 1846 736 1801 Q776 1759 776 1695 Q776 1636 736 1591 Q694 1546 633 1546 L631 1546 Z " />
<glyph glyph-name="gdotaccent" unicode="&#x121;" horiz-adv-x="1109" d="M724 561 Q724 597 717 622 Q701 689 659 726 Q618 764 561 764 Q481 764 428 689 Q369 606 369 468 Q369 346 420 269 Q473 192 561 192 Q614 192 656 228 Q698 263 714 321 Q719 338 721 364 Q724 384 724 408 L724 561 Z M761 869 L763 894 Q767 932 794 958 Q821 985 862 985 L939 985 Q982 985 1008 955 Q1036 925 1036 888 L1036 885 Q1033 794 1033 676 L1033 96 Q1033 -231 888 -371 Q746 -500 490 -500 Q340 -500 218 -455 Q182 -443 165 -408 Q154 -387 154 -364 Q154 -354 156 -342 L169 -288 Q179 -247 216 -226 Q240 -214 264 -214 Q281 -214 298 -220 Q390 -254 482 -254 Q591 -254 657 -188 Q728 -117 728 21 L728 83 Q637 -47 468 -47 Q285 -47 170 97 Q55 238 55 461 Q55 704 184 858 Q311 1008 498 1008 Q676 1008 761 869 Z M547 1136 Q484 1136 441 1182 Q400 1225 400 1285 Q400 1349 440 1391 Q484 1436 549 1436 Q612 1436 652 1391 Q692 1349 692 1285 Q692 1226 652 1181 Q610 1136 549 1136 L547 1136 Z " />
<glyph glyph-name="uni0122" unicode="&#x122;" horiz-adv-x="1270" d="M630 -14 Q364 13 212 176 Q122 268 76 403 Q29 534 29 689 L29 695 Q31 1042 241 1247 Q444 1444 775 1444 Q929 1444 1055 1406 Q1092 1393 1110 1359 Q1123 1336 1123 1311 Q1123 1299 1119 1287 L1104 1218 Q1094 1179 1061 1158 Q1038 1143 1012 1143 Q999 1143 986 1147 Q893 1176 772 1176 Q584 1176 471 1062 Q347 937 347 712 Q347 491 461 365 Q571 242 750 242 Q813 242 856 250 Q870 253 880 267 Q889 281 889 300 L889 513 Q889 536 876 550 Q864 563 849 563 L783 563 Q742 563 715 594 Q690 622 690 661 L690 718 Q690 757 715 785 Q742 816 783 816 L1088 816 Q1129 816 1156 785 Q1182 756 1182 718 L1182 133 Q1182 101 1165 75 Q1145 49 1115 39 Q1031 14 944 -2 Q860 -16 783 -19 Q785 -27 785 -35 Q785 -49 777 -63 L771 -74 Q831 -83 873 -125 Q918 -168 918 -229 Q918 -325 842 -372 Q775 -414 666 -414 Q609 -414 558 -398 Q531 -389 520 -364 Q513 -352 513 -337 Q513 -328 517 -316 Q525 -295 548 -283 Q564 -274 583 -274 Q594 -274 603 -277 Q633 -287 655 -287 Q682 -287 698 -276 Q722 -260 722 -231 Q722 -167 564 -153 L630 -14 Z " />
<glyph glyph-name="uni0123" unicode="&#x123;" horiz-adv-x="1109" d="M699 561 Q699 597 692 622 Q676 689 634 726 Q593 764 536 764 Q456 764 403 689 Q344 606 344 468 Q344 346 395 269 Q448 192 536 192 Q589 192 631 228 Q673 263 689 321 Q694 338 696 364 Q699 384 699 408 L699 561 Z M736 869 L738 894 Q742 932 769 958 Q796 985 837 985 L914 985 Q957 985 983 955 Q1011 925 1011 888 L1011 885 Q1008 794 1008 676 L1008 96 Q1008 -231 863 -371 Q721 -500 465 -500 Q315 -500 193 -455 Q157 -443 140 -408 Q129 -387 129 -364 Q129 -354 131 -342 L144 -288 Q154 -247 191 -226 Q215 -214 239 -214 Q256 -214 273 -220 Q365 -254 457 -254 Q566 -254 632 -188 Q703 -117 703 21 L703 83 Q612 -47 443 -47 Q260 -47 145 97 Q30 238 30 461 Q30 704 159 858 Q286 1008 473 1008 Q651 1008 736 869 Z M663 1504 L666 1504 Q702 1504 722 1477 Q734 1459 734 1440 Q734 1430 730 1418 Q674 1256 607 1137 Q590 1107 555 1102 L535 1102 Q502 1102 483 1127 Q469 1145 469 1165 Q469 1174 472 1183 Q511 1317 533 1445 Q536 1467 553 1481 Q569 1497 593 1499 L663 1504 Z " />
<glyph glyph-name="Hcircumflex" unicode="&#x124;" horiz-adv-x="1262" d="M438 912 Q438 891 451 875 Q463 863 479 863 L871 863 Q886 863 898 875 Q911 891 911 912 L911 1317 Q911 1355 937 1384 Q964 1414 1004 1414 L1121 1414 Q1162 1414 1188 1383 Q1214 1355 1214 1317 L1214 77 Q1214 39 1188 11 Q1162 -20 1121 -20 L1004 -20 Q964 -20 937 10 Q911 39 911 77 L911 530 Q911 553 898 567 Q886 580 871 580 L479 580 Q463 580 451 567 Q438 553 438 530 L438 77 Q438 39 413 11 Q386 -20 346 -20 L227 -20 Q186 -20 160 11 Q134 39 134 77 L134 1317 Q134 1355 160 1383 Q186 1414 227 1414 L346 1414 Q386 1414 413 1383 Q438 1355 438 1317 L438 912 Z M924 1619 Q935 1603 935 1586 Q935 1572 927 1558 Q907 1524 866 1524 L816 1524 Q773 1524 756 1559 L676 1709 L675 1709 L594 1558 Q574 1524 533 1524 L483 1524 Q442 1524 422 1559 Q414 1573 414 1587 Q414 1603 425 1619 L548 1816 Q568 1847 607 1847 L743 1847 Q782 1847 802 1815 L924 1619 Z " />
<glyph glyph-name="hcircumflex" unicode="&#x125;" horiz-adv-x="1112" d="M409 904 Q453 963 522 1002 Q592 1043 682 1043 Q836 1043 927 931 Q1024 812 1024 588 L1024 78 Q1024 38 998 11 Q968 -20 926 -20 L812 -20 Q771 -20 741 11 Q714 38 714 78 L714 552 Q714 782 563 782 Q512 782 472 748 Q437 719 418 672 Q409 644 409 597 L409 78 Q409 38 382 11 Q352 -20 311 -20 L197 -20 Q155 -20 125 11 Q99 38 99 78 L99 1393 Q99 1432 125 1459 Q155 1490 197 1490 L311 1490 Q352 1490 382 1459 Q409 1432 409 1393 L409 904 Z M516 1635 Q527 1619 527 1602 Q527 1588 519 1574 Q499 1540 458 1540 L408 1540 Q365 1540 348 1575 L268 1725 L267 1725 L186 1574 Q166 1540 125 1540 L75 1540 Q34 1540 14 1575 Q6 1589 6 1603 Q6 1619 17 1635 L140 1832 Q160 1863 199 1863 L335 1863 Q374 1863 394 1831 L516 1635 Z " />
<glyph glyph-name="Hbar" unicode="&#x126;" horiz-adv-x="1312" d="M413 1128 L413 932 Q413 911 426 895 Q438 883 454 883 L846 883 Q861 883 873 895 Q886 911 886 932 L886 1128 L413 1128 Z M886 1234 L886 1337 Q886 1375 912 1404 Q939 1434 979 1434 L1096 1434 Q1137 1434 1163 1403 Q1189 1375 1189 1337 L1189 97 Q1189 59 1163 31 Q1137 0 1096 0 L979 0 Q939 0 912 30 Q886 59 886 97 L886 550 Q886 573 873 587 Q861 600 846 600 L454 600 Q438 600 426 587 Q413 573 413 550 L413 97 Q413 59 388 31 Q361 0 321 0 L202 0 Q161 0 135 31 Q109 59 109 97 L109 1337 Q109 1375 135 1403 Q161 1434 202 1434 L321 1434 Q361 1434 388 1403 Q413 1375 413 1337 L413 1234 L886 1234 Z " />
<glyph glyph-name="hbar" unicode="&#x127;" horiz-adv-x="1112" d="M409 924 Q453 983 522 1022 Q592 1063 682 1063 Q836 1063 927 951 Q1024 832 1024 608 L1024 98 Q1024 58 998 31 Q968 0 926 0 L812 0 Q771 0 741 31 Q714 58 714 98 L714 572 Q714 802 563 802 Q512 802 472 768 Q437 739 418 692 Q409 664 409 617 L409 98 Q409 58 382 31 Q352 0 311 0 L197 0 Q155 0 125 31 Q99 58 99 98 L99 1413 Q99 1452 125 1479 Q155 1510 197 1510 L311 1510 Q352 1510 382 1479 Q409 1452 409 1413 L409 1243 L903 1243 Q921 1243 931 1226 Q939 1211 939 1190 Q939 1170 931 1154 Q921 1137 903 1137 L409 1137 L409 924 Z " />
<glyph glyph-name="Itilde" unicode="&#x128;" horiz-adv-x="530" d="M366 1414 Q409 1414 437 1383 Q464 1355 464 1316 L464 78 Q464 38 437 11 Q409 -20 366 -20 L257 -20 Q214 -20 184 11 Q158 38 158 78 L158 1316 Q158 1355 185 1383 Q213 1414 257 1414 L366 1414 Z M86 1564 Q56 1564 35 1586 Q18 1605 18 1628 L18 1632 Q26 1731 71 1788 Q117 1843 188 1843 Q224 1843 262 1828 Q275 1823 293 1815 L323 1799 L336 1792 L348 1785 Q362 1776 370 1772 Q391 1760 405 1760 Q435 1760 445 1803 Q451 1825 468 1838 Q487 1853 512 1853 L536 1853 Q567 1853 588 1832 Q604 1813 604 1791 L604 1787 Q590 1581 433 1581 Q394 1581 355 1597 Q341 1601 322 1611 L288 1627 Q232 1660 216 1660 Q191 1660 180 1613 Q174 1592 157 1579 Q138 1564 113 1564 L86 1564 Z " />
<glyph glyph-name="itilde" unicode="&#x129;" horiz-adv-x="535" d="M373 1040 Q416 1040 443 1010 Q471 981 471 942 L471 99 Q471 58 444 31 Q414 0 373 0 L260 0 Q218 0 188 31 Q161 58 161 99 L161 942 Q161 981 189 1010 Q216 1040 260 1040 L373 1040 Z M91 1154 Q61 1154 40 1176 Q23 1195 23 1218 L23 1222 Q31 1321 76 1378 Q122 1433 193 1433 Q229 1433 267 1418 Q280 1413 298 1405 L328 1389 L341 1382 L353 1375 Q367 1366 375 1362 Q396 1350 410 1350 Q440 1350 450 1393 Q456 1415 473 1428 Q492 1443 517 1443 L541 1443 Q572 1443 593 1422 Q609 1403 609 1381 L609 1377 Q595 1171 438 1171 Q399 1171 360 1187 Q346 1191 327 1201 L293 1217 Q237 1250 221 1250 Q196 1250 185 1203 Q179 1182 162 1169 Q143 1154 118 1154 L91 1154 Z " />
<glyph glyph-name="Imacron" unicode="&#x12a;" horiz-adv-x="498" d="M330 1414 Q373 1414 401 1383 Q428 1355 428 1316 L428 78 Q428 38 401 11 Q373 -20 330 -20 L221 -20 Q178 -20 148 11 Q122 38 122 78 L122 1316 Q122 1355 149 1383 Q177 1414 221 1414 L330 1414 Z M534 1727 Q534 1703 516 1684 Q495 1664 466 1664 L85 1664 Q56 1664 35 1684 Q17 1703 17 1727 L17 1780 Q17 1803 34 1822 Q55 1843 85 1843 L466 1843 Q496 1843 517 1822 Q534 1803 534 1780 L534 1727 Z " />
<glyph glyph-name="imacron" unicode="&#x12b;" horiz-adv-x="503" d="M337 1040 Q380 1040 407 1010 Q435 981 435 942 L435 99 Q435 58 408 31 Q378 0 337 0 L224 0 Q182 0 152 31 Q125 58 125 99 L125 942 Q125 981 153 1010 Q180 1040 224 1040 L337 1040 Z M539 1317 Q539 1293 521 1274 Q500 1254 471 1254 L90 1254 Q61 1254 40 1274 Q22 1293 22 1317 L22 1370 Q22 1393 39 1412 Q60 1433 90 1433 L471 1433 Q501 1433 522 1412 Q539 1393 539 1370 L539 1317 Z " />
<glyph glyph-name="Ibreve" unicode="&#x12c;" horiz-adv-x="509" d="M355 1414 Q398 1414 426 1383 Q453 1355 453 1316 L453 78 Q453 38 426 11 Q398 -20 355 -20 L246 -20 Q203 -20 173 11 Q147 38 147 78 L147 1316 Q147 1355 174 1383 Q202 1414 246 1414 L355 1414 Z M130 1843 Q179 1843 194 1799 Q223 1713 298 1713 Q383 1713 409 1797 Q414 1816 432 1830 Q451 1843 475 1843 L513 1843 Q546 1843 567 1818 Q581 1801 581 1781 Q581 1775 580 1770 Q562 1665 491 1604 Q418 1541 300 1541 Q182 1541 107 1607 Q39 1665 21 1770 Q20 1777 20 1782 Q20 1802 33 1818 Q54 1843 87 1843 L130 1843 Z " />
<glyph glyph-name="ibreve" unicode="&#x12d;" horiz-adv-x="445" d="M362 1040 Q405 1040 432 1010 Q460 981 460 942 L460 99 Q460 58 433 31 Q403 0 362 0 L249 0 Q207 0 177 31 Q150 58 150 99 L150 942 Q150 981 178 1010 Q205 1040 249 1040 L362 1040 Z M135 1433 Q184 1433 199 1389 Q228 1303 303 1303 Q388 1303 414 1387 Q419 1406 437 1420 Q456 1433 480 1433 L518 1433 Q551 1433 572 1408 Q586 1391 586 1371 Q586 1365 585 1360 Q567 1255 496 1194 Q423 1131 305 1131 Q187 1131 112 1197 Q44 1255 26 1360 Q25 1367 25 1372 Q25 1392 38 1408 Q59 1433 92 1433 L135 1433 Z " />
<glyph glyph-name="Iogonek" unicode="&#x12e;" horiz-adv-x="594" d="M167 41 Q151 58 151 98 L151 1336 Q151 1375 178 1403 Q206 1434 250 1434 L359 1434 Q402 1434 430 1403 Q457 1375 457 1336 L457 98 Q457 58 430 31 Q402 0 359 0 L331 0 Q328 0 325 -10 Q312 -49 312 -83 Q312 -134 340 -165 Q368 -196 414 -196 Q433 -196 448 -194 Q454 -192 462 -192 Q484 -192 501 -204 Q520 -217 527 -240 L540 -286 Q543 -295 543 -304 Q543 -315 539 -325 Q528 -347 507 -358 Q430 -396 341 -396 Q230 -396 170 -338 Q109 -280 109 -171 Q109 -118 129 -56 Q144 -9 168 37 L167 41 Z " />
<glyph glyph-name="iogonek" unicode="&#x12f;" horiz-adv-x="539" d="M243 1168 Q170 1168 123 1217 Q81 1261 81 1326 L81 1332 Q81 1401 122 1444 Q170 1493 244 1493 Q318 1493 364 1444 Q407 1400 409 1329 Q409 1262 366 1217 Q318 1168 243 1168 Z M108 38 Q89 58 89 99 L89 942 Q89 981 117 1010 Q144 1040 188 1040 L301 1040 Q344 1040 371 1010 Q399 981 399 942 L399 99 Q399 58 372 31 Q342 0 301 0 L273 0 L270 -2 Q257 -40 257 -74 Q257 -125 285 -156 Q313 -187 359 -187 Q378 -187 393 -185 Q399 -183 407 -183 Q429 -183 446 -195 Q465 -208 472 -231 L485 -277 Q488 -286 488 -295 Q488 -306 484 -316 Q473 -338 452 -349 Q375 -387 286 -387 Q175 -387 115 -329 Q54 -271 54 -162 Q54 -109 74 -47 Q89 0 108 38 Z " />
<glyph glyph-name="Idotaccent" unicode="&#x130;" horiz-adv-x="488" d="M342 1414 Q385 1414 413 1383 Q440 1355 440 1316 L440 78 Q440 38 413 11 Q385 -20 342 -20 L233 -20 Q190 -20 160 11 Q134 38 134 78 L134 1316 Q134 1355 161 1383 Q189 1414 233 1414 L342 1414 Z M288 1546 Q225 1546 182 1592 Q141 1635 141 1695 Q141 1759 181 1801 Q225 1846 290 1846 Q353 1846 393 1801 Q433 1759 433 1695 Q433 1636 393 1591 Q351 1546 290 1546 L288 1546 Z " />
<glyph glyph-name="IJ" unicode="&#x132;" horiz-adv-x="1181" d="M342 1414 Q385 1414 413 1383 Q440 1355 440 1316 L440 78 Q440 38 413 11 Q385 -20 342 -20 L233 -20 Q190 -20 160 11 Q134 38 134 78 L134 1316 Q134 1355 161 1383 Q189 1414 233 1414 L342 1414 Z M1048 1437 Q1092 1437 1120 1406 Q1147 1378 1147 1339 L1147 531 Q1147 239 1023 105 Q910 -20 681 -20 Q621 -20 556 -9 Q516 -2 491 32 Q473 57 473 87 Q473 94 474 101 L482 169 Q487 208 518 232 Q545 255 579 255 Q587 255 594 254 Q622 250 650 250 Q746 250 792 308 Q845 375 845 535 L845 1339 Q845 1378 873 1406 Q901 1437 944 1437 L1048 1437 Z " />
<glyph glyph-name="ij" unicode="&#x133;" horiz-adv-x="1032" d="M287 1148 Q214 1148 167 1197 Q125 1241 125 1306 L125 1312 Q125 1381 166 1424 Q214 1473 288 1473 Q362 1473 408 1424 Q451 1380 453 1309 Q453 1242 410 1197 Q362 1148 287 1148 Z M345 1020 Q388 1020 415 990 Q443 961 443 922 L443 79 Q443 38 416 11 Q386 -20 345 -20 L232 -20 Q190 -20 160 11 Q133 38 133 79 L133 922 Q133 961 161 990 Q188 1020 232 1020 L345 1020 Z M843 1147 Q769 1147 725 1197 Q682 1242 682 1309 Q682 1380 727 1427 Q771 1473 847 1473 Q921 1473 964 1427 Q1008 1380 1010 1309 Q1010 1242 966 1197 Q921 1147 843 1147 Z M904 1020 Q947 1020 975 989 Q1001 962 1001 923 L1001 118 Q1001 -199 867 -335 Q765 -437 582 -459 Q575 -460 567 -460 Q533 -460 507 -438 Q477 -412 473 -374 L464 -304 L464 -294 Q464 -264 480 -240 Q500 -209 536 -198 Q598 -182 631 -145 Q664 -108 676 -33 Q690 40 690 195 L690 923 Q690 962 717 989 Q745 1020 788 1020 L904 1020 Z " />
<glyph glyph-name="Jcircumflex" unicode="&#x134;" horiz-adv-x="752" d="M555 1437 Q599 1437 627 1406 Q654 1378 654 1339 L654 531 Q654 239 530 105 Q417 -20 188 -20 Q128 -20 63 -9 Q23 -2 -2 32 Q-20 57 -20 87 Q-20 94 -19 101 L-11 169 Q-6 208 25 232 Q52 255 86 255 Q94 255 101 254 Q129 250 157 250 Q253 250 299 308 Q352 375 352 535 L352 1339 Q352 1378 380 1406 Q408 1437 451 1437 L555 1437 Z M742 1603 Q753 1587 753 1570 Q753 1556 745 1542 Q725 1508 684 1508 L634 1508 Q591 1508 574 1543 L494 1693 L493 1693 L412 1542 Q392 1508 351 1508 L301 1508 Q260 1508 240 1543 Q232 1557 232 1571 Q232 1587 243 1603 L366 1800 Q386 1831 425 1831 L561 1831 Q600 1831 620 1799 L742 1603 Z " />
<glyph glyph-name="jcircumflex" unicode="&#x135;" horiz-adv-x="487" d="M341 1038 Q384 1038 412 1007 Q438 980 438 941 L438 136 Q438 -181 304 -317 Q202 -419 19 -441 Q12 -442 4 -442 Q-30 -442 -56 -420 Q-86 -394 -90 -356 L-99 -286 L-99 -276 Q-99 -246 -83 -222 Q-63 -191 -27 -180 Q35 -164 68 -127 Q101 -90 113 -15 Q127 58 127 213 L127 941 Q127 980 154 1007 Q182 1038 225 1038 L341 1038 Z M585 1209 Q596 1193 596 1176 Q596 1162 588 1148 Q568 1114 527 1114 L477 1114 Q434 1114 417 1149 L337 1299 L336 1299 L255 1148 Q235 1114 194 1114 L144 1114 Q103 1114 83 1149 Q75 1163 75 1177 Q75 1193 86 1209 L209 1406 Q229 1437 268 1437 L404 1437 Q443 1437 463 1405 L585 1209 Z " />
<glyph glyph-name="uni0136" unicode="&#x136;" horiz-adv-x="1086" d="M395 787 Q411 817 437 859 L460 897 L482 936 L763 1373 Q789 1414 836 1414 L998 1414 Q1053 1414 1077 1364 Q1086 1344 1086 1326 Q1086 1299 1069 1274 L725 803 L1120 111 Q1132 92 1132 69 Q1132 48 1120 26 Q1095 -20 1044 -20 L883 -20 Q831 -20 806 25 L528 550 Q518 567 504 568 L499 568 Q486 568 477 555 L403 461 Q395 450 395 434 L395 68 Q395 32 371 8 Q346 -20 308 -20 L171 -20 Q133 -20 108 8 Q84 32 84 68 L84 1326 Q84 1362 108 1386 Q133 1414 171 1414 L308 1414 Q346 1414 371 1386 Q395 1362 395 1326 L395 787 Z M638 6 L641 6 Q677 6 697 -21 Q709 -39 709 -58 Q709 -68 705 -80 Q649 -242 582 -361 Q565 -391 530 -396 L510 -396 Q477 -396 458 -371 Q444 -353 444 -333 Q444 -324 447 -315 Q486 -181 508 -53 Q511 -31 528 -17 Q544 -1 568 1 L638 6 Z " />
<glyph glyph-name="uni0137" unicode="&#x137;" horiz-adv-x="978" d="M384 593 Q412 647 445 705 L614 974 Q643 1020 697 1020 L806 1020 Q869 1020 896 962 Q905 941 905 921 Q905 889 882 861 L667 599 L965 130 Q982 105 982 78 Q982 56 970 34 Q944 -20 883 -20 L742 -20 Q684 -20 656 31 L486 345 Q473 367 453 369 L449 369 Q431 369 417 352 L394 321 Q384 307 384 288 L384 77 Q384 38 356 11 Q329 -20 286 -20 L172 -20 Q130 -20 100 11 Q74 38 74 77 L74 1393 Q74 1431 100 1460 Q130 1490 172 1490 L286 1490 Q329 1490 356 1460 Q384 1432 384 1393 L384 593 Z M561 6 L564 6 Q600 6 620 -21 Q632 -39 632 -58 Q632 -68 628 -80 Q572 -242 505 -361 Q488 -391 453 -396 L433 -396 Q400 -396 381 -371 Q367 -353 367 -333 Q367 -324 370 -315 Q409 -181 431 -53 Q434 -31 451 -17 Q467 -1 491 1 L561 6 Z " />
<glyph glyph-name="kgreenlandic" unicode="&#x138;" horiz-adv-x="1028" d="M349 603 Q361 625 381 656 L398 685 L414 714 L623 1039 Q643 1069 678 1069 L798 1069 Q839 1069 857 1032 Q864 1017 864 1004 Q864 984 851 965 L595 615 L889 100 Q898 85 898 68 Q898 53 889 36 Q870 2 833 2 L713 2 Q674 2 655 35 L448 426 Q441 439 431 440 L427 440 Q417 440 411 430 L355 360 Q349 352 349 340 L349 67 Q349 41 332 23 Q313 2 285 2 L183 2 Q154 2 136 23 Q118 41 118 67 L118 1004 Q118 1031 136 1048 Q154 1069 183 1069 L285 1069 Q313 1069 332 1048 Q349 1031 349 1004 L349 603 Z " />
<glyph glyph-name="Lacute" unicode="&#x139;" horiz-adv-x="901" d="M352 1414 Q394 1414 422 1383 Q449 1355 449 1315 L449 303 Q449 280 463 265 Q475 252 492 252 L886 252 Q929 252 956 222 Q983 192 983 154 L983 79 Q983 39 956 11 Q928 -20 886 -20 L231 -20 Q189 -20 161 11 Q134 39 134 79 L134 1315 Q134 1355 161 1383 Q189 1414 231 1414 L352 1414 Z M227 1799 Q254 1849 313 1849 L347 1849 Q410 1849 436 1792 Q447 1771 447 1750 Q447 1719 425 1692 L328 1564 Q299 1526 250 1526 L244 1526 Q186 1526 158 1577 Q145 1600 145 1623 Q145 1647 158 1670 L227 1799 Z " />
<glyph glyph-name="lacute" unicode="&#x13a;" horiz-adv-x="428" d="M346 1490 Q387 1490 417 1459 Q444 1432 444 1392 L444 78 Q444 38 417 11 Q387 -20 346 -20 L233 -20 Q190 -20 160 11 Q134 38 134 78 L134 1392 Q134 1432 160 1459 Q190 1490 233 1490 L346 1490 Z M232 1798 Q259 1848 318 1848 L352 1848 Q415 1848 441 1791 Q452 1770 452 1749 Q452 1718 430 1691 L333 1563 Q304 1525 255 1525 L249 1525 Q191 1525 163 1576 Q150 1599 150 1622 Q150 1646 163 1669 L232 1798 Z " />
<glyph glyph-name="uni013B" unicode="&#x13b;" horiz-adv-x="951" d="M327 1434 Q369 1434 397 1403 Q424 1375 424 1335 L424 323 Q424 300 438 285 Q450 272 467 272 L861 272 Q904 272 931 242 Q958 212 958 174 L958 99 Q958 59 931 31 Q903 0 861 0 L206 0 Q164 0 136 31 Q109 59 109 99 L109 1335 Q109 1375 136 1403 Q164 1434 206 1434 L327 1434 Z M607 -56 L614 -56 Q655 -56 676 -81 Q691 -96 691 -115 Q691 -122 688 -132 Q619 -278 540 -386 Q519 -414 478 -417 L462 -418 L455 -418 Q417 -418 393 -396 Q376 -380 376 -361 Q376 -352 379 -344 Q426 -223 453 -108 Q456 -91 477 -75 Q498 -61 524 -60 L607 -56 Z " />
<glyph glyph-name="uni013C" unicode="&#x13c;" horiz-adv-x="558" d="M329 1510 Q370 1510 400 1479 Q427 1452 427 1412 L427 98 Q427 58 400 31 Q370 0 329 0 L216 0 Q173 0 143 31 Q117 58 117 98 L117 1412 Q117 1452 143 1479 Q173 1510 216 1510 L329 1510 Z M346 -56 L353 -56 Q392 -56 416 -81 Q430 -97 430 -113 Q430 -123 425 -132 Q357 -278 279 -386 Q258 -414 216 -417 L200 -418 L193 -418 Q155 -418 131 -396 Q114 -380 114 -361 Q114 -352 117 -344 Q165 -223 191 -108 Q194 -91 215 -75 Q236 -61 262 -60 L346 -56 Z " />
<glyph glyph-name="Lcaron" unicode="&#x13d;" horiz-adv-x="897" d="M348 1414 Q390 1414 418 1383 Q445 1355 445 1315 L445 303 Q445 280 459 265 Q471 252 488 252 L882 252 Q925 252 952 222 Q979 192 979 154 L979 79 Q979 39 952 11 Q924 -20 882 -20 L227 -20 Q185 -20 157 11 Q130 39 130 79 L130 1315 Q130 1355 157 1383 Q185 1414 227 1414 L348 1414 Z M74 1692 Q63 1707 63 1724 Q63 1738 71 1752 Q91 1786 132 1786 L182 1786 Q223 1786 243 1752 L322 1602 L324 1602 L404 1752 Q424 1786 465 1786 L515 1786 Q556 1786 576 1752 Q584 1738 584 1724 Q584 1707 573 1692 L450 1494 Q430 1463 391 1463 L254 1463 Q215 1463 195 1495 L74 1692 Z " />
<glyph glyph-name="lcaron" unicode="&#x13e;" horiz-adv-x="463" d="M330 1490 Q371 1490 401 1459 Q428 1432 428 1392 L428 78 Q428 38 401 11 Q371 -20 330 -20 L217 -20 Q174 -20 144 11 Q118 38 118 78 L118 1392 Q118 1432 144 1459 Q174 1490 217 1490 L330 1490 Z M62 1778 Q51 1793 51 1810 Q51 1824 59 1838 Q79 1872 120 1872 L170 1872 Q211 1872 231 1838 L310 1688 L312 1688 L392 1838 Q412 1872 453 1872 L503 1872 Q544 1872 564 1838 Q572 1824 572 1810 Q572 1793 561 1778 L438 1580 Q418 1549 379 1549 L242 1549 Q203 1549 183 1581 L62 1778 Z " />
<glyph glyph-name="Ldot" unicode="&#x13f;" horiz-adv-x="905" d="M352 1414 Q394 1414 422 1383 Q449 1355 449 1315 L449 303 Q449 280 463 265 Q475 252 492 252 L886 252 Q929 252 956 222 Q983 192 983 154 L983 79 Q983 39 956 11 Q928 -20 886 -20 L231 -20 Q189 -20 161 11 Q134 39 134 79 L134 1315 Q134 1355 161 1383 Q189 1414 231 1414 L352 1414 Z M753 567 Q690 567 647 613 Q606 656 606 716 Q606 780 646 822 Q690 867 755 867 Q818 867 858 822 Q898 780 898 716 Q898 657 858 612 Q816 567 755 567 L753 567 Z " />
<glyph glyph-name="ldot" unicode="&#x140;" horiz-adv-x="714" d="M311 1510 Q352 1510 382 1479 Q409 1452 409 1412 L409 98 Q409 58 382 31 Q352 0 311 0 L198 0 Q155 0 125 31 Q99 58 99 98 L99 1412 Q99 1452 125 1479 Q155 1510 198 1510 L311 1510 Z M563 605 Q500 605 457 651 Q416 694 416 754 Q416 818 456 860 Q500 905 565 905 Q628 905 668 860 Q708 818 708 754 Q708 695 668 650 Q626 605 565 605 L563 605 Z " />
<glyph glyph-name="Lslash" unicode="&#x141;" horiz-adv-x="1002" d="M424 664 L424 323 Q424 300 438 285 Q450 272 467 272 L861 272 Q904 272 931 242 Q958 212 958 174 L958 99 Q958 59 931 31 Q903 0 861 0 L206 0 Q164 0 136 31 Q109 59 109 99 L109 1335 Q109 1375 136 1403 Q164 1434 206 1434 L327 1434 Q369 1434 397 1403 Q424 1375 424 1335 L424 770 L924 770 Q943 770 954 753 Q964 738 964 717 Q964 696 954 681 Q943 664 924 664 L424 664 Z " />
<glyph glyph-name="lslash" unicode="&#x142;" horiz-adv-x="902" d="M287 808 L287 1412 Q287 1452 313 1479 Q343 1510 386 1510 L499 1510 Q540 1510 570 1479 Q597 1452 597 1412 L597 808 L844 808 Q869 808 883 790 Q896 775 896 755 Q896 737 883 719 Q868 702 844 702 L597 702 L597 98 Q597 58 570 31 Q540 0 499 0 L386 0 Q343 0 313 31 Q287 58 287 98 L287 702 L30 702 Q6 702 -9 719 Q-22 737 -22 755 Q-22 775 -9 790 Q5 808 30 808 L287 808 Z " />
<glyph glyph-name="Nacute" unicode="&#x143;" horiz-adv-x="1304" d="M411 1030 Q423 748 423 412 L423 78 Q423 38 396 11 Q368 -20 326 -20 L231 -20 Q189 -20 161 11 Q134 38 134 78 L134 1316 Q134 1355 161 1383 Q189 1414 231 1414 L440 1414 Q498 1414 526 1363 L778 887 Q901 657 992 411 Q968 653 968 994 L968 1316 Q968 1354 996 1384 Q1022 1414 1064 1414 L1160 1414 Q1202 1414 1228 1384 Q1256 1354 1256 1316 L1256 78 Q1256 38 1230 11 Q1202 -20 1160 -20 L987 -20 Q929 -20 901 31 L640 535 Q501 798 411 1030 Z M675 1793 Q702 1843 761 1843 L795 1843 Q858 1843 884 1786 Q895 1765 895 1744 Q895 1713 873 1686 L776 1558 Q747 1520 698 1520 L692 1520 Q634 1520 606 1571 Q593 1594 593 1617 Q593 1641 606 1664 L675 1793 Z " />
<glyph glyph-name="nacute" unicode="&#x144;" horiz-adv-x="1053" d="M391 883 Q429 944 492 984 Q580 1043 690 1043 Q849 1043 942 933 Q1040 817 1040 597 L1040 77 Q1040 38 1013 11 Q983 -20 942 -20 L827 -20 Q785 -20 757 11 Q730 38 730 77 L730 556 Q730 782 583 782 Q529 782 489 746 Q454 714 436 661 Q424 633 424 580 L424 77 Q424 38 397 11 Q369 -20 326 -20 L211 -20 Q170 -20 140 10 Q114 39 114 77 Q113 170 113 264 Q112 389 111 497 Q109 789 108 922 L108 925 Q108 962 133 990 Q164 1020 204 1021 L293 1022 Q336 1022 364 991 Q391 963 391 923 L391 883 Z M554 1383 Q581 1433 640 1433 L674 1433 Q737 1433 763 1376 Q774 1355 774 1334 Q774 1303 752 1276 L655 1148 Q626 1110 577 1110 L571 1110 Q513 1110 485 1161 Q472 1184 472 1207 Q472 1231 485 1254 L554 1383 Z " />
<glyph glyph-name="uni0145" unicode="&#x145;" horiz-adv-x="1304" d="M361 1030 Q373 748 373 412 L373 78 Q373 38 346 11 Q318 -20 276 -20 L181 -20 Q139 -20 111 11 Q84 38 84 78 L84 1316 Q84 1355 111 1383 Q139 1414 181 1414 L390 1414 Q448 1414 476 1363 L728 887 Q851 657 942 411 Q918 653 918 994 L918 1316 Q918 1354 946 1384 Q972 1414 1014 1414 L1110 1414 Q1152 1414 1178 1384 Q1206 1354 1206 1316 L1206 78 Q1206 38 1180 11 Q1152 -20 1110 -20 L937 -20 Q879 -20 851 31 L590 535 Q451 798 361 1030 Z M672 6 L675 6 Q711 6 731 -21 Q743 -39 743 -58 Q743 -68 739 -80 Q683 -242 616 -361 Q599 -391 564 -396 L544 -396 Q511 -396 492 -371 Q478 -353 478 -333 Q478 -324 481 -315 Q520 -181 542 -53 Q545 -31 562 -17 Q578 -1 602 1 L672 6 Z " />
<glyph glyph-name="uni0146" unicode="&#x146;" horiz-adv-x="1053" d="M341 883 Q379 944 442 984 Q530 1043 640 1043 Q799 1043 892 933 Q990 817 990 597 L990 77 Q990 38 963 11 Q933 -20 892 -20 L777 -20 Q735 -20 707 11 Q680 38 680 77 L680 556 Q680 782 533 782 Q479 782 439 746 Q404 714 386 661 Q374 633 374 580 L374 77 Q374 38 347 11 Q319 -20 276 -20 L161 -20 Q120 -20 90 10 Q64 39 64 77 Q63 170 63 264 Q62 389 61 497 Q59 789 58 922 L58 925 Q58 962 83 990 Q114 1020 154 1021 L243 1022 Q286 1022 314 991 Q341 963 341 923 L341 883 Z M589 6 L592 6 Q628 6 648 -21 Q660 -39 660 -58 Q660 -68 656 -80 Q600 -242 533 -361 Q516 -391 481 -396 L461 -396 Q428 -396 409 -371 Q395 -353 395 -333 Q395 -324 398 -315 Q437 -181 459 -53 Q462 -31 479 -17 Q495 -1 519 1 L589 6 Z " />
<glyph glyph-name="Ncaron" unicode="&#x147;" horiz-adv-x="1304" d="M411 1030 Q423 748 423 412 L423 78 Q423 38 396 11 Q368 -20 326 -20 L231 -20 Q189 -20 161 11 Q134 38 134 78 L134 1316 Q134 1355 161 1383 Q189 1414 231 1414 L440 1414 Q498 1414 526 1363 L778 887 Q901 657 992 411 Q968 653 968 994 L968 1316 Q968 1354 996 1384 Q1022 1414 1064 1414 L1160 1414 Q1202 1414 1228 1384 Q1256 1354 1256 1316 L1256 78 Q1256 38 1230 11 Q1202 -20 1160 -20 L987 -20 Q929 -20 901 31 L640 535 Q501 798 411 1030 Z M446 1750 Q435 1765 435 1782 Q435 1796 443 1810 Q463 1844 504 1844 L554 1844 Q595 1844 615 1810 L694 1660 L696 1660 L776 1810 Q796 1844 837 1844 L887 1844 Q928 1844 948 1810 Q956 1796 956 1782 Q956 1765 945 1750 L822 1552 Q802 1521 763 1521 L626 1521 Q587 1521 567 1553 L446 1750 Z " />
<glyph glyph-name="ncaron" unicode="&#x148;" horiz-adv-x="1053" d="M391 883 Q429 944 492 984 Q580 1043 690 1043 Q849 1043 942 933 Q1040 817 1040 597 L1040 77 Q1040 38 1013 11 Q983 -20 942 -20 L827 -20 Q785 -20 757 11 Q730 38 730 77 L730 556 Q730 782 583 782 Q529 782 489 746 Q454 714 436 661 Q424 633 424 580 L424 77 Q424 38 397 11 Q369 -20 326 -20 L211 -20 Q170 -20 140 10 Q114 39 114 77 Q113 170 113 264 Q112 389 111 497 Q109 789 108 922 L108 925 Q108 962 133 990 Q164 1020 204 1021 L293 1022 Q336 1022 364 991 Q391 963 391 923 L391 883 Z M264 1340 Q253 1355 253 1372 Q253 1386 261 1400 Q281 1434 322 1434 L372 1434 Q413 1434 433 1400 L512 1250 L514 1250 L594 1400 Q614 1434 655 1434 L705 1434 Q746 1434 766 1400 Q774 1386 774 1372 Q774 1355 763 1340 L640 1142 Q620 1111 581 1111 L444 1111 Q405 1111 385 1143 L264 1340 Z " />
<glyph glyph-name="napostrophe" unicode="&#x149;" horiz-adv-x="1020" d="M333 883 Q371 944 434 984 Q522 1043 632 1043 Q791 1043 884 933 Q982 817 982 597 L982 77 Q982 38 955 11 Q925 -20 884 -20 L769 -20 Q727 -20 699 11 Q672 38 672 77 L672 556 Q672 782 525 782 Q471 782 431 746 Q396 714 378 661 Q366 633 366 580 L366 77 Q366 38 339 11 Q311 -20 268 -20 L153 -20 Q112 -20 82 10 Q56 39 56 77 Q55 170 55 264 Q54 389 53 497 Q51 789 50 922 L50 925 Q50 962 75 990 Q106 1020 146 1021 L235 1022 Q278 1022 306 991 Q333 963 333 923 L333 883 Z M-58 1701 Q-12 1701 19 1668 Q45 1641 45 1604 L45 1596 L16 1217 Q14 1179 -16 1153 Q-46 1125 -87 1125 Q-129 1125 -159 1153 Q-187 1179 -191 1217 L-220 1595 L-220 1602 Q-220 1639 -194 1668 Q-163 1701 -116 1701 L-58 1701 Z " />
<glyph glyph-name="Eng" unicode="&#x14a;" horiz-adv-x="1354" d="M992 0 L962 0 Q904 0 876 51 L615 555 Q476 818 386 1050 Q398 768 398 432 L398 98 Q398 58 371 31 Q343 0 301 0 L206 0 Q164 0 136 31 Q109 58 109 98 L109 1336 Q109 1375 136 1403 Q164 1434 206 1434 L415 1434 Q473 1434 501 1383 L753 907 Q876 677 967 431 Q943 673 943 1014 L943 1336 Q943 1374 971 1404 Q997 1434 1039 1434 L1135 1434 Q1177 1434 1203 1404 Q1231 1374 1231 1336 L1231 98 Q1231 58 1205 31 Q1200 25 1194 21 Q1141 -127 1079 -238 Q1062 -268 1027 -273 L1007 -273 Q974 -273 955 -248 Q941 -230 941 -210 Q941 -201 944 -192 Q972 -94 992 0 Z " />
<glyph glyph-name="eng" unicode="&#x14b;" horiz-adv-x="1103" d="M756 12 Q743 19 732 31 Q705 58 705 97 L705 576 Q705 802 558 802 Q504 802 464 766 Q429 734 411 681 Q399 653 399 600 L399 97 Q399 58 372 31 Q344 0 301 0 L186 0 Q145 0 115 30 Q89 59 89 97 Q88 190 88 284 Q87 409 86 517 Q84 809 83 942 L83 945 Q83 982 108 1010 Q139 1040 179 1041 L268 1042 Q311 1042 339 1011 Q366 983 366 943 L366 903 Q404 964 467 1004 Q555 1063 665 1063 Q824 1063 917 953 Q1015 837 1015 617 L1015 97 Q1015 58 988 31 Q974 17 958 9 Q957 3 955 -3 Q899 -165 832 -284 Q815 -314 780 -319 L760 -319 Q727 -319 708 -294 Q694 -276 694 -256 Q694 -247 697 -238 Q734 -110 756 12 Z " />
<glyph glyph-name="Omacron" unicode="&#x14c;" horiz-adv-x="1282" d="M675 238 Q814 238 896 374 Q978 508 978 725 Q978 929 897 1062 Q813 1203 673 1203 Q534 1203 450 1065 Q369 933 369 716 Q369 501 452 369 Q536 238 675 238 Z M681 1461 Q969 1461 1138 1244 Q1294 1043 1294 735 Q1294 387 1121 184 Q948 -20 660 -20 Q379 -20 212 193 Q53 395 53 709 Q53 1035 223 1244 Q398 1461 681 1461 Z M932 1727 Q932 1703 914 1684 Q893 1664 864 1664 L483 1664 Q454 1664 433 1684 Q415 1703 415 1727 L415 1780 Q415 1803 432 1822 Q453 1843 483 1843 L864 1843 Q894 1843 915 1822 Q932 1803 932 1780 L932 1727 Z " />
</font>
</svg>
