<?xml version="1.0" encoding="UTF-8"?>
<svg xmlns="http://www.w3.org/2000/svg" xmlns:xlink="http://www.w3.org/1999/xlink" version="1.2" >
<font id="Carson Medium">
<font-face  font-family="Carson" units-per-em="2048" ascent="1511" descent="-446" font-style="normal" font-weight="500" font-stretch="normal" cap-height="1434" x-height="1040" underline-position="-217" underline-thickness="150" />
<missing-glyph  horiz-adv-x="674" d="M276 345 Q348 345 392 297 Q437 249 439 172 Q439 96 393 47 Q348 -2 276 -2 Q205 -2 161 46 Q116 96 116 172 Q116 248 161 297 Q206 345 276 345 Z M305 1439 Q487 1439 585 1344 Q674 1260 674 1127 Q674 1025 619 931 Q597 893 564 852 Q552 836 536 816 L521 800 L507 782 Q398 656 398 512 L398 504 Q398 496 393 490 Q388 485 382 485 L201 485 Q187 485 177 495 Q167 506 166 522 Q165 533 165 544 Q165 696 282 842 Q342 919 366 958 Q404 1022 404 1076 Q404 1216 236 1223 Q178 1223 113 1202 Q101 1198 90 1198 Q74 1198 58 1206 Q32 1220 23 1252 L9 1295 Q5 1307 5 1318 Q5 1336 14 1353 Q28 1382 55 1392 Q172 1439 305 1439 Z " />
<glyph glyph-name="&amp;#x0;" horiz-adv-x="20" d="" />
<glyph glyph-name="&amp;#x1d;" unicode="&#x1d;" horiz-adv-x="20" d="" />
<glyph glyph-name="&amp;#x20;" unicode="&#x20;" horiz-adv-x="404" d="" />
<glyph glyph-name="&amp;#xa0;" unicode="&#xa0;" horiz-adv-x="404" d="" />
<glyph glyph-name="exclam" unicode="&#x21;" horiz-adv-x="487" d="M103 1336 L103 1341 Q103 1372 124 1395 Q145 1418 176 1418 L302 1418 Q333 1418 355 1394 Q375 1372 375 1342 L375 1336 L340 569 Q338 537 317 516 Q296 495 267 495 L213 495 Q184 495 163 516 Q142 537 140 569 L103 1336 Z M78 175 Q78 252 124 300 Q169 348 240 348 Q311 348 355 300 Q399 252 401 175 Q401 98 357 50 Q312 1 240 1 Q169 1 123 50 Q78 99 78 175 Z " />
<glyph glyph-name="quotedbl" unicode="&#x22;" horiz-adv-x="656" d="M265 1679 L272 1679 Q306 1679 328 1650 Q342 1628 342 1605 Q342 1591 337 1576 Q262 1363 165 1186 Q147 1151 109 1148 L101 1148 Q69 1148 48 1175 Q31 1197 31 1222 Q31 1234 35 1247 Q89 1435 122 1613 Q126 1638 145 1655 Q163 1672 188 1674 L265 1679 Z M660 1679 L666 1679 Q701 1679 723 1649 Q738 1629 738 1606 Q738 1591 732 1576 Q656 1358 561 1186 Q543 1151 526 1150 Q516 1149 508 1149 Q462 1149 443 1175 Q426 1197 426 1222 Q426 1234 430 1247 Q484 1435 517 1612 Q521 1638 541 1655 Q559 1673 582 1674 L660 1679 Z " />
<glyph glyph-name="numbersign" unicode="&#x23;" horiz-adv-x="960" d="M610 926 Q611 932 611 937 Q611 962 595 981 Q575 1007 542 1007 L455 1007 Q429 1007 409 989 Q391 972 387 946 L368 808 L368 800 Q368 774 384 754 Q404 728 436 728 L524 728 Q550 728 569 747 Q587 763 591 789 L610 926 Z M879 1164 Q907 1164 928 1143 Q949 1122 949 1091 L949 1081 Q949 1049 928 1028 Q907 1007 879 1007 L761 1007 L722 728 L824 728 Q853 728 873 707 Q894 686 894 655 L894 647 Q894 615 873 594 Q853 573 824 573 L697 573 L655 256 Q651 228 631 210 Q612 192 587 192 L584 192 Q553 192 532 217 Q515 238 515 264 Q515 270 516 275 L556 573 L330 573 L289 256 Q285 228 265 210 Q245 192 220 192 L218 192 Q187 192 166 217 Q149 237 149 263 Q149 269 150 276 L191 573 L93 573 Q65 573 44 594 Q24 615 24 647 L24 655 Q24 686 44 707 Q65 728 93 728 L219 728 L256 1007 L150 1007 Q122 1007 101 1028 Q81 1049 81 1081 L81 1091 Q81 1122 101 1143 Q122 1164 150 1164 L279 1164 L321 1471 Q325 1499 345 1516 Q364 1535 389 1535 Q421 1535 442 1509 Q459 1489 459 1463 Q459 1457 458 1450 L419 1164 L643 1164 L688 1472 Q692 1499 711 1517 Q730 1535 756 1535 Q787 1535 808 1509 Q825 1488 825 1462 Q825 1456 824 1450 L783 1164 L879 1164 Z " />
<glyph glyph-name="dollar" unicode="&#x24;" horiz-adv-x="981" d="M597 773 Q773 709 849 619 Q922 532 922 394 Q922 255 835 155 Q743 50 562 18 L562 -119 Q562 -151 539 -173 Q519 -196 489 -196 L476 -196 Q446 -196 425 -173 Q404 -151 404 -119 L404 5 Q243 13 123 59 Q97 70 84 95 Q75 113 75 132 Q75 141 77 151 L91 209 Q100 243 130 258 Q145 267 161 267 Q174 267 188 261 Q312 213 436 213 Q530 213 588 250 Q651 291 651 365 Q651 434 593 483 Q540 527 423 569 Q249 629 166 709 Q71 801 71 939 Q71 1073 156 1169 Q243 1266 413 1302 L413 1422 Q413 1455 435 1477 Q456 1499 487 1499 L499 1499 Q530 1499 551 1477 Q572 1455 572 1422 L572 1313 Q707 1307 798 1277 Q825 1268 839 1242 Q849 1224 849 1205 Q849 1195 846 1184 L834 1133 Q826 1101 798 1085 Q782 1076 764 1076 Q752 1076 740 1080 Q641 1114 536 1114 Q437 1114 386 1072 Q341 1035 341 975 Q341 914 406 867 Q460 827 597 773 Z " />
<glyph glyph-name="percent" unicode="&#x25;" horiz-adv-x="1752" d="M396 713 Q472 713 511 790 Q545 859 545 982 Q545 1099 513 1167 Q475 1251 394 1251 Q317 1251 275 1167 Q240 1097 240 982 Q240 865 276 794 Q319 713 396 713 Z M734 997 Q734 798 629 681 Q532 576 389 576 Q244 576 150 681 Q51 792 51 973 Q51 1155 146 1270 Q243 1387 400 1387 Q557 1387 647 1278 Q734 1172 734 997 Z M1206 1387 Q1235 1387 1250 1360 Q1258 1346 1258 1331 Q1258 1318 1251 1304 L572 26 Q558 -2 528 -2 Q499 -2 483 25 Q476 39 476 53 Q476 67 483 81 L1159 1359 Q1174 1387 1204 1387 L1206 1387 Z M1344 139 Q1420 139 1460 216 Q1494 284 1494 408 Q1494 676 1344 676 Q1264 676 1224 593 Q1190 523 1190 408 L1190 396 Q1190 287 1225 220 Q1266 139 1344 139 Z M1348 813 Q1505 813 1595 704 Q1683 598 1683 423 Q1683 223 1576 107 Q1481 2 1338 2 Q1194 2 1100 107 Q1001 217 1000 399 Q1000 581 1094 696 Q1191 813 1348 813 Z " />
<glyph glyph-name="ampersand" unicode="&#x26;" horiz-adv-x="1314" d="M693 211 Q723 228 727 261 Q728 267 728 273 Q728 300 710 320 Q621 415 471 594 Q451 616 423 617 L420 617 Q392 617 373 597 Q298 521 298 418 Q298 316 365 246 Q434 173 545 173 Q625 173 693 211 Z M581 1257 Q514 1257 473 1204 Q437 1157 437 1091 Q437 1001 504 910 Q522 886 550 883 L558 883 Q582 883 601 897 Q662 945 690 988 Q721 1037 721 1095 Q721 1158 687 1204 Q648 1257 581 1257 Z M1196 787 Q1232 787 1253 758 Q1269 736 1269 710 Q1269 701 1267 691 Q1204 435 1058 264 Q1132 176 1170 131 Q1189 108 1189 82 Q1189 65 1182 48 Q1162 2 1115 2 L1006 2 Q975 2 954 27 Q920 65 879 112 Q716 -21 502 -21 Q278 -21 154 101 Q46 208 46 365 Q46 496 114 598 Q177 694 305 764 L305 791 Q257 848 231 917 Q202 991 202 1061 Q202 1202 299 1304 Q408 1420 591 1420 Q745 1420 843 1334 Q942 1246 942 1104 Q942 890 675 749 L668 722 Q701 685 736 644 L765 608 L794 573 Q866 488 922 426 Q1005 560 1041 729 Q1046 754 1067 771 Q1086 787 1112 787 L1196 787 Z " />
<glyph glyph-name="quotesingle" unicode="&#x27;" horiz-adv-x="287" d="M163 1681 Q197 1681 220 1656 Q241 1634 241 1604 L241 1597 L212 1218 Q210 1187 186 1166 Q164 1145 134 1145 Q103 1145 81 1166 Q58 1187 55 1218 L26 1596 L26 1602 Q26 1633 47 1656 Q70 1681 105 1681 L163 1681 Z " />
<glyph glyph-name="parenleft" unicode="&#x28;" horiz-adv-x="483" d="M442 -158 Q449 -174 449 -190 Q449 -212 436 -233 Q415 -268 376 -268 L364 -268 Q324 -268 302 -232 Q216 -87 165 91 Q103 314 103 570 Q105 1040 302 1373 Q324 1408 364 1408 L375 1408 Q414 1408 436 1373 Q448 1353 448 1332 Q448 1316 441 1299 Q304 984 304 567 Q304 162 442 -158 Z " />
<glyph glyph-name="parenright" unicode="&#x29;" horiz-adv-x="495" d="M189 1377 Q275 1231 326 1055 Q388 832 388 576 Q388 319 325 96 Q275 -81 189 -228 Q168 -264 127 -264 L115 -264 Q76 -264 54 -228 Q42 -208 42 -187 Q42 -171 49 -155 Q188 169 188 576 Q188 983 50 1303 Q43 1320 43 1336 Q43 1358 55 1378 Q76 1412 116 1412 L128 1412 Q168 1412 189 1377 Z " />
<glyph glyph-name="asterisk" unicode="&#x2a;" horiz-adv-x="656" d="M632 1387 Q639 1389 646 1389 Q667 1389 685 1373 Q709 1353 709 1320 L709 1319 Q709 1287 686 1266 Q668 1251 647 1251 Q641 1251 634 1252 L409 1293 Q393 1293 384 1276 Q380 1272 380 1268 Q380 1261 389 1252 L540 1073 Q557 1053 557 1028 Q557 1022 556 1016 Q551 984 524 968 L520 965 Q505 956 489 956 Q478 956 467 960 Q438 971 427 1001 L348 1227 Q343 1248 332 1248 Q323 1248 312 1237 L311 1236 L307 1232 L224 1001 Q213 972 184 961 Q171 956 160 956 Q146 956 134 963 L133 965 Q102 985 98 1016 Q97 1022 97 1028 Q97 1052 113 1072 L269 1263 L269 1272 Q269 1295 244 1295 L27 1253 Q20 1252 14 1252 Q-8 1252 -26 1267 Q-49 1287 -49 1320 Q-49 1353 -25 1374 Q-8 1389 13 1389 Q20 1389 28 1387 L236 1344 Q242 1341 246 1341 Q259 1341 266 1362 L266 1360 Q268 1364 268 1367 Q268 1374 261 1381 L113 1567 Q98 1585 98 1609 Q98 1616 99 1623 Q104 1654 131 1670 L137 1674 Q151 1683 167 1683 Q178 1683 190 1678 Q217 1668 228 1638 L307 1412 Q314 1398 328 1398 L329 1398 Q342 1398 349 1412 L430 1638 Q441 1669 469 1679 Q480 1683 490 1683 Q507 1683 523 1673 L526 1672 Q551 1657 556 1625 Q557 1617 557 1610 Q557 1586 542 1567 L391 1381 Q384 1374 384 1367 Q384 1364 386 1360 L386 1357 Q395 1340 407 1340 Q411 1340 416 1342 L632 1387 Z " />
<glyph glyph-name="plus" unicode="&#x2b;" horiz-adv-x="1056" d="M963 820 Q990 820 1009 800 Q1028 779 1028 750 L1028 729 Q1028 700 1010 680 Q990 660 963 660 L605 660 L605 262 Q605 233 585 212 Q566 192 540 192 L511 192 Q485 192 467 212 Q447 233 447 262 L447 660 L88 660 Q62 660 42 680 Q23 700 23 729 L23 750 Q23 779 43 800 Q62 820 88 820 L447 820 L447 1214 Q447 1243 467 1263 Q485 1284 511 1284 L540 1284 Q566 1284 585 1263 Q605 1243 605 1214 L605 820 L963 820 Z " />
<glyph glyph-name="comma" unicode="&#x2c;" horiz-adv-x="314" d="M215 247 L220 247 Q256 247 278 217 Q293 196 293 172 Q293 158 288 144 Q203 -98 106 -276 Q86 -311 49 -315 L30 -316 L21 -316 Q-11 -316 -32 -289 Q-49 -267 -49 -241 Q-49 -230 -46 -218 Q14 -15 47 178 Q51 203 70 221 Q88 238 112 240 L215 247 Z " />
<glyph glyph-name="&amp;#x2d;" unicode="&#x2d;" horiz-adv-x="557" d="M442 805 Q468 805 487 785 Q507 764 507 735 L507 700 Q507 671 487 650 Q468 630 442 630 L81 630 Q55 630 36 650 Q16 671 16 700 L16 735 Q16 764 36 785 Q55 805 81 805 L442 805 Z " />
<glyph glyph-name="&amp;#xad;" unicode="&#xad;" horiz-adv-x="557" d="M442 805 Q468 805 487 785 Q507 764 507 735 L507 700 Q507 671 487 650 Q468 630 442 630 L81 630 Q55 630 36 650 Q16 671 16 700 L16 735 Q16 764 36 785 Q55 805 81 805 L442 805 Z " />
<glyph glyph-name="period" unicode="&#x2e;" horiz-adv-x="339" d="M166 247 Q238 247 282 199 Q327 150 327 70 Q327 -7 281 -58 Q237 -106 165 -106 Q95 -106 49 -57 Q4 -7 4 70 Q4 148 50 197 Q95 247 166 247 Z " />
<glyph glyph-name="slash" unicode="&#x2f;" horiz-adv-x="577" d="M478 1419 Q515 1419 537 1388 Q552 1367 552 1342 Q552 1331 549 1319 L170 -28 Q163 -52 144 -67 Q124 -83 100 -83 L90 -83 Q53 -83 31 -52 Q16 -31 16 -6 Q16 5 19 17 L398 1364 Q405 1388 425 1404 Q444 1419 469 1419 L478 1419 Z " />
<glyph glyph-name="zero" unicode="0" horiz-adv-x="1208" d="M636 216 Q850 216 850 733 Q850 1243 633 1243 Q528 1243 470 1110 Q414 979 414 736 L414 719 Q414 479 469 350 Q527 216 636 216 Z M639 1455 Q887 1455 1014 1246 Q1130 1054 1130 736 Q1130 398 1003 204 Q872 4 628 4 Q386 4 256 213 Q136 407 134 728 Q134 1053 260 1248 Q395 1455 639 1455 Z " />
<glyph glyph-name="one" unicode="1" horiz-adv-x="720" d="M513 1428 Q544 1428 567 1403 Q590 1380 590 1345 L590 79 Q590 45 567 22 Q544 -3 513 -3 L393 -3 Q361 -3 339 22 Q316 45 316 79 L316 1071 Q316 1118 269 1136 L267 1136 Q258 1139 248 1139 Q234 1139 220 1133 L124 1085 Q107 1077 91 1077 Q74 1077 58 1085 Q25 1102 17 1140 L6 1190 Q4 1199 4 1208 Q4 1228 13 1246 Q24 1271 50 1283 L329 1419 Q345 1428 362 1428 L513 1428 Z " />
<glyph glyph-name="two" unicode="2" horiz-adv-x="1057" d="M896 241 Q928 241 952 217 Q974 193 974 159 L974 84 Q974 49 952 25 Q928 1 896 1 L99 1 Q68 1 44 25 Q22 49 22 84 L22 142 Q22 179 48 204 L196 344 Q447 580 541 704 Q659 855 662 985 Q662 1089 601 1153 Q536 1222 411 1222 Q305 1222 194 1161 Q176 1151 158 1151 Q145 1151 132 1156 Q99 1169 87 1202 L68 1252 Q62 1268 62 1284 Q62 1298 67 1312 Q76 1341 102 1357 Q272 1455 477 1455 Q701 1455 826 1331 Q948 1213 948 1014 Q948 851 841 688 Q758 562 582 397 L542 361 Q523 345 519 320 Q518 315 518 311 Q518 291 529 274 Q548 241 584 241 L896 241 Z " />
<glyph glyph-name="three" unicode="3" horiz-adv-x="994" d="M652 759 Q791 732 868 645 Q951 552 951 426 Q951 241 808 125 Q660 4 410 4 Q287 4 174 34 Q76 61 26 95 L82 306 Q84 305 114 292 Q154 275 193 261 Q297 229 387 229 Q513 229 589 289 Q658 346 658 442 Q658 553 564 616 Q483 669 360 669 L251 669 L251 869 L354 869 Q457 871 529 910 Q620 961 620 1057 Q620 1134 562 1181 Q502 1228 397 1228 Q318 1228 227 1197 Q152 1171 123 1153 L69 1356 Q120 1391 227 1420 Q346 1452 469 1452 Q675 1452 793 1352 Q905 1259 905 1115 Q905 1005 846 925 Q785 843 652 794 L652 759 Z " />
<glyph glyph-name="four" unicode="4" horiz-adv-x="1148" d="M700 918 Q700 1030 711 1185 Q711 1212 686 1212 Q660 1212 660 1193 Q648 1168 629 1128 L599 1060 L570 1000 L573 1006 L573 994 L343 601 L343 592 Q343 569 368 569 L627 569 Q658 569 679 593 Q700 615 700 645 L700 918 Z M1063 569 Q1094 569 1116 547 Q1138 523 1138 488 L1138 440 Q1138 404 1113 378 Q1089 352 1057 352 L1042 352 Q1010 352 989 329 Q971 308 971 280 L971 87 Q971 52 946 27 Q921 1 889 1 L782 1 Q749 1 724 27 Q700 52 700 88 L700 278 Q700 310 678 330 Q658 352 629 352 L159 352 Q127 352 103 378 Q78 404 78 440 L78 526 Q78 551 90 573 L577 1392 Q601 1435 646 1435 L889 1435 Q921 1435 946 1409 Q971 1384 971 1348 L971 643 Q971 613 989 593 Q1010 569 1042 569 L1063 569 Z " />
<glyph glyph-name="five" unicode="5" horiz-adv-x="1015" d="M816 836 Q976 723 976 487 Q976 286 825 148 Q662 -2 402 -2 Q242 -2 108 42 Q80 52 64 79 Q54 99 54 121 Q54 131 56 141 L68 198 Q76 231 106 250 Q125 261 144 261 Q154 261 164 258 Q281 223 386 223 Q506 223 588 279 Q685 347 685 464 Q685 728 275 728 Q236 728 203 725 L200 725 Q165 725 142 751 Q121 776 121 808 Q121 813 122 819 L188 1362 Q192 1394 215 1415 Q236 1435 265 1435 L843 1435 Q875 1435 897 1413 Q919 1388 919 1353 L919 1279 Q919 1245 897 1221 Q875 1197 843 1197 L385 1197 L350 932 L377 932 Q407 938 463 938 Q681 938 816 836 Z " />
<glyph glyph-name="six" unicode="6" horiz-adv-x="1185" d="M654 202 Q748 202 808 286 Q862 364 862 482 Q862 598 806 672 Q744 756 634 756 Q564 756 503 713 Q450 675 422 612 Q407 581 407 519 Q414 385 470 303 Q536 202 654 202 Z M741 956 Q914 956 1028 838 Q1150 712 1150 501 Q1150 288 1012 143 Q871 -6 658 -6 Q402 -6 260 174 Q127 342 127 610 Q127 808 193 976 Q255 1135 366 1245 Q569 1437 889 1453 Q904 1453 916 1455 L921 1455 Q950 1455 974 1434 Q997 1409 997 1372 L997 1317 Q997 1283 976 1258 Q955 1236 923 1234 Q910 1230 892 1230 Q683 1212 560 1107 Q452 1016 420 869 Q419 865 419 861 Q419 838 445 838 Q454 838 463 846 Q563 956 741 956 Z " />
<glyph glyph-name="seven" unicode="7" horiz-adv-x="1001" d="M885 1432 Q917 1432 939 1407 Q964 1382 964 1347 L964 1258 Q964 1238 957 1221 L412 42 Q391 -5 341 -5 L220 -5 Q176 -5 152 35 Q140 56 140 78 Q140 98 150 118 L657 1158 L657 1164 Q657 1190 633 1190 L91 1190 Q58 1190 36 1214 Q12 1239 12 1273 L12 1347 Q12 1382 36 1407 Q58 1432 91 1432 L885 1432 Z " />
<glyph glyph-name="eight" unicode="8" horiz-adv-x="1183" d="M618 195 Q710 195 768 254 Q826 309 826 396 Q826 517 728 591 Q679 628 621 630 Q613 631 606 631 Q561 631 516 610 Q467 583 436 537 Q405 487 402 424 L402 412 Q402 326 459 265 Q522 195 618 195 Z M611 1265 Q524 1265 471 1209 Q424 1158 424 1079 Q424 976 528 911 Q573 881 621 881 Q663 881 706 905 Q797 955 800 1062 L800 1067 Q800 1149 755 1202 Q705 1265 611 1265 Z M876 759 Q980 717 1041 635 Q1112 543 1112 420 Q1112 232 974 120 Q837 4 606 4 Q369 4 234 127 Q117 232 117 385 Q117 618 348 726 Q362 735 362 749 Q362 767 346 772 Q257 822 208 900 Q164 976 164 1067 Q164 1238 296 1345 Q424 1452 625 1452 Q842 1452 959 1339 Q1060 1242 1060 1103 Q1060 1012 1014 936 Q966 854 875 806 Q861 799 861 782 Q861 768 876 759 Z " />
<glyph glyph-name="nine" unicode="9" horiz-adv-x="1155" d="M774 833 Q794 871 794 929 Q794 1062 745 1149 Q687 1255 571 1255 Q478 1255 418 1177 Q360 1101 360 983 L360 979 Q360 873 413 804 Q473 726 577 726 Q644 726 699 757 Q747 787 774 833 Z M579 1461 Q824 1461 957 1285 Q1082 1120 1082 856 Q1082 431 846 204 Q652 19 331 6 Q309 4 286 4 L283 4 Q252 4 230 27 Q207 50 207 86 L207 145 Q207 178 229 203 Q250 225 282 226 Q301 227 329 230 Q497 242 611 323 Q749 423 792 595 Q793 599 793 603 Q793 622 762 637 Q660 526 491 526 Q317 526 201 641 Q79 763 79 959 Q79 1168 219 1312 Q363 1461 579 1461 Z " />
<glyph glyph-name="colon" unicode="&#x3a;" horiz-adv-x="467" d="M67 394 Q67 471 113 520 Q158 569 229 569 Q301 569 344 522 Q388 473 390 394 Q390 318 344 269 Q300 220 228 220 Q158 220 112 269 Q67 318 67 394 Z M67 1081 Q67 1159 113 1207 Q158 1257 229 1257 Q301 1257 344 1209 Q388 1161 390 1081 Q390 1005 344 956 Q300 907 228 907 Q158 907 112 956 Q67 1005 67 1081 Z " />
<glyph glyph-name="&amp;#x3b;" unicode="&#x3b;" horiz-adv-x="472" d="M276 922 Q205 922 160 971 Q116 1019 116 1090 L116 1096 Q116 1174 161 1224 Q205 1272 276 1272 Q348 1272 391 1224 Q435 1176 437 1096 Q437 1020 393 970 Q348 922 276 922 Z M307 582 L311 582 Q346 582 369 550 Q384 529 384 506 Q384 492 379 478 Q295 237 196 59 Q177 24 140 20 L124 19 L115 19 Q83 19 62 46 Q45 69 45 95 Q45 106 48 118 Q106 318 142 512 Q146 538 166 556 Q184 574 208 575 L307 582 Z " />
<glyph glyph-name="&amp;#x37e;" unicode="&#x37e;" horiz-adv-x="472" d="M276 922 Q205 922 160 971 Q116 1019 116 1090 L116 1096 Q116 1174 161 1224 Q205 1272 276 1272 Q348 1272 391 1224 Q435 1176 437 1096 Q437 1020 393 970 Q348 922 276 922 Z M307 582 L311 582 Q346 582 369 550 Q384 529 384 506 Q384 492 379 478 Q295 237 196 59 Q177 24 140 20 L124 19 L115 19 Q83 19 62 46 Q45 69 45 95 Q45 106 48 118 Q106 318 142 512 Q146 538 166 556 Q184 574 208 575 L307 582 Z " />
<glyph glyph-name="less" unicode="&#x3c;" horiz-adv-x="998" d="M216 805 L216 775 L907 457 Q928 447 940 429 Q951 410 951 386 L951 377 Q951 334 918 312 Q898 299 879 299 Q864 299 849 306 L62 691 Q19 712 19 761 L19 820 Q19 869 62 890 L849 1274 Q864 1281 879 1281 Q898 1281 918 1268 Q951 1246 951 1203 L951 1194 Q951 1170 940 1152 Q927 1133 907 1123 L216 805 Z " />
<glyph glyph-name="equal" unicode="&#x3d;" horiz-adv-x="1112" d="M993 597 Q1020 597 1040 577 Q1058 557 1058 528 L1058 509 Q1058 480 1039 459 Q1020 439 993 439 L118 439 Q92 439 73 459 Q53 480 53 509 L53 528 Q53 557 72 577 Q92 597 118 597 L993 597 Z M993 1037 Q1020 1037 1040 1017 Q1058 997 1058 968 L1058 949 Q1058 920 1039 899 Q1020 879 993 879 L118 879 Q92 879 73 899 Q53 920 53 949 L53 968 Q53 997 72 1017 Q92 1037 118 1037 L993 1037 Z " />
<glyph glyph-name="greater" unicode="&#x3e;" horiz-adv-x="1007" d="M934 891 Q977 870 977 821 L977 749 Q977 700 934 679 L147 300 Q132 293 118 293 Q98 293 79 306 Q45 328 45 371 L45 380 Q45 404 57 423 Q70 442 89 452 L797 770 L797 800 L89 1118 Q70 1127 57 1147 Q45 1166 45 1190 L45 1199 Q45 1242 79 1264 Q98 1277 118 1277 Q132 1277 147 1270 L934 891 Z " />
<glyph glyph-name="question" unicode="&#x3f;" horiz-adv-x="709" d="M267 367 Q339 367 383 319 Q428 271 430 194 Q430 118 384 69 Q339 20 267 20 Q196 20 152 68 Q107 118 107 194 Q107 270 152 319 Q197 367 267 367 Z M296 1461 Q478 1461 576 1366 Q665 1282 665 1149 Q665 1047 610 953 Q588 915 555 874 Q543 858 527 838 L512 822 L498 804 Q389 678 389 534 L389 526 Q389 518 384 512 Q379 507 373 507 L192 507 Q178 507 168 517 Q158 528 157 544 Q156 555 156 566 Q156 718 273 864 Q333 941 357 980 Q395 1044 395 1098 Q395 1238 227 1245 Q169 1245 104 1224 Q92 1220 81 1220 Q65 1220 49 1228 Q23 1242 14 1274 L0 1317 Q-4 1329 -4 1340 Q-4 1358 5 1375 Q19 1404 46 1414 Q163 1461 296 1461 Z " />
<glyph glyph-name="at" unicode="&#x40;" horiz-adv-x="1481" d="M882 899 Q883 904 883 910 Q883 935 867 956 Q846 983 812 983 L808 983 Q791 985 775 985 Q649 985 571 887 Q497 794 497 651 Q497 582 527 542 Q559 499 618 499 Q686 499 765 575 Q847 655 862 750 L882 899 Z M980 1091 Q991 1087 996 1076 Q1001 1067 1001 1057 L1001 1052 Q987 913 985 776 L985 763 Q985 483 1069 480 L1072 480 Q1156 480 1218 576 Q1286 683 1286 860 Q1286 1083 1158 1223 Q1020 1370 783 1370 Q663 1370 553 1322 Q443 1275 360 1187 Q181 993 181 690 Q181 420 333 263 Q480 112 720 112 Q850 112 962 154 Q969 157 976 157 Q985 157 994 152 Q1009 144 1014 127 Q1016 120 1016 112 Q1016 102 1012 93 Q1004 78 990 73 Q857 20 679 20 Q556 20 445 65 Q335 109 251 193 Q67 376 67 670 Q67 828 120 973 Q172 1116 269 1225 Q368 1336 501 1397 Q641 1461 804 1461 Q1064 1461 1231 1293 Q1397 1126 1397 866 Q1397 644 1290 508 Q1189 380 1032 380 Q965 380 927 413 Q884 450 878 522 Q878 543 855 543 Q833 543 833 527 Q759 400 595 400 Q503 400 447 466 Q388 536 388 657 Q388 850 509 977 Q636 1112 839 1112 Q924 1112 980 1091 Z " />
<glyph glyph-name="A" unicode="A" horiz-adv-x="1093" d="M619 570 Q654 570 673 599 Q688 617 688 640 Q688 650 685 660 L621 900 Q607 950 590 1024 Q584 1050 577 1087 L569 1119 L560 1161 Q544 1165 527 1165 Q519 1165 510 1164 Q502 1125 494 1087 L481 1022 Q465 945 454 900 L393 659 Q390 649 390 640 Q390 618 405 598 Q425 570 459 570 L619 570 Z M1086 102 Q1089 90 1089 79 Q1089 54 1074 31 Q1054 0 1020 0 L889 0 Q867 0 851 14 Q832 30 825 53 L754 316 Q740 368 688 368 L391 368 Q339 368 325 315 L260 55 Q253 30 235 15 Q218 0 196 0 L77 0 Q43 0 23 31 Q8 54 8 79 Q8 90 11 102 L354 1339 Q361 1364 380 1380 Q397 1394 419 1394 L673 1394 Q695 1394 713 1380 Q731 1364 738 1339 L1086 102 Z " />
<glyph glyph-name="B" unicode="B" horiz-adv-x="1070" d="M493 200 Q608 200 680 251 Q763 310 763 427 Q763 541 677 599 Q603 649 480 649 L426 649 Q398 649 378 627 Q360 606 360 577 L360 273 Q360 245 378 224 Q396 202 424 201 Q443 200 493 200 Z M421 1220 Q394 1218 376 1196 Q360 1176 360 1148 L360 912 Q360 883 379 863 Q398 841 426 841 L475 841 Q596 841 664 893 Q732 946 732 1037 Q732 1128 670 1177 Q612 1223 505 1223 Q457 1223 421 1220 Z M788 747 Q898 714 962 630 Q1031 541 1031 414 Q1031 240 903 125 Q761 0 406 0 Q278 0 172 11 Q145 14 127 36 Q109 58 109 89 L109 1324 Q109 1355 126 1377 Q145 1399 170 1402 Q306 1419 468 1419 Q604 1419 687 1402 Q774 1384 840 1341 Q907 1301 946 1236 Q987 1166 987 1078 Q987 984 938 911 Q887 831 787 790 Q773 783 773 769 Q773 755 788 747 Z " />
<glyph glyph-name="C" unicode="C" horiz-adv-x="1010" d="M729 1210 Q537 1210 420 1087 Q296 954 296 716 Q296 492 410 361 Q528 228 731 228 Q809 228 893 247 Q901 249 909 249 Q928 249 944 237 Q969 219 974 185 L986 122 Q987 114 987 106 Q987 84 976 64 Q961 38 935 31 Q825 0 687 0 Q371 0 195 198 Q28 386 28 697 Q28 1044 229 1247 Q418 1438 716 1438 Q843 1438 946 1409 Q973 1400 988 1373 Q998 1354 998 1333 Q998 1323 996 1313 L980 1243 Q972 1212 948 1196 Q931 1185 913 1185 Q905 1185 896 1187 Q817 1210 729 1210 Z " />
<glyph glyph-name="D" unicode="D" horiz-adv-x="1179" d="M457 213 Q650 213 757 342 Q872 478 872 735 L872 739 Q872 963 768 1087 Q664 1210 479 1210 Q430 1210 391 1205 Q368 1202 352 1181 Q338 1161 338 1136 L338 284 Q338 257 353 238 Q371 216 396 214 Q408 213 424 213 L457 213 Z M923 1271 Q1116 1097 1116 746 Q1116 374 926 179 Q747 0 393 0 Q269 0 165 11 Q143 14 127 35 Q109 58 109 90 L109 1323 Q109 1354 126 1377 Q141 1398 165 1401 Q294 1419 451 1419 Q615 1419 729 1383 Q839 1347 923 1271 Z " />
<glyph glyph-name="E" unicode="E" horiz-adv-x="949" d="M827 226 Q855 226 875 204 Q896 180 896 147 L896 79 Q896 45 875 22 Q855 0 827 0 L178 0 Q151 0 130 23 Q109 45 109 79 L109 1315 Q109 1348 130 1372 Q151 1394 178 1394 L800 1394 Q828 1394 848 1372 Q869 1348 869 1315 L869 1246 Q869 1213 848 1189 Q828 1168 800 1168 L430 1168 Q402 1168 382 1147 Q363 1126 363 1096 L363 902 Q363 872 382 851 Q402 830 430 830 L772 830 Q799 830 820 808 Q840 785 840 751 L840 685 Q840 651 820 628 Q799 606 772 606 L430 606 Q402 606 382 585 Q363 564 363 534 L363 298 Q363 268 382 247 Q402 226 430 226 L827 226 Z " />
<glyph glyph-name="F" unicode="F" horiz-adv-x="907" d="M794 1394 Q821 1394 841 1373 Q861 1350 861 1317 L861 1244 Q861 1212 841 1189 Q821 1168 794 1168 L429 1168 Q401 1168 382 1146 Q363 1126 363 1097 L363 870 Q363 842 382 822 Q401 800 429 800 L762 800 Q788 800 808 779 Q829 755 829 723 L829 653 Q829 621 808 598 Q788 576 762 576 L429 576 Q401 576 382 555 Q363 535 363 506 L363 77 Q363 44 343 21 Q323 0 296 0 L177 0 Q149 0 130 21 Q109 45 109 77 L109 1317 Q109 1349 130 1373 Q149 1394 177 1394 L794 1394 Z " />
<glyph glyph-name="G" unicode="G" horiz-adv-x="1220" d="M1132 133 Q1132 106 1118 85 Q1103 65 1081 58 Q999 33 914 18 Q811 0 719 0 Q382 0 207 188 Q120 277 75 408 Q29 537 29 689 L29 695 Q31 1035 235 1234 Q431 1424 750 1424 Q900 1424 1021 1387 Q1048 1378 1062 1351 Q1073 1332 1073 1311 Q1073 1301 1070 1291 L1054 1222 Q1046 1190 1020 1174 Q1004 1163 987 1163 Q979 1163 970 1166 Q872 1196 747 1196 Q547 1196 426 1074 Q297 944 297 712 Q297 485 416 353 Q533 222 725 222 Q791 222 837 231 Q861 236 875 256 Q889 276 889 300 L889 513 Q889 542 871 562 Q851 583 824 583 L758 583 Q730 583 710 605 Q690 628 690 661 L690 718 Q690 751 710 774 Q730 796 758 796 L1063 796 Q1091 796 1111 774 Q1132 750 1132 718 L1132 133 Z " />
<glyph glyph-name="H" unicode="H" horiz-adv-x="1262" d="M363 912 Q363 885 381 863 Q402 843 429 843 L821 843 Q847 843 868 863 Q886 885 886 912 L886 1317 Q886 1349 907 1372 Q927 1394 954 1394 L1071 1394 Q1099 1394 1118 1372 Q1139 1349 1139 1317 L1139 77 Q1139 45 1118 22 Q1099 0 1071 0 L954 0 Q927 0 907 22 Q886 45 886 77 L886 530 Q886 559 868 579 Q848 600 821 600 L429 600 Q401 600 381 579 Q363 559 363 530 L363 77 Q363 45 343 22 Q323 0 296 0 L177 0 Q149 0 130 22 Q109 45 109 77 L109 1317 Q109 1349 130 1372 Q149 1394 177 1394 L296 1394 Q323 1394 343 1372 Q363 1349 363 1317 L363 912 Z " />
<glyph glyph-name="I" unicode="I" horiz-adv-x="488" d="M292 1394 Q322 1394 343 1371 Q365 1348 365 1316 L365 78 Q365 45 343 23 Q322 0 292 0 L183 0 Q152 0 130 23 Q109 45 109 78 L109 1316 Q109 1348 131 1371 Q152 1394 183 1394 L292 1394 Z " />
<glyph glyph-name="J" unicode="J" horiz-adv-x="702" d="M505 1417 Q536 1417 557 1394 Q579 1371 579 1339 L579 531 Q579 245 460 117 Q354 0 138 0 Q81 0 18 11 Q-11 16 -30 42 Q-45 62 -45 87 Q-45 93 -44 99 L-36 167 Q-32 199 -7 218 Q13 235 36 235 Q41 235 46 234 Q77 230 107 230 Q217 230 270 297 Q327 369 327 535 L327 1339 Q327 1371 350 1394 Q371 1417 401 1417 L505 1417 Z " />
<glyph glyph-name="K" unicode="K" horiz-adv-x="1086" d="M1097 103 Q1107 87 1107 69 Q1107 52 1097 34 Q1079 0 1044 0 L883 0 Q847 0 829 33 L551 558 Q535 585 505 588 L499 588 Q471 588 455 565 L382 471 Q370 455 370 434 L370 68 Q370 39 351 20 Q333 0 308 0 L171 0 Q146 0 128 20 Q109 39 109 68 L109 1326 Q109 1355 128 1374 Q146 1394 171 1394 L308 1394 Q333 1394 351 1374 Q370 1355 370 1326 L370 784 Q370 760 394 760 Q408 760 415 773 Q432 805 460 851 L483 889 L505 927 L785 1364 Q804 1394 836 1394 L998 1394 Q1036 1394 1054 1357 Q1061 1341 1061 1326 Q1061 1304 1047 1284 L697 804 L1097 103 Z " />
<glyph glyph-name="L" unicode="L" horiz-adv-x="901" d="M302 1394 Q331 1394 352 1371 Q374 1348 374 1315 L374 303 Q374 274 393 253 Q413 232 442 232 L836 232 Q866 232 886 210 Q908 186 908 154 L908 79 Q908 46 886 23 Q865 0 836 0 L181 0 Q152 0 131 23 Q109 46 109 79 L109 1315 Q109 1348 131 1371 Q152 1394 181 1394 L302 1394 Z " />
<glyph glyph-name="M" unicode="M" horiz-adv-x="1507" d="M1322 1394 Q1346 1394 1365 1372 Q1384 1349 1384 1315 L1384 79 Q1384 44 1365 22 Q1346 0 1322 0 L1236 0 Q1212 0 1194 22 Q1175 44 1175 79 L1175 1105 L1173 1138 L1133 1138 Q1084 853 1009 563 L885 81 Q877 55 858 38 Q839 23 815 23 L678 23 Q654 23 635 38 Q615 55 608 81 L483 563 Q408 853 359 1138 L318 1138 L318 79 Q318 44 299 22 Q281 0 256 0 L171 0 Q146 0 128 22 Q109 44 109 79 L109 1315 Q109 1349 128 1372 Q146 1394 171 1394 L431 1394 Q454 1394 473 1379 Q493 1362 501 1337 L613 930 Q687 630 728 402 L765 402 Q805 630 880 930 L992 1338 Q999 1362 1020 1379 Q1038 1394 1062 1394 L1322 1394 Z " />
<glyph glyph-name="N" unicode="N" horiz-adv-x="1304" d="M109 1316 Q109 1348 131 1371 Q152 1394 181 1394 L390 1394 Q432 1394 453 1355 L705 879 Q830 644 922 395 Q922 377 944 377 Q969 377 969 395 Q969 399 968 404 Q943 647 943 994 L943 1316 Q943 1348 964 1371 Q985 1394 1014 1394 L1110 1394 Q1139 1394 1160 1371 Q1181 1348 1181 1316 L1181 78 Q1181 45 1160 23 Q1139 0 1110 0 L937 0 Q895 0 874 39 L613 542 Q473 810 382 1043 Q377 1059 363 1059 Q359 1059 353 1057 Q336 1051 336 1034 Q348 751 348 412 L348 78 Q348 45 326 23 Q305 0 276 0 L181 0 Q152 0 131 23 Q109 45 109 78 L109 1316 Z " />
<glyph glyph-name="O" unicode="O" horiz-adv-x="1282" d="M625 218 Q780 218 869 366 Q953 504 953 725 Q953 933 870 1070 Q779 1223 623 1223 Q469 1223 378 1074 Q294 937 294 716 Q294 496 380 360 Q471 218 625 218 Z M631 1441 Q905 1441 1067 1234 Q1219 1038 1219 735 Q1219 393 1050 195 Q885 0 610 0 Q343 0 183 203 Q28 401 28 709 Q28 1029 194 1233 Q361 1441 631 1441 Z " />
<glyph glyph-name="P" unicode="P" horiz-adv-x="1084" d="M496 724 Q627 724 703 792 Q779 861 779 981 Q779 1092 711 1154 Q642 1215 520 1215 Q474 1215 435 1210 Q409 1207 391 1186 Q372 1165 372 1136 L372 800 Q372 771 392 751 Q410 727 439 726 Q461 724 496 724 Z M906 1311 Q970 1257 1005 1176 Q1044 1090 1044 991 Q1044 781 924 659 Q779 512 498 512 Q472 512 447 515 L444 515 Q415 515 395 493 Q372 471 372 441 L372 80 Q372 47 350 23 Q329 0 299 0 L182 0 Q153 0 131 23 Q109 47 109 80 L109 1326 Q109 1356 127 1378 Q146 1401 175 1405 Q315 1422 504 1422 Q775 1422 906 1311 Z " />
<glyph glyph-name="Q" unicode="Q" horiz-adv-x="1284" d="M786 424 Q805 387 842 387 L844 387 Q886 387 902 427 Q955 553 955 726 Q955 934 872 1072 Q780 1225 625 1225 Q470 1225 379 1075 Q295 938 295 718 Q295 565 338 449 Q382 331 464 272 Q483 258 501 258 Q523 258 544 279 Q565 301 565 327 Q565 343 557 361 L502 476 Q500 481 500 487 Q500 498 506 511 Q519 535 546 551 L627 600 Q651 614 672 614 L677 614 Q697 612 703 599 L786 424 Z M632 1442 Q907 1442 1069 1235 Q1221 1040 1221 736 Q1221 533 1158 375 Q1098 223 986 130 Q967 115 961 89 Q960 82 960 76 Q960 59 967 43 L1032 -93 Q1034 -98 1034 -103 Q1034 -113 1027 -127 Q1015 -152 988 -168 L907 -216 Q883 -230 861 -230 L856 -230 Q837 -228 831 -215 L744 -32 Q726 5 689 5 L681 5 Q647 1 611 1 Q344 1 183 205 Q28 403 28 711 Q28 1031 194 1234 Q362 1442 632 1442 Z " />
<glyph glyph-name="R" unicode="R" horiz-adv-x="1119" d="M515 767 Q636 767 707 830 Q779 892 779 998 Q779 1105 711 1164 Q648 1220 533 1221 Q478 1221 435 1217 Q409 1214 391 1192 Q373 1171 373 1144 L373 840 Q373 811 392 790 Q413 767 443 767 L515 767 Z M1057 100 Q1060 89 1060 78 Q1060 52 1045 30 Q1024 0 987 0 L862 0 Q840 0 821 14 Q801 28 794 53 Q767 140 726 322 Q697 461 643 516 Q592 570 486 572 L443 572 Q414 572 392 551 Q373 528 373 499 L373 78 Q373 46 351 23 Q330 0 301 0 L181 0 Q152 0 131 23 Q109 46 109 78 L109 1328 Q109 1358 127 1380 Q145 1402 173 1405 Q323 1423 498 1423 Q712 1423 850 1319 Q994 1210 994 1024 Q994 892 945 804 Q898 719 802 681 L802 648 Q931 592 985 384 L1004 310 L1022 236 Q1046 144 1057 100 Z " />
<glyph glyph-name="S" unicode="S" horiz-adv-x="948" d="M577 833 Q750 765 829 666 Q909 568 909 425 Q909 242 784 127 Q646 0 395 0 Q243 0 106 50 Q78 60 66 86 Q56 104 56 124 Q56 133 58 143 L74 217 Q82 251 111 268 Q128 277 145 277 Q158 277 171 272 Q295 226 413 226 Q521 226 581 273 Q643 319 643 401 Q643 476 584 528 Q534 573 408 622 Q58 754 58 1027 Q58 1205 184 1319 Q317 1438 538 1438 Q672 1438 786 1401 Q813 1392 828 1365 Q838 1347 838 1327 Q838 1317 835 1306 L817 1237 Q809 1204 781 1188 Q764 1178 747 1178 Q736 1178 724 1182 Q632 1212 533 1212 Q433 1212 376 1167 Q320 1123 320 1054 Q320 979 387 929 Q436 892 577 833 Z " />
<glyph glyph-name="T" unicode="T" horiz-adv-x="901" d="M915 1413 Q947 1413 968 1390 Q990 1366 990 1333 L990 1258 Q990 1223 968 1200 Q947 1177 915 1177 L694 1177 Q666 1177 645 1157 Q624 1135 624 1106 L624 80 Q624 47 602 23 Q581 0 549 0 L436 0 Q405 0 384 23 Q361 47 361 80 L361 1106 Q361 1135 341 1157 Q320 1177 292 1177 L77 1177 Q45 1177 23 1200 Q1 1223 1 1258 L1 1333 Q1 1366 23 1390 Q45 1413 77 1413 L915 1413 Z " />
<glyph glyph-name="U" unicode="U" horiz-adv-x="1243" d="M1061 1417 Q1091 1417 1113 1394 Q1134 1372 1134 1339 L1134 633 Q1134 315 993 153 Q858 0 603 0 Q93 0 93 637 L93 1339 Q93 1372 114 1394 Q136 1417 166 1417 L280 1417 Q310 1417 331 1394 Q353 1372 353 1339 L353 611 Q353 422 419 322 Q486 220 613 220 Q876 220 876 611 L876 1339 Q876 1372 898 1394 Q919 1417 949 1417 L1061 1417 Z " />
<glyph glyph-name="V" unicode="V" horiz-adv-x="1138" d="M1066 1394 Q1103 1394 1125 1363 Q1139 1342 1139 1318 Q1139 1305 1135 1292 L750 53 Q743 29 723 15 Q705 0 682 0 L467 0 Q444 0 425 15 Q405 30 398 55 L32 1294 Q28 1307 28 1319 Q28 1343 42 1363 Q64 1394 101 1394 L233 1394 Q257 1394 276 1379 Q295 1363 303 1337 L445 802 Q514 540 547 367 Q554 338 604 335 L605 335 Q616 335 623 367 Q665 573 726 796 L876 1339 Q883 1362 902 1378 Q922 1394 945 1394 L1066 1394 Z " />
<glyph glyph-name="W" unicode="W" horiz-adv-x="1635" d="M1565 1394 Q1600 1394 1622 1364 Q1638 1342 1638 1316 Q1638 1307 1636 1297 L1342 59 Q1335 32 1315 17 Q1295 0 1270 0 L1097 0 Q1070 0 1050 17 Q1030 35 1025 63 L928 601 Q888 827 870 990 Q868 1018 849 1018 Q844 1018 837 1016 L835 1016 Q816 1008 813 991 Q778 760 744 601 L634 62 Q630 34 609 17 Q589 0 563 0 L391 0 Q363 0 342 18 Q319 37 313 65 L43 1297 Q41 1307 41 1317 Q41 1343 57 1365 Q80 1394 115 1394 L238 1394 Q265 1394 286 1376 Q306 1358 311 1329 L397 819 Q414 716 435 584 Q449 498 469 361 Q474 339 495 339 L506 339 Q522 347 526 361 Q550 529 606 822 L702 1325 Q707 1356 729 1375 Q751 1394 780 1394 L932 1394 Q961 1394 983 1374 Q1006 1354 1011 1324 L1101 807 Q1138 599 1168 364 Q1168 339 1214 339 Q1220 339 1220 364 Q1233 455 1255 590 L1273 706 L1292 823 L1385 1324 Q1390 1355 1412 1375 Q1434 1394 1463 1394 L1565 1394 Z " />
<glyph glyph-name="X" unicode="X" horiz-adv-x="1015" d="M981 117 Q991 97 991 78 Q991 58 980 39 Q959 0 917 0 L790 0 Q744 0 724 43 L630 249 Q603 303 577 361 Q566 384 553 413 L530 463 Q521 488 513 488 L513 490 Q466 486 456 461 Q441 420 417 360 L406 334 L394 307 Q380 270 370 248 L285 46 Q276 25 258 13 Q239 0 218 0 L96 0 Q54 0 32 38 Q22 58 22 77 Q22 97 32 117 L323 669 Q333 687 333 706 Q333 723 324 742 L45 1277 Q35 1297 35 1317 Q35 1336 45 1355 Q67 1394 108 1394 L234 1394 Q256 1394 274 1381 Q292 1370 301 1349 L392 1144 Q436 1047 468 963 Q479 940 505 934 L514 934 Q541 934 553 964 Q577 1030 622 1144 L709 1348 Q718 1369 737 1381 Q755 1394 776 1394 L897 1394 Q939 1394 961 1355 Q972 1336 972 1316 Q972 1296 961 1276 L681 750 Q672 732 672 714 Q672 696 681 677 L981 117 Z " />
<glyph glyph-name="Y" unicode="Y" horiz-adv-x="922" d="M924 1394 Q966 1394 988 1355 Q999 1336 999 1316 Q999 1297 988 1276 L640 609 Q627 583 627 553 L627 79 Q627 46 604 23 Q583 0 553 0 L443 0 Q412 0 391 23 Q369 46 369 79 L369 543 Q369 572 357 597 L20 1278 Q11 1297 11 1315 Q11 1336 22 1356 Q44 1394 86 1394 L209 1394 Q232 1394 250 1381 Q269 1367 279 1345 L389 1062 Q431 955 485 804 Q491 791 529 781 L539 805 Q569 897 633 1062 L742 1345 Q750 1367 770 1381 Q788 1394 810 1394 L924 1394 Z " />
<glyph glyph-name="Z" unicode="Z" horiz-adv-x="1012" d="M926 228 Q956 228 977 205 Q999 183 999 150 L999 78 Q999 45 977 23 Q956 0 926 0 L84 0 Q54 0 32 23 Q11 45 11 78 L11 124 Q11 148 24 169 L622 1102 Q628 1112 628 1125 Q628 1166 588 1166 L143 1166 Q112 1166 92 1188 Q70 1211 70 1244 L70 1316 Q70 1348 92 1371 Q113 1394 143 1394 L916 1394 Q946 1394 967 1371 Q990 1348 990 1316 L990 1256 Q990 1233 976 1213 L397 299 L390 287 L390 280 Q390 254 402 242 Q415 228 434 228 L926 228 Z " />
<glyph glyph-name="bracketleft" unicode="&#x5b;" horiz-adv-x="375" d="M183 1277 L183 -101 L310 -101 Q337 -101 356 -121 Q375 -142 375 -170 Q375 -199 356 -220 Q337 -240 310 -240 L65 -240 Q39 -240 20 -220 Q0 -199 0 -170 L0 1346 Q0 1375 19 1395 Q39 1415 65 1415 L310 1415 Q337 1415 357 1395 Q375 1375 375 1346 Q375 1317 357 1297 Q337 1277 310 1277 L183 1277 Z " />
<glyph glyph-name="backslash" unicode="&#x5c;" horiz-adv-x="527" d="M517 17 Q520 5 520 -6 Q520 -31 505 -52 Q483 -83 446 -83 L437 -83 Q413 -83 393 -67 Q374 -52 367 -26 L9 1320 Q6 1331 6 1341 Q6 1366 22 1389 Q44 1419 80 1419 L91 1419 Q115 1419 135 1403 Q155 1387 162 1362 L517 17 Z " />
<glyph glyph-name="bracketright" unicode="&#x5d;" horiz-adv-x="373" d="M308 1422 Q334 1422 354 1401 Q373 1381 373 1352 L373 -166 Q373 -195 354 -216 Q335 -236 308 -236 L65 -236 Q39 -236 20 -216 Q0 -195 0 -166 Q0 -138 20 -117 Q39 -97 65 -97 L193 -97 L193 1283 L65 1283 Q39 1283 19 1303 Q0 1323 0 1352 Q0 1381 20 1401 Q39 1422 65 1422 L308 1422 Z " />
<glyph glyph-name="asciicircum" unicode="&#x5e;" horiz-adv-x="915" d="M478 1522 Q471 1535 456 1535 Q441 1535 434 1522 L161 1010 Q154 996 136 988 Q117 977 94 977 L82 977 Q40 977 18 1002 Q8 1015 8 1029 Q8 1038 13 1048 L356 1645 Q365 1659 383 1669 Q402 1678 425 1678 L490 1678 Q513 1678 532 1669 Q549 1659 558 1645 L901 1048 Q907 1038 907 1028 Q907 1015 896 1002 Q874 977 833 977 L817 977 Q794 977 775 988 Q757 996 748 1011 L478 1522 Z " />
<glyph glyph-name="underscore" unicode="&#x5f;" horiz-adv-x="973" d="M943 86 Q955 86 963 77 Q973 67 973 53 Q973 40 963 28 Q955 20 943 20 L30 20 Q18 20 10 28 Q0 40 0 53 Q0 67 10 77 Q18 86 30 86 L943 86 Z " />
<glyph glyph-name="grave" unicode="&#x60;" horiz-adv-x="275" d="M253 1246 Q264 1227 264 1207 Q264 1188 253 1169 Q232 1130 190 1130 L184 1130 Q149 1130 127 1158 L30 1286 Q12 1309 12 1334 Q12 1351 21 1369 Q41 1413 87 1413 L121 1413 Q164 1413 184 1375 L253 1246 Z " />
<glyph glyph-name="a" unicode="a" horiz-adv-x="934" d="M594 443 Q594 473 574 494 Q553 514 525 514 L522 514 Q399 508 320 466 Q221 415 221 325 Q221 257 291 218 Q347 188 413 188 Q474 188 523 227 Q570 264 589 324 L589 325 Q594 351 594 383 L594 443 Z M443 1047 Q658 1047 759 921 Q846 814 846 619 L846 101 Q845 68 824 45 Q802 23 770 22 L689 20 Q658 20 634 45 Q613 67 613 98 L613 128 L576 128 Q526 62 458 30 Q393 0 321 0 L312 0 Q178 4 97 93 Q19 178 19 299 Q19 483 161 581 Q300 676 551 677 Q585 677 585 712 Q585 774 546 814 Q497 866 390 866 Q301 866 210 833 Q196 828 183 828 Q166 828 150 836 Q121 853 112 886 L109 899 Q106 910 106 922 Q106 940 114 957 Q127 985 155 995 Q287 1047 443 1047 Z " />
<glyph glyph-name="b" unicode="b" horiz-adv-x="1093" d="M560 216 Q667 216 728 300 Q787 384 787 529 Q787 662 733 745 Q672 838 560 838 Q491 838 436 788 Q382 738 365 662 Q359 632 359 599 L359 446 Q359 412 366 384 Q382 311 434 264 Q488 216 560 216 Z M675 1047 Q840 1047 945 912 Q1053 772 1053 545 L1053 541 Q1053 284 919 134 Q802 0 631 0 Q447 0 354 168 L317 168 L318 103 L318 100 Q318 69 296 47 Q275 23 245 23 L178 23 Q148 23 127 45 Q105 67 104 99 Q104 119 103 152 L101 203 Q99 264 99 314 L99 1415 Q99 1448 121 1471 Q142 1494 173 1494 L285 1494 Q315 1494 336 1471 Q359 1448 359 1415 L359 900 L394 900 Q441 974 509 1009 Q582 1047 675 1047 Z " />
<glyph glyph-name="c" unicode="c" horiz-adv-x="785" d="M757 107 Q758 101 758 96 Q758 72 744 51 Q727 25 699 19 Q616 0 521 0 Q295 0 163 137 Q30 275 30 512 Q30 742 166 889 Q312 1045 562 1045 Q629 1045 696 1031 Q726 1025 743 998 Q755 979 755 957 Q755 948 753 939 L744 891 Q738 861 713 842 Q695 829 674 829 Q668 829 661 830 Q622 836 576 836 Q450 836 372 747 Q297 661 297 529 L297 525 Q297 378 381 293 Q459 213 582 213 Q627 213 666 219 Q673 220 679 220 Q701 220 720 206 Q745 187 750 154 L757 107 Z " />
<glyph glyph-name="d" unicode="d" horiz-adv-x="1108" d="M726 599 Q726 632 720 662 Q703 739 647 788 Q593 838 524 838 Q412 838 351 745 Q297 662 297 529 Q297 384 357 300 Q417 216 524 216 Q596 216 650 264 Q703 311 719 384 Q726 412 726 446 L726 599 Z M911 1494 Q941 1494 962 1471 Q985 1448 985 1415 L985 314 Q985 264 983 203 L982 152 Q981 120 980 100 Q979 67 958 45 Q937 23 907 23 L840 23 Q809 23 788 47 Q766 70 766 103 L767 168 L731 168 Q637 0 453 0 Q283 0 164 134 Q31 284 31 541 L31 545 Q31 772 139 912 Q244 1047 410 1047 Q503 1047 576 1009 Q644 974 691 900 L726 900 L726 1415 Q726 1448 748 1471 Q769 1494 800 1494 L911 1494 Z " />
<glyph glyph-name="e" unicode="e" horiz-adv-x="970" d="M594 619 Q628 619 648 647 Q664 666 664 689 Q664 697 662 706 Q649 774 610 817 Q560 870 479 870 Q405 870 353 820 Q311 780 289 714 Q285 702 285 690 Q285 669 298 650 Q319 619 355 619 L594 619 Z M497 1045 Q704 1045 813 891 Q907 756 907 546 Q907 531 906 513 Q904 482 883 460 Q862 438 833 438 L361 438 Q322 438 301 403 Q290 385 290 367 Q290 350 299 333 Q332 267 409 232 Q478 200 568 200 Q663 200 746 218 Q754 220 761 220 Q783 220 802 206 Q828 188 833 156 L838 125 Q840 116 840 108 Q840 86 829 67 Q813 42 785 33 Q667 0 525 0 Q290 0 158 137 Q30 272 30 510 Q30 723 144 874 Q273 1045 497 1045 Z " />
<glyph glyph-name="f" unicode="f" horiz-adv-x="623" d="M576 1492 Q605 1490 624 1467 Q644 1444 644 1413 L643 1356 Q643 1323 622 1300 Q600 1278 569 1278 L566 1278 Q485 1278 442 1215 Q406 1161 406 1073 L406 1053 Q406 1032 420 1016 Q437 1000 458 1000 L526 1000 Q556 1000 578 978 Q599 955 599 922 L599 880 Q599 848 577 825 Q556 802 526 802 L460 802 Q439 802 423 786 Q408 771 408 749 L408 77 Q408 45 386 23 Q365 0 335 0 L218 0 Q189 0 167 23 Q146 45 146 77 L146 749 Q146 771 132 786 Q117 802 95 802 L93 802 Q63 802 42 825 Q20 848 20 880 L20 922 Q20 955 41 978 Q63 1000 93 1000 L95 1000 Q117 1000 132 1017 Q146 1032 146 1053 L146 1061 Q146 1159 174 1244 Q204 1338 263 1395 Q359 1494 515 1494 Q549 1494 576 1492 Z " />
<glyph glyph-name="g" unicode="g" horiz-adv-x="1059" d="M699 561 Q699 599 691 626 Q674 698 628 739 Q579 784 511 784 Q417 784 356 699 Q294 611 294 468 Q294 341 348 260 Q408 172 511 172 Q575 172 624 214 Q671 254 688 317 Q694 335 696 362 Q699 383 699 408 L699 561 Z M889 965 Q919 965 940 942 Q961 919 961 888 L961 885 Q958 794 958 676 L958 96 Q958 -224 819 -358 Q685 -480 440 -480 Q295 -480 178 -437 Q151 -428 138 -401 Q129 -383 129 -364 Q129 -355 131 -345 L144 -292 Q152 -259 180 -243 Q197 -234 214 -234 Q226 -234 238 -238 Q335 -274 432 -274 Q553 -274 625 -202 Q703 -124 703 21 L703 87 Q703 109 680 109 Q671 109 662 101 Q577 -27 418 -27 Q249 -27 141 108 Q30 244 30 461 Q30 698 155 847 Q274 988 448 988 Q615 988 695 851 Q704 842 714 842 Q736 842 736 863 L738 893 Q741 924 763 945 Q783 965 812 965 L889 965 Z " />
<glyph glyph-name="h" unicode="h" horiz-adv-x="1062" d="M657 1023 Q798 1023 881 920 Q974 806 974 588 L974 78 Q974 45 953 23 Q931 0 901 0 L787 0 Q758 0 736 23 Q714 45 714 78 L714 552 Q714 802 538 802 Q477 802 429 762 Q390 729 369 677 Q359 646 359 597 L359 78 Q359 45 337 23 Q315 0 286 0 L172 0 Q142 0 120 23 Q99 45 99 78 L99 1393 Q99 1425 120 1447 Q142 1470 172 1470 L286 1470 Q315 1470 337 1447 Q359 1425 359 1393 L359 900 Q359 877 381 877 Q391 877 399 885 Q442 946 511 986 Q575 1023 657 1023 Z " />
<glyph glyph-name="i" unicode="i" horiz-adv-x="466" d="M237 1168 Q176 1168 137 1209 Q100 1248 100 1306 L100 1312 Q100 1374 136 1412 Q176 1453 238 1453 Q300 1453 338 1412 Q376 1373 378 1309 Q378 1249 340 1209 Q300 1168 237 1168 Z M295 1000 Q325 1000 345 978 Q368 954 368 922 L368 79 Q368 45 346 23 Q324 0 295 0 L182 0 Q152 0 130 23 Q108 45 108 79 L108 922 Q108 954 131 978 Q151 1000 182 1000 L295 1000 Z " />
<glyph glyph-name="j" unicode="j" horiz-adv-x="469" d="M230 1167 Q169 1167 132 1209 Q94 1249 94 1309 Q94 1373 132 1413 Q170 1453 234 1453 Q296 1453 333 1413 Q370 1373 372 1309 Q372 1249 333 1209 Q295 1167 230 1167 Z M291 1000 Q321 1000 342 977 Q363 955 363 923 L363 118 Q363 -192 234 -323 Q139 -418 -36 -439 Q-41 -440 -46 -440 Q-69 -440 -88 -424 Q-112 -404 -115 -372 L-124 -303 L-124 -294 Q-124 -269 -111 -249 Q-95 -225 -69 -217 Q0 -199 38 -156 Q75 -115 88 -36 Q102 39 102 195 L102 923 Q102 955 124 977 Q145 1000 175 1000 L291 1000 Z " />
<glyph glyph-name="k" unicode="k" horiz-adv-x="978" d="M943 121 Q957 100 957 78 Q957 60 947 41 Q927 0 883 0 L742 0 Q700 0 679 39 L509 353 Q490 385 455 389 L449 389 Q417 389 396 362 L373 331 Q359 313 359 288 L359 77 Q359 45 336 23 Q316 0 286 0 L172 0 Q142 0 120 23 Q99 45 99 77 L99 1393 Q99 1425 120 1448 Q142 1470 172 1470 L286 1470 Q316 1470 336 1448 Q359 1425 359 1393 L359 585 Q359 562 381 562 Q391 562 400 571 Q431 633 468 697 L636 965 Q658 1000 697 1000 L806 1000 Q852 1000 872 956 Q880 938 880 921 Q880 895 861 872 L638 600 L943 121 Z " />
<glyph glyph-name="l" unicode="l" horiz-adv-x="492" d="M296 1470 Q325 1470 347 1447 Q369 1425 369 1392 L369 78 Q369 45 347 23 Q325 0 296 0 L183 0 Q152 0 130 23 Q109 45 109 78 L109 1392 Q109 1425 130 1447 Q152 1470 183 1470 L296 1470 Z " />
<glyph glyph-name="m" unicode="m" horiz-adv-x="1594" d="M234 1000 Q262 1000 283 979 Q305 957 306 926 L307 884 Q307 860 331 860 Q345 860 351 872 Q369 899 389 922 Q415 950 445 971 Q522 1023 625 1023 Q711 1023 776 979 Q841 937 870 861 Q877 847 892 847 Q901 847 909 855 Q960 930 1029 975 Q1103 1023 1200 1023 Q1337 1023 1417 923 Q1506 809 1506 593 L1506 77 Q1506 45 1484 23 Q1463 0 1433 0 L1326 0 Q1297 0 1276 23 Q1254 45 1254 77 L1254 546 Q1254 804 1092 804 Q1036 804 992 766 Q953 733 935 678 Q922 639 922 588 L922 77 Q922 45 900 23 Q879 0 850 0 L743 0 Q713 0 692 23 Q671 45 671 77 L671 563 Q671 670 634 733 Q592 804 512 804 Q452 804 406 760 Q371 725 353 674 Q341 641 341 586 L341 77 Q341 45 320 23 Q298 0 269 0 L161 0 Q131 0 110 22 Q88 45 88 77 L88 263 Q87 388 86 497 Q84 789 83 922 L83 925 Q83 956 104 978 Q125 1000 155 1000 L234 1000 Z " />
<glyph glyph-name="n" unicode="n" horiz-adv-x="1053" d="M640 1023 Q786 1023 871 922 Q965 811 965 597 L965 77 Q965 45 943 23 Q921 0 892 0 L777 0 Q748 0 727 23 Q705 45 705 77 L705 556 Q705 802 533 802 Q468 802 420 759 Q381 723 362 667 Q349 636 349 580 L349 77 Q349 45 327 23 Q306 0 276 0 L161 0 Q132 0 110 22 Q89 45 89 77 Q88 170 88 264 Q87 389 86 497 Q84 789 83 922 L83 925 Q83 956 103 978 Q126 1000 155 1001 L243 1002 Q273 1002 294 979 Q316 956 316 923 L316 882 Q316 857 339 857 Q352 857 360 869 Q396 929 458 969 Q539 1023 640 1023 Z " />
<glyph glyph-name="o" unicode="o" horiz-adv-x="1045" d="M734 461 Q737 491 737 520 Q737 607 714 680 Q672 812 568 840 Q539 848 514 848 Q420 848 363 746 Q308 648 308 513 Q308 394 347 308 Q400 192 506 182 Q516 181 525 181 Q619 181 677 271 Q725 348 734 461 Z M39 482 Q38 496 38 510 Q38 735 179 877 Q314 1013 514 1022 Q528 1023 541 1023 Q723 1023 852 908 Q1006 770 1006 524 Q1006 286 858 141 Q724 10 531 1 Q517 0 504 0 Q327 0 199 111 Q48 243 39 482 Z " />
<glyph glyph-name="p" unicode="p" horiz-adv-x="1076" d="M543 178 Q655 178 716 271 Q770 354 770 487 Q770 632 711 716 Q650 800 543 800 Q471 800 417 752 Q365 705 349 632 Q342 604 342 570 L342 417 Q342 384 348 353 Q365 277 419 227 Q474 178 543 178 Z M614 1016 Q785 1016 902 882 Q1036 731 1036 474 L1036 470 Q1036 244 928 103 Q823 -31 658 -31 Q565 -31 492 7 Q424 41 377 116 L342 116 L342 -399 Q342 -432 319 -455 Q298 -478 268 -478 L156 -478 Q125 -478 104 -455 Q82 -432 82 -399 L82 702 Q82 752 84 813 L86 864 Q87 896 87 917 Q88 949 110 971 Q131 992 161 992 L228 992 Q258 992 279 969 Q301 947 301 916 L301 913 L300 848 L337 848 Q430 1016 614 1016 Z " />
<glyph glyph-name="q" unicode="q" horiz-adv-x="1080" d="M726 571 Q726 605 719 633 Q703 706 650 753 Q596 801 524 801 Q417 801 357 717 Q297 633 297 488 Q297 355 351 272 Q412 179 524 179 Q593 179 647 228 Q703 277 720 354 Q726 385 726 418 L726 571 Z M980 917 Q981 896 982 865 L983 814 Q985 753 985 703 L985 -398 Q985 -431 962 -454 Q941 -477 911 -477 L800 -477 Q769 -477 748 -454 Q726 -431 726 -398 L726 117 L691 117 Q644 42 576 8 Q503 -30 410 -30 Q244 -30 139 104 Q31 245 31 471 L31 475 Q31 732 164 883 Q283 1017 453 1017 Q637 1017 731 849 L767 849 L766 914 Q766 947 788 970 Q809 993 840 993 L907 993 Q937 993 958 972 Q979 950 980 917 Z " />
<glyph glyph-name="r" unicode="r" horiz-adv-x="701" d="M598 1038 Q616 1038 629 1025 Q642 1012 642 992 L642 839 Q642 812 624 793 Q606 775 581 775 L580 775 Q490 775 429 725 Q369 677 352 593 Q346 558 346 515 L346 78 Q346 46 322 23 Q302 0 272 0 L156 0 Q126 0 103 23 Q82 46 82 78 L82 937 Q82 969 103 992 Q126 1015 156 1015 L232 1015 Q264 1015 284 992 Q305 970 305 939 L305 845 Q305 820 331 820 Q346 820 355 836 Q388 938 462 992 Q526 1038 598 1038 Z " />
<glyph glyph-name="s" unicode="s" horiz-adv-x="760" d="M471 618 Q603 570 662 497 Q719 425 721 316 Q721 175 622 90 Q517 0 323 0 Q200 0 97 35 Q70 44 57 71 Q47 89 47 109 Q47 118 49 128 L57 165 Q65 199 94 216 Q110 225 127 225 Q139 225 152 220 Q247 185 323 185 Q471 185 471 293 Q471 342 435 372 Q403 400 316 431 Q178 481 112 562 Q55 631 55 719 L55 725 Q55 863 154 952 Q259 1045 427 1045 Q522 1045 609 1020 Q636 1011 652 984 Q662 966 662 946 Q662 937 660 927 L653 896 Q645 864 618 847 Q600 837 582 837 Q572 837 562 840 Q496 862 437 862 Q375 862 340 835 Q303 806 303 756 Q303 711 344 679 Q378 654 471 618 Z " />
<glyph glyph-name="t" unicode="t" horiz-adv-x="657" d="M402 427 Q402 305 414 277 Q436 223 521 223 Q530 223 541 224 Q569 224 589 203 Q609 183 610 152 L611 80 Q611 53 594 32 Q577 12 552 8 Q500 0 436 0 Q300 0 226 83 Q148 170 148 378 L148 761 Q148 787 130 805 Q112 823 88 823 Q61 823 40 845 Q20 865 20 896 L20 949 Q20 979 40 1001 Q60 1021 88 1021 Q113 1021 130 1040 Q148 1058 148 1084 L148 1247 Q148 1277 168 1298 Q189 1319 216 1319 L334 1319 Q361 1319 382 1298 Q402 1277 402 1247 L402 1084 Q402 1058 419 1040 Q436 1021 462 1021 L549 1021 Q577 1021 597 1001 Q617 979 617 949 L617 896 Q617 865 597 845 Q576 823 549 823 L462 823 Q436 823 420 805 Q402 787 402 761 L402 427 Z " />
<glyph glyph-name="u" unicode="u" horiz-adv-x="1032" d="M943 945 L943 525 Q943 270 944 103 Q944 69 921 47 Q900 23 869 23 L790 23 Q760 23 738 47 Q716 70 716 103 L716 146 Q716 170 692 170 Q678 170 671 158 Q656 132 635 108 Q609 78 578 56 Q496 0 388 0 Q242 0 161 99 Q69 210 69 433 L69 945 Q69 977 92 1001 Q112 1023 144 1023 L256 1023 Q287 1023 309 1001 Q331 977 331 945 L331 484 Q331 222 501 222 Q565 222 612 264 Q650 296 669 348 Q680 374 680 425 L680 945 Q680 977 703 1001 Q723 1023 755 1023 L868 1023 Q899 1023 921 1001 Q943 978 943 945 Z " />
<glyph glyph-name="v" unicode="v" horiz-adv-x="955" d="M833 1000 Q870 1000 892 968 Q906 947 906 924 Q906 910 901 896 L610 51 Q601 28 583 14 Q564 0 541 0 L372 0 Q350 0 331 14 Q311 28 304 51 L24 881 Q19 897 19 912 Q19 939 35 963 Q60 1000 103 1000 L211 1000 Q235 1000 255 985 Q274 969 281 945 L392 532 Q418 433 437 334 Q443 309 467 309 L468 309 Q498 309 503 340 Q524 443 544 532 L650 943 Q657 968 678 984 Q696 1000 721 1000 L833 1000 Z " />
<glyph glyph-name="w" unicode="w" horiz-adv-x="1392" d="M1295 1000 Q1333 1000 1355 968 Q1370 947 1370 922 Q1370 911 1367 899 L1127 56 Q1120 31 1100 16 Q1080 0 1056 0 L917 0 Q891 0 872 16 Q851 32 845 59 L772 351 Q743 480 718 631 Q714 655 691 655 L685 655 Q666 651 662 631 Q640 485 606 351 L528 57 Q521 32 501 16 Q481 0 457 0 L317 0 Q293 0 273 16 Q254 32 246 57 L19 900 Q16 912 16 922 Q16 947 32 969 Q54 1000 91 1000 L194 1000 Q221 1000 241 983 Q262 964 267 936 L329 591 Q363 408 381 277 Q381 253 426 253 L426 244 Q426 249 433 274 Q445 347 465 437 Q473 472 482 515 L490 552 L498 589 L583 940 Q590 967 610 984 Q630 1000 655 1000 L744 1000 Q770 1000 790 984 Q810 967 815 941 L895 601 Q942 383 962 275 Q962 257 983 252 Q987 251 990 251 Q1010 251 1013 275 Q1029 408 1065 603 L1132 938 Q1137 965 1158 983 Q1178 1000 1204 1000 L1295 1000 Z " />
<glyph glyph-name="x" unicode="x" horiz-adv-x="883" d="M836 119 Q848 99 848 79 Q848 59 837 39 Q817 0 774 0 L658 0 Q614 0 594 40 L523 176 Q496 227 449 334 Q438 344 428 344 Q417 344 406 333 Q391 297 370 251 L352 214 L334 176 L269 42 Q249 0 204 0 L104 0 Q60 0 40 40 Q29 60 29 79 Q29 100 42 121 L259 472 Q271 491 271 510 Q271 529 259 548 L51 880 Q38 900 38 922 Q38 940 48 960 Q69 1000 112 1000 L221 1000 Q263 1000 284 961 L352 839 L372 800 L391 761 Q417 710 432 679 Q444 673 450 673 Q460 673 471 683 L490 727 L508 767 Q530 812 545 843 L604 959 Q624 1000 668 1000 L762 1000 Q806 1000 827 959 Q837 940 837 922 Q837 900 823 879 L620 562 Q608 544 608 524 Q608 506 619 487 L836 119 Z " />
<glyph glyph-name="y" unicode="y" horiz-adv-x="957" d="M835 1002 Q873 1002 895 970 Q909 949 909 925 Q909 912 905 899 L723 343 Q681 220 640 77 Q633 54 624 22 L617 -3 L610 -28 Q594 -82 584 -114 Q535 -271 471 -331 Q384 -410 278 -446 Q266 -450 254 -450 Q236 -450 220 -441 Q193 -424 184 -390 L162 -299 Q160 -290 160 -281 Q160 -263 169 -245 Q181 -219 206 -208 Q236 -195 266 -176 Q333 -139 374 -81 Q388 -61 388 -40 Q388 -25 382 -11 Q350 69 223 393 Q175 513 116 663 Q72 774 25 894 Q18 910 18 926 Q18 948 31 968 Q53 1002 92 1002 L217 1002 Q240 1002 260 987 Q280 971 287 947 L411 506 L417 483 L423 459 Q430 431 436 409 Q449 353 457 316 Q463 298 481 298 Q497 298 503 315 Q511 347 525 411 L536 461 Q541 488 546 506 L648 943 Q653 969 673 986 Q693 1002 718 1002 L835 1002 Z " />
<glyph glyph-name="z" unicode="z" horiz-adv-x="869" d="M741 218 Q772 218 794 194 Q816 172 816 138 L816 79 Q816 46 794 23 Q773 0 741 0 L93 0 Q62 0 41 23 Q18 46 18 79 L18 131 Q18 158 34 180 L318 564 Q369 630 430 700 Q442 715 442 731 L442 738 Q440 759 425 772 Q411 785 392 785 L126 785 Q95 785 74 808 Q52 831 52 864 L52 921 Q52 954 74 977 Q95 1000 126 1000 L726 1000 Q757 1000 779 977 Q801 954 801 921 L801 861 Q801 833 784 812 L515 445 L487 410 L460 376 Q429 337 407 311 Q399 302 394 283 Q392 278 392 272 Q392 258 402 241 Q420 218 447 218 L741 218 Z " />
<glyph glyph-name="braceleft" unicode="&#x7b;" horiz-adv-x="470" d="M454 1277 Q311 1277 311 1106 Q311 1081 314 1046 L317 1015 Q319 994 321 983 L322 966 L324 949 Q326 928 328 914 Q331 872 331 840 L331 835 Q331 730 291 677 Q256 632 159 609 L159 572 Q256 550 291 504 Q331 450 331 345 L331 340 Q331 306 328 264 Q326 249 324 227 L321 193 L317 161 L314 131 Q311 95 311 72 Q311 -101 454 -101 Q460 -101 465 -106 Q470 -112 470 -119 L470 -221 Q470 -230 466 -235 Q461 -240 454 -240 L418 -240 Q132 -240 132 29 Q132 101 142 195 L146 238 L151 280 Q154 327 154 363 Q154 424 131 460 Q98 514 15 525 Q9 526 4 531 Q0 536 0 544 L0 636 Q0 643 4 648 Q9 653 15 654 Q98 665 131 717 Q154 754 154 817 Q154 868 142 985 Q132 1079 132 1151 Q132 1287 208 1354 Q281 1418 420 1418 L454 1418 Q460 1418 465 1413 Q470 1407 470 1399 L470 1295 Q470 1287 466 1282 Q461 1277 454 1277 Z " />
<glyph glyph-name="bar" unicode="&#x7c;" horiz-adv-x="175" d="M102 1691 Q132 1691 154 1669 Q175 1646 175 1613 L175 -318 Q175 -351 154 -373 Q132 -396 102 -396 L73 -396 Q43 -396 21 -373 Q0 -351 0 -318 L0 1613 Q0 1646 21 1669 Q43 1691 73 1691 L102 1691 Z " />
<glyph glyph-name="braceright" unicode="&#x7d;" horiz-adv-x="470" d="M456 649 Q462 648 466 644 Q470 639 470 632 L470 538 Q470 531 466 526 Q461 521 456 520 Q374 509 340 455 Q316 418 316 358 Q316 306 329 190 L333 147 L337 105 Q341 59 341 24 Q341 -245 53 -245 L16 -245 Q10 -245 5 -240 Q0 -235 0 -226 L0 -124 Q0 -117 5 -112 Q11 -106 16 -106 Q94 -105 129 -56 Q160 -14 160 67 Q160 116 150 189 L146 222 Q144 243 144 258 Q140 301 140 335 L140 340 Q140 446 179 499 Q215 546 314 567 L314 604 Q215 626 179 672 Q140 725 140 830 L140 835 Q140 867 144 910 Q144 924 146 944 L148 961 L150 977 Q160 1053 160 1101 Q160 1267 16 1272 Q10 1272 5 1277 Q0 1282 0 1290 L0 1394 Q0 1402 5 1407 Q11 1413 16 1413 L51 1413 Q191 1413 265 1349 Q341 1282 341 1146 Q341 1093 329 980 Q316 863 316 812 Q316 750 340 712 Q374 660 456 649 Z " />
<glyph glyph-name="asciitilde" unicode="&#x7e;" horiz-adv-x="993" d="M916 995 Q949 995 971 970 Q990 948 990 920 Q990 914 989 909 Q977 761 905 691 Q844 633 742 633 Q679 633 612 659 Q561 679 469 732 Q321 824 266 824 Q184 824 161 712 Q156 685 135 667 Q115 650 89 650 L78 650 Q44 650 22 677 Q4 699 4 726 Q4 733 5 739 Q23 878 94 947 Q157 1008 260 1008 Q326 1008 389 983 Q439 964 534 909 Q684 823 736 823 Q809 823 831 931 Q836 959 857 977 Q877 995 903 995 L916 995 Z " />
<glyph glyph-name="exclamdown" unicode="&#xa1;" horiz-adv-x="323" d="M61 848 Q62 879 84 899 Q107 921 138 921 L183 921 Q214 921 236 899 Q258 879 260 848 L296 83 L296 78 Q296 48 275 26 Q252 2 219 2 L103 2 Q69 2 46 26 Q25 48 25 78 L25 83 L61 848 Z M165 1417 Q234 1417 278 1369 Q323 1320 323 1243 Q321 1165 278 1118 Q234 1070 163 1070 Q90 1070 45 1118 Q0 1166 0 1243 Q0 1320 46 1369 Q91 1417 163 1417 L165 1417 Z " />
<glyph glyph-name="cent" unicode="&#xa2;" horiz-adv-x="768" d="M762 99 Q764 91 764 84 Q764 63 751 45 Q735 20 705 12 Q651 -1 573 -8 L573 -131 Q573 -163 550 -185 Q527 -208 495 -208 L491 -208 Q458 -208 436 -185 Q414 -163 414 -131 L414 -2 Q217 27 106 155 Q0 286 0 493 Q0 684 102 822 Q209 966 414 1007 L414 1129 Q414 1162 436 1185 Q458 1207 491 1207 L495 1207 Q527 1207 550 1185 Q573 1162 573 1129 L573 1013 Q638 1012 690 999 Q721 993 737 966 Q750 947 750 925 Q750 917 748 909 L738 864 Q732 833 706 816 Q687 803 664 803 Q657 803 649 804 Q606 811 555 811 Q427 811 350 725 Q274 642 274 504 Q274 360 359 276 Q437 199 558 199 Q614 199 665 208 Q674 210 682 210 Q704 210 723 196 Q750 177 755 144 L762 99 Z " />
<glyph glyph-name="sterling" unicode="&#xa3;" horiz-adv-x="885" d="M806 244 Q839 244 861 221 Q885 198 885 165 L885 98 Q885 66 861 43 Q839 20 806 20 L78 20 Q45 20 23 43 Q0 65 0 98 L0 113 Q0 157 38 180 Q118 229 169 305 Q227 392 227 485 L227 524 Q224 552 205 571 Q185 590 157 590 L100 590 Q68 590 45 613 Q22 636 22 669 L22 693 Q22 726 45 748 Q68 771 100 771 L107 771 Q138 771 159 795 Q177 815 177 840 Q177 844 176 849 Q168 906 168 963 Q168 1154 289 1271 Q409 1386 607 1386 Q684 1386 749 1370 Q780 1362 797 1335 Q810 1316 810 1294 Q810 1286 808 1278 L797 1223 Q791 1192 764 1175 Q743 1161 721 1161 Q713 1161 706 1162 Q667 1169 623 1169 Q513 1169 458 1100 Q414 1044 414 949 Q414 895 425 829 Q430 803 449 788 Q467 771 493 771 L634 771 Q666 771 689 748 Q712 726 712 693 L712 669 Q712 636 689 613 Q666 590 634 590 L529 590 Q501 590 481 571 Q462 552 459 525 Q456 469 443 425 Q416 344 350 283 Q343 276 343 267 Q343 244 366 244 L806 244 Z " />
<glyph glyph-name="currency" unicode="&#xa4;" horiz-adv-x="939" d="M467 649 Q552 649 609 716 Q673 790 673 918 Q673 1029 617 1102 Q558 1179 467 1179 L465 1179 Q376 1179 318 1104 Q260 1031 260 916 Q260 791 327 717 Q386 649 467 649 Z M909 541 Q930 520 930 492 Q930 463 911 442 L910 441 Q889 418 858 418 L855 418 Q822 420 802 446 L746 515 Q732 535 706 540 Q701 541 697 541 Q677 541 661 530 Q574 472 467 472 Q356 472 274 526 Q258 536 240 536 Q235 536 229 535 Q206 532 190 513 L136 446 Q116 421 83 419 L78 419 Q48 419 29 442 Q9 462 9 488 L9 491 Q10 520 30 541 L112 622 Q132 643 132 665 Q132 681 122 698 Q69 791 69 914 Q69 1033 121 1129 Q130 1146 130 1162 Q130 1185 109 1205 L25 1284 Q3 1303 1 1333 L1 1336 Q1 1363 21 1384 L25 1389 Q47 1412 79 1412 Q111 1411 132 1387 L195 1314 Q210 1296 233 1293 Q238 1292 244 1292 Q261 1292 277 1302 Q358 1355 469 1355 L471 1355 Q582 1355 665 1303 Q681 1293 698 1293 Q704 1293 709 1294 Q731 1299 747 1316 L809 1388 Q830 1412 861 1412 L864 1412 Q894 1412 914 1391 L918 1386 Q938 1364 938 1338 L938 1335 Q937 1305 915 1285 L830 1204 Q808 1184 808 1160 Q808 1146 816 1130 Q864 1032 864 920 Q864 794 814 702 Q804 685 804 669 Q804 647 824 627 L909 541 Z " />
<glyph glyph-name="yen" unicode="&#xa5;" horiz-adv-x="963" d="M874 1363 Q918 1363 941 1324 Q952 1305 952 1285 Q952 1266 941 1247 L660 758 L861 758 Q885 758 900 743 Q917 726 917 703 Q917 681 900 664 Q884 647 861 647 L665 647 Q638 647 618 628 Q598 608 598 581 L598 538 Q598 511 618 491 Q638 471 665 471 L861 471 Q884 471 900 455 Q917 438 917 416 Q917 393 900 377 Q884 360 861 360 L665 360 Q638 360 618 341 Q598 321 598 293 L598 97 Q598 65 576 43 Q554 20 521 20 L426 20 Q394 20 371 43 Q348 65 348 97 L348 293 Q348 321 329 341 Q309 360 282 360 L88 360 Q65 360 48 377 Q32 393 32 416 Q32 439 48 455 Q65 471 88 471 L282 471 Q309 471 329 491 Q348 511 348 538 L348 581 Q348 608 329 628 Q309 647 282 647 L88 647 Q65 647 48 664 Q32 680 32 703 Q32 726 48 743 Q65 758 88 758 L290 758 L22 1248 Q11 1267 11 1286 Q11 1306 23 1325 Q45 1363 89 1363 L191 1363 Q214 1363 233 1349 Q253 1336 263 1315 L380 1034 Q401 982 425 916 L435 887 L445 860 L468 791 L501 791 Q513 825 525 858 L536 886 L546 916 Q572 988 592 1036 L710 1315 Q720 1337 739 1349 Q759 1363 782 1363 L874 1363 Z " />
<glyph glyph-name="brokenbar" unicode="&#xa6;" horiz-adv-x="175" d="M175 1700 L175 875 Q175 869 160 862 Q136 851 102 851 L73 851 Q39 851 15 862 Q0 869 0 875 L0 1700 L175 1700 Z M0 -301 L0 525 Q0 530 15 537 Q39 548 73 548 L102 548 Q136 548 160 537 Q175 530 175 525 L175 -301 L0 -301 Z " />
<glyph glyph-name="section" unicode="&#xa7;" horiz-adv-x="915" d="M199 891 Q199 778 389 708 Q422 696 481 675 L504 666 L525 659 Q548 650 565 644 Q586 637 605 637 Q636 637 664 655 Q712 686 713 743 L713 747 Q713 856 561 919 Q539 927 509 939 L482 949 L455 960 Q385 986 351 1000 Q330 1008 310 1008 Q286 1008 263 997 Q218 977 205 931 Q199 912 199 893 L199 891 Z M788 1474 Q780 1440 751 1423 Q732 1413 712 1413 Q701 1413 689 1416 Q607 1439 513 1439 Q422 1439 369 1408 Q313 1375 313 1317 Q313 1260 376 1219 Q425 1187 544 1149 Q731 1089 811 1022 Q915 937 915 795 Q915 686 836 603 Q809 576 806 538 Q805 532 805 526 Q805 496 822 470 Q858 409 858 340 Q858 176 713 90 Q595 20 428 20 Q260 20 137 71 Q109 82 95 110 Q87 126 87 143 Q87 154 91 166 L94 174 Q104 207 135 222 Q152 230 169 230 Q183 230 198 225 Q312 182 416 182 Q504 182 557 212 Q618 246 618 311 Q618 372 560 414 Q511 449 389 489 Q200 549 113 616 Q0 702 0 836 Q0 948 89 1030 Q118 1058 126 1097 Q128 1109 128 1120 Q128 1148 116 1173 Q88 1230 88 1289 Q88 1435 207 1518 Q322 1598 509 1598 Q634 1598 734 1569 Q765 1560 781 1533 Q792 1515 792 1496 Q792 1486 789 1476 L788 1474 Z " />
<glyph glyph-name="dieresis" unicode="&#xa8;" horiz-adv-x="671" d="M548 1162 Q498 1162 463 1200 Q428 1238 428 1293 Q428 1349 462 1386 Q498 1422 552 1422 Q602 1422 636 1386 Q671 1349 671 1293 Q671 1238 637 1199 Q602 1162 552 1162 L548 1162 Z M124 1162 Q72 1162 36 1200 Q0 1238 0 1293 Q0 1348 37 1386 Q73 1422 126 1422 Q175 1422 209 1386 Q244 1348 244 1293 Q244 1238 209 1199 Q175 1162 126 1162 L124 1162 Z " />
<glyph glyph-name="copyright" unicode="&#xa9;" horiz-adv-x="1240" d="M1162 659 Q1162 392 1002 206 Q926 118 828 70 Q727 20 615 20 Q503 20 400 70 Q300 118 224 206 Q62 392 62 659 Q62 924 224 1110 Q300 1197 400 1245 Q503 1295 615 1295 L617 1295 Q727 1295 828 1245 Q927 1197 1002 1110 Q1162 924 1162 659 Z M611 1214 Q417 1214 280 1050 Q145 888 145 657 Q145 426 280 264 Q417 101 613 101 L615 101 Q809 101 944 263 Q1079 426 1079 657 Q1079 888 944 1050 Q808 1214 613 1214 L611 1214 Z M833 940 Q829 925 816 918 Q807 913 798 913 Q792 913 787 915 Q722 937 659 937 Q543 937 476 860 Q409 785 409 653 Q409 529 476 449 Q546 367 657 367 Q731 367 794 390 Q800 393 807 393 Q815 393 823 388 Q838 381 841 368 L841 366 Q843 360 843 354 Q843 347 840 341 Q835 329 825 324 Q747 282 641 282 Q491 282 403 386 Q319 486 319 647 Q319 816 422 922 Q519 1022 659 1022 Q748 1022 816 991 Q827 986 833 974 Q837 967 837 959 Q837 954 836 950 L833 940 Z " />
<glyph glyph-name="ordfeminine" unicode="&#xaa;" horiz-adv-x="526" d="M376 1083 L361 1083 Q267 1083 217 1059 Q152 1026 152 961 Q152 917 181 887 Q210 858 253 858 Q288 858 321 879 Q353 902 364 933 Q371 947 374 964 Q376 975 376 988 L376 1083 Z M389 834 L356 834 Q283 753 186 753 L179 753 Q98 753 48 808 Q0 860 0 941 Q0 1051 92 1109 Q183 1169 370 1169 L370 1203 Q370 1217 365 1231 Q359 1249 345 1264 Q309 1304 235 1304 Q179 1304 124 1285 Q115 1281 106 1281 Q95 1281 84 1287 Q64 1298 58 1318 Q57 1324 57 1330 Q57 1342 62 1354 Q70 1370 87 1378 Q172 1415 272 1415 Q404 1415 469 1333 Q526 1261 526 1137 L526 910 Q526 842 525 812 Q525 790 510 772 Q495 754 476 754 L440 753 L438 753 Q419 753 405 771 Q389 790 389 813 L389 834 Z " />
<glyph glyph-name="guillemotleft" unicode="&#xab;" horiz-adv-x="742" d="M183 751 Q172 733 172 714 Q172 696 183 678 L327 439 Q338 421 338 402 Q338 385 328 367 Q307 330 265 330 Q224 330 203 366 L23 675 Q12 695 12 714 Q12 734 23 754 L203 1065 Q224 1101 285 1101 Q307 1101 328 1064 Q339 1046 339 1028 Q339 1010 328 992 L183 751 Z M720 439 Q732 420 732 401 Q732 384 722 367 Q700 330 659 330 Q617 330 596 366 L416 675 Q405 695 405 714 Q405 734 416 754 L596 1065 Q617 1101 679 1101 Q700 1101 722 1064 Q732 1047 732 1030 Q732 1011 720 992 L577 751 Q566 733 566 714 Q566 696 577 678 L720 439 Z " />
<glyph glyph-name="logicalnot" unicode="&#xac;" horiz-adv-x="920" d="M920 1032 L920 470 Q920 441 899 420 Q879 400 849 400 Q820 400 800 420 Q779 441 779 470 L779 874 L70 874 Q41 874 21 894 Q0 915 0 944 L0 961 Q0 990 21 1011 Q42 1032 70 1032 L920 1032 Z " />
<glyph glyph-name="registered" unicode="&#xae;" horiz-adv-x="620" d="M252 749 Q252 711 289 711 L300 711 Q376 711 376 772 Q376 834 302 834 L287 833 Q252 831 252 796 L252 749 Z M224 560 Q212 560 205 567 Q197 575 197 586 L197 856 L195 856 L202 857 Q215 860 230 862 Q270 867 309 867 Q385 867 416 843 Q440 826 440 786 Q440 770 426 754 Q412 738 387 729 Q373 722 373 708 Q373 694 387 687 Q422 674 433 618 Q435 604 437 591 Q438 587 438 584 Q438 576 433 570 Q425 560 412 560 L404 560 Q383 560 378 579 Q377 585 375 597 L370 616 Q359 681 300 681 L250 681 L250 586 Q250 575 243 567 Q235 560 224 560 Z M308 1007 Q200 1007 128 918 Q59 833 59 710 Q59 588 130 503 Q203 416 311 416 L316 416 Q422 416 493 503 Q564 589 564 712 Q564 833 492 919 Q419 1007 309 1007 L308 1007 Z M313 1058 Q441 1058 531 958 Q620 856 620 712 Q620 566 531 464 Q441 364 311 364 Q182 364 92 464 Q0 567 0 712 Q0 856 92 958 Q182 1058 311 1058 L313 1058 Z " />
<glyph glyph-name="macron" unicode="&#xaf;" horiz-adv-x="467" d="M467 1319 Q467 1301 455 1288 Q442 1276 424 1276 L43 1276 Q25 1276 12 1288 Q0 1301 0 1319 L0 1372 Q0 1389 12 1402 Q25 1415 43 1415 L424 1415 Q442 1415 455 1402 Q467 1389 467 1372 L467 1319 Z " />
<glyph glyph-name="degree" unicode="&#xb0;" horiz-adv-x="424" d="M213 1369 Q265 1369 297 1407 Q326 1441 326 1492 Q326 1541 298 1576 Q267 1616 213 1616 L211 1616 Q159 1616 129 1575 Q102 1541 102 1490 Q102 1443 131 1408 Q164 1369 213 1369 Z M217 1682 Q316 1682 371 1627 Q424 1576 424 1492 Q424 1410 368 1358 Q311 1303 215 1303 Q116 1303 56 1358 Q0 1409 0 1490 Q0 1573 55 1626 Q113 1682 215 1682 L217 1682 Z " />
<glyph glyph-name="plusminus" unicode="&#xb1;" horiz-adv-x="1005" d="M940 1014 Q966 1014 986 993 Q1005 973 1005 944 L1005 923 Q1005 894 987 874 Q967 854 940 854 L582 854 L582 455 Q582 426 563 406 Q543 386 517 386 L488 386 Q462 386 444 406 Q424 426 424 455 L424 854 L65 854 Q39 854 19 874 Q0 894 0 923 L0 944 Q0 973 20 993 Q39 1014 65 1014 L424 1014 L424 1408 Q424 1437 444 1457 Q462 1477 488 1477 L517 1477 Q543 1477 563 1457 Q582 1437 582 1408 L582 1014 L940 1014 Z M852 180 Q883 180 906 158 Q929 135 929 103 L929 97 Q929 65 906 43 Q883 20 852 20 L154 20 Q122 20 99 43 Q77 65 77 97 L77 103 Q77 135 99 158 Q122 180 154 180 L852 180 Z " />
<glyph glyph-name="acute" unicode="&#xb4;" horiz-adv-x="275" d="M91 1375 Q111 1413 154 1413 L188 1413 Q234 1413 254 1369 Q263 1351 263 1334 Q263 1309 245 1286 L148 1158 Q126 1130 91 1130 L85 1130 Q43 1130 22 1169 Q11 1188 11 1207 Q11 1227 22 1246 L91 1375 Z " />
<glyph glyph-name="mu" unicode="&#xb5;" horiz-adv-x="977" d="M630 184 Q599 113 544 73 Q479 26 398 26 Q319 26 238 123 L238 -21 Q238 -156 246 -274 L246 -282 Q246 -320 219 -348 Q189 -380 147 -380 L108 -380 Q71 -380 41 -354 Q13 -328 10 -290 Q0 -183 0 -23 L0 942 Q0 984 29 1013 Q58 1042 99 1042 L169 1042 Q211 1042 239 1013 Q268 984 268 942 L268 481 Q268 237 438 237 Q500 237 552 278 Q598 315 616 364 Q629 392 629 442 L629 942 Q629 984 658 1013 Q686 1042 728 1042 L798 1042 Q839 1042 868 1013 Q897 984 897 942 L897 360 Q897 270 936 239 Q974 210 974 160 L974 153 L970 109 Q968 70 939 44 Q911 18 873 18 L872 18 Q711 18 664 184 L630 184 Z " />
<glyph glyph-name="paragraph" unicode="&#xb6;" horiz-adv-x="852" d="M356 650 Q356 682 324 682 Q282 682 230 703 Q172 728 126 773 Q6 884 4 1059 L4 1072 Q4 1259 112 1371 Q258 1522 581 1522 Q696 1522 782 1512 Q812 1510 832 1488 Q852 1465 852 1436 L852 97 Q852 65 829 43 Q806 20 775 20 Q742 20 719 43 Q697 65 697 97 L697 1294 Q697 1322 677 1342 Q657 1362 628 1362 Q580 1362 546 1328 Q511 1293 511 1245 L511 97 Q511 65 488 43 Q466 20 434 20 Q401 20 379 43 Q356 65 356 97 L356 650 Z " />
<glyph glyph-name="&amp;#xb7;" unicode="&#xb7;" horiz-adv-x="242" d="M122 -73 Q71 -73 36 -35 Q0 3 0 56 Q0 113 35 150 Q71 187 124 187 Q174 187 207 150 Q242 113 242 56 Q242 3 207 -36 Q173 -73 124 -73 L122 -73 Z " />
<glyph glyph-name="&amp;#x2219;" unicode="&#x2219;" horiz-adv-x="242" d="M122 -73 Q71 -73 36 -35 Q0 3 0 56 Q0 113 35 150 Q71 187 124 187 Q174 187 207 150 Q242 113 242 56 Q242 3 207 -36 Q173 -73 124 -73 L122 -73 Z " />
<glyph glyph-name="cedilla" unicode="&#xb8;" horiz-adv-x="358" d="M200 -90 Q283 -101 319 -137 Q358 -175 358 -229 Q358 -315 292 -356 Q232 -394 131 -394 Q78 -394 32 -380 Q16 -374 8 -357 Q3 -348 3 -337 Q3 -330 6 -321 Q11 -308 27 -300 Q37 -294 48 -294 Q54 -294 60 -296 Q93 -307 120 -307 Q156 -307 179 -291 Q212 -270 212 -231 Q212 -149 64 -136 L121 -16 Q133 8 160 8 L181 8 Q206 8 218 -12 Q225 -23 225 -35 Q225 -45 219 -55 L200 -90 Z " />
<glyph glyph-name="guillemotright" unicode="&#xbb;" horiz-adv-x="742" d="M22 992 Q11 1010 11 1029 Q11 1046 21 1064 Q42 1101 83 1101 Q125 1101 146 1065 L325 756 Q337 736 337 716 Q337 697 325 677 L146 366 Q125 330 103 330 Q41 330 20 366 Q10 384 10 402 Q10 421 21 439 L166 680 Q177 698 177 717 Q177 735 166 754 L22 992 Z M415 992 Q404 1010 404 1029 Q404 1046 414 1064 Q435 1101 477 1101 Q518 1101 539 1065 L719 756 Q731 736 731 716 Q731 697 719 677 L539 366 Q518 330 477 330 L476 330 Q434 330 413 366 Q403 384 403 401 Q403 420 415 439 L559 680 Q570 698 570 717 Q570 735 559 754 L415 992 Z " />
<glyph glyph-name="questiondown" unicode="&#xbf;" horiz-adv-x="674" d="M399 1421 Q469 1421 513 1373 Q558 1325 558 1248 Q558 1170 514 1123 Q470 1074 398 1074 Q325 1074 281 1123 Q237 1170 237 1248 Q237 1325 282 1373 Q326 1421 398 1421 L399 1421 Z M470 934 Q485 934 497 923 Q508 913 510 897 L510 881 Q510 723 394 580 Q333 504 310 462 Q272 398 272 344 Q272 278 315 240 Q358 200 438 199 Q496 199 555 218 Q567 221 578 221 Q597 221 616 212 Q645 196 654 165 L666 124 Q669 113 669 102 Q669 84 661 67 Q648 41 620 30 Q502 -17 369 -17 Q188 -17 89 77 Q0 161 0 293 Q0 395 55 489 Q77 526 111 568 Q123 585 140 605 L155 622 L169 640 Q278 766 278 908 L278 916 Q278 924 283 929 Q288 934 296 934 L470 934 Z " />
<glyph glyph-name="AE" unicode="&#xc6;" horiz-adv-x="1606" d="M718 631 Q741 631 754 648 Q767 661 767 679 L767 686 L730 1000 L727 1024 L724 1050 L717 1101 Q710 1161 706 1201 Q706 1226 665 1226 Q623 1094 590 1002 L475 697 Q471 688 471 679 Q471 665 481 652 Q496 631 521 631 L718 631 Z M1519 246 Q1551 246 1574 223 Q1596 201 1596 169 L1596 97 Q1596 65 1574 43 Q1551 20 1519 20 L919 20 Q891 20 868 40 Q847 59 843 88 L811 352 Q807 379 787 394 Q767 411 742 411 L419 411 Q372 411 355 367 L242 70 Q234 47 215 35 Q195 20 170 20 L64 20 Q23 20 0 54 Q-14 75 -14 97 Q-14 111 -8 126 L496 1366 Q504 1388 524 1400 Q543 1414 567 1414 L1444 1414 Q1476 1414 1499 1391 Q1521 1369 1521 1336 L1521 1265 Q1521 1233 1499 1210 Q1476 1188 1444 1188 L1023 1188 Q998 1188 981 1169 Q966 1154 966 1134 Q966 1129 967 1123 L992 894 Q995 874 1011 858 Q1028 844 1050 844 L1436 844 Q1468 844 1491 821 Q1513 798 1513 767 L1513 697 Q1513 665 1491 643 Q1468 620 1436 620 L1099 620 Q1073 620 1056 600 Q1042 583 1042 562 L1042 555 L1075 296 Q1078 275 1095 260 Q1110 246 1132 246 L1519 246 Z " />
<glyph glyph-name="Ccedilla" unicode="&#xc7;" horiz-adv-x="1010" d="M465 49 Q303 96 195 218 Q28 406 28 717 Q28 1064 229 1267 Q418 1458 716 1458 Q843 1458 946 1429 Q973 1420 988 1393 Q998 1374 998 1353 Q998 1343 996 1333 L980 1263 Q972 1232 948 1216 Q931 1205 913 1205 Q905 1205 896 1207 Q817 1230 729 1230 Q537 1230 420 1107 Q296 974 296 736 Q296 512 410 381 Q528 248 731 248 Q809 248 893 267 Q901 269 909 269 Q928 269 944 257 Q969 239 974 205 L986 142 Q987 134 987 126 Q987 104 976 84 Q961 58 935 51 Q825 20 687 20 Q625 20 568 28 Q568 18 562 8 L543 -27 Q626 -38 662 -74 Q701 -112 701 -166 Q701 -252 635 -293 Q575 -331 474 -331 Q421 -331 375 -317 Q359 -311 351 -294 Q346 -285 346 -274 Q346 -267 349 -258 Q354 -245 370 -237 Q380 -231 391 -231 Q397 -231 403 -233 Q436 -244 463 -244 Q499 -244 522 -228 Q555 -207 555 -168 Q555 -86 407 -73 L464 47 Q465 48 465 49 Z " />
<glyph glyph-name="Eth" unicode="&#xd0;" horiz-adv-x="1179" d="M338 697 L338 304 Q338 277 353 258 Q371 236 396 234 Q408 233 424 233 L457 233 Q650 233 757 362 Q859 482 870 697 L338 697 Z M872 763 Q871 984 768 1107 Q664 1230 479 1230 Q430 1230 391 1225 Q368 1222 352 1201 Q338 1181 338 1156 L338 763 L872 763 Z M923 1291 Q1116 1117 1116 766 Q1116 394 926 199 Q747 20 393 20 Q269 20 165 31 Q143 34 127 55 Q109 78 109 110 L109 1343 Q109 1374 126 1397 Q141 1418 165 1421 Q294 1439 451 1439 Q615 1439 729 1403 Q839 1367 923 1291 Z " />
<glyph glyph-name="multiply" unicode="&#xd7;" horiz-adv-x="935" d="M914 150 Q935 128 935 98 Q935 68 915 46 L913 44 Q890 20 857 20 Q824 20 801 45 L468 401 L134 45 Q111 20 78 20 Q45 20 22 44 L20 46 Q0 68 0 98 Q0 128 21 150 L361 515 L21 882 Q0 904 0 934 Q0 964 21 986 Q43 1010 77 1010 Q109 1010 132 985 L468 626 L804 985 Q826 1010 859 1010 Q892 1010 914 986 Q935 964 935 934 Q935 904 914 882 L575 515 L914 150 Z " />
<glyph glyph-name="Oslash" unicode="&#xd8;" horiz-adv-x="1282" d="M377 67 Q266 118 183 223 Q28 421 28 729 Q28 1049 194 1253 Q361 1461 631 1461 Q704 1461 769 1446 Q775 1456 785 1464 Q804 1479 829 1479 L838 1479 Q875 1479 897 1448 Q912 1427 912 1402 Q912 1397 911 1391 Q999 1341 1067 1254 Q1219 1058 1219 755 Q1219 413 1050 215 Q885 20 610 20 Q567 20 528 25 Q520 6 504 -7 Q484 -23 460 -23 L450 -23 Q413 -23 391 8 Q376 29 376 54 Q376 60 377 67 Z M840 1134 L589 240 Q606 238 625 238 Q780 238 869 386 Q953 524 953 745 Q953 953 870 1090 Q856 1114 840 1134 Z M443 305 L704 1231 Q666 1243 623 1243 Q469 1243 378 1094 Q294 957 294 736 Q294 516 380 380 Q408 336 443 305 Z " />
<glyph glyph-name="Thorn" unicode="&#xde;" horiz-adv-x="1069" d="M758 551 Q758 680 706 764 Q649 856 552 856 Q492 856 444 820 Q396 785 371 724 Q363 703 357 679 Q352 651 352 629 L352 457 Q352 413 371 363 Q396 301 444 266 Q493 231 552 231 Q649 231 706 322 Q758 406 758 536 L758 551 Z M1004 555 L1004 531 Q1004 291 892 146 Q843 82 779 49 Q719 18 655 18 L647 18 Q475 18 386 168 L352 168 L352 -73 Q352 -116 321 -146 Q292 -176 249 -176 L212 -176 Q169 -176 139 -146 Q109 -116 109 -73 L109 1159 Q109 1202 139 1232 Q169 1262 212 1262 L249 1262 Q292 1262 321 1232 Q352 1202 352 1159 L352 918 L386 918 Q475 1069 647 1069 L655 1069 Q719 1069 779 1038 Q843 1004 892 941 Q1004 795 1004 555 Z " />
<glyph glyph-name="germandbls" unicode="&#xdf;" horiz-adv-x="1120" d="M176 43 Q144 43 122 66 Q99 89 99 120 L99 940 Q99 1264 249 1409 Q377 1537 600 1537 Q780 1537 897 1435 Q1016 1332 1016 1163 Q1016 1144 1013 1123 Q1003 1032 929 976 Q851 917 851 840 Q851 769 928 687 L940 672 L954 657 Q968 639 979 625 Q1009 589 1029 555 Q1081 467 1081 366 Q1081 209 980 117 Q877 20 693 20 Q632 20 575 29 Q542 34 523 60 Q510 80 510 102 Q510 110 511 118 L518 162 Q523 193 547 211 Q568 227 593 227 Q598 227 603 226 Q628 222 654 222 Q725 222 768 259 Q810 294 810 351 Q810 394 790 433 Q774 465 732 511 L720 525 L707 540 Q691 556 680 569 Q651 604 632 635 Q581 715 581 800 Q581 938 700 1024 Q760 1067 760 1139 L760 1140 Q760 1222 712 1274 Q662 1330 582 1330 Q367 1330 367 968 L367 120 Q367 89 344 66 Q322 43 290 43 L176 43 Z " />
<glyph glyph-name="ae" unicode="&#xe6;" horiz-adv-x="1481" d="M833 61 Q829 55 824 50 Q802 28 770 27 L689 25 Q658 25 634 50 Q613 72 613 103 L613 133 L576 133 Q526 67 458 35 Q393 5 321 5 L312 5 Q178 9 97 98 Q19 183 19 304 Q19 488 161 586 Q300 681 551 682 Q585 682 585 717 Q585 779 546 819 Q497 871 390 871 Q301 871 210 838 Q196 833 183 833 Q166 833 150 841 Q121 858 112 891 L109 904 Q106 915 106 927 Q106 945 114 962 Q127 990 155 1000 Q287 1052 443 1052 Q632 1052 733 954 Q852 1065 1032 1065 Q1239 1065 1348 911 Q1442 776 1442 566 Q1442 551 1441 533 Q1439 502 1418 480 Q1397 458 1368 458 L896 458 Q865 458 846 437 L846 332 Q880 281 944 252 Q1013 220 1103 220 Q1198 220 1281 238 Q1289 240 1296 240 Q1318 240 1337 226 Q1363 208 1368 176 L1373 145 Q1375 136 1375 128 Q1375 106 1364 87 Q1348 62 1320 53 Q1202 20 1060 20 Q931 20 833 61 Z M834 759 Q843 711 845 656 Q864 639 890 639 L1129 639 Q1163 639 1183 667 Q1199 686 1199 709 Q1199 717 1197 726 Q1184 794 1145 837 Q1095 890 1014 890 Q940 890 888 840 Q854 808 834 759 Z M590 338 Q568 414 565 506 Q547 519 525 519 L522 519 Q399 513 320 471 Q221 420 221 330 Q221 262 291 223 Q347 193 413 193 Q474 193 523 232 Q570 269 589 329 L589 330 Q590 334 590 338 Z " />
<glyph glyph-name="ccedilla" unicode="&#xe7;" horiz-adv-x="785" d="M337 48 Q236 82 163 157 Q30 295 30 532 Q30 762 166 909 Q312 1065 562 1065 Q629 1065 696 1051 Q726 1045 743 1018 Q755 999 755 977 Q755 968 753 959 L744 911 Q738 881 713 862 Q695 849 674 849 Q668 849 661 850 Q622 856 576 856 Q450 856 372 767 Q297 681 297 549 L297 545 Q297 398 381 313 Q459 233 582 233 Q627 233 666 239 Q673 240 679 240 Q701 240 720 226 Q745 207 750 174 L757 127 Q758 121 758 116 Q758 92 744 71 Q727 45 699 39 Q616 20 521 20 Q478 20 439 25 Q439 15 433 5 L414 -30 Q497 -41 533 -77 Q572 -115 572 -169 Q572 -255 506 -296 Q446 -334 345 -334 Q292 -334 246 -320 Q230 -314 222 -297 Q217 -288 217 -277 Q217 -270 220 -261 Q225 -248 241 -240 Q251 -234 262 -234 Q268 -234 274 -236 Q307 -247 334 -247 Q370 -247 393 -231 Q426 -210 426 -171 Q426 -89 278 -76 L335 44 Q336 46 337 48 Z " />
<glyph glyph-name="eth" unicode="&#xf0;" horiz-adv-x="1058" d="M529 210 Q633 210 690 305 Q742 390 742 535 Q742 701 690 769 Q631 847 531 847 Q416 847 356 734 Q311 648 311 527 Q311 394 365 308 Q424 210 527 210 L529 210 Z M938 951 Q1019 788 1019 567 Q1019 300 865 151 Q730 20 525 20 Q312 20 176 156 Q35 296 35 524 Q35 737 168 871 Q295 999 484 1003 L494 1003 Q563 1003 632 952 L654 989 Q578 1095 491 1163 Q471 1178 450 1178 Q435 1178 419 1171 L220 1081 Q206 1075 194 1075 Q168 1075 155 1106 L154 1108 Q149 1121 149 1132 Q149 1157 178 1171 L243 1201 Q283 1220 284 1264 L284 1266 Q284 1309 246 1329 L244 1330 Q213 1346 205 1380 Q203 1389 203 1398 Q203 1422 218 1443 L236 1468 Q261 1501 294 1501 Q311 1501 330 1493 Q443 1442 549 1373 Q568 1361 587 1361 Q602 1361 617 1368 L809 1454 Q822 1460 834 1460 Q859 1460 873 1431 Q880 1416 880 1404 Q880 1379 850 1365 L773 1330 Q738 1313 732 1277 Q731 1269 731 1262 Q731 1235 752 1214 Q867 1099 938 951 Z " />
<glyph glyph-name="divide" unicode="&#xf7;" horiz-adv-x="920" d="M458 767 Q407 767 376 803 Q344 841 344 904 Q344 968 377 1006 Q408 1041 460 1041 Q512 1041 543 1006 Q574 969 575 904 Q575 841 543 803 Q512 767 460 767 L458 767 Z M840 609 Q874 609 896 587 Q920 564 920 531 Q920 498 896 475 Q874 452 840 452 L79 452 Q46 452 23 475 Q0 498 0 531 Q0 564 23 587 Q46 609 79 609 L840 609 Z M460 295 Q512 295 543 259 Q574 222 575 158 Q575 94 543 56 Q512 20 460 20 L458 20 Q407 20 376 56 Q344 94 344 158 Q344 221 377 259 Q408 295 460 295 Z " />
<glyph glyph-name="oslash" unicode="&#xf8;" horiz-adv-x="1045" d="M299 61 Q246 87 199 127 Q48 259 39 498 Q38 512 38 526 Q38 751 179 893 Q314 1029 514 1038 Q530 1039 545 1039 Q560 1039 574 1038 L626 1224 Q633 1248 653 1264 Q672 1279 697 1279 L706 1279 Q743 1279 765 1248 Q780 1227 780 1202 Q780 1191 777 1179 L727 1003 Q795 975 852 924 Q1006 786 1006 540 Q1006 302 858 157 Q724 26 531 17 Q517 16 504 16 Q477 16 451 19 L398 -168 Q391 -192 372 -207 Q352 -223 328 -223 L318 -223 Q281 -223 259 -192 Q244 -171 244 -146 Q244 -135 247 -123 L299 61 Z M667 789 L501 199 Q504 198 506 198 Q516 197 525 197 Q619 197 677 287 Q725 364 734 477 Q737 507 737 536 Q737 623 714 696 Q696 752 667 789 Z M364 292 L525 863 L513 863 Q420 863 363 762 Q308 664 308 529 Q308 410 347 324 Q355 307 364 292 Z " />
<glyph glyph-name="thorn" unicode="&#xfe;" horiz-adv-x="1033" d="M342 449 Q342 424 349 393 Q358 358 371 340 Q393 291 437 260 Q482 230 535 230 Q634 230 692 319 Q748 406 748 549 Q748 679 696 763 Q639 854 542 854 Q483 854 434 819 Q386 784 361 723 Q353 702 347 677 Q342 649 342 629 L342 449 Z M342 917 L376 917 Q465 1068 637 1068 L641 1068 Q707 1068 769 1037 Q833 1003 882 939 Q994 794 994 554 Q994 293 866 146 Q756 21 605 21 Q530 21 470 53 Q416 81 376 142 L342 142 L342 -300 Q342 -332 319 -354 Q296 -377 265 -377 L176 -377 Q144 -377 122 -354 Q99 -332 99 -300 L99 1364 Q99 1397 122 1420 Q144 1442 176 1442 L265 1442 Q296 1442 319 1420 Q342 1397 342 1364 L342 917 Z " />
<glyph glyph-name="Aogonek" unicode="&#x104;" horiz-adv-x="1107" d="M619 590 Q654 590 673 619 Q688 637 688 660 Q688 670 685 680 L621 920 Q607 970 590 1044 Q584 1070 577 1107 L569 1139 L560 1181 Q544 1185 527 1185 Q519 1185 510 1184 Q502 1145 494 1107 L481 1042 Q465 965 454 920 L393 679 Q390 669 390 660 Q390 638 405 618 Q425 590 459 590 L619 590 Z M831 59 Q827 65 825 73 L754 336 Q740 388 688 388 L391 388 Q339 388 325 335 L260 75 Q253 50 235 35 Q218 20 196 20 L77 20 Q43 20 23 51 Q8 74 8 99 Q8 110 11 122 L354 1359 Q361 1384 380 1400 Q397 1414 419 1414 L673 1414 Q695 1414 713 1400 Q731 1384 738 1359 L1086 122 Q1089 110 1089 99 Q1089 74 1074 51 Q1054 20 1020 20 L929 20 Q929 14 927 8 Q913 -34 913 -70 Q913 -127 946 -164 Q982 -203 1040 -203 Q1061 -203 1080 -200 Q1084 -199 1088 -199 Q1101 -199 1111 -206 Q1124 -215 1129 -231 L1142 -277 Q1144 -284 1144 -291 Q1144 -299 1141 -306 Q1134 -321 1120 -328 Q1049 -363 967 -363 Q868 -363 815 -312 Q760 -260 760 -158 Q760 -107 779 -48 Q794 -2 817 43 Q822 53 831 59 Z " />
<glyph glyph-name="aogonek" unicode="&#x105;" horiz-adv-x="933" d="M594 448 Q594 478 574 499 Q553 519 525 519 L522 519 Q399 513 320 471 Q221 420 221 330 Q221 262 291 223 Q347 193 413 193 Q474 193 523 232 Q570 269 589 329 L589 330 Q594 356 594 388 L594 448 Z M621 68 Q613 84 613 104 L613 133 L576 133 Q526 67 458 35 Q393 5 321 5 L312 5 Q178 9 97 98 Q19 183 19 304 Q19 488 161 586 Q300 681 551 682 Q585 682 585 717 Q585 779 546 819 Q497 871 390 871 Q301 871 210 838 Q196 833 183 833 Q166 833 150 841 Q121 858 112 891 L109 904 Q106 915 106 927 Q106 945 114 962 Q127 990 155 1000 Q287 1052 443 1052 Q658 1052 759 926 Q846 819 846 624 L846 106 Q845 73 824 50 Q802 28 770 27 L713 26 Q713 20 711 14 Q697 -28 697 -64 Q697 -121 730 -158 Q766 -197 824 -197 Q845 -197 864 -194 Q868 -193 872 -193 Q885 -193 895 -200 Q908 -209 913 -225 L926 -271 Q928 -278 928 -285 Q928 -293 925 -300 Q918 -315 904 -322 Q833 -357 751 -357 Q652 -357 599 -306 Q544 -254 544 -152 Q544 -101 563 -42 Q578 4 601 49 Q608 63 621 68 Z " />
<glyph glyph-name="Dcroat" unicode="&#x110;" horiz-adv-x="1218" d="M148 789 L148 1343 Q148 1374 165 1397 Q180 1418 204 1421 Q333 1439 490 1439 Q654 1439 768 1403 Q878 1367 962 1291 Q1155 1117 1155 766 Q1155 394 965 199 Q786 20 432 20 Q308 20 204 31 Q182 34 166 55 Q148 78 148 110 L148 660 L15 660 Q17 660 17 663 Q17 666 16 670 Q9 694 9 725 Q9 757 16 779 Q17 783 17 786 Q17 789 15 789 L148 789 Z M377 789 L492 789 Q490 789 490 786 Q490 783 491 779 Q498 757 498 725 Q498 694 491 670 Q490 666 490 663 Q490 660 492 660 L377 660 L377 304 Q377 277 392 258 Q410 236 435 234 Q447 233 463 233 L496 233 Q689 233 796 362 Q911 498 911 755 L911 759 Q911 983 807 1107 Q703 1230 518 1230 Q469 1230 430 1225 Q407 1222 391 1201 Q377 1181 377 1156 L377 789 Z " />
<glyph glyph-name="dcroat" unicode="&#x111;" horiz-adv-x="1079" d="M726 596 Q726 629 720 659 Q703 736 647 785 Q593 835 524 835 Q412 835 351 742 Q297 659 297 526 Q297 381 357 297 Q417 213 524 213 Q596 213 650 261 Q703 308 719 381 Q726 409 726 443 L726 596 Z M726 1223 L726 1412 Q726 1445 748 1468 Q769 1491 800 1491 L911 1491 Q941 1491 962 1468 Q985 1445 985 1412 L985 1223 Q1072 1223 1072 1222 Q1072 1221 1073 1219 Q1079 1207 1079 1190 Q1079 1173 1073 1160 Q1072 1159 1072 1158 Q1072 1157 985 1157 L985 311 Q985 261 983 200 L982 149 Q981 117 980 97 Q979 64 958 42 Q937 20 907 20 L840 20 Q809 20 788 44 Q766 67 766 100 L767 165 L731 165 Q637 -3 453 -3 Q283 -3 164 131 Q31 281 31 538 L31 542 Q31 769 139 909 Q244 1044 410 1044 Q503 1044 576 1006 Q644 971 691 897 L726 897 L726 1157 L596 1157 Q597 1157 597 1158 Q597 1159 596 1160 Q590 1173 590 1190 Q590 1207 596 1219 Q597 1221 597 1222 Q597 1223 596 1223 L726 1223 Z " />
<glyph glyph-name="Eogonek" unicode="&#x118;" horiz-adv-x="949" d="M557 20 L178 20 Q151 20 130 43 Q109 65 109 99 L109 1335 Q109 1368 130 1392 Q151 1414 178 1414 L800 1414 Q828 1414 848 1392 Q869 1368 869 1335 L869 1266 Q869 1233 848 1209 Q828 1188 800 1188 L430 1188 Q402 1188 382 1167 Q363 1146 363 1116 L363 922 Q363 892 382 871 Q402 850 430 850 L772 850 Q799 850 820 828 Q840 805 840 771 L840 705 Q840 671 820 648 Q799 626 772 626 L430 626 Q402 626 382 605 Q363 584 363 554 L363 318 Q363 288 382 267 Q402 246 430 246 L827 246 Q855 246 875 224 Q896 200 896 167 L896 99 Q896 65 875 42 Q855 20 827 20 L678 20 L678 16 Q678 10 676 4 Q662 -38 662 -74 Q662 -131 695 -168 Q731 -207 789 -207 Q810 -207 829 -204 Q833 -203 837 -203 Q850 -203 860 -210 Q873 -219 878 -235 L891 -281 Q893 -288 893 -295 Q893 -303 890 -310 Q883 -325 869 -332 Q798 -367 716 -367 Q617 -367 564 -316 Q509 -264 509 -162 Q509 -111 528 -52 Q540 -16 557 20 Z " />
<glyph glyph-name="eogonek" unicode="&#x119;" horiz-adv-x="958" d="M594 639 Q628 639 648 667 Q664 686 664 709 Q664 717 662 726 Q649 794 610 837 Q560 890 479 890 Q405 890 353 840 Q311 800 289 734 Q285 722 285 710 Q285 689 298 670 Q319 639 355 639 L594 639 Z M533 20 L525 20 Q290 20 158 157 Q30 292 30 530 Q30 743 144 894 Q273 1065 497 1065 Q704 1065 813 911 Q907 776 907 566 Q907 551 906 533 Q904 502 883 480 Q862 458 833 458 L361 458 Q322 458 301 423 Q290 405 290 387 Q290 370 299 353 Q332 287 409 252 Q478 220 568 220 Q663 220 746 238 Q754 240 761 240 Q783 240 802 226 Q828 208 833 176 L838 145 Q840 136 840 128 Q840 106 829 87 Q813 62 785 53 Q733 38 676 30 Q677 -26 709 -62 Q745 -101 803 -101 Q824 -101 843 -98 Q847 -97 851 -97 Q864 -97 874 -104 Q887 -113 892 -129 L905 -175 Q907 -182 907 -189 Q907 -197 904 -204 Q897 -219 883 -226 Q812 -261 730 -261 Q631 -261 578 -210 Q523 -158 523 -56 Q523 -20 533 20 Z " />
<glyph glyph-name="uni0122" unicode="&#x122;" horiz-adv-x="1220" d="M620 4 Q355 29 207 188 Q120 277 75 408 Q29 537 29 689 L29 695 Q31 1035 235 1234 Q431 1424 750 1424 Q900 1424 1021 1387 Q1048 1378 1062 1351 Q1073 1332 1073 1311 Q1073 1301 1070 1291 L1054 1222 Q1046 1190 1020 1174 Q1004 1163 987 1163 Q979 1163 970 1166 Q872 1196 747 1196 Q547 1196 426 1074 Q297 944 297 712 Q297 485 416 353 Q533 222 725 222 Q791 222 837 231 Q861 236 875 256 Q889 276 889 300 L889 513 Q889 542 871 562 Q851 583 824 583 L758 583 Q730 583 710 605 Q690 628 690 661 L690 718 Q690 751 710 774 Q730 796 758 796 L1063 796 Q1091 796 1111 774 Q1132 750 1132 718 L1132 133 Q1132 106 1118 85 Q1103 65 1081 58 Q999 33 914 18 Q819 1 734 0 Q733 -4 730 -9 L711 -44 Q794 -55 830 -91 Q869 -129 869 -183 Q869 -269 803 -310 Q743 -348 642 -348 Q589 -348 543 -334 Q527 -328 519 -311 Q514 -302 514 -291 Q514 -284 517 -275 Q522 -262 538 -254 Q548 -248 559 -248 Q565 -248 571 -250 Q604 -261 631 -261 Q667 -261 690 -245 Q723 -224 723 -185 Q723 -103 575 -90 L620 4 Z " />
<glyph glyph-name="uni0123" unicode="&#x123;" horiz-adv-x="1059" d="M699 561 Q699 599 691 626 Q674 698 628 739 Q579 784 511 784 Q417 784 356 699 Q294 611 294 468 Q294 341 348 260 Q408 172 511 172 Q575 172 624 214 Q671 254 688 317 Q694 335 696 362 Q699 383 699 408 L699 561 Z M889 965 Q919 965 940 942 Q961 919 961 888 L961 885 Q958 794 958 676 L958 96 Q958 -224 819 -358 Q685 -480 440 -480 Q295 -480 178 -437 Q151 -428 138 -401 Q129 -383 129 -364 Q129 -355 131 -345 L144 -292 Q152 -259 180 -243 Q197 -234 214 -234 Q226 -234 238 -238 Q335 -274 432 -274 Q553 -274 625 -202 Q703 -124 703 21 L703 87 Q703 109 680 109 Q671 109 662 101 Q577 -27 418 -27 Q249 -27 141 108 Q30 244 30 461 Q30 698 155 847 Q274 988 448 988 Q615 988 695 851 Q704 842 714 842 Q736 842 736 863 L738 893 Q741 924 763 945 Q783 965 812 965 L889 965 Z M629 1397 L635 1397 Q663 1397 677 1380 Q687 1370 687 1358 Q687 1353 685 1347 Q617 1203 539 1097 Q525 1078 497 1076 L482 1075 L476 1075 Q449 1075 433 1090 Q422 1100 422 1112 Q422 1118 424 1123 Q471 1245 499 1362 Q501 1373 514 1383 Q528 1392 547 1393 L629 1397 Z " />
<glyph glyph-name="hcircumflex" unicode="&#x125;" horiz-adv-x="1064" d="M659 1043 Q800 1043 883 940 Q976 826 976 608 L976 98 Q976 65 955 43 Q933 20 903 20 L789 20 Q760 20 738 43 Q716 65 716 98 L716 572 Q716 822 540 822 Q479 822 431 782 Q392 749 371 697 Q361 666 361 617 L361 98 Q361 65 339 43 Q317 20 288 20 L174 20 Q144 20 122 43 Q101 65 101 98 L101 1413 Q101 1445 122 1467 Q144 1490 174 1490 L288 1490 Q317 1490 339 1467 Q361 1445 361 1413 L361 920 Q361 897 383 897 Q393 897 401 905 Q444 966 513 1006 Q577 1043 659 1043 Z M461 1611 Q469 1599 469 1587 Q469 1577 463 1567 Q450 1545 425 1545 L375 1545 Q349 1545 338 1567 L248 1730 L220 1730 L130 1567 Q117 1545 92 1545 L42 1545 Q17 1545 4 1568 Q-2 1578 -2 1588 Q-2 1599 6 1611 L129 1808 Q142 1828 166 1828 L302 1828 Q326 1828 339 1807 L461 1611 Z " />
<glyph glyph-name="Hbar" unicode="&#x126;" horiz-adv-x="1262" d="M363 1148 L363 932 Q363 905 381 883 Q402 863 429 863 L821 863 Q847 863 868 883 Q886 905 886 932 L886 1148 L363 1148 Z M886 1214 L886 1337 Q886 1369 907 1392 Q927 1414 954 1414 L1071 1414 Q1099 1414 1118 1392 Q1139 1369 1139 1337 L1139 97 Q1139 65 1118 42 Q1099 20 1071 20 L954 20 Q927 20 907 42 Q886 65 886 97 L886 550 Q886 579 868 599 Q848 620 821 620 L429 620 Q401 620 381 599 Q363 579 363 550 L363 97 Q363 65 343 42 Q323 20 296 20 L177 20 Q149 20 130 42 Q109 65 109 97 L109 1337 Q109 1369 130 1392 Q149 1414 177 1414 L296 1414 Q323 1414 343 1392 Q363 1369 363 1337 L363 1214 L886 1214 Z " />
<glyph glyph-name="hbar" unicode="&#x127;" horiz-adv-x="1062" d="M359 1157 L359 920 Q359 897 381 897 Q391 897 399 905 Q442 966 511 1006 Q575 1043 657 1043 Q798 1043 881 940 Q974 826 974 608 L974 98 Q974 65 953 43 Q931 20 901 20 L787 20 Q758 20 736 43 Q714 65 714 98 L714 572 Q714 822 538 822 Q477 822 429 782 Q390 749 369 697 Q359 666 359 617 L359 98 Q359 65 337 43 Q315 20 286 20 L172 20 Q142 20 120 43 Q99 65 99 98 L99 1413 Q99 1445 120 1467 Q142 1490 172 1490 L286 1490 Q315 1490 337 1467 Q359 1445 359 1413 L359 1223 L878 1223 Q880 1223 883 1218 Q889 1207 889 1190 Q889 1174 883 1162 Q880 1157 878 1157 L359 1157 Z " />
<glyph glyph-name="Iogonek" unicode="&#x12e;" horiz-adv-x="544" d="M174 41 Q173 42 172 43 Q151 65 151 98 L151 1336 Q151 1368 173 1391 Q194 1414 225 1414 L334 1414 Q364 1414 385 1391 Q407 1368 407 1336 L407 98 Q407 65 385 43 Q364 20 334 20 L277 20 Q278 15 278 10 Q278 2 276 -5 Q262 -47 262 -83 Q262 -140 295 -177 Q331 -216 389 -216 Q410 -216 429 -213 Q433 -212 437 -212 Q450 -212 460 -219 Q473 -228 478 -244 L491 -290 Q493 -297 493 -304 Q493 -312 490 -319 Q483 -334 469 -341 Q398 -376 316 -376 Q217 -376 164 -325 Q109 -273 109 -171 Q109 -120 128 -61 Q143 -15 166 30 Q169 36 174 41 Z " />
<glyph glyph-name="iogonek" unicode="&#x12f;" horiz-adv-x="489" d="M218 1188 Q157 1188 118 1229 Q81 1268 81 1326 L81 1332 Q81 1394 117 1432 Q157 1473 219 1473 Q281 1473 319 1432 Q357 1393 359 1329 Q359 1269 321 1229 Q281 1188 218 1188 Z M112 42 L111 43 Q89 65 89 99 L89 942 Q89 974 112 998 Q132 1020 163 1020 L276 1020 Q306 1020 326 998 Q349 974 349 942 L349 99 Q349 65 327 43 Q305 20 276 20 L223 20 L223 16 Q223 10 221 4 Q207 -38 207 -74 Q207 -131 240 -168 Q276 -207 334 -207 Q355 -207 374 -204 Q378 -203 382 -203 Q395 -203 405 -210 Q418 -219 423 -235 L436 -281 Q438 -288 438 -295 Q438 -303 435 -310 Q428 -325 414 -332 Q343 -367 261 -367 Q162 -367 109 -316 Q54 -264 54 -162 Q54 -111 73 -52 Q88 -6 111 39 Q112 40 112 42 Z " />
<glyph glyph-name="dotlessi" unicode="&#x131;" horiz-adv-x="430" d="M269 1020 Q299 1020 319 998 Q342 974 342 942 L342 99 Q342 65 320 43 Q298 20 269 20 L156 20 Q126 20 104 43 Q82 65 82 99 L82 942 Q82 974 105 998 Q125 1020 156 1020 L269 1020 Z " />
<glyph glyph-name="Jcircumflex" unicode="&#x134;" horiz-adv-x="677" d="M505 1437 Q536 1437 557 1414 Q579 1391 579 1359 L579 551 Q579 265 460 137 Q354 20 138 20 Q81 20 18 31 Q-11 36 -30 62 Q-45 82 -45 107 Q-45 113 -44 119 L-36 187 Q-32 219 -7 238 Q13 255 36 255 Q41 255 46 254 Q77 250 107 250 Q217 250 270 317 Q327 389 327 555 L327 1359 Q327 1391 350 1414 Q371 1437 401 1437 L505 1437 Z M663 1610 Q671 1598 671 1586 Q671 1576 665 1566 Q652 1544 627 1544 L577 1544 Q551 1544 540 1566 L450 1729 L422 1729 L332 1566 Q319 1544 294 1544 L244 1544 Q219 1544 206 1567 Q200 1577 200 1587 Q200 1598 208 1610 L331 1807 Q344 1827 368 1827 L504 1827 Q528 1827 541 1806 L663 1610 Z " />
<glyph glyph-name="uni0136" unicode="&#x136;" horiz-adv-x="1086" d="M1097 103 Q1107 87 1107 69 Q1107 52 1097 34 Q1079 0 1044 0 L883 0 Q847 0 829 33 L551 558 Q535 585 505 588 L499 588 Q471 588 455 565 L382 471 Q370 455 370 434 L370 68 Q370 39 351 20 Q333 0 308 0 L171 0 Q146 0 128 20 Q109 39 109 68 L109 1326 Q109 1355 128 1374 Q146 1394 171 1394 L308 1394 Q333 1394 351 1374 Q370 1355 370 1326 L370 784 Q370 760 394 760 Q408 760 415 773 Q432 805 460 851 L483 889 L505 927 L785 1364 Q804 1394 836 1394 L998 1394 Q1036 1394 1054 1357 Q1061 1341 1061 1326 Q1061 1304 1047 1284 L697 804 L1097 103 Z M629 -29 L635 -29 Q663 -29 677 -46 Q687 -56 687 -68 Q687 -73 685 -79 Q617 -223 539 -329 Q525 -348 497 -350 L482 -351 L476 -351 Q449 -351 433 -336 Q422 -326 422 -314 Q422 -308 424 -303 Q471 -181 499 -64 Q501 -53 514 -43 Q528 -34 547 -33 L629 -29 Z " />
<glyph glyph-name="uni0137" unicode="&#x137;" horiz-adv-x="978" d="M943 121 Q957 100 957 78 Q957 60 947 41 Q927 0 883 0 L742 0 Q700 0 679 39 L509 353 Q490 385 455 389 L449 389 Q417 389 396 362 L373 331 Q359 313 359 288 L359 77 Q359 45 336 23 Q316 0 286 0 L172 0 Q142 0 120 23 Q99 45 99 77 L99 1393 Q99 1425 120 1448 Q142 1470 172 1470 L286 1470 Q316 1470 336 1448 Q359 1425 359 1393 L359 585 Q359 562 381 562 Q391 562 400 571 Q431 633 468 697 L636 965 Q658 1000 697 1000 L806 1000 Q852 1000 872 956 Q880 938 880 921 Q880 895 861 872 L638 600 L943 121 Z M543 -32 L549 -32 Q577 -32 591 -49 Q601 -59 601 -71 Q601 -76 599 -82 Q531 -226 453 -332 Q439 -351 411 -353 L396 -354 L390 -354 Q363 -354 347 -339 Q336 -329 336 -317 Q336 -311 338 -306 Q385 -184 413 -67 Q415 -56 428 -46 Q442 -37 461 -36 L543 -32 Z " />
<glyph glyph-name="kgreenlandic" unicode="&#x138;" horiz-adv-x="819" d="M783 86 Q789 76 789 65 Q789 53 782 41 Q771 20 749 20 L633 20 Q611 20 600 41 L399 419 Q386 441 362 443 Q358 444 355 444 Q335 444 321 424 L268 357 Q259 343 259 327 L259 63 Q259 45 246 33 Q235 20 220 20 L121 20 Q106 20 94 33 Q82 45 82 63 L82 969 Q82 987 94 999 Q106 1012 121 1012 L220 1012 Q235 1012 246 999 Q259 987 259 969 L259 579 Q259 556 281 556 Q291 556 300 565 Q314 591 334 624 L350 651 L366 679 L568 993 Q580 1012 600 1012 L716 1012 Q740 1012 751 989 Q756 978 756 968 Q756 954 747 942 L493 593 L783 86 Z " />
<glyph glyph-name="uni013B" unicode="&#x13b;" horiz-adv-x="901" d="M302 1414 Q331 1414 352 1391 Q374 1368 374 1335 L374 323 Q374 294 393 273 Q413 252 442 252 L836 252 Q866 252 886 230 Q908 206 908 174 L908 99 Q908 66 886 43 Q865 20 836 20 L181 20 Q152 20 131 43 Q109 66 109 99 L109 1335 Q109 1368 131 1391 Q152 1414 181 1414 L302 1414 Z M583 -76 L589 -76 Q617 -76 631 -93 Q641 -103 641 -115 Q641 -120 639 -126 Q571 -270 493 -376 Q479 -395 451 -397 L436 -398 L430 -398 Q403 -398 387 -383 Q376 -373 376 -361 Q376 -355 378 -350 Q425 -228 453 -111 Q455 -100 468 -90 Q482 -81 501 -80 L583 -76 Z " />
<glyph glyph-name="uni013C" unicode="&#x13c;" horiz-adv-x="508" d="M304 1490 Q333 1490 355 1467 Q377 1445 377 1412 L377 98 Q377 65 355 43 Q333 20 304 20 L191 20 Q160 20 138 43 Q117 65 117 98 L117 1412 Q117 1445 138 1467 Q160 1490 191 1490 L304 1490 Z M322 -76 L328 -76 Q355 -76 371 -93 Q380 -103 380 -113 Q380 -119 377 -125 Q309 -270 232 -376 Q218 -395 189 -397 L174 -398 L168 -398 Q141 -398 125 -383 Q114 -373 114 -361 Q114 -355 116 -350 Q164 -228 191 -111 Q193 -100 206 -90 Q220 -81 239 -80 L322 -76 Z " />
<glyph glyph-name="ldot" unicode="&#x140;" horiz-adv-x="664" d="M286 1490 Q315 1490 337 1467 Q359 1445 359 1412 L359 98 Q359 65 337 43 Q315 20 286 20 L173 20 Q142 20 120 43 Q99 65 99 98 L99 1412 Q99 1445 120 1467 Q142 1490 173 1490 L286 1490 Z M538 625 Q487 625 452 663 Q416 701 416 754 Q416 811 451 848 Q487 885 540 885 Q590 885 623 848 Q658 811 658 754 Q658 701 623 662 Q589 625 540 625 L538 625 Z " />
<glyph glyph-name="Lslash" unicode="&#x141;" horiz-adv-x="952" d="M374 684 L374 323 Q374 294 393 273 Q413 252 442 252 L836 252 Q866 252 886 230 Q908 206 908 174 L908 99 Q908 66 886 43 Q865 20 836 20 L181 20 Q152 20 131 43 Q109 66 109 99 L109 1335 Q109 1368 131 1391 Q152 1414 181 1414 L302 1414 Q331 1414 352 1391 Q374 1368 374 1335 L374 750 L899 750 Q903 750 907 744 Q914 733 914 717 Q914 701 907 690 Q903 684 899 684 L374 684 Z " />
<glyph glyph-name="lslash" unicode="&#x142;" horiz-adv-x="852" d="M287 788 L287 1412 Q287 1445 308 1467 Q330 1490 361 1490 L474 1490 Q503 1490 525 1467 Q547 1445 547 1412 L547 788 L819 788 Q830 788 837 779 Q846 769 846 755 Q846 742 837 730 Q830 722 819 722 L547 722 L547 98 Q547 65 525 43 Q503 20 474 20 L361 20 Q330 20 308 43 Q287 65 287 98 L287 722 L5 722 Q-6 722 -13 730 Q-22 742 -22 755 Q-22 769 -13 779 Q-6 788 5 788 L287 788 Z " />
<glyph glyph-name="uni0145" unicode="&#x145;" horiz-adv-x="1304" d="M109 1316 Q109 1348 131 1371 Q152 1394 181 1394 L390 1394 Q432 1394 453 1355 L705 879 Q830 644 922 395 Q922 377 944 377 Q969 377 969 395 Q969 399 968 404 Q943 647 943 994 L943 1316 Q943 1348 964 1371 Q985 1394 1014 1394 L1110 1394 Q1139 1394 1160 1371 Q1181 1348 1181 1316 L1181 78 Q1181 45 1160 23 Q1139 0 1110 0 L937 0 Q895 0 874 39 L613 542 Q473 810 382 1043 Q377 1059 363 1059 Q359 1059 353 1057 Q336 1051 336 1034 Q348 751 348 412 L348 78 Q348 45 326 23 Q305 0 276 0 L181 0 Q152 0 131 23 Q109 45 109 78 L109 1316 Z M700 -32 L706 -32 Q734 -32 748 -49 Q758 -59 758 -71 Q758 -76 756 -82 Q688 -226 610 -332 Q596 -351 568 -353 L553 -354 L547 -354 Q520 -354 504 -339 Q493 -329 493 -317 Q493 -311 495 -306 Q542 -184 570 -67 Q572 -56 585 -46 Q599 -37 618 -36 L700 -32 Z " />
<glyph glyph-name="uni0146" unicode="&#x146;" horiz-adv-x="1053" d="M640 1023 Q786 1023 871 922 Q965 811 965 597 L965 77 Q965 45 943 23 Q921 0 892 0 L777 0 Q748 0 727 23 Q705 45 705 77 L705 556 Q705 802 533 802 Q468 802 420 759 Q381 723 362 667 Q349 636 349 580 L349 77 Q349 45 327 23 Q306 0 276 0 L161 0 Q132 0 110 22 Q89 45 89 77 Q88 170 88 264 Q87 389 86 497 Q84 789 83 922 L83 925 Q83 956 103 978 Q126 1000 155 1001 L243 1002 Q273 1002 294 979 Q316 956 316 923 L316 882 Q316 857 339 857 Q352 857 360 869 Q396 929 458 969 Q539 1023 640 1023 Z M580 -38 L586 -38 Q614 -38 628 -55 Q638 -65 638 -77 Q638 -82 636 -88 Q568 -232 490 -338 Q476 -357 448 -359 L433 -360 L427 -360 Q400 -360 384 -345 Q373 -335 373 -323 Q373 -317 375 -312 Q422 -190 450 -73 Q452 -62 465 -52 Q479 -43 498 -42 L580 -38 Z " />
<glyph glyph-name="Eng" unicode="&#x14a;" horiz-adv-x="1304" d="M922 1 Q891 7 874 39 L613 542 Q473 810 382 1043 Q377 1059 363 1059 Q359 1059 353 1057 Q336 1051 336 1034 Q348 751 348 412 L348 78 Q348 45 326 23 Q305 0 276 0 L181 0 Q152 0 131 23 Q109 45 109 78 L109 1316 Q109 1348 131 1371 Q152 1394 181 1394 L390 1394 Q432 1394 453 1355 L705 879 Q830 644 922 395 Q922 377 944 377 Q969 377 969 395 Q969 399 968 404 Q943 647 943 994 L943 1316 Q943 1348 964 1371 Q985 1394 1014 1394 L1110 1394 Q1139 1394 1160 1371 Q1181 1348 1181 1316 L1181 104 Q1184 94 1184 83 Q1184 69 1179 55 Q1094 -187 997 -365 Q977 -400 940 -404 L921 -405 L912 -405 Q880 -405 859 -378 Q842 -356 842 -330 Q842 -319 845 -307 Q891 -150 922 1 Z " />
<glyph glyph-name="eng" unicode="&#x14b;" horiz-adv-x="1053" d="M705 102 L705 556 Q705 802 533 802 Q468 802 420 759 Q381 723 362 667 Q349 636 349 580 L349 77 Q349 45 327 23 Q306 0 276 0 L161 0 Q132 0 110 22 Q89 45 89 77 Q88 170 88 264 Q87 389 86 497 Q84 789 83 922 L83 925 Q83 956 103 978 Q126 1000 155 1001 L243 1002 Q273 1002 294 979 Q316 956 316 923 L316 882 Q316 857 339 857 Q352 857 360 869 Q396 929 458 969 Q539 1023 640 1023 Q786 1023 871 922 Q965 811 965 597 L965 77 Q965 45 943 23 Q927 6 907 2 Q845 -153 778 -276 Q758 -311 721 -315 L702 -316 L693 -316 Q661 -316 640 -289 Q623 -267 623 -241 Q623 -230 626 -218 Q674 -55 705 102 Z " />
<glyph glyph-name="OE" unicode="&#x152;" horiz-adv-x="1763" d="M893 1103 Q893 1205 792 1220 Q756 1225 715 1225 Q541 1225 429 1096 Q310 961 310 729 Q310 508 420 374 Q536 234 737 234 Q762 234 788 236 Q893 248 893 354 L893 1103 Z M1710 121 Q1710 88 1687 66 Q1664 43 1632 43 L971 43 Q946 43 912 39 L879 35 L847 30 L811 27 L771 24 Q724 20 683 20 Q365 20 188 228 Q28 418 28 717 Q28 1047 211 1243 Q391 1439 689 1439 Q772 1439 867 1426 L903 1423 L936 1419 Q973 1416 995 1416 L1604 1416 Q1636 1416 1659 1393 Q1682 1370 1682 1338 L1682 1271 Q1682 1239 1659 1216 Q1636 1194 1604 1194 L1228 1194 Q1156 1194 1156 1122 L1156 932 Q1156 860 1228 860 L1574 860 Q1606 860 1629 838 Q1652 815 1652 782 L1652 718 Q1652 686 1629 663 Q1606 640 1574 640 L1228 640 Q1156 640 1156 568 L1156 337 Q1156 265 1228 265 L1632 265 Q1664 265 1687 242 Q1710 220 1710 187 L1710 121 Z " />
<glyph glyph-name="oe" unicode="&#x153;" horiz-adv-x="1570" d="M1262 608 Q1301 608 1301 645 L1301 649 Q1297 724 1263 772 Q1215 841 1119 841 Q1035 841 983 776 Q940 724 931 652 Q930 647 930 642 Q930 608 969 608 L1262 608 Z M500 827 Q388 827 332 720 Q290 639 290 514 Q290 379 342 294 Q399 199 498 199 Q596 199 652 290 Q703 374 703 516 Q703 645 658 728 Q603 827 501 827 L500 827 Z M968 441 Q933 441 933 411 Q933 407 934 403 Q947 312 1027 258 Q1102 207 1207 207 Q1298 207 1376 228 Q1385 230 1394 230 Q1415 230 1434 218 Q1462 201 1468 169 L1473 144 Q1475 133 1475 123 Q1475 76 1424 59 Q1364 38 1288 28 Q1228 20 1167 20 Q949 20 838 187 L827 195 L813 195 L802 187 Q691 20 467 20 Q280 20 159 149 Q30 286 30 512 Q30 733 159 870 Q286 1005 486 1005 Q707 1005 799 839 L814 829 L833 835 Q945 1005 1144 1005 Q1340 1005 1443 859 Q1531 734 1531 538 L1531 511 Q1529 482 1508 461 Q1488 441 1459 441 L968 441 Z " />
<glyph glyph-name="uni0156" unicode="&#x156;" horiz-adv-x="1106" d="M509 777 Q629 777 699 839 Q770 900 770 1004 Q770 1110 703 1168 Q641 1223 527 1224 Q473 1224 431 1220 Q405 1217 387 1196 Q369 1175 369 1148 L369 849 Q369 820 388 799 Q409 777 438 777 L509 777 Z M1010 253 Q1033 162 1044 119 Q1047 108 1047 97 Q1047 72 1032 50 Q1011 20 975 20 L852 20 Q830 20 811 34 Q792 48 785 72 Q758 158 718 338 Q689 475 636 529 Q585 582 481 584 L438 584 Q410 584 388 563 Q369 541 369 512 L369 97 Q369 65 348 43 Q327 20 298 20 L180 20 Q151 20 131 43 Q109 65 109 97 L109 1330 Q109 1359 127 1381 Q145 1403 172 1406 Q320 1424 493 1424 Q704 1424 840 1321 Q982 1213 982 1030 Q982 900 934 813 Q887 729 793 692 L793 659 Q920 604 973 399 L992 326 L1010 253 Z M629 -38 L635 -38 Q663 -38 677 -55 Q687 -65 687 -77 Q687 -82 685 -88 Q617 -232 539 -338 Q525 -357 497 -359 L482 -360 L476 -360 Q449 -360 433 -345 Q422 -335 422 -323 Q422 -317 424 -312 Q471 -190 499 -73 Q501 -62 514 -52 Q528 -43 547 -42 L629 -38 Z " />
<glyph glyph-name="uni0157" unicode="&#x157;" horiz-adv-x="682" d="M490 998 Q553 1043 624 1043 Q641 1043 654 1030 Q667 1017 667 998 L667 847 Q667 820 649 802 Q631 784 607 784 L606 784 Q517 784 457 735 Q398 687 381 604 Q375 570 375 528 L375 97 Q375 65 352 43 Q332 20 302 20 L188 20 Q158 20 136 43 Q115 65 115 97 L115 943 Q115 975 136 998 Q158 1020 188 1020 L263 1020 Q294 1020 314 998 Q335 976 335 945 L335 853 Q335 828 360 828 Q375 828 384 844 Q417 944 490 998 Z M294 -64 L300 -64 Q328 -64 342 -81 Q352 -91 352 -103 Q352 -108 350 -114 Q282 -258 204 -364 Q190 -383 162 -385 L147 -386 L141 -386 Q114 -386 98 -371 Q87 -361 87 -349 Q87 -343 89 -338 Q136 -216 164 -99 Q166 -88 179 -78 Q193 -69 212 -68 L294 -64 Z " />
<glyph glyph-name="Scedilla" unicode="&#x15e;" horiz-adv-x="948" d="M413 20 L395 20 Q243 20 106 70 Q78 80 66 106 Q56 124 56 144 Q56 153 58 163 L74 237 Q82 271 111 288 Q128 297 145 297 Q158 297 171 292 Q295 246 413 246 Q521 246 581 293 Q643 339 643 421 Q643 496 584 548 Q534 593 408 642 Q58 774 58 1047 Q58 1225 184 1339 Q317 1458 538 1458 Q672 1458 786 1421 Q813 1412 828 1385 Q838 1367 838 1347 Q838 1337 835 1326 L817 1257 Q809 1224 781 1208 Q764 1198 747 1198 Q736 1198 724 1202 Q632 1232 533 1232 Q433 1232 376 1187 Q320 1143 320 1074 Q320 999 387 949 Q436 912 577 853 Q750 785 829 686 Q909 588 909 445 Q909 262 784 147 Q684 55 526 30 Q527 26 527 22 Q527 12 521 2 L502 -33 Q585 -44 621 -80 Q660 -118 660 -172 Q660 -258 594 -299 Q534 -337 433 -337 Q380 -337 334 -323 Q318 -317 310 -300 Q305 -291 305 -280 Q305 -273 308 -264 Q313 -251 329 -243 Q339 -237 350 -237 Q356 -237 362 -239 Q395 -250 422 -250 Q458 -250 481 -234 Q514 -213 514 -174 Q514 -92 366 -79 L413 20 Z " />
<glyph glyph-name="scedilla" unicode="&#x15f;" horiz-adv-x="760" d="M322 20 Q199 20 97 55 Q70 64 57 91 Q47 109 47 129 Q47 138 49 148 L57 185 Q65 219 94 236 Q110 245 127 245 Q139 245 152 240 Q247 205 323 205 Q471 205 471 313 Q471 362 435 392 Q403 420 316 451 Q178 501 112 582 Q55 651 55 739 L55 745 Q55 883 154 972 Q259 1065 427 1065 Q522 1065 609 1040 Q636 1031 652 1004 Q662 986 662 966 Q662 957 660 947 L653 916 Q645 884 618 867 Q600 857 582 857 Q572 857 562 860 Q496 882 437 882 Q375 882 340 855 Q303 826 303 776 Q303 731 344 699 Q378 674 471 638 Q603 590 662 517 Q719 445 721 336 Q721 195 622 110 Q546 45 422 27 Q428 17 428 6 Q428 -4 422 -14 L403 -49 Q486 -60 522 -96 Q561 -134 561 -188 Q561 -274 495 -315 Q435 -353 334 -353 Q281 -353 235 -339 Q219 -333 211 -316 Q206 -307 206 -296 Q206 -289 209 -280 Q214 -267 230 -259 Q240 -253 251 -253 Q257 -253 263 -255 Q296 -266 323 -266 Q359 -266 382 -250 Q415 -229 415 -190 Q415 -108 267 -95 L322 20 Z " />
<glyph glyph-name="uni0162" unicode="&#x162;" horiz-adv-x="888" d="M424 20 Q398 22 379 43 Q356 66 356 99 L356 1111 Q356 1140 336 1161 Q316 1181 288 1181 L76 1181 Q44 1181 23 1204 Q1 1227 1 1261 L1 1335 Q1 1368 23 1391 Q44 1414 76 1414 L903 1414 Q934 1414 955 1391 Q977 1368 977 1335 L977 1261 Q977 1227 955 1204 Q934 1181 903 1181 L685 1181 Q657 1181 636 1161 Q616 1140 616 1111 L616 99 Q616 66 594 43 Q573 20 542 20 L533 20 Q534 16 534 12 Q534 2 528 -7 L509 -42 Q592 -53 628 -89 Q667 -127 667 -181 Q667 -267 601 -308 Q541 -346 440 -346 Q387 -346 341 -332 Q325 -326 317 -309 Q312 -300 312 -289 Q312 -282 315 -273 Q320 -260 336 -252 Q346 -246 357 -246 Q363 -246 369 -248 Q402 -259 429 -259 Q465 -259 488 -243 Q521 -222 521 -183 Q521 -101 373 -88 L424 20 Z " />
<glyph glyph-name="uni0163" unicode="&#x163;" horiz-adv-x="630" d="M318 40 Q264 60 226 103 Q148 190 148 398 L148 781 Q148 807 130 825 Q112 843 88 843 Q61 843 40 865 Q20 885 20 916 L20 969 Q20 999 40 1021 Q60 1041 88 1041 Q113 1041 130 1060 Q148 1078 148 1104 L148 1267 Q148 1297 168 1318 Q189 1339 216 1339 L334 1339 Q361 1339 382 1318 Q402 1297 402 1267 L402 1104 Q402 1078 419 1060 Q436 1041 462 1041 L549 1041 Q577 1041 597 1021 Q617 999 617 969 L617 916 Q617 885 597 865 Q576 843 549 843 L462 843 Q436 843 420 825 Q402 807 402 781 L402 447 Q402 325 414 297 Q436 243 521 243 Q530 243 541 244 Q569 244 589 223 Q609 203 610 172 L611 100 Q611 73 594 52 Q577 32 552 28 Q500 20 436 20 L425 20 Q423 15 420 9 L401 -26 Q484 -37 520 -73 Q559 -111 559 -165 Q559 -251 493 -292 Q433 -330 332 -330 Q279 -330 233 -316 Q217 -310 209 -293 Q204 -284 204 -273 Q204 -266 207 -257 Q212 -244 228 -236 Q238 -230 249 -230 Q255 -230 261 -232 Q294 -243 321 -243 Q357 -243 380 -227 Q413 -206 413 -167 Q413 -85 265 -72 L318 40 Z " />
<glyph glyph-name="Tcaron" unicode="&#x164;" horiz-adv-x="901" d="M915 1413 Q947 1413 968 1390 Q990 1366 990 1333 L990 1258 Q990 1223 968 1200 Q947 1177 915 1177 L694 1177 Q666 1177 645 1157 Q624 1135 624 1106 L624 80 Q624 47 602 23 Q581 0 549 0 L436 0 Q405 0 384 23 Q361 47 361 80 L361 1106 Q361 1135 341 1157 Q320 1177 292 1177 L77 1177 Q45 1177 23 1200 Q1 1223 1 1258 L1 1333 Q1 1366 23 1390 Q45 1413 77 1413 L915 1413 Z M262 1756 Q254 1767 254 1779 Q254 1789 260 1799 Q273 1821 298 1821 L348 1821 Q373 1821 386 1799 L475 1637 L502 1637 L593 1799 Q606 1821 631 1821 L681 1821 Q706 1821 719 1799 Q725 1789 725 1779 Q725 1767 717 1756 L594 1558 Q581 1538 557 1538 L420 1538 Q396 1538 383 1559 L262 1756 Z " />
<glyph glyph-name="tcaron" unicode="&#x165;" horiz-adv-x="637" d="M402 427 Q402 305 414 277 Q436 223 521 223 Q530 223 541 224 Q569 224 589 203 Q609 183 610 152 L611 80 Q611 53 594 32 Q577 12 552 8 Q500 0 436 0 Q300 0 226 83 Q148 170 148 378 L148 761 Q148 787 130 805 Q112 823 88 823 Q61 823 40 845 Q20 865 20 896 L20 949 Q20 979 40 1001 Q60 1021 88 1021 Q113 1021 130 1040 Q148 1058 148 1084 L148 1247 Q148 1277 168 1298 Q189 1319 216 1319 L334 1319 Q361 1319 382 1298 Q402 1277 402 1247 L402 1084 Q402 1058 419 1040 Q436 1021 462 1021 L549 1021 Q577 1021 597 1001 Q617 979 617 949 L617 896 Q617 865 597 845 Q576 823 549 823 L462 823 Q436 823 420 805 Q402 787 402 761 L402 427 Z M61 1655 Q53 1666 53 1678 Q53 1688 59 1698 Q72 1720 97 1720 L147 1720 Q172 1720 185 1698 L274 1536 L301 1536 L392 1698 Q405 1720 430 1720 L480 1720 Q505 1720 518 1698 Q524 1688 524 1678 Q524 1666 516 1655 L393 1457 Q380 1437 356 1437 L219 1437 Q195 1437 182 1458 L61 1655 Z " />
<glyph glyph-name="Tbar" unicode="&#x166;" horiz-adv-x="1024" d="M377 750 L377 1111 Q377 1140 357 1161 Q337 1181 309 1181 L97 1181 Q65 1181 44 1204 Q22 1227 22 1261 L22 1335 Q22 1368 44 1391 Q65 1414 97 1414 L924 1414 Q955 1414 976 1391 Q998 1368 998 1335 L998 1261 Q998 1227 976 1204 Q955 1181 924 1181 L706 1181 Q678 1181 657 1161 Q637 1140 637 1111 L637 750 L967 750 Q979 750 987 741 Q997 731 997 717 Q997 704 987 692 Q979 684 967 684 L637 684 L637 99 Q637 66 615 43 Q594 20 563 20 L451 20 Q421 20 400 43 Q377 66 377 99 L377 684 L54 684 Q42 684 34 692 Q24 704 24 717 Q24 731 34 741 Q42 750 54 750 L377 750 Z " />
<glyph glyph-name="tbar" unicode="&#x167;" horiz-adv-x="908" d="M516 511 L516 447 Q516 325 528 297 Q550 243 635 243 Q644 243 655 244 Q683 244 703 223 Q723 203 724 172 L725 100 Q725 73 708 52 Q691 32 666 28 Q614 20 550 20 Q414 20 340 103 Q262 190 262 398 L262 511 L-24 511 Q-36 511 -44 519 Q-54 531 -54 544 Q-54 558 -44 568 Q-36 577 -24 577 L262 577 L262 781 Q262 807 244 825 Q226 843 202 843 Q175 843 154 865 Q134 885 134 916 L134 969 Q134 999 154 1021 Q174 1041 202 1041 Q227 1041 244 1060 Q262 1078 262 1104 L262 1267 Q262 1297 282 1318 Q303 1339 330 1339 L448 1339 Q475 1339 496 1318 Q516 1297 516 1267 L516 1104 Q516 1078 533 1060 Q550 1041 576 1041 L663 1041 Q691 1041 711 1021 Q731 999 731 969 L731 916 Q731 885 711 865 Q690 843 663 843 L576 843 Q550 843 534 825 Q516 807 516 781 L516 577 L889 577 Q901 577 909 568 Q919 558 919 544 Q919 531 909 519 Q901 511 889 511 L516 511 Z " />
<glyph glyph-name="Uogonek" unicode="&#x172;" horiz-adv-x="1243" d="M507 26 Q93 83 93 657 L93 1359 Q93 1392 114 1414 Q136 1437 166 1437 L280 1437 Q310 1437 331 1414 Q353 1392 353 1359 L353 631 Q353 442 419 342 Q486 240 613 240 Q876 240 876 631 L876 1359 Q876 1392 898 1414 Q919 1437 949 1437 L1061 1437 Q1091 1437 1113 1414 Q1134 1392 1134 1359 L1134 653 Q1134 335 993 173 Q871 34 649 21 Q652 -29 682 -62 Q718 -101 776 -101 Q797 -101 816 -98 Q820 -97 824 -97 Q837 -97 847 -104 Q860 -113 865 -129 L878 -175 Q880 -182 880 -189 Q880 -197 877 -204 Q870 -219 856 -226 Q785 -261 703 -261 Q604 -261 551 -210 Q496 -158 496 -56 Q496 -17 507 26 Z " />
<glyph glyph-name="uogonek" unicode="&#x173;" horiz-adv-x="1032" d="M379 20 Q240 23 161 119 Q69 230 69 453 L69 965 Q69 997 92 1021 Q112 1043 144 1043 L256 1043 Q287 1043 309 1021 Q331 997 331 965 L331 504 Q331 242 501 242 Q565 242 612 284 Q650 316 669 368 Q680 394 680 445 L680 965 Q680 997 703 1021 Q723 1043 755 1043 L868 1043 Q899 1043 921 1021 Q943 998 943 965 L943 545 Q943 290 944 123 Q944 89 921 67 Q900 43 869 43 L790 43 Q760 43 738 67 Q716 90 716 123 L716 166 Q716 190 692 190 Q678 190 671 178 Q656 152 635 128 Q609 98 578 76 Q548 56 515 43 L515 42 Q501 0 501 -36 Q501 -93 534 -130 Q570 -169 628 -169 Q649 -169 668 -166 Q672 -165 676 -165 Q689 -165 699 -172 Q712 -181 717 -197 L730 -243 Q732 -250 732 -257 Q732 -265 729 -272 Q722 -287 708 -294 Q637 -329 555 -329 Q456 -329 403 -278 Q348 -226 348 -124 Q348 -73 367 -14 Q373 3 379 20 Z " />
<glyph glyph-name="longs" unicode="&#x17f;" horiz-adv-x="526" d="M468 1514 Q502 1514 529 1512 Q558 1510 577 1487 Q597 1464 597 1433 L596 1376 Q596 1343 575 1320 Q553 1298 522 1298 L519 1298 Q438 1298 395 1235 Q359 1181 359 1093 L359 1073 Q359 1060 361 769 L361 97 Q361 65 339 43 Q318 20 288 20 L171 20 Q142 20 120 43 Q99 65 99 97 L99 1081 Q99 1179 127 1264 Q157 1358 216 1415 Q312 1514 468 1514 Z " />
<glyph glyph-name="uni01E3" unicode="&#x1e3;" horiz-adv-x="1481" d="M964 1317 Q964 1299 952 1286 Q939 1274 921 1274 L540 1274 Q522 1274 509 1286 Q497 1299 497 1317 L497 1370 Q497 1387 509 1400 Q522 1413 540 1413 L921 1413 Q939 1413 952 1400 Q964 1387 964 1370 L964 1317 Z M834 759 Q843 711 845 656 Q864 639 890 639 L1129 639 Q1163 639 1183 667 Q1199 686 1199 709 Q1199 717 1197 726 Q1184 794 1145 837 Q1095 890 1014 890 Q940 890 888 840 Q854 808 834 759 Z M590 338 Q568 414 565 506 Q547 519 525 519 L522 519 Q399 513 320 471 Q221 420 221 330 Q221 262 291 223 Q347 193 413 193 Q474 193 523 232 Q570 269 589 329 L589 330 Q590 334 590 338 Z M833 61 Q829 55 824 50 Q802 28 770 27 L689 25 Q658 25 634 50 Q613 72 613 103 L613 133 L576 133 Q526 67 458 35 Q393 5 321 5 L312 5 Q178 9 97 98 Q19 183 19 304 Q19 488 161 586 Q300 681 551 682 Q585 682 585 717 Q585 779 546 819 Q497 871 390 871 Q301 871 210 838 Q196 833 183 833 Q166 833 150 841 Q121 858 112 891 L109 904 Q106 915 106 927 Q106 945 114 962 Q127 990 155 1000 Q287 1052 443 1052 Q632 1052 733 954 Q852 1065 1032 1065 Q1239 1065 1348 911 Q1442 776 1442 566 Q1442 551 1441 533 Q1439 502 1418 480 Q1397 458 1368 458 L896 458 Q865 458 846 437 L846 332 Q880 281 944 252 Q1013 220 1103 220 Q1198 220 1281 238 Q1289 240 1296 240 Q1318 240 1337 226 Q1363 208 1368 176 L1373 145 Q1375 136 1375 128 Q1375 106 1364 87 Q1348 62 1320 53 Q1202 20 1060 20 Q931 20 833 61 Z " />
<glyph glyph-name="uni01E4" unicode="&#x1e4;" horiz-adv-x="1321" d="M1132 425 L1330 425 Q1334 411 1334 392 Q1334 374 1330 359 L1132 359 L1132 153 Q1132 126 1118 105 Q1103 85 1081 78 Q999 53 914 38 Q811 20 719 20 Q382 20 207 208 Q120 297 75 428 Q29 557 29 709 L29 715 Q31 1055 235 1254 Q431 1444 750 1444 Q900 1444 1021 1407 Q1048 1398 1062 1371 Q1073 1352 1073 1331 Q1073 1321 1070 1311 L1054 1242 Q1046 1210 1020 1194 Q1004 1183 987 1183 Q979 1183 970 1186 Q872 1216 747 1216 Q547 1216 426 1094 Q297 964 297 732 Q297 505 416 373 Q533 242 725 242 Q791 242 837 251 Q861 256 875 276 Q889 296 889 320 L889 533 Q889 562 871 582 Q851 603 824 603 L758 603 Q730 603 710 625 Q690 648 690 681 L690 738 Q690 771 710 794 Q730 816 758 816 L1063 816 Q1091 816 1111 794 Q1132 770 1132 738 L1132 425 Z " />
<glyph glyph-name="uni01E5" unicode="&#x1e5;" horiz-adv-x="1059" d="M699 610 Q699 648 691 675 Q674 747 628 788 Q579 833 511 833 Q417 833 356 748 Q294 660 294 517 Q294 390 348 309 Q408 221 511 221 Q575 221 624 263 Q671 303 688 366 Q694 384 696 411 Q699 432 699 457 L699 610 Z M689 -42 Q703 8 703 70 L703 136 Q703 158 680 158 Q671 158 662 150 Q577 22 418 22 Q249 22 141 157 Q30 293 30 510 Q30 747 155 896 Q274 1037 448 1037 Q615 1037 695 900 Q704 891 714 891 Q736 891 736 912 L738 942 Q741 973 763 994 Q783 1014 812 1014 L889 1014 Q919 1014 940 991 Q961 968 961 937 L961 934 Q958 843 958 725 L958 145 Q958 -175 819 -309 Q685 -431 440 -431 Q295 -431 178 -388 Q151 -379 138 -352 Q129 -334 129 -315 Q129 -306 131 -296 L144 -243 Q152 -210 180 -194 Q197 -185 214 -185 Q226 -185 238 -189 Q335 -225 432 -225 Q553 -225 625 -153 Q645 -133 660 -108 L139 -108 Q135 -108 132 -102 Q125 -91 125 -75 Q125 -59 132 -48 Q135 -42 139 -42 L689 -42 Z " />
<glyph glyph-name="uni01E9" unicode="&#x1e9;" horiz-adv-x="924" d="M929 141 Q943 120 943 98 Q943 80 933 61 Q913 20 869 20 L728 20 Q686 20 665 59 L495 373 Q476 405 441 409 L435 409 Q403 409 382 382 L359 351 Q345 333 345 308 L345 97 Q345 65 322 43 Q302 20 272 20 L158 20 Q128 20 106 43 Q85 65 85 97 L85 1413 Q85 1445 106 1468 Q128 1490 158 1490 L272 1490 Q302 1490 322 1468 Q345 1445 345 1413 L345 605 Q345 582 367 582 Q377 582 386 591 Q417 653 454 717 L622 985 Q644 1020 683 1020 L792 1020 Q838 1020 858 976 Q866 958 866 941 Q866 915 847 892 L624 620 L929 141 Z M-6 1797 Q-14 1808 -14 1820 Q-14 1830 -8 1840 Q5 1862 30 1862 L80 1862 Q105 1862 118 1840 L207 1678 L234 1678 L325 1840 Q338 1862 363 1862 L413 1862 Q438 1862 451 1840 Q457 1830 457 1820 Q457 1808 449 1797 L326 1599 Q313 1579 289 1579 L152 1579 Q128 1579 115 1600 L-6 1797 Z " />
<glyph glyph-name="uni01EA" unicode="&#x1ea;" horiz-adv-x="1282" d="M625 238 Q780 238 869 386 Q953 524 953 745 Q953 953 870 1090 Q779 1243 623 1243 Q469 1243 378 1094 Q294 957 294 736 Q294 516 380 380 Q471 238 625 238 Z M634 20 L610 20 Q343 20 183 223 Q28 421 28 729 Q28 1049 194 1253 Q361 1461 631 1461 Q905 1461 1067 1254 Q1219 1058 1219 755 Q1219 413 1050 215 Q939 83 777 41 L777 32 Q777 -25 810 -62 Q846 -101 904 -101 Q925 -101 944 -98 Q948 -97 952 -97 Q965 -97 975 -104 Q988 -113 993 -129 L1006 -175 Q1008 -182 1008 -189 Q1008 -197 1005 -204 Q998 -219 984 -226 Q913 -261 831 -261 Q732 -261 679 -210 Q624 -158 624 -56 Q624 -20 634 20 Z " />
<glyph glyph-name="uni01EB" unicode="&#x1eb;" horiz-adv-x="1059" d="M734 477 Q737 507 737 536 Q737 623 714 696 Q672 828 568 856 Q539 864 514 864 Q420 864 363 762 Q308 664 308 529 Q308 410 347 324 Q400 208 506 198 Q516 197 525 197 Q619 197 677 287 Q725 364 734 477 Z M635 32 Q585 20 531 17 Q517 16 504 16 Q327 16 199 127 Q48 259 39 498 Q38 512 38 526 Q38 751 179 893 Q314 1029 514 1038 Q528 1039 541 1039 Q723 1039 852 924 Q1006 786 1006 540 Q1006 302 858 157 Q824 124 786 98 Q775 61 775 29 Q775 -28 808 -65 Q844 -104 902 -104 Q923 -104 942 -101 Q946 -100 950 -100 Q963 -100 973 -107 Q986 -116 991 -132 L1004 -178 Q1006 -185 1006 -192 Q1006 -200 1003 -207 Q996 -222 982 -229 Q911 -264 829 -264 Q730 -264 677 -213 Q622 -161 622 -59 Q622 -16 635 32 Z " />
<glyph glyph-name="aeacute" unicode="&#x1fd;" horiz-adv-x="1481" d="M734 1375 Q754 1413 797 1413 L831 1413 Q877 1413 897 1369 Q906 1351 906 1334 Q906 1309 888 1286 L791 1158 Q769 1130 734 1130 L728 1130 Q686 1130 665 1169 Q654 1188 654 1207 Q654 1227 665 1246 L734 1375 Z M834 759 Q843 711 845 656 Q864 639 890 639 L1129 639 Q1163 639 1183 667 Q1199 686 1199 709 Q1199 717 1197 726 Q1184 794 1145 837 Q1095 890 1014 890 Q940 890 888 840 Q854 808 834 759 Z M590 338 Q568 414 565 506 Q547 519 525 519 L522 519 Q399 513 320 471 Q221 420 221 330 Q221 262 291 223 Q347 193 413 193 Q474 193 523 232 Q570 269 589 329 L589 330 Q590 334 590 338 Z M833 61 Q829 55 824 50 Q802 28 770 27 L689 25 Q658 25 634 50 Q613 72 613 103 L613 133 L576 133 Q526 67 458 35 Q393 5 321 5 L312 5 Q178 9 97 98 Q19 183 19 304 Q19 488 161 586 Q300 681 551 682 Q585 682 585 717 Q585 779 546 819 Q497 871 390 871 Q301 871 210 838 Q196 833 183 833 Q166 833 150 841 Q121 858 112 891 L109 904 Q106 915 106 927 Q106 945 114 962 Q127 990 155 1000 Q287 1052 443 1052 Q632 1052 733 954 Q852 1065 1032 1065 Q1239 1065 1348 911 Q1442 776 1442 566 Q1442 551 1441 533 Q1439 502 1418 480 Q1397 458 1368 458 L896 458 Q865 458 846 437 L846 332 Q880 281 944 252 Q1013 220 1103 220 Q1198 220 1281 238 Q1289 240 1296 240 Q1318 240 1337 226 Q1363 208 1368 176 L1373 145 Q1375 136 1375 128 Q1375 106 1364 87 Q1348 62 1320 53 Q1202 20 1060 20 Q931 20 833 61 Z " />
<glyph glyph-name="oslashacute" unicode="&#x1ff;" horiz-adv-x="1045" d="M525 1658 Q545 1696 588 1696 L622 1696 Q668 1696 688 1652 Q697 1634 697 1617 Q697 1592 679 1569 L582 1441 Q560 1413 525 1413 L519 1413 Q477 1413 456 1452 Q445 1471 445 1490 Q445 1510 456 1529 L525 1658 Z M299 61 Q246 87 199 127 Q48 259 39 498 Q38 512 38 526 Q38 751 179 893 Q314 1029 514 1038 Q530 1039 545 1039 Q560 1039 574 1038 L626 1224 Q633 1248 653 1264 Q672 1279 697 1279 L706 1279 Q743 1279 765 1248 Q780 1227 780 1202 Q780 1191 777 1179 L727 1003 Q795 975 852 924 Q1006 786 1006 540 Q1006 302 858 157 Q724 26 531 17 Q517 16 504 16 Q477 16 451 19 L398 -168 Q391 -192 372 -207 Q352 -223 328 -223 L318 -223 Q281 -223 259 -192 Q244 -171 244 -146 Q244 -135 247 -123 L299 61 Z M667 789 L501 199 Q504 198 506 198 Q516 197 525 197 Q619 197 677 287 Q725 364 734 477 Q737 507 737 536 Q737 623 714 696 Q696 752 667 789 Z M364 292 L525 863 L513 863 Q420 863 363 762 Q308 664 308 529 Q308 410 347 324 Q355 307 364 292 Z " />
<glyph glyph-name="uni0237" unicode="&#x237;" horiz-adv-x="451" d="M282 1018 Q312 1018 333 995 Q354 973 354 941 L354 136 Q354 -174 225 -305 Q130 -400 -45 -421 Q-50 -422 -55 -422 Q-78 -422 -97 -406 Q-121 -386 -124 -354 L-133 -285 L-133 -276 Q-133 -251 -120 -231 Q-104 -207 -78 -199 Q-9 -181 29 -138 Q66 -97 79 -18 Q93 57 93 213 L93 941 Q93 973 115 995 Q136 1018 166 1018 L282 1018 Z " />
<glyph glyph-name="circumflex" unicode="&#x2c6;" horiz-adv-x="547" d="M509 1200 Q517 1188 517 1176 Q517 1166 511 1156 Q498 1134 473 1134 L423 1134 Q397 1134 386 1156 L296 1319 L268 1319 L178 1156 Q165 1134 140 1134 L90 1134 Q65 1134 52 1157 Q46 1167 46 1177 Q46 1188 54 1200 L177 1397 Q190 1417 214 1417 L350 1417 Q374 1417 387 1396 L509 1200 Z " />
<glyph glyph-name="caron" unicode="&#x2c7;" horiz-adv-x="526" d="M54 1349 Q46 1360 46 1372 Q46 1382 52 1392 Q65 1414 90 1414 L140 1414 Q165 1414 178 1392 L267 1230 L294 1230 L385 1392 Q398 1414 423 1414 L473 1414 Q498 1414 511 1392 Q517 1382 517 1372 Q517 1360 509 1349 L386 1151 Q373 1131 349 1131 L212 1131 Q188 1131 175 1152 L54 1349 Z " />
<glyph glyph-name="uni02C9" unicode="&#x2c9;" horiz-adv-x="467" d="M467 1317 Q467 1299 455 1286 Q442 1274 424 1274 L43 1274 Q25 1274 12 1286 Q0 1299 0 1317 L0 1370 Q0 1387 12 1400 Q25 1413 43 1413 L424 1413 Q442 1413 455 1400 Q467 1387 467 1370 L467 1317 Z " />
<glyph glyph-name="breve" unicode="&#x2d8;" horiz-adv-x="517" d="M88 1413 Q118 1413 128 1384 Q162 1283 256 1283 Q361 1283 391 1383 Q395 1396 407 1405 Q418 1413 433 1413 L471 1413 Q491 1413 504 1397 Q514 1385 514 1371 Q514 1367 513 1363 Q496 1264 431 1208 Q365 1151 258 1151 Q151 1151 83 1210 Q21 1264 4 1363 Q3 1368 3 1372 Q3 1386 12 1397 Q25 1413 45 1413 L88 1413 Z " />
<glyph glyph-name="dotaccent" unicode="&#x2d9;" horiz-adv-x="242" d="M122 1156 Q71 1156 36 1194 Q0 1232 0 1285 Q0 1342 35 1379 Q71 1416 124 1416 Q174 1416 207 1379 Q242 1342 242 1285 Q242 1232 207 1193 Q173 1156 124 1156 L122 1156 Z " />
<glyph glyph-name="ring" unicode="&#x2da;" horiz-adv-x="380" d="M191 1137 Q238 1137 266 1172 Q292 1202 292 1248 Q292 1292 267 1323 Q239 1359 191 1359 L189 1359 Q143 1359 116 1322 Q91 1292 91 1246 Q91 1204 117 1172 Q147 1137 191 1137 Z M194 1418 Q283 1418 333 1369 Q380 1323 380 1248 Q380 1174 330 1128 Q279 1078 193 1078 Q104 1078 50 1128 Q0 1173 0 1246 Q0 1320 49 1368 Q101 1418 193 1418 L194 1418 Z " />
<glyph glyph-name="ogonek" unicode="&#x2db;" horiz-adv-x="386" d="M382 -347 Q384 -354 384 -361 Q384 -369 381 -376 Q374 -391 360 -398 Q289 -433 207 -433 Q108 -433 55 -382 Q0 -330 0 -228 Q0 -177 19 -118 Q34 -72 57 -27 Q69 -5 95 -5 L126 -5 Q149 -5 161 -22 Q169 -34 169 -47 Q169 -55 167 -62 Q153 -104 153 -140 Q153 -197 186 -234 Q222 -273 280 -273 Q301 -273 320 -270 Q324 -269 328 -269 Q341 -269 351 -276 Q364 -285 369 -301 L382 -347 Z " />
<glyph glyph-name="tilde" unicode="&#x2dc;" horiz-adv-x="538" d="M44 1174 Q26 1174 13 1188 Q1 1201 1 1218 L1 1221 Q9 1315 50 1367 Q88 1413 146 1413 Q176 1413 209 1400 Q222 1395 238 1388 L268 1372 L280 1366 L291 1359 Q305 1350 314 1345 Q342 1330 363 1330 Q414 1330 428 1389 Q432 1405 443 1414 Q455 1423 470 1423 L494 1423 Q513 1423 526 1410 Q537 1397 537 1381 L537 1378 Q524 1191 391 1191 Q358 1191 323 1205 Q310 1209 293 1218 L260 1234 Q198 1270 174 1270 Q128 1270 113 1207 Q109 1192 98 1183 Q86 1174 71 1174 L44 1174 Z " />
<glyph glyph-name="endash" unicode="&#x2013;" horiz-adv-x="852" d="M852 714 Q852 682 830 660 Q807 637 775 637 L77 637 Q45 637 23 660 Q0 682 0 714 L0 720 Q0 752 23 775 Q45 797 77 797 L775 797 Q807 797 830 775 Q852 752 852 720 L852 714 Z " />
<glyph glyph-name="emdash" unicode="&#x2014;" horiz-adv-x="1865" d="M1788 797 Q1821 797 1843 775 Q1865 752 1865 720 L1865 714 Q1865 682 1843 660 Q1821 637 1788 637 L77 637 Q45 637 23 660 Q0 682 0 714 L0 720 Q0 752 23 775 Q45 797 77 797 L1788 797 Z " />
<glyph glyph-name="quoteleft" unicode="&#x2018;" horiz-adv-x="325" d="M156 1400 Q130 1400 118 1423 L12 1619 Q6 1631 6 1642 Q6 1653 12 1663 Q25 1683 50 1683 L123 1683 Q145 1683 158 1666 L308 1470 Q318 1457 318 1444 Q318 1434 313 1424 Q301 1400 274 1400 L156 1400 Z " />
<glyph glyph-name="quoteright" unicode="&#x2019;" horiz-adv-x="325" d="M275 1681 Q301 1681 313 1657 Q318 1647 318 1637 Q318 1624 309 1612 L158 1415 Q145 1398 124 1398 L50 1398 Q26 1398 13 1419 Q6 1430 6 1441 Q6 1451 12 1461 L119 1660 Q130 1681 156 1681 L275 1681 Z " />
<glyph glyph-name="quotesinglbase" unicode="&#x201a;" horiz-adv-x="325" d="M275 177 Q301 177 313 153 Q318 143 318 133 Q318 120 309 108 L158 -89 Q145 -106 124 -106 L50 -106 Q26 -106 13 -85 Q6 -74 6 -63 Q6 -53 12 -43 L119 156 Q130 177 156 177 L275 177 Z " />
<glyph glyph-name="quotedblleft" unicode="&#x201c;" horiz-adv-x="676" d="M275 1680 Q300 1680 313 1660 Q319 1650 319 1639 Q319 1628 313 1616 L207 1420 Q195 1397 169 1397 L51 1397 Q24 1397 12 1421 Q7 1431 7 1441 Q7 1454 17 1467 L167 1663 Q180 1680 202 1680 L275 1680 Z M627 1680 Q651 1680 664 1660 Q670 1650 670 1639 Q670 1628 664 1616 L558 1420 Q546 1397 520 1397 L402 1397 Q375 1397 363 1421 Q358 1431 358 1441 Q358 1454 368 1467 L519 1663 Q532 1680 552 1680 L627 1680 Z " />
<glyph glyph-name="quotedblright" unicode="&#x201d;" horiz-adv-x="676" d="M401 1401 Q377 1401 364 1422 Q357 1433 357 1444 Q357 1454 363 1464 L470 1662 Q482 1684 507 1684 L626 1684 Q652 1684 664 1660 Q669 1650 669 1640 Q669 1627 660 1615 L509 1418 Q496 1401 475 1401 L401 1401 Z M50 1401 Q26 1401 13 1422 Q6 1433 6 1444 Q6 1454 12 1464 L119 1663 Q130 1684 156 1684 L275 1684 Q301 1684 313 1660 Q318 1650 318 1640 Q318 1627 309 1615 L158 1418 Q145 1401 124 1401 L50 1401 Z " />
<glyph glyph-name="quotedblbase" unicode="&#x201e;" horiz-adv-x="676" d="M401 -106 Q377 -106 364 -85 Q357 -74 357 -63 Q357 -53 363 -43 L470 155 Q482 177 507 177 L626 177 Q652 177 664 153 Q669 143 669 133 Q669 120 660 108 L509 -89 Q496 -106 475 -106 L401 -106 Z M50 -106 Q26 -106 13 -85 Q6 -74 6 -63 Q6 -53 12 -43 L119 156 Q130 177 156 177 L275 177 Q301 177 313 153 Q318 143 318 133 Q318 120 309 108 L158 -89 Q145 -106 124 -106 L50 -106 Z " />
<glyph glyph-name="bullet" unicode="&#x2022;" horiz-adv-x="374" d="M0 718 Q0 796 55 850 Q110 904 188 904 Q265 904 319.5 849.5 Q374 795 374 718 Q374 641 319 585.5 Q264 530 187 530 Q108 530 54 585 Q0 640 0 718 Z " />
<glyph glyph-name="ellipsis" unicode="&#x2026;" horiz-adv-x="1677" d="M1512 -175 Q1444 -175 1399 -127 Q1354 -76 1354 1 Q1354 81 1400 130 Q1445 178 1517 178 Q1587 178 1630 131 Q1676 82 1677 1 Q1677 -76 1632 -127 Q1587 -175 1514 -175 L1512 -175 Z M835 -175 Q767 -175 722 -127 Q677 -76 677 1 Q677 81 723 130 Q768 178 840 178 Q910 178 953 131 Q998 82 1000 1 Q1000 -76 955 -127 Q910 -175 838 -175 L835 -175 Z M159 -175 Q90 -175 45 -127 Q0 -76 0 1 Q0 81 46 130 Q91 178 163 178 Q233 178 277 131 Q321 82 323 1 Q323 -76 278 -127 Q233 -175 161 -175 L159 -175 Z " />
<glyph glyph-name="guilsinglleft" unicode="&#x2039;" horiz-adv-x="349" d="M327 441 Q338 423 338 405 Q338 387 327 368 Q307 331 265 331 Q224 331 203 367 L22 677 Q11 697 11 716 Q11 736 22 756 L203 1067 Q224 1103 265 1103 Q307 1103 328 1067 Q338 1049 338 1031 Q338 1012 327 994 L183 753 Q172 735 172 716 Q172 698 183 679 L327 441 Z " />
<glyph glyph-name="guilsinglright" unicode="&#x203a;" horiz-adv-x="349" d="M165 679 Q176 698 176 716 Q176 735 165 753 L21 994 Q10 1012 10 1031 Q10 1049 20 1067 Q41 1103 83 1103 Q125 1103 146 1067 L326 756 Q338 736 338 716 Q338 697 326 677 L146 367 Q125 331 83 331 Q42 331 20 368 Q10 386 10 403 Q10 422 22 441 L165 679 Z " />
<glyph glyph-name="&amp;#x2044;" unicode="&#x2044;" horiz-adv-x="795" d="M733 1409 Q764 1409 780 1384 Q788 1370 788 1356 Q788 1343 781 1329 L111 49 Q96 20 62 20 Q31 20 16 46 Q8 60 8 74 Q8 87 15 100 L685 1381 Q700 1409 733 1409 Z " />
<glyph glyph-name="&amp;#x2215;" unicode="&#x2215;" horiz-adv-x="795" d="M733 1409 Q764 1409 780 1384 Q788 1370 788 1356 Q788 1343 781 1329 L111 49 Q96 20 62 20 Q31 20 16 46 Q8 60 8 74 Q8 87 15 100 L685 1381 Q700 1409 733 1409 Z " />
<glyph glyph-name="Euro" unicode="&#x20ac;" horiz-adv-x="1038" d="M965 148 Q966 141 966 133 Q966 115 957 98 Q944 73 918 63 Q816 20 708 20 Q574 20 461 80 Q345 141 271 253 Q196 361 167 539 L81 539 Q69 539 60 547 Q51 556 51 569 L51 620 Q51 632 60 641 Q69 650 81 650 L151 650 L151 706 L152 737 L154 790 L79 790 Q67 790 58 799 Q49 808 49 820 L49 871 Q49 884 58 893 Q66 901 79 901 L170 901 Q208 1082 298 1198 Q376 1299 480 1354 Q587 1409 712 1409 Q810 1409 902 1380 Q930 1370 945 1345 Q955 1327 955 1308 Q955 1299 953 1290 L942 1237 Q935 1205 907 1187 Q888 1175 867 1175 Q857 1175 846 1178 Q787 1194 732 1194 Q578 1194 487 1071 Q446 1017 418 901 L856 901 Q869 901 878 893 Q887 884 887 871 L887 820 Q887 808 878 799 Q869 790 856 790 L398 790 Q394 750 394 704 L394 650 L856 650 Q869 650 878 641 Q887 632 887 620 L887 569 Q887 556 878 547 Q869 539 856 539 L415 539 Q441 416 486 358 Q576 242 741 242 Q798 242 859 258 Q870 261 880 261 Q901 261 921 249 Q949 232 955 198 L965 148 Z " />
<glyph glyph-name="uni2116" unicode="&#x2116;" horiz-adv-x="1592" d="M781 1365 Q809 1365 830 1343 Q850 1320 850 1287 L850 98 Q850 65 830 42 Q809 20 781 20 L646 20 Q625 20 608 32 Q590 45 582 67 L397 537 Q363 625 315 769 L295 830 L275 892 Q250 967 235 1016 Q224 1026 215 1026 Q192 1026 192 1004 Q204 657 204 396 L204 98 Q204 65 182 43 Q162 20 133 20 L70 20 Q42 20 22 43 Q0 65 0 98 L0 1287 Q0 1319 22 1343 Q42 1365 70 1365 L227 1365 Q248 1365 265 1353 Q283 1339 291 1318 L467 865 Q533 691 631 388 L670 388 Q647 687 647 1000 L647 1287 Q647 1319 668 1343 Q689 1365 717 1365 L781 1365 Z M1489 499 Q1510 499 1527 482 Q1543 465 1543 439 Q1543 414 1527 397 Q1510 380 1489 380 L1087 380 Q1066 380 1051 397 Q1034 414 1034 439 Q1034 465 1051 482 Q1066 499 1087 499 L1489 499 Z M1286 1214 Q1220 1214 1185 1126 Q1159 1061 1159 974 Q1159 878 1192 814 Q1228 742 1287 742 Q1353 742 1386 815 Q1415 877 1415 979 Q1415 1070 1387 1134 Q1352 1214 1287 1214 L1286 1214 Z M1286 622 Q1151 622 1068 712 Q980 809 980 972 Q980 1138 1067 1237 Q1152 1333 1291 1333 L1293 1333 Q1430 1333 1511 1237 Q1592 1141 1592 985 Q1592 803 1501 707 Q1419 622 1286 622 Z " />
<glyph glyph-name="trademark" unicode="&#x2122;" horiz-adv-x="1076" d="M351 1681 Q372 1681 387 1666 Q402 1651 402 1630 Q402 1608 387 1593 Q372 1578 351 1578 L258 1578 L258 1191 Q258 1170 243 1155 Q228 1140 206 1140 L194 1140 Q173 1140 158 1155 Q144 1170 144 1191 L144 1578 L51 1578 Q30 1578 15 1593 Q0 1608 0 1630 Q0 1651 15 1666 Q30 1681 51 1681 L351 1681 Z M1031 1681 Q1050 1681 1063 1668 Q1076 1655 1076 1637 L1075 1184 Q1075 1166 1062 1153 Q1049 1140 1031 1140 Q1012 1140 999 1153 Q987 1165 987 1181 L987 1414 Q988 1562 988 1621 L941 1621 Q916 1455 906 1379 L870 1187 Q868 1171 855 1161 Q843 1151 827 1151 L761 1151 Q744 1151 732 1160 Q720 1171 717 1187 L680 1379 Q671 1455 646 1621 L600 1621 L600 1414 Q600 1359 601 1290 L601 1184 Q601 1166 588 1153 Q575 1140 556 1140 Q538 1140 525 1153 Q512 1166 512 1184 L512 1637 Q512 1655 524 1668 Q537 1681 555 1681 L679 1681 Q694 1681 707 1671 Q718 1662 722 1646 L743 1554 Q755 1496 776 1351 L813 1351 Q832 1496 844 1554 L865 1646 Q870 1662 881 1671 Q894 1681 909 1681 L1031 1681 Z " />
<glyph glyph-name="partialdiff" unicode="&#x2202;" horiz-adv-x="925" d="M643 506 Q650 535 650 563 Q650 628 612 685 Q556 768 462 771 L456 771 Q361 771 300 681 Q243 596 243 473 Q243 365 292 303 Q340 240 419 240 L421 240 Q500 240 562 322 Q618 394 643 506 Z M391 1561 Q503 1561 600 1509 Q697 1458 769 1363 Q925 1155 925 815 Q925 438 763 219 Q691 122 593 71 Q498 20 389 20 Q204 20 95 169 Q0 299 0 475 Q0 692 108 835 Q218 980 391 980 Q483 980 557 929 Q615 888 653 820 L686 820 L686 876 Q686 1076 597 1205 Q506 1339 354 1339 Q260 1339 177 1303 Q165 1298 152 1298 Q139 1298 125 1304 Q100 1316 89 1346 L73 1388 Q67 1403 67 1418 Q67 1432 72 1446 Q81 1474 106 1487 Q164 1519 226 1538 Q306 1561 391 1561 Z " />
<glyph glyph-name="Delta" unicode="&#x2206;" horiz-adv-x="979" d="M574 244 Q630 244 664 292 Q686 324 686 361 Q686 378 681 396 L575 790 Q555 880 538 959 Q515 1065 503 1125 Q498 1145 478 1145 Q459 1145 454 1125 Q442 1060 423 975 Q402 872 387 809 L279 395 Q274 377 274 360 Q274 323 297 291 Q330 244 385 244 L574 244 Z M979 161 L979 99 Q979 66 958 42 Q937 20 908 20 L71 20 Q42 20 22 42 Q0 66 0 99 L0 159 L325 1311 Q332 1336 352 1351 Q370 1367 393 1367 L597 1367 Q620 1367 638 1351 Q658 1336 665 1311 L979 161 Z " />
<glyph glyph-name="product" unicode="&#x220f;" horiz-adv-x="1152" d="M1085 1554 Q1112 1554 1132 1532 Q1152 1511 1152 1480 L1152 1402 Q1152 1372 1132 1349 Q1112 1328 1085 1328 Q1041 1328 1009 1294 Q979 1261 979 1214 L979 95 Q979 63 959 41 Q939 20 912 20 L824 20 Q797 20 777 41 Q757 63 757 95 L757 1214 Q757 1261 727 1294 Q695 1328 651 1328 L502 1328 Q457 1328 426 1294 Q395 1261 395 1214 L395 95 Q395 63 375 41 Q355 20 329 20 L240 20 Q212 20 193 40 Q173 63 173 95 L173 1214 Q173 1261 143 1293 Q112 1328 67 1328 Q39 1328 20 1349 Q0 1372 0 1402 L0 1480 Q0 1511 20 1533 Q39 1554 67 1554 L1085 1554 Z " />
<glyph glyph-name="summation" unicode="&#x2211;" horiz-adv-x="934" d="M865 246 Q893 246 914 224 Q934 201 934 169 L934 97 Q934 65 914 42 Q893 20 865 20 L70 20 Q42 20 21 43 Q0 65 0 97 L0 177 L362 713 Q382 743 382 781 L382 784 Q382 820 361 849 L20 1370 L20 1476 Q20 1509 42 1532 Q62 1554 90 1554 L815 1554 Q843 1554 863 1533 Q884 1509 884 1476 L884 1406 Q884 1373 863 1349 Q843 1328 815 1328 L365 1328 Q339 1328 339 1302 Q339 1295 343 1288 L634 840 Q648 819 648 794 Q647 768 634 748 L325 286 Q321 279 321 272 Q321 246 347 246 L865 246 Z " />
<glyph glyph-name="minus" unicode="&#x2212;" horiz-adv-x="852" d="M775 799 Q807 799 830 777 Q852 754 852 722 L852 716 Q852 684 830 662 Q807 639 775 639 L77 639 Q45 639 23 662 Q0 684 0 716 L0 722 Q0 754 23 777 Q45 799 77 799 L775 799 Z " />
<glyph glyph-name="radical" unicode="&#x221a;" horiz-adv-x="1042" d="M1012 1682 Q1025 1682 1033 1672 Q1039 1664 1039 1653 Q1039 1649 1038 1644 L636 -209 Q634 -219 627 -226 Q620 -232 610 -232 L491 -232 Q473 -232 466 -212 L174 649 L55 595 Q50 593 46 593 Q40 593 35 596 Q24 601 20 614 L4 662 Q2 667 2 671 Q2 678 6 685 Q10 697 19 702 L260 814 Q265 817 270 817 Q275 817 280 814 Q291 809 295 796 L478 217 Q491 176 503 125 Q508 105 513 83 Q516 67 527 28 L559 28 L565 53 L567 63 Q568 74 570 81 Q574 106 577 127 Q587 180 597 225 L894 1659 Q896 1670 903 1676 Q910 1682 919 1682 L1012 1682 Z " />
<glyph glyph-name="infinity" unicode="&#x221e;" horiz-adv-x="1256" d="M960 538 Q1024 538 1070 592 Q1114 645 1114 717 Q1114 794 1071 845 Q1028 897 964 897 Q908 897 851 855 Q814 828 760 769 Q741 748 741 720 Q741 692 759 671 Q783 642 800 625 Q825 600 846 583 Q903 538 958 538 L960 538 Z M294 538 Q348 538 405 579 Q442 607 497 667 Q515 688 515 715 Q515 743 498 764 Q473 793 456 809 Q433 835 410 852 Q353 897 298 897 Q232 897 186 843 Q142 790 142 717 Q142 641 185 589 Q229 538 292 538 L294 538 Z M960 382 Q877 382 789 449 Q753 476 712 518 Q687 544 627 611 L576 556 L540 517 Q499 474 465 449 Q378 382 280 382 Q156 382 78 477 Q0 571 0 717 Q0 857 81 953 Q165 1053 294 1053 Q378 1053 467 985 Q503 958 544 916 Q568 891 629 823 L680 879 L716 918 Q757 960 791 986 Q879 1053 977 1053 Q1100 1053 1178 957 Q1256 863 1256 717 Q1256 578 1175 481 Q1091 382 962 382 L960 382 Z " />
<glyph glyph-name="integral" unicode="&#x222b;" horiz-adv-x="580" d="M527 1692 Q550 1690 565 1671 Q577 1657 577 1640 Q577 1636 576 1631 L569 1581 Q567 1561 551 1548 Q536 1535 535 1535 Q443 1535 407 1466 Q366 1389 366 1142 Q366 986 380 682 Q387 533 390 449 Q394 316 394 196 Q394 -63 333 -186 Q296 -263 233 -302 Q177 -337 105 -337 Q76 -337 49 -333 Q26 -330 13 -311 Q2 -296 2 -278 Q2 -274 3 -270 L13 -212 Q16 -192 31 -179 Q48 -166 69 -166 L78 -166 Q135 -166 175 -110 Q224 -33 224 188 Q224 309 220 447 Q217 532 210 685 Q196 995 196 1162 Q196 1328 223 1436 Q249 1534 305 1604 Q377 1693 500 1693 Q513 1693 527 1692 Z " />
<glyph glyph-name="uni222E" unicode="&#x222e;" horiz-adv-x="976" d="M403 929 Q363 909 333 866 Q278 787 278 679 Q278 584 317 515 Q356 447 424 424 Q423 436 423 447 Q420 532 413 685 Q407 821 403 929 Z M573 930 Q577 822 583 682 Q590 533 593 449 L593 439 Q623 456 647 486 Q695 547 704 638 Q707 662 707 685 Q707 754 684 813 Q649 899 573 930 Z M400 1078 Q399 1124 399 1162 Q399 1328 426 1436 Q452 1534 508 1604 Q580 1693 703 1693 Q716 1693 730 1692 Q753 1690 768 1671 Q780 1657 780 1640 Q780 1636 779 1631 L772 1581 Q770 1561 754 1548 Q739 1535 738 1535 Q646 1535 610 1466 Q569 1389 569 1142 L569 1084 Q715 1072 822 995 Q976 885 976 688 Q976 498 828 382 Q729 304 597 280 L597 196 Q597 -63 536 -186 Q499 -263 436 -302 Q380 -337 308 -337 Q279 -337 252 -333 Q229 -330 216 -311 Q205 -296 205 -278 Q205 -274 206 -270 L216 -212 Q219 -192 234 -179 Q251 -166 272 -166 L281 -166 Q338 -166 378 -110 Q427 -33 427 188 L427 271 Q280 281 169 358 Q18 463 9 654 Q8 665 8 676 Q8 857 149 970 Q255 1055 400 1078 Z " />
<glyph glyph-name="approxequal" unicode="&#x2248;" horiz-adv-x="965" d="M10 793 Q1 807 1 825 L1 829 Q1 849 14 864 Q127 1007 268 1007 Q329 1007 389 982 Q410 973 438 958 L462 944 L486 932 L506 921 L527 909 Q556 894 575 886 Q637 858 695 858 Q775 858 850 931 Q868 948 891 948 L896 948 Q923 947 940 925 L946 919 Q958 903 960 881 Q960 861 948 844 Q899 777 837 740 Q769 700 697 700 Q638 700 576 726 Q555 734 525 750 L500 763 Q487 769 478 775 L456 785 L435 796 Q406 813 387 821 Q325 849 266 849 Q183 849 106 779 Q89 763 66 763 L58 763 Q30 766 13 790 L10 793 Z M949 472 Q962 456 963 435 L963 429 Q963 412 952 397 Q903 327 838 287 Q770 247 697 247 Q639 247 577 273 Q556 281 526 297 L502 309 Q488 317 479 321 L458 333 L436 344 Q408 360 388 368 Q326 396 264 396 Q186 396 110 327 Q91 311 68 311 L60 311 Q33 315 17 338 L14 342 Q4 357 4 376 L4 379 Q4 399 16 415 Q65 478 129 515 Q197 554 268 554 Q329 554 390 529 Q411 519 441 504 L464 491 L487 479 L509 468 L529 456 Q558 441 578 432 Q639 405 697 405 Q783 405 859 476 Q876 493 900 493 L905 493 Q932 492 949 472 Z " />
<glyph glyph-name="notequal" unicode="&#x2260;" horiz-adv-x="920" d="M254 50 Q238 20 203 20 L202 20 Q168 20 151 49 Q142 64 142 79 Q142 93 150 107 L169 139 Q178 156 178 171 Q178 188 168 203 Q149 235 113 235 L78 235 Q45 235 23 258 Q0 280 0 313 L0 314 Q0 347 23 370 Q45 392 78 392 L274 392 Q312 392 330 425 L422 592 Q430 606 430 621 Q430 637 420 654 Q401 686 365 686 L78 686 Q45 686 23 708 Q0 731 0 764 L0 765 Q0 798 23 821 Q45 844 78 844 L525 844 Q563 844 581 878 L662 1028 Q678 1059 713 1059 Q747 1059 764 1030 Q773 1015 773 1000 Q773 986 765 972 L746 939 Q737 923 737 907 Q737 891 747 876 Q766 844 802 844 L841 844 Q874 844 897 821 Q920 798 920 765 L920 764 Q920 731 897 708 Q874 686 841 686 L642 686 Q604 686 586 653 L494 488 Q485 472 485 456 Q485 440 494 424 Q514 392 549 392 L841 392 Q874 392 897 370 Q920 347 920 314 L920 313 Q920 280 897 258 Q874 235 841 235 L391 235 Q353 235 334 202 L254 50 Z " />
<glyph glyph-name="lessequal" unicode="&#x2264;" horiz-adv-x="853" d="M778 165 Q809 165 830 144 Q850 123 850 92 Q850 62 830 41 Q809 20 778 20 L75 20 Q44 20 23 41 Q2 62 2 92 Q2 123 23 144 Q44 165 75 165 L778 165 Z M803 471 Q825 463 840 443 Q853 423 853 398 L853 397 Q853 355 817 332 Q797 318 775 318 Q760 318 744 325 L48 618 Q26 628 13 647 Q0 667 0 690 L0 754 Q0 777 13 797 Q26 817 48 826 L743 1118 Q758 1124 773 1124 Q795 1124 816 1110 Q850 1087 850 1045 Q850 1021 837 1001 Q824 981 801 973 L214 742 Q200 735 200 721 Q200 707 214 700 L803 471 Z " />
<glyph glyph-name="greaterequal" unicode="&#x2265;" horiz-adv-x="853" d="M778 165 Q809 165 830 144 Q850 123 850 92 Q850 62 830 41 Q809 20 778 20 L75 20 Q44 20 23 41 Q2 62 2 92 Q2 123 23 144 Q44 165 75 165 L778 165 Z M804 825 Q827 817 839 797 Q853 777 853 754 L853 690 Q853 667 839 647 Q827 628 804 618 L109 325 Q93 318 78 318 Q56 318 35 332 Q0 355 0 397 L0 398 Q0 423 15 443 Q27 463 50 471 L642 701 Q652 711 652 721 Q652 731 642 741 L51 973 Q29 981 16 1001 Q2 1021 2 1045 Q2 1087 37 1110 Q58 1124 80 1124 Q95 1124 110 1118 L804 825 Z " />
<glyph glyph-name="&amp;#xf001;" unicode="&#xf001;" horiz-adv-x="919" d="M121 724 Q121 775 71 775 Q42 775 21 796 Q0 817 0 848 L0 886 Q0 916 21 938 Q42 959 71 959 Q121 959 121 1010 L121 1021 Q121 1211 247 1318 Q369 1423 578 1423 Q672 1423 760 1398 Q788 1390 802 1365 Q812 1348 812 1329 Q812 1320 810 1311 L798 1262 Q790 1231 765 1215 Q748 1205 729 1205 Q720 1205 711 1207 Q651 1223 586 1223 Q364 1223 364 1013 L364 1010 Q364 959 414 959 L848 959 Q877 959 898 938 Q919 916 919 886 L919 93 Q919 63 898 41 Q877 20 848 20 L746 20 Q716 20 695 41 Q675 63 675 93 L675 724 Q675 775 624 775 L416 775 Q366 775 366 724 L366 93 Q366 63 345 41 Q324 20 294 20 L193 20 Q163 20 142 41 Q121 63 121 93 L121 724 Z " />
<glyph glyph-name="&amp;#xfb01;" unicode="&#xfb01;" horiz-adv-x="919" d="M121 724 Q121 775 71 775 Q42 775 21 796 Q0 817 0 848 L0 886 Q0 916 21 938 Q42 959 71 959 Q121 959 121 1010 L121 1021 Q121 1211 247 1318 Q369 1423 578 1423 Q672 1423 760 1398 Q788 1390 802 1365 Q812 1348 812 1329 Q812 1320 810 1311 L798 1262 Q790 1231 765 1215 Q748 1205 729 1205 Q720 1205 711 1207 Q651 1223 586 1223 Q364 1223 364 1013 L364 1010 Q364 959 414 959 L848 959 Q877 959 898 938 Q919 916 919 886 L919 93 Q919 63 898 41 Q877 20 848 20 L746 20 Q716 20 695 41 Q675 63 675 93 L675 724 Q675 775 624 775 L416 775 Q366 775 366 724 L366 93 Q366 63 345 41 Q324 20 294 20 L193 20 Q163 20 142 41 Q121 63 121 93 L121 724 Z " />
<glyph glyph-name="&amp;#xf002;" unicode="&#xf002;" horiz-adv-x="907" d="M120 700 Q120 750 70 750 Q41 750 20 771 Q0 791 0 820 L0 857 Q0 886 20 907 Q41 927 70 927 Q120 927 120 977 L120 988 Q120 1165 250 1275 Q372 1377 580 1377 Q739 1377 863 1326 Q907 1308 907 1261 L907 90 Q907 61 887 40 Q866 20 837 20 L737 20 Q707 20 687 40 Q666 61 666 90 L666 1169 Q619 1198 539 1198 Q359 1198 359 984 L359 977 Q359 927 409 927 L453 927 Q482 927 503 907 Q523 886 523 857 L523 820 Q523 791 503 771 Q482 750 453 750 L410 750 Q361 750 361 700 L361 90 Q361 61 340 40 Q320 20 290 20 L190 20 Q161 20 140 40 Q120 61 120 90 L120 700 Z " />
<glyph glyph-name="&amp;#xfb02;" unicode="&#xfb02;" horiz-adv-x="907" d="M120 700 Q120 750 70 750 Q41 750 20 771 Q0 791 0 820 L0 857 Q0 886 20 907 Q41 927 70 927 Q120 927 120 977 L120 988 Q120 1165 250 1275 Q372 1377 580 1377 Q739 1377 863 1326 Q907 1308 907 1261 L907 90 Q907 61 887 40 Q866 20 837 20 L737 20 Q707 20 687 40 Q666 61 666 90 L666 1169 Q619 1198 539 1198 Q359 1198 359 984 L359 977 Q359 927 409 927 L453 927 Q482 927 503 907 Q523 886 523 857 L523 820 Q523 791 503 771 Q482 750 453 750 L410 750 Q361 750 361 700 L361 90 Q361 61 340 40 Q320 20 290 20 L190 20 Q161 20 140 40 Q120 61 120 90 L120 700 Z " />
<glyph glyph-name="Agrave" unicode="&#xc0;" horiz-adv-x="1093" d="M619 570 Q654 570 673 599 Q688 617 688 640 Q688 650 685 660 L621 900 Q607 950 590 1024 Q584 1050 577 1087 L569 1119 L560 1161 Q544 1165 527 1165 Q519 1165 510 1164 Q502 1125 494 1087 L481 1022 Q465 945 454 900 L393 659 Q390 649 390 640 Q390 618 405 598 Q425 570 459 570 L619 570 Z M1086 102 Q1089 90 1089 79 Q1089 54 1074 31 Q1054 0 1020 0 L889 0 Q867 0 851 14 Q832 30 825 53 L754 316 Q740 368 688 368 L391 368 Q339 368 325 315 L260 55 Q253 30 235 15 Q218 0 196 0 L77 0 Q43 0 23 31 Q8 54 8 79 Q8 90 11 102 L354 1339 Q361 1364 380 1380 Q397 1394 419 1394 L673 1394 Q695 1394 713 1380 Q731 1364 738 1339 L1086 102 Z M615 1656 Q626 1637 626 1617 Q626 1598 615 1579 Q594 1540 552 1540 L546 1540 Q511 1540 489 1568 L392 1696 Q374 1719 374 1744 Q374 1761 383 1779 Q403 1823 449 1823 L483 1823 Q526 1823 546 1785 L615 1656 Z " />
<glyph glyph-name="Aacute" unicode="&#xc1;" horiz-adv-x="1093" d="M619 570 Q654 570 673 599 Q688 617 688 640 Q688 650 685 660 L621 900 Q607 950 590 1024 Q584 1050 577 1087 L569 1119 L560 1161 Q544 1165 527 1165 Q519 1165 510 1164 Q502 1125 494 1087 L481 1022 Q465 945 454 900 L393 659 Q390 649 390 640 Q390 618 405 598 Q425 570 459 570 L619 570 Z M1086 102 Q1089 90 1089 79 Q1089 54 1074 31 Q1054 0 1020 0 L889 0 Q867 0 851 14 Q832 30 825 53 L754 316 Q740 368 688 368 L391 368 Q339 368 325 315 L260 55 Q253 30 235 15 Q218 0 196 0 L77 0 Q43 0 23 31 Q8 54 8 79 Q8 90 11 102 L354 1339 Q361 1364 380 1380 Q397 1394 419 1394 L673 1394 Q695 1394 713 1380 Q731 1364 738 1339 L1086 102 Z M528 1785 Q548 1823 591 1823 L625 1823 Q671 1823 691 1779 Q700 1761 700 1744 Q700 1719 682 1696 L585 1568 Q563 1540 528 1540 L522 1540 Q480 1540 459 1579 Q448 1598 448 1617 Q448 1637 459 1656 L528 1785 Z " />
<glyph glyph-name="Acircumflex" unicode="&#xc2;" horiz-adv-x="1093" d="M619 570 Q654 570 673 599 Q688 617 688 640 Q688 650 685 660 L621 900 Q607 950 590 1024 Q584 1050 577 1087 L569 1119 L560 1161 Q544 1165 527 1165 Q519 1165 510 1164 Q502 1125 494 1087 L481 1022 Q465 945 454 900 L393 659 Q390 649 390 640 Q390 618 405 598 Q425 570 459 570 L619 570 Z M1086 102 Q1089 90 1089 79 Q1089 54 1074 31 Q1054 0 1020 0 L889 0 Q867 0 851 14 Q832 30 825 53 L754 316 Q740 368 688 368 L391 368 Q339 368 325 315 L260 55 Q253 30 235 15 Q218 0 196 0 L77 0 Q43 0 23 31 Q8 54 8 79 Q8 90 11 102 L354 1339 Q361 1364 380 1380 Q397 1394 419 1394 L673 1394 Q695 1394 713 1380 Q731 1364 738 1339 L1086 102 Z M816 1610 Q824 1598 824 1586 Q824 1576 818 1566 Q805 1544 780 1544 L730 1544 Q704 1544 693 1566 L603 1729 L575 1729 L485 1566 Q472 1544 447 1544 L397 1544 Q372 1544 359 1567 Q353 1577 353 1587 Q353 1598 361 1610 L484 1807 Q497 1827 521 1827 L657 1827 Q681 1827 694 1806 L816 1610 Z " />
<glyph glyph-name="Atilde" unicode="&#xc3;" horiz-adv-x="1093" d="M619 570 Q654 570 673 599 Q688 617 688 640 Q688 650 685 660 L621 900 Q607 950 590 1024 Q584 1050 577 1087 L569 1119 L560 1161 Q544 1165 527 1165 Q519 1165 510 1164 Q502 1125 494 1087 L481 1022 Q465 945 454 900 L393 659 Q390 649 390 640 Q390 618 405 598 Q425 570 459 570 L619 570 Z M1086 102 Q1089 90 1089 79 Q1089 54 1074 31 Q1054 0 1020 0 L889 0 Q867 0 851 14 Q832 30 825 53 L754 316 Q740 368 688 368 L391 368 Q339 368 325 315 L260 55 Q253 30 235 15 Q218 0 196 0 L77 0 Q43 0 23 31 Q8 54 8 79 Q8 90 11 102 L354 1339 Q361 1364 380 1380 Q397 1394 419 1394 L673 1394 Q695 1394 713 1380 Q731 1364 738 1339 L1086 102 Z M324 1584 Q306 1584 293 1598 Q281 1611 281 1628 L281 1631 Q289 1725 330 1777 Q368 1823 426 1823 Q456 1823 489 1810 Q502 1805 518 1798 L548 1782 L560 1776 L571 1769 Q585 1760 594 1755 Q622 1740 643 1740 Q694 1740 708 1799 Q712 1815 723 1824 Q735 1833 750 1833 L774 1833 Q793 1833 806 1820 Q817 1807 817 1791 L817 1788 Q804 1601 671 1601 Q638 1601 603 1615 Q590 1619 573 1628 L540 1644 Q478 1680 454 1680 Q408 1680 393 1617 Q389 1602 378 1593 Q366 1584 351 1584 L324 1584 Z " />
<glyph glyph-name="Adieresis" unicode="&#xc4;" horiz-adv-x="1093" d="M619 570 Q654 570 673 599 Q688 617 688 640 Q688 650 685 660 L621 900 Q607 950 590 1024 Q584 1050 577 1087 L569 1119 L560 1161 Q544 1165 527 1165 Q519 1165 510 1164 Q502 1125 494 1087 L481 1022 Q465 945 454 900 L393 659 Q390 649 390 640 Q390 618 405 598 Q425 570 459 570 L619 570 Z M1086 102 Q1089 90 1089 79 Q1089 54 1074 31 Q1054 0 1020 0 L889 0 Q867 0 851 14 Q832 30 825 53 L754 316 Q740 368 688 368 L391 368 Q339 368 325 315 L260 55 Q253 30 235 15 Q218 0 196 0 L77 0 Q43 0 23 31 Q8 54 8 79 Q8 90 11 102 L354 1339 Q361 1364 380 1380 Q397 1394 419 1394 L673 1394 Q695 1394 713 1380 Q731 1364 738 1339 L1086 102 Z M761 1572 Q711 1572 676 1610 Q641 1648 641 1703 Q641 1759 675 1796 Q711 1832 765 1832 Q815 1832 849 1796 Q884 1759 884 1703 Q884 1648 850 1609 Q815 1572 765 1572 L761 1572 Z M337 1572 Q285 1572 249 1610 Q213 1648 213 1703 Q213 1758 250 1796 Q286 1832 339 1832 Q388 1832 422 1796 Q457 1758 457 1703 Q457 1648 422 1609 Q388 1572 339 1572 L337 1572 Z " />
<glyph glyph-name="Aring" unicode="&#xc5;" horiz-adv-x="1093" d="M619 570 Q654 570 673 599 Q688 617 688 640 Q688 650 685 660 L621 900 Q607 950 590 1024 Q584 1050 577 1087 L569 1119 L560 1161 Q544 1165 527 1165 Q519 1165 510 1164 Q502 1125 494 1087 L481 1022 Q465 945 454 900 L393 659 Q390 649 390 640 Q390 618 405 598 Q425 570 459 570 L619 570 Z M1086 102 Q1089 90 1089 79 Q1089 54 1074 31 Q1054 0 1020 0 L889 0 Q867 0 851 14 Q832 30 825 53 L754 316 Q740 368 688 368 L391 368 Q339 368 325 315 L260 55 Q253 30 235 15 Q218 0 196 0 L77 0 Q43 0 23 31 Q8 54 8 79 Q8 90 11 102 L354 1339 Q361 1364 380 1380 Q397 1394 419 1394 L673 1394 Q695 1394 713 1380 Q731 1364 738 1339 L1086 102 Z M543 1547 Q590 1547 618 1582 Q644 1612 644 1658 Q644 1702 619 1733 Q591 1769 543 1769 L541 1769 Q495 1769 468 1732 Q443 1702 443 1656 Q443 1614 469 1582 Q499 1547 543 1547 Z M546 1828 Q635 1828 685 1779 Q732 1733 732 1658 Q732 1584 682 1538 Q631 1488 545 1488 Q456 1488 402 1538 Q352 1583 352 1656 Q352 1730 401 1778 Q453 1828 545 1828 L546 1828 Z " />
<glyph glyph-name="Egrave" unicode="&#xc8;" horiz-adv-x="949" d="M827 226 Q855 226 875 204 Q896 180 896 147 L896 79 Q896 45 875 22 Q855 0 827 0 L178 0 Q151 0 130 23 Q109 45 109 79 L109 1315 Q109 1348 130 1372 Q151 1394 178 1394 L800 1394 Q828 1394 848 1372 Q869 1348 869 1315 L869 1246 Q869 1213 848 1189 Q828 1168 800 1168 L430 1168 Q402 1168 382 1147 Q363 1126 363 1096 L363 902 Q363 872 382 851 Q402 830 430 830 L772 830 Q799 830 820 808 Q840 785 840 751 L840 685 Q840 651 820 628 Q799 606 772 606 L430 606 Q402 606 382 585 Q363 564 363 534 L363 298 Q363 268 382 247 Q402 226 430 226 L827 226 Z M569 1656 Q580 1637 580 1617 Q580 1598 569 1579 Q548 1540 506 1540 L500 1540 Q465 1540 443 1568 L346 1696 Q328 1719 328 1744 Q328 1761 337 1779 Q357 1823 403 1823 L437 1823 Q480 1823 500 1785 L569 1656 Z " />
<glyph glyph-name="Eacute" unicode="&#xc9;" horiz-adv-x="949" d="M827 226 Q855 226 875 204 Q896 180 896 147 L896 79 Q896 45 875 22 Q855 0 827 0 L178 0 Q151 0 130 23 Q109 45 109 79 L109 1315 Q109 1348 130 1372 Q151 1394 178 1394 L800 1394 Q828 1394 848 1372 Q869 1348 869 1315 L869 1246 Q869 1213 848 1189 Q828 1168 800 1168 L430 1168 Q402 1168 382 1147 Q363 1126 363 1096 L363 902 Q363 872 382 851 Q402 830 430 830 L772 830 Q799 830 820 808 Q840 785 840 751 L840 685 Q840 651 820 628 Q799 606 772 606 L430 606 Q402 606 382 585 Q363 564 363 534 L363 298 Q363 268 382 247 Q402 226 430 226 L827 226 Z M506 1785 Q526 1823 569 1823 L603 1823 Q649 1823 669 1779 Q678 1761 678 1744 Q678 1719 660 1696 L563 1568 Q541 1540 506 1540 L500 1540 Q458 1540 437 1579 Q426 1598 426 1617 Q426 1637 437 1656 L506 1785 Z " />
<glyph glyph-name="Ecircumflex" unicode="&#xca;" horiz-adv-x="949" d="M827 226 Q855 226 875 204 Q896 180 896 147 L896 79 Q896 45 875 22 Q855 0 827 0 L178 0 Q151 0 130 23 Q109 45 109 79 L109 1315 Q109 1348 130 1372 Q151 1394 178 1394 L800 1394 Q828 1394 848 1372 Q869 1348 869 1315 L869 1246 Q869 1213 848 1189 Q828 1168 800 1168 L430 1168 Q402 1168 382 1147 Q363 1126 363 1096 L363 902 Q363 872 382 851 Q402 830 430 830 L772 830 Q799 830 820 808 Q840 785 840 751 L840 685 Q840 651 820 628 Q799 606 772 606 L430 606 Q402 606 382 585 Q363 564 363 534 L363 298 Q363 268 382 247 Q402 226 430 226 L827 226 Z M770 1610 Q778 1598 778 1586 Q778 1576 772 1566 Q759 1544 734 1544 L684 1544 Q658 1544 647 1566 L557 1729 L529 1729 L439 1566 Q426 1544 401 1544 L351 1544 Q326 1544 313 1567 Q307 1577 307 1587 Q307 1598 315 1610 L438 1807 Q451 1827 475 1827 L611 1827 Q635 1827 648 1806 L770 1610 Z " />
<glyph glyph-name="Edieresis" unicode="&#xcb;" horiz-adv-x="949" d="M827 226 Q855 226 875 204 Q896 180 896 147 L896 79 Q896 45 875 22 Q855 0 827 0 L178 0 Q151 0 130 23 Q109 45 109 79 L109 1315 Q109 1348 130 1372 Q151 1394 178 1394 L800 1394 Q828 1394 848 1372 Q869 1348 869 1315 L869 1246 Q869 1213 848 1189 Q828 1168 800 1168 L430 1168 Q402 1168 382 1147 Q363 1126 363 1096 L363 902 Q363 872 382 851 Q402 830 430 830 L772 830 Q799 830 820 808 Q840 785 840 751 L840 685 Q840 651 820 628 Q799 606 772 606 L430 606 Q402 606 382 585 Q363 564 363 534 L363 298 Q363 268 382 247 Q402 226 430 226 L827 226 Z M715 1572 Q665 1572 630 1610 Q595 1648 595 1703 Q595 1759 629 1796 Q665 1832 719 1832 Q769 1832 803 1796 Q838 1759 838 1703 Q838 1648 804 1609 Q769 1572 719 1572 L715 1572 Z M291 1572 Q239 1572 203 1610 Q167 1648 167 1703 Q167 1758 204 1796 Q240 1832 293 1832 Q342 1832 376 1796 Q411 1758 411 1703 Q411 1648 376 1609 Q342 1572 293 1572 L291 1572 Z " />
<glyph glyph-name="Igrave" unicode="&#xcc;" horiz-adv-x="547" d="M351 1394 Q381 1394 402 1371 Q424 1348 424 1316 L424 78 Q424 45 402 23 Q381 0 351 0 L242 0 Q211 0 189 23 Q168 45 168 78 L168 1316 Q168 1348 190 1371 Q211 1394 242 1394 L351 1394 Z M362 1656 Q373 1637 373 1617 Q373 1598 362 1579 Q341 1540 299 1540 L293 1540 Q258 1540 236 1568 L139 1696 Q121 1719 121 1744 Q121 1761 130 1779 Q150 1823 196 1823 L230 1823 Q273 1823 293 1785 L362 1656 Z " />
<glyph glyph-name="Iacute" unicode="&#xcd;" horiz-adv-x="463" d="M292 1394 Q322 1394 343 1371 Q365 1348 365 1316 L365 78 Q365 45 343 23 Q322 0 292 0 L183 0 Q152 0 130 23 Q109 45 109 78 L109 1316 Q109 1348 131 1371 Q152 1394 183 1394 L292 1394 Z M240 1785 Q260 1823 303 1823 L337 1823 Q383 1823 403 1779 Q412 1761 412 1744 Q412 1719 394 1696 L297 1568 Q275 1540 240 1540 L234 1540 Q192 1540 171 1579 Q160 1598 160 1617 Q160 1637 171 1656 L240 1785 Z " />
<glyph glyph-name="Icircumflex" unicode="&#xce;" horiz-adv-x="475" d="M288 1394 Q318 1394 339 1371 Q361 1348 361 1316 L361 78 Q361 45 339 23 Q318 0 288 0 L179 0 Q148 0 126 23 Q105 45 105 78 L105 1316 Q105 1348 127 1371 Q148 1394 179 1394 L288 1394 Z M501 1610 Q509 1598 509 1586 Q509 1576 503 1566 Q490 1544 465 1544 L415 1544 Q389 1544 378 1566 L288 1729 L260 1729 L170 1566 Q157 1544 132 1544 L82 1544 Q57 1544 44 1567 Q38 1577 38 1587 Q38 1598 46 1610 L169 1807 Q182 1827 206 1827 L342 1827 Q366 1827 379 1806 L501 1610 Z " />
<glyph glyph-name="Idieresis" unicode="&#xcf;" horiz-adv-x="521" d="M309 1394 Q339 1394 360 1371 Q382 1348 382 1316 L382 78 Q382 45 360 23 Q339 0 309 0 L200 0 Q169 0 147 23 Q126 45 126 78 L126 1316 Q126 1348 148 1371 Q169 1394 200 1394 L309 1394 Z M467 1572 Q417 1572 382 1610 Q347 1648 347 1703 Q347 1759 381 1796 Q417 1832 471 1832 Q521 1832 555 1796 Q590 1759 590 1703 Q590 1648 556 1609 Q521 1572 471 1572 L467 1572 Z M43 1572 Q-9 1572 -45 1610 Q-81 1648 -81 1703 Q-81 1758 -44 1796 Q-8 1832 45 1832 Q94 1832 128 1796 Q163 1758 163 1703 Q163 1648 128 1609 Q94 1572 45 1572 L43 1572 Z " />
<glyph glyph-name="Ntilde" unicode="&#xd1;" horiz-adv-x="1304" d="M109 1316 Q109 1348 131 1371 Q152 1394 181 1394 L390 1394 Q432 1394 453 1355 L705 879 Q830 644 922 395 Q922 377 944 377 Q969 377 969 395 Q969 399 968 404 Q943 647 943 994 L943 1316 Q943 1348 964 1371 Q985 1394 1014 1394 L1110 1394 Q1139 1394 1160 1371 Q1181 1348 1181 1316 L1181 78 Q1181 45 1160 23 Q1139 0 1110 0 L937 0 Q895 0 874 39 L613 542 Q473 810 382 1043 Q377 1059 363 1059 Q359 1059 353 1057 Q336 1051 336 1034 Q348 751 348 412 L348 78 Q348 45 326 23 Q305 0 276 0 L181 0 Q152 0 131 23 Q109 45 109 78 L109 1316 Z M420 1584 Q402 1584 389 1598 Q377 1611 377 1628 L377 1631 Q385 1725 426 1777 Q464 1823 522 1823 Q552 1823 585 1810 Q598 1805 614 1798 L644 1782 L656 1776 L667 1769 Q681 1760 690 1755 Q718 1740 739 1740 Q790 1740 804 1799 Q808 1815 819 1824 Q831 1833 846 1833 L870 1833 Q889 1833 902 1820 Q913 1807 913 1791 L913 1788 Q900 1601 767 1601 Q734 1601 699 1615 Q686 1619 669 1628 L636 1644 Q574 1680 550 1680 Q504 1680 489 1617 Q485 1602 474 1593 Q462 1584 447 1584 L420 1584 Z " />
<glyph glyph-name="Ograve" unicode="&#xd2;" horiz-adv-x="1282" d="M625 218 Q780 218 869 366 Q953 504 953 725 Q953 933 870 1070 Q779 1223 623 1223 Q469 1223 378 1074 Q294 937 294 716 Q294 496 380 360 Q471 218 625 218 Z M631 1441 Q905 1441 1067 1234 Q1219 1038 1219 735 Q1219 393 1050 195 Q885 0 610 0 Q343 0 183 203 Q28 401 28 709 Q28 1029 194 1233 Q361 1441 631 1441 Z M690 1656 Q701 1637 701 1617 Q701 1598 690 1579 Q669 1540 627 1540 L621 1540 Q586 1540 564 1568 L467 1696 Q449 1719 449 1744 Q449 1761 458 1779 Q478 1823 524 1823 L558 1823 Q601 1823 621 1785 L690 1656 Z " />
<glyph glyph-name="Oacute" unicode="&#xd3;" horiz-adv-x="1282" d="M625 218 Q780 218 869 366 Q953 504 953 725 Q953 933 870 1070 Q779 1223 623 1223 Q469 1223 378 1074 Q294 937 294 716 Q294 496 380 360 Q471 218 625 218 Z M631 1441 Q905 1441 1067 1234 Q1219 1038 1219 735 Q1219 393 1050 195 Q885 0 610 0 Q343 0 183 203 Q28 401 28 709 Q28 1029 194 1233 Q361 1441 631 1441 Z M627 1785 Q647 1823 690 1823 L724 1823 Q770 1823 790 1779 Q799 1761 799 1744 Q799 1719 781 1696 L684 1568 Q662 1540 627 1540 L621 1540 Q579 1540 558 1579 Q547 1598 547 1617 Q547 1637 558 1656 L627 1785 Z " />
<glyph glyph-name="Ocircumflex" unicode="&#xd4;" horiz-adv-x="1282" d="M625 218 Q780 218 869 366 Q953 504 953 725 Q953 933 870 1070 Q779 1223 623 1223 Q469 1223 378 1074 Q294 937 294 716 Q294 496 380 360 Q471 218 625 218 Z M631 1441 Q905 1441 1067 1234 Q1219 1038 1219 735 Q1219 393 1050 195 Q885 0 610 0 Q343 0 183 203 Q28 401 28 709 Q28 1029 194 1233 Q361 1441 631 1441 Z M891 1610 Q899 1598 899 1586 Q899 1576 893 1566 Q880 1544 855 1544 L805 1544 Q779 1544 768 1566 L678 1729 L650 1729 L560 1566 Q547 1544 522 1544 L472 1544 Q447 1544 434 1567 Q428 1577 428 1587 Q428 1598 436 1610 L559 1807 Q572 1827 596 1827 L732 1827 Q756 1827 769 1806 L891 1610 Z " />
<glyph glyph-name="Otilde" unicode="&#xd5;" horiz-adv-x="1282" d="M625 218 Q780 218 869 366 Q953 504 953 725 Q953 933 870 1070 Q779 1223 623 1223 Q469 1223 378 1074 Q294 937 294 716 Q294 496 380 360 Q471 218 625 218 Z M631 1441 Q905 1441 1067 1234 Q1219 1038 1219 735 Q1219 393 1050 195 Q885 0 610 0 Q343 0 183 203 Q28 401 28 709 Q28 1029 194 1233 Q361 1441 631 1441 Z M399 1584 Q381 1584 368 1598 Q356 1611 356 1628 L356 1631 Q364 1725 405 1777 Q443 1823 501 1823 Q531 1823 564 1810 Q577 1805 593 1798 L623 1782 L635 1776 L646 1769 Q660 1760 669 1755 Q697 1740 718 1740 Q769 1740 783 1799 Q787 1815 798 1824 Q810 1833 825 1833 L849 1833 Q868 1833 881 1820 Q892 1807 892 1791 L892 1788 Q879 1601 746 1601 Q713 1601 678 1615 Q665 1619 648 1628 L615 1644 Q553 1680 529 1680 Q483 1680 468 1617 Q464 1602 453 1593 Q441 1584 426 1584 L399 1584 Z " />
<glyph glyph-name="Odieresis" unicode="&#xd6;" horiz-adv-x="1282" d="M625 218 Q780 218 869 366 Q953 504 953 725 Q953 933 870 1070 Q779 1223 623 1223 Q469 1223 378 1074 Q294 937 294 716 Q294 496 380 360 Q471 218 625 218 Z M631 1441 Q905 1441 1067 1234 Q1219 1038 1219 735 Q1219 393 1050 195 Q885 0 610 0 Q343 0 183 203 Q28 401 28 709 Q28 1029 194 1233 Q361 1441 631 1441 Z M836 1572 Q786 1572 751 1610 Q716 1648 716 1703 Q716 1759 750 1796 Q786 1832 840 1832 Q890 1832 924 1796 Q959 1759 959 1703 Q959 1648 925 1609 Q890 1572 840 1572 L836 1572 Z M412 1572 Q360 1572 324 1610 Q288 1648 288 1703 Q288 1758 325 1796 Q361 1832 414 1832 Q463 1832 497 1796 Q532 1758 532 1703 Q532 1648 497 1609 Q463 1572 414 1572 L412 1572 Z " />
<glyph glyph-name="Ugrave" unicode="&#xd9;" horiz-adv-x="1243" d="M1061 1417 Q1091 1417 1113 1394 Q1134 1372 1134 1339 L1134 633 Q1134 315 993 153 Q858 0 603 0 Q93 0 93 637 L93 1339 Q93 1372 114 1394 Q136 1417 166 1417 L280 1417 Q310 1417 331 1394 Q353 1372 353 1339 L353 611 Q353 422 419 322 Q486 220 613 220 Q876 220 876 611 L876 1339 Q876 1372 898 1394 Q919 1417 949 1417 L1061 1417 Z M680 1656 Q691 1637 691 1617 Q691 1598 680 1579 Q659 1540 617 1540 L611 1540 Q576 1540 554 1568 L457 1696 Q439 1719 439 1744 Q439 1761 448 1779 Q468 1823 514 1823 L548 1823 Q591 1823 611 1785 L680 1656 Z " />
<glyph glyph-name="Uacute" unicode="&#xda;" horiz-adv-x="1243" d="M1061 1417 Q1091 1417 1113 1394 Q1134 1372 1134 1339 L1134 633 Q1134 315 993 153 Q858 0 603 0 Q93 0 93 637 L93 1339 Q93 1372 114 1394 Q136 1417 166 1417 L280 1417 Q310 1417 331 1394 Q353 1372 353 1339 L353 611 Q353 422 419 322 Q486 220 613 220 Q876 220 876 611 L876 1339 Q876 1372 898 1394 Q919 1417 949 1417 L1061 1417 Z M617 1785 Q637 1823 680 1823 L714 1823 Q760 1823 780 1779 Q789 1761 789 1744 Q789 1719 771 1696 L674 1568 Q652 1540 617 1540 L611 1540 Q569 1540 548 1579 Q537 1598 537 1617 Q537 1637 548 1656 L617 1785 Z " />
<glyph glyph-name="Ucircumflex" unicode="&#xdb;" horiz-adv-x="1243" d="M1061 1417 Q1091 1417 1113 1394 Q1134 1372 1134 1339 L1134 633 Q1134 315 993 153 Q858 0 603 0 Q93 0 93 637 L93 1339 Q93 1372 114 1394 Q136 1417 166 1417 L280 1417 Q310 1417 331 1394 Q353 1372 353 1339 L353 611 Q353 422 419 322 Q486 220 613 220 Q876 220 876 611 L876 1339 Q876 1372 898 1394 Q919 1417 949 1417 L1061 1417 Z M881 1610 Q889 1598 889 1586 Q889 1576 883 1566 Q870 1544 845 1544 L795 1544 Q769 1544 758 1566 L668 1729 L640 1729 L550 1566 Q537 1544 512 1544 L462 1544 Q437 1544 424 1567 Q418 1577 418 1587 Q418 1598 426 1610 L549 1807 Q562 1827 586 1827 L722 1827 Q746 1827 759 1806 L881 1610 Z " />
<glyph glyph-name="Udieresis" unicode="&#xdc;" horiz-adv-x="1243" d="M1061 1417 Q1091 1417 1113 1394 Q1134 1372 1134 1339 L1134 633 Q1134 315 993 153 Q858 0 603 0 Q93 0 93 637 L93 1339 Q93 1372 114 1394 Q136 1417 166 1417 L280 1417 Q310 1417 331 1394 Q353 1372 353 1339 L353 611 Q353 422 419 322 Q486 220 613 220 Q876 220 876 611 L876 1339 Q876 1372 898 1394 Q919 1417 949 1417 L1061 1417 Z M826 1572 Q776 1572 741 1610 Q706 1648 706 1703 Q706 1759 740 1796 Q776 1832 830 1832 Q880 1832 914 1796 Q949 1759 949 1703 Q949 1648 915 1609 Q880 1572 830 1572 L826 1572 Z M402 1572 Q350 1572 314 1610 Q278 1648 278 1703 Q278 1758 315 1796 Q351 1832 404 1832 Q453 1832 487 1796 Q522 1758 522 1703 Q522 1648 487 1609 Q453 1572 404 1572 L402 1572 Z " />
<glyph glyph-name="Yacute" unicode="&#xdd;" horiz-adv-x="922" d="M924 1394 Q966 1394 988 1355 Q999 1336 999 1316 Q999 1297 988 1276 L640 609 Q627 583 627 553 L627 79 Q627 46 604 23 Q583 0 553 0 L443 0 Q412 0 391 23 Q369 46 369 79 L369 543 Q369 572 357 597 L20 1278 Q11 1297 11 1315 Q11 1336 22 1356 Q44 1394 86 1394 L209 1394 Q232 1394 250 1381 Q269 1367 279 1345 L389 1062 Q431 955 485 804 Q491 791 529 781 L539 805 Q569 897 633 1062 L742 1345 Q750 1367 770 1381 Q788 1394 810 1394 L924 1394 Z M508 1785 Q528 1823 571 1823 L605 1823 Q651 1823 671 1779 Q680 1761 680 1744 Q680 1719 662 1696 L565 1568 Q543 1540 508 1540 L502 1540 Q460 1540 439 1579 Q428 1598 428 1617 Q428 1637 439 1656 L508 1785 Z " />
<glyph glyph-name="agrave" unicode="&#xe0;" horiz-adv-x="934" d="M594 443 Q594 473 574 494 Q553 514 525 514 L522 514 Q399 508 320 466 Q221 415 221 325 Q221 257 291 218 Q347 188 413 188 Q474 188 523 227 Q570 264 589 324 L589 325 Q594 351 594 383 L594 443 Z M443 1047 Q658 1047 759 921 Q846 814 846 619 L846 101 Q845 68 824 45 Q802 23 770 22 L689 20 Q658 20 634 45 Q613 67 613 98 L613 128 L576 128 Q526 62 458 30 Q393 0 321 0 L312 0 Q178 4 97 93 Q19 178 19 299 Q19 483 161 581 Q300 676 551 677 Q585 677 585 712 Q585 774 546 814 Q497 866 390 866 Q301 866 210 833 Q196 828 183 828 Q166 828 150 836 Q121 853 112 886 L109 899 Q106 910 106 922 Q106 940 114 957 Q127 985 155 995 Q287 1047 443 1047 Z M499 1246 Q510 1227 510 1207 Q510 1188 499 1169 Q478 1130 436 1130 L430 1130 Q395 1130 373 1158 L276 1286 Q258 1309 258 1334 Q258 1351 267 1369 Q287 1413 333 1413 L367 1413 Q410 1413 430 1375 L499 1246 Z " />
<glyph glyph-name="aacute" unicode="&#xe1;" horiz-adv-x="934" d="M594 443 Q594 473 574 494 Q553 514 525 514 L522 514 Q399 508 320 466 Q221 415 221 325 Q221 257 291 218 Q347 188 413 188 Q474 188 523 227 Q570 264 589 324 L589 325 Q594 351 594 383 L594 443 Z M443 1047 Q658 1047 759 921 Q846 814 846 619 L846 101 Q845 68 824 45 Q802 23 770 22 L689 20 Q658 20 634 45 Q613 67 613 98 L613 128 L576 128 Q526 62 458 30 Q393 0 321 0 L312 0 Q178 4 97 93 Q19 178 19 299 Q19 483 161 581 Q300 676 551 677 Q585 677 585 712 Q585 774 546 814 Q497 866 390 866 Q301 866 210 833 Q196 828 183 828 Q166 828 150 836 Q121 853 112 886 L109 899 Q106 910 106 922 Q106 940 114 957 Q127 985 155 995 Q287 1047 443 1047 Z M436 1375 Q456 1413 499 1413 L533 1413 Q579 1413 599 1369 Q608 1351 608 1334 Q608 1309 590 1286 L493 1158 Q471 1130 436 1130 L430 1130 Q388 1130 367 1169 Q356 1188 356 1207 Q356 1227 367 1246 L436 1375 Z " />
<glyph glyph-name="acircumflex" unicode="&#xe2;" horiz-adv-x="934" d="M594 443 Q594 473 574 494 Q553 514 525 514 L522 514 Q399 508 320 466 Q221 415 221 325 Q221 257 291 218 Q347 188 413 188 Q474 188 523 227 Q570 264 589 324 L589 325 Q594 351 594 383 L594 443 Z M443 1047 Q658 1047 759 921 Q846 814 846 619 L846 101 Q845 68 824 45 Q802 23 770 22 L689 20 Q658 20 634 45 Q613 67 613 98 L613 128 L576 128 Q526 62 458 30 Q393 0 321 0 L312 0 Q178 4 97 93 Q19 178 19 299 Q19 483 161 581 Q300 676 551 677 Q585 677 585 712 Q585 774 546 814 Q497 866 390 866 Q301 866 210 833 Q196 828 183 828 Q166 828 150 836 Q121 853 112 886 L109 899 Q106 910 106 922 Q106 940 114 957 Q127 985 155 995 Q287 1047 443 1047 Z M700 1200 Q708 1188 708 1176 Q708 1166 702 1156 Q689 1134 664 1134 L614 1134 Q588 1134 577 1156 L487 1319 L459 1319 L369 1156 Q356 1134 331 1134 L281 1134 Q256 1134 243 1157 Q237 1167 237 1177 Q237 1188 245 1200 L368 1397 Q381 1417 405 1417 L541 1417 Q565 1417 578 1396 L700 1200 Z " />
<glyph glyph-name="atilde" unicode="&#xe3;" horiz-adv-x="934" d="M594 443 Q594 473 574 494 Q553 514 525 514 L522 514 Q399 508 320 466 Q221 415 221 325 Q221 257 291 218 Q347 188 413 188 Q474 188 523 227 Q570 264 589 324 L589 325 Q594 351 594 383 L594 443 Z M443 1047 Q658 1047 759 921 Q846 814 846 619 L846 101 Q845 68 824 45 Q802 23 770 22 L689 20 Q658 20 634 45 Q613 67 613 98 L613 128 L576 128 Q526 62 458 30 Q393 0 321 0 L312 0 Q178 4 97 93 Q19 178 19 299 Q19 483 161 581 Q300 676 551 677 Q585 677 585 712 Q585 774 546 814 Q497 866 390 866 Q301 866 210 833 Q196 828 183 828 Q166 828 150 836 Q121 853 112 886 L109 899 Q106 910 106 922 Q106 940 114 957 Q127 985 155 995 Q287 1047 443 1047 Z M208 1174 Q190 1174 177 1188 Q165 1201 165 1218 L165 1221 Q173 1315 214 1367 Q252 1413 310 1413 Q340 1413 373 1400 Q386 1395 402 1388 L432 1372 L444 1366 L455 1359 Q469 1350 478 1345 Q506 1330 527 1330 Q578 1330 592 1389 Q596 1405 607 1414 Q619 1423 634 1423 L658 1423 Q677 1423 690 1410 Q701 1397 701 1381 L701 1378 Q688 1191 555 1191 Q522 1191 487 1205 Q474 1209 457 1218 L424 1234 Q362 1270 338 1270 Q292 1270 277 1207 Q273 1192 262 1183 Q250 1174 235 1174 L208 1174 Z " />
<glyph glyph-name="adieresis" unicode="&#xe4;" horiz-adv-x="942" d="M602 443 Q602 473 582 494 Q561 514 533 514 L530 514 Q407 508 328 466 Q229 415 229 325 Q229 257 299 218 Q355 188 421 188 Q482 188 531 227 Q578 264 597 324 L597 325 Q602 351 602 383 L602 443 Z M451 1047 Q666 1047 767 921 Q854 814 854 619 L854 101 Q853 68 832 45 Q810 23 778 22 L697 20 Q666 20 642 45 Q621 67 621 98 L621 128 L584 128 Q534 62 466 30 Q401 0 329 0 L320 0 Q186 4 105 93 Q27 178 27 299 Q27 483 169 581 Q308 676 559 677 Q593 677 593 712 Q593 774 554 814 Q505 866 398 866 Q309 866 218 833 Q204 828 191 828 Q174 828 158 836 Q129 853 120 886 L117 899 Q114 910 114 922 Q114 940 122 957 Q135 985 163 995 Q295 1047 451 1047 Z M653 1162 Q603 1162 568 1200 Q533 1238 533 1293 Q533 1349 567 1386 Q603 1422 657 1422 Q707 1422 741 1386 Q776 1349 776 1293 Q776 1238 742 1199 Q707 1162 657 1162 L653 1162 Z M229 1162 Q177 1162 141 1200 Q105 1238 105 1293 Q105 1348 142 1386 Q178 1422 231 1422 Q280 1422 314 1386 Q349 1348 349 1293 Q349 1238 314 1199 Q280 1162 231 1162 L229 1162 Z " />
<glyph glyph-name="aring" unicode="&#xe5;" horiz-adv-x="934" d="M594 443 Q594 473 574 494 Q553 514 525 514 L522 514 Q399 508 320 466 Q221 415 221 325 Q221 257 291 218 Q347 188 413 188 Q474 188 523 227 Q570 264 589 324 L589 325 Q594 351 594 383 L594 443 Z M443 1047 Q658 1047 759 921 Q846 814 846 619 L846 101 Q845 68 824 45 Q802 23 770 22 L689 20 Q658 20 634 45 Q613 67 613 98 L613 128 L576 128 Q526 62 458 30 Q393 0 321 0 L312 0 Q178 4 97 93 Q19 178 19 299 Q19 483 161 581 Q300 676 551 677 Q585 677 585 712 Q585 774 546 814 Q497 866 390 866 Q301 866 210 833 Q196 828 183 828 Q166 828 150 836 Q121 853 112 886 L109 899 Q106 910 106 922 Q106 940 114 957 Q127 985 155 995 Q287 1047 443 1047 Z M427 1167 Q474 1167 502 1202 Q528 1232 528 1278 Q528 1322 503 1353 Q475 1389 427 1389 L425 1389 Q379 1389 352 1352 Q327 1322 327 1276 Q327 1234 353 1202 Q383 1167 427 1167 Z M430 1448 Q519 1448 569 1399 Q616 1353 616 1278 Q616 1204 566 1158 Q515 1108 429 1108 Q340 1108 286 1158 Q236 1203 236 1276 Q236 1350 285 1398 Q337 1448 429 1448 L430 1448 Z " />
<glyph glyph-name="egrave" unicode="&#xe8;" horiz-adv-x="971" d="M595 619 Q629 619 649 647 Q665 666 665 689 Q665 697 663 706 Q650 774 611 817 Q561 870 480 870 Q406 870 354 820 Q312 780 290 714 Q286 702 286 690 Q286 669 299 650 Q320 619 356 619 L595 619 Z M498 1045 Q705 1045 814 891 Q908 756 908 546 Q908 531 907 513 Q905 482 884 460 Q863 438 834 438 L362 438 Q323 438 302 403 Q291 385 291 367 Q291 350 300 333 Q333 267 410 232 Q479 200 569 200 Q664 200 747 218 Q755 220 762 220 Q784 220 803 206 Q829 188 834 156 L839 125 Q841 116 841 108 Q841 86 830 67 Q814 42 786 33 Q668 0 526 0 Q291 0 159 137 Q31 272 31 510 Q31 723 145 874 Q274 1045 498 1045 Z M536 1246 Q547 1227 547 1207 Q547 1188 536 1169 Q515 1130 473 1130 L467 1130 Q432 1130 410 1158 L313 1286 Q295 1309 295 1334 Q295 1351 304 1369 Q324 1413 370 1413 L404 1413 Q447 1413 467 1375 L536 1246 Z " />
<glyph glyph-name="eacute" unicode="&#xe9;" horiz-adv-x="970" d="M594 619 Q628 619 648 647 Q664 666 664 689 Q664 697 662 706 Q649 774 610 817 Q560 870 479 870 Q405 870 353 820 Q311 780 289 714 Q285 702 285 690 Q285 669 298 650 Q319 619 355 619 L594 619 Z M497 1045 Q704 1045 813 891 Q907 756 907 546 Q907 531 906 513 Q904 482 883 460 Q862 438 833 438 L361 438 Q322 438 301 403 Q290 385 290 367 Q290 350 299 333 Q332 267 409 232 Q478 200 568 200 Q663 200 746 218 Q754 220 761 220 Q783 220 802 206 Q828 188 833 156 L838 125 Q840 116 840 108 Q840 86 829 67 Q813 42 785 33 Q667 0 525 0 Q290 0 158 137 Q30 272 30 510 Q30 723 144 874 Q273 1045 497 1045 Z M472 1375 Q492 1413 535 1413 L569 1413 Q615 1413 635 1369 Q644 1351 644 1334 Q644 1309 626 1286 L529 1158 Q507 1130 472 1130 L466 1130 Q424 1130 403 1169 Q392 1188 392 1207 Q392 1227 403 1246 L472 1375 Z " />
<glyph glyph-name="ecircumflex" unicode="&#xea;" horiz-adv-x="971" d="M595 619 Q629 619 649 647 Q665 666 665 689 Q665 697 663 706 Q650 774 611 817 Q561 870 480 870 Q406 870 354 820 Q312 780 290 714 Q286 702 286 690 Q286 669 299 650 Q320 619 356 619 L595 619 Z M498 1045 Q705 1045 814 891 Q908 756 908 546 Q908 531 907 513 Q905 482 884 460 Q863 438 834 438 L362 438 Q323 438 302 403 Q291 385 291 367 Q291 350 300 333 Q333 267 410 232 Q479 200 569 200 Q664 200 747 218 Q755 220 762 220 Q784 220 803 206 Q829 188 834 156 L839 125 Q841 116 841 108 Q841 86 830 67 Q814 42 786 33 Q668 0 526 0 Q291 0 159 137 Q31 272 31 510 Q31 723 145 874 Q274 1045 498 1045 Z M737 1200 Q745 1188 745 1176 Q745 1166 739 1156 Q726 1134 701 1134 L651 1134 Q625 1134 614 1156 L524 1319 L496 1319 L406 1156 Q393 1134 368 1134 L318 1134 Q293 1134 280 1157 Q274 1167 274 1177 Q274 1188 282 1200 L405 1397 Q418 1417 442 1417 L578 1417 Q602 1417 615 1396 L737 1200 Z " />
<glyph glyph-name="edieresis" unicode="&#xeb;" horiz-adv-x="975" d="M599 619 Q633 619 653 647 Q669 666 669 689 Q669 697 667 706 Q654 774 615 817 Q565 870 484 870 Q410 870 358 820 Q316 780 294 714 Q290 702 290 690 Q290 669 303 650 Q324 619 360 619 L599 619 Z M502 1045 Q709 1045 818 891 Q912 756 912 546 Q912 531 911 513 Q909 482 888 460 Q867 438 838 438 L366 438 Q327 438 306 403 Q295 385 295 367 Q295 350 304 333 Q337 267 414 232 Q483 200 573 200 Q668 200 751 218 Q759 220 766 220 Q788 220 807 206 Q833 188 838 156 L843 125 Q845 116 845 108 Q845 86 834 67 Q818 42 790 33 Q672 0 530 0 Q295 0 163 137 Q35 272 35 510 Q35 723 149 874 Q278 1045 502 1045 Z M686 1162 Q636 1162 601 1200 Q566 1238 566 1293 Q566 1349 600 1386 Q636 1422 690 1422 Q740 1422 774 1386 Q809 1349 809 1293 Q809 1238 775 1199 Q740 1162 690 1162 L686 1162 Z M262 1162 Q210 1162 174 1200 Q138 1238 138 1293 Q138 1348 175 1386 Q211 1422 264 1422 Q313 1422 347 1386 Q382 1348 382 1293 Q382 1238 347 1199 Q313 1162 264 1162 L262 1162 Z " />
<glyph glyph-name="igrave" unicode="&#xec;" horiz-adv-x="459" d="M298 1020 Q328 1020 348 998 Q371 974 371 942 L371 99 Q371 65 349 43 Q327 20 298 20 L185 20 Q155 20 133 43 Q111 65 111 99 L111 942 Q111 974 134 998 Q154 1020 185 1020 L298 1020 Z M307 1246 Q318 1227 318 1207 Q318 1188 307 1169 Q286 1130 244 1130 L238 1130 Q203 1130 181 1158 L84 1286 Q66 1309 66 1334 Q66 1351 75 1369 Q95 1413 141 1413 L175 1413 Q218 1413 238 1375 L307 1246 Z " />
<glyph glyph-name="iacute" unicode="&#xed;" horiz-adv-x="444" d="M275 1020 Q305 1020 325 998 Q348 974 348 942 L348 99 Q348 65 326 43 Q304 20 275 20 L162 20 Q132 20 110 43 Q88 65 88 99 L88 942 Q88 974 111 998 Q131 1020 162 1020 L275 1020 Z M221 1375 Q241 1413 284 1413 L318 1413 Q364 1413 384 1369 Q393 1351 393 1334 Q393 1309 375 1286 L278 1158 Q256 1130 221 1130 L215 1130 Q173 1130 152 1169 Q141 1188 141 1207 Q141 1227 152 1246 L221 1375 Z " />
<glyph glyph-name="icircumflex" unicode="&#xee;" horiz-adv-x="480" d="M295 1020 Q325 1020 345 998 Q368 974 368 942 L368 99 Q368 65 346 43 Q324 20 295 20 L182 20 Q152 20 130 43 Q108 65 108 99 L108 942 Q108 974 131 998 Q151 1020 182 1020 L295 1020 Z M506 1200 Q514 1188 514 1176 Q514 1166 508 1156 Q495 1134 470 1134 L420 1134 Q394 1134 383 1156 L293 1319 L265 1319 L175 1156 Q162 1134 137 1134 L87 1134 Q62 1134 49 1157 Q43 1167 43 1177 Q43 1188 51 1200 L174 1397 Q187 1417 211 1417 L347 1417 Q371 1417 384 1396 L506 1200 Z " />
<glyph glyph-name="idieresis" unicode="&#xef;" horiz-adv-x="557" d="M349 1020 Q379 1020 399 998 Q422 974 422 942 L422 99 Q422 65 400 43 Q378 20 349 20 L236 20 Q206 20 184 43 Q162 65 162 99 L162 942 Q162 974 185 998 Q205 1020 236 1020 L349 1020 Z M505 1162 Q455 1162 420 1200 Q385 1238 385 1293 Q385 1349 419 1386 Q455 1422 509 1422 Q559 1422 593 1386 Q628 1349 628 1293 Q628 1238 594 1199 Q559 1162 509 1162 L505 1162 Z M81 1162 Q29 1162 -7 1200 Q-43 1238 -43 1293 Q-43 1348 -6 1386 Q30 1422 83 1422 Q132 1422 166 1386 Q201 1348 201 1293 Q201 1238 166 1199 Q132 1162 83 1162 L81 1162 Z " />
<glyph glyph-name="ntilde" unicode="&#xf1;" horiz-adv-x="1052" d="M639 1023 Q785 1023 870 922 Q964 811 964 597 L964 77 Q964 45 942 23 Q920 0 891 0 L776 0 Q747 0 726 23 Q704 45 704 77 L704 556 Q704 802 532 802 Q467 802 419 759 Q380 723 361 667 Q348 636 348 580 L348 77 Q348 45 326 23 Q305 0 275 0 L160 0 Q131 0 109 22 Q88 45 88 77 Q87 170 87 264 Q86 389 85 497 Q83 789 82 922 L82 925 Q82 956 102 978 Q125 1000 154 1001 L242 1002 Q272 1002 293 979 Q315 956 315 923 L315 882 Q315 857 338 857 Q351 857 359 869 Q395 929 457 969 Q538 1023 639 1023 Z M298 1174 Q280 1174 267 1188 Q255 1201 255 1218 L255 1221 Q263 1315 304 1367 Q342 1413 400 1413 Q430 1413 463 1400 Q476 1395 492 1388 L522 1372 L534 1366 L545 1359 Q559 1350 568 1345 Q596 1330 617 1330 Q668 1330 682 1389 Q686 1405 697 1414 Q709 1423 724 1423 L748 1423 Q767 1423 780 1410 Q791 1397 791 1381 L791 1378 Q778 1191 645 1191 Q612 1191 577 1205 Q564 1209 547 1218 L514 1234 Q452 1270 428 1270 Q382 1270 367 1207 Q363 1192 352 1183 Q340 1174 325 1174 L298 1174 Z " />
<glyph glyph-name="ograve" unicode="&#xf2;" horiz-adv-x="1045" d="M734 461 Q737 491 737 520 Q737 607 714 680 Q672 812 568 840 Q539 848 514 848 Q420 848 363 746 Q308 648 308 513 Q308 394 347 308 Q400 192 506 182 Q516 181 525 181 Q619 181 677 271 Q725 348 734 461 Z M39 482 Q38 496 38 510 Q38 735 179 877 Q314 1013 514 1022 Q528 1023 541 1023 Q723 1023 852 908 Q1006 770 1006 524 Q1006 286 858 141 Q724 10 531 1 Q517 0 504 0 Q327 0 199 111 Q48 243 39 482 Z M588 1246 Q599 1227 599 1207 Q599 1188 588 1169 Q567 1130 525 1130 L519 1130 Q484 1130 462 1158 L365 1286 Q347 1309 347 1334 Q347 1351 356 1369 Q376 1413 422 1413 L456 1413 Q499 1413 519 1375 L588 1246 Z " />
<glyph glyph-name="oacute" unicode="&#xf3;" horiz-adv-x="1045" d="M734 461 Q737 491 737 520 Q737 607 714 680 Q672 812 568 840 Q539 848 514 848 Q420 848 363 746 Q308 648 308 513 Q308 394 347 308 Q400 192 506 182 Q516 181 525 181 Q619 181 677 271 Q725 348 734 461 Z M39 482 Q38 496 38 510 Q38 735 179 877 Q314 1013 514 1022 Q528 1023 541 1023 Q723 1023 852 908 Q1006 770 1006 524 Q1006 286 858 141 Q724 10 531 1 Q517 0 504 0 Q327 0 199 111 Q48 243 39 482 Z M526 1375 Q546 1413 589 1413 L623 1413 Q669 1413 689 1369 Q698 1351 698 1334 Q698 1309 680 1286 L583 1158 Q561 1130 526 1130 L520 1130 Q478 1130 457 1169 Q446 1188 446 1207 Q446 1227 457 1246 L526 1375 Z " />
<glyph glyph-name="ocircumflex" unicode="&#xf4;" horiz-adv-x="1045" d="M734 461 Q737 491 737 520 Q737 607 714 680 Q672 812 568 840 Q539 848 514 848 Q420 848 363 746 Q308 648 308 513 Q308 394 347 308 Q400 192 506 182 Q516 181 525 181 Q619 181 677 271 Q725 348 734 461 Z M39 482 Q38 496 38 510 Q38 735 179 877 Q314 1013 514 1022 Q528 1023 541 1023 Q723 1023 852 908 Q1006 770 1006 524 Q1006 286 858 141 Q724 10 531 1 Q517 0 504 0 Q327 0 199 111 Q48 243 39 482 Z M790 1200 Q798 1188 798 1176 Q798 1166 792 1156 Q779 1134 754 1134 L704 1134 Q678 1134 667 1156 L577 1319 L549 1319 L459 1156 Q446 1134 421 1134 L371 1134 Q346 1134 333 1157 Q327 1167 327 1177 Q327 1188 335 1200 L458 1397 Q471 1417 495 1417 L631 1417 Q655 1417 668 1396 L790 1200 Z " />
<glyph glyph-name="otilde" unicode="&#xf5;" horiz-adv-x="1046" d="M735 461 Q738 491 738 520 Q738 607 715 680 Q673 812 569 840 Q540 848 515 848 Q421 848 364 746 Q309 648 309 513 Q309 394 348 308 Q401 192 507 182 Q517 181 526 181 Q620 181 678 271 Q726 348 735 461 Z M40 482 Q39 496 39 510 Q39 735 180 877 Q315 1013 515 1022 Q529 1023 542 1023 Q724 1023 853 908 Q1007 770 1007 524 Q1007 286 859 141 Q725 10 532 1 Q518 0 505 0 Q328 0 200 111 Q49 243 40 482 Z M298 1174 Q280 1174 267 1188 Q255 1201 255 1218 L255 1221 Q263 1315 304 1367 Q342 1413 400 1413 Q430 1413 463 1400 Q476 1395 492 1388 L522 1372 L534 1366 L545 1359 Q559 1350 568 1345 Q596 1330 617 1330 Q668 1330 682 1389 Q686 1405 697 1414 Q709 1423 724 1423 L748 1423 Q767 1423 780 1410 Q791 1397 791 1381 L791 1378 Q778 1191 645 1191 Q612 1191 577 1205 Q564 1209 547 1218 L514 1234 Q452 1270 428 1270 Q382 1270 367 1207 Q363 1192 352 1183 Q340 1174 325 1174 L298 1174 Z " />
<glyph glyph-name="odieresis" unicode="&#xf6;" horiz-adv-x="1046" d="M735 461 Q738 491 738 520 Q738 607 715 680 Q673 812 569 840 Q540 848 515 848 Q421 848 364 746 Q309 648 309 513 Q309 394 348 308 Q401 192 507 182 Q517 181 526 181 Q620 181 678 271 Q726 348 735 461 Z M40 482 Q39 496 39 510 Q39 735 180 877 Q315 1013 515 1022 Q529 1023 542 1023 Q724 1023 853 908 Q1007 770 1007 524 Q1007 286 859 141 Q725 10 532 1 Q518 0 505 0 Q328 0 200 111 Q49 243 40 482 Z M736 1162 Q686 1162 651 1200 Q616 1238 616 1293 Q616 1349 650 1386 Q686 1422 740 1422 Q790 1422 824 1386 Q859 1349 859 1293 Q859 1238 825 1199 Q790 1162 740 1162 L736 1162 Z M312 1162 Q260 1162 224 1200 Q188 1238 188 1293 Q188 1348 225 1386 Q261 1422 314 1422 Q363 1422 397 1386 Q432 1348 432 1293 Q432 1238 397 1199 Q363 1162 314 1162 L312 1162 Z " />
<glyph glyph-name="ugrave" unicode="&#xf9;" horiz-adv-x="1032" d="M943 945 L943 525 Q943 270 944 103 Q944 69 921 47 Q900 23 869 23 L790 23 Q760 23 738 47 Q716 70 716 103 L716 146 Q716 170 692 170 Q678 170 671 158 Q656 132 635 108 Q609 78 578 56 Q496 0 388 0 Q242 0 161 99 Q69 210 69 433 L69 945 Q69 977 92 1001 Q112 1023 144 1023 L256 1023 Q287 1023 309 1001 Q331 977 331 945 L331 484 Q331 222 501 222 Q565 222 612 264 Q650 296 669 348 Q680 374 680 425 L680 945 Q680 977 703 1001 Q723 1023 755 1023 L868 1023 Q899 1023 921 1001 Q943 978 943 945 Z M573 1246 Q584 1227 584 1207 Q584 1188 573 1169 Q552 1130 510 1130 L504 1130 Q469 1130 447 1158 L350 1286 Q332 1309 332 1334 Q332 1351 341 1369 Q361 1413 407 1413 L441 1413 Q484 1413 504 1375 L573 1246 Z " />
<glyph glyph-name="uacute" unicode="&#xfa;" horiz-adv-x="1032" d="M943 945 L943 525 Q943 270 944 103 Q944 69 921 47 Q900 23 869 23 L790 23 Q760 23 738 47 Q716 70 716 103 L716 146 Q716 170 692 170 Q678 170 671 158 Q656 132 635 108 Q609 78 578 56 Q496 0 388 0 Q242 0 161 99 Q69 210 69 433 L69 945 Q69 977 92 1001 Q112 1023 144 1023 L256 1023 Q287 1023 309 1001 Q331 977 331 945 L331 484 Q331 222 501 222 Q565 222 612 264 Q650 296 669 348 Q680 374 680 425 L680 945 Q680 977 703 1001 Q723 1023 755 1023 L868 1023 Q899 1023 921 1001 Q943 978 943 945 Z M510 1375 Q530 1413 573 1413 L607 1413 Q653 1413 673 1369 Q682 1351 682 1334 Q682 1309 664 1286 L567 1158 Q545 1130 510 1130 L504 1130 Q462 1130 441 1169 Q430 1188 430 1207 Q430 1227 441 1246 L510 1375 Z " />
<glyph glyph-name="ucircumflex" unicode="&#xfb;" horiz-adv-x="1032" d="M943 945 L943 525 Q943 270 944 103 Q944 69 921 47 Q900 23 869 23 L790 23 Q760 23 738 47 Q716 70 716 103 L716 146 Q716 170 692 170 Q678 170 671 158 Q656 132 635 108 Q609 78 578 56 Q496 0 388 0 Q242 0 161 99 Q69 210 69 433 L69 945 Q69 977 92 1001 Q112 1023 144 1023 L256 1023 Q287 1023 309 1001 Q331 977 331 945 L331 484 Q331 222 501 222 Q565 222 612 264 Q650 296 669 348 Q680 374 680 425 L680 945 Q680 977 703 1001 Q723 1023 755 1023 L868 1023 Q899 1023 921 1001 Q943 978 943 945 Z M774 1200 Q782 1188 782 1176 Q782 1166 776 1156 Q763 1134 738 1134 L688 1134 Q662 1134 651 1156 L561 1319 L533 1319 L443 1156 Q430 1134 405 1134 L355 1134 Q330 1134 317 1157 Q311 1167 311 1177 Q311 1188 319 1200 L442 1397 Q455 1417 479 1417 L615 1417 Q639 1417 652 1396 L774 1200 Z " />
<glyph glyph-name="udieresis" unicode="&#xfc;" horiz-adv-x="1036" d="M947 945 L947 525 Q947 270 948 103 Q948 69 925 47 Q904 23 873 23 L794 23 Q764 23 742 47 Q720 70 720 103 L720 146 Q720 170 696 170 Q682 170 675 158 Q660 132 639 108 Q613 78 582 56 Q500 0 392 0 Q246 0 165 99 Q73 210 73 433 L73 945 Q73 977 96 1001 Q116 1023 148 1023 L260 1023 Q291 1023 313 1001 Q335 977 335 945 L335 484 Q335 222 505 222 Q569 222 616 264 Q654 296 673 348 Q684 374 684 425 L684 945 Q684 977 707 1001 Q727 1023 759 1023 L872 1023 Q903 1023 925 1001 Q947 978 947 945 Z M723 1162 Q673 1162 638 1200 Q603 1238 603 1293 Q603 1349 637 1386 Q673 1422 727 1422 Q777 1422 811 1386 Q846 1349 846 1293 Q846 1238 812 1199 Q777 1162 727 1162 L723 1162 Z M299 1162 Q247 1162 211 1200 Q175 1238 175 1293 Q175 1348 212 1386 Q248 1422 301 1422 Q350 1422 384 1386 Q419 1348 419 1293 Q419 1238 384 1199 Q350 1162 301 1162 L299 1162 Z " />
<glyph glyph-name="yacute" unicode="&#xfd;" horiz-adv-x="932" d="M835 1002 Q873 1002 895 970 Q909 949 909 925 Q909 912 905 899 L723 343 Q681 220 640 77 Q633 54 624 22 L617 -3 L610 -28 Q594 -82 584 -114 Q535 -271 471 -331 Q384 -410 278 -446 Q266 -450 254 -450 Q236 -450 220 -441 Q193 -424 184 -390 L162 -299 Q160 -290 160 -281 Q160 -263 169 -245 Q181 -219 206 -208 Q236 -195 266 -176 Q333 -139 374 -81 Q388 -61 388 -40 Q388 -25 382 -11 Q350 69 223 393 Q175 513 116 663 Q72 774 25 894 Q18 910 18 926 Q18 948 31 968 Q53 1002 92 1002 L217 1002 Q240 1002 260 987 Q280 971 287 947 L411 506 L417 483 L423 459 Q430 431 436 409 Q449 353 457 316 Q463 298 481 298 Q497 298 503 315 Q511 347 525 411 L536 461 Q541 488 546 506 L648 943 Q653 969 673 986 Q693 1002 718 1002 L835 1002 Z M467 1375 Q487 1413 530 1413 L564 1413 Q610 1413 630 1369 Q639 1351 639 1334 Q639 1309 621 1286 L524 1158 Q502 1130 467 1130 L461 1130 Q419 1130 398 1169 Q387 1188 387 1207 Q387 1227 398 1246 L467 1375 Z " />
<glyph glyph-name="ydieresis" unicode="&#xff;" horiz-adv-x="950" d="M828 1002 Q866 1002 888 970 Q902 949 902 925 Q902 912 898 899 L716 343 Q674 220 633 77 Q626 54 617 22 L610 -3 L603 -28 Q587 -82 577 -114 Q528 -271 464 -331 Q377 -410 271 -446 Q259 -450 247 -450 Q229 -450 213 -441 Q186 -424 177 -390 L155 -299 Q153 -290 153 -281 Q153 -263 162 -245 Q174 -219 199 -208 Q229 -195 259 -176 Q326 -139 367 -81 Q381 -61 381 -40 Q381 -25 375 -11 Q343 69 216 393 Q168 513 109 663 Q65 774 18 894 Q11 910 11 926 Q11 948 24 968 Q46 1002 85 1002 L210 1002 Q233 1002 253 987 Q273 971 280 947 L404 506 L410 483 L416 459 Q423 431 429 409 Q442 353 450 316 Q456 298 474 298 Q490 298 496 315 Q504 347 518 411 L529 461 Q534 488 539 506 L641 943 Q646 969 666 986 Q686 1002 711 1002 L828 1002 Z M669 1162 Q619 1162 584 1200 Q549 1238 549 1293 Q549 1349 583 1386 Q619 1422 673 1422 Q723 1422 757 1386 Q792 1349 792 1293 Q792 1238 758 1199 Q723 1162 673 1162 L669 1162 Z M245 1162 Q193 1162 157 1200 Q121 1238 121 1293 Q121 1348 158 1386 Q194 1422 247 1422 Q296 1422 330 1386 Q365 1348 365 1293 Q365 1238 330 1199 Q296 1162 247 1162 L245 1162 Z " />
<glyph glyph-name="Amacron" unicode="&#x100;" horiz-adv-x="1093" d="M619 570 Q654 570 673 599 Q688 617 688 640 Q688 650 685 660 L621 900 Q607 950 590 1024 Q584 1050 577 1087 L569 1119 L560 1161 Q544 1165 527 1165 Q519 1165 510 1164 Q502 1125 494 1087 L481 1022 Q465 945 454 900 L393 659 Q390 649 390 640 Q390 618 405 598 Q425 570 459 570 L619 570 Z M1086 102 Q1089 90 1089 79 Q1089 54 1074 31 Q1054 0 1020 0 L889 0 Q867 0 851 14 Q832 30 825 53 L754 316 Q740 368 688 368 L391 368 Q339 368 325 315 L260 55 Q253 30 235 15 Q218 0 196 0 L77 0 Q43 0 23 31 Q8 54 8 79 Q8 90 11 102 L354 1339 Q361 1364 380 1380 Q397 1394 419 1394 L673 1394 Q695 1394 713 1380 Q731 1364 738 1339 L1086 102 Z M782 1727 Q782 1709 770 1696 Q757 1684 739 1684 L358 1684 Q340 1684 327 1696 Q315 1709 315 1727 L315 1780 Q315 1797 327 1810 Q340 1823 358 1823 L739 1823 Q757 1823 770 1810 Q782 1797 782 1780 L782 1727 Z " />
<glyph glyph-name="amacron" unicode="&#x101;" horiz-adv-x="934" d="M594 443 Q594 473 574 494 Q553 514 525 514 L522 514 Q399 508 320 466 Q221 415 221 325 Q221 257 291 218 Q347 188 413 188 Q474 188 523 227 Q570 264 589 324 L589 325 Q594 351 594 383 L594 443 Z M443 1047 Q658 1047 759 921 Q846 814 846 619 L846 101 Q845 68 824 45 Q802 23 770 22 L689 20 Q658 20 634 45 Q613 67 613 98 L613 128 L576 128 Q526 62 458 30 Q393 0 321 0 L312 0 Q178 4 97 93 Q19 178 19 299 Q19 483 161 581 Q300 676 551 677 Q585 677 585 712 Q585 774 546 814 Q497 866 390 866 Q301 866 210 833 Q196 828 183 828 Q166 828 150 836 Q121 853 112 886 L109 899 Q106 910 106 922 Q106 940 114 957 Q127 985 155 995 Q287 1047 443 1047 Z M666 1317 Q666 1299 654 1286 Q641 1274 623 1274 L242 1274 Q224 1274 211 1286 Q199 1299 199 1317 L199 1370 Q199 1387 211 1400 Q224 1413 242 1413 L623 1413 Q641 1413 654 1400 Q666 1387 666 1370 L666 1317 Z " />
<glyph glyph-name="Abreve" unicode="&#x102;" horiz-adv-x="1093" d="M619 570 Q654 570 673 599 Q688 617 688 640 Q688 650 685 660 L621 900 Q607 950 590 1024 Q584 1050 577 1087 L569 1119 L560 1161 Q544 1165 527 1165 Q519 1165 510 1164 Q502 1125 494 1087 L481 1022 Q465 945 454 900 L393 659 Q390 649 390 640 Q390 618 405 598 Q425 570 459 570 L619 570 Z M1086 102 Q1089 90 1089 79 Q1089 54 1074 31 Q1054 0 1020 0 L889 0 Q867 0 851 14 Q832 30 825 53 L754 316 Q740 368 688 368 L391 368 Q339 368 325 315 L260 55 Q253 30 235 15 Q218 0 196 0 L77 0 Q43 0 23 31 Q8 54 8 79 Q8 90 11 102 L354 1339 Q361 1364 380 1380 Q397 1394 419 1394 L673 1394 Q695 1394 713 1380 Q731 1364 738 1339 L1086 102 Z M378 1823 Q408 1823 418 1794 Q452 1693 546 1693 Q651 1693 681 1793 Q685 1806 697 1815 Q708 1823 723 1823 L761 1823 Q781 1823 794 1807 Q804 1795 804 1781 Q804 1777 803 1773 Q786 1674 721 1618 Q655 1561 548 1561 Q441 1561 373 1620 Q311 1674 294 1773 Q293 1778 293 1782 Q293 1796 302 1807 Q315 1823 335 1823 L378 1823 Z " />
<glyph glyph-name="abreve" unicode="&#x103;" horiz-adv-x="934" d="M594 443 Q594 473 574 494 Q553 514 525 514 L522 514 Q399 508 320 466 Q221 415 221 325 Q221 257 291 218 Q347 188 413 188 Q474 188 523 227 Q570 264 589 324 L589 325 Q594 351 594 383 L594 443 Z M443 1047 Q658 1047 759 921 Q846 814 846 619 L846 101 Q845 68 824 45 Q802 23 770 22 L689 20 Q658 20 634 45 Q613 67 613 98 L613 128 L576 128 Q526 62 458 30 Q393 0 321 0 L312 0 Q178 4 97 93 Q19 178 19 299 Q19 483 161 581 Q300 676 551 677 Q585 677 585 712 Q585 774 546 814 Q497 866 390 866 Q301 866 210 833 Q196 828 183 828 Q166 828 150 836 Q121 853 112 886 L109 899 Q106 910 106 922 Q106 940 114 957 Q127 985 155 995 Q287 1047 443 1047 Z M262 1413 Q292 1413 302 1384 Q336 1283 430 1283 Q535 1283 565 1383 Q569 1396 581 1405 Q592 1413 607 1413 L645 1413 Q665 1413 678 1397 Q688 1385 688 1371 Q688 1367 687 1363 Q670 1264 605 1208 Q539 1151 432 1151 Q325 1151 257 1210 Q195 1264 178 1363 Q177 1368 177 1372 Q177 1386 186 1397 Q199 1413 219 1413 L262 1413 Z " />
<glyph glyph-name="Cacute" unicode="&#x106;" horiz-adv-x="1010" d="M729 1210 Q537 1210 420 1087 Q296 954 296 716 Q296 492 410 361 Q528 228 731 228 Q809 228 893 247 Q901 249 909 249 Q928 249 944 237 Q969 219 974 185 L986 122 Q987 114 987 106 Q987 84 976 64 Q961 38 935 31 Q825 0 687 0 Q371 0 195 198 Q28 386 28 697 Q28 1044 229 1247 Q418 1438 716 1438 Q843 1438 946 1409 Q973 1400 988 1373 Q998 1354 998 1333 Q998 1323 996 1313 L980 1243 Q972 1212 948 1196 Q931 1185 913 1185 Q905 1185 896 1187 Q817 1210 729 1210 Z M516 1785 Q536 1823 579 1823 L613 1823 Q659 1823 679 1779 Q688 1761 688 1744 Q688 1719 670 1696 L573 1568 Q551 1540 516 1540 L510 1540 Q468 1540 447 1579 Q436 1598 436 1617 Q436 1637 447 1656 L516 1785 Z " />
<glyph glyph-name="cacute" unicode="&#x107;" horiz-adv-x="785" d="M757 107 Q758 101 758 96 Q758 72 744 51 Q727 25 699 19 Q616 0 521 0 Q295 0 163 137 Q30 275 30 512 Q30 742 166 889 Q312 1045 562 1045 Q629 1045 696 1031 Q726 1025 743 998 Q755 979 755 957 Q755 948 753 939 L744 891 Q738 861 713 842 Q695 829 674 829 Q668 829 661 830 Q622 836 576 836 Q450 836 372 747 Q297 661 297 529 L297 525 Q297 378 381 293 Q459 213 582 213 Q627 213 666 219 Q673 220 679 220 Q701 220 720 206 Q745 187 750 154 L757 107 Z M397 1375 Q417 1413 460 1413 L494 1413 Q540 1413 560 1369 Q569 1351 569 1334 Q569 1309 551 1286 L454 1158 Q432 1130 397 1130 L391 1130 Q349 1130 328 1169 Q317 1188 317 1207 Q317 1227 328 1246 L397 1375 Z " />
<glyph glyph-name="Ccircumflex" unicode="&#x108;" horiz-adv-x="1010" d="M729 1210 Q537 1210 420 1087 Q296 954 296 716 Q296 492 410 361 Q528 228 731 228 Q809 228 893 247 Q901 249 909 249 Q928 249 944 237 Q969 219 974 185 L986 122 Q987 114 987 106 Q987 84 976 64 Q961 38 935 31 Q825 0 687 0 Q371 0 195 198 Q28 386 28 697 Q28 1044 229 1247 Q418 1438 716 1438 Q843 1438 946 1409 Q973 1400 988 1373 Q998 1354 998 1333 Q998 1323 996 1313 L980 1243 Q972 1212 948 1196 Q931 1185 913 1185 Q905 1185 896 1187 Q817 1210 729 1210 Z M860 1610 Q868 1598 868 1586 Q868 1576 862 1566 Q849 1544 824 1544 L774 1544 Q748 1544 737 1566 L647 1729 L619 1729 L529 1566 Q516 1544 491 1544 L441 1544 Q416 1544 403 1567 Q397 1577 397 1587 Q397 1598 405 1610 L528 1807 Q541 1827 565 1827 L701 1827 Q725 1827 738 1806 L860 1610 Z " />
<glyph glyph-name="ccircumflex" unicode="&#x109;" horiz-adv-x="790" d="M762 107 Q763 101 763 96 Q763 72 749 51 Q732 25 704 19 Q621 0 526 0 Q300 0 168 137 Q35 275 35 512 Q35 742 171 889 Q317 1045 567 1045 Q634 1045 701 1031 Q731 1025 748 998 Q760 979 760 957 Q760 948 758 939 L749 891 Q743 861 718 842 Q700 829 679 829 Q673 829 666 830 Q627 836 581 836 Q455 836 377 747 Q302 661 302 529 L302 525 Q302 378 386 293 Q464 213 587 213 Q632 213 671 219 Q678 220 684 220 Q706 220 725 206 Q750 187 755 154 L762 107 Z M666 1200 Q674 1188 674 1176 Q674 1166 668 1156 Q655 1134 630 1134 L580 1134 Q554 1134 543 1156 L453 1319 L425 1319 L335 1156 Q322 1134 297 1134 L247 1134 Q222 1134 209 1157 Q203 1167 203 1177 Q203 1188 211 1200 L334 1397 Q347 1417 371 1417 L507 1417 Q531 1417 544 1396 L666 1200 Z " />
<glyph glyph-name="Cdotaccent" unicode="&#x10a;" horiz-adv-x="1010" d="M729 1210 Q537 1210 420 1087 Q296 954 296 716 Q296 492 410 361 Q528 228 731 228 Q809 228 893 247 Q901 249 909 249 Q928 249 944 237 Q969 219 974 185 L986 122 Q987 114 987 106 Q987 84 976 64 Q961 38 935 31 Q825 0 687 0 Q371 0 195 198 Q28 386 28 697 Q28 1044 229 1247 Q418 1438 716 1438 Q843 1438 946 1409 Q973 1400 988 1373 Q998 1354 998 1333 Q998 1323 996 1313 L980 1243 Q972 1212 948 1196 Q931 1185 913 1185 Q905 1185 896 1187 Q817 1210 729 1210 Z M514 1566 Q463 1566 428 1604 Q392 1642 392 1695 Q392 1752 427 1789 Q463 1826 516 1826 Q566 1826 599 1789 Q634 1752 634 1695 Q634 1642 599 1603 Q565 1566 516 1566 L514 1566 Z " />
<glyph glyph-name="cdotaccent" unicode="&#x10b;" horiz-adv-x="786" d="M758 107 Q759 101 759 96 Q759 72 745 51 Q728 25 700 19 Q617 0 522 0 Q296 0 164 137 Q31 275 31 512 Q31 742 167 889 Q313 1045 563 1045 Q630 1045 697 1031 Q727 1025 744 998 Q756 979 756 957 Q756 948 754 939 L745 891 Q739 861 714 842 Q696 829 675 829 Q669 829 662 830 Q623 836 577 836 Q451 836 373 747 Q298 661 298 529 L298 525 Q298 378 382 293 Q460 213 583 213 Q628 213 667 219 Q674 220 680 220 Q702 220 721 206 Q746 187 751 154 L758 107 Z M396 1156 Q345 1156 310 1194 Q274 1232 274 1285 Q274 1342 309 1379 Q345 1416 398 1416 Q448 1416 481 1379 Q516 1342 516 1285 Q516 1232 481 1193 Q447 1156 398 1156 L396 1156 Z " />
<glyph glyph-name="Ccaron" unicode="&#x10c;" horiz-adv-x="1010" d="M729 1210 Q537 1210 420 1087 Q296 954 296 716 Q296 492 410 361 Q528 228 731 228 Q809 228 893 247 Q901 249 909 249 Q928 249 944 237 Q969 219 974 185 L986 122 Q987 114 987 106 Q987 84 976 64 Q961 38 935 31 Q825 0 687 0 Q371 0 195 198 Q28 386 28 697 Q28 1044 229 1247 Q418 1438 716 1438 Q843 1438 946 1409 Q973 1400 988 1373 Q998 1354 998 1333 Q998 1323 996 1313 L980 1243 Q972 1212 948 1196 Q931 1185 913 1185 Q905 1185 896 1187 Q817 1210 729 1210 Z M325 1759 Q317 1770 317 1782 Q317 1792 323 1802 Q336 1824 361 1824 L411 1824 Q436 1824 449 1802 L538 1640 L565 1640 L656 1802 Q669 1824 694 1824 L744 1824 Q769 1824 782 1802 Q788 1792 788 1782 Q788 1770 780 1759 L657 1561 Q644 1541 620 1541 L483 1541 Q459 1541 446 1562 L325 1759 Z " />
<glyph glyph-name="ccaron" unicode="&#x10d;" horiz-adv-x="790" d="M762 107 Q763 101 763 96 Q763 72 749 51 Q732 25 704 19 Q621 0 526 0 Q300 0 168 137 Q35 275 35 512 Q35 742 171 889 Q317 1045 567 1045 Q634 1045 701 1031 Q731 1025 748 998 Q760 979 760 957 Q760 948 758 939 L749 891 Q743 861 718 842 Q700 829 679 829 Q673 829 666 830 Q627 836 581 836 Q455 836 377 747 Q302 661 302 529 L302 525 Q302 378 386 293 Q464 213 587 213 Q632 213 671 219 Q678 220 684 220 Q706 220 725 206 Q750 187 755 154 L762 107 Z M211 1349 Q203 1360 203 1372 Q203 1382 209 1392 Q222 1414 247 1414 L297 1414 Q322 1414 335 1392 L424 1230 L451 1230 L542 1392 Q555 1414 580 1414 L630 1414 Q655 1414 668 1392 Q674 1382 674 1372 Q674 1360 666 1349 L543 1151 Q530 1131 506 1131 L369 1131 Q345 1131 332 1152 L211 1349 Z " />
<glyph glyph-name="Dcaron" unicode="&#x10e;" horiz-adv-x="1179" d="M457 213 Q650 213 757 342 Q872 478 872 735 L872 739 Q872 963 768 1087 Q664 1210 479 1210 Q430 1210 391 1205 Q368 1202 352 1181 Q338 1161 338 1136 L338 284 Q338 257 353 238 Q371 216 396 214 Q408 213 424 213 L457 213 Z M923 1271 Q1116 1097 1116 746 Q1116 374 926 179 Q747 0 393 0 Q269 0 165 11 Q143 14 127 35 Q109 58 109 90 L109 1323 Q109 1354 126 1377 Q141 1398 165 1401 Q294 1419 451 1419 Q615 1419 729 1383 Q839 1347 923 1271 Z M425 1759 Q417 1770 417 1782 Q417 1792 423 1802 Q436 1824 461 1824 L511 1824 Q536 1824 549 1802 L638 1640 L665 1640 L756 1802 Q769 1824 794 1824 L844 1824 Q869 1824 882 1802 Q888 1792 888 1782 Q888 1770 880 1759 L757 1561 Q744 1541 720 1541 L583 1541 Q559 1541 546 1562 L425 1759 Z " />
<glyph glyph-name="dcaron" unicode="&#x10f;" horiz-adv-x="1108" d="M726 599 Q726 632 720 662 Q703 739 647 788 Q593 838 524 838 Q412 838 351 745 Q297 662 297 529 Q297 384 357 300 Q417 216 524 216 Q596 216 650 264 Q703 311 719 384 Q726 412 726 446 L726 599 Z M911 1494 Q941 1494 962 1471 Q985 1448 985 1415 L985 314 Q985 264 983 203 L982 152 Q981 120 980 100 Q979 67 958 45 Q937 23 907 23 L840 23 Q809 23 788 47 Q766 70 766 103 L767 168 L731 168 Q637 0 453 0 Q283 0 164 134 Q31 284 31 541 L31 545 Q31 772 139 912 Q244 1047 410 1047 Q503 1047 576 1009 Q644 974 691 900 L726 900 L726 1415 Q726 1448 748 1471 Q769 1494 800 1494 L911 1494 Z " />
<glyph glyph-name="Emacron" unicode="&#x112;" horiz-adv-x="949" d="M827 226 Q855 226 875 204 Q896 180 896 147 L896 79 Q896 45 875 22 Q855 0 827 0 L178 0 Q151 0 130 23 Q109 45 109 79 L109 1315 Q109 1348 130 1372 Q151 1394 178 1394 L800 1394 Q828 1394 848 1372 Q869 1348 869 1315 L869 1246 Q869 1213 848 1189 Q828 1168 800 1168 L430 1168 Q402 1168 382 1147 Q363 1126 363 1096 L363 902 Q363 872 382 851 Q402 830 430 830 L772 830 Q799 830 820 808 Q840 785 840 751 L840 685 Q840 651 820 628 Q799 606 772 606 L430 606 Q402 606 382 585 Q363 564 363 534 L363 298 Q363 268 382 247 Q402 226 430 226 L827 226 Z M736 1727 Q736 1709 724 1696 Q711 1684 693 1684 L312 1684 Q294 1684 281 1696 Q269 1709 269 1727 L269 1780 Q269 1797 281 1810 Q294 1823 312 1823 L693 1823 Q711 1823 724 1810 Q736 1797 736 1780 L736 1727 Z " />
<glyph glyph-name="emacron" unicode="&#x113;" horiz-adv-x="971" d="M595 619 Q629 619 649 647 Q665 666 665 689 Q665 697 663 706 Q650 774 611 817 Q561 870 480 870 Q406 870 354 820 Q312 780 290 714 Q286 702 286 690 Q286 669 299 650 Q320 619 356 619 L595 619 Z M498 1045 Q705 1045 814 891 Q908 756 908 546 Q908 531 907 513 Q905 482 884 460 Q863 438 834 438 L362 438 Q323 438 302 403 Q291 385 291 367 Q291 350 300 333 Q333 267 410 232 Q479 200 569 200 Q664 200 747 218 Q755 220 762 220 Q784 220 803 206 Q829 188 834 156 L839 125 Q841 116 841 108 Q841 86 830 67 Q814 42 786 33 Q668 0 526 0 Q291 0 159 137 Q31 272 31 510 Q31 723 145 874 Q274 1045 498 1045 Z M703 1317 Q703 1299 691 1286 Q678 1274 660 1274 L279 1274 Q261 1274 248 1286 Q236 1299 236 1317 L236 1370 Q236 1387 248 1400 Q261 1413 279 1413 L660 1413 Q678 1413 691 1400 Q703 1387 703 1370 L703 1317 Z " />
<glyph glyph-name="Ebreve" unicode="&#x114;" horiz-adv-x="949" d="M827 226 Q855 226 875 204 Q896 180 896 147 L896 79 Q896 45 875 22 Q855 0 827 0 L178 0 Q151 0 130 23 Q109 45 109 79 L109 1315 Q109 1348 130 1372 Q151 1394 178 1394 L800 1394 Q828 1394 848 1372 Q869 1348 869 1315 L869 1246 Q869 1213 848 1189 Q828 1168 800 1168 L430 1168 Q402 1168 382 1147 Q363 1126 363 1096 L363 902 Q363 872 382 851 Q402 830 430 830 L772 830 Q799 830 820 808 Q840 785 840 751 L840 685 Q840 651 820 628 Q799 606 772 606 L430 606 Q402 606 382 585 Q363 564 363 534 L363 298 Q363 268 382 247 Q402 226 430 226 L827 226 Z M332 1823 Q362 1823 372 1794 Q406 1693 500 1693 Q605 1693 635 1793 Q639 1806 651 1815 Q662 1823 677 1823 L715 1823 Q735 1823 748 1807 Q758 1795 758 1781 Q758 1777 757 1773 Q740 1674 675 1618 Q609 1561 502 1561 Q395 1561 327 1620 Q265 1674 248 1773 Q247 1778 247 1782 Q247 1796 256 1807 Q269 1823 289 1823 L332 1823 Z " />
<glyph glyph-name="ebreve" unicode="&#x115;" horiz-adv-x="971" d="M595 619 Q629 619 649 647 Q665 666 665 689 Q665 697 663 706 Q650 774 611 817 Q561 870 480 870 Q406 870 354 820 Q312 780 290 714 Q286 702 286 690 Q286 669 299 650 Q320 619 356 619 L595 619 Z M498 1045 Q705 1045 814 891 Q908 756 908 546 Q908 531 907 513 Q905 482 884 460 Q863 438 834 438 L362 438 Q323 438 302 403 Q291 385 291 367 Q291 350 300 333 Q333 267 410 232 Q479 200 569 200 Q664 200 747 218 Q755 220 762 220 Q784 220 803 206 Q829 188 834 156 L839 125 Q841 116 841 108 Q841 86 830 67 Q814 42 786 33 Q668 0 526 0 Q291 0 159 137 Q31 272 31 510 Q31 723 145 874 Q274 1045 498 1045 Z M299 1413 Q329 1413 339 1384 Q373 1283 467 1283 Q572 1283 602 1383 Q606 1396 618 1405 Q629 1413 644 1413 L682 1413 Q702 1413 715 1397 Q725 1385 725 1371 Q725 1367 724 1363 Q707 1264 642 1208 Q576 1151 469 1151 Q362 1151 294 1210 Q232 1264 215 1363 Q214 1368 214 1372 Q214 1386 223 1397 Q236 1413 256 1413 L299 1413 Z " />
<glyph glyph-name="Edotaccent" unicode="&#x116;" horiz-adv-x="949" d="M827 226 Q855 226 875 204 Q896 180 896 147 L896 79 Q896 45 875 22 Q855 0 827 0 L178 0 Q151 0 130 23 Q109 45 109 79 L109 1315 Q109 1348 130 1372 Q151 1394 178 1394 L800 1394 Q828 1394 848 1372 Q869 1348 869 1315 L869 1246 Q869 1213 848 1189 Q828 1168 800 1168 L430 1168 Q402 1168 382 1147 Q363 1126 363 1096 L363 902 Q363 872 382 851 Q402 830 430 830 L772 830 Q799 830 820 808 Q840 785 840 751 L840 685 Q840 651 820 628 Q799 606 772 606 L430 606 Q402 606 382 585 Q363 564 363 534 L363 298 Q363 268 382 247 Q402 226 430 226 L827 226 Z M504 1566 Q453 1566 418 1604 Q382 1642 382 1695 Q382 1752 417 1789 Q453 1826 506 1826 Q556 1826 589 1789 Q624 1752 624 1695 Q624 1642 589 1603 Q555 1566 506 1566 L504 1566 Z " />
<glyph glyph-name="edotaccent" unicode="&#x117;" horiz-adv-x="970" d="M594 619 Q628 619 648 647 Q664 666 664 689 Q664 697 662 706 Q649 774 610 817 Q560 870 479 870 Q405 870 353 820 Q311 780 289 714 Q285 702 285 690 Q285 669 298 650 Q319 619 355 619 L594 619 Z M497 1045 Q704 1045 813 891 Q907 756 907 546 Q907 531 906 513 Q904 482 883 460 Q862 438 833 438 L361 438 Q322 438 301 403 Q290 385 290 367 Q290 350 299 333 Q332 267 409 232 Q478 200 568 200 Q663 200 746 218 Q754 220 761 220 Q783 220 802 206 Q828 188 833 156 L838 125 Q840 116 840 108 Q840 86 829 67 Q813 42 785 33 Q667 0 525 0 Q290 0 158 137 Q30 272 30 510 Q30 723 144 874 Q273 1045 497 1045 Z M470 1156 Q419 1156 384 1194 Q348 1232 348 1285 Q348 1342 383 1379 Q419 1416 472 1416 Q522 1416 555 1379 Q590 1342 590 1285 Q590 1232 555 1193 Q521 1156 472 1156 L470 1156 Z " />
<glyph glyph-name="Ecaron" unicode="&#x11a;" horiz-adv-x="949" d="M827 226 Q855 226 875 204 Q896 180 896 147 L896 79 Q896 45 875 22 Q855 0 827 0 L178 0 Q151 0 130 23 Q109 45 109 79 L109 1315 Q109 1348 130 1372 Q151 1394 178 1394 L800 1394 Q828 1394 848 1372 Q869 1348 869 1315 L869 1246 Q869 1213 848 1189 Q828 1168 800 1168 L430 1168 Q402 1168 382 1147 Q363 1126 363 1096 L363 902 Q363 872 382 851 Q402 830 430 830 L772 830 Q799 830 820 808 Q840 785 840 751 L840 685 Q840 651 820 628 Q799 606 772 606 L430 606 Q402 606 382 585 Q363 564 363 534 L363 298 Q363 268 382 247 Q402 226 430 226 L827 226 Z M315 1759 Q307 1770 307 1782 Q307 1792 313 1802 Q326 1824 351 1824 L401 1824 Q426 1824 439 1802 L528 1640 L555 1640 L646 1802 Q659 1824 684 1824 L734 1824 Q759 1824 772 1802 Q778 1792 778 1782 Q778 1770 770 1759 L647 1561 Q634 1541 610 1541 L473 1541 Q449 1541 436 1562 L315 1759 Z " />
</font>
</svg>
