<?xml version="1.0" encoding="UTF-8"?>
<svg xmlns="http://www.w3.org/2000/svg" xmlns:xlink="http://www.w3.org/1999/xlink" version="1.2" >
<font id="Carson Bold Oblique">
<font-face  font-family="Carson" units-per-em="2048" ascent="1511" descent="-446" font-style="italic" font-weight="700" font-stretch="normal" cap-height="1434" x-height="1040" underline-position="-217" underline-thickness="150" />
<missing-glyph  horiz-adv-x="724" d="M352.297 365 Q436.297 365 480.427 309 Q522.978 256 513.173 172 Q501.649 90 442.919 35 Q381.908 -22 297.908 -22 Q214.908 -22 170.778 34 Q128.649 90 140.173 172 Q151.697 254 209.427 309 Q270.297 365 352.297 365 Z M535.049 1459 Q729.049 1459 819.714 1357 Q902.065 1267 882.39 1127 Q867.492 1021 796.719 923 Q768.238 884 728.335 842 Q714.087 826 695.135 805 L677.887 789 L661.357 771 Q539.352 650 519.957 512 L518.833 504 Q516.865 490 505.179 478 Q490.351 465 472.351 465 L291.351 465 Q265.351 465 249.881 483 Q237.13 499 239.222 521 Q239.768 532 241.454 544 Q263.66 702 405.741 852 Q475.562 929 503.762 966 Q548.195 1026 555.222 1076 Q572.227 1197 429.071 1203 Q377.071 1203 313.26 1183 Q296.557 1178 280.557 1178 Q257.557 1178 237.103 1189 Q204.773 1208 199.395 1248 L191.298 1290 Q188.406 1305 190.233 1318 Q193.325 1340 207.136 1360 Q229.336 1397 267.163 1410 Q396.049 1459 535.049 1459 Z " />
<glyph glyph-name="&amp;#x0;" horiz-adv-x="20" d="" />
<glyph glyph-name="&amp;#x1d;" unicode="&#x1d;" horiz-adv-x="20" d="" />
<glyph glyph-name="&amp;#x20;" unicode="&#x20;" horiz-adv-x="404" d="" />
<glyph glyph-name="&amp;#xa0;" unicode="&#xa0;" horiz-adv-x="404" d="" />
<glyph glyph-name="exclam" unicode="&#x21;" horiz-adv-x="537" d="M290.763 1336 L291.465 1341 Q296.665 1378 328.881 1408 Q359.098 1438 403.098 1438 L529.098 1438 Q572.098 1438 597.6 1406 Q618.665 1378 613.606 1342 L612.763 1336 L469.827 568 Q462.487 530 430.551 502 Q399.757 475 358.757 475 L304.757 475 Q263.757 475 240.551 502 Q216.487 530 219.827 568 L290.763 1336 Z M102.595 175 Q114.4 259 172.849 312 Q233.719 368 316.719 368 Q399.719 368 442.13 314 Q485.4 259 475.595 175 Q463.93 92 407.341 38 Q346.33 -19 262.33 -19 Q179.33 -19 133.341 38 Q91.0703 93 102.595 175 Z " />
<glyph glyph-name="quotedbl" unicode="&#x22;" horiz-adv-x="706" d="M527.779 1699 L535.779 1699 Q583.779 1699 608.298 1660 Q621.503 1633 617.568 1605 Q615.319 1589 606.79 1571 Q501.714 1357 378.557 1178 Q348.092 1132 293.53 1128 L284.53 1128 Q238.53 1128 215.73 1165 Q198.525 1192 202.741 1222 Q204.708 1236 211.817 1251 Q291.238 1439 349.114 1616 Q358.33 1646 385.422 1668 Q413.655 1691 449.076 1694 L527.779 1699 Z M922.779 1699 L929.779 1699 Q978.779 1699 1003.16 1659 Q1017.64 1634 1013.71 1606 Q1011.18 1588 1001.79 1571 Q895.011 1352 774.557 1178 Q744.092 1132 711.811 1130 Q700.671 1129 691.671 1129 Q631.671 1129 610.73 1165 Q593.525 1192 597.741 1222 Q599.708 1236 606.817 1251 Q686.238 1439 743.973 1615 Q753.471 1647 781.422 1668 Q809.795 1692 843.076 1694 L922.779 1699 Z " />
<glyph glyph-name="numbersign" unicode="&#x23;" horiz-adv-x="1010" d="M740.422 928 Q742.125 933 742.687 937 Q745.357 956 735.325 970 Q724.714 987 705.714 987 L618.714 987 Q603.714 987 590.168 976 Q575.481 964 569.671 944 L531.416 807 L530.433 800 Q527.622 780 537.373 764 Q548.125 748 566.125 748 L654.125 748 Q668.125 748 681.811 760 Q696.357 771 702.168 791 L740.422 928 Z M1070.4 1184 Q1110.4 1184 1133.61 1157 Q1157.67 1129 1152.33 1091 L1150.92 1081 Q1145.44 1042 1113.51 1014 Q1082.71 987 1042.71 987 L946.714 987 L880.125 748 L954.125 748 Q995.125 748 1019.05 719 Q1041.39 693 1036.05 655 L1034.93 647 Q1029.45 608 999.795 582 Q967.719 553 926.719 553 L821.719 553 L740.697 254 Q730.919 220 702.687 197 Q672.173 172 636.173 172 L633.173 172 Q589.173 172 564.951 206 Q547.605 232 552.103 264 Q553.087 271 554.93 277 L630.719 553 L455.719 553 L374.697 254 Q364.919 220 334.405 195 Q305.173 172 269.173 172 L267.173 172 Q223.173 172 198.951 206 Q181.465 231 185.962 263 Q186.946 270 189.07 278 L265.719 553 L195.719 553 Q155.719 553 130.795 582 Q109.449 608 114.93 647 L116.054 655 Q121.395 693 150.049 719 Q183.125 748 223.125 748 L327.125 748 L391.714 987 L313.714 987 Q273.714 987 248.789 1016 Q227.444 1042 232.925 1081 L234.33 1091 Q239.671 1129 268.325 1155 Q301.4 1184 341.4 1184 L448.4 1184 L528.017 1473 Q537.936 1508 565.887 1529 Q595.541 1555 632.541 1555 Q677.541 1555 701.622 1520 Q719.109 1495 714.611 1463 Q713.627 1456 711.503 1448 L638.4 1184 L812.4 1184 L895.157 1474 Q904.795 1507 934.309 1532 Q962.541 1555 999.541 1555 Q1043.54 1555 1067.62 1520 Q1084.97 1494 1080.47 1462 Q1079.49 1455 1077.5 1448 L1002.4 1184 L1070.4 1184 Z " />
<glyph glyph-name="dollar" unicode="&#x24;" horiz-adv-x="1031" d="M743.168 791 Q916.892 725 983.541 630 Q1047.61 538 1027.37 394 Q1006.99 249 900.238 144 Q787.497 32 612.281 2 L595.276 -119 Q589.795 -158 558 -185 Q526.643 -216 483.643 -216 L470.643 -216 Q427.643 -216 404 -185 Q381.795 -158 387.276 -119 L402.032 -14 Q261.016 -7 142.762 41 Q109.87 56 98.3676 88 Q90.319 109 93.5514 132 Q94.9568 142 98.6433 154 L120.935 213 Q138.838 255 179.649 275 Q202.335 287 226.335 287 Q245.335 287 263.211 279 Q375.746 233 493.746 233 Q578.746 233 635.384 266 Q693.162 300 702.297 365 Q710.87 426 665.914 469 Q622.676 510 515.438 551 Q345.152 613 269.816 696 Q182.589 794 202.968 939 Q222.644 1079 326.838 1180 Q433.454 1284 598.092 1317 L612.849 1422 Q618.471 1462 649.265 1489 Q682.482 1519 725.482 1519 L737.482 1519 Q780.482 1519 803.546 1491 Q827.471 1462 821.849 1422 L809.2 1332 Q923.498 1327 1014.14 1296 Q1049.31 1283 1062.68 1250 Q1071.58 1228 1068.35 1205 Q1066.67 1193 1061.84 1180 L1042.67 1129 Q1027.05 1089 987.238 1069 Q963.411 1056 937.411 1056 Q920.411 1056 905.254 1062 Q814.752 1094 714.752 1094 Q625.752 1094 577.692 1058 Q535.335 1027 528.027 975 Q520.719 923 571.957 882 Q617.616 844 743.168 791 Z " />
<glyph glyph-name="percent" unicode="&#x25;" horiz-adv-x="1802" d="M524.016 733 Q583.016 733 625.011 797 Q666.287 863 683.011 982 Q699.033 1096 678.027 1160 Q656.006 1231 592.006 1231 Q532.006 1231 484.746 1158 Q443.611 1093 428.011 982 Q412.13 869 436.573 801 Q463.016 733 524.016 733 Z M924.119 997 Q895.308 792 768.022 669 Q647.141 556 492.141 556 Q334.141 556 249.162 670 Q161.465 786 187.746 973 Q214.168 1161 330.033 1281 Q452.741 1407 622.741 1407 Q792.741 1407 874.157 1289 Q949.557 1178 924.119 997 Z M1428.74 1407 Q1473.74 1407 1490.26 1368 Q1497.73 1350 1495.06 1331 Q1492.67 1314 1481.28 1297 L622.67 19 Q596.908 -22 549.908 -22 Q504.908 -22 487.389 17 Q480.919 35 483.449 53 Q485.978 71 497.368 88 L1353.12 1367 Q1380.74 1407 1426.74 1407 L1428.74 1407 Z M1391.35 159 Q1450.35 159 1493.34 223 Q1534.48 288 1551.34 408 Q1586.19 656 1461.19 656 Q1398.19 656 1354.36 586 Q1312.94 519 1297.34 408 L1295.65 396 Q1280.9 291 1304.9 227 Q1330.35 159 1391.35 159 Z M1490.07 833 Q1660.07 833 1741.49 715 Q1817.89 604 1792.45 423 Q1763.5 217 1634.35 95 Q1516.47 -18 1360.47 -18 Q1203.47 -18 1118.35 95 Q1030.65 211 1056.08 399 Q1082.5 587 1197.36 707 Q1320.07 833 1490.07 833 Z " />
<glyph glyph-name="ampersand" unicode="&#x26;" horiz-adv-x="1364" d="M735.903 227 Q757.589 239 763.962 263 Q765.665 268 766.368 273 Q769.319 294 758.287 308 Q682.778 404 557.935 583 Q546.762 596 530.903 597 L528.903 597 Q512.903 597 500.216 585 Q420.238 514 406.746 418 Q393.395 323 446.26 258 Q498.124 193 597.124 193 Q669.124 193 735.903 227 Z M779.849 1237 Q726.849 1237 686.806 1194 Q648.903 1152 640.33 1091 Q628.384 1006 679.298 920 Q689.189 905 703.908 903 L709.908 903 Q723.908 903 737.033 911 Q801.498 957 833.119 997 Q867.444 1042 874.892 1095 Q883.044 1153 857.806 1194 Q832.849 1237 779.849 1237 Z M1334.42 807 Q1384.42 807 1407.94 768 Q1423.14 741 1418.78 710 Q1417.38 700 1413.69 688 Q1313.01 427 1150.1 264 Q1204.28 187 1235.96 142 Q1255.02 114 1250.52 82 Q1247.71 62 1236.9 42 Q1202.47 -18 1137.47 -18 L1028.47 -18 Q984.47 -18 960.249 16 Q932.589 54 912.384 81 Q745.238 -41 521.238 -41 Q285.238 -41 172.508 89 Q74.2487 201 97.2974 365 Q116.411 501 202.308 607 Q282.503 708 413.779 774 L415.325 785 Q377.054 840 360.033 911 Q340.854 988 351.114 1061 Q371.914 1209 488.952 1316 Q623.379 1440 818.379 1440 Q983.379 1440 1075.31 1347 Q1168.1 1253 1147.16 1104 Q1115.54 879 825.579 737 L822.033 726 Q843.816 696 874.054 655 L897.995 619 L922.076 584 Q981.13 499 1008.21 464 Q1085.55 566 1143.88 732 Q1155.23 763 1184.32 785 Q1213.42 807 1250.42 807 L1334.42 807 Z " />
<glyph glyph-name="quotesingle" unicode="&#x27;" horiz-adv-x="337" d="M427.06 1701 Q473.06 1701 499.422 1668 Q521.628 1641 516.427 1604 L515.303 1596 L433.038 1217 Q425.698 1179 392.044 1153 Q358.108 1125 317.108 1125 Q275.108 1125 249.044 1153 Q224.698 1179 226.038 1217 L250.163 1595 L251.146 1602 Q256.346 1639 286.422 1668 Q322.06 1701 369.06 1701 L427.06 1701 Z " />
<glyph glyph-name="parenleft" unicode="&#x28;" horiz-adv-x="533" d="M469.638 -152 Q474.968 -171 472.297 -190 Q468.643 -216 449.989 -242 Q415.524 -288 360.524 -288 L348.524 -288 Q293.524 -288 270.27 -240 Q203.93 -93 178.227 87 Q146.849 312 183.108 570 Q251.725 1044 498.227 1382 Q534.692 1428 589.692 1428 L600.692 1428 Q654.692 1428 677.227 1382 Q688.714 1357 685.2 1332 Q682.53 1313 671.719 1293 Q491.871 981 433.687 567 Q377.189 165 469.638 -152 Z " />
<glyph glyph-name="parenright" unicode="&#x29;" horiz-adv-x="545" d="M431.649 1385 Q497.849 1237 523.833 1059 Q555.211 834 518.952 576 Q482.551 317 386.789 91 Q311.773 -87 203.832 -236 Q169.086 -284 112.086 -284 L100.086 -284 Q46.0864 -284 22.8324 -236 Q12.2053 -212 15.7189 -187 Q18.3891 -168 29.0594 -149 Q212.173 172 268.952 576 Q325.73 980 233.281 1297 Q228.092 1317 230.763 1336 Q234.417 1362 251.93 1387 Q287.254 1432 342.254 1432 L354.254 1432 Q410.254 1432 431.649 1385 Z " />
<glyph glyph-name="asterisk" unicode="&#x2a;" horiz-adv-x="706" d="M847.6 1406 Q858.022 1409 869.022 1409 Q901.022 1409 922.93 1387 Q950.276 1361 944.514 1320 L944.373 1319 Q938.892 1280 905.098 1253 Q876.006 1231 845.006 1231 Q837.006 1231 827.146 1232 L609.908 1273 L611.644 1264 L738.346 1084 Q755.833 1059 751.476 1028 Q750.492 1021 748.508 1014 Q735.746 973 698.935 953 L694.514 950 Q669.546 936 645.546 936 Q629.546 936 614.389 942 Q576.498 957 567.979 996 L520.881 1223 L412.979 996 Q393.638 958 351.53 943 Q333.546 936 316.546 936 Q294.546 936 271.514 950 L270.935 953 Q240.027 975 240.508 1014 Q240.492 1021 241.476 1028 Q245.692 1058 269.206 1083 L447.346 1269 L447.768 1272 L230.287 1233 Q220.146 1232 212.146 1232 Q180.146 1232 157.098 1253 Q130.752 1279 136.514 1320 Q142.276 1361 176.93 1387 Q204.022 1409 236.022 1409 Q247.022 1409 257.6 1406 L458.541 1370 L335.682 1556 Q319.914 1579 324.13 1609 Q325.255 1617 327.379 1625 Q340 1665 377.952 1686 L383.373 1689 Q406.341 1703 431.341 1703 Q448.341 1703 464.357 1696 Q499.39 1682 507.909 1643 L549.287 1418 L661.909 1643 Q681.53 1683 722.498 1697 Q739.341 1703 754.341 1703 Q779.341 1703 797.514 1690 L800.514 1690 Q834.422 1668 834.66 1627 Q834.395 1618 833.271 1610 Q829.055 1580 806.682 1556 L628.4 1369 L627.698 1364 L847.6 1406 Z " />
<glyph glyph-name="plus" unicode="&#x2b;" horiz-adv-x="1106" d="M1106.05 840 Q1145.05 840 1168.12 812 Q1188.32 785 1183.41 750 L1180.45 729 Q1175.54 694 1148.88 668 Q1116.95 640 1077.95 640 L744.946 640 L691.822 262 Q686.762 226 658.108 200 Q627.173 172 589.173 172 L560.173 172 Q521.173 172 500.108 200 Q478.762 226 483.822 262 L536.946 640 L202.946 640 Q164.946 640 140.881 668 Q120.395 693 125.454 729 L128.406 750 Q133.465 786 162.119 812 Q193.054 840 231.054 840 L565.054 840 L617.617 1214 Q622.676 1250 651.19 1275 Q680.265 1304 719.265 1304 L748.265 1304 Q787.265 1304 809.19 1275 Q830.676 1250 825.617 1214 L773.054 840 L1106.05 840 Z " />
<glyph glyph-name="comma" unicode="&#x2c;" horiz-adv-x="364" d="M276.524 267 L282.524 267 Q332.524 267 356.903 227 Q371.249 201 367.173 172 Q364.784 155 356.535 139 Q237.384 -104 114.086 -284 Q81.7621 -329 28.9188 -335 L8.77828 -336 L-1.22172 -336 Q-47.2217 -336 -70.0217 -299 Q-87.2271 -272 -82.8703 -241 Q-81.0433 -228 -75.0757 -214 Q12.3135 -12 72.2974 180 Q81.6541 211 108.887 234 Q137.119 257 171.541 260 L276.524 267 Z " />
<glyph glyph-name="&amp;#x2d;" unicode="&#x2d;" horiz-adv-x="607" d="M582.946 825 Q620.946 825 644.011 797 Q665.357 771 660.298 735 L655.379 700 Q650.319 664 621.665 638 Q590.73 610 552.73 610 L191.73 610 Q153.73 610 130.665 638 Q109.319 664 114.379 700 L119.298 735 Q124.357 771 153.011 797 Q183.946 825 221.946 825 L582.946 825 Z " />
<glyph glyph-name="&amp;#xad;" unicode="&#xad;" horiz-adv-x="607" d="M582.946 825 Q620.946 825 644.011 797 Q665.357 771 660.298 735 L655.379 700 Q650.319 664 621.665 638 Q590.73 610 552.73 610 L191.73 610 Q153.73 610 130.665 638 Q109.319 664 114.379 700 L119.298 735 Q124.357 771 153.011 797 Q183.946 825 221.946 825 L582.946 825 Z " />
<glyph glyph-name="period" unicode="&#x2e;" horiz-adv-x="389" d="M228.524 267 Q312.524 267 356.654 211 Q398.924 156 386.838 70 Q375.173 -13 316.162 -70 Q256.292 -126 172.292 -126 Q90.2919 -126 44.3027 -69 Q2.17297 -13 13.8379 70 Q25.6433 154 84.373 209 Q144.524 267 228.524 267 Z " />
<glyph glyph-name="slash" unicode="&#x2f;" horiz-adv-x="627" d="M705.238 1439 Q756.238 1439 780.476 1398 Q794.822 1372 790.606 1342 Q788.779 1329 782.811 1315 L214.503 -32 Q202.286 -62 174.616 -81 Q144.524 -103 110.524 -103 L100.524 -103 Q49.5243 -103 25.2865 -62 Q10.9405 -36 15.1568 -6 Q16.9838 7 22.9514 21 L591.26 1368 Q603.476 1398 632.287 1418 Q661.238 1439 696.238 1439 L705.238 1439 Z " />
<glyph glyph-name="zero" unicode="0" horiz-adv-x="1258" d="M694.168 236 Q883.168 236 953.016 733 Q1021.88 1223 829.881 1223 Q742.881 1223 674.157 1104 Q601.168 976 567.438 736 L565.049 719 Q531.741 482 568.033 356 Q603.168 236 694.168 236 Z M871.298 1475 Q1135.3 1475 1238.24 1254 Q1328.69 1058 1283.44 736 Q1235.23 393 1077.41 195 Q909.751 -16 650.751 -16 Q393.751 -16 287.67 204 Q192.497 402 236.314 728 Q282.692 1058 439.66 1257 Q612.298 1475 871.298 1475 Z " />
<glyph glyph-name="one" unicode="1" horiz-adv-x="770" d="M741.503 1448 Q784.503 1448 810.865 1415 Q834.93 1387 829.027 1345 L651.103 79 Q645.341 38 613.405 10 Q577.768 -23 534.768 -23 L414.768 -23 Q369.768 -23 345.405 10 Q321.341 38 327.103 79 L466.519 1071 Q471.298 1105 445.844 1116 L443.844 1116 Q435.265 1119 430.265 1119 Q422.265 1119 413.844 1116 L312.098 1068 Q287.552 1057 264.552 1057 Q240.552 1057 220.098 1068 Q180.19 1090 176.795 1137 L172.822 1187 Q172.227 1197 173.773 1208 Q177.146 1232 191.098 1253 Q209.595 1285 245.703 1300 L542.817 1436 Q565.503 1448 590.503 1448 L741.503 1448 Z " />
<glyph glyph-name="two" unicode="2" horiz-adv-x="1107" d="M957.681 261 Q1001.68 261 1029.18 229 Q1051.97 199 1046.35 159 L1035.81 84 Q1030.04 43 998.827 13 Q962.33 -19 918.33 -19 L121.33 -19 Q78.3297 -19 50.827 13 Q28.0433 43 33.8054 84 L41.9568 142 Q48.1406 186 84.4974 217 L252.173 357 Q535.2 592 645.346 714 Q780.006 861 800.433 985 Q814.065 1082 766.357 1141 Q717.93 1202 604.93 1202 Q506.93 1202 393.919 1145 Q367.952 1131 341.952 1131 Q322.952 1131 305.935 1138 Q265.325 1155 256.227 1197 L244.114 1246 Q239.784 1265 242.454 1284 Q244.844 1301 253.092 1317 Q269.011 1352 304.963 1373 Q496.298 1475 709.298 1475 Q945.298 1475 1058.89 1344 Q1169.46 1220 1140.51 1014 Q1116.9 846 983.427 679 Q881.438 551 679.968 384 L633.908 348 Q619.222 336 613.551 317 Q612.13 314 611.708 311 Q609.6 296 615.773 283 Q625.681 261 645.681 261 L957.681 261 Z " />
<glyph glyph-name="three" unicode="3" horiz-adv-x="1046" d="M812.919 775 Q938.406 750 1007.19 656 Q1081.42 558 1062.87 426 Q1035.75 233 868.6 111 Q694.751 -16 434.751 -16 Q307.751 -16 195.108 15 Q97.0433 43 38.3676 88 L139.503 338 Q168.254 322 196.568 310 Q233.178 293 268.351 280 Q362.995 249 448.995 249 Q564.995 249 640.584 303 Q709.751 354 722.119 442 Q736.454 544 659.465 601 Q592.211 649 478.211 649 L344.211 649 L377.941 889 L505.941 889 Q601.222 891 672.141 926 Q758.465 971 770.552 1057 Q780.249 1126 736.011 1167 Q688.773 1208 593.773 1208 Q519.773 1208 429.698 1179 Q354.184 1154 291.125 1118 L260.557 1363 Q333.022 1409 448.238 1439 Q575.876 1472 702.876 1472 Q919.876 1472 1029.98 1366 Q1135.07 1267 1113.7 1115 Q1097.54 1000 1023.59 915 Q945.227 827 813.762 781 L812.919 775 Z " />
<glyph glyph-name="four" unicode="4" horiz-adv-x="1198" d="M829.016 918 Q844.898 1031 877.681 1186 L878.525 1192 Q877.525 1192 877.103 1189 Q859.168 1161 835.546 1121 L794.989 1053 L476.903 597 L475.779 589 L734.779 589 Q752.779 589 769.027 605 Q787.416 622 790.649 645 L829.016 918 Z M1170.78 589 Q1213.78 589 1239.56 559 Q1262.35 529 1256.58 488 L1249.84 440 Q1243.79 397 1209.44 366 Q1172.66 332 1128.66 332 L1113.66 332 Q1094.66 332 1078.69 318 Q1063.44 302 1060.35 280 L1033.23 87 Q1027.32 45 993.108 15 Q955.33 -19 911.33 -19 L804.33 -19 Q759.33 -19 731.108 15 Q706.324 45 712.368 88 L739.07 278 Q742.584 303 728.692 318 Q716.66 332 700.66 332 L230.66 332 Q186.66 332 159.438 366 Q133.795 397 139.838 440 L151.924 526 Q156 555 173.654 581 L775.757 1400 Q814.487 1455 875.487 1455 L1118.49 1455 Q1162.49 1455 1190.71 1421 Q1216.49 1391 1210.45 1348 L1111.37 643 Q1107.99 619 1118.89 604 Q1130.78 589 1149.78 589 L1170.78 589 Z " />
<glyph glyph-name="five" unicode="5" horiz-adv-x="1065" d="M977.6 851 Q1128.88 732 1094.44 487 Q1065.21 279 887.973 135 Q694.908 -22 423.908 -22 Q258.908 -22 126.373 24 Q91.2 37 75.9784 71 Q67.3514 95 71.0054 121 Q72.5514 132 76.2379 144 L96.2487 201 Q112.011 242 153.384 266 Q181.492 281 208.492 281 Q222.492 281 235.93 277 Q344.151 243 445.151 243 Q556.151 243 638.319 294 Q735.033 356 750.211 464 Q784.503 708 399.503 708 Q361.503 708 328.081 705 L324.081 705 Q276.081 705 250 740 Q229.216 770 234.557 808 Q235.4 814 237.384 821 L379.698 1364 Q390.038 1402 421.692 1428 Q454.487 1455 494.487 1455 L1072.49 1455 Q1116.49 1455 1142.27 1425 Q1164.91 1394 1159.15 1353 L1148.75 1279 Q1143.13 1239 1109.63 1207 Q1077.42 1177 1033.42 1177 L597.417 1177 L532.795 952 Q563.638 958 622.638 958 Q850.638 958 977.6 851 Z " />
<glyph glyph-name="six" unicode="6" horiz-adv-x="1235" d="M710.2 222 Q790.2 222 852.6 296 Q913.86 369 929.741 482 Q945.341 593 903.038 662 Q858.438 736 762.438 736 Q701.438 736 642.098 698 Q589.319 664 555.027 605 Q538.092 577 529.941 519 Q518.811 390 560.849 312 Q607.2 222 710.2 222 Z M903.168 976 Q1088.17 976 1192.46 850 Q1301.05 719 1270.41 501 Q1239.49 281 1075.41 131 Q904.346 -26 679.346 -26 Q409.346 -26 287.049 164 Q174.222 336 212.73 610 Q240.979 811 332.011 982 Q418.779 1144 548.8 1258 Q786.627 1456 1120.02 1473 Q1134.02 1473 1146.3 1475 L1153.3 1475 Q1193.3 1475 1221.36 1447 Q1245.87 1415 1239.82 1372 L1232.09 1317 Q1226.47 1277 1196.11 1246 Q1164.04 1217 1123.62 1214 Q1109.05 1210 1088.05 1210 Q887.665 1193 756.611 1093 Q641.525 1007 591.708 866 Q590.287 863 590.006 861 L589.584 858 Q712.168 976 903.168 976 Z " />
<glyph glyph-name="seven" unicode="7" horiz-adv-x="1051" d="M1114.07 1452 Q1159.07 1452 1183.43 1419 Q1209.21 1389 1203.31 1347 L1190.8 1258 Q1187.57 1235 1176.76 1215 L465.919 35 Q430.486 -25 362.486 -25 L241.486 -25 Q181.486 -25 157.795 27 Q147.308 52 150.962 78 Q154.335 102 169.568 125 L820.308 1162 L820.59 1164 Q821.433 1170 822.433 1170 L280.433 1170 Q235.433 1170 209.93 1202 Q185.146 1232 190.908 1273 L201.309 1347 Q207.211 1389 240.427 1419 Q274.065 1452 320.065 1452 L1114.07 1452 Z " />
<glyph glyph-name="eight" unicode="8" horiz-adv-x="1233" d="M673.216 215 Q753.216 215 811.524 267 Q870.411 316 881.654 396 Q897.535 509 818.811 575 Q779.449 608 729.73 610 Q721.87 611 716.87 611 Q678.87 611 637.341 593 Q590.968 569 557.206 528 Q522.741 482 511.589 424 L509.903 412 Q498.66 332 542.93 277 Q590.216 215 673.216 215 Z M810.973 1245 Q735.973 1245 684.227 1197 Q635.903 1152 625.644 1079 Q612.573 986 698.281 927 Q733.627 901 772.627 901 Q806.627 901 846.438 921 Q932.762 966 949.254 1062 L949.957 1067 Q960.638 1143 926.384 1191 Q890.973 1245 810.973 1245 Z M1023.06 776 Q1125.88 732 1177.65 645 Q1239.02 548 1221.03 420 Q1193.48 224 1031.9 106 Q870.751 -16 628.751 -16 Q380.751 -16 256.022 114 Q148.622 225 171.108 385 Q205.4 629 463.422 743 Q466.562 744 467.265 749 Q467.827 753 464.968 754 Q376.698 809 335.362 892 Q300.606 972 313.957 1067 Q339.114 1246 493.995 1359 Q645.876 1472 856.876 1472 Q1085.88 1472 1193.01 1352 Q1285.54 1249 1265.02 1103 Q1251.67 1008 1192.42 928 Q1129.05 840 1023.89 789 Q1021.75 788 1020.9 782 Q1020.34 778 1023.06 776 Z " />
<glyph glyph-name="nine" unicode="9" horiz-adv-x="1205" d="M894.195 841 Q916.973 875 924.562 929 Q942.692 1058 907.357 1141 Q869.568 1235 769.568 1235 Q690.568 1235 628.011 1167 Q564.033 1096 548.152 983 L547.589 979 Q533.395 878 573.4 814 Q616.843 746 706.843 746 Q765.843 746 817.638 773 Q864.433 800 894.195 841 Z M812.141 1481 Q1071.14 1481 1185 1295 Q1290.11 1125 1252.3 856 Q1191.59 424 916.843 191 Q688.859 -1 356.032 -14 Q332.751 -16 308.751 -16 L305.751 -16 Q262.751 -16 237.108 15 Q213.043 43 219.087 86 L227.378 145 Q232.86 184 264.216 215 Q296.433 245 340.573 246 Q358.714 247 386.135 250 Q548.681 261 667.503 338 Q811.854 433 844.66 517 Q877.465 601 877.746 603 L879.87 611 Q768.114 506 587.114 506 Q401.114 506 295.4 629 Q185.249 756 213.779 959 Q244.135 1175 410.076 1324 Q584.141 1481 812.141 1481 Z " />
<glyph glyph-name="colon" unicode="&#x3a;" horiz-adv-x="517" d="M122.373 394 Q134.038 477 192.768 532 Q253.779 589 336.779 589 Q420.779 589 464.049 534 Q505.319 479 495.373 394 Q483.849 312 425.119 257 Q366.108 200 281.108 200 Q199.108 200 153.119 257 Q110.849 312 122.373 394 Z M218.925 1081 Q230.871 1166 289.319 1219 Q349.471 1277 433.471 1277 Q518.471 1277 560.6 1221 Q602.152 1168 591.925 1081 Q580.4 999 521.671 944 Q462.66 887 377.66 887 Q295.66 887 249.671 944 Q207.4 999 218.925 1081 Z " />
<glyph glyph-name="&amp;#x3b;" unicode="&#x3b;" horiz-adv-x="522" d="M427.768 902 Q344.768 902 299.779 959 Q258.368 1013 269.19 1090 L270.033 1096 Q281.838 1180 339.708 1236 Q399.579 1292 482.579 1292 Q567.579 1292 609.708 1236 Q651.26 1183 641.033 1096 Q629.508 1014 572.638 958 Q511.768 902 427.768 902 Z M415.606 602 L420.606 602 Q469.606 602 494.703 560 Q509.049 534 505.114 506 Q502.724 489 494.476 473 Q376.324 230 251.168 51 Q219.843 6 168 0 L149.859 -1 L139.859 -1 Q93.8595 -1 71.0595 36 Q53.9946 64 58.3514 95 Q60.1784 108 66.146 122 Q151.254 322 214.379 515 Q223.735 546 251.968 569 Q280.481 594 314.622 595 L415.606 602 Z " />
<glyph glyph-name="&amp;#x37e;" unicode="&#x37e;" horiz-adv-x="522" d="M427.768 902 Q344.768 902 299.779 959 Q258.368 1013 269.19 1090 L270.033 1096 Q281.838 1180 339.708 1236 Q399.579 1292 482.579 1292 Q567.579 1292 609.708 1236 Q651.26 1183 641.033 1096 Q629.508 1014 572.638 958 Q511.768 902 427.768 902 Z M415.606 602 L420.606 602 Q469.606 602 494.703 560 Q509.049 534 505.114 506 Q502.724 489 494.476 473 Q376.324 230 251.168 51 Q219.843 6 168 0 L149.859 -1 L139.859 -1 Q93.8595 -1 71.0595 36 Q53.9946 64 58.3514 95 Q60.1784 108 66.146 122 Q151.254 322 214.379 515 Q223.735 546 251.968 569 Q280.481 594 314.622 595 L415.606 602 Z " />
<glyph glyph-name="less" unicode="&#x3c;" horiz-adv-x="1048" d="M377.589 794 L376.465 786 L1010.62 474 Q1036.79 461 1048.56 438 Q1059.18 414 1055.25 386 L1053.98 377 Q1046.68 325 1000.74 297 Q971.211 279 943.211 279 Q921.211 279 901.616 289 L168.725 674 Q117.519 701 125.952 761 L134.243 820 Q142.676 880 201.471 907 L1042.44 1291 Q1064.84 1301 1086.84 1301 Q1114.84 1301 1139.31 1283 Q1177.38 1255 1170.07 1203 L1168.81 1194 Q1164.87 1166 1147.64 1143 Q1128.27 1119 1100.44 1106 L377.589 794 Z " />
<glyph glyph-name="equal" unicode="&#x3d;" horiz-adv-x="1162" d="M1104.71 617 Q1143.71 617 1167.78 589 Q1187.12 563 1182.21 528 L1179.54 509 Q1174.62 474 1146.82 447 Q1115.89 419 1076.89 419 L201.887 419 Q163.887 419 140.822 447 Q119.476 473 124.535 509 L127.206 528 Q132.265 564 159.779 589 Q191.714 617 229.714 617 L1104.71 617 Z M1166.55 1057 Q1205.55 1057 1229.62 1029 Q1248.96 1003 1244.04 968 L1241.37 949 Q1236.45 914 1208.66 887 Q1177.72 859 1138.72 859 L263.725 859 Q225.725 859 202.66 887 Q181.314 913 186.373 949 L189.044 968 Q194.103 1004 221.617 1029 Q253.552 1057 291.552 1057 L1166.55 1057 Z " />
<glyph glyph-name="greater" unicode="&#x3e;" horiz-adv-x="1057" d="M1099.61 908 Q1150.82 881 1142.38 821 L1132.27 749 Q1123.83 689 1065.04 662 L223.773 283 Q202.368 273 181.368 273 Q152.368 273 128.897 291 Q89.8325 319 97.1406 371 L98.4055 380 Q102.481 409 120.714 432 Q140.087 456 166.914 469 L906.903 782 L907.746 788 L256.735 1101 Q232.422 1113 219.935 1138 Q208.168 1161 212.244 1190 L213.508 1199 Q220.817 1251 267.752 1279 Q296.281 1297 325.281 1297 Q346.281 1297 364.876 1287 L1099.61 908 Z " />
<glyph glyph-name="question" unicode="&#x3f;" horiz-adv-x="759" d="M346.389 387 Q430.389 387 474.519 331 Q517.07 278 507.265 194 Q495.741 112 437.011 57 Q376 0 292 0 Q209 0 164.87 56 Q122.741 112 134.265 194 Q145.789 276 203.519 331 Q264.389 387 346.389 387 Z M529.141 1481 Q723.141 1481 813.806 1379 Q896.157 1289 876.481 1149 Q861.584 1043 790.811 945 Q762.33 906 722.427 864 Q708.179 848 689.227 827 L671.979 811 L655.449 793 Q533.443 672 514.049 534 L512.924 526 Q510.957 512 499.27 500 Q484.443 487 466.443 487 L285.443 487 Q259.443 487 243.973 505 Q231.222 521 233.314 543 Q233.86 554 235.546 566 Q257.752 724 399.833 874 Q469.654 951 497.854 988 Q542.287 1048 549.314 1098 Q566.319 1219 423.163 1225 Q371.163 1225 307.352 1205 Q290.649 1200 274.649 1200 Q251.649 1200 231.195 1211 Q198.865 1230 193.487 1270 L185.39 1312 Q182.498 1327 184.325 1340 Q187.417 1362 201.227 1382 Q223.427 1419 261.254 1432 Q390.141 1481 529.141 1481 Z " />
<glyph glyph-name="at" unicode="&#x40;" horiz-adv-x="1531" d="M1008.63 901 Q1010.19 905 1010.89 910 Q1013.7 930 1003.95 946 Q992.341 963 972.341 963 L966.341 963 Q949.622 965 935.622 965 Q823.622 965 738.973 875 Q657.746 788 638.492 651 Q629.497 587 650.579 552 Q670.941 519 715.941 519 Q771.941 519 853.638 588 Q941.179 663 967.687 752 L1008.63 901 Z M1170.86 1109 Q1190.88 1102 1196.21 1083 Q1201.52 1071 1199.55 1057 L1198.71 1051 Q1165.17 912 1144.06 776 L1142.23 763 Q1105.55 502 1165.27 500 L1167.27 500 Q1236.27 500 1303.22 585 Q1382.69 688 1406.87 860 Q1437.36 1077 1333.19 1211 Q1222.73 1350 997.73 1350 Q883.73 1350 773.265 1304 Q660.941 1259 570.135 1175 Q369.714 987 327.973 690 Q291.011 427 416.649 275 Q535.551 132 763.551 132 Q888.551 132 1000.17 172 Q1012.88 177 1025.88 177 Q1042.88 177 1056.75 169 Q1077.92 156 1081.41 131 Q1083.15 122 1081.74 112 Q1079.91 99 1072.09 86 Q1056.85 63 1032.73 55 Q888 0 704 0 Q575 0 465.605 47 Q357.07 93 282.438 181 Q118.86 369 161.162 670 Q183.789 831 258.449 978 Q332.108 1125 447.708 1236 Q565.871 1351 712.725 1414 Q868.141 1481 1037.14 1481 Q1309.14 1481 1457.69 1307 Q1606.23 1133 1568.71 866 Q1536.67 638 1405.99 498 Q1278.59 360 1107.59 360 Q1029.59 360 990.076 399 Q947.119 442 953.503 523 Q853.406 380 673.406 380 Q568.406 380 514.946 455 Q462.487 530 480.335 657 Q508.443 857 652.995 989 Q808.092 1132 1023.09 1132 Q1113.09 1132 1170.86 1109 Z " />
<glyph glyph-name="A" unicode="A" horiz-adv-x="1143" d="M717.919 1145 Q709.546 1121 696.346 1084 L674.211 1019 Q647.389 942 629.925 896 L534.054 655 Q530.93 647 529.946 640 Q527.557 623 537.449 608 Q546.919 590 566.919 590 L726.919 590 Q746.919 590 761.589 609 Q775.557 623 777.946 640 Q779.07 648 778.195 656 L747.925 896 Q739.952 946 733.492 1021 Q731.146 1047 729.346 1084 L725.844 1116 L724.06 1146 Q722.919 1145 717.919 1145 Z M1149.9 106 Q1151.93 92 1150.1 79 Q1145.89 49 1124.09 22 Q1091.19 -20 1042.19 -20 L911.189 -20 Q878.189 -20 858 0 Q836.811 20 832.887 49 L798.849 312 Q793.908 348 761.908 348 L464.908 348 Q432.908 348 418.708 311 L316.168 51 Q303.811 20 278.141 1 Q251.189 -20 218.189 -20 L99.1892 -20 Q50.1892 -20 29.0919 22 Q14.8865 49 19.1027 79 Q20.9298 92 26.8973 106 L543.746 1343 Q556.103 1374 582.914 1394 Q610.725 1414 642.725 1414 L896.725 1414 Q928.725 1414 951.914 1394 Q971.963 1373 975.746 1343 L1149.9 106 Z " />
<glyph glyph-name="B" unicode="B" horiz-adv-x="1120" d="M548.919 220 Q654.919 220 726.384 266 Q807.833 319 823.011 427 Q837.768 532 768.076 584 Q707.4 629 593.4 629 L539.4 629 Q524.4 629 509.573 616 Q494.325 600 491.092 577 L448.368 273 Q445.276 251 457.027 235 Q466.2 222 481.06 221 Q499.919 220 548.919 220 Z M616.649 1200 Q601.508 1199 588.541 1185 Q574.433 1170 571.341 1148 L538.173 912 Q535.081 890 546.973 875 Q557.006 861 572.006 861 L621.006 861 Q732.006 861 799.471 907 Q866.076 954 877.741 1037 Q889.406 1120 841.449 1163 Q796.071 1203 699.071 1203 Q652.071 1203 616.649 1200 Z M931.514 765 Q1042.59 730 1097.95 640 Q1157.74 546 1139.18 414 Q1113.75 233 961.741 112 Q794.189 -20 428.189 -20 Q298.189 -20 192.735 -9 Q154.297 -5 136.232 23 Q116.308 52 121.508 89 L295.076 1324 Q300.136 1360 325.071 1388 Q355.287 1418 390.849 1422 Q531.238 1439 695.238 1439 Q834.238 1439 917.709 1421 Q1007.04 1402 1070.71 1357 Q1136.67 1314 1168.83 1244 Q1201.43 1170 1188.5 1078 Q1174.59 979 1111.77 902 Q1044.68 816 932.638 773 Q931.498 772 931.076 769 Q930.654 766 931.514 765 Z " />
<glyph glyph-name="C" unicode="C" horiz-adv-x="1060" d="M921.244 1190 Q741.244 1190 616.081 1075 Q479.233 948 446.627 716 Q415.989 498 507.281 372 Q600.854 248 790.854 248 Q865.854 248 948.384 266 Q959.805 269 971.805 269 Q1000.81 269 1021.42 252 Q1050.18 229 1050.42 188 L1053.43 124 Q1053.16 115 1051.9 106 Q1048.24 80 1031.87 56 Q1007.09 22 969.686 12 Q851.189 -20 709.189 -20 Q380.189 -20 226.281 187 Q81.4055 380 125.957 697 Q175.708 1051 410.941 1259 Q635.909 1458 945.909 1458 Q1076.91 1458 1180.69 1428 Q1215.87 1415 1230.09 1381 Q1238.85 1358 1235.34 1333 Q1233.79 1322 1230.11 1310 L1204.13 1239 Q1188.79 1201 1154.98 1181 Q1128.73 1165 1101.73 1165 Q1090.73 1165 1078.15 1168 Q1005.24 1190 921.244 1190 Z " />
<glyph glyph-name="D" unicode="D" horiz-adv-x="1229" d="M514.746 233 Q694.746 233 810.611 353 Q940.022 484 975.298 735 L975.86 739 Q1006.5 957 923.222 1076 Q843.244 1190 671.244 1190 Q624.244 1190 586.541 1185 Q574.4 1184 563.573 1171 Q550.465 1156 547.654 1136 L427.914 284 Q424.962 263 433.995 249 Q443.027 235 455.887 234 Q466.746 233 481.746 233 L514.746 233 Z M1147.45 1284 Q1321.16 1104 1270.84 746 Q1217.58 367 994.47 167 Q781.189 -20 415.189 -20 Q289.189 -20 184.735 -9 Q152.438 -4 134.514 25 Q116.308 52 121.649 90 L294.936 1323 Q299.995 1359 323.93 1387 Q349.006 1416 385.709 1421 Q519.238 1439 678.238 1439 Q847.238 1439 960.038 1402 Q1070.7 1364 1147.45 1284 Z " />
<glyph glyph-name="E" unicode="E" horiz-adv-x="999" d="M886.573 246 Q927.573 246 950.216 215 Q972.141 186 966.66 147 L957.103 79 Q951.481 39 921.405 10 Q890.189 -20 849.189 -20 L200.189 -20 Q160.189 -20 136.546 11 Q114.341 38 120.103 79 L293.811 1315 Q299.292 1354 329.509 1384 Q362.725 1414 401.725 1414 L1023.72 1414 Q1064.72 1414 1087.37 1383 Q1109.29 1354 1103.81 1315 L1094.11 1246 Q1088.63 1207 1058.42 1177 Q1026.34 1148 986.341 1148 L616.341 1148 Q600.341 1148 586.514 1135 Q570.406 1120 567.033 1096 L539.768 902 Q536.395 878 548.287 863 Q558.46 850 574.46 850 L916.46 850 Q955.46 850 980.243 820 Q1001.17 791 995.546 751 L986.27 685 Q980.649 645 951.573 616 Q918.357 586 879.357 586 L537.357 586 Q521.357 586 507.53 573 Q491.422 558 488.049 534 L454.881 298 Q451.508 274 463.4 259 Q473.573 246 489.573 246 L886.573 246 Z " />
<glyph glyph-name="F" unicode="F" horiz-adv-x="957" d="M1017.72 1414 Q1056.72 1414 1080.65 1385 Q1101.57 1356 1096.09 1317 L1085.83 1244 Q1080.49 1206 1051.42 1177 Q1019.34 1148 980.341 1148 L615.341 1148 Q600.341 1148 586.373 1134 Q570.265 1119 567.173 1097 L535.271 870 Q532.319 849 544.211 834 Q554.243 820 569.243 820 L902.243 820 Q940.243 820 964.168 791 Q985.952 761 980.611 723 L970.773 653 Q965.433 615 935.357 586 Q904.141 556 865.141 556 L532.141 556 Q517.141 556 503.314 543 Q487.206 528 484.114 506 L423.822 77 Q418.341 38 389.265 9 Q357.189 -20 318.189 -20 L199.189 -20 Q158.189 -20 136.405 10 Q114.481 39 119.822 77 L294.092 1317 Q299.433 1355 329.509 1384 Q359.725 1414 400.725 1414 L1017.72 1414 Z " />
<glyph glyph-name="G" unicode="G" horiz-adv-x="1270" d="M1200.69 133 Q1196.19 101 1175.54 75 Q1151.89 49 1120.48 39 Q1032.97 14 943.719 -2 Q836.189 -20 741.189 -20 Q392.189 -20 236.735 176 Q159.665 268 132.638 403 Q104.049 534 125.833 689 L126.676 695 Q177.444 1042 416.254 1247 Q646.941 1444 977.941 1444 Q1131.94 1444 1252.6 1406 Q1287.77 1393 1300.99 1359 Q1310.76 1336 1307.25 1311 Q1305.56 1299 1299.88 1287 L1275.18 1218 Q1259.7 1179 1223.75 1158 Q1198.64 1143 1172.64 1143 Q1159.64 1143 1147.2 1147 Q1058.28 1176 937.276 1176 Q749.276 1176 620.254 1062 Q478.687 937 447.065 712 Q416.006 491 512.297 365 Q605.011 242 784.011 242 Q847.011 242 891.135 250 Q905.557 253 917.524 267 Q928.492 281 931.162 300 L961.097 513 Q964.33 536 953.297 550 Q943.124 563 928.124 563 L862.124 563 Q821.124 563 798.481 594 Q777.416 622 782.897 661 L790.908 718 Q796.389 757 825.325 785 Q856.681 816 897.681 816 L1202.68 816 Q1243.68 816 1266.32 785 Q1288.25 756 1282.91 718 L1200.69 133 Z " />
<glyph glyph-name="H" unicode="H" horiz-adv-x="1312" d="M541.173 912 Q538.222 891 548.973 875 Q559.287 863 575.287 863 L967.287 863 Q982.287 863 995.973 875 Q1011.22 891 1014.17 912 L1071.09 1317 Q1076.43 1355 1106.51 1384 Q1137.72 1414 1177.72 1414 L1294.72 1414 Q1335.72 1414 1357.37 1383 Q1379.43 1355 1374.09 1317 L1199.82 77 Q1194.48 39 1164.55 11 Q1134.19 -20 1093.19 -20 L976.189 -20 Q936.189 -20 913.405 10 Q891.481 39 896.822 77 L960.487 530 Q963.719 553 952.687 567 Q942.514 580 927.514 580 L535.514 580 Q519.514 580 505.687 567 Q490.719 553 487.487 530 L423.822 77 Q418.481 39 389.546 11 Q358.189 -20 318.189 -20 L199.189 -20 Q158.189 -20 136.546 11 Q114.481 39 119.822 77 L294.092 1317 Q299.433 1355 329.368 1383 Q359.725 1414 400.725 1414 L519.725 1414 Q559.725 1414 582.368 1383 Q603.433 1355 598.092 1317 L541.173 912 Z " />
<glyph glyph-name="I" unicode="I" horiz-adv-x="538" d="M515.725 1414 Q558.725 1414 582.368 1383 Q605.433 1355 599.952 1316 L425.962 78 Q420.341 38 389.546 11 Q357.189 -20 314.189 -20 L205.189 -20 Q162.189 -20 136.546 11 Q114.341 38 119.962 78 L293.952 1316 Q299.433 1355 330.368 1383 Q362.725 1414 406.725 1414 L515.725 1414 Z " />
<glyph glyph-name="J" unicode="J" horiz-adv-x="752" d="M731.957 1437 Q775.957 1437 799.6 1406 Q822.665 1378 817.184 1339 L703.627 531 Q662.589 239 519.757 105 Q389.189 -20 160.189 -20 Q100.189 -20 36.7351 -9 Q-2.28108 -2 -22.5027 32 Q-36.9892 57 -32.7729 87 Q-31.7892 94 -29.8054 101 L-12.2486 169 Q-1.76751 208 32.6055 232 Q62.8379 255 96.8379 255 Q104.838 255 111.697 254 Q139.135 250 167.135 250 Q263.135 250 317.287 308 Q379.703 375 402.189 535 L515.184 1339 Q520.665 1378 552.6 1406 Q584.957 1437 627.957 1437 L731.957 1437 Z " />
<glyph glyph-name="K" unicode="K" horiz-adv-x="1136" d="M530.606 787 Q550.822 817 582.725 859 L611.065 897 L638.546 936 L980.963 1373 Q1012.72 1414 1059.72 1414 L1221.72 1414 Q1276.72 1414 1293.7 1364 Q1299.89 1344 1297.36 1326 Q1293.56 1299 1273.05 1274 L862.854 803 L1160.6 111 Q1169.93 92 1166.7 69 Q1163.75 48 1148.65 26 Q1117.19 -20 1066.19 -20 L905.189 -20 Q853.189 -20 834.514 25 L630.297 550 Q622.687 567 608.827 568 L603.827 568 Q590.827 568 580 555 L492.789 461 Q483.243 450 480.995 434 L429.557 68 Q424.497 32 397.124 8 Q368.189 -20 330.189 -20 L193.189 -20 Q155.189 -20 134.124 8 Q113.497 32 118.557 68 L295.357 1326 Q300.417 1362 327.79 1386 Q356.725 1414 394.725 1414 L531.725 1414 Q569.725 1414 590.79 1386 Q611.417 1362 606.357 1326 L530.606 787 Z " />
<glyph glyph-name="L" unicode="L" horiz-adv-x="951" d="M525.725 1414 Q567.725 1414 591.368 1383 Q614.433 1355 608.811 1315 L466.584 303 Q463.351 280 475.243 265 Q485.416 252 502.416 252 L896.416 252 Q939.416 252 962.2 222 Q984.984 192 979.643 154 L969.103 79 Q963.481 39 932.546 11 Q900.189 -20 858.189 -20 L203.189 -20 Q161.189 -20 137.546 11 Q114.481 39 120.103 79 L293.811 1315 Q299.433 1355 330.368 1383 Q362.725 1414 404.725 1414 L525.725 1414 Z " />
<glyph glyph-name="M" unicode="M" horiz-adv-x="1557" d="M832.979 441 Q898.93 647 1012.27 934 L1181.61 1342 Q1193.82 1372 1222.77 1393 Q1251.72 1414 1285.72 1414 L1545.72 1414 Q1582.72 1414 1605.37 1383 Q1624.43 1355 1618.81 1315 L1445.1 79 Q1439.34 38 1410.26 9 Q1381.19 -20 1344.19 -20 L1258.19 -20 Q1221.19 -20 1199.55 11 Q1180.34 38 1186.1 79 L1328.05 1089 Q1247.21 834 1137.56 559 L944.822 77 Q931.465 46 904.373 24 Q874.422 3 840.422 3 L703.422 3 Q669.422 3 645.373 24 Q623.465 46 619.822 77 L561.562 559 Q529.789 831 520.346 1084 L379.103 79 Q373.341 38 346.546 11 Q316.189 -20 278.189 -20 L193.189 -20 Q155.189 -20 133.546 11 Q114.341 38 120.103 79 L293.811 1315 Q299.433 1355 326.368 1383 Q356.725 1414 394.725 1414 L654.725 1414 Q687.725 1414 711.773 1393 Q733.822 1372 738.465 1341 L794.265 934 Q824.93 647 832.979 441 Z " />
<glyph glyph-name="N" unicode="N" horiz-adv-x="1354" d="M530.757 1030 Q503.125 748 455.903 412 L408.962 78 Q403.341 38 372.546 11 Q340.189 -20 298.189 -20 L203.189 -20 Q161.189 -20 137.546 11 Q114.341 38 119.962 78 L293.952 1316 Q299.433 1355 330.368 1383 Q362.725 1414 404.725 1414 L613.725 1414 Q671.725 1414 692.557 1363 L877.66 887 Q968.335 657 1024.76 411 Q1034.77 653 1082.7 994 L1127.95 1316 Q1133.29 1354 1165.51 1384 Q1195.72 1414 1237.72 1414 L1333.72 1414 Q1375.72 1414 1397.51 1384 Q1421.29 1354 1415.95 1316 L1241.96 78 Q1236.34 38 1206.55 11 Q1174.19 -20 1132.19 -20 L959.189 -20 Q901.189 -20 880.357 31 L690.189 535 Q588.152 798 530.757 1030 Z " />
<glyph glyph-name="O" unicode="O" horiz-adv-x="1332" d="M683.449 238 Q822.449 238 923.562 374 Q1024.39 508 1054.89 725 Q1083.56 929 1021.25 1062 Q957.071 1203 817.071 1203 Q678.071 1203 574.676 1065 Q475.125 933 444.627 716 Q414.411 501 478.86 369 Q544.449 238 683.449 238 Z M861.33 1461 Q1149.33 1461 1287.83 1244 Q1415.58 1043 1372.3 735 Q1323.39 387 1121.86 184 Q920.189 -20 632.189 -20 Q351.189 -20 214.124 193 Q83.5136 395 127.643 709 Q173.46 1035 372.833 1244 Q578.33 1461 861.33 1461 Z " />
<glyph glyph-name="P" unicode="P" horiz-adv-x="1134" d="M625.562 744 Q745.562 744 822.135 805 Q900.989 868 916.871 981 Q931.487 1085 877.357 1141 Q823.946 1195 712.946 1195 Q668.946 1195 631.244 1190 Q614.963 1188 601.135 1175 Q584.887 1159 581.654 1136 L534.433 800 Q531.341 778 545.092 762 Q553.984 747 570.843 746 Q591.562 744 625.562 744 Z M1135.22 1325 Q1195.07 1267 1220.12 1182 Q1247.61 1093 1233.28 991 Q1202.78 774 1059.93 647 Q885.146 492 592.146 492 Q564.146 492 539.568 495 L538.568 495 Q522.568 495 507.6 481 Q487.211 464 483.979 441 L433.243 80 Q427.762 41 396.546 11 Q364.189 -20 321.189 -20 L204.189 -20 Q163.189 -20 137.546 11 Q114.762 41 120.243 80 L295.357 1326 Q300.417 1362 326.211 1389 Q355.427 1419 396.271 1425 Q540.66 1442 731.66 1442 Q1013.66 1442 1135.22 1325 Z " />
<glyph glyph-name="Q" unicode="Q" horiz-adv-x="1334" d="M894.573 431 Q904.2 407 924.2 407 L926.2 407 Q950.2 407 963.854 433 Q1033.14 556 1057.03 726 Q1085.7 930 1025.25 1062 Q958.352 1205 819.352 1205 Q680.352 1205 576.817 1066 Q476.265 934 445.908 718 Q424.827 568 450.806 454 Q477.065 342 546.335 287 Q557.07 278 565.07 278 Q575.07 278 589.897 291 Q608.287 308 610.957 327 Q612.784 340 608.751 354 L569.054 470 Q567.179 478 568.443 487 Q570.411 501 580.8 518 Q601.016 548 635.687 567 L723.573 616 Q757.103 634 786.103 634 L792.103 634 Q828.541 630 836.168 606 L894.573 431 Z M862.471 1462 Q1151.47 1462 1289.97 1245 Q1418.01 1046 1374.44 736 Q1345.49 530 1258.86 369 Q1174.94 213 1045.3 116 Q1029.76 105 1023.09 86 Q1021.38 81 1020.68 76 Q1018.71 62 1023.03 50 L1068.77 -87 Q1070.65 -95 1069.52 -103 Q1067.56 -117 1056.17 -134 Q1037.95 -164 1000 -185 L914.395 -232 Q880.865 -250 850.865 -250 L843.865 -250 Q809.427 -246 801.8 -222 L740.519 -39 Q731.892 -15 711.892 -15 L705.892 -15 Q671.33 -19 633.33 -19 Q352.33 -19 214.405 195 Q83.7947 397 127.925 711 Q173.741 1037 372.973 1245 Q579.471 1462 862.471 1462 Z " />
<glyph glyph-name="R" unicode="R" horiz-adv-x="1169" d="M650.606 787 Q760.606 787 832.476 843 Q905.487 900 919.26 998 Q933.173 1097 879.763 1151 Q830.649 1200 726.79 1201 Q672.79 1201 631.227 1197 Q616.946 1195 602.979 1181 Q586.73 1165 583.779 1144 L541.054 840 Q537.822 817 549.714 802 Q561.606 787 578.606 787 L650.606 787 Z M1120.62 104 Q1122.79 91 1120.96 78 Q1116.61 47 1094.95 21 Q1061.19 -20 1009.19 -20 L884.189 -20 Q852.189 -20 828.859 -1 Q805.389 17 801.887 49 Q787.114 136 770.833 319 Q761.665 453 718.833 504 Q682.297 550 588.579 552 L545.579 552 Q527.579 552 512.752 539 Q496.362 522 493.13 499 L433.962 78 Q428.481 39 397.546 11 Q365.189 -20 323.189 -20 L203.189 -20 Q161.189 -20 137.546 11 Q114.481 39 119.962 78 L295.638 1328 Q300.698 1364 328.773 1393 Q355.709 1421 395.271 1425 Q548.8 1443 725.8 1443 Q949.8 1443 1079.48 1334 Q1215.18 1218 1187.91 1024 Q1168.8 888 1104.87 796 Q1040.94 704 946.022 669 L944.757 660 Q1063.03 605 1089.53 388 L1098.13 314 L1105.73 240 Q1116.8 148 1120.62 104 Z " />
<glyph glyph-name="S" unicode="S" horiz-adv-x="998" d="M732.6 851 Q901.622 780 970.146 677 Q1039.67 574 1018.73 425 Q992.027 235 841.741 112 Q679.189 -20 417.189 -20 Q260.189 -20 125.497 32 Q89.3243 45 79.1027 79 Q70.0541 100 73.4271 124 Q74.8325 134 78.519 146 L104.919 220 Q120.822 262 161.914 284 Q187.741 297 211.741 297 Q230.741 297 246.757 290 Q359.573 246 472.573 246 Q570.573 246 629.335 287 Q689.097 328 699.357 401 Q708.773 468 663.379 515 Q622.281 557 506.887 604 Q162.141 741 202.335 1027 Q228.335 1212 377.2 1332 Q535.909 1458 767.909 1458 Q906.909 1458 1019.57 1420 Q1054.74 1407 1068.24 1375 Q1077.87 1351 1074.5 1327 Q1072.81 1315 1066.98 1302 L1040.29 1233 Q1024.52 1192 984.714 1172 Q959.746 1158 934.746 1158 Q918.746 1158 903.449 1163 Q819.525 1192 725.525 1192 Q635.525 1192 580.044 1153 Q526.703 1115 518.13 1054 Q508.854 988 561.671 944 Q602.611 908 732.6 851 Z " />
<glyph glyph-name="T" unicode="T" horiz-adv-x="951" d="M1141.4 1433 Q1186.4 1433 1210.04 1402 Q1232.82 1372 1227.34 1333 L1216.8 1258 Q1210.9 1216 1179.96 1188 Q1147.61 1157 1102.61 1157 L881.606 1157 Q864.606 1157 849.919 1145 Q832.53 1128 829.438 1106 L685.243 80 Q679.762 41 648.546 11 Q616.189 -20 571.189 -20 L458.189 -20 Q414.189 -20 390.546 11 Q366.622 40 372.243 80 L516.438 1106 Q519.671 1129 506.919 1145 Q496.606 1157 479.606 1157 L264.606 1157 Q220.606 1157 196.681 1186 Q171.898 1216 177.8 1258 L188.341 1333 Q193.822 1372 225.038 1402 Q259.395 1433 303.395 1433 L1141.4 1433 Z " />
<glyph glyph-name="U" unicode="U" horiz-adv-x="1293" d="M1287.96 1437 Q1329.96 1437 1355.6 1406 Q1377.81 1379 1372.18 1339 L1272.96 633 Q1227.43 309 1057.96 142 Q893.189 -20 625.189 -20 Q90.1892 -20 182.525 637 L281.184 1339 Q286.806 1379 316.6 1406 Q350.957 1437 392.957 1437 L506.957 1437 Q549.957 1437 573.6 1406 Q596.806 1379 591.184 1339 L488.87 611 Q463.011 427 512.519 331 Q559.73 240 671.73 240 Q909.73 240 961.87 611 L1064.18 1339 Q1069.81 1379 1100.6 1406 Q1132.96 1437 1175.96 1437 L1287.96 1437 Z " />
<glyph glyph-name="V" unicode="V" horiz-adv-x="1188" d="M1289.72 1414 Q1340.72 1414 1364.82 1372 Q1378.31 1347 1374.23 1318 Q1372.12 1303 1364.88 1287 L805.887 49 Q793.53 18 765.141 1 Q737.189 -20 704.189 -20 L489.189 -20 Q456.189 -20 433.141 1 Q409.811 20 406.168 51 L214.298 1290 Q211.406 1305 213.373 1319 Q217.449 1348 237.963 1373 Q273.725 1414 324.725 1414 L456.725 1414 Q490.725 1414 514.773 1393 Q535.963 1373 540.465 1341 L607.276 806 Q640.314 543 649 370 L675 370 Q746.092 577 839.433 800 L1065.75 1343 Q1077.82 1372 1104.63 1392 Q1135.72 1414 1168.72 1414 L1289.72 1414 Z " />
<glyph glyph-name="W" unicode="W" horiz-adv-x="1685" d="M1788.72 1414 Q1837.72 1414 1862.1 1374 Q1877.31 1347 1872.95 1316 Q1871.55 1306 1867.86 1294 L1399.73 55 Q1386.09 22 1358.42 3 Q1328.19 -20 1292.19 -20 L1119.19 -20 Q1081.19 -20 1057.56 4 Q1034.65 26 1033.43 60 L1012.04 598 Q1003.95 825 1008.99 989 L1001.99 989 Q934.389 757 878.043 598 L692.292 59 Q682.514 25 652.422 3 Q622.189 -20 585.189 -20 L413.189 -20 Q374.189 -20 349.562 4 Q324.935 28 321.714 62 L224.86 1294 Q224.546 1306 226.092 1317 Q230.449 1348 254.244 1375 Q289.725 1414 338.725 1414 L461.725 1414 Q499.725 1414 524.211 1389 Q547.119 1367 548.2 1332 L562.384 821 Q564.908 718 567.357 586 Q569.27 500 570.157 364 L570.454 359 L574.454 359 Q575.454 359 577.157 364 Q624.627 531 721.946 825 L888.638 1328 Q899.838 1365 933.352 1390 Q963.725 1414 1003.72 1414 L1155.72 1414 Q1195.72 1414 1220.93 1387 Q1246.56 1363 1247.5 1327 L1264.84 810 Q1272.47 601 1269.3 365 L1271.3 365 Q1297.23 457 1338.2 592 L1372.5 708 L1408.09 826 L1571.5 1327 Q1582.56 1363 1614.07 1388 Q1646.72 1414 1686.72 1414 L1788.72 1414 Z " />
<glyph glyph-name="X" unicode="X" horiz-adv-x="1065" d="M1046.43 124 Q1055.19 101 1051.96 78 Q1048.59 54 1032.36 31 Q997.189 -20 939.189 -20 L812.189 -20 Q749.189 -20 730.059 36 L666.011 242 Q646.6 296 628.751 354 Q620.984 377 611.06 406 L595.227 457 Q592.773 468 578.773 468 Q575.633 467 568.946 455 Q548.184 414 515.751 354 L501.097 328 L485.303 301 Q466.103 264 453.011 242 L339.622 40 Q323.827 13 298.719 -2 Q270.189 -20 240.189 -20 L118.189 -20 Q60.1892 -20 38.2162 30 Q29.5892 54 32.8216 77 Q36.1946 101 51.4271 124 L420.146 677 Q430.114 691 432.222 706 Q434.189 720 429.298 735 L225.487 1270 Q216.719 1293 220.092 1317 Q223.325 1340 238.557 1363 Q274.725 1414 331.725 1414 L457.725 1414 Q488.725 1414 511.195 1396 Q532.227 1382 540.433 1355 L602.622 1150 Q632.989 1053 653.184 969 Q657.357 956 667.076 954 L673.076 954 Q682.076 954 690.325 970 Q723.6 1036 784.622 1150 L900.292 1354 Q916.087 1381 942.195 1396 Q969.725 1414 999.725 1414 L1120.72 1414 Q1178.72 1414 1200.56 1363 Q1210.32 1340 1206.95 1316 Q1203.58 1292 1187.21 1268 L833.422 743 Q824.314 728 822.346 714 Q820.238 699 825.13 684 L1046.43 124 Z " />
<glyph glyph-name="Y" unicode="Y" horiz-adv-x="972" d="M1147.72 1414 Q1205.72 1414 1227.56 1363 Q1237.32 1340 1233.95 1316 Q1230.72 1293 1214.35 1269 L772.606 602 Q758.373 579 754.719 553 L688.103 79 Q682.481 39 650.546 11 Q618.189 -20 575.189 -20 L465.189 -20 Q421.189 -20 397.546 11 Q374.481 39 380.103 79 L445.314 543 Q448.827 568 441.919 590 L200.627 1271 Q192.86 1294 195.811 1315 Q199.325 1340 215.698 1364 Q251.725 1414 309.725 1414 L432.725 1414 Q464.725 1414 488.195 1396 Q508.665 1378 517.871 1351 L588.098 1068 Q614.919 960 647.838 810 Q648.416 807 651.276 806 L653.838 810 Q696.768 902 784.098 1068 L932.73 1350 Q946.665 1378 975.195 1396 Q1002.72 1414 1033.72 1414 L1147.72 1414 Z " />
<glyph glyph-name="Z" unicode="Z" horiz-adv-x="1062" d="M985.854 248 Q1028.85 248 1052.5 217 Q1075.7 190 1070.08 150 L1059.96 78 Q1054.34 38 1023.55 11 Q991.189 -20 948.189 -20 L106.189 -20 Q64.1892 -20 38.5459 11 Q16.3406 38 21.9622 78 L28.4271 124 Q32.3622 152 52.0163 178 L781.141 1111 Q784.844 1116 786.108 1125 Q789.06 1146 774.06 1146 L329.06 1146 Q285.06 1146 262.276 1176 Q239.211 1204 244.833 1244 L254.952 1316 Q260.433 1355 291.368 1383 Q323.725 1414 366.725 1414 L1139.72 1414 Q1182.72 1414 1206.37 1383 Q1230.43 1355 1224.95 1316 L1216.52 1256 Q1212.58 1228 1192.21 1204 L485.897 291 L479.773 283 L479.351 280 Q476.681 261 482.697 254 Q486.854 248 493.854 248 L985.854 248 Z " />
<glyph glyph-name="bracketleft" unicode="&#x5b;" horiz-adv-x="425" d="M409.66 1257 L221.616 -81 L323.616 -81 Q362.616 -81 385.681 -109 Q405.886 -136 401.108 -170 Q396.189 -205 368.395 -232 Q337.459 -260 298.459 -260 L53.4594 -260 Q15.4594 -260 -7.60547 -232 Q-28.9514 -206 -23.8919 -170 L189.168 1346 Q194.227 1382 221.741 1407 Q253.676 1435 291.676 1435 L536.676 1435 Q575.676 1435 599.741 1407 Q619.087 1381 614.168 1346 Q609.249 1311 582.595 1285 Q550.66 1257 511.66 1257 L409.66 1257 Z " />
<glyph glyph-name="backslash" unicode="&#x5c;" horiz-adv-x="577" d="M569.951 21 Q570.984 7 569.157 -6 Q564.941 -36 543.286 -62 Q507.524 -103 456.524 -103 L447.524 -103 Q413.524 -103 389.616 -81 Q367.286 -62 363.784 -30 L194.952 1316 Q192.779 1329 194.465 1341 Q198.681 1371 221.617 1399 Q257.238 1439 307.238 1439 L318.238 1439 Q352.238 1439 375.427 1419 Q399.336 1397 402.979 1366 L569.951 21 Z " />
<glyph glyph-name="bracketright" unicode="&#x5d;" horiz-adv-x="423" d="M535.66 1442 Q573.66 1442 597.584 1413 Q618.071 1388 613.011 1352 L399.67 -166 Q394.751 -201 366.957 -228 Q336.022 -256 297.022 -256 L54.0215 -256 Q16.0215 -256 -7.04331 -228 Q-28.3892 -202 -23.3298 -166 Q-18.4108 -131 10.2432 -105 Q41.1784 -77 79.1784 -77 L182.178 -77 L370.503 1263 L267.503 1263 Q229.503 1263 205.438 1291 Q184.952 1316 190.011 1352 Q195.071 1388 223.584 1413 Q253.66 1442 292.66 1442 L535.66 1442 Z " />
<glyph glyph-name="asciicircum" unicode="&#x5e;" horiz-adv-x="965" d="M693.498 1512 L349.962 1003 Q337.011 982 310.465 971 Q284.498 957 253.498 957 L241.498 957 Q186.498 957 161.276 991 Q149.946 1010 152.617 1029 Q154.444 1042 163.411 1056 L590.455 1654 Q606.125 1673 631.952 1686 Q658.638 1698 688.638 1698 L753.638 1698 Q783.638 1698 807.952 1686 Q827.984 1672 838.455 1654 L1097.41 1056 Q1103.44 1042 1101.48 1028 Q1098.81 1009 1081.28 991 Q1046.5 957 992.498 957 L976.498 957 Q945.498 957 923.465 971 Q901.011 982 890.962 1003 L693.498 1512 Z " />
<glyph glyph-name="underscore" unicode="&#x5f;" horiz-adv-x="1023" d="M982.897 106 Q1007.9 106 1020.51 89 Q1033.4 74 1030.45 53 Q1027.78 34 1010.25 16 Q992 0 968 0 L55 0 Q31 0 17.2487 16 Q4.77839 34 7.44866 53 Q10.4 74 27.5081 89 Q44.8973 106 69.8973 106 L982.897 106 Z " />
<glyph glyph-name="grave" unicode="&#x60;" horiz-adv-x="325" d="M477.238 1254 Q487.006 1231 483.633 1207 Q480.4 1184 464.168 1161 Q429 1110 371 1110 L365 1110 Q316 1110 292.341 1148 L213.33 1276 Q195.125 1303 199.481 1334 Q202.433 1355 216.384 1376 Q250.395 1433 313.395 1433 L347.395 1433 Q406.395 1433 426.368 1383 L477.238 1254 Z " />
<glyph glyph-name="a" unicode="a" horiz-adv-x="984" d="M656.26 443 Q659.492 466 647.741 482 Q636.427 494 619.427 494 L617.427 494 Q500.584 488 421.103 449 Q327.778 404 316.676 325 Q308.524 267 363.027 235 Q408.232 208 467.232 208 Q518.232 208 564.87 241 Q610.508 274 634.816 326 Q643.47 352 647.827 383 L656.26 443 Z M627.757 105 Q573.465 46 496.827 13 Q421.189 -20 343.189 -20 L334.189 -20 Q187.751 -16 113.384 81 Q43.173 172 61.0217 299 Q88.1461 492 253.762 596 Q413.816 696 673.957 697 Q682.957 697 685.065 712 Q692.795 767 663.714 802 Q628.898 846 533.898 846 Q449.898 846 359.541 815 Q339.557 808 321.557 808 Q297.557 808 276.103 819 Q242.195 841 235.957 882 L234.784 895 Q233.611 908 235.579 922 Q238.53 943 251.481 964 Q272.541 1000 312.368 1013 Q455.957 1067 617.957 1067 Q846.957 1067 935.984 932 Q1011.24 820 982.995 619 L910.195 101 Q903.573 61 873.638 33 Q839.422 3 796.281 2 L714 0 Q671 0 643.638 33 Q621.432 60 626.773 98 L627.757 105 Z " />
<glyph glyph-name="b" unicode="b" horiz-adv-x="1143" d="M618.168 236 Q711.168 236 774.568 310 Q841.67 389 861.346 529 Q879.335 657 839.438 736 Q796.962 818 699.962 818 Q641.962 818 588.919 775 Q532.454 729 507.616 659 Q497.681 631 493.184 599 L471.681 446 Q467.184 414 470.389 387 Q474.973 320 516.93 277 Q557.168 236 618.168 236 Z M539.422 928 Q590.135 990 665.195 1026 Q749.957 1067 849.957 1067 Q1028.96 1067 1120.58 922 Q1212.2 777 1179.59 545 L1179.03 541 Q1142.07 278 981.287 123 Q837.189 -20 653.189 -20 Q457.189 -20 386.816 141 L382.476 103 L382.054 100 Q376.714 62 345.919 35 Q313.422 3 270.422 3 L203.422 3 Q161.422 3 136.638 33 Q113.432 60 117.914 99 Q120.724 119 124.222 151 L129.389 202 Q136.103 264 143.13 314 L297.865 1415 Q303.487 1455 334.422 1483 Q366.779 1514 410.779 1514 L522.779 1514 Q565.779 1514 589.422 1483 Q613.487 1455 607.865 1415 L539.422 928 Z " />
<glyph glyph-name="c" unicode="c" horiz-adv-x="835" d="M822.319 109 Q822.335 102 821.492 96 Q817.416 67 796.903 42 Q770.124 8 730 0 Q641.189 -20 543.189 -20 Q305.189 -20 187.287 123 Q67.6649 268 101.957 512 Q135.125 748 297.627 901 Q474.676 1065 736.676 1065 Q806.676 1065 874.568 1050 Q914.444 1042 931.525 1007 Q943.292 984 939.498 957 Q937.952 946 934.546 936 L918.8 888 Q905.6 851 871.227 827 Q842.698 809 812.698 809 Q804.698 809 795.838 810 Q759.681 816 715.681 816 Q602.681 816 520.438 736 Q439.054 655 421.346 529 L420.784 525 Q401.108 385 468.865 305 Q528.746 233 639.746 233 Q682.746 233 720.589 239 Q729.73 240 737.73 240 Q769.73 240 793.06 221 Q821.546 196 821.924 156 L822.319 109 Z " />
<glyph glyph-name="d" unicode="d" horiz-adv-x="1158" d="M810.184 599 Q814.681 631 812.616 659 Q807.595 730 761.919 775 Q721.962 818 663.962 818 Q566.962 818 501.438 736 Q439.335 657 421.346 529 Q401.67 389 445.849 312 Q489.168 236 582.168 236 Q643.168 236 695.93 277 Q749.973 320 773.389 387 Q784.184 414 788.681 446 L810.184 599 Z M856.422 928 L924.865 1415 Q930.487 1455 961.422 1483 Q993.779 1514 1037.78 1514 L1148.78 1514 Q1191.78 1514 1215.42 1483 Q1239.49 1455 1233.87 1415 L1079.13 314 Q1072.1 264 1061.53 203 L1053.36 152 Q1047.72 119 1043.91 99 Q1037.43 60 1005.36 31 Q974.422 3 932.422 3 L865.422 3 Q821.422 3 797.919 35 Q774.854 63 780.476 103 L786.535 139 Q670.189 -20 475.189 -20 Q292.189 -20 186.287 123 Q70.0704 278 107.033 541 L107.595 545 Q140.2 777 272.579 922 Q404.957 1067 584.957 1067 Q684.957 1067 758.195 1026 Q823.135 990 856.422 928 Z " />
<glyph glyph-name="e" unicode="e" horiz-adv-x="1020" d="M708.806 639 Q728.806 639 744.335 657 Q758.443 672 760.833 689 Q761.676 695 760.8 703 Q757.654 766 728.135 805 Q692.46 850 623.46 850 Q561.46 850 510.416 807 Q467.357 771 437.503 708 Q433.379 700 431.973 690 Q429.725 674 437.616 659 Q448.806 639 469.806 639 L708.806 639 Z M671.676 1065 Q892.676 1065 986.627 901 Q1063.95 761 1033.74 546 Q1031.63 531 1027.96 512 Q1020.76 475 988.681 446 Q957.746 418 916.746 418 L444.746 418 Q421.746 418 404.514 395 Q393.546 381 391.578 367 Q389.751 354 394.784 340 Q416.492 281 480.995 249 Q540.919 220 623.919 220 Q715.919 220 797.308 237 Q808.73 240 819.73 240 Q851.73 240 874.06 221 Q904.827 198 905.205 158 L905.989 128 Q906.584 118 905.178 108 Q901.524 82 885.151 58 Q859.654 26 820.968 14 Q693.189 -20 547.189 -20 Q300.189 -20 180.568 125 Q67.2433 265 101.676 510 Q132.314 728 272.238 884 Q433.676 1065 671.676 1065 Z " />
<glyph glyph-name="f" unicode="f" horiz-adv-x="673" d="M815.498 1512 Q856.076 1509 877.719 1478 Q897.784 1450 892.584 1413 L883.573 1356 Q878.092 1317 848.017 1288 Q813.8 1258 770.8 1258 L767.8 1258 Q701.8 1258 658.492 1206 Q618.465 1156 606.8 1073 L603.989 1053 Q601.881 1038 609.476 1028 Q616.352 1020 626.352 1020 L694.352 1020 Q736.352 1020 762.135 990 Q784.06 961 778.579 922 L772.676 880 Q767.195 841 736.26 813 Q703.903 782 660.903 782 L594.903 782 Q585.903 782 574.498 772 Q565.373 764 563.265 749 L468.822 77 Q463.341 38 432.546 11 Q400.189 -20 357.189 -20 L240.189 -20 Q199.189 -20 173.546 11 Q151.341 38 156.822 77 L251.265 749 Q253.514 765 245.779 774 Q239.903 782 229.903 782 L227.903 782 Q184.903 782 161.26 813 Q138.195 841 143.676 880 L149.579 922 Q155.06 961 185.135 990 Q219.352 1020 261.352 1020 L263.352 1020 Q272.352 1020 281.617 1029 Q291.881 1038 293.989 1053 L295.114 1061 Q309.168 1161 350.536 1249 Q395.309 1347 466.741 1407 Q584.779 1514 752.779 1514 Q787.779 1514 815.498 1512 Z " />
<glyph glyph-name="g" unicode="g" horiz-adv-x="1109" d="M777.843 561 Q782.903 597 779.416 622 Q772.833 689 736.033 726 Q700.373 764 643.373 764 Q563.373 764 499.833 689 Q429.168 606 409.773 468 Q392.627 346 432.805 269 Q474.984 192 562.984 192 Q615.984 192 663.043 228 Q709.962 263 734.114 321 Q741.503 338 747.157 364 Q752.968 384 756.341 408 L777.843 561 Z M858.13 869 L863.644 894 Q872.984 932 903.638 958 Q934.433 985 975.433 985 L1052.43 985 Q1095.43 985 1117.22 955 Q1141 925 1135.8 888 L1135.38 885 Q1119.59 794 1103.01 676 L1021.49 96 Q975.535 -231 810.859 -371 Q650.73 -500 394.73 -500 Q244.73 -500 129.054 -455 Q94.7404 -443 82.6593 -408 Q74.6107 -387 77.8431 -364 Q79.2485 -354 82.935 -342 L103.524 -288 Q119.286 -247 159.238 -226 Q184.924 -214 208.924 -214 Q225.924 -214 242.081 -220 Q329.303 -254 421.303 -254 Q530.303 -254 605.578 -188 Q686.557 -117 705.951 21 L714.665 83 Q605.395 -47 436.395 -47 Q253.395 -47 158.632 97 Q63.4487 238 94.7893 461 Q128.941 704 279.584 858 Q427.665 1008 614.665 1008 Q792.665 1008 858.13 869 Z " />
<glyph glyph-name="h" unicode="h" horiz-adv-x="1112" d="M536.049 904 Q588.341 963 662.822 1002 Q738.584 1043 828.584 1043 Q982.584 1043 1057.84 931 Q1138.12 812 1106.64 588 L1034.96 78 Q1029.34 38 999.546 11 Q965.189 -20 923.189 -20 L809.189 -20 Q768.189 -20 742.546 11 Q719.341 38 724.962 78 L791.579 552 Q823.903 782 672.903 782 Q621.903 782 577.125 748 Q538.049 719 512.443 672 Q499.508 644 492.903 597 L419.962 78 Q414.341 38 383.546 11 Q349.189 -20 308.189 -20 L194.189 -20 Q152.189 -20 126.546 11 Q104.341 38 109.962 78 L294.773 1393 Q300.254 1432 330.049 1459 Q364.406 1490 406.406 1490 L520.406 1490 Q561.406 1490 587.049 1459 Q610.254 1432 604.773 1393 L536.049 904 Z " />
<glyph glyph-name="i" unicode="i" horiz-adv-x="516" d="M423.341 1148 Q350.341 1148 310.227 1197 Q274.411 1241 283.546 1306 L284.39 1312 Q294.087 1381 341.13 1424 Q396.017 1473 470.017 1473 Q544.017 1473 583.13 1424 Q619.946 1380 611.968 1309 Q602.552 1242 553.227 1197 Q498.341 1148 423.341 1148 Z M463.352 1020 Q506.352 1020 529.135 990 Q553.06 961 547.579 922 L429.103 79 Q423.341 38 392.546 11 Q358.189 -20 317.189 -20 L204.189 -20 Q162.189 -20 136.546 11 Q113.341 38 119.103 79 L237.579 922 Q243.06 961 275.135 990 Q306.352 1020 350.352 1020 L463.352 1020 Z " />
<glyph glyph-name="j" unicode="j" horiz-adv-x="519" d="M416.2 1147 Q342.2 1147 305.227 1197 Q268.552 1242 277.968 1309 Q287.946 1380 339.552 1427 Q390.017 1473 466.017 1473 Q540.017 1473 576.552 1427 Q613.946 1380 605.968 1309 Q596.552 1242 546.227 1197 Q494.2 1147 416.2 1147 Z M459.352 1020 Q502.352 1020 525.995 989 Q548.2 962 542.719 923 L429.584 118 Q385.032 -199 231.919 -335 Q115.584 -437 -70.5082 -459 Q-77.6488 -460 -85.6488 -460 Q-119.649 -460 -142.557 -438 Q-168.903 -412 -167.562 -374 L-166.724 -304 L-165.319 -294 Q-161.103 -264 -141.73 -240 Q-117.373 -209 -79.8271 -198 Q-15.5784 -182 22.6216 -145 Q60.8216 -108 83.3622 -33 Q107.622 40 129.405 195 L231.719 923 Q237.2 962 267.995 989 Q300.352 1020 343.352 1020 L459.352 1020 Z " />
<glyph glyph-name="k" unicode="k" horiz-adv-x="1028" d="M492.341 593 Q527.93 647 569.081 705 L775.887 974 Q811.352 1020 865.352 1020 L974.352 1020 Q1037.35 1020 1056.2 962 Q1062.25 941 1059.44 921 Q1054.94 889 1028.01 861 L776.184 599 L1008.27 130 Q1021.76 105 1017.96 78 Q1014.87 56 999.778 34 Q966.189 -20 905.189 -20 L764.189 -20 Q706.189 -20 685.357 31 L559.487 345 Q549.578 367 529.86 369 L525.86 369 Q507.86 369 491.47 352 L464.114 321 Q452.146 307 449.476 288 L419.822 77 Q414.341 38 382.546 11 Q351.189 -20 308.189 -20 L194.189 -20 Q152.189 -20 126.546 11 Q104.341 38 109.822 77 L294.773 1393 Q300.114 1431 330.19 1460 Q364.406 1490 406.406 1490 L520.406 1490 Q563.406 1490 586.19 1460 Q610.254 1432 604.773 1393 L492.341 593 Z " />
<glyph glyph-name="l" unicode="l" horiz-adv-x="542" d="M530.406 1490 Q571.406 1490 597.049 1459 Q620.254 1432 614.633 1392 L429.962 78 Q424.341 38 393.546 11 Q359.189 -20 318.189 -20 L205.189 -20 Q162.189 -20 136.546 11 Q114.341 38 119.962 78 L304.633 1392 Q310.254 1432 340.049 1459 Q374.406 1490 417.406 1490 L530.406 1490 Z " />
<glyph glyph-name="m" unicode="m" horiz-adv-x="1644" d="M1039.55 872 Q1100.81 945 1177.28 991 Q1265.58 1043 1371.58 1043 Q1522.58 1043 1594.12 933 Q1670.54 815 1639.34 593 L1566.82 77 Q1561.34 38 1530.55 11 Q1498.19 -20 1455.19 -20 L1348.19 -20 Q1306.19 -20 1282.55 11 Q1259.34 38 1264.82 77 L1330.74 546 Q1364.18 784 1227.18 784 Q1182.18 784 1140.69 752 Q1102.61 723 1078.58 673 Q1061.52 637 1054.64 588 L982.822 77 Q977.341 38 946.546 11 Q914.189 -20 872.189 -20 L765.189 -20 Q722.189 -20 698.546 11 Q676.341 38 681.822 77 L750.124 563 Q764.6 666 737.892 725 Q711.184 784 647.184 784 Q598.184 784 554.984 747 Q519.627 716 496.022 669 Q480.665 638 473.357 586 L401.822 77 Q396.341 38 366.546 11 Q332.189 -20 291.189 -20 L183.189 -20 Q141.189 -20 116.405 10 Q93.3406 38 98.8216 77 L124.962 263 Q141.53 388 155.849 497 Q194.887 789 212.579 922 L213 925 Q218.341 963 250.417 992 Q281.352 1020 323.352 1020 L402.352 1020 Q442.352 1020 465.557 993 Q490.481 964 486.141 926 L481.519 886 Q503.033 911 525.265 934 Q557.481 964 592.573 986 Q684.584 1043 796.584 1043 Q891.584 1043 956.698 994 Q1019.51 950 1039.55 872 Z " />
<glyph glyph-name="n" unicode="n" horiz-adv-x="1103" d="M490.098 883 Q536.671 944 605.292 984 Q701.584 1043 811.584 1043 Q970.584 1043 1048.12 933 Q1129.82 817 1098.9 597 L1025.82 77 Q1020.34 38 989.546 11 Q955.189 -20 914.189 -20 L799.189 -20 Q757.189 -20 733.546 11 Q710.341 38 715.822 77 L783.141 556 Q814.903 782 667.903 782 Q613.903 782 568.843 746 Q529.346 714 503.897 661 Q487.962 633 480.514 580 L409.822 77 Q404.341 38 373.546 11 Q341.189 -20 298.189 -20 L183.189 -20 Q142.189 -20 116.405 10 Q94.4811 39 99.8216 77 Q111.892 170 125.103 264 Q141.67 389 155.849 497 Q194.887 789 212.579 922 L213 925 Q218.2 962 247.135 990 Q282.352 1020 322.492 1021 L411.633 1022 Q454.633 1022 478.276 991 Q501.341 963 495.719 923 L490.098 883 Z " />
<glyph glyph-name="o" unicode="o" horiz-adv-x="1095" d="M798.93 462 Q806.146 492 810.081 520 Q822.027 605 809.865 675 Q788.011 797 700.384 821 Q676.368 828 655.368 828 Q577.368 828 514.719 738 Q448.508 644 430.097 513 Q413.795 397 440.27 315 Q472.514 210 562.389 202 Q570.249 201 578.249 201 Q657.249 201 719.351 280 Q774.611 353 798.93 462 Z M106.6 481 Q107.568 495 109.676 510 Q142.281 742 311.222 891 Q472.038 1032 683.444 1042 Q698.584 1043 712.584 1043 Q905.584 1043 1025.44 921 Q1165.2 777 1129.64 524 Q1095.21 279 919.989 128 Q759.735 -9 555.33 -19 Q540.189 -20 526.189 -20 Q338.189 -20 219.773 98 Q81.0271 235 106.6 481 Z " />
<glyph glyph-name="p" unicode="p" horiz-adv-x="1126" d="M595.827 198 Q692.827 198 758.351 280 Q820.454 359 838.443 487 Q858.119 627 813.222 706 Q770.622 780 677.622 780 Q616.622 780 564.86 739 Q510.816 696 487.4 629 Q476.606 602 472.108 570 L450.606 417 Q446.108 385 448.033 356 Q453.195 286 496.73 240 Q537.827 198 595.827 198 Z M472.973 875 Q588.6 1036 784.6 1036 Q968.6 1036 1072.5 893 Q1189.58 737 1152.62 474 L1152.05 470 Q1119.59 239 987.07 93 Q854.832 -51 675.832 -51 Q575.832 -51 502.595 -10 Q437.514 25 404.368 88 L335.924 -399 Q330.303 -439 298.367 -467 Q266.011 -498 223.011 -498 L111.011 -498 Q67.0107 -498 43.3674 -467 Q20.3026 -439 25.9242 -399 L180.66 702 Q187.687 752 198.4 814 L207.568 865 Q212.925 896 215.876 917 Q222.357 956 255.433 985 Q286.227 1012 328.227 1012 L395.227 1012 Q438.227 1012 461.871 981 Q485.076 954 479.735 916 L479.314 913 L472.973 875 Z " />
<glyph glyph-name="q" unicode="q" horiz-adv-x="1130" d="M806.249 571 Q810.746 603 807.541 630 Q802.957 697 761 740 Q719.762 781 658.762 781 Q565.762 781 501.081 705 Q435.26 628 415.584 488 Q397.595 360 437.492 281 Q479.968 199 576.968 199 Q634.968 199 687.87 241 Q745.195 286 770.173 357 Q780.249 386 784.746 418 L806.249 571 Z M890.395 878 L894.454 914 Q900.076 954 931.011 982 Q963.368 1013 1007.37 1013 L1074.37 1013 Q1116.37 1013 1141.29 984 Q1163.5 957 1159.02 918 Q1157.07 897 1153.57 865 L1147.4 814 Q1140.83 753 1133.8 703 L979.065 -398 Q973.443 -438 941.508 -466 Q909.151 -497 866.151 -497 L755.151 -497 Q711.151 -497 687.508 -466 Q664.443 -438 670.065 -398 L738.508 89 Q687.654 26 612.735 -9 Q527.973 -50 427.973 -50 Q247.973 -50 156.211 94 Q64.7298 240 97.1947 471 L97.7569 475 Q134.719 738 294.644 894 Q440.741 1037 623.741 1037 Q818.741 1037 890.395 878 Z " />
<glyph glyph-name="r" unicode="r" horiz-adv-x="751" d="M474.335 842 Q524.373 949 611.525 1007 Q690.692 1058 771.692 1058 Q801.692 1058 818.022 1039 Q835.211 1019 831.417 992 L809.914 839 Q805.135 805 778.762 781 Q749.108 755 712.108 755 L711.108 755 Q631.108 755 571.925 711 Q510.881 668 484.919 590 Q474.281 557 468.379 515 L406.962 78 Q401.481 39 368.546 11 Q337.189 -20 294.189 -20 L178.189 -20 Q136.189 -20 109.546 11 Q87.6216 40 92.9622 78 L213.687 937 Q219.027 975 249.103 1004 Q284.46 1035 326.46 1035 L402.46 1035 Q447.46 1035 470.103 1004 Q492.308 977 486.968 939 L473.757 845 L474.335 842 Z " />
<glyph glyph-name="s" unicode="s" horiz-adv-x="810" d="M595.384 636 Q727.357 586 779.395 508 Q829.573 431 815.411 316 Q794.47 167 675.681 76 Q550.189 -20 345.189 -20 Q217.189 -20 115.389 17 Q80.0757 29 67.9946 64 Q58.946 85 62.319 109 Q63.7244 119 67.4108 131 L80.6109 168 Q96.5136 210 137.605 232 Q161.433 245 186.433 245 Q204.433 245 220.449 238 Q305.811 205 376.811 205 Q499.811 205 512.178 293 Q517.941 334 492.314 358 Q466.827 383 389.043 413 Q251.351 465 193.438 551 Q142.838 625 156.049 719 L156.892 725 Q177.271 870 296.622 965 Q422.676 1065 601.676 1065 Q700.676 1065 789.022 1039 Q823.195 1026 839.417 992 Q848.325 970 844.952 946 Q843.546 936 839.86 924 L828.362 892 Q812.881 853 774.789 831 Q747.822 817 721.822 817 Q707.822 817 693.384 821 Q634.335 842 580.335 842 Q528.335 842 497.384 821 Q465.152 798 459.249 756 Q454.049 719 483.395 693 Q511.303 671 595.384 636 Z " />
<glyph glyph-name="t" unicode="t" horiz-adv-x="707" d="M512.011 427 Q495.287 308 502.773 283 Q513.151 243 580.151 243 Q588.151 243 599.292 244 Q640.292 244 664.216 215 Q685.703 190 681.362 152 L672.243 80 Q667.605 47 642.951 21 Q616.157 -6 580.314 -12 Q524.189 -20 458.189 -20 Q309.189 -20 241.119 72 Q171.049 164 201.124 378 L254.952 761 Q257.622 780 248.168 791 Q237.854 803 225.854 803 Q186.854 803 162.071 833 Q140.584 858 145.925 896 L153.373 949 Q158.433 985 187.368 1013 Q219.303 1041 259.303 1041 Q271.303 1041 282.849 1052 Q297.676 1065 300.346 1084 L323.254 1247 Q328.454 1284 357.108 1310 Q390.184 1339 429.184 1339 L547.184 1339 Q586.184 1339 611.108 1310 Q632.454 1284 627.254 1247 L604.346 1084 Q601.676 1065 611.849 1052 Q620.303 1041 633.303 1041 L720.303 1041 Q760.303 1041 784.368 1013 Q805.433 985 800.373 949 L792.925 896 Q787.584 858 759.071 833 Q725.854 803 686.854 803 L599.854 803 Q586.854 803 576.449 793 Q561.622 780 558.952 761 L512.011 427 Z " />
<glyph glyph-name="u" unicode="u" horiz-adv-x="1082" d="M736.378 145 Q717.865 120 693.632 97 Q662.135 65 624.762 41 Q527.189 -20 410.189 -20 Q251.189 -20 177.368 88 Q97.6703 204 129.854 433 L201.811 945 Q207.292 984 239.368 1013 Q270.584 1043 315.584 1043 L427.584 1043 Q470.584 1043 496.368 1013 Q519.152 983 513.811 945 L449.022 484 Q415.011 242 560.011 242 Q613.011 242 657.93 277 Q696.005 306 719.751 354 Q732.984 377 739.73 425 L812.811 945 Q818.292 984 850.368 1013 Q881.584 1043 926.584 1043 L1039.58 1043 Q1082.58 1043 1108.37 1013 Q1131.43 985 1125.81 945 L1066.78 525 Q1030.95 270 1008.48 103 Q1002.71 62 970.919 35 Q938.422 3 894.422 3 L815.422 3 Q773.422 3 747.919 35 Q724.854 63 730.476 103 L736.378 145 Z " />
<glyph glyph-name="v" unicode="v" horiz-adv-x="1005" d="M1001.35 1020 Q1053.35 1020 1076.31 977 Q1089.79 952 1085.86 924 Q1083.47 907 1075.22 891 L665.465 46 Q650.389 17 625 0 Q596.189 -20 563.189 -20 L394.189 -20 Q362.189 -20 338.859 -1 Q316.389 17 311.465 46 L148.114 876 Q144.784 895 147.173 912 Q151.671 944 174.606 972 Q213.352 1020 271.352 1020 L379.352 1020 Q413.352 1020 437.4 999 Q459.589 979 463.373 949 L516.33 536 Q529.276 436 534.362 337 Q535.238 329 538.238 329 L539.238 329 Q547.238 329 551.206 343 Q586.681 446 619.33 536 L784.092 947 Q796.449 978 825.26 998 Q853.352 1020 889.352 1020 L1001.35 1020 Z " />
<glyph glyph-name="w" unicode="w" horiz-adv-x="1442" d="M1463.35 1020 Q1516.35 1020 1539.45 978 Q1553.79 952 1549.58 922 Q1547.75 909 1541.78 895 L1183.31 52 Q1170.95 21 1142.28 2 Q1112.19 -20 1078.19 -20 L939.189 -20 Q902.189 -20 879.281 2 Q856.092 22 852.73 55 L820.768 347 Q810.038 477 806.4 629 Q806.243 635 805.243 635 L802.243 635 L800.26 628 Q757.741 482 704.768 347 L584.449 53 Q572.092 22 542 0 Q513.189 -20 479.189 -20 L339.189 -20 Q305.189 -20 280.281 2 Q259.092 22 254.449 53 L144.925 896 Q143.892 910 145.579 922 Q149.795 952 172.589 979 Q208.352 1020 259.352 1020 L362.352 1020 Q400.352 1020 423.979 996 Q447.746 973 448.968 939 L462.481 594 Q470.622 410 470.07 278 L471.93 277 Q494.189 350 526.838 440 Q539.757 475 554.8 518 L569.141 556 L581.2 592 L715.671 944 Q729.168 976 757.26 998 Q788.352 1020 823.352 1020 L912.352 1020 Q948.352 1020 973.26 998 Q996.168 976 997.671 944 L1029.89 604 Q1046.25 386 1050.79 276 L1051.93 277 Q1086.62 410 1150.17 606 L1264.25 941 Q1274.89 974 1305.12 997 Q1335.35 1020 1372.35 1020 L1463.35 1020 Z " />
<glyph glyph-name="x" unicode="x" horiz-adv-x="933" d="M572.816 696 L594.016 733 L618.779 774 Q647.103 819 666.46 850 L741.762 966 Q775.352 1020 836.352 1020 L930.352 1020 Q991.352 1020 1010.76 966 Q1019.67 944 1016.58 922 Q1012.78 895 992.271 870 L744.719 553 Q733.752 539 731.643 524 Q729.676 510 736.568 495 L901.849 127 Q912.476 103 909.103 79 Q905.73 55 889.357 31 Q856.189 -20 796.189 -20 L680.189 -20 Q619.189 -20 600.638 33 L548.751 169 Q528.919 220 498.395 323 Q480.757 290 452.292 244 L429.092 207 L405.751 169 L321.919 35 Q288.189 -20 226.189 -20 L126.189 -20 Q65.1892 -20 46.6378 33 Q36.8703 56 40.1027 79 Q43.6162 104 63.2703 130 L329.6 481 Q340.708 496 342.676 510 Q344.643 524 337.752 539 L176.411 871 Q163.784 895 167.579 922 Q170.671 944 185.903 967 Q220.352 1020 280.352 1020 L389.352 1020 Q447.352 1020 468.184 969 L519.038 847 L533.416 807 L546.935 768 Q564.33 721 572.816 696 Z " />
<glyph glyph-name="y" unicode="y" horiz-adv-x="1007" d="M550.535 324 Q561.892 355 583.184 414 L601.211 464 Q610.006 491 617.676 510 L780.952 946 Q791.449 978 820.541 1000 Q851.633 1022 886.633 1022 L1003.63 1022 Q1056.63 1022 1079.59 979 Q1093.08 954 1089 925 Q1086.89 910 1079.64 894 L819.503 338 Q760.216 215 699.259 73 Q689.027 50 675.53 18 L664.876 -8 L654.503 -32 Q630.913 -86 616.276 -119 Q543.649 -280 466.654 -344 Q363.989 -427 246.789 -464 Q229.946 -470 212.946 -470 Q186.946 -470 165.773 -457 Q133.865 -435 128.627 -394 L119.557 -302 Q118.962 -292 120.508 -281 Q123.6 -259 137.551 -238 Q157.189 -205 192.297 -190 Q221.984 -178 253.513 -160 Q321.432 -125 367.022 -71 Q380.13 -56 382.378 -40 Q384.065 -28 380.611 -17 Q359.854 63 278.389 387 Q247.254 507 209.335 657 Q180.935 768 150.8 888 Q145.471 907 148.141 926 Q151.935 953 171.308 977 Q206.633 1022 260.633 1022 L385.633 1022 Q418.633 1022 442.681 1001 Q465.871 981 469.654 951 L531.676 510 L535.443 487 L537.211 464 Q540.135 435 544.043 413 Q548.454 359 550.535 324 Z " />
<glyph glyph-name="z" unicode="z" horiz-adv-x="919" d="M799.449 238 Q842.449 238 867.951 206 Q891.157 179 885.395 138 L877.103 79 Q871.481 39 840.546 11 Q808.189 -20 763.189 -20 L115.189 -20 Q71.1892 -20 47.5459 11 Q23.4811 39 29.1027 79 L36.4108 131 Q40.9082 163 63.7028 190 L402.67 574 Q463.087 641 533.925 711 Q543.33 721 544.735 731 L545.579 737 Q546.546 751 537.67 759 Q532.514 765 524.514 765 L258.514 765 Q214.514 765 190.871 796 Q167.806 824 173.427 864 L181.438 921 Q187.06 961 217.995 989 Q250.352 1020 294.352 1020 L894.352 1020 Q937.352 1020 961.276 991 Q986.06 961 980.438 921 L972.006 861 Q967.227 827 942.714 802 L622.135 435 L589.076 399 L557.297 365 Q520.816 326 495.162 300 Q488.319 294 482.07 278 Q480.649 275 480.227 272 Q478.822 262 484.135 250 Q492.449 238 505.449 238 L799.449 238 Z " />
<glyph glyph-name="braceleft" unicode="&#x7b;" horiz-adv-x="520" d="M655.66 1257 Q537.66 1257 516.438 1106 Q513.065 1082 511.146 1047 L509.789 1016 Q508.979 996 509.433 985 L507.903 967 L507.654 951 Q506.703 930 506.735 916 Q503.692 873 499.054 840 L498.352 835 Q482.892 725 430.741 667 Q383.433 615 292.481 594 L291.497 587 Q376.687 567 409.238 514 Q444.946 455 429.487 345 L428.784 340 Q423.865 305 414.822 262 Q410.714 247 405.762 226 L397.843 191 L389.346 159 L382.27 130 Q374.211 94 371.119 72 Q349.616 -81 467.616 -81 Q485.616 -81 496.789 -94 Q505.103 -106 503.276 -119 L488.94 -221 Q486.832 -236 476.286 -247 Q461.459 -260 442.459 -260 L406.459 -260 Q95.4594 -260 136.076 29 Q146.335 102 169.546 196 L179.73 240 L190.492 281 Q199.957 327 205.016 363 Q212.887 419 197.384 451 Q175.708 496 106.973 505 Q91.3947 508 81.9407 519 Q74.4866 530 76.4542 544 L89.384 636 Q91.211 649 101.757 660 Q114.303 671 130.725 674 Q202.989 683 236.033 726 Q260.53 758 268.822 817 Q275.849 867 280.152 983 Q283.503 1078 293.763 1151 Q314 1295 407.119 1367 Q497.098 1438 647.098 1438 L681.098 1438 Q699.098 1438 710.271 1425 Q718.584 1413 716.617 1399 L702 1295 Q700.033 1281 689.487 1270 Q674.66 1257 655.66 1257 Z " />
<glyph glyph-name="bar" unicode="&#x7c;" horiz-adv-x="225" d="M367.465 1711 Q409.465 1711 435.249 1681 Q457.173 1652 451.692 1613 L180.308 -318 Q174.686 -358 144.892 -385 Q110.535 -416 68.535 -416 L39.535 -416 Q-2.46499 -416 -28.1082 -385 Q-50.3136 -358 -44.692 -318 L226.692 1613 Q232.173 1652 262.249 1681 Q296.465 1711 338.465 1711 L367.465 1711 Z " />
<glyph glyph-name="braceright" unicode="&#x7d;" horiz-adv-x="520" d="M579.022 669 Q594.6 666 603.195 656 Q610.649 645 608.822 632 L595.611 538 Q593.784 525 583.238 514 Q570.692 503 556.27 500 Q484.006 491 449.681 446 Q424.043 413 416.314 358 Q409.146 307 405.984 192 L403.8 148 L401.897 106 Q399.432 60 394.373 24 Q353.757 -265 40.7567 -265 L3.75668 -265 Q-14.2433 -265 -23.6974 -254 Q-34.0109 -242 -31.7622 -226 L-17.4271 -124 Q-15.4595 -110 -1.773 -98 Q11.9135 -86 28.9135 -86 Q93.054 -85 125.535 -46 Q158.735 -9 169.416 67 Q176.162 115 176.281 187 L176.919 220 Q178.011 242 180.119 257 Q182.162 300 187.081 335 L187.784 340 Q203.384 451 254.535 509 Q303.124 563 395.795 582 L396.779 589 Q309.589 609 276.038 662 Q241.189 720 256.649 830 L257.352 835 Q261.989 868 272.033 911 Q274 925 278.952 946 L283.341 963 L287.589 979 Q308.13 1054 314.735 1101 Q335.395 1248 215.957 1252 Q198.957 1252 189.503 1263 Q179.19 1275 181.298 1290 L195.914 1394 Q198.022 1409 211.709 1421 Q225.395 1433 242.395 1433 L277.395 1433 Q428.395 1433 499.417 1362 Q572.298 1290 552.06 1146 Q544.471 1092 516.449 978 Q487.146 862 480.119 812 Q472.108 755 488.33 721 Q510.287 678 579.022 669 Z " />
<glyph glyph-name="asciitilde" unicode="&#x7e;" horiz-adv-x="1043" d="M1083.65 1015 Q1129.65 1015 1153.87 981 Q1174.08 954 1169.3 920 Q1168.31 913 1166.47 907 Q1131.83 753 1044.29 678 Q966.152 613 853.152 613 Q784.152 613 716.087 641 Q666.038 662 579.627 716 Q450.995 804 403.995 804 Q342.995 804 310.643 709 Q300.006 676 269.773 653 Q239.541 630 202.541 630 L191.541 630 Q144.541 630 119.6 666 Q101.395 693 106.033 726 Q107.157 734 109.141 741 Q148.519 886 234.919 960 Q314.476 1028 429.476 1028 Q501.476 1028 565.681 1001 Q614.871 981 703 925 Q835.476 843 879.476 843 Q931.476 843 962.265 934 Q973.044 968 1003.14 990 Q1033.65 1015 1070.65 1015 L1083.65 1015 Z " />
<glyph glyph-name="exclamdown" unicode="&#xa1;" horiz-adv-x="373" d="M180.319 849 Q186.66 887 218.173 912 Q253.249 941 295.249 941 L340.249 941 Q383.249 941 408.173 912 Q432.66 887 429.319 849 L357.665 83 L356.962 78 Q351.762 41 321.968 14 Q286.47 -18 241.47 -18 L125.47 -18 Q79.4703 -18 52.9676 14 Q30.7622 41 35.9622 78 L36.6649 83 L180.319 849 Z M391.957 1437 Q472.957 1437 517.087 1381 Q559.357 1326 547.692 1243 Q533.746 1158 478.438 1106 Q418.568 1050 335.568 1050 Q250.568 1050 207.157 1104 Q163.027 1160 174.692 1243 Q186.357 1326 245.087 1381 Q305.957 1437 389.957 1437 L391.957 1437 Z " />
<glyph glyph-name="cent" unicode="&#xa2;" horiz-adv-x="818" d="M826.335 102 Q827.07 93 825.805 84 Q822.151 58 803.059 36 Q777.562 4 736.016 -7 Q678.049 -21 619.346 -26 L604.589 -131 Q599.108 -170 566.173 -198 Q531.957 -228 487.957 -228 L483.957 -228 Q438.957 -228 413.313 -197 Q390.108 -170 395.589 -131 L411.33 -19 Q229.265 9 130.238 144 Q39.3514 280 69.2866 493 Q96.8326 689 221.93 832 Q356.152 983 557.773 1023 L572.671 1129 Q578.292 1169 609.227 1197 Q643.444 1227 688.444 1227 L692.444 1227 Q735.444 1227 762.368 1198 Q787.292 1169 781.671 1129 L768.179 1033 Q812.038 1032 864.071 1018 Q904.946 1010 921.027 975 Q933.795 952 930 925 Q928.595 915 925.189 905 L909.006 861 Q895.665 823 859.573 801 Q831.043 783 799.043 783 Q790.043 783 780.184 784 Q740.168 791 691.168 791 Q576.168 791 495.206 713 Q413.384 636 394.833 504 Q375.578 367 443.476 288 Q504.778 219 613.778 219 Q666.778 219 715.903 227 Q728.324 230 739.324 230 Q771.324 230 794.654 211 Q825.281 187 825.519 146 L826.335 102 Z " />
<glyph glyph-name="sterling" unicode="&#xa3;" horiz-adv-x="935" d="M868.103 264 Q913.103 264 937.746 233 Q963.811 205 958.189 165 L948.773 98 Q943.292 59 909.357 31 Q876 0 831 0 L103 0 Q58 0 33.3568 31 Q8.15137 58 13.773 98 L15.8811 113 Q23.4703 167 75.546 196 Q158.011 242 216.13 314 Q282.795 397 295.162 485 L300.503 523 Q301.454 544 289.422 558 Q279.108 570 262.108 570 L205.108 570 Q161.108 570 136.184 599 Q110.4 629 116.022 669 L119.395 693 Q125.016 733 157.952 761 Q192.168 791 236.168 791 L243.168 791 Q261.168 791 277.276 806 Q292.384 821 295.054 840 Q295.476 843 294.898 846 Q295.189 905 303.341 963 Q331.168 1161 475.454 1284 Q620.6 1406 829.6 1406 Q910.6 1406 976.211 1389 Q1016.67 1378 1032.89 1344 Q1045.65 1321 1041.86 1294 Q1040.45 1284 1037.19 1275 L1018.46 1220 Q1004.98 1181 967.887 1159 Q937.357 1141 906.357 1141 Q896.357 1141 886.498 1142 Q850.481 1149 809.481 1149 Q713.481 1149 657.049 1089 Q609.881 1038 597.373 949 Q589.925 896 591.93 832 Q592.119 812 604.714 802 Q614.168 791 629.168 791 L770.168 791 Q814.168 791 839.952 761 Q865.016 733 859.395 693 L856.022 669 Q850.4 629 816.184 599 Q783.108 570 739.108 570 L634.108 570 Q617.108 570 603.422 558 Q587.454 544 582.643 524 Q571.492 466 551.027 420 Q511.081 335 431.946 270 Q430.805 269 430.524 267 Q430.103 264 428.103 264 L868.103 264 Z " />
<glyph glyph-name="currency" unicode="&#xa4;" horiz-adv-x="989" d="M586.022 669 Q658.022 669 715.173 727 Q784.871 796 802.016 918 Q816.914 1024 774.471 1092 Q731.887 1159 654.887 1159 L652.887 1159 Q577.887 1159 517.752 1094 Q454.054 1025 438.735 916 Q422.011 797 474.314 728 Q518.022 669 586.022 669 Z M1030.72 553 Q1054.07 527 1049.15 492 Q1044.23 457 1016.43 430 L1015.29 429 Q982.935 398 938.935 398 L934.935 398 Q889.357 401 867.276 436 L820.973 505 Q813.8 518 798.222 521 L795.222 521 Q784.222 521 774.379 515 Q671.524 452 555.524 452 Q435.524 452 355.676 510 Q347.519 516 337.519 516 Q334.519 516 330.379 515 Q318.238 514 306.551 502 L243.135 435 Q211.497 402 165.076 399 L159.076 399 Q116.076 399 94.4326 430 Q72.9461 455 77.5839 488 L78.0055 491 Q84.065 527 112.719 553 L206.103 634 Q223.352 650 225.46 665 Q227.146 677 220.973 690 Q179.606 787 197.454 914 Q214.741 1037 282.795 1137 Q291.622 1150 293.308 1162 Q295.557 1178 282.525 1192 L209.627 1271 Q186 1295 188.341 1333 L188.763 1336 Q193.541 1370 222.054 1395 L226.757 1400 Q261.254 1432 305.254 1432 Q350.114 1431 373.476 1398 L427.217 1325 Q434.671 1314 447.53 1313 Q450.39 1312 453.39 1312 Q462.39 1312 472.233 1318 Q567.244 1375 687.244 1375 L689.244 1375 Q808.244 1375 890.373 1319 Q898.53 1313 907.53 1313 L912.53 1313 Q925.952 1316 938.638 1328 L1009.62 1399 Q1043.25 1432 1087.25 1432 L1090.25 1432 Q1132.25 1432 1156.04 1402 L1160.34 1397 Q1180.54 1370 1176.04 1338 L1175.62 1335 Q1169.28 1297 1137.77 1272 L1041.38 1191 Q1023.42 1177 1021.03 1160 Q1019.62 1150 1023.79 1137 Q1059.6 1036 1043.3 920 Q1025.03 790 959.535 694 Q949.708 681 948.022 669 Q945.914 654 957.806 639 L1030.72 553 Z " />
<glyph glyph-name="yen" unicode="&#xa5;" horiz-adv-x="1013" d="M624.962 818 Q633.492 836 647.427 864 L662.222 891 L676.438 921 Q712.698 994 739.444 1042 L896.654 1321 Q913.59 1349 939.698 1364 Q969.368 1383 1001.37 1383 L1093.37 1383 Q1153.37 1383 1176.2 1332 Q1185.97 1309 1182.59 1285 Q1179.36 1262 1163.13 1239 L833.341 778 L995.341 778 Q1031.34 778 1049.39 757 Q1070.02 733 1065.8 703 Q1061.72 674 1036.63 652 Q1009.12 627 974.119 627 L778.119 627 Q762.119 627 748.433 615 Q732.465 601 729.654 581 L723.611 538 Q720.8 518 731.973 505 Q744.006 491 759.006 491 L955.006 491 Q990.006 491 1008.91 469 Q1029.54 445 1025.46 416 Q1021.25 386 995.297 365 Q968.784 340 933.784 340 L737.784 340 Q721.784 340 708.097 328 Q692.13 314 689.178 293 L661.632 97 Q656.151 58 625.357 31 Q591 0 546 0 L451 0 Q407 0 381.216 30 Q356.151 58 361.632 97 L389.178 293 Q392.13 314 381.238 329 Q370.784 340 354.784 340 L160.784 340 Q125.784 340 106.016 363 Q86.2488 386 90.465 416 Q94.6812 446 119.773 468 Q148.006 491 182.006 491 L376.006 491 Q391.006 491 404.692 503 Q420.8 518 423.611 538 L429.654 581 Q432.465 601 421.573 616 Q411.119 627 395.119 627 L201.119 627 Q166.119 627 146.352 650 Q126.584 673 130.8 703 Q134.876 732 160.249 756 Q188.341 778 222.341 778 L386.341 778 L198.271 1240 Q188.503 1263 191.736 1286 Q195.249 1311 212.341 1333 Q248.368 1383 308.368 1383 L410.368 1383 Q443.368 1383 465.698 1364 Q488.449 1348 497.654 1321 L575.162 1040 Q588.854 988 603.438 921 L609.362 892 L615.568 865 L624.962 818 Z " />
<glyph glyph-name="brokenbar" unicode="&#xa6;" horiz-adv-x="225" d="M466.73 1720 L347.973 875 Q345.584 858 315.757 845 Q283.789 831 243.789 831 L214.789 831 Q174.789 831 146.757 845 Q120.584 858 122.973 875 L241.73 1720 L466.73 1720 Z M-45.1136 -321 L73.7839 525 Q76.0326 541 105.86 554 Q137.827 568 177.827 568 L206.827 568 Q246.827 568 274.86 554 Q301.033 541 298.784 525 L179.886 -321 L-45.1136 -321 Z " />
<glyph glyph-name="section" unicode="&#xa7;" horiz-adv-x="965" d="M374.222 891 Q360.168 791 526.033 726 Q557.346 714 613.395 693 L635.13 684 L655.146 677 Q676.881 668 693.038 662 Q708.335 657 722.335 657 Q744.335 657 768.303 671 Q809.816 696 817.422 743 L817.984 747 Q831.616 844 701.627 901 Q681.752 909 652.438 921 L626.844 931 L601.389 942 Q535.044 968 503.011 982 Q488.854 988 473.854 988 Q456.854 988 437.73 980 Q400.481 964 384.281 927 Q376.892 910 374.503 893 L374.222 891 Z M1043.45 1469 Q1028.83 1429 987.741 1407 Q959.773 1393 932.773 1393 Q917.773 1393 902.336 1397 Q827.427 1419 737.427 1419 Q654.427 1419 604.633 1392 Q554.838 1365 548.092 1317 Q541.346 1269 590.568 1235 Q632.211 1204 742.152 1168 Q925.438 1106 999.6 1036 Q1097.81 945 1076.73 795 Q1060.43 679 964.06 591 Q937.968 569 931.33 536 Q929.627 531 928.924 526 Q925.411 501 936.319 479 Q966.043 413 955.784 340 Q931.33 166 761.259 73 Q628 0 453 0 Q279 0 158.449 53 Q123.416 67 112.195 101 Q104.146 122 107.097 143 Q108.924 156 116.032 171 L120.157 179 Q137.919 220 180.589 239 Q205.135 250 229.135 250 Q248.135 250 267.151 243 Q370.389 202 469.389 202 Q549.389 202 600.043 228 Q653.978 256 661.708 311 Q669.016 363 624.076 399 Q583.714 432 471.054 470 Q285.768 532 205.606 602 Q97.5353 694 117.492 836 Q134.216 955 241.584 1043 Q268.817 1066 280.595 1100 Q284 1110 285.406 1120 Q288.779 1144 281.871 1166 Q260.303 1226 269.157 1289 Q290.941 1444 431.449 1533 Q565.395 1618 761.395 1618 Q890.395 1618 990.179 1588 Q1029.49 1576 1045.57 1541 Q1055.48 1519 1052.25 1496 Q1050.56 1484 1044.6 1470 L1043.45 1469 Z " />
<glyph glyph-name="dieresis" unicode="&#xa8;" horiz-adv-x="721" d="M733.498 1142 Q671.498 1142 636.681 1186 Q601.146 1232 609.719 1293 Q618.433 1355 663.476 1398 Q713.66 1442 779.66 1442 Q841.66 1442 877.476 1398 Q911.573 1356 902.719 1293 Q894.146 1232 848.822 1187 Q799.498 1142 737.498 1142 L733.498 1142 Z M309.498 1142 Q245.498 1142 209.681 1186 Q173.006 1231 181.719 1293 Q190.433 1355 238.476 1398 Q288.66 1442 353.66 1442 Q414.66 1442 450.476 1398 Q484.292 1354 475.719 1293 Q467.146 1232 420.822 1187 Q372.498 1142 311.498 1142 L309.498 1142 Z " />
<glyph glyph-name="copyright" unicode="&#xa9;" horiz-adv-x="1290" d="M1304.62 659 Q1266.25 386 1075.41 195 Q982.476 103 873.449 53 Q759 0 640 0 Q521 0 419.449 53 Q322.476 103 255.405 195 Q116.249 386 154.616 659 Q192.703 930 386.546 1121 Q478.335 1212 589.363 1262 Q705.811 1315 824.811 1315 L826.811 1315 Q943.811 1315 1043.36 1262 Q1139.34 1212 1205.55 1121 Q1342.7 930 1304.62 659 Z M803.806 1194 Q622.806 1194 472.022 1039 Q318.957 882 287.335 657 Q255.714 432 364.649 275 Q472.005 121 655.005 121 L657.005 121 Q838.005 121 986.508 274 Q1139.71 432 1171.34 657 Q1202.96 882 1094.02 1039 Q987.806 1194 805.806 1194 L803.806 1194 Z M1013.55 936 Q1004.31 913 981.627 901 Q965.503 893 948.503 893 Q936.503 893 928.065 897 Q870.876 917 812.876 917 Q709.876 917 640.319 849 Q568.481 779 550.773 653 Q534.189 535 586.649 460 Q638.389 387 736.389 387 Q805.389 387 864.341 408 Q876.043 413 890.043 413 Q906.043 413 918.919 405 Q940.373 394 943 370 L942.719 368 Q943.876 362 942.751 354 Q941.206 343 935.941 334 Q925.411 316 906.146 307 Q815.822 262 702.822 262 Q539.822 262 459.703 375 Q386.46 480 409.93 647 Q434.665 823 558.265 934 Q678.444 1042 830.444 1042 Q925.444 1042 994.665 1008 Q1012.54 1000 1019.01 982 Q1023.47 971 1021.78 959 Q1020.79 952 1017.95 946 L1013.55 936 Z " />
<glyph glyph-name="ordfeminine" unicode="&#xaa;" horiz-adv-x="576" d="M525.395 1063 Q445.254 1062 401.444 1042 Q344.649 1015 337.06 961 Q331.86 924 352.346 899 Q370.395 878 401.395 878 Q427.395 878 455.644 894 Q484.314 913 496.968 939 Q505.795 952 509.903 967 Q513.168 976 514.854 988 L525.395 1063 Z M502.698 809 Q420.016 733 314.016 733 L307.016 733 Q213.016 733 164.871 796 Q120.022 854 132.249 941 Q149.114 1061 260.108 1125 Q366.103 1189 537.103 1189 L539.071 1203 Q540.617 1214 538.303 1226 Q535.271 1240 525.957 1252 Q501.454 1284 440.454 1284 Q389.454 1284 338.065 1267 Q323.222 1261 308.222 1261 Q290.222 1261 273.487 1270 Q247.736 1286 242.811 1315 Q242.936 1323 243.919 1330 Q246.027 1345 254.276 1361 Q269.509 1384 296.054 1395 Q392.676 1435 498.676 1435 Q644.676 1435 703.887 1344 Q754.065 1267 735.795 1137 L703.892 910 Q694.335 842 689.119 812 Q685.184 784 660.67 759 Q636.157 734 604.157 734 L568.016 733 L566.016 733 Q533.016 733 515.811 760 Q499.903 782 502.698 809 Z " />
<glyph glyph-name="guillemotleft" unicode="&#xab;" horiz-adv-x="792" d="M335.422 743 Q324.454 729 322.346 714 Q320.379 700 327.411 686 L437.822 447 Q447.73 425 444.497 402 Q441.546 381 426.454 359 Q391.568 310 333.568 310 Q276.568 310 255.314 358 L118.741 667 Q109.114 691 112.346 714 Q115.719 738 132.092 762 L355.8 1073 Q390.546 1121 467.546 1121 Q505.546 1121 526.66 1072 Q536.568 1050 533.476 1028 Q530.384 1006 514.292 984 L335.422 743 Z M829.962 448 Q841.73 425 838.357 401 Q835.406 380 820.454 359 Q784.568 310 727.568 310 Q669.568 310 648.314 358 L511.741 667 Q502.114 691 505.346 714 Q508.719 738 525.092 762 L748.8 1073 Q783.546 1121 861.546 1121 Q898.546 1121 920.66 1072 Q929.708 1051 926.757 1030 Q923.384 1006 905.152 983 L729.422 743 Q718.454 729 716.346 714 Q714.379 700 721.411 686 L829.962 448 Z " />
<glyph glyph-name="logicalnot" unicode="&#xac;" horiz-adv-x="970" d="M1117.85 1052 L1036.05 470 Q1030.99 434 999.06 406 Q969.406 380 927.406 380 Q886.406 380 864.06 406 Q839.995 434 845.054 470 L899.022 854 L215.022 854 Q174.022 854 151.676 880 Q127.611 908 132.671 944 L135.06 961 Q140.119 997 172.054 1025 Q202.849 1052 242.849 1052 L1117.85 1052 Z " />
<glyph glyph-name="registered" unicode="&#xae;" horiz-adv-x="732" d="M469.265 749 Q466.735 731 478.735 731 L489.735 731 Q540.735 731 546.498 772 Q552.4 814 504.4 814 L490.26 813 Q478.119 812 475.871 796 L469.265 749 Z M386.892 540 Q362.892 540 351.719 553 Q338.827 568 341.357 586 L376.492 836 L407.254 877 Q420.676 880 436.957 882 Q479.66 887 520.66 887 Q606.66 887 640.584 858 Q669.352 835 662.465 786 Q659.373 764 636.141 741 Q616.47 722 585.925 711 Q584.925 711 584.503 708 Q584.081 705 585.081 705 Q628.692 688 632.276 621 Q632.168 606 632.481 594 Q632.779 589 632.076 584 Q630.108 570 619.562 559 Q601.892 540 574.892 540 L566.892 540 Q525.892 540 520.952 576 Q520.795 582 520.481 594 L518.152 613 Q516.897 661 479.897 661 L454.897 661 L444.357 586 Q441.968 569 427 555 Q408.892 540 386.892 540 Z M533.714 987 Q438.714 987 363.471 907 Q287.227 827 270.784 710 Q254.481 594 310.238 514 Q364.276 436 459.276 436 L464.276 436 Q557.276 436 631.238 514 Q709.622 595 726.065 712 Q742.227 827 685.611 908 Q631.714 987 534.714 987 L533.714 987 Z M551.503 1078 Q692.503 1078 774.184 969 Q853.146 862 832.065 712 Q810.703 560 701.665 453 Q589.346 344 446.346 344 Q304.346 344 222.524 452 Q140.843 561 162.065 712 Q183.146 862 295.325 970 Q407.503 1078 549.503 1078 L551.503 1078 Z " />
<glyph glyph-name="macron" unicode="&#xaf;" horiz-adv-x="517" d="M702.373 1319 Q699 1295 678.33 1276 Q654.519 1256 625.519 1256 L244.519 1256 Q215.519 1256 197.33 1276 Q182 1295 185.373 1319 L192.822 1372 Q196.054 1395 215.725 1414 Q239.676 1435 269.676 1435 L650.676 1435 Q680.676 1435 698.725 1414 Q713.054 1395 709.822 1372 L702.373 1319 Z " />
<glyph glyph-name="degree" unicode="&#xb0;" horiz-adv-x="474" d="M433.211 1389 Q472.211 1389 500.287 1418 Q529.363 1447 535.687 1492 Q541.73 1535 522.087 1566 Q502.303 1596 462.303 1596 L460.303 1596 Q422.303 1596 394.946 1565 Q367.73 1535 361.406 1490 Q355.644 1449 376.427 1419 Q397.211 1389 433.211 1389 Z M481.201 1702 Q592.201 1702 645.487 1640 Q696.476 1583 683.687 1492 Q671.179 1403 601.027 1345 Q528.314 1283 420.314 1283 Q310.314 1283 251.027 1345 Q197.038 1402 209.406 1490 Q222.055 1580 291.346 1639 Q365.201 1702 479.201 1702 L481.201 1702 Z " />
<glyph glyph-name="plusminus" unicode="&#xb1;" horiz-adv-x="1055" d="M1110.32 1034 Q1148.32 1034 1172.24 1005 Q1192.73 980 1187.67 944 L1184.72 923 Q1179.8 888 1153.15 862 Q1121.21 834 1082.21 834 L749.211 834 L695.946 455 Q690.887 419 663.373 394 Q631.438 366 593.438 366 L564.438 366 Q525.438 366 504.373 394 Q482.887 419 487.946 455 L541.211 834 L207.211 834 Q169.211 834 145.146 862 Q124.66 887 129.719 923 L132.671 944 Q137.73 980 166.244 1005 Q196.319 1034 235.319 1034 L569.319 1034 L621.881 1408 Q626.941 1444 655.454 1469 Q684.39 1497 723.39 1497 L752.39 1497 Q790.39 1497 814.454 1469 Q834.941 1444 829.881 1408 L777.319 1034 L1110.32 1034 Z M905.108 200 Q947.108 200 974.032 171 Q998.957 142 993.476 103 L992.632 97 Q987.151 58 954.216 30 Q920 0 877 0 L179 0 Q135 0 110.076 29 Q85.1514 58 90.6325 97 L91.4757 103 Q96.9568 142 128.892 170 Q164.108 200 207.108 200 L905.108 200 Z " />
<glyph glyph-name="acute" unicode="&#xb4;" horiz-adv-x="325" d="M287.368 1383 Q321.395 1433 380.395 1433 L414.395 1433 Q477.395 1433 495.384 1376 Q503.433 1355 500.481 1334 Q496.125 1303 470.33 1276 L355.341 1148 Q321 1110 272 1110 L266 1110 Q208 1110 187.168 1161 Q177.4 1184 180.633 1207 Q184.006 1231 200.238 1254 L287.368 1383 Z " />
<glyph glyph-name="mu" unicode="&#xb5;" horiz-adv-x="1027" d="M693.346 159 Q657.054 100 594.151 58 Q513.843 6 423.843 6 Q331.843 6 296.011 57 L285.049 -21 Q266.216 -155 257.632 -273 L256.367 -282 Q250.043 -327 213.405 -360 Q169.784 -400 115.784 -400 L76.7837 -400 Q28.7837 -400 -4.57849 -367 Q-33.2217 -336 -30.8974 -291 Q-25.8595 -184 -3.23244 -23 L132.389 942 Q139.276 991 180.335 1027 Q220.254 1062 273.254 1062 L343.254 1062 Q397.254 1062 428.054 1025 Q457.276 991 450.389 942 L385.6 481 Q354.119 257 499.119 257 Q551.119 257 601.038 292 Q646.676 325 669 370 Q684.514 395 691.119 442 L761.389 942 Q768.276 991 807.054 1025 Q848.254 1062 902.254 1062 L972.254 1062 Q1025.25 1062 1055.34 1027 Q1086.28 991 1079.39 942 L997.595 360 Q986.07 278 1013.56 253 Q1054.64 218 1046.49 160 L1045.36 152 L1035.18 108 Q1026.71 62 987.357 31 Q946.719 -2 897.719 -2 L896.719 -2 Q718.719 -2 693.346 159 Z " />
<glyph glyph-name="paragraph" unicode="&#xb6;" horiz-adv-x="902" d="M447.352 650 Q449.038 662 442.038 662 Q394.038 662 340.27 685 Q281.065 712 238.811 760 Q129.254 877 152.833 1059 L154.66 1072 Q181.925 1266 311.368 1383 Q487.714 1542 822.714 1542 Q939.714 1542 1025.31 1532 Q1064.89 1529 1087.67 1499 Q1108.74 1471 1103.82 1436 L915.632 97 Q910.151 58 877.216 30 Q843 0 800 0 Q755 0 730.076 29 Q705.151 58 710.632 97 L878.86 1294 Q881.811 1315 870.638 1328 Q858.606 1342 841.606 1342 Q805.606 1342 773.671 1314 Q741.736 1286 735.973 1245 L574.632 97 Q569.151 58 536.357 31 Q503 0 459 0 Q414 0 389.357 31 Q364.151 58 369.632 97 L447.352 650 Z " />
<glyph glyph-name="&amp;#xb7;" unicode="&#xb7;" horiz-adv-x="292" d="M133.93 -93 Q70.9297 -93 34.3946 -47 Q-0.562163 -4 7.87029 56 Q16.8649 120 62.7676 162 Q113.092 207 178.092 207 Q241.092 207 274.768 162 Q308.865 120 299.87 56 Q291.578 -3 245.254 -48 Q196.93 -93 135.93 -93 L133.93 -93 Z " />
<glyph glyph-name="&amp;#x2219;" unicode="&#x2219;" horiz-adv-x="292" d="M133.93 -93 Q70.9297 -93 34.3946 -47 Q-0.562163 -4 7.87029 56 Q16.8649 120 62.7676 162 Q113.092 207 178.092 207 Q241.092 207 274.768 162 Q308.865 120 299.87 56 Q291.578 -3 245.254 -48 Q196.93 -93 135.93 -93 L133.93 -93 Z " />
<glyph glyph-name="cedilla" unicode="&#xb8;" horiz-adv-x="408" d="M250.6 -74 Q309.335 -83 345.432 -125 Q384.389 -168 375.816 -229 Q362.324 -325 279.719 -372 Q206.816 -414 97.8161 -414 Q40.8161 -414 -7.93525 -398 Q-33.6704 -389 -41.1569 -364 Q-46.4704 -352 -44.3623 -337 Q-43.0974 -328 -37.4109 -316 Q-26.4595 -295 -1.77306 -283 Q15.4918 -274 34.4918 -274 Q45.4918 -274 54.0702 -277 Q82.6648 -287 104.665 -287 Q131.665 -287 149.211 -276 Q175.459 -260 179.535 -231 Q188.53 -167 32.4973 -153 L121.735 -9 Q144.935 28 188.935 28 L209.935 28 Q250.935 28 264.578 -3 Q272.47 -18 270.081 -35 Q268.113 -49 258.146 -63 L250.6 -74 Z " />
<glyph glyph-name="guillemotright" unicode="&#xbb;" horiz-adv-x="792" d="M162.292 984 Q152.384 1006 155.617 1029 Q158.568 1050 173.66 1072 Q208.546 1121 265.546 1121 Q323.546 1121 344.8 1073 L480.373 764 Q491 740 487.627 716 Q484.395 693 467.022 669 L244.314 358 Q209.568 310 171.568 310 Q93.5677 310 72.3136 358 Q63.4055 380 66.4974 402 Q69.7299 425 85.8218 447 L264.692 688 Q275.66 702 277.768 717 Q279.735 731 272.843 746 L162.292 984 Z M555.292 984 Q545.384 1006 548.617 1029 Q551.568 1050 566.66 1072 Q601.546 1121 659.546 1121 Q716.546 1121 737.8 1073 L874.373 764 Q885 740 881.627 716 Q878.395 693 861.022 669 L637.314 358 Q602.568 310 545.568 310 L544.568 310 Q486.568 310 465.314 358 Q456.406 380 459.357 401 Q462.73 425 480.962 448 L657.692 688 Q668.66 702 670.768 717 Q672.735 731 665.843 746 L555.292 984 Z " />
<glyph glyph-name="questiondown" unicode="&#xbf;" horiz-adv-x="724" d="M626.519 1441 Q708.519 1441 752.649 1385 Q795.06 1331 783.395 1248 Q771.59 1164 715.141 1111 Q656.13 1054 571.13 1054 Q485.13 1054 442.141 1111 Q400.59 1164 412.395 1248 Q424.06 1331 481.649 1385 Q541.519 1441 625.519 1441 L626.519 1441 Z M629.076 954 Q655.076 954 672.546 936 Q686.438 921 686.206 898 L683.816 881 Q660.768 717 519.968 569 Q449.568 495 421.806 454 Q377.373 394 370.346 344 Q362.195 286 394.557 253 Q424.919 220 493.778 219 Q546.778 219 605.308 237 Q621.87 241 636.87 241 Q662.87 241 686.184 229 Q721.232 208 726.751 169 L732.989 128 Q735.162 115 733.335 102 Q730.384 81 717.432 60 Q696.654 26 657.686 12 Q527.8 -37 388.8 -37 Q196.8 -37 103.995 64 Q21.6433 154 41.1785 293 Q56.0758 399 126.849 497 Q155.33 536 196.233 578 Q210.622 595 230.573 616 L247.962 633 L264.492 651 Q386.498 772 405.611 908 L406.735 916 Q408.844 931 422.53 943 Q435.076 954 455.076 954 L629.076 954 Z " />
<glyph glyph-name="Agrave" unicode="&#xc0;" horiz-adv-x="1093" d="M742.919 1145 Q734.546 1121 721.346 1084 L699.211 1019 Q672.389 942 654.925 896 L559.054 655 Q555.93 647 554.946 640 Q552.557 623 562.449 608 Q571.919 590 591.919 590 L751.919 590 Q771.919 590 786.589 609 Q800.557 623 802.946 640 Q804.07 648 803.195 656 L772.925 896 Q764.952 946 758.492 1021 Q756.146 1047 754.346 1084 L750.844 1116 L749.06 1146 Q747.919 1145 742.919 1145 Z M1174.9 106 Q1176.93 92 1175.1 79 Q1170.89 49 1149.09 22 Q1116.19 -20 1067.19 -20 L936.189 -20 Q903.189 -20 883 0 Q861.811 20 857.887 49 L823.849 312 Q818.908 348 786.908 348 L489.908 348 Q457.908 348 443.708 311 L341.168 51 Q328.811 20 303.141 1 Q276.189 -20 243.189 -20 L124.189 -20 Q75.1892 -20 54.0919 22 Q39.8865 49 44.1027 79 Q45.9298 92 51.8973 106 L568.746 1343 Q581.103 1374 607.914 1394 Q635.725 1414 667.725 1414 L921.725 1414 Q953.725 1414 976.914 1394 Q996.963 1373 1000.75 1343 L1174.9 106 Z M921.86 1664 Q931.628 1641 928.255 1617 Q925.022 1594 908.79 1571 Q873.622 1520 815.622 1520 L809.622 1520 Q760.622 1520 736.963 1558 L657.952 1686 Q639.746 1713 644.103 1744 Q647.055 1765 661.006 1786 Q695.017 1843 758.017 1843 L792.017 1843 Q851.017 1843 870.99 1793 L921.86 1664 Z " />
<glyph glyph-name="Aacute" unicode="&#xc1;" horiz-adv-x="1093" d="M742.919 1145 Q734.546 1121 721.346 1084 L699.211 1019 Q672.389 942 654.925 896 L559.054 655 Q555.93 647 554.946 640 Q552.557 623 562.449 608 Q571.919 590 591.919 590 L751.919 590 Q771.919 590 786.589 609 Q800.557 623 802.946 640 Q804.07 648 803.195 656 L772.925 896 Q764.952 946 758.492 1021 Q756.146 1047 754.346 1084 L750.844 1116 L749.06 1146 Q747.919 1145 742.919 1145 Z M1174.9 106 Q1176.93 92 1175.1 79 Q1170.89 49 1149.09 22 Q1116.19 -20 1067.19 -20 L936.189 -20 Q903.189 -20 883 0 Q861.811 20 857.887 49 L823.849 312 Q818.908 348 786.908 348 L489.908 348 Q457.908 348 443.708 311 L341.168 51 Q328.811 20 303.141 1 Q276.189 -20 243.189 -20 L124.189 -20 Q75.1892 -20 54.0919 22 Q39.8865 49 44.1027 79 Q45.9298 92 51.8973 106 L568.746 1343 Q581.103 1374 607.914 1394 Q635.725 1414 667.725 1414 L921.725 1414 Q953.725 1414 976.914 1394 Q996.963 1373 1000.75 1343 L1174.9 106 Z M806.99 1793 Q841.017 1843 900.017 1843 L934.017 1843 Q997.017 1843 1015.01 1786 Q1023.05 1765 1020.1 1744 Q1015.75 1713 989.952 1686 L874.963 1558 Q840.622 1520 791.622 1520 L785.622 1520 Q727.622 1520 706.79 1571 Q697.022 1594 700.255 1617 Q703.628 1641 719.86 1664 L806.99 1793 Z " />
<glyph glyph-name="Acircumflex" unicode="&#xc2;" horiz-adv-x="1093" d="M742.919 1145 Q734.546 1121 721.346 1084 L699.211 1019 Q672.389 942 654.925 896 L559.054 655 Q555.93 647 554.946 640 Q552.557 623 562.449 608 Q571.919 590 591.919 590 L751.919 590 Q771.919 590 786.589 609 Q800.557 623 802.946 640 Q804.07 648 803.195 656 L772.925 896 Q764.952 946 758.492 1021 Q756.146 1047 754.346 1084 L750.844 1116 L749.06 1146 Q747.919 1145 742.919 1145 Z M1174.9 106 Q1176.93 92 1175.1 79 Q1170.89 49 1149.09 22 Q1116.19 -20 1067.19 -20 L936.189 -20 Q903.189 -20 883 0 Q861.811 20 857.887 49 L823.849 312 Q818.908 348 786.908 348 L489.908 348 Q457.908 348 443.708 311 L341.168 51 Q328.811 20 303.141 1 Q276.189 -20 243.189 -20 L124.189 -20 Q75.1892 -20 54.0919 22 Q39.8865 49 44.1027 79 Q45.9298 92 51.8973 106 L568.746 1343 Q581.103 1374 607.914 1394 Q635.725 1414 667.725 1414 L921.725 1414 Q953.725 1414 976.914 1394 Q996.963 1373 1000.75 1343 L1174.9 106 Z M1115.54 1619 Q1124.29 1603 1121.9 1586 Q1119.93 1572 1109.96 1558 Q1085.18 1524 1044.18 1524 L994.184 1524 Q951.184 1524 939.103 1559 L880.184 1709 L879.184 1709 L776.963 1558 Q752.184 1524 711.184 1524 L661.184 1524 Q620.184 1524 605.103 1559 Q599.071 1573 601.038 1587 Q603.287 1603 616.536 1619 L767.222 1816 Q791.579 1847 830.579 1847 L966.579 1847 Q1005.58 1847 1021.08 1815 L1115.54 1619 Z " />
<glyph glyph-name="Atilde" unicode="&#xc3;" horiz-adv-x="1093" d="M742.919 1145 Q734.546 1121 721.346 1084 L699.211 1019 Q672.389 942 654.925 896 L559.054 655 Q555.93 647 554.946 640 Q552.557 623 562.449 608 Q571.919 590 591.919 590 L751.919 590 Q771.919 590 786.589 609 Q800.557 623 802.946 640 Q804.07 648 803.195 656 L772.925 896 Q764.952 946 758.492 1021 Q756.146 1047 754.346 1084 L750.844 1116 L749.06 1146 Q747.919 1145 742.919 1145 Z M1174.9 106 Q1176.93 92 1175.1 79 Q1170.89 49 1149.09 22 Q1116.19 -20 1067.19 -20 L936.189 -20 Q903.189 -20 883 0 Q861.811 20 857.887 49 L823.849 312 Q818.908 348 786.908 348 L489.908 348 Q457.908 348 443.708 311 L341.168 51 Q328.811 20 303.141 1 Q276.189 -20 243.189 -20 L124.189 -20 Q75.1892 -20 54.0919 22 Q39.8865 49 44.1027 79 Q45.9298 92 51.8973 106 L568.746 1343 Q581.103 1374 607.914 1394 Q635.725 1414 667.725 1414 L921.725 1414 Q953.725 1414 976.914 1394 Q996.963 1373 1000.75 1343 L1174.9 106 Z M593.806 1564 Q563.806 1564 545.898 1586 Q531.568 1605 534.8 1628 L535.363 1632 Q557.276 1731 610.287 1788 Q664.017 1843 735.017 1843 Q771.017 1843 806.909 1828 Q819.206 1823 836.082 1815 L863.833 1799 L875.849 1792 L886.865 1785 Q899.601 1776 907.038 1772 Q926.352 1760 940.352 1760 Q970.352 1760 986.395 1803 Q995.487 1825 1014.31 1838 Q1035.42 1853 1060.42 1853 L1084.42 1853 Q1115.42 1853 1133.47 1832 Q1146.8 1813 1143.71 1791 L1143.15 1787 Q1100.2 1581 943.195 1581 Q904.195 1581 867.444 1597 Q854.006 1601 836.411 1611 L804.66 1627 Q753.298 1660 737.298 1660 Q712.298 1660 694.692 1613 Q685.741 1592 666.914 1579 Q645.806 1564 620.806 1564 L593.806 1564 Z " />
<glyph glyph-name="Adieresis" unicode="&#xc4;" horiz-adv-x="1093" d="M742.919 1145 Q734.546 1121 721.346 1084 L699.211 1019 Q672.389 942 654.925 896 L559.054 655 Q555.93 647 554.946 640 Q552.557 623 562.449 608 Q571.919 590 591.919 590 L751.919 590 Q771.919 590 786.589 609 Q800.557 623 802.946 640 Q804.07 648 803.195 656 L772.925 896 Q764.952 946 758.492 1021 Q756.146 1047 754.346 1084 L750.844 1116 L749.06 1146 Q747.919 1145 742.919 1145 Z M1174.9 106 Q1176.93 92 1175.1 79 Q1170.89 49 1149.09 22 Q1116.19 -20 1067.19 -20 L936.189 -20 Q903.189 -20 883 0 Q861.811 20 857.887 49 L823.849 312 Q818.908 348 786.908 348 L489.908 348 Q457.908 348 443.708 311 L341.168 51 Q328.811 20 303.141 1 Q276.189 -20 243.189 -20 L124.189 -20 Q75.1892 -20 54.0919 22 Q39.8865 49 44.1027 79 Q45.9298 92 51.8973 106 L568.746 1343 Q581.103 1374 607.914 1394 Q635.725 1414 667.725 1414 L921.725 1414 Q953.725 1414 976.914 1394 Q996.963 1373 1000.75 1343 L1174.9 106 Z M1029.12 1552 Q967.119 1552 932.303 1596 Q896.768 1642 905.341 1703 Q914.055 1765 959.098 1808 Q1009.28 1852 1075.28 1852 Q1137.28 1852 1173.1 1808 Q1207.2 1766 1198.34 1703 Q1189.77 1642 1144.44 1597 Q1095.12 1552 1033.12 1552 L1029.12 1552 Z M605.119 1552 Q541.119 1552 505.303 1596 Q468.628 1641 477.341 1703 Q486.055 1765 534.098 1808 Q584.282 1852 649.282 1852 Q710.282 1852 746.098 1808 Q779.914 1764 771.341 1703 Q762.768 1642 716.444 1597 Q668.119 1552 607.119 1552 L605.119 1552 Z " />
<glyph glyph-name="Aring" unicode="&#xc5;" horiz-adv-x="1093" d="M742.919 1145 Q734.546 1121 721.346 1084 L699.211 1019 Q672.389 942 654.925 896 L559.054 655 Q555.93 647 554.946 640 Q552.557 623 562.449 608 Q571.919 590 591.919 590 L751.919 590 Q771.919 590 786.589 609 Q800.557 623 802.946 640 Q804.07 648 803.195 656 L772.925 896 Q764.952 946 758.492 1021 Q756.146 1047 754.346 1084 L750.844 1116 L749.06 1146 Q747.919 1145 742.919 1145 Z M1174.9 106 Q1176.93 92 1175.1 79 Q1170.89 49 1149.09 22 Q1116.19 -20 1067.19 -20 L936.189 -20 Q903.189 -20 883 0 Q861.811 20 857.887 49 L823.849 312 Q818.908 348 786.908 348 L489.908 348 Q457.908 348 443.708 311 L341.168 51 Q328.811 20 303.141 1 Q276.189 -20 243.189 -20 L124.189 -20 Q75.1892 -20 54.0919 22 Q39.8865 49 44.1027 79 Q45.9298 92 51.8973 106 L568.746 1343 Q581.103 1374 607.914 1394 Q635.725 1414 667.725 1414 L921.725 1414 Q953.725 1414 976.914 1394 Q996.963 1373 1000.75 1343 L1174.9 106 Z M813.227 1567 Q846.227 1567 870.882 1593 Q896.395 1618 902.017 1658 Q907.357 1696 890.011 1722 Q872.806 1749 838.806 1749 L836.806 1749 Q804.806 1749 781.011 1722 Q756.357 1696 750.736 1656 Q745.676 1620 763.882 1593 Q782.227 1567 813.227 1567 Z M855.719 1848 Q956.719 1848 1005.85 1792 Q1051.54 1740 1040.02 1658 Q1028.63 1577 965.325 1525 Q899.314 1468 801.314 1468 Q701.314 1468 647.325 1525 Q598.492 1576 609.736 1656 Q621.119 1737 683.709 1791 Q750.719 1848 854.719 1848 L855.719 1848 Z " />
<glyph glyph-name="AE" unicode="&#xc6;" horiz-adv-x="1656" d="M874.227 1197 Q823.627 1086 779.119 997 L621.114 691 Q617.27 685 616.427 679 Q615.162 670 621.038 662 Q626.492 651 637.492 651 L834.492 651 Q843.492 651 851.616 659 Q860.881 668 862.427 679 L863.27 685 L870.26 998 L870.633 1022 L871.287 1048 L871.454 1099 Q872.606 1157 874.227 1197 Z M1581.38 266 Q1625.38 266 1650.31 237 Q1675.23 208 1669.75 169 L1659.63 97 Q1654.15 58 1621.08 29 Q1588 0 1544 0 L944 0 Q905 0 878.795 27 Q855.168 51 855.087 86 L860.189 350 Q860 370 847.406 380 Q835.951 391 821.951 391 L498.951 391 Q469.951 391 454.735 361 L300.135 65 Q285.919 35 258.811 20 Q230 0 195 0 L89 0 Q33 0 9.32434 45 Q-4.16214 70 -0.367539 97 Q2.02166 114 11.5514 132 L689.822 1372 Q703.757 1400 731.865 1415 Q759.536 1434 793.536 1434 L1670.54 1434 Q1714.54 1434 1739.46 1405 Q1764.38 1376 1758.76 1336 L1748.78 1265 Q1743.3 1226 1711.37 1198 Q1676.15 1168 1633.15 1168 L1212.15 1168 Q1200.15 1168 1188.61 1157 Q1177.2 1147 1175.37 1134 Q1174.81 1130 1175.11 1125 L1167.92 896 Q1167.96 882 1177.41 871 Q1184.43 864 1196.43 864 L1582.43 864 Q1626.43 864 1653.07 833 Q1676.14 805 1670.79 767 L1660.96 697 Q1655.48 658 1622.4 629 Q1589.32 600 1545.32 600 L1208.32 600 Q1195.32 600 1184.78 589 Q1173.09 577 1170.98 562 L1170.14 556 L1166.88 298 Q1166.77 283 1177.37 273 Q1183.38 266 1194.38 266 L1581.38 266 Z " />
<glyph glyph-name="Ccedilla" unicode="&#xc7;" horiz-adv-x="1060" d="M463.2 37 Q320.524 82 229.092 207 Q84.2163 400 128.768 717 Q178.519 1071 413.752 1279 Q638.719 1478 948.719 1478 Q1079.72 1478 1183.5 1448 Q1218.68 1435 1232.9 1401 Q1241.67 1378 1238.15 1353 Q1236.61 1342 1232.92 1330 L1206.94 1259 Q1191.6 1221 1157.79 1201 Q1131.54 1185 1104.54 1185 Q1093.54 1185 1080.96 1188 Q1008.05 1210 924.054 1210 Q744.054 1210 618.892 1095 Q482.044 968 449.438 736 Q418.8 518 510.092 392 Q603.665 268 793.665 268 Q868.665 268 951.195 286 Q962.616 289 974.616 289 Q1003.62 289 1024.23 272 Q1052.99 249 1053.23 208 L1056.24 144 Q1055.97 135 1054.71 126 Q1051.05 100 1034.68 76 Q1009.9 42 972.497 32 Q854 0 712 0 Q648 0 618.562 4 L610 0 L602.454 -11 Q661.189 -20 697.286 -62 Q736.243 -105 727.67 -166 Q714.178 -262 631.573 -309 Q558.67 -351 449.67 -351 Q392.67 -351 343.919 -335 Q318.184 -326 310.697 -301 Q305.384 -289 307.492 -274 Q308.757 -265 314.443 -253 Q325.395 -232 350.081 -220 Q367.346 -211 386.346 -211 Q397.346 -211 405.924 -214 Q434.519 -224 456.519 -224 Q483.519 -224 501.065 -213 Q527.313 -197 531.389 -168 Q540.384 -104 384.351 -90 L463.2 37 Z " />
<glyph glyph-name="Egrave" unicode="&#xc8;" horiz-adv-x="949" d="M911.573 246 Q952.573 246 975.216 215 Q997.141 186 991.66 147 L982.103 79 Q976.481 39 946.405 10 Q915.189 -20 874.189 -20 L225.189 -20 Q185.189 -20 161.546 11 Q139.341 38 145.103 79 L318.811 1315 Q324.292 1354 354.509 1384 Q387.725 1414 426.725 1414 L1048.72 1414 Q1089.72 1414 1112.37 1383 Q1134.29 1354 1128.81 1315 L1119.11 1246 Q1113.63 1207 1083.42 1177 Q1051.34 1148 1011.34 1148 L641.341 1148 Q625.341 1148 611.514 1135 Q595.406 1120 592.033 1096 L564.768 902 Q561.395 878 573.287 863 Q583.46 850 599.46 850 L941.46 850 Q980.46 850 1005.24 820 Q1026.17 791 1020.55 751 L1011.27 685 Q1005.65 645 976.573 616 Q943.357 586 904.357 586 L562.357 586 Q546.357 586 532.53 573 Q516.422 558 513.049 534 L479.881 298 Q476.508 274 488.4 259 Q498.573 246 514.573 246 L911.573 246 Z M875.86 1664 Q885.628 1641 882.255 1617 Q879.022 1594 862.79 1571 Q827.622 1520 769.622 1520 L763.622 1520 Q714.622 1520 690.963 1558 L611.952 1686 Q593.746 1713 598.103 1744 Q601.055 1765 615.006 1786 Q649.017 1843 712.017 1843 L746.017 1843 Q805.017 1843 824.99 1793 L875.86 1664 Z " />
<glyph glyph-name="Eacute" unicode="&#xc9;" horiz-adv-x="949" d="M911.573 246 Q952.573 246 975.216 215 Q997.141 186 991.66 147 L982.103 79 Q976.481 39 946.405 10 Q915.189 -20 874.189 -20 L225.189 -20 Q185.189 -20 161.546 11 Q139.341 38 145.103 79 L318.811 1315 Q324.292 1354 354.509 1384 Q387.725 1414 426.725 1414 L1048.72 1414 Q1089.72 1414 1112.37 1383 Q1134.29 1354 1128.81 1315 L1119.11 1246 Q1113.63 1207 1083.42 1177 Q1051.34 1148 1011.34 1148 L641.341 1148 Q625.341 1148 611.514 1135 Q595.406 1120 592.033 1096 L564.768 902 Q561.395 878 573.287 863 Q583.46 850 599.46 850 L941.46 850 Q980.46 850 1005.24 820 Q1026.17 791 1020.55 751 L1011.27 685 Q1005.65 645 976.573 616 Q943.357 586 904.357 586 L562.357 586 Q546.357 586 532.53 573 Q516.422 558 513.049 534 L479.881 298 Q476.508 274 488.4 259 Q498.573 246 514.573 246 L911.573 246 Z M784.99 1793 Q819.017 1843 878.017 1843 L912.017 1843 Q975.017 1843 993.006 1786 Q1001.05 1765 998.103 1744 Q993.746 1713 967.952 1686 L852.963 1558 Q818.622 1520 769.622 1520 L763.622 1520 Q705.622 1520 684.79 1571 Q675.022 1594 678.255 1617 Q681.628 1641 697.86 1664 L784.99 1793 Z " />
<glyph glyph-name="Ecircumflex" unicode="&#xca;" horiz-adv-x="949" d="M911.573 246 Q952.573 246 975.216 215 Q997.141 186 991.66 147 L982.103 79 Q976.481 39 946.405 10 Q915.189 -20 874.189 -20 L225.189 -20 Q185.189 -20 161.546 11 Q139.341 38 145.103 79 L318.811 1315 Q324.292 1354 354.509 1384 Q387.725 1414 426.725 1414 L1048.72 1414 Q1089.72 1414 1112.37 1383 Q1134.29 1354 1128.81 1315 L1119.11 1246 Q1113.63 1207 1083.42 1177 Q1051.34 1148 1011.34 1148 L641.341 1148 Q625.341 1148 611.514 1135 Q595.406 1120 592.033 1096 L564.768 902 Q561.395 878 573.287 863 Q583.46 850 599.46 850 L941.46 850 Q980.46 850 1005.24 820 Q1026.17 791 1020.55 751 L1011.27 685 Q1005.65 645 976.573 616 Q943.357 586 904.357 586 L562.357 586 Q546.357 586 532.53 573 Q516.422 558 513.049 534 L479.881 298 Q476.508 274 488.4 259 Q498.573 246 514.573 246 L911.573 246 Z M1009.54 1619 Q1018.29 1603 1015.9 1586 Q1013.93 1572 1003.96 1558 Q979.184 1524 938.184 1524 L888.184 1524 Q845.184 1524 833.103 1559 L774.184 1709 L773.184 1709 L670.963 1558 Q646.184 1524 605.184 1524 L555.184 1524 Q514.184 1524 499.103 1559 Q493.071 1573 495.038 1587 Q497.287 1603 510.536 1619 L661.222 1816 Q685.579 1847 724.579 1847 L860.579 1847 Q899.579 1847 915.082 1815 L1009.54 1619 Z " />
<glyph glyph-name="Edieresis" unicode="&#xcb;" horiz-adv-x="949" d="M911.573 246 Q952.573 246 975.216 215 Q997.141 186 991.66 147 L982.103 79 Q976.481 39 946.405 10 Q915.189 -20 874.189 -20 L225.189 -20 Q185.189 -20 161.546 11 Q139.341 38 145.103 79 L318.811 1315 Q324.292 1354 354.509 1384 Q387.725 1414 426.725 1414 L1048.72 1414 Q1089.72 1414 1112.37 1383 Q1134.29 1354 1128.81 1315 L1119.11 1246 Q1113.63 1207 1083.42 1177 Q1051.34 1148 1011.34 1148 L641.341 1148 Q625.341 1148 611.514 1135 Q595.406 1120 592.033 1096 L564.768 902 Q561.395 878 573.287 863 Q583.46 850 599.46 850 L941.46 850 Q980.46 850 1005.24 820 Q1026.17 791 1020.55 751 L1011.27 685 Q1005.65 645 976.573 616 Q943.357 586 904.357 586 L562.357 586 Q546.357 586 532.53 573 Q516.422 558 513.049 534 L479.881 298 Q476.508 274 488.4 259 Q498.573 246 514.573 246 L911.573 246 Z M983.119 1552 Q921.119 1552 886.303 1596 Q850.768 1642 859.341 1703 Q868.055 1765 913.098 1808 Q963.282 1852 1029.28 1852 Q1091.28 1852 1127.1 1808 Q1161.2 1766 1152.34 1703 Q1143.77 1642 1098.44 1597 Q1049.12 1552 987.119 1552 L983.119 1552 Z M559.119 1552 Q495.119 1552 459.303 1596 Q422.628 1641 431.341 1703 Q440.055 1765 488.098 1808 Q538.282 1852 603.282 1852 Q664.282 1852 700.098 1808 Q733.914 1764 725.341 1703 Q716.768 1642 670.444 1597 Q622.119 1552 561.119 1552 L559.119 1552 Z " />
<glyph glyph-name="Igrave" unicode="&#xcc;" horiz-adv-x="547" d="M599.725 1414 Q642.725 1414 666.368 1383 Q689.433 1355 683.952 1316 L509.962 78 Q504.341 38 473.546 11 Q441.189 -20 398.189 -20 L289.189 -20 Q246.189 -20 220.546 11 Q198.341 38 203.962 78 L377.952 1316 Q383.433 1355 414.368 1383 Q446.725 1414 490.725 1414 L599.725 1414 Z M668.86 1664 Q678.628 1641 675.255 1617 Q672.022 1594 655.79 1571 Q620.622 1520 562.622 1520 L556.622 1520 Q507.622 1520 483.963 1558 L404.952 1686 Q386.746 1713 391.103 1744 Q394.055 1765 408.006 1786 Q442.017 1843 505.017 1843 L539.017 1843 Q598.017 1843 617.99 1793 L668.86 1664 Z " />
<glyph glyph-name="Iacute" unicode="&#xcd;" horiz-adv-x="463" d="M540.725 1414 Q583.725 1414 607.368 1383 Q630.433 1355 624.952 1316 L450.962 78 Q445.341 38 414.546 11 Q382.189 -20 339.189 -20 L230.189 -20 Q187.189 -20 161.546 11 Q139.341 38 144.962 78 L318.952 1316 Q324.433 1355 355.368 1383 Q387.725 1414 431.725 1414 L540.725 1414 Z M518.99 1793 Q553.017 1843 612.017 1843 L646.017 1843 Q709.017 1843 727.006 1786 Q735.055 1765 732.103 1744 Q727.746 1713 701.952 1686 L586.963 1558 Q552.622 1520 503.622 1520 L497.622 1520 Q439.622 1520 418.79 1571 Q409.022 1594 412.255 1617 Q415.628 1641 431.86 1664 L518.99 1793 Z " />
<glyph glyph-name="Icircumflex" unicode="&#xce;" horiz-adv-x="475" d="M536.725 1414 Q579.725 1414 603.368 1383 Q626.433 1355 620.952 1316 L446.962 78 Q441.341 38 410.546 11 Q378.189 -20 335.189 -20 L226.189 -20 Q183.189 -20 157.546 11 Q135.341 38 140.962 78 L314.952 1316 Q320.433 1355 351.368 1383 Q383.725 1414 427.725 1414 L536.725 1414 Z M800.536 1619 Q809.287 1603 806.898 1586 Q804.93 1572 794.963 1558 Q770.184 1524 729.184 1524 L679.184 1524 Q636.184 1524 624.103 1559 L565.184 1709 L564.184 1709 L461.963 1558 Q437.184 1524 396.184 1524 L346.184 1524 Q305.184 1524 290.103 1559 Q284.071 1573 286.038 1587 Q288.287 1603 301.536 1619 L452.222 1816 Q476.579 1847 515.579 1847 L651.579 1847 Q690.579 1847 706.082 1815 L800.536 1619 Z " />
<glyph glyph-name="Idieresis" unicode="&#xcf;" horiz-adv-x="521" d="M557.725 1414 Q600.725 1414 624.368 1383 Q647.433 1355 641.952 1316 L467.962 78 Q462.341 38 431.546 11 Q399.189 -20 356.189 -20 L247.189 -20 Q204.189 -20 178.546 11 Q156.341 38 161.962 78 L335.952 1316 Q341.433 1355 372.368 1383 Q404.725 1414 448.725 1414 L557.725 1414 Z M735.119 1552 Q673.119 1552 638.303 1596 Q602.768 1642 611.341 1703 Q620.055 1765 665.098 1808 Q715.282 1852 781.282 1852 Q843.282 1852 879.098 1808 Q913.195 1766 904.341 1703 Q895.768 1642 850.444 1597 Q801.119 1552 739.119 1552 L735.119 1552 Z M311.119 1552 Q247.119 1552 211.303 1596 Q174.628 1641 183.341 1703 Q192.055 1765 240.098 1808 Q290.282 1852 355.282 1852 Q416.282 1852 452.098 1808 Q485.914 1764 477.341 1703 Q468.768 1642 422.444 1597 Q374.119 1552 313.119 1552 L311.119 1552 Z " />
<glyph glyph-name="Eth" unicode="&#xd0;" horiz-adv-x="1229" d="M483.146 677 L430.724 304 Q427.773 283 436.805 269 Q445.838 255 458.697 254 Q469.557 253 484.557 253 L517.557 253 Q697.557 253 813.422 373 Q927.584 488 964.146 677 L483.146 677 Z M982.043 783 Q1008.45 978 926.033 1096 Q846.054 1210 674.054 1210 Q627.054 1210 589.352 1205 Q577.211 1204 566.384 1191 Q553.276 1176 550.465 1156 L498.043 783 L982.043 783 Z M1150.27 1304 Q1323.97 1124 1273.65 766 Q1220.39 387 997.281 187 Q784 0 418 0 Q292 0 187.546 11 Q155.249 16 137.324 45 Q119.119 72 124.459 110 L297.746 1343 Q302.806 1379 326.741 1407 Q351.817 1436 388.519 1441 Q522.049 1459 681.049 1459 Q850.049 1459 962.849 1422 Q1073.51 1384 1150.27 1304 Z " />
<glyph glyph-name="Ntilde" unicode="&#xd1;" horiz-adv-x="1304" d="M555.757 1030 Q528.125 748 480.903 412 L433.962 78 Q428.341 38 397.546 11 Q365.189 -20 323.189 -20 L228.189 -20 Q186.189 -20 162.546 11 Q139.341 38 144.962 78 L318.952 1316 Q324.433 1355 355.368 1383 Q387.725 1414 429.725 1414 L638.725 1414 Q696.725 1414 717.557 1363 L902.66 887 Q993.335 657 1049.76 411 Q1059.77 653 1107.7 994 L1152.95 1316 Q1158.29 1354 1190.51 1384 Q1220.72 1414 1262.72 1414 L1358.72 1414 Q1400.72 1414 1422.51 1384 Q1446.29 1354 1440.95 1316 L1266.96 78 Q1261.34 38 1231.55 11 Q1199.19 -20 1157.19 -20 L984.189 -20 Q926.189 -20 905.357 31 L715.189 535 Q613.152 798 555.757 1030 Z M689.806 1564 Q659.806 1564 641.898 1586 Q627.568 1605 630.8 1628 L631.363 1632 Q653.276 1731 706.287 1788 Q760.017 1843 831.017 1843 Q867.017 1843 902.909 1828 Q915.206 1823 932.082 1815 L959.833 1799 L971.849 1792 L982.865 1785 Q995.601 1776 1003.04 1772 Q1022.35 1760 1036.35 1760 Q1066.35 1760 1082.4 1803 Q1091.49 1825 1110.31 1838 Q1131.42 1853 1156.42 1853 L1180.42 1853 Q1211.42 1853 1229.47 1832 Q1242.8 1813 1239.71 1791 L1239.15 1787 Q1196.2 1581 1039.2 1581 Q1000.2 1581 963.444 1597 Q950.006 1601 932.411 1611 L900.66 1627 Q849.298 1660 833.298 1660 Q808.298 1660 790.692 1613 Q781.741 1592 762.914 1579 Q741.806 1564 716.806 1564 L689.806 1564 Z " />
<glyph glyph-name="Ograve" unicode="&#xd2;" horiz-adv-x="1282" d="M708.449 238 Q847.449 238 948.562 374 Q1049.39 508 1079.89 725 Q1108.56 929 1046.25 1062 Q982.071 1203 842.071 1203 Q703.071 1203 599.676 1065 Q500.125 933 469.627 716 Q439.411 501 503.86 369 Q569.449 238 708.449 238 Z M886.33 1461 Q1174.33 1461 1312.83 1244 Q1440.58 1043 1397.3 735 Q1348.39 387 1146.86 184 Q945.189 -20 657.189 -20 Q376.189 -20 239.124 193 Q108.514 395 152.643 709 Q198.46 1035 397.833 1244 Q603.33 1461 886.33 1461 Z M996.86 1664 Q1006.63 1641 1003.25 1617 Q1000.02 1594 983.79 1571 Q948.622 1520 890.622 1520 L884.622 1520 Q835.622 1520 811.963 1558 L732.952 1686 Q714.746 1713 719.103 1744 Q722.055 1765 736.006 1786 Q770.017 1843 833.017 1843 L867.017 1843 Q926.017 1843 945.99 1793 L996.86 1664 Z " />
<glyph glyph-name="Oacute" unicode="&#xd3;" horiz-adv-x="1282" d="M708.449 238 Q847.449 238 948.562 374 Q1049.39 508 1079.89 725 Q1108.56 929 1046.25 1062 Q982.071 1203 842.071 1203 Q703.071 1203 599.676 1065 Q500.125 933 469.627 716 Q439.411 501 503.86 369 Q569.449 238 708.449 238 Z M886.33 1461 Q1174.33 1461 1312.83 1244 Q1440.58 1043 1397.3 735 Q1348.39 387 1146.86 184 Q945.189 -20 657.189 -20 Q376.189 -20 239.124 193 Q108.514 395 152.643 709 Q198.46 1035 397.833 1244 Q603.33 1461 886.33 1461 Z M905.99 1793 Q940.017 1843 999.017 1843 L1033.02 1843 Q1096.02 1843 1114.01 1786 Q1122.05 1765 1119.1 1744 Q1114.75 1713 1088.95 1686 L973.963 1558 Q939.622 1520 890.622 1520 L884.622 1520 Q826.622 1520 805.79 1571 Q796.022 1594 799.255 1617 Q802.628 1641 818.86 1664 L905.99 1793 Z " />
<glyph glyph-name="Ocircumflex" unicode="&#xd4;" horiz-adv-x="1282" d="M708.449 238 Q847.449 238 948.562 374 Q1049.39 508 1079.89 725 Q1108.56 929 1046.25 1062 Q982.071 1203 842.071 1203 Q703.071 1203 599.676 1065 Q500.125 933 469.627 716 Q439.411 501 503.86 369 Q569.449 238 708.449 238 Z M886.33 1461 Q1174.33 1461 1312.83 1244 Q1440.58 1043 1397.3 735 Q1348.39 387 1146.86 184 Q945.189 -20 657.189 -20 Q376.189 -20 239.124 193 Q108.514 395 152.643 709 Q198.46 1035 397.833 1244 Q603.33 1461 886.33 1461 Z M1190.54 1619 Q1199.29 1603 1196.9 1586 Q1194.93 1572 1184.96 1558 Q1160.18 1524 1119.18 1524 L1069.18 1524 Q1026.18 1524 1014.1 1559 L955.184 1709 L954.184 1709 L851.963 1558 Q827.184 1524 786.184 1524 L736.184 1524 Q695.184 1524 680.103 1559 Q674.071 1573 676.038 1587 Q678.287 1603 691.536 1619 L842.222 1816 Q866.579 1847 905.579 1847 L1041.58 1847 Q1080.58 1847 1096.08 1815 L1190.54 1619 Z " />
<glyph glyph-name="Otilde" unicode="&#xd5;" horiz-adv-x="1282" d="M708.449 238 Q847.449 238 948.562 374 Q1049.39 508 1079.89 725 Q1108.56 929 1046.25 1062 Q982.071 1203 842.071 1203 Q703.071 1203 599.676 1065 Q500.125 933 469.627 716 Q439.411 501 503.86 369 Q569.449 238 708.449 238 Z M886.33 1461 Q1174.33 1461 1312.83 1244 Q1440.58 1043 1397.3 735 Q1348.39 387 1146.86 184 Q945.189 -20 657.189 -20 Q376.189 -20 239.124 193 Q108.514 395 152.643 709 Q198.46 1035 397.833 1244 Q603.33 1461 886.33 1461 Z M668.806 1564 Q638.806 1564 620.898 1586 Q606.568 1605 609.8 1628 L610.363 1632 Q632.276 1731 685.287 1788 Q739.017 1843 810.017 1843 Q846.017 1843 881.909 1828 Q894.206 1823 911.082 1815 L938.833 1799 L950.849 1792 L961.865 1785 Q974.601 1776 982.038 1772 Q1001.35 1760 1015.35 1760 Q1045.35 1760 1061.4 1803 Q1070.49 1825 1089.31 1838 Q1110.42 1853 1135.42 1853 L1159.42 1853 Q1190.42 1853 1208.47 1832 Q1221.8 1813 1218.71 1791 L1218.15 1787 Q1175.2 1581 1018.2 1581 Q979.195 1581 942.444 1597 Q929.006 1601 911.411 1611 L879.66 1627 Q828.298 1660 812.298 1660 Q787.298 1660 769.692 1613 Q760.741 1592 741.914 1579 Q720.806 1564 695.806 1564 L668.806 1564 Z " />
<glyph glyph-name="Odieresis" unicode="&#xd6;" horiz-adv-x="1282" d="M708.449 238 Q847.449 238 948.562 374 Q1049.39 508 1079.89 725 Q1108.56 929 1046.25 1062 Q982.071 1203 842.071 1203 Q703.071 1203 599.676 1065 Q500.125 933 469.627 716 Q439.411 501 503.86 369 Q569.449 238 708.449 238 Z M886.33 1461 Q1174.33 1461 1312.83 1244 Q1440.58 1043 1397.3 735 Q1348.39 387 1146.86 184 Q945.189 -20 657.189 -20 Q376.189 -20 239.124 193 Q108.514 395 152.643 709 Q198.46 1035 397.833 1244 Q603.33 1461 886.33 1461 Z M1104.12 1552 Q1042.12 1552 1007.3 1596 Q971.768 1642 980.341 1703 Q989.055 1765 1034.1 1808 Q1084.28 1852 1150.28 1852 Q1212.28 1852 1248.1 1808 Q1282.2 1766 1273.34 1703 Q1264.77 1642 1219.44 1597 Q1170.12 1552 1108.12 1552 L1104.12 1552 Z M680.119 1552 Q616.119 1552 580.303 1596 Q543.628 1641 552.341 1703 Q561.055 1765 609.098 1808 Q659.282 1852 724.282 1852 Q785.282 1852 821.098 1808 Q854.914 1764 846.341 1703 Q837.768 1642 791.444 1597 Q743.119 1552 682.119 1552 L680.119 1552 Z " />
<glyph glyph-name="multiply" unicode="&#xd7;" horiz-adv-x="985" d="M981.768 162 Q1003.97 135 998.773 98 Q993.714 62 964.778 34 L962.497 32 Q927 0 882 0 Q837 0 810.638 33 L544.719 368 L183.638 33 Q148 0 103 0 Q58 0 31.4973 32 L29.7784 34 Q8.71353 62 13.773 98 Q18.973 135 48.7676 162 L427.379 515 L148.271 870 Q126.065 897 131.265 934 Q136.465 971 166.26 998 Q200.757 1030 246.757 1030 Q290.757 1030 317.119 997 L585.616 659 L949.119 997 Q982.757 1030 1028.76 1030 Q1073.76 1030 1099.26 998 Q1121.47 971 1116.27 934 Q1111.07 897 1081.27 870 L703.379 515 L981.768 162 Z " />
<glyph glyph-name="Oslash" unicode="&#xd8;" horiz-adv-x="1332" d="M680.26 258 L686.26 258 Q825.26 258 926.373 394 Q1027.21 528 1057.7 745 Q1085.95 946 1026.5 1078 L680.26 258 Z M502.768 347 L871.319 1219 Q857.881 1223 819.881 1223 Q680.881 1223 577.487 1085 Q477.935 953 447.438 736 Q417.222 521 481.67 389 L502.768 347 Z M382.87 56 Q287.476 103 216.935 213 Q86.3244 415 130.454 729 Q176.271 1055 375.644 1264 Q581.141 1481 864.141 1481 Q940.141 1481 987.595 1470 L1000.72 1478 Q1029.67 1499 1064.67 1499 L1073.67 1499 Q1124.67 1499 1148.91 1458 Q1163.25 1432 1159.04 1402 L1159.76 1400 Q1232.43 1355 1290.64 1264 Q1418.39 1063 1375.11 755 Q1326.2 407 1124.67 204 Q923 0 635 0 Q590 0 570.422 3 Q566.297 -5 544.049 -21 Q512.957 -43 478.957 -43 L468.957 -43 Q417.957 -43 393.719 -2 Q379.373 24 383.589 54 L382.87 56 Z " />
<glyph glyph-name="Ugrave" unicode="&#xd9;" horiz-adv-x="1243" d="M1312.96 1437 Q1354.96 1437 1380.6 1406 Q1402.81 1379 1397.18 1339 L1297.96 633 Q1252.43 309 1082.96 142 Q918.189 -20 650.189 -20 Q115.189 -20 207.525 637 L306.184 1339 Q311.806 1379 341.6 1406 Q375.957 1437 417.957 1437 L531.957 1437 Q574.957 1437 598.6 1406 Q621.806 1379 616.184 1339 L513.87 611 Q488.011 427 537.519 331 Q584.73 240 696.73 240 Q934.73 240 986.87 611 L1089.18 1339 Q1094.81 1379 1125.6 1406 Q1157.96 1437 1200.96 1437 L1312.96 1437 Z M986.86 1664 Q996.628 1641 993.255 1617 Q990.022 1594 973.79 1571 Q938.622 1520 880.622 1520 L874.622 1520 Q825.622 1520 801.963 1558 L722.952 1686 Q704.746 1713 709.103 1744 Q712.055 1765 726.006 1786 Q760.017 1843 823.017 1843 L857.017 1843 Q916.017 1843 935.99 1793 L986.86 1664 Z " />
<glyph glyph-name="Uacute" unicode="&#xda;" horiz-adv-x="1243" d="M1312.96 1437 Q1354.96 1437 1380.6 1406 Q1402.81 1379 1397.18 1339 L1297.96 633 Q1252.43 309 1082.96 142 Q918.189 -20 650.189 -20 Q115.189 -20 207.525 637 L306.184 1339 Q311.806 1379 341.6 1406 Q375.957 1437 417.957 1437 L531.957 1437 Q574.957 1437 598.6 1406 Q621.806 1379 616.184 1339 L513.87 611 Q488.011 427 537.519 331 Q584.73 240 696.73 240 Q934.73 240 986.87 611 L1089.18 1339 Q1094.81 1379 1125.6 1406 Q1157.96 1437 1200.96 1437 L1312.96 1437 Z M895.99 1793 Q930.017 1843 989.017 1843 L1023.02 1843 Q1086.02 1843 1104.01 1786 Q1112.05 1765 1109.1 1744 Q1104.75 1713 1078.95 1686 L963.963 1558 Q929.622 1520 880.622 1520 L874.622 1520 Q816.622 1520 795.79 1571 Q786.022 1594 789.255 1617 Q792.628 1641 808.86 1664 L895.99 1793 Z " />
<glyph glyph-name="Ucircumflex" unicode="&#xdb;" horiz-adv-x="1243" d="M1312.96 1437 Q1354.96 1437 1380.6 1406 Q1402.81 1379 1397.18 1339 L1297.96 633 Q1252.43 309 1082.96 142 Q918.189 -20 650.189 -20 Q115.189 -20 207.525 637 L306.184 1339 Q311.806 1379 341.6 1406 Q375.957 1437 417.957 1437 L531.957 1437 Q574.957 1437 598.6 1406 Q621.806 1379 616.184 1339 L513.87 611 Q488.011 427 537.519 331 Q584.73 240 696.73 240 Q934.73 240 986.87 611 L1089.18 1339 Q1094.81 1379 1125.6 1406 Q1157.96 1437 1200.96 1437 L1312.96 1437 Z M1180.54 1619 Q1189.29 1603 1186.9 1586 Q1184.93 1572 1174.96 1558 Q1150.18 1524 1109.18 1524 L1059.18 1524 Q1016.18 1524 1004.1 1559 L945.184 1709 L944.184 1709 L841.963 1558 Q817.184 1524 776.184 1524 L726.184 1524 Q685.184 1524 670.103 1559 Q664.071 1573 666.038 1587 Q668.287 1603 681.536 1619 L832.222 1816 Q856.579 1847 895.579 1847 L1031.58 1847 Q1070.58 1847 1086.08 1815 L1180.54 1619 Z " />
<glyph glyph-name="Udieresis" unicode="&#xdc;" horiz-adv-x="1243" d="M1312.96 1437 Q1354.96 1437 1380.6 1406 Q1402.81 1379 1397.18 1339 L1297.96 633 Q1252.43 309 1082.96 142 Q918.189 -20 650.189 -20 Q115.189 -20 207.525 637 L306.184 1339 Q311.806 1379 341.6 1406 Q375.957 1437 417.957 1437 L531.957 1437 Q574.957 1437 598.6 1406 Q621.806 1379 616.184 1339 L513.87 611 Q488.011 427 537.519 331 Q584.73 240 696.73 240 Q934.73 240 986.87 611 L1089.18 1339 Q1094.81 1379 1125.6 1406 Q1157.96 1437 1200.96 1437 L1312.96 1437 Z M1094.12 1552 Q1032.12 1552 997.303 1596 Q961.768 1642 970.341 1703 Q979.055 1765 1024.1 1808 Q1074.28 1852 1140.28 1852 Q1202.28 1852 1238.1 1808 Q1272.2 1766 1263.34 1703 Q1254.77 1642 1209.44 1597 Q1160.12 1552 1098.12 1552 L1094.12 1552 Z M670.119 1552 Q606.119 1552 570.303 1596 Q533.628 1641 542.341 1703 Q551.055 1765 599.098 1808 Q649.282 1852 714.282 1852 Q775.282 1852 811.098 1808 Q844.914 1764 836.341 1703 Q827.768 1642 781.444 1597 Q733.119 1552 672.119 1552 L670.119 1552 Z " />
<glyph glyph-name="Yacute" unicode="&#xdd;" horiz-adv-x="922" d="M1172.72 1414 Q1230.72 1414 1252.56 1363 Q1262.32 1340 1258.95 1316 Q1255.72 1293 1239.35 1269 L797.606 602 Q783.373 579 779.719 553 L713.103 79 Q707.481 39 675.546 11 Q643.189 -20 600.189 -20 L490.189 -20 Q446.189 -20 422.546 11 Q399.481 39 405.103 79 L470.314 543 Q473.827 568 466.919 590 L225.627 1271 Q217.86 1294 220.811 1315 Q224.325 1340 240.698 1364 Q276.725 1414 334.725 1414 L457.725 1414 Q489.725 1414 513.195 1396 Q533.665 1378 542.871 1351 L613.098 1068 Q639.919 960 672.838 810 Q673.416 807 676.276 806 L678.838 810 Q721.768 902 809.098 1068 L957.73 1350 Q971.665 1378 1000.2 1396 Q1027.72 1414 1058.72 1414 L1172.72 1414 Z M786.99 1793 Q821.017 1843 880.017 1843 L914.017 1843 Q977.017 1843 995.006 1786 Q1003.05 1765 1000.1 1744 Q995.746 1713 969.952 1686 L854.963 1558 Q820.622 1520 771.622 1520 L765.622 1520 Q707.622 1520 686.79 1571 Q677.022 1594 680.255 1617 Q683.628 1641 699.86 1664 L786.99 1793 Z " />
<glyph glyph-name="Thorn" unicode="&#xde;" horiz-adv-x="1119" d="M835.438 551 Q853.006 676 815.108 755 Q776.492 836 694.492 836 Q644.492 836 599.135 805 Q551.779 774 520.908 718 Q510.098 698 502.006 676 Q493.352 650 490.4 629 L466.227 457 Q460.465 416 471.86 369 Q486.849 312 525.492 281 Q562.276 251 612.276 251 Q694.276 251 755.519 331 Q815.622 410 833.33 536 L835.438 551 Z M535.373 949 Q644.049 1089 825.049 1089 L833.049 1089 Q904.049 1089 965.271 1055 Q1029.07 1018 1071.65 951 Q1166.43 800 1132 555 L1128.63 531 Q1094.19 286 957.114 136 Q895.557 68 821.497 32 Q750.719 -2 679.719 -2 L671.719 -2 Q490.719 -2 421.254 137 L391.741 -73 Q384.713 -123 342.795 -158 Q301.454 -196 246.454 -196 L209.454 -196 Q154.454 -196 123.513 -160 Q91.7135 -123 98.7405 -73 L271.887 1159 Q278.914 1209 321.114 1246 Q362.173 1282 417.173 1282 L454.173 1282 Q509.173 1282 539.833 1244 Q571.914 1209 564.887 1159 L535.373 949 Z " />
<glyph glyph-name="germandbls" unicode="&#xdf;" horiz-adv-x="1170" d="M204.232 23 Q160.232 23 134.589 54 Q110.524 82 115.865 120 L231.108 940 Q277.627 1271 454.849 1422 Q608.822 1557 843.822 1557 Q1034.82 1557 1143.5 1448 Q1254.32 1340 1229.45 1163 Q1226.64 1143 1220.55 1121 Q1195.77 1023 1106.2 962 Q1028.75 909 1019.05 840 Q1009.92 775 1072.1 698 L1081.99 683 L1093.88 668 Q1105.21 649 1114.38 636 Q1140.18 599 1156.12 563 Q1197.19 471 1182.44 366 Q1159.39 202 1038.62 104 Q913 0 718 0 Q655 0 596.265 9 Q553.249 16 533.168 51 Q520.541 75 524.335 102 Q525.6 111 527.865 120 L541.049 164 Q552.53 203 586.762 226 Q617.714 247 652.714 247 Q660.714 247 667.573 246 Q689.011 242 713.011 242 Q773.011 242 813.368 273 Q852.443 302 859.33 351 Q864.811 390 851.87 426 Q840.946 455 807.27 500 L796.238 514 L786.206 528 Q772.454 544 762.422 558 Q737.481 594 722.979 626 Q680.784 710 693.433 800 Q714.092 947 854.022 1039 Q911.222 1076 920.076 1139 L920.217 1140 Q930.898 1216 894.363 1262 Q858.108 1310 791.108 1310 Q601.108 1310 553.044 968 L433.865 120 Q428.524 82 396.589 54 Q362.232 23 318.232 23 L204.232 23 Z " />
<glyph glyph-name="agrave" unicode="&#xe0;" horiz-adv-x="934" d="M681.26 443 Q684.492 466 672.741 482 Q661.427 494 644.427 494 L642.427 494 Q525.584 488 446.103 449 Q352.778 404 341.676 325 Q333.524 267 388.027 235 Q433.232 208 492.232 208 Q543.232 208 589.87 241 Q635.508 274 659.816 326 Q668.47 352 672.827 383 L681.26 443 Z M652.757 105 Q598.465 46 521.827 13 Q446.189 -20 368.189 -20 L359.189 -20 Q212.751 -16 138.384 81 Q68.173 172 86.0217 299 Q113.146 492 278.762 596 Q438.816 696 698.957 697 Q707.957 697 710.065 712 Q717.795 767 688.714 802 Q653.898 846 558.898 846 Q474.898 846 384.541 815 Q364.557 808 346.557 808 Q322.557 808 301.103 819 Q267.195 841 260.957 882 L259.784 895 Q258.611 908 260.579 922 Q263.53 943 276.481 964 Q297.541 1000 337.368 1013 Q480.957 1067 642.957 1067 Q871.957 1067 960.984 932 Q1036.24 820 1007.99 619 L935.195 101 Q928.573 61 898.638 33 Q864.422 3 821.281 2 L739 0 Q696 0 668.638 33 Q646.432 60 651.773 98 L652.757 105 Z M748.238 1254 Q758.006 1231 754.633 1207 Q751.4 1184 735.168 1161 Q700 1110 642 1110 L636 1110 Q587 1110 563.341 1148 L484.33 1276 Q466.125 1303 470.481 1334 Q473.433 1355 487.384 1376 Q521.395 1433 584.395 1433 L618.395 1433 Q677.395 1433 697.368 1383 L748.238 1254 Z " />
<glyph glyph-name="aacute" unicode="&#xe1;" horiz-adv-x="934" d="M681.26 443 Q684.492 466 672.741 482 Q661.427 494 644.427 494 L642.427 494 Q525.584 488 446.103 449 Q352.778 404 341.676 325 Q333.524 267 388.027 235 Q433.232 208 492.232 208 Q543.232 208 589.87 241 Q635.508 274 659.816 326 Q668.47 352 672.827 383 L681.26 443 Z M652.757 105 Q598.465 46 521.827 13 Q446.189 -20 368.189 -20 L359.189 -20 Q212.751 -16 138.384 81 Q68.173 172 86.0217 299 Q113.146 492 278.762 596 Q438.816 696 698.957 697 Q707.957 697 710.065 712 Q717.795 767 688.714 802 Q653.898 846 558.898 846 Q474.898 846 384.541 815 Q364.557 808 346.557 808 Q322.557 808 301.103 819 Q267.195 841 260.957 882 L259.784 895 Q258.611 908 260.579 922 Q263.53 943 276.481 964 Q297.541 1000 337.368 1013 Q480.957 1067 642.957 1067 Q871.957 1067 960.984 932 Q1036.24 820 1007.99 619 L935.195 101 Q928.573 61 898.638 33 Q864.422 3 821.281 2 L739 0 Q696 0 668.638 33 Q646.432 60 651.773 98 L652.757 105 Z M657.368 1383 Q691.395 1433 750.395 1433 L784.395 1433 Q847.395 1433 865.384 1376 Q873.433 1355 870.481 1334 Q866.125 1303 840.33 1276 L725.341 1148 Q691 1110 642 1110 L636 1110 Q578 1110 557.168 1161 Q547.4 1184 550.633 1207 Q554.006 1231 570.238 1254 L657.368 1383 Z " />
<glyph glyph-name="acircumflex" unicode="&#xe2;" horiz-adv-x="934" d="M681.26 443 Q684.492 466 672.741 482 Q661.427 494 644.427 494 L642.427 494 Q525.584 488 446.103 449 Q352.778 404 341.676 325 Q333.524 267 388.027 235 Q433.232 208 492.232 208 Q543.232 208 589.87 241 Q635.508 274 659.816 326 Q668.47 352 672.827 383 L681.26 443 Z M652.757 105 Q598.465 46 521.827 13 Q446.189 -20 368.189 -20 L359.189 -20 Q212.751 -16 138.384 81 Q68.173 172 86.0217 299 Q113.146 492 278.762 596 Q438.816 696 698.957 697 Q707.957 697 710.065 712 Q717.795 767 688.714 802 Q653.898 846 558.898 846 Q474.898 846 384.541 815 Q364.557 808 346.557 808 Q322.557 808 301.103 819 Q267.195 841 260.957 882 L259.784 895 Q258.611 908 260.579 922 Q263.53 943 276.481 964 Q297.541 1000 337.368 1013 Q480.957 1067 642.957 1067 Q871.957 1067 960.984 932 Q1036.24 820 1007.99 619 L935.195 101 Q928.573 61 898.638 33 Q864.422 3 821.281 2 L739 0 Q696 0 668.638 33 Q646.432 60 651.773 98 L652.757 105 Z M941.914 1209 Q950.665 1193 948.276 1176 Q946.308 1162 936.341 1148 Q911.562 1114 870.562 1114 L820.562 1114 Q777.562 1114 765.481 1149 L706.563 1299 L705.563 1299 L603.341 1148 Q578.562 1114 537.562 1114 L487.562 1114 Q446.562 1114 431.481 1149 Q425.449 1163 427.417 1177 Q429.665 1193 442.914 1209 L593.6 1406 Q617.957 1437 656.957 1437 L792.957 1437 Q831.957 1437 847.46 1405 L941.914 1209 Z " />
<glyph glyph-name="atilde" unicode="&#xe3;" horiz-adv-x="934" d="M681.26 443 Q684.492 466 672.741 482 Q661.427 494 644.427 494 L642.427 494 Q525.584 488 446.103 449 Q352.778 404 341.676 325 Q333.524 267 388.027 235 Q433.232 208 492.232 208 Q543.232 208 589.87 241 Q635.508 274 659.816 326 Q668.47 352 672.827 383 L681.26 443 Z M652.757 105 Q598.465 46 521.827 13 Q446.189 -20 368.189 -20 L359.189 -20 Q212.751 -16 138.384 81 Q68.173 172 86.0217 299 Q113.146 492 278.762 596 Q438.816 696 698.957 697 Q707.957 697 710.065 712 Q717.795 767 688.714 802 Q653.898 846 558.898 846 Q474.898 846 384.541 815 Q364.557 808 346.557 808 Q322.557 808 301.103 819 Q267.195 841 260.957 882 L259.784 895 Q258.611 908 260.579 922 Q263.53 943 276.481 964 Q297.541 1000 337.368 1013 Q480.957 1067 642.957 1067 Q871.957 1067 960.984 932 Q1036.24 820 1007.99 619 L935.195 101 Q928.573 61 898.638 33 Q864.422 3 821.281 2 L739 0 Q696 0 668.638 33 Q646.432 60 651.773 98 L652.757 105 Z M420.184 1154 Q390.184 1154 372.276 1176 Q357.946 1195 361.179 1218 L361.741 1222 Q383.654 1321 436.665 1378 Q490.395 1433 561.395 1433 Q597.395 1433 633.287 1418 Q645.584 1413 662.46 1405 L690.211 1389 L702.227 1382 L713.244 1375 Q725.979 1366 733.417 1362 Q752.73 1350 766.73 1350 Q796.73 1350 812.773 1393 Q821.865 1415 840.692 1428 Q861.8 1443 886.8 1443 L910.8 1443 Q941.8 1443 959.849 1422 Q973.179 1403 970.087 1381 L969.525 1377 Q926.573 1171 769.573 1171 Q730.573 1171 693.822 1187 Q680.384 1191 662.79 1201 L631.038 1217 Q579.676 1250 563.676 1250 Q538.676 1250 521.071 1203 Q512.119 1182 493.292 1169 Q472.184 1154 447.184 1154 L420.184 1154 Z " />
<glyph glyph-name="adieresis" unicode="&#xe4;" horiz-adv-x="942" d="M689.26 443 Q692.492 466 680.741 482 Q669.427 494 652.427 494 L650.427 494 Q533.584 488 454.103 449 Q360.778 404 349.676 325 Q341.524 267 396.027 235 Q441.232 208 500.232 208 Q551.232 208 597.87 241 Q643.508 274 667.816 326 Q676.47 352 680.827 383 L689.26 443 Z M660.757 105 Q606.465 46 529.827 13 Q454.189 -20 376.189 -20 L367.189 -20 Q220.751 -16 146.384 81 Q76.173 172 94.0217 299 Q121.146 492 286.762 596 Q446.816 696 706.957 697 Q715.957 697 718.065 712 Q725.795 767 696.714 802 Q661.898 846 566.898 846 Q482.898 846 392.541 815 Q372.557 808 354.557 808 Q330.557 808 309.103 819 Q275.195 841 268.957 882 L267.784 895 Q266.611 908 268.579 922 Q271.53 943 284.481 964 Q305.541 1000 345.368 1013 Q488.957 1067 650.957 1067 Q879.957 1067 968.984 932 Q1044.24 820 1015.99 619 L943.195 101 Q936.573 61 906.638 33 Q872.422 3 829.281 2 L747 0 Q704 0 676.638 33 Q654.432 60 659.773 98 L660.757 105 Z M863.498 1142 Q801.498 1142 766.681 1186 Q731.146 1232 739.719 1293 Q748.433 1355 793.476 1398 Q843.66 1442 909.66 1442 Q971.66 1442 1007.48 1398 Q1041.57 1356 1032.72 1293 Q1024.15 1232 978.822 1187 Q929.498 1142 867.498 1142 L863.498 1142 Z M439.498 1142 Q375.498 1142 339.681 1186 Q303.006 1231 311.719 1293 Q320.433 1355 368.476 1398 Q418.66 1442 483.66 1442 Q544.66 1442 580.476 1398 Q614.292 1354 605.719 1293 Q597.146 1232 550.822 1187 Q502.498 1142 441.498 1142 L439.498 1142 Z " />
<glyph glyph-name="aring" unicode="&#xe5;" horiz-adv-x="934" d="M681.26 443 Q684.492 466 672.741 482 Q661.427 494 644.427 494 L642.427 494 Q525.584 488 446.103 449 Q352.778 404 341.676 325 Q333.524 267 388.027 235 Q433.232 208 492.232 208 Q543.232 208 589.87 241 Q635.508 274 659.816 326 Q668.47 352 672.827 383 L681.26 443 Z M652.757 105 Q598.465 46 521.827 13 Q446.189 -20 368.189 -20 L359.189 -20 Q212.751 -16 138.384 81 Q68.173 172 86.0217 299 Q113.146 492 278.762 596 Q438.816 696 698.957 697 Q707.957 697 710.065 712 Q717.795 767 688.714 802 Q653.898 846 558.898 846 Q474.898 846 384.541 815 Q364.557 808 346.557 808 Q322.557 808 301.103 819 Q267.195 841 260.957 882 L259.784 895 Q258.611 908 260.579 922 Q263.53 943 276.481 964 Q297.541 1000 337.368 1013 Q480.957 1067 642.957 1067 Q871.957 1067 960.984 932 Q1036.24 820 1007.99 619 L935.195 101 Q928.573 61 898.638 33 Q864.422 3 821.281 2 L739 0 Q696 0 668.638 33 Q646.432 60 651.773 98 L652.757 105 Z M643.822 1187 Q676.822 1187 701.476 1213 Q726.99 1238 732.611 1278 Q737.952 1316 720.606 1342 Q703.4 1369 669.4 1369 L667.4 1369 Q635.4 1369 611.606 1342 Q586.952 1316 581.33 1276 Q576.271 1240 594.476 1213 Q612.822 1187 643.822 1187 Z M686.314 1468 Q787.314 1468 836.444 1412 Q882.136 1360 870.611 1278 Q859.227 1197 795.919 1145 Q729.908 1088 631.908 1088 Q531.908 1088 477.919 1145 Q429.087 1196 440.33 1276 Q451.714 1357 514.303 1411 Q581.314 1468 685.314 1468 L686.314 1468 Z " />
<glyph glyph-name="ae" unicode="&#xe6;" horiz-adv-x="1531" d="M991.389 757 Q993.206 713 988.319 664 Q992.616 659 1007.62 659 L1246.62 659 Q1266.62 659 1282.15 677 Q1296.25 692 1298.64 709 Q1299.49 715 1298.61 723 Q1295.47 786 1265.95 825 Q1230.27 870 1161.27 870 Q1099.27 870 1048.23 827 Q1013.15 798 991.389 757 Z M637.222 336 Q625.903 412 634.849 497 Q633.13 499 620.13 499 L618.13 499 Q501.287 493 421.806 454 Q328.481 409 317.378 330 Q309.227 272 363.73 240 Q408.935 213 467.935 213 Q518.935 213 565.573 246 Q611.211 279 635.519 331 L635.66 332 L637.222 336 Z M628.459 110 Q574.168 51 497.53 18 Q421.892 -15 343.892 -15 L334.892 -15 Q188.454 -11 114.087 86 Q43.8757 177 61.7244 304 Q88.8488 497 254.465 601 Q414.519 701 674.66 702 Q683.66 702 685.768 717 Q693.498 772 664.416 807 Q629.6 851 534.6 851 Q450.6 851 360.243 820 Q340.26 813 322.26 813 Q298.26 813 276.806 824 Q242.898 846 236.66 887 L235.487 900 Q234.314 913 236.281 927 Q239.233 948 252.184 969 Q273.244 1005 313.071 1018 Q456.66 1072 618.66 1072 Q819.66 1072 896.433 985 Q1018.49 1085 1209.49 1085 Q1430.49 1085 1524.44 921 Q1601.76 781 1571.55 566 Q1569.44 551 1565.77 532 Q1558.57 495 1526.49 466 Q1495.56 438 1454.56 438 L982.557 438 Q964.557 438 956.573 431 L943.362 337 Q965.46 295 1018.81 269 Q1078.73 240 1161.73 240 Q1253.73 240 1335.12 257 Q1346.54 260 1357.54 260 Q1389.54 260 1411.87 241 Q1442.64 218 1443.02 178 L1443.8 148 Q1444.39 138 1442.99 128 Q1439.34 102 1422.96 78 Q1397.46 46 1358.78 34 Q1231 0 1085 0 Q950 0 872.778 34 L872.059 36 Q840.124 8 796.984 7 L714.703 5 Q671.703 5 644.341 38 Q622.135 65 627.476 103 L628.459 110 Z " />
<glyph glyph-name="ccedilla" unicode="&#xe7;" horiz-adv-x="835" d="M335.2 37 Q254.276 66 188.378 145 Q70.4758 288 104.768 532 Q137.935 768 300.438 921 Q477.487 1085 739.487 1085 Q809.487 1085 877.379 1070 Q917.254 1062 934.335 1027 Q946.103 1004 942.308 977 Q940.762 966 937.357 956 L921.611 908 Q908.411 871 874.038 847 Q845.508 829 815.508 829 Q807.508 829 798.649 830 Q762.492 836 718.492 836 Q605.492 836 523.249 756 Q441.865 675 424.157 549 L423.595 545 Q403.919 405 471.676 325 Q531.557 253 642.557 253 Q685.557 253 723.4 259 Q732.541 260 740.541 260 Q772.541 260 795.87 241 Q824.357 216 824.735 176 L825.13 129 Q825.146 122 824.303 116 Q820.227 87 799.714 62 Q772.935 28 732.811 20 Q644 0 546 0 Q501 0 489.281 2 L480.578 -3 L473.032 -14 Q531.768 -23 567.865 -65 Q606.822 -108 598.249 -169 Q584.757 -265 502.151 -312 Q429.249 -354 320.249 -354 Q263.249 -354 214.497 -338 Q188.762 -329 181.276 -304 Q175.962 -292 178.07 -277 Q179.335 -268 185.022 -256 Q195.973 -235 220.659 -223 Q237.924 -214 256.924 -214 Q267.924 -214 276.503 -217 Q305.097 -227 327.097 -227 Q354.097 -227 371.643 -216 Q397.892 -200 401.968 -171 Q410.962 -107 254.93 -93 L335.2 37 Z " />
<glyph glyph-name="egrave" unicode="&#xe8;" horiz-adv-x="971" d="M734.806 639 Q754.806 639 770.335 657 Q784.443 672 786.833 689 Q787.676 695 786.8 703 Q783.654 766 754.135 805 Q718.46 850 649.46 850 Q587.46 850 536.416 807 Q493.357 771 463.503 708 Q459.379 700 457.973 690 Q455.725 674 463.616 659 Q474.806 639 495.806 639 L734.806 639 Z M697.676 1065 Q918.676 1065 1012.63 901 Q1089.95 761 1059.74 546 Q1057.63 531 1053.96 512 Q1046.76 475 1014.68 446 Q983.746 418 942.746 418 L470.746 418 Q447.746 418 430.514 395 Q419.546 381 417.578 367 Q415.751 354 420.784 340 Q442.492 281 506.995 249 Q566.919 220 649.919 220 Q741.919 220 823.308 237 Q834.73 240 845.73 240 Q877.73 240 900.06 221 Q930.827 198 931.205 158 L931.989 128 Q932.584 118 931.178 108 Q927.524 82 911.151 58 Q885.654 26 846.968 14 Q719.189 -20 573.189 -20 Q326.189 -20 206.568 125 Q93.2433 265 127.676 510 Q158.314 728 298.238 884 Q459.676 1065 697.676 1065 Z M785.238 1254 Q795.006 1231 791.633 1207 Q788.4 1184 772.168 1161 Q737 1110 679 1110 L673 1110 Q624 1110 600.341 1148 L521.33 1276 Q503.125 1303 507.481 1334 Q510.433 1355 524.384 1376 Q558.395 1433 621.395 1433 L655.395 1433 Q714.395 1433 734.368 1383 L785.238 1254 Z " />
<glyph glyph-name="eacute" unicode="&#xe9;" horiz-adv-x="970" d="M733.806 639 Q753.806 639 769.335 657 Q783.443 672 785.833 689 Q786.676 695 785.8 703 Q782.654 766 753.135 805 Q717.46 850 648.46 850 Q586.46 850 535.416 807 Q492.357 771 462.503 708 Q458.379 700 456.973 690 Q454.725 674 462.616 659 Q473.806 639 494.806 639 L733.806 639 Z M696.676 1065 Q917.676 1065 1011.63 901 Q1088.95 761 1058.74 546 Q1056.63 531 1052.96 512 Q1045.76 475 1013.68 446 Q982.746 418 941.746 418 L469.746 418 Q446.746 418 429.514 395 Q418.546 381 416.578 367 Q414.751 354 419.784 340 Q441.492 281 505.995 249 Q565.919 220 648.919 220 Q740.919 220 822.308 237 Q833.73 240 844.73 240 Q876.73 240 899.06 221 Q929.827 198 930.205 158 L930.989 128 Q931.584 118 930.178 108 Q926.524 82 910.151 58 Q884.654 26 845.968 14 Q718.189 -20 572.189 -20 Q325.189 -20 205.568 125 Q92.2433 265 126.676 510 Q157.314 728 297.238 884 Q458.676 1065 696.676 1065 Z M693.368 1383 Q727.395 1433 786.395 1433 L820.395 1433 Q883.395 1433 901.384 1376 Q909.433 1355 906.481 1334 Q902.125 1303 876.33 1276 L761.341 1148 Q727 1110 678 1110 L672 1110 Q614 1110 593.168 1161 Q583.4 1184 586.633 1207 Q590.006 1231 606.238 1254 L693.368 1383 Z " />
<glyph glyph-name="ecircumflex" unicode="&#xea;" horiz-adv-x="971" d="M734.806 639 Q754.806 639 770.335 657 Q784.443 672 786.833 689 Q787.676 695 786.8 703 Q783.654 766 754.135 805 Q718.46 850 649.46 850 Q587.46 850 536.416 807 Q493.357 771 463.503 708 Q459.379 700 457.973 690 Q455.725 674 463.616 659 Q474.806 639 495.806 639 L734.806 639 Z M697.676 1065 Q918.676 1065 1012.63 901 Q1089.95 761 1059.74 546 Q1057.63 531 1053.96 512 Q1046.76 475 1014.68 446 Q983.746 418 942.746 418 L470.746 418 Q447.746 418 430.514 395 Q419.546 381 417.578 367 Q415.751 354 420.784 340 Q442.492 281 506.995 249 Q566.919 220 649.919 220 Q741.919 220 823.308 237 Q834.73 240 845.73 240 Q877.73 240 900.06 221 Q930.827 198 931.205 158 L931.989 128 Q932.584 118 931.178 108 Q927.524 82 911.151 58 Q885.654 26 846.968 14 Q719.189 -20 573.189 -20 Q326.189 -20 206.568 125 Q93.2433 265 127.676 510 Q158.314 728 298.238 884 Q459.676 1065 697.676 1065 Z M978.914 1209 Q987.665 1193 985.276 1176 Q983.308 1162 973.341 1148 Q948.562 1114 907.562 1114 L857.562 1114 Q814.562 1114 802.481 1149 L743.563 1299 L742.563 1299 L640.341 1148 Q615.562 1114 574.562 1114 L524.562 1114 Q483.562 1114 468.481 1149 Q462.449 1163 464.417 1177 Q466.665 1193 479.914 1209 L630.6 1406 Q654.957 1437 693.957 1437 L829.957 1437 Q868.957 1437 884.46 1405 L978.914 1209 Z " />
<glyph glyph-name="edieresis" unicode="&#xeb;" horiz-adv-x="975" d="M738.806 639 Q758.806 639 774.335 657 Q788.443 672 790.833 689 Q791.676 695 790.8 703 Q787.654 766 758.135 805 Q722.46 850 653.46 850 Q591.46 850 540.416 807 Q497.357 771 467.503 708 Q463.379 700 461.973 690 Q459.725 674 467.616 659 Q478.806 639 499.806 639 L738.806 639 Z M701.676 1065 Q922.676 1065 1016.63 901 Q1093.95 761 1063.74 546 Q1061.63 531 1057.96 512 Q1050.76 475 1018.68 446 Q987.746 418 946.746 418 L474.746 418 Q451.746 418 434.514 395 Q423.546 381 421.578 367 Q419.751 354 424.784 340 Q446.492 281 510.995 249 Q570.919 220 653.919 220 Q745.919 220 827.308 237 Q838.73 240 849.73 240 Q881.73 240 904.06 221 Q934.827 198 935.205 158 L935.989 128 Q936.584 118 935.178 108 Q931.524 82 915.151 58 Q889.654 26 850.968 14 Q723.189 -20 577.189 -20 Q330.189 -20 210.568 125 Q97.2433 265 131.676 510 Q162.314 728 302.238 884 Q463.676 1065 701.676 1065 Z M896.498 1142 Q834.498 1142 799.681 1186 Q764.146 1232 772.719 1293 Q781.433 1355 826.476 1398 Q876.66 1442 942.66 1442 Q1004.66 1442 1040.48 1398 Q1074.57 1356 1065.72 1293 Q1057.15 1232 1011.82 1187 Q962.498 1142 900.498 1142 L896.498 1142 Z M472.498 1142 Q408.498 1142 372.681 1186 Q336.006 1231 344.719 1293 Q353.433 1355 401.476 1398 Q451.66 1442 516.66 1442 Q577.66 1442 613.476 1398 Q647.292 1354 638.719 1293 Q630.146 1232 583.822 1187 Q535.498 1142 474.498 1142 L472.498 1142 Z " />
<glyph glyph-name="igrave" unicode="&#xec;" horiz-adv-x="459" d="M494.162 1040 Q537.162 1040 559.946 1010 Q583.871 981 578.389 942 L459.914 99 Q454.151 58 423.357 31 Q389 0 348 0 L235 0 Q193 0 167.357 31 Q144.151 58 149.914 99 L268.389 942 Q273.871 981 305.946 1010 Q337.162 1040 381.162 1040 L494.162 1040 Z M556.238 1254 Q566.006 1231 562.633 1207 Q559.4 1184 543.168 1161 Q508 1110 450 1110 L444 1110 Q395 1110 371.341 1148 L292.33 1276 Q274.125 1303 278.481 1334 Q281.433 1355 295.384 1376 Q329.395 1433 392.395 1433 L426.395 1433 Q485.395 1433 505.368 1383 L556.238 1254 Z " />
<glyph glyph-name="iacute" unicode="&#xed;" horiz-adv-x="444" d="M471.162 1040 Q514.162 1040 536.946 1010 Q560.871 981 555.389 942 L436.914 99 Q431.151 58 400.357 31 Q366 0 325 0 L212 0 Q170 0 144.357 31 Q121.151 58 126.914 99 L245.389 942 Q250.871 981 282.946 1010 Q314.162 1040 358.162 1040 L471.162 1040 Z M442.368 1383 Q476.395 1433 535.395 1433 L569.395 1433 Q632.395 1433 650.384 1376 Q658.433 1355 655.481 1334 Q651.125 1303 625.33 1276 L510.341 1148 Q476 1110 427 1110 L421 1110 Q363 1110 342.168 1161 Q332.4 1184 335.633 1207 Q339.006 1231 355.238 1254 L442.368 1383 Z " />
<glyph glyph-name="icircumflex" unicode="&#xee;" horiz-adv-x="480" d="M491.162 1040 Q534.162 1040 556.946 1010 Q580.871 981 575.389 942 L456.914 99 Q451.151 58 420.357 31 Q386 0 345 0 L232 0 Q190 0 164.357 31 Q141.151 58 146.914 99 L265.389 942 Q270.871 981 302.946 1010 Q334.162 1040 378.162 1040 L491.162 1040 Z M727.914 1209 Q736.665 1193 734.276 1176 Q732.308 1162 722.341 1148 Q697.562 1114 656.562 1114 L606.562 1114 Q563.562 1114 551.481 1149 L492.563 1299 L491.563 1299 L389.341 1148 Q364.562 1114 323.562 1114 L273.562 1114 Q232.562 1114 217.481 1149 Q211.449 1163 213.417 1177 Q215.665 1193 228.914 1209 L379.6 1406 Q403.957 1437 442.957 1437 L578.957 1437 Q617.957 1437 633.46 1405 L727.914 1209 Z " />
<glyph glyph-name="idieresis" unicode="&#xef;" horiz-adv-x="557" d="M545.162 1040 Q588.162 1040 610.946 1010 Q634.871 981 629.389 942 L510.914 99 Q505.151 58 474.357 31 Q440 0 399 0 L286 0 Q244 0 218.357 31 Q195.151 58 200.914 99 L319.389 942 Q324.871 981 356.946 1010 Q388.162 1040 432.162 1040 L545.162 1040 Z M715.498 1142 Q653.498 1142 618.681 1186 Q583.146 1232 591.719 1293 Q600.433 1355 645.476 1398 Q695.66 1442 761.66 1442 Q823.66 1442 859.476 1398 Q893.573 1356 884.719 1293 Q876.146 1232 830.822 1187 Q781.498 1142 719.498 1142 L715.498 1142 Z M291.498 1142 Q227.498 1142 191.681 1186 Q155.006 1231 163.719 1293 Q172.433 1355 220.476 1398 Q270.66 1442 335.66 1442 Q396.66 1442 432.476 1398 Q466.292 1354 457.719 1293 Q449.146 1232 402.822 1187 Q354.498 1142 293.498 1142 L291.498 1142 Z " />
<glyph glyph-name="eth" unicode="&#xf0;" horiz-adv-x="1108" d="M586.324 230 Q674.324 230 735.989 313 Q797.373 394 817.189 535 Q839.816 696 800.67 759 Q758.227 827 672.227 827 Q573.227 827 506.033 726 Q451.508 644 435.065 527 Q417.076 399 456.551 317 Q497.324 230 584.324 230 L586.324 230 Z M1120.64 958 Q1180.31 792 1148.69 567 Q1110.18 293 928.395 138 Q767 0 550 0 Q325 0 202.238 144 Q75.6163 289 108.643 524 Q139.562 744 297.098 883 Q451.211 1019 652.773 1023 L662.773 1023 Q741.773 1023 787.433 985 L789.854 988 Q735.206 1083 660.481 1149 Q648.746 1158 637.746 1158 Q628.746 1158 618.044 1153 L406.395 1063 Q385.271 1055 367.271 1055 Q323.271 1055 310.454 1099 L309.876 1102 Q306.125 1118 308.092 1132 Q313.152 1168 357.963 1188 L427.179 1218 Q456.006 1231 461.644 1264 L461.925 1266 Q466.422 1298 442.39 1312 L440.53 1313 Q402.481 1334 398.525 1377 Q397.93 1387 399.476 1398 Q403.552 1427 425.206 1453 L446.719 1478 Q485.763 1521 532.763 1521 Q555.763 1521 579.357 1511 Q687.049 1459 784.211 1389 Q795.087 1381 806.087 1381 Q814.087 1381 824.649 1385 L1028.74 1471 Q1049 1480 1067 1480 Q1109 1480 1123.1 1438 Q1129.43 1419 1127.32 1404 Q1122.26 1368 1076.45 1348 L994.53 1313 Q968.844 1301 961.19 1275 Q959.206 1268 958.363 1262 Q955.552 1242 967.584 1228 Q1069.86 1109 1120.64 958 Z " />
<glyph glyph-name="ntilde" unicode="&#xf1;" horiz-adv-x="1052" d="M514.098 883 Q560.671 944 629.292 984 Q725.584 1043 835.584 1043 Q994.584 1043 1072.12 933 Q1153.82 817 1122.9 597 L1049.82 77 Q1044.34 38 1013.55 11 Q979.189 -20 938.189 -20 L823.189 -20 Q781.189 -20 757.546 11 Q734.341 38 739.822 77 L807.141 556 Q838.903 782 691.903 782 Q637.903 782 592.843 746 Q553.346 714 527.897 661 Q511.962 633 504.514 580 L433.822 77 Q428.341 38 397.546 11 Q365.189 -20 322.189 -20 L207.189 -20 Q166.189 -20 140.405 10 Q118.481 39 123.822 77 Q135.892 170 149.103 264 Q165.67 389 179.849 497 Q218.887 789 236.579 922 L237 925 Q242.2 962 271.135 990 Q306.352 1020 346.492 1021 L435.633 1022 Q478.633 1022 502.276 991 Q525.341 963 519.719 923 L514.098 883 Z M510.184 1154 Q480.184 1154 462.276 1176 Q447.946 1195 451.179 1218 L451.741 1222 Q473.654 1321 526.665 1378 Q580.395 1433 651.395 1433 Q687.395 1433 723.287 1418 Q735.584 1413 752.46 1405 L780.211 1389 L792.227 1382 L803.244 1375 Q815.979 1366 823.417 1362 Q842.73 1350 856.73 1350 Q886.73 1350 902.773 1393 Q911.865 1415 930.692 1428 Q951.8 1443 976.8 1443 L1000.8 1443 Q1031.8 1443 1049.85 1422 Q1063.18 1403 1060.09 1381 L1059.52 1377 Q1016.57 1171 859.573 1171 Q820.573 1171 783.822 1187 Q770.384 1191 752.79 1201 L721.038 1217 Q669.676 1250 653.676 1250 Q628.676 1250 611.071 1203 Q602.119 1182 583.292 1169 Q562.184 1154 537.184 1154 L510.184 1154 Z " />
<glyph glyph-name="ograve" unicode="&#xf2;" horiz-adv-x="1045" d="M823.93 462 Q831.146 492 835.081 520 Q847.027 605 834.865 675 Q813.011 797 725.384 821 Q701.368 828 680.368 828 Q602.368 828 539.719 738 Q473.508 644 455.097 513 Q438.795 397 465.27 315 Q497.514 210 587.389 202 Q595.249 201 603.249 201 Q682.249 201 744.351 280 Q799.611 353 823.93 462 Z M131.6 481 Q132.568 495 134.676 510 Q167.281 742 336.222 891 Q497.038 1032 708.444 1042 Q723.584 1043 737.584 1043 Q930.584 1043 1050.44 921 Q1190.2 777 1154.64 524 Q1120.21 279 944.989 128 Q784.735 -9 580.33 -19 Q565.189 -20 551.189 -20 Q363.189 -20 244.773 98 Q106.027 235 131.6 481 Z M837.238 1254 Q847.006 1231 843.633 1207 Q840.4 1184 824.168 1161 Q789 1110 731 1110 L725 1110 Q676 1110 652.341 1148 L573.33 1276 Q555.125 1303 559.481 1334 Q562.433 1355 576.384 1376 Q610.395 1433 673.395 1433 L707.395 1433 Q766.395 1433 786.368 1383 L837.238 1254 Z " />
<glyph glyph-name="oacute" unicode="&#xf3;" horiz-adv-x="1045" d="M823.93 462 Q831.146 492 835.081 520 Q847.027 605 834.865 675 Q813.011 797 725.384 821 Q701.368 828 680.368 828 Q602.368 828 539.719 738 Q473.508 644 455.097 513 Q438.795 397 465.27 315 Q497.514 210 587.389 202 Q595.249 201 603.249 201 Q682.249 201 744.351 280 Q799.611 353 823.93 462 Z M131.6 481 Q132.568 495 134.676 510 Q167.281 742 336.222 891 Q497.038 1032 708.444 1042 Q723.584 1043 737.584 1043 Q930.584 1043 1050.44 921 Q1190.2 777 1154.64 524 Q1120.21 279 944.989 128 Q784.735 -9 580.33 -19 Q565.189 -20 551.189 -20 Q363.189 -20 244.773 98 Q106.027 235 131.6 481 Z M747.368 1383 Q781.395 1433 840.395 1433 L874.395 1433 Q937.395 1433 955.384 1376 Q963.433 1355 960.481 1334 Q956.125 1303 930.33 1276 L815.341 1148 Q781 1110 732 1110 L726 1110 Q668 1110 647.168 1161 Q637.4 1184 640.633 1207 Q644.006 1231 660.238 1254 L747.368 1383 Z " />
<glyph glyph-name="ocircumflex" unicode="&#xf4;" horiz-adv-x="1045" d="M823.93 462 Q831.146 492 835.081 520 Q847.027 605 834.865 675 Q813.011 797 725.384 821 Q701.368 828 680.368 828 Q602.368 828 539.719 738 Q473.508 644 455.097 513 Q438.795 397 465.27 315 Q497.514 210 587.389 202 Q595.249 201 603.249 201 Q682.249 201 744.351 280 Q799.611 353 823.93 462 Z M131.6 481 Q132.568 495 134.676 510 Q167.281 742 336.222 891 Q497.038 1032 708.444 1042 Q723.584 1043 737.584 1043 Q930.584 1043 1050.44 921 Q1190.2 777 1154.64 524 Q1120.21 279 944.989 128 Q784.735 -9 580.33 -19 Q565.189 -20 551.189 -20 Q363.189 -20 244.773 98 Q106.027 235 131.6 481 Z M1031.91 1209 Q1040.67 1193 1038.28 1176 Q1036.31 1162 1026.34 1148 Q1001.56 1114 960.562 1114 L910.562 1114 Q867.562 1114 855.481 1149 L796.563 1299 L795.563 1299 L693.341 1148 Q668.562 1114 627.562 1114 L577.562 1114 Q536.562 1114 521.481 1149 Q515.449 1163 517.417 1177 Q519.665 1193 532.914 1209 L683.6 1406 Q707.957 1437 746.957 1437 L882.957 1437 Q921.957 1437 937.46 1405 L1031.91 1209 Z " />
<glyph glyph-name="otilde" unicode="&#xf5;" horiz-adv-x="1046" d="M824.93 462 Q832.146 492 836.081 520 Q848.027 605 835.865 675 Q814.011 797 726.384 821 Q702.368 828 681.368 828 Q603.368 828 540.719 738 Q474.508 644 456.097 513 Q439.795 397 466.27 315 Q498.514 210 588.389 202 Q596.249 201 604.249 201 Q683.249 201 745.351 280 Q800.611 353 824.93 462 Z M132.6 481 Q133.568 495 135.676 510 Q168.281 742 337.222 891 Q498.038 1032 709.444 1042 Q724.584 1043 738.584 1043 Q931.584 1043 1051.44 921 Q1191.2 777 1155.64 524 Q1121.21 279 945.989 128 Q785.735 -9 581.33 -19 Q566.189 -20 552.189 -20 Q364.189 -20 245.773 98 Q107.027 235 132.6 481 Z M510.184 1154 Q480.184 1154 462.276 1176 Q447.946 1195 451.179 1218 L451.741 1222 Q473.654 1321 526.665 1378 Q580.395 1433 651.395 1433 Q687.395 1433 723.287 1418 Q735.584 1413 752.46 1405 L780.211 1389 L792.227 1382 L803.244 1375 Q815.979 1366 823.417 1362 Q842.73 1350 856.73 1350 Q886.73 1350 902.773 1393 Q911.865 1415 930.692 1428 Q951.8 1443 976.8 1443 L1000.8 1443 Q1031.8 1443 1049.85 1422 Q1063.18 1403 1060.09 1381 L1059.52 1377 Q1016.57 1171 859.573 1171 Q820.573 1171 783.822 1187 Q770.384 1191 752.79 1201 L721.038 1217 Q669.676 1250 653.676 1250 Q628.676 1250 611.071 1203 Q602.119 1182 583.292 1169 Q562.184 1154 537.184 1154 L510.184 1154 Z " />
<glyph glyph-name="odieresis" unicode="&#xf6;" horiz-adv-x="1046" d="M824.93 462 Q832.146 492 836.081 520 Q848.027 605 835.865 675 Q814.011 797 726.384 821 Q702.368 828 681.368 828 Q603.368 828 540.719 738 Q474.508 644 456.097 513 Q439.795 397 466.27 315 Q498.514 210 588.389 202 Q596.249 201 604.249 201 Q683.249 201 745.351 280 Q800.611 353 824.93 462 Z M132.6 481 Q133.568 495 135.676 510 Q168.281 742 337.222 891 Q498.038 1032 709.444 1042 Q724.584 1043 738.584 1043 Q931.584 1043 1051.44 921 Q1191.2 777 1155.64 524 Q1121.21 279 945.989 128 Q785.735 -9 581.33 -19 Q566.189 -20 552.189 -20 Q364.189 -20 245.773 98 Q107.027 235 132.6 481 Z M946.498 1142 Q884.498 1142 849.681 1186 Q814.146 1232 822.719 1293 Q831.433 1355 876.476 1398 Q926.66 1442 992.66 1442 Q1054.66 1442 1090.48 1398 Q1124.57 1356 1115.72 1293 Q1107.15 1232 1061.82 1187 Q1012.5 1142 950.498 1142 L946.498 1142 Z M522.498 1142 Q458.498 1142 422.681 1186 Q386.006 1231 394.719 1293 Q403.433 1355 451.476 1398 Q501.66 1442 566.66 1442 Q627.66 1442 663.476 1398 Q697.292 1354 688.719 1293 Q680.146 1232 633.822 1187 Q585.498 1142 524.498 1142 L522.498 1142 Z " />
<glyph glyph-name="divide" unicode="&#xf7;" horiz-adv-x="970" d="M587.984 747 Q523.984 747 491.308 792 Q461.352 835 471.049 904 Q480.887 974 524.93 1017 Q569.114 1061 634.114 1061 Q699.114 1061 731.93 1017 Q761.027 975 752.049 904 Q742.352 835 700.308 792 Q654.984 747 589.984 747 L587.984 747 Z M953.4 629 Q999.4 629 1024.32 600 Q1050.25 571 1044.63 531 Q1039.01 491 1005.07 463 Q971.714 432 925.714 432 L164.714 432 Q119.714 432 94.7893 461 Q69.0055 491 74.6272 531 Q80.2488 571 113.325 600 Q148.4 629 192.4 629 L953.4 629 Z M529.27 315 Q594.27 315 626.946 270 Q656.043 228 647.205 158 Q637.368 88 595.324 45 Q550 0 485 0 L483 0 Q419 0 386.324 45 Q356.368 88 366.205 158 Q375.903 227 418.946 270 Q464.27 315 529.27 315 Z " />
<glyph glyph-name="oslash" unicode="&#xf8;" horiz-adv-x="1095" d="M303.308 52 Q264.978 71 221.881 113 Q83.2757 251 108.849 497 Q109.816 511 111.924 526 Q144.53 758 313.471 907 Q474.287 1048 685.692 1058 Q702.833 1059 718.833 1059 L727.833 1059 L799.584 1228 Q811.8 1258 840.611 1278 Q869.563 1299 904.563 1299 L913.563 1299 Q964.563 1299 988.8 1258 Q1003.15 1232 998.93 1202 Q997.103 1189 991.135 1175 L923.508 1014 Q974.276 991 1027.69 937 Q1167.45 793 1131.89 540 Q1097.46 295 922.238 144 Q761.984 7 557.578 -3 Q542.438 -4 528.438 -4 Q499.438 -4 494.578 -3 L422.827 -172 Q410.611 -202 382.94 -221 Q352.849 -243 318.849 -243 L308.849 -243 Q257.849 -243 233.611 -202 Q219.265 -176 223.481 -146 Q225.308 -133 231.276 -119 L303.308 52 Z M806.579 737 L584.654 211 Q659.497 217 721.6 296 Q776.86 369 801.179 478 Q808.395 508 812.33 536 Q824.276 621 812.114 691 L806.579 737 Z M429.47 352 L637.476 843 Q579.476 843 516.968 754 Q450.757 660 432.346 529 Q416.043 413 429.47 352 Z " />
<glyph glyph-name="ugrave" unicode="&#xf9;" horiz-adv-x="1032" d="M761.378 145 Q742.865 120 718.632 97 Q687.135 65 649.762 41 Q552.189 -20 435.189 -20 Q276.189 -20 202.368 88 Q122.67 204 154.854 433 L226.811 945 Q232.292 984 264.368 1013 Q295.584 1043 340.584 1043 L452.584 1043 Q495.584 1043 521.368 1013 Q544.152 983 538.811 945 L474.022 484 Q440.011 242 585.011 242 Q638.011 242 682.93 277 Q721.005 306 744.751 354 Q757.984 377 764.73 425 L837.811 945 Q843.292 984 875.368 1013 Q906.584 1043 951.584 1043 L1064.58 1043 Q1107.58 1043 1133.37 1013 Q1156.43 985 1150.81 945 L1091.78 525 Q1055.95 270 1033.48 103 Q1027.71 62 995.919 35 Q963.422 3 919.422 3 L840.422 3 Q798.422 3 772.919 35 Q749.854 63 755.476 103 L761.378 145 Z M822.238 1254 Q832.006 1231 828.633 1207 Q825.4 1184 809.168 1161 Q774 1110 716 1110 L710 1110 Q661 1110 637.341 1148 L558.33 1276 Q540.125 1303 544.481 1334 Q547.433 1355 561.384 1376 Q595.395 1433 658.395 1433 L692.395 1433 Q751.395 1433 771.368 1383 L822.238 1254 Z " />
<glyph glyph-name="uacute" unicode="&#xfa;" horiz-adv-x="1032" d="M761.378 145 Q742.865 120 718.632 97 Q687.135 65 649.762 41 Q552.189 -20 435.189 -20 Q276.189 -20 202.368 88 Q122.67 204 154.854 433 L226.811 945 Q232.292 984 264.368 1013 Q295.584 1043 340.584 1043 L452.584 1043 Q495.584 1043 521.368 1013 Q544.152 983 538.811 945 L474.022 484 Q440.011 242 585.011 242 Q638.011 242 682.93 277 Q721.005 306 744.751 354 Q757.984 377 764.73 425 L837.811 945 Q843.292 984 875.368 1013 Q906.584 1043 951.584 1043 L1064.58 1043 Q1107.58 1043 1133.37 1013 Q1156.43 985 1150.81 945 L1091.78 525 Q1055.95 270 1033.48 103 Q1027.71 62 995.919 35 Q963.422 3 919.422 3 L840.422 3 Q798.422 3 772.919 35 Q749.854 63 755.476 103 L761.378 145 Z M731.368 1383 Q765.395 1433 824.395 1433 L858.395 1433 Q921.395 1433 939.384 1376 Q947.433 1355 944.481 1334 Q940.125 1303 914.33 1276 L799.341 1148 Q765 1110 716 1110 L710 1110 Q652 1110 631.168 1161 Q621.4 1184 624.633 1207 Q628.006 1231 644.238 1254 L731.368 1383 Z " />
<glyph glyph-name="ucircumflex" unicode="&#xfb;" horiz-adv-x="1032" d="M761.378 145 Q742.865 120 718.632 97 Q687.135 65 649.762 41 Q552.189 -20 435.189 -20 Q276.189 -20 202.368 88 Q122.67 204 154.854 433 L226.811 945 Q232.292 984 264.368 1013 Q295.584 1043 340.584 1043 L452.584 1043 Q495.584 1043 521.368 1013 Q544.152 983 538.811 945 L474.022 484 Q440.011 242 585.011 242 Q638.011 242 682.93 277 Q721.005 306 744.751 354 Q757.984 377 764.73 425 L837.811 945 Q843.292 984 875.368 1013 Q906.584 1043 951.584 1043 L1064.58 1043 Q1107.58 1043 1133.37 1013 Q1156.43 985 1150.81 945 L1091.78 525 Q1055.95 270 1033.48 103 Q1027.71 62 995.919 35 Q963.422 3 919.422 3 L840.422 3 Q798.422 3 772.919 35 Q749.854 63 755.476 103 L761.378 145 Z M1015.91 1209 Q1024.67 1193 1022.28 1176 Q1020.31 1162 1010.34 1148 Q985.562 1114 944.562 1114 L894.562 1114 Q851.562 1114 839.481 1149 L780.563 1299 L779.563 1299 L677.341 1148 Q652.562 1114 611.562 1114 L561.562 1114 Q520.562 1114 505.481 1149 Q499.449 1163 501.417 1177 Q503.665 1193 516.914 1209 L667.6 1406 Q691.957 1437 730.957 1437 L866.957 1437 Q905.957 1437 921.46 1405 L1015.91 1209 Z " />
<glyph glyph-name="udieresis" unicode="&#xfc;" horiz-adv-x="1036" d="M765.378 145 Q746.865 120 722.632 97 Q691.135 65 653.762 41 Q556.189 -20 439.189 -20 Q280.189 -20 206.368 88 Q126.67 204 158.854 433 L230.811 945 Q236.292 984 268.368 1013 Q299.584 1043 344.584 1043 L456.584 1043 Q499.584 1043 525.368 1013 Q548.152 983 542.811 945 L478.022 484 Q444.011 242 589.011 242 Q642.011 242 686.93 277 Q725.005 306 748.751 354 Q761.984 377 768.73 425 L841.811 945 Q847.292 984 879.368 1013 Q910.584 1043 955.584 1043 L1068.58 1043 Q1111.58 1043 1137.37 1013 Q1160.43 985 1154.81 945 L1095.78 525 Q1059.95 270 1037.48 103 Q1031.71 62 999.919 35 Q967.422 3 923.422 3 L844.422 3 Q802.422 3 776.919 35 Q753.854 63 759.476 103 L765.378 145 Z M933.498 1142 Q871.498 1142 836.681 1186 Q801.146 1232 809.719 1293 Q818.433 1355 863.476 1398 Q913.66 1442 979.66 1442 Q1041.66 1442 1077.48 1398 Q1111.57 1356 1102.72 1293 Q1094.15 1232 1048.82 1187 Q999.498 1142 937.498 1142 L933.498 1142 Z M509.498 1142 Q445.498 1142 409.681 1186 Q373.006 1231 381.719 1293 Q390.433 1355 438.476 1398 Q488.66 1442 553.66 1442 Q614.66 1442 650.476 1398 Q684.292 1354 675.719 1293 Q667.146 1232 620.822 1187 Q572.498 1142 511.498 1142 L509.498 1142 Z " />
<glyph glyph-name="yacute" unicode="&#xfd;" horiz-adv-x="932" d="M575.535 324 Q586.892 355 608.184 414 L626.211 464 Q635.006 491 642.676 510 L805.952 946 Q816.449 978 845.541 1000 Q876.633 1022 911.633 1022 L1028.63 1022 Q1081.63 1022 1104.59 979 Q1118.08 954 1114 925 Q1111.89 910 1104.64 894 L844.503 338 Q785.216 215 724.259 73 Q714.027 50 700.53 18 L689.876 -8 L679.503 -32 Q655.913 -86 641.276 -119 Q568.649 -280 491.654 -344 Q388.989 -427 271.789 -464 Q254.946 -470 237.946 -470 Q211.946 -470 190.773 -457 Q158.865 -435 153.627 -394 L144.557 -302 Q143.962 -292 145.508 -281 Q148.6 -259 162.551 -238 Q182.189 -205 217.297 -190 Q246.984 -178 278.513 -160 Q346.432 -125 392.022 -71 Q405.13 -56 407.378 -40 Q409.065 -28 405.611 -17 Q384.854 63 303.389 387 Q272.254 507 234.335 657 Q205.935 768 175.8 888 Q170.471 907 173.141 926 Q176.935 953 196.308 977 Q231.633 1022 285.633 1022 L410.633 1022 Q443.633 1022 467.681 1001 Q490.871 981 494.654 951 L556.676 510 L560.443 487 L562.211 464 Q565.135 435 569.043 413 Q573.454 359 575.535 324 Z M688.368 1383 Q722.395 1433 781.395 1433 L815.395 1433 Q878.395 1433 896.384 1376 Q904.433 1355 901.481 1334 Q897.125 1303 871.33 1276 L756.341 1148 Q722 1110 673 1110 L667 1110 Q609 1110 588.168 1161 Q578.4 1184 581.633 1207 Q585.006 1231 601.238 1254 L688.368 1383 Z " />
<glyph glyph-name="thorn" unicode="&#xfe;" horiz-adv-x="1083" d="M455.103 449 Q451.87 426 454.795 397 Q458.297 365 467.908 348 Q481.443 302 516.649 275 Q551.135 250 595.135 250 Q679.135 250 741.097 328 Q805.762 411 825.157 549 Q842.865 675 804.968 754 Q766.211 834 684.211 834 Q634.211 834 588.995 804 Q541.638 773 510.768 717 Q499.957 697 491.725 674 Q483.07 648 480.4 629 L455.103 449 Z M516.687 937 Q626.908 1088 814.908 1088 L818.908 1088 Q891.908 1088 955.13 1054 Q1018.93 1017 1061.37 949 Q1156.29 799 1121.86 554 Q1084.34 287 929.973 135 Q794.141 1 630.141 1 Q548.141 1 487.059 36 Q431.416 67 407.741 112 L349.838 -300 Q344.357 -339 311.422 -367 Q277.205 -397 234.205 -397 L145.205 -397 Q101.205 -397 76.5621 -366 Q51.3567 -339 56.8377 -300 L290.698 1364 Q296.319 1404 330.536 1434 Q362.471 1462 406.471 1462 L495.471 1462 Q537.471 1462 564.395 1433 Q589.319 1404 583.698 1364 L516.687 937 Z " />
<glyph glyph-name="ydieresis" unicode="&#xff;" horiz-adv-x="950" d="M568.535 324 Q579.892 355 601.184 414 L619.211 464 Q628.006 491 635.676 510 L798.952 946 Q809.449 978 838.541 1000 Q869.633 1022 904.633 1022 L1021.63 1022 Q1074.63 1022 1097.59 979 Q1111.08 954 1107 925 Q1104.89 910 1097.64 894 L837.503 338 Q778.216 215 717.259 73 Q707.027 50 693.53 18 L682.876 -8 L672.503 -32 Q648.913 -86 634.276 -119 Q561.649 -280 484.654 -344 Q381.989 -427 264.789 -464 Q247.946 -470 230.946 -470 Q204.946 -470 183.773 -457 Q151.865 -435 146.627 -394 L137.557 -302 Q136.962 -292 138.508 -281 Q141.6 -259 155.551 -238 Q175.189 -205 210.297 -190 Q239.984 -178 271.513 -160 Q339.432 -125 385.022 -71 Q398.13 -56 400.378 -40 Q402.065 -28 398.611 -17 Q377.854 63 296.389 387 Q265.254 507 227.335 657 Q198.935 768 168.8 888 Q163.471 907 166.141 926 Q169.935 953 189.308 977 Q224.633 1022 278.633 1022 L403.633 1022 Q436.633 1022 460.681 1001 Q483.871 981 487.654 951 L549.676 510 L553.443 487 L555.211 464 Q558.135 435 562.043 413 Q566.454 359 568.535 324 Z M879.498 1142 Q817.498 1142 782.681 1186 Q747.146 1232 755.719 1293 Q764.433 1355 809.476 1398 Q859.66 1442 925.66 1442 Q987.66 1442 1023.48 1398 Q1057.57 1356 1048.72 1293 Q1040.15 1232 994.822 1187 Q945.498 1142 883.498 1142 L879.498 1142 Z M455.498 1142 Q391.498 1142 355.681 1186 Q319.006 1231 327.719 1293 Q336.433 1355 384.476 1398 Q434.66 1442 499.66 1442 Q560.66 1442 596.476 1398 Q630.292 1354 621.719 1293 Q613.146 1232 566.822 1187 Q518.498 1142 457.498 1142 L455.498 1142 Z " />
<glyph glyph-name="dotlessi" unicode="&#x131;" horiz-adv-x="480" d="M440.162 1040 Q483.162 1040 505.946 1010 Q529.871 981 524.389 942 L405.914 99 Q400.151 58 369.357 31 Q335 0 294 0 L181 0 Q139 0 113.357 31 Q90.1514 58 95.9135 99 L214.389 942 Q219.871 981 251.946 1010 Q283.162 1040 327.162 1040 L440.162 1040 Z " />
<glyph glyph-name="circumflex" unicode="&#x2c6;" horiz-adv-x="597" d="M725.914 1209 Q734.665 1193 732.276 1176 Q730.308 1162 720.341 1148 Q695.562 1114 654.562 1114 L604.562 1114 Q561.562 1114 549.481 1149 L490.563 1299 L489.563 1299 L387.341 1148 Q362.562 1114 321.562 1114 L271.562 1114 Q230.562 1114 215.481 1149 Q209.449 1163 211.417 1177 Q213.665 1193 226.914 1209 L377.6 1406 Q401.957 1437 440.957 1437 L576.957 1437 Q615.957 1437 631.46 1405 L725.914 1209 Z " />
<glyph glyph-name="caron" unicode="&#x2c7;" horiz-adv-x="576" d="M245.325 1340 Q236.433 1355 238.822 1372 Q240.79 1386 250.757 1400 Q275.536 1434 316.536 1434 L366.536 1434 Q407.536 1434 422.757 1400 L480.676 1250 L482.676 1250 L583.757 1400 Q608.536 1434 649.536 1434 L699.536 1434 Q740.536 1434 755.757 1400 Q761.79 1386 759.822 1372 Q757.433 1355 744.325 1340 L593.498 1142 Q569.141 1111 530.141 1111 L393.141 1111 Q354.141 1111 338.638 1143 L245.325 1340 Z " />
<glyph glyph-name="uni02C9" unicode="&#x2c9;" horiz-adv-x="517" d="M702.092 1317 Q698.719 1293 678.049 1274 Q654.238 1254 625.238 1254 L244.238 1254 Q215.238 1254 197.049 1274 Q181.719 1293 185.092 1317 L192.541 1370 Q195.773 1393 215.444 1412 Q239.395 1433 269.395 1433 L650.395 1433 Q680.395 1433 698.444 1412 Q712.773 1393 709.541 1370 L702.092 1317 Z " />
<glyph glyph-name="breve" unicode="&#x2d8;" horiz-adv-x="567" d="M314.395 1433 Q363.395 1433 372.211 1389 Q389.125 1303 464.125 1303 Q549.125 1303 586.93 1387 Q594.6 1406 614.568 1420 Q635.395 1433 659.395 1433 L697.395 1433 Q730.395 1433 747.881 1408 Q759.492 1391 756.681 1371 Q755.838 1365 754.136 1360 Q721.379 1255 641.806 1194 Q559.952 1131 441.952 1131 Q323.952 1131 258.227 1197 Q198.379 1255 195.136 1360 Q195.119 1367 195.822 1372 Q198.633 1392 213.881 1408 Q238.395 1433 271.395 1433 L314.395 1433 Z " />
<glyph glyph-name="dotaccent" unicode="&#x2d9;" horiz-adv-x="292" d="M306.654 1136 Q243.654 1136 207.119 1182 Q172.163 1225 180.595 1285 Q189.59 1349 235.492 1391 Q285.817 1436 350.817 1436 Q413.817 1436 447.492 1391 Q481.59 1349 472.595 1285 Q464.303 1226 417.979 1181 Q369.654 1136 308.654 1136 L306.654 1136 Z " />
<glyph glyph-name="ring" unicode="&#x2da;" horiz-adv-x="430" d="M378.606 1157 Q411.606 1157 436.26 1183 Q461.773 1208 467.395 1248 Q472.736 1286 455.39 1312 Q438.184 1339 404.184 1339 L402.184 1339 Q370.184 1339 346.39 1312 Q321.736 1286 316.114 1246 Q311.054 1210 329.26 1183 Q347.606 1157 378.606 1157 Z M421.098 1438 Q522.098 1438 571.227 1382 Q616.919 1330 605.395 1248 Q594.011 1167 530.703 1115 Q464.692 1058 366.692 1058 Q266.692 1058 212.703 1115 Q163.871 1166 175.114 1246 Q186.498 1327 249.087 1381 Q316.098 1438 420.098 1438 L421.098 1438 Z " />
<glyph glyph-name="ogonek" unicode="&#x2db;" horiz-adv-x="436" d="M382.794 -343 Q384.53 -352 383.265 -361 Q381.719 -372 376.313 -382 Q362.222 -404 339.676 -415 Q257.335 -453 168.335 -453 Q57.335 -453 5.48637 -395 Q-47.3623 -337 -32.0433 -228 Q-24.5946 -175 4.11889 -113 Q25.7243 -66 56.3297 -19 Q80.1081 15 122.108 15 L153.108 15 Q190.108 15 206.173 -13 Q214.924 -29 212.395 -47 Q210.989 -57 206.584 -67 Q188.103 -106 183.324 -140 Q176.157 -191 199.8 -222 Q223.443 -253 269.443 -253 Q288.443 -253 303.724 -251 Q310.005 -249 318.005 -249 Q340.005 -249 355.319 -261 Q372.492 -274 376.259 -297 L382.794 -343 Z " />
<glyph glyph-name="tilde" unicode="&#x2dc;" horiz-adv-x="588" d="M231.184 1154 Q201.184 1154 183.276 1176 Q168.946 1195 172.179 1218 L172.741 1222 Q194.654 1321 247.665 1378 Q301.395 1433 372.395 1433 Q408.395 1433 444.287 1418 Q456.584 1413 473.46 1405 L501.211 1389 L513.227 1382 L524.244 1375 Q536.979 1366 544.417 1362 Q563.73 1350 577.73 1350 Q607.73 1350 623.773 1393 Q632.865 1415 651.692 1428 Q672.8 1443 697.8 1443 L721.8 1443 Q752.8 1443 770.849 1422 Q784.179 1403 781.087 1381 L780.525 1377 Q737.573 1171 580.573 1171 Q541.573 1171 504.822 1187 Q491.384 1191 473.79 1201 L442.038 1217 Q390.676 1250 374.676 1250 Q349.676 1250 332.071 1203 Q323.119 1182 304.292 1169 Q283.184 1154 258.184 1154 L231.184 1154 Z " />
<glyph glyph-name="hungarumlaut" unicode="&#x2dd;" horiz-adv-x="676" d="M525.271 1425 Q565.271 1425 580.914 1394 Q587.806 1379 585.698 1364 Q583.59 1349 573.481 1334 L439.795 1137 Q416.876 1102 373.876 1102 L255.876 1102 Q211.876 1102 199.795 1137 Q193.903 1152 195.871 1166 Q198.4 1184 214.93 1202 L392.476 1398 Q416.271 1425 452.271 1425 L525.271 1425 Z M877.271 1425 Q916.271 1425 931.914 1394 Q938.806 1379 936.698 1364 Q934.59 1349 924.481 1334 L790.795 1137 Q767.876 1102 724.876 1102 L606.876 1102 Q562.876 1102 550.795 1137 Q544.903 1152 546.871 1166 Q549.4 1184 565.93 1202 L744.476 1398 Q768.271 1425 802.271 1425 L877.271 1425 Z " />
<glyph glyph-name="endash" unicode="&#x2013;" horiz-adv-x="902" d="M1002.35 714 Q996.865 675 963.789 646 Q930.714 617 886.714 617 L188.714 617 Q144.714 617 120.07 648 Q94.8651 675 100.346 714 L101.189 720 Q106.67 759 140.887 789 Q172.822 817 216.822 817 L914.822 817 Q957.822 817 984.606 787 Q1008.67 759 1003.19 720 L1002.35 714 Z " />
<glyph glyph-name="emdash" unicode="&#x2014;" horiz-adv-x="1915" d="M1927.82 817 Q1972.82 817 1998.61 787 Q2021.67 759 2016.19 720 L2015.35 714 Q2009.87 675 1979.07 648 Q1944.71 617 1899.71 617 L188.714 617 Q144.714 617 120.07 648 Q94.8651 675 100.346 714 L101.189 720 Q106.67 759 140.887 789 Q172.822 817 216.822 817 L1927.82 817 Z " />
<glyph glyph-name="quoteleft" unicode="&#x2018;" horiz-adv-x="375" d="M374.946 1380 Q331.946 1380 318.865 1415 L240.552 1612 Q234.66 1627 236.768 1642 Q238.876 1657 249.984 1672 Q274.341 1703 314.341 1703 L387.341 1703 Q423.341 1703 439.546 1676 L562 1480 Q573.471 1462 570.941 1444 Q568.973 1430 558.865 1415 Q536.946 1380 492.946 1380 L374.946 1380 Z " />
<glyph glyph-name="quoteright" unicode="&#x2019;" horiz-adv-x="375" d="M539.06 1701 Q582.06 1701 594.141 1666 Q600.033 1651 598.065 1637 Q595.536 1619 580.146 1602 L401.46 1405 Q377.665 1378 342.665 1378 L268.665 1378 Q229.665 1378 214.163 1410 Q206.271 1425 208.519 1441 Q210.487 1455 220.454 1469 L355.422 1668 Q377.06 1701 420.06 1701 L539.06 1701 Z " />
<glyph glyph-name="quotesinglbase" unicode="&#x201a;" horiz-adv-x="375" d="M327.687 197 Q370.687 197 382.768 162 Q388.66 147 386.692 133 Q384.162 115 368.773 98 L190.086 -99 Q166.292 -126 131.292 -126 L57.2919 -126 Q18.2919 -126 2.78916 -94 Q-5.10273 -79 -2.85407 -63 Q-0.886501 -49 9.08107 -35 L144.049 164 Q165.687 197 208.687 197 L327.687 197 Z " />
<glyph glyph-name="quotedblleft" unicode="&#x201c;" horiz-adv-x="726" d="M538.919 1700 Q578.919 1700 594.563 1669 Q601.455 1654 599.346 1639 Q597.238 1624 587.13 1609 L453.444 1412 Q430.525 1377 387.525 1377 L269.525 1377 Q225.525 1377 213.444 1412 Q207.552 1427 209.519 1441 Q212.049 1459 228.579 1477 L406.125 1673 Q429.919 1700 465.919 1700 L538.919 1700 Z M890.919 1700 Q929.919 1700 945.563 1669 Q952.455 1654 950.346 1639 Q948.238 1624 938.13 1609 L804.444 1412 Q781.525 1377 738.525 1377 L620.525 1377 Q576.525 1377 564.444 1412 Q558.552 1427 560.519 1441 Q563.049 1459 579.579 1477 L758.125 1673 Q781.919 1700 815.919 1700 L890.919 1700 Z " />
<glyph glyph-name="quotedblright" unicode="&#x201d;" horiz-adv-x="726" d="M620.087 1381 Q581.087 1381 565.584 1413 Q557.692 1428 559.941 1444 Q561.909 1458 571.876 1472 L706.703 1670 Q730.482 1704 771.482 1704 L890.482 1704 Q933.482 1704 945.563 1669 Q951.455 1654 949.487 1640 Q946.957 1622 931.568 1605 L752.881 1408 Q729.087 1381 694.087 1381 L620.087 1381 Z M269.087 1381 Q230.087 1381 214.584 1413 Q206.692 1428 208.941 1444 Q210.909 1458 220.876 1472 L355.844 1671 Q377.482 1704 420.482 1704 L539.482 1704 Q582.482 1704 594.563 1669 Q600.455 1654 598.487 1640 Q595.957 1622 580.568 1605 L401.881 1408 Q378.087 1381 343.087 1381 L269.087 1381 Z " />
<glyph glyph-name="quotedblbase" unicode="&#x201e;" horiz-adv-x="726" d="M408.292 -126 Q369.292 -126 353.789 -94 Q345.897 -79 348.146 -63 Q350.113 -49 360.081 -35 L494.908 163 Q518.687 197 559.687 197 L678.687 197 Q721.687 197 733.768 162 Q739.66 147 737.692 133 Q735.162 115 719.773 98 L541.086 -99 Q517.292 -126 482.292 -126 L408.292 -126 Z M57.2919 -126 Q18.2919 -126 2.78916 -94 Q-5.10273 -79 -2.85407 -63 Q-0.886501 -49 9.08107 -35 L144.049 164 Q165.687 197 208.687 197 L327.687 197 Q370.687 197 382.768 162 Q388.66 147 386.692 133 Q384.162 115 368.773 98 L190.086 -99 Q166.292 -126 131.292 -126 L57.2919 -126 Z " />
<glyph glyph-name="bullet" unicode="&#x2022;" horiz-adv-x="424" d="M100.908 718 Q112.854 803 182.857 863.5 Q252.86 924 342.86 924 Q431.86 924 484.287 863 Q536.714 802 524.908 718 Q513.103 634 442.889 572 Q372.676 510 283.676 510 Q192.676 510 140.819 571.5 Q88.9623 633 100.908 718 Z " />
<glyph glyph-name="ellipsis" unicode="&#x2026;" horiz-adv-x="1727" d="M1509.59 -195 Q1429.59 -195 1384.46 -139 Q1342.48 -82 1354.14 1 Q1366.23 87 1424.96 142 Q1485.83 198 1569.83 198 Q1651.83 198 1695.1 143 Q1738.51 89 1727.14 1 Q1715.48 -82 1657.46 -139 Q1596.59 -195 1511.59 -195 L1509.59 -195 Z M832.595 -195 Q752.595 -195 707.465 -139 Q665.476 -82 677.141 1 Q689.227 87 747.957 142 Q808.827 198 892.827 198 Q974.827 198 1018.1 143 Q1060.51 89 1050.14 1 Q1038.48 -82 980.465 -139 Q919.595 -195 835.595 -195 L832.595 -195 Z M156.595 -195 Q75.5945 -195 30.4648 -139 Q-11.5243 -82 0.140541 1 Q12.2271 87 70.9568 142 Q131.827 198 215.827 198 Q297.827 198 342.097 143 Q383.368 88 373.141 1 Q361.476 -82 303.465 -139 Q242.595 -195 158.595 -195 L156.595 -195 Z " />
<glyph glyph-name="guilsinglleft" unicode="&#x2039;" horiz-adv-x="399" d="M438.103 449 Q448.011 427 444.919 405 Q441.827 383 425.595 360 Q391.708 311 333.708 311 Q276.708 311 255.454 359 L118.022 669 Q108.395 693 111.627 716 Q115 740 131.373 764 L356.081 1075 Q390.827 1123 447.827 1123 Q505.827 1123 527.081 1075 Q535.989 1053 532.898 1031 Q529.665 1008 513.573 986 L335.703 745 Q324.735 731 322.627 716 Q320.66 702 327.552 687 L438.103 449 Z " />
<glyph glyph-name="guilsinglright" unicode="&#x203a;" horiz-adv-x="399" d="M263.552 687 Q274.66 702 276.627 716 Q278.735 731 271.703 745 L161.573 986 Q151.665 1008 154.898 1031 Q157.989 1053 173.081 1075 Q207.827 1123 265.827 1123 Q323.827 1123 345.081 1075 L481.373 764 Q492 740 488.627 716 Q485.395 693 468.022 669 L244.454 359 Q209.708 311 151.708 311 Q94.7082 311 72.5947 360 Q63.6866 382 66.638 403 Q70.0109 427 88.2434 450 L263.552 687 Z " />
<glyph glyph-name="&amp;#x2044;" unicode="&#x2044;" horiz-adv-x="845" d="M958.833 1429 Q1004.83 1429 1023.63 1392 Q1031.1 1374 1028.57 1356 Q1026.18 1339 1014.79 1322 L164.903 42 Q138 0 87 0 Q40 0 23.3406 38 Q15.8703 56 18.4 74 Q20.7892 91 32.1784 108 L882.211 1389 Q909.833 1429 958.833 1429 Z " />
<glyph glyph-name="&amp;#x2215;" unicode="&#x2215;" horiz-adv-x="845" d="M958.833 1429 Q1004.83 1429 1023.63 1392 Q1031.1 1374 1028.57 1356 Q1026.18 1339 1014.79 1322 L164.903 42 Q138 0 87 0 Q40 0 23.3406 38 Q15.8703 56 18.4 74 Q20.7892 91 32.1784 108 L882.211 1389 Q909.833 1429 958.833 1429 Z " />
<glyph glyph-name="Euro" unicode="&#x20ac;" horiz-adv-x="1088" d="M1036.22 151 Q1035.96 142 1034.69 133 Q1031.6 111 1017.79 91 Q996.151 58 960.324 45 Q847 0 733 0 Q592 0 480.854 63 Q368.849 127 308.292 244 Q246.892 355 242.941 519 L178.941 519 Q155.941 519 141.049 534 Q128.157 549 130.968 569 L138.135 620 Q140.806 639 159.054 655 Q176.162 670 200.162 670 L245.162 670 L250.222 706 L255.719 738 L261.216 770 L212.216 770 Q188.216 770 175.325 785 Q161.573 801 164.243 820 L171.411 871 Q174.222 891 192.471 907 Q208.438 921 233.438 921 L303.438 921 Q362.049 1089 471.773 1208 Q567.53 1313 684.681 1371 Q805.833 1429 937.833 1429 Q1040.83 1429 1132.48 1398 Q1167.65 1385 1183.15 1353 Q1192.06 1331 1188.83 1308 Q1187.28 1297 1183.88 1287 L1165.43 1234 Q1150.81 1194 1111.57 1171 Q1083.32 1155 1054.32 1155 Q1040.32 1155 1025.89 1159 Q972.995 1174 921.995 1174 Q781.995 1174 682.114 1061 Q636.946 1010 602.438 921 L1010.44 921 Q1034.44 921 1049.33 906 Q1062.22 891 1059.41 871 L1052.24 820 Q1049.57 801 1031.32 785 Q1014.22 770 989.216 770 L554.216 770 Q549.265 749 542.941 704 L538.162 670 L975.162 670 Q1000.16 670 1013.05 655 Q1026.81 639 1024.14 620 L1016.97 569 Q1014.16 549 997.049 534 Q977.941 519 953.941 519 L542.941 519 Q549.449 423 583 370 Q651.822 262 802.822 262 Q855.822 262 914.93 277 Q930.492 281 944.492 281 Q973.492 281 998.243 265 Q1031.15 243 1033.25 201 L1036.22 151 Z " />
<glyph glyph-name="uni2116" unicode="&#x2116;" horiz-adv-x="1642" d="M1000.65 1385 Q1040.65 1385 1065.43 1355 Q1086.36 1326 1080.88 1287 L913.773 98 Q908.292 59 879.216 30 Q846 0 806 0 L671 0 Q641 0 619.389 17 Q597.778 34 591.573 61 L472.627 531 Q451.135 620 423.373 764 L411.946 825 L400.66 887 Q386.2 962 383.103 1004 Q346.335 657 309.654 396 L267.773 98 Q262.151 58 231.357 31 Q200 0 158 0 L95 0 Q54 0 31.3568 31 Q8.15137 58 13.773 98 L180.876 1287 Q186.217 1325 217.433 1355 Q248.649 1385 289.649 1385 L446.649 1385 Q476.649 1385 499.26 1368 Q519.73 1350 526.076 1324 L638.411 871 Q679.816 696 730.903 412 L731.903 412 Q743.411 686 787.541 1000 L827.876 1287 Q833.217 1325 863.433 1355 Q896.649 1385 936.649 1385 L1000.65 1385 Z M1586.94 519 Q1619.94 519 1641.43 494 Q1659.19 471 1654.7 439 Q1650.34 408 1626.11 385 Q1597.59 360 1564.59 360 L1162.59 360 Q1128.59 360 1110.11 385 Q1091.2 407 1095.7 439 Q1100.34 472 1125.43 494 Q1150.94 519 1184.94 519 L1586.94 519 Z M1478.81 1194 Q1430.81 1194 1391.41 1120 Q1357.69 1058 1345.89 974 Q1332.96 882 1355.38 821 Q1377.09 762 1419.09 762 Q1468.09 762 1502.52 822 Q1538.68 880 1552.59 979 Q1564.96 1067 1547.25 1126 Q1526.81 1194 1479.81 1194 L1478.81 1194 Z M1395.61 602 Q1248.61 602 1171.38 700 Q1092.85 803 1116.61 972 Q1140.78 1144 1247.39 1248 Q1354.15 1353 1506.15 1353 L1508.15 1353 Q1658.15 1353 1730.68 1250 Q1803.2 1147 1780.43 985 Q1753.87 796 1643.68 695 Q1540.61 602 1395.61 602 Z " />
<glyph glyph-name="trademark" unicode="&#x2122;" horiz-adv-x="1126" d="M1015.76 1400 Q1044.65 1506 1062.82 1557 L1097.89 1650 Q1106.98 1672 1125.81 1685 Q1148.06 1701 1173.06 1701 L1295.06 1701 Q1326.06 1701 1342.39 1682 Q1359.58 1662 1356.07 1637 L1291.4 1184 Q1287.89 1159 1265.08 1139 Q1243.41 1120 1213.41 1120 Q1182.41 1120 1166.08 1139 Q1149.75 1158 1152.98 1181 L1185.72 1414 Q1207.52 1562 1213.01 1601 Q1170.21 1453 1149.52 1377 L1086.54 1185 Q1080.31 1162 1059.2 1147 Q1036.95 1131 1010.95 1131 L944.952 1131 Q917.952 1131 900.06 1146 Q884.308 1162 883.4 1184 L873.525 1377 Q874.925 1451 874.022 1594 L848.725 1414 Q840.995 1359 832.298 1290 L817.4 1184 Q813.887 1159 791.076 1139 Q769.406 1120 738.406 1120 Q708.406 1120 692.076 1139 Q674.887 1159 678.4 1184 L742.065 1637 Q745.438 1661 765.109 1680 Q789.06 1701 819.06 1701 L943.06 1701 Q968.06 1701 985.811 1685 Q1000.98 1672 1003.89 1650 L1011.82 1557 Q1015.65 1506 1015.76 1400 Z M615.06 1701 Q648.06 1701 666.109 1680 Q685.017 1658 681.082 1630 Q677.006 1601 651.914 1579 Q627.963 1558 594.963 1558 L526.963 1558 L475.384 1191 Q471.449 1163 446.357 1141 Q422.406 1120 388.406 1120 L376.406 1120 Q343.406 1120 323.638 1143 Q307.59 1164 311.384 1191 L362.963 1558 L294.963 1558 Q261.963 1558 243.914 1579 Q225.006 1601 229.082 1630 Q233.017 1658 258.109 1680 Q282.06 1701 315.06 1701 L615.06 1701 Z " />
<glyph glyph-name="partialdiff" unicode="&#x2202;" horiz-adv-x="975" d="M714.535 509 Q725.47 537 729.124 563 Q737.557 623 710.006 676 Q671.125 748 592.546 751 L586.546 751 Q506.546 751 441.443 672 Q376.06 591 359.476 473 Q345.141 371 381.989 313 Q415.541 260 480.541 260 L482.541 260 Q547.541 260 612.66 332 Q675.357 401 714.535 509 Z M638.195 1581 Q757.195 1581 853.465 1526 Q946.876 1472 1007.96 1373 Q1138.03 1160 1089.54 815 Q1035.85 433 839.373 209 Q749.178 108 639.589 54 Q530 0 414 0 Q215 0 120.346 159 Q41.319 294 66.7569 475 Q97.957 697 230.757 845 Q369.541 1000 556.541 1000 Q657.541 1000 730.671 944 Q787.487 900 808.898 846 L810.757 845 L810.973 875 Q836.519 1071 768.087 1196 Q701.373 1319 564.373 1319 Q476.373 1319 393.595 1285 Q375.611 1278 356.611 1278 Q337.611 1278 318.876 1287 Q287.125 1303 278.465 1341 L268.227 1382 Q263.757 1400 266.287 1418 Q268.676 1435 276.925 1451 Q292.844 1486 328.373 1504 Q394.011 1537 461.822 1557 Q549.195 1581 638.195 1581 Z " />
<glyph glyph-name="Delta" unicode="&#x2206;" horiz-adv-x="1029" d="M661.265 1119 Q640.271 1055 609.606 972 Q574.13 869 550.135 805 L382.951 391 Q376.703 375 374.595 360 Q370.097 328 386.303 301 Q406.103 264 447.103 264 L636.103 264 Q678.103 264 709.443 302 Q732.238 329 736.735 361 Q738.843 376 737.092 392 L685.465 786 Q678.254 877 672.357 956 Q663.973 1060 661.265 1119 Z M1051.91 163 L1042.91 99 Q1037.43 60 1007.22 30 Q974 0 933 0 L96 0 Q54 0 31.2162 30 Q8.43245 60 13.9135 99 L22.6271 161 L510.811 1315 Q523.168 1346 550.838 1365 Q578.93 1387 612.93 1387 L816.93 1387 Q850.93 1387 872.838 1365 Q895.168 1346 898.811 1315 L1051.91 163 Z " />
<glyph glyph-name="product" unicode="&#x220f;" horiz-adv-x="1202" d="M1331.21 1574 Q1371.21 1574 1394 1544 Q1415.34 1518 1410 1480 L1399.04 1402 Q1393.98 1366 1364.9 1337 Q1332.83 1308 1293.83 1308 Q1261.83 1308 1234.17 1282 Q1205.38 1255 1199.62 1214 L1042.35 95 Q1037.01 57 1008.08 29 Q976 0 937 0 L849 0 Q810 0 786.076 29 Q765.011 57 770.351 95 L927.617 1214 Q933.379 1255 912.173 1282 Q891.827 1308 859.827 1308 L710.827 1308 Q678.827 1308 651.173 1282 Q621.379 1255 615.617 1214 L458.351 95 Q453.011 57 424.076 29 Q392 0 354 0 L265 0 Q225 0 201.935 28 Q181.011 57 186.351 95 L343.617 1214 Q349.379 1255 328.033 1281 Q307.827 1308 275.827 1308 Q234.827 1308 213.044 1338 Q191.979 1366 197.038 1402 L208 1480 Q213.2 1517 242.136 1545 Q272.211 1574 313.211 1574 L1331.21 1574 Z " />
<glyph glyph-name="summation" unicode="&#x2211;" horiz-adv-x="984" d="M927.384 266 Q967.384 266 992.168 236 Q1013.09 207 1007.75 169 L997.632 97 Q992.292 59 963.216 30 Q930 0 890 0 L95 0 Q54 0 30.3568 31 Q8.15137 58 13.6325 97 L25.5784 182 L466.47 722 Q487.125 748 491.762 781 L492.184 784 Q496.541 815 482.054 840 L211.838 1365 L227.438 1476 Q233.06 1516 263.995 1544 Q295.211 1574 336.211 1574 L1061.21 1574 Q1101.21 1574 1125.14 1545 Q1146.92 1515 1141.44 1476 L1131.6 1406 Q1126.12 1367 1095.9 1337 Q1063.83 1308 1023.83 1308 L573.827 1308 Q572.827 1308 571.984 1302 Q571.563 1299 573.281 1297 L800.319 849 Q813.806 824 809.589 794 Q804.233 763 784.86 739 L410.93 277 Q409.649 275 409.227 272 Q408.384 266 409.384 266 L927.384 266 Z " />
<glyph glyph-name="minus" unicode="&#x2212;" horiz-adv-x="902" d="M915.103 819 Q958.103 819 984.887 789 Q1008.95 761 1003.47 722 L1002.63 716 Q997.146 677 964.07 648 Q930.995 619 886.995 619 L188.995 619 Q144.995 619 120.352 650 Q95.1461 677 100.627 716 L101.47 722 Q106.952 761 141.168 791 Q173.103 819 217.103 819 L915.103 819 Z " />
<glyph glyph-name="radical" unicode="&#x221a;" horiz-adv-x="1092" d="M576.416 67 Q578.962 78 581.805 84 Q589.178 108 595.13 129 Q612.719 183 629.043 228 L1127.58 1662 Q1132.97 1679 1149.65 1691 Q1163.2 1702 1183.2 1702 L1276.2 1702 Q1303.2 1702 1315.39 1682 Q1323.56 1669 1321.31 1653 Q1320.61 1648 1318.63 1641 L656.205 -212 Q651.097 -227 637.411 -239 Q620.584 -252 599.584 -252 L480.584 -252 Q443.584 -252 436.503 -217 L269.995 619 L172.092 577 Q161.53 573 151.53 573 Q137.53 573 128.373 579 Q109.638 588 106.589 609 L97.3353 657 Q95.3191 664 96.3029 671 Q97.8488 682 104.254 692 Q112.643 709 132.049 719 L387.789 831 Q399.633 837 412.633 837 Q425.633 837 434.789 831 Q453.525 822 456.573 801 L558.2 222 Q565.297 180 571.13 129 Q573.319 109 575.087 86 Q575.822 77 576.416 67 Z " />
<glyph glyph-name="infinity" unicode="&#x221e;" horiz-adv-x="1306" d="M1063.42 558 Q1114.42 558 1158.75 603 Q1205.49 651 1214.77 717 Q1224.75 788 1192.21 834 Q1163.25 877 1112.25 877 Q1066.25 877 1011.05 840 Q972.541 815 911.389 757 Q895.281 742 892.189 720 Q889.098 698 900.849 682 Q919.914 654 932.806 639 Q955.152 613 972.903 597 Q1016.42 558 1061.42 558 L1063.42 558 Z M397.422 558 Q442.422 558 496.481 594 Q535.135 620 597.287 678 Q612.535 694 615.487 715 Q618.579 737 607.827 753 Q587.762 781 573.011 797 Q554.525 822 535.773 838 Q491.254 877 446.254 877 Q393.254 877 348.93 832 Q302.184 784 292.768 717 Q282.93 647 315.325 600 Q345.422 558 395.422 558 L397.422 558 Z M1035.88 362 Q942.876 362 857.995 434 Q825.07 463 788.114 506 Q766.768 532 733.092 577 L697.454 544 L655.973 505 Q606.789 461 567.995 434 Q463.876 362 355.876 362 Q218.876 362 147.492 466 Q79.4056 565 100.768 717 Q121.287 863 220.481 964 Q327.8 1073 469.8 1073 Q563.8 1073 649.4 999 Q682.465 971 719.422 928 Q739.908 903 774.443 857 L810.222 891 L851.703 930 Q900.746 973 939.541 1000 Q1044.8 1073 1152.8 1073 Q1288.8 1073 1360.04 968 Q1428.13 869 1406.77 717 Q1386.39 572 1287.05 470 Q1179.88 362 1037.88 362 L1035.88 362 Z " />
<glyph glyph-name="integral" unicode="&#x222b;" horiz-adv-x="630" d="M794.606 1712 Q830.184 1709 847.39 1682 Q860.719 1663 857.487 1640 Q856.784 1635 854.8 1628 L840.914 1579 Q834.119 1552 809.59 1534 Q784.919 1515 772.919 1515 Q697.919 1515 659.909 1458 Q610.649 1385 576.498 1142 Q554.573 986 525.989 683 Q512.049 534 503.103 449 Q488.411 316 471.546 196 Q434.584 -67 353.876 -193 Q303.351 -275 228.308 -318 Q159.827 -357 79.8269 -357 Q48.8269 -357 20.3891 -353 Q-13.9082 -348 -29.1136 -321 Q-40.3028 -301 -37.0704 -278 Q-36.2271 -272 -34.5244 -267 L-16.5136 -210 Q-8.71897 -183 14.8108 -165 Q42.481 -146 73.481 -146 L82.481 -146 Q125.481 -146 163.805 -101 Q220.065 -28 250.422 188 Q267.427 309 282.822 447 Q291.627 531 306.13 684 Q335.838 995 359.308 1162 Q382.919 1330 425.379 1440 Q466.573 1541 535.973 1615 Q629.746 1713 765.746 1713 Q779.746 1713 794.606 1712 Z " />
<glyph glyph-name="approxequal" unicode="&#x2248;" horiz-adv-x="1015" d="M123.903 782 Q113.714 802 116.946 825 L117.508 829 Q121.162 855 140.973 875 Q282.335 1027 437.335 1027 Q504.335 1027 565.541 1000 Q587.135 990 613.887 974 L636.06 961 L657.373 949 L676.687 937 L696.141 926 Q721.033 911 739.049 904 Q791.395 878 843.395 878 Q911.395 878 988.671 944 Q1018.04 968 1052.04 968 L1058.04 968 Q1097.76 966 1116.55 936 L1122.7 930 Q1135.75 909 1133.96 882 Q1130.3 856 1112.21 834 Q1050.23 763 978.752 724 Q897.568 680 817.568 680 Q752.568 680 689.503 708 Q668.768 717 640.016 733 L616.843 746 Q603.827 753 595.53 758 L575.935 768 L555.622 780 Q529.871 796 512.854 803 Q460.508 829 407.508 829 Q335.508 829 257.654 766 Q229.422 743 195.422 743 L185.422 743 Q144.984 747 126.481 779 L123.903 782 Z M1062.88 483 Q1076.93 462 1074.14 435 L1073.29 429 Q1070.2 407 1053.39 387 Q991.13 314 916.087 271 Q834.903 227 753.903 227 Q689.903 227 626.838 255 Q606.103 264 577.351 280 L554.038 292 Q542.162 300 533.724 304 L513.411 316 L492.957 327 Q468.206 343 451.189 350 Q397.843 376 341.843 376 Q274.843 376 197.13 314 Q167.897 291 133.897 291 L123.897 291 Q83.7406 297 66.0974 328 L63.6596 332 Q53.4704 352 56.8434 376 L57.265 379 Q60.7785 404 79.7299 425 Q140.146 492 214.627 531 Q294.67 574 373.67 574 Q440.67 574 503.876 547 Q524.33 536 553.222 521 L574.395 508 L594.708 496 L616.162 485 L634.335 472 Q660.368 458 678.243 450 Q729.73 425 781.73 425 Q856.73 425 933.724 489 Q961.097 513 997.097 513 L1003.1 513 Q1041.96 512 1062.88 483 Z " />
<glyph glyph-name="lessequal" unicode="&#x2264;" horiz-adv-x="903" d="M829 185 Q872 185 896.924 156 Q918.27 130 912.93 92 Q907.73 55 879.076 29 Q846 0 803 0 L100 0 Q57 0 33.7946 27 Q9.72975 55 14.9298 92 Q20.2703 130 52.2055 158 Q83.0001 185 126 185 L829 185 Z M906.724 489 Q934.319 479 950.665 453 Q963.151 428 958.935 398 L958.795 397 Q951.627 346 902.551 317 Q872.881 298 841.881 298 Q820.881 298 800.146 307 L145.325 600 Q119.152 613 105.665 638 Q93.038 662 96.9732 690 L105.968 754 Q109.903 782 130.557 808 Q149.93 832 180.616 844 L916.654 1136 Q937.779 1144 958.779 1144 Q989.779 1144 1015.11 1125 Q1054.03 1096 1046.87 1045 Q1042.79 1016 1022.14 990 Q1002.76 966 970.216 955 L352.752 724 Q351.752 724 351.33 721 Q350.908 718 351.908 718 L906.724 489 Z " />
<glyph glyph-name="greaterequal" unicode="&#x2265;" horiz-adv-x="903" d="M829 185 Q872 185 896.924 156 Q918.27 130 912.93 92 Q907.73 55 879.076 29 Q846 0 803 0 L100 0 Q57 0 33.7946 27 Q9.72975 55 14.9298 92 Q20.2703 130 52.2055 158 Q83.0001 185 126 185 L829 185 Z M958.476 843 Q986.93 832 999.276 806 Q1012.9 782 1008.97 754 L999.973 690 Q996.038 662 975.665 638 Q957.152 613 925.325 600 L189.146 307 Q165.881 298 144.881 298 Q113.881 298 88.5514 317 Q48.6271 346 55.7947 397 L55.9353 398 Q60.1515 428 81.5245 452 Q101.179 478 133.724 489 L751.768 717 Q752.908 718 753.33 721 Q753.752 724 752.892 725 L200.216 955 Q171.762 966 158.417 992 Q144.789 1016 148.865 1045 Q156.033 1096 204.108 1125 Q234.779 1144 265.779 1144 Q286.779 1144 305.654 1136 L958.476 843 Z " />
<glyph glyph-name="&amp;#xf001;" unicode="&#xf001;" horiz-adv-x="969" d="M222.752 724 Q227.108 755 202.108 755 Q161.108 755 137.903 782 Q113.838 810 119.179 848 L124.519 886 Q129.719 923 159.514 950 Q192.589 979 233.589 979 Q258.589 979 262.946 1010 L264.492 1021 Q292.319 1219 441.2 1332 Q585.8 1443 805.8 1443 Q903.8 1443 992.146 1417 Q1028.6 1406 1042.96 1373 Q1052.01 1352 1048.78 1329 Q1047.23 1318 1043.83 1308 L1024.8 1258 Q1009.46 1220 973.508 1199 Q947.541 1185 920.541 1185 Q908.541 1185 895.963 1188 Q841.071 1203 780.071 1203 Q583.071 1203 556.368 1013 L555.946 1010 Q551.589 979 576.589 979 L1010.59 979 Q1051.59 979 1076.51 950 Q1098.72 923 1093.52 886 L982.07 93 Q976.87 56 947.076 29 Q914 0 873 0 L771 0 Q729 0 704.076 29 Q683.011 57 688.07 93 L776.752 724 Q781.108 755 755.108 755 L547.108 755 Q522.108 755 517.752 724 L429.07 93 Q423.87 56 394.076 29 Q361 0 319 0 L218 0 Q176 0 151.076 29 Q128.87 56 134.07 93 L222.752 724 Z " />
<glyph glyph-name="&amp;#xfb01;" unicode="&#xfb01;" horiz-adv-x="969" d="M222.752 724 Q227.108 755 202.108 755 Q161.108 755 137.903 782 Q113.838 810 119.179 848 L124.519 886 Q129.719 923 159.514 950 Q192.589 979 233.589 979 Q258.589 979 262.946 1010 L264.492 1021 Q292.319 1219 441.2 1332 Q585.8 1443 805.8 1443 Q903.8 1443 992.146 1417 Q1028.6 1406 1042.96 1373 Q1052.01 1352 1048.78 1329 Q1047.23 1318 1043.83 1308 L1024.8 1258 Q1009.46 1220 973.508 1199 Q947.541 1185 920.541 1185 Q908.541 1185 895.963 1188 Q841.071 1203 780.071 1203 Q583.071 1203 556.368 1013 L555.946 1010 Q551.589 979 576.589 979 L1010.59 979 Q1051.59 979 1076.51 950 Q1098.72 923 1093.52 886 L982.07 93 Q976.87 56 947.076 29 Q914 0 873 0 L771 0 Q729 0 704.076 29 Q683.011 57 688.07 93 L776.752 724 Q781.108 755 755.108 755 L547.108 755 Q522.108 755 517.752 724 L429.07 93 Q423.87 56 394.076 29 Q361 0 319 0 L218 0 Q176 0 151.076 29 Q128.87 56 134.07 93 L222.752 724 Z " />
<glyph glyph-name="&amp;#xf002;" unicode="&#xf002;" horiz-adv-x="957" d="M218.379 700 Q222.595 730 197.595 730 Q156.595 730 133.389 757 Q110.184 784 115.243 820 L120.443 857 Q125.503 893 155.157 919 Q188.092 947 228.092 947 Q253.092 947 257.308 977 L258.854 988 Q284.854 1173 438.157 1289 Q583.336 1397 801.336 1397 Q966.336 1397 1087.89 1344 Q1142.51 1320 1134.22 1261 L969.649 90 Q964.589 54 934.935 28 Q902 0 862 0 L762 0 Q720 0 697.654 26 Q673.589 54 678.649 90 L828.887 1159 Q801.557 1178 729.557 1178 Q574.557 1178 547.292 984 L546.308 977 Q542.092 947 567.092 947 L611.092 947 Q651.092 947 676.157 919 Q698.503 893 693.443 857 L688.243 820 Q683.184 784 652.389 757 Q621.595 730 580.595 730 L537.595 730 Q513.595 730 509.379 700 L423.649 90 Q418.589 54 386.654 26 Q357 0 315 0 L215 0 Q175 0 149.935 28 Q127.589 54 132.649 90 L218.379 700 Z " />
<glyph glyph-name="&amp;#xfb02;" unicode="&#xfb02;" horiz-adv-x="957" d="M218.379 700 Q222.595 730 197.595 730 Q156.595 730 133.389 757 Q110.184 784 115.243 820 L120.443 857 Q125.503 893 155.157 919 Q188.092 947 228.092 947 Q253.092 947 257.308 977 L258.854 988 Q284.854 1173 438.157 1289 Q583.336 1397 801.336 1397 Q966.336 1397 1087.89 1344 Q1142.51 1320 1134.22 1261 L969.649 90 Q964.589 54 934.935 28 Q902 0 862 0 L762 0 Q720 0 697.654 26 Q673.589 54 678.649 90 L828.887 1159 Q801.557 1178 729.557 1178 Q574.557 1178 547.292 984 L546.308 977 Q542.092 947 567.092 947 L611.092 947 Q651.092 947 676.157 919 Q698.503 893 693.443 857 L688.243 820 Q683.184 784 652.389 757 Q621.595 730 580.595 730 L537.595 730 Q513.595 730 509.379 700 L423.649 90 Q418.589 54 386.654 26 Q357 0 315 0 L215 0 Q175 0 149.935 28 Q127.589 54 132.649 90 L218.379 700 Z " />
<glyph glyph-name="notequal" unicode="&#x2260;" horiz-adv-x="970" d="M307.903 42 Q279 0 228 0 L227 0 Q177 0 158.762 41 Q150.432 60 153.103 79 Q155.632 97 168.162 115 L191.66 147 Q200.487 160 202.032 171 Q203.719 183 198.265 194 Q188.216 215 168.216 215 L133.216 215 Q88.2163 215 63.573 246 Q38.3676 273 43.9893 313 L44.1298 314 Q49.7515 354 83.9677 384 Q115.903 412 160.903 412 L356.903 412 Q378.903 412 392.854 433 L508.325 600 Q515.73 610 517.276 621 Q518.962 633 512.789 646 Q503.6 666 483.6 666 L196.6 666 Q151.6 666 127.535 694 Q101.752 724 107.373 764 L107.514 765 Q113.135 805 145.071 833 Q179.427 864 224.427 864 L671.427 864 Q693.427 864 707.519 886 L809.6 1036 Q837.644 1079 889.644 1079 Q939.644 1079 957.881 1038 Q966.211 1019 963.541 1000 Q961.011 982 948.481 964 L924.844 931 Q916.157 919 914.471 907 Q912.925 896 918.379 885 Q928.427 864 948.427 864 L987.427 864 Q1032.43 864 1057.35 835 Q1083.14 805 1077.51 765 L1077.37 764 Q1071.75 724 1038.68 695 Q1003.6 666 959.6 666 L760.6 666 Q738.6 666 724.649 645 L609.46 480 Q600.773 468 599.087 456 Q597.4 444 602.714 432 Q611.903 412 631.903 412 L923.903 412 Q967.903 412 994.827 383 Q1019.75 354 1014.13 314 L1013.99 313 Q1008.37 273 975.433 245 Q941.216 215 896.216 215 L446.216 215 Q424.216 215 409.265 194 L307.903 42 Z " />
<glyph glyph-name="asteriskmath" unicode="&#x2217;" horiz-adv-x="758" d="M836.995 804 Q847.416 807 858.416 807 Q890.416 807 912.325 785 Q939.67 759 933.908 718 L933.768 717 Q928.287 678 894.492 651 Q865.4 629 834.4 629 Q826.4 629 816.541 630 L599.303 671 L601.038 662 L727.741 482 Q745.227 457 740.87 426 Q739.887 419 737.903 412 Q725.141 371 688.33 351 L683.908 348 Q658.941 334 634.941 334 Q618.941 334 603.784 340 Q565.892 355 557.373 394 L510.276 621 L402.373 394 Q383.033 356 340.924 341 Q322.941 334 305.941 334 Q283.941 334 260.908 348 L260.33 351 Q229.422 373 229.903 412 Q229.887 419 230.87 426 Q235.087 456 258.6 481 L436.741 667 L437.162 670 L219.681 631 Q209.541 630 201.541 630 Q169.541 630 146.492 651 Q120.146 677 125.908 718 Q131.67 759 166.325 785 Q193.416 807 225.416 807 Q236.416 807 246.995 804 L447.935 768 L325.076 954 Q309.308 977 313.525 1007 Q314.649 1015 316.773 1023 Q329.395 1063 367.346 1084 L372.768 1087 Q395.735 1101 420.735 1101 Q437.735 1101 453.752 1094 Q488.784 1080 497.303 1041 L538.681 816 L651.303 1041 Q670.925 1081 711.892 1095 Q728.735 1101 743.735 1101 Q768.735 1101 786.908 1088 L789.908 1088 Q823.817 1066 824.054 1025 Q823.789 1016 822.665 1008 Q818.449 978 796.076 954 L617.795 767 L617.092 762 L836.995 804 Z " />
<glyph glyph-name="uni222E" unicode="&#x222e;" horiz-adv-x="1026" d="M529.644 894 Q437.903 782 423.427 679 Q410.638 588 438.503 523 Q464.93 462 484.946 455 L485.822 447 Q494.627 531 509.13 684 Q522.243 820 529.644 894 Z M750.065 897 Q742.665 823 728.989 683 Q715.049 534 706.103 449 L710.179 478 Q773.719 553 793.946 640 Q800.179 663 803.27 685 Q812.546 751 798.416 807 Q777.379 885 750.065 897 Z M553.752 1094 Q556.968 1124 562.308 1162 Q585.919 1330 628.379 1440 Q669.573 1541 738.973 1615 Q832.746 1713 968.746 1713 Q982.746 1713 997.606 1712 Q1033.18 1709 1050.39 1682 Q1063.72 1663 1060.49 1640 Q1059.78 1635 1057.8 1628 L1043.91 1579 Q1037.12 1552 1012.59 1534 Q987.919 1515 975.919 1515 Q900.919 1515 862.909 1458 Q813.649 1385 779.498 1142 L773.876 1102 Q903.33 1091 1004.95 1010 Q1151.64 894 1122.69 688 Q1094.87 490 921.719 368 Q806.195 286 684.103 264 L674.546 196 Q637.584 -67 556.876 -193 Q506.351 -275 431.308 -318 Q362.827 -357 282.827 -357 Q251.827 -357 223.389 -353 Q189.092 -348 173.886 -321 Q162.697 -301 165.93 -278 Q166.773 -272 168.476 -267 L186.486 -210 Q194.281 -183 217.811 -165 Q245.481 -146 276.481 -146 L285.481 -146 Q328.481 -146 366.805 -101 Q423.065 -28 453.422 188 L462.557 253 Q331.822 262 226.206 343 Q81.8055 454 100.773 653 Q101.319 664 103.006 676 Q129.568 865 294.292 984 Q418.8 1073 553.752 1094 Z " />
<glyph glyph-name="Amacron" unicode="&#x100;" horiz-adv-x="1093" d="M742.919 1145 Q734.546 1121 721.346 1084 L699.211 1019 Q672.389 942 654.925 896 L559.054 655 Q555.93 647 554.946 640 Q552.557 623 562.449 608 Q571.919 590 591.919 590 L751.919 590 Q771.919 590 786.589 609 Q800.557 623 802.946 640 Q804.07 648 803.195 656 L772.925 896 Q764.952 946 758.492 1021 Q756.146 1047 754.346 1084 L750.844 1116 L749.06 1146 Q747.919 1145 742.919 1145 Z M1174.9 106 Q1176.93 92 1175.1 79 Q1170.89 49 1149.09 22 Q1116.19 -20 1067.19 -20 L936.189 -20 Q903.189 -20 883 0 Q861.811 20 857.887 49 L823.849 312 Q818.908 348 786.908 348 L489.908 348 Q457.908 348 443.708 311 L341.168 51 Q328.811 20 303.141 1 Q276.189 -20 243.189 -20 L124.189 -20 Q75.1892 -20 54.0919 22 Q39.8865 49 44.1027 79 Q45.9298 92 51.8973 106 L568.746 1343 Q581.103 1374 607.914 1394 Q635.725 1414 667.725 1414 L921.725 1414 Q953.725 1414 976.914 1394 Q996.963 1373 1000.75 1343 L1174.9 106 Z M1099.71 1727 Q1096.34 1703 1075.67 1684 Q1051.86 1664 1022.86 1664 L641.86 1664 Q612.86 1664 594.671 1684 Q579.341 1703 582.714 1727 L590.163 1780 Q593.395 1803 613.065 1822 Q637.017 1843 667.017 1843 L1048.02 1843 Q1078.02 1843 1096.07 1822 Q1110.4 1803 1107.16 1780 L1099.71 1727 Z " />
<glyph glyph-name="amacron" unicode="&#x101;" horiz-adv-x="934" d="M681.26 443 Q684.492 466 672.741 482 Q661.427 494 644.427 494 L642.427 494 Q525.584 488 446.103 449 Q352.778 404 341.676 325 Q333.524 267 388.027 235 Q433.232 208 492.232 208 Q543.232 208 589.87 241 Q635.508 274 659.816 326 Q668.47 352 672.827 383 L681.26 443 Z M652.757 105 Q598.465 46 521.827 13 Q446.189 -20 368.189 -20 L359.189 -20 Q212.751 -16 138.384 81 Q68.173 172 86.0217 299 Q113.146 492 278.762 596 Q438.816 696 698.957 697 Q707.957 697 710.065 712 Q717.795 767 688.714 802 Q653.898 846 558.898 846 Q474.898 846 384.541 815 Q364.557 808 346.557 808 Q322.557 808 301.103 819 Q267.195 841 260.957 882 L259.784 895 Q258.611 908 260.579 922 Q263.53 943 276.481 964 Q297.541 1000 337.368 1013 Q480.957 1067 642.957 1067 Q871.957 1067 960.984 932 Q1036.24 820 1007.99 619 L935.195 101 Q928.573 61 898.638 33 Q864.422 3 821.281 2 L739 0 Q696 0 668.638 33 Q646.432 60 651.773 98 L652.757 105 Z M926.092 1317 Q922.719 1293 902.049 1274 Q878.238 1254 849.238 1254 L468.238 1254 Q439.238 1254 421.049 1274 Q405.719 1293 409.092 1317 L416.541 1370 Q419.773 1393 439.444 1412 Q463.395 1433 493.395 1433 L874.395 1433 Q904.395 1433 922.444 1412 Q936.773 1393 933.541 1370 L926.092 1317 Z " />
</font>
</svg>
