<?xml version="1.0" encoding="UTF-8"?>
<svg xmlns="http://www.w3.org/2000/svg" xmlns:xlink="http://www.w3.org/1999/xlink" version="1.2" >
<font id="Carson Regular">
<font-face  font-family="Carson" units-per-em="2048" ascent="1511" descent="-446" font-style="normal" font-weight="400" font-stretch="normal" cap-height="1434" x-height="1040" underline-position="-217" underline-thickness="150" />
<missing-glyph  horiz-adv-x="644" d="M261 330 Q326 330 366 287 Q407 243 409 172 Q409 102 367 57 Q326 13 261 13 Q197 13 157 56 Q116 102 116 172 Q116 242 157 287 Q197 330 261 330 Z M290 1424 Q466 1424 560 1333 Q644 1254 644 1127 Q644 1029 591 939 Q570 902 537 861 Q525 845 510 826 L495 810 L480 792 Q368 662 368 512 L368 504 Q368 501 367 500 L186 500 Q178 500 173 505 Q167 512 166 523 Q165 534 165 544 Q165 691 279 833 Q339 910 364 950 Q404 1018 404 1076 Q404 1230 221 1238 Q161 1238 93 1216 Q84 1213 75 1213 Q63 1213 50 1219 Q30 1230 22 1256 L8 1300 Q5 1309 5 1318 Q5 1332 12 1346 Q24 1370 45 1378 Q160 1424 290 1424 Z " />
<glyph glyph-name="&amp;#x0;" horiz-adv-x="20" d="" />
<glyph glyph-name="&amp;#x1d;" unicode="&#x1d;" horiz-adv-x="20" d="" />
<glyph glyph-name="&amp;#x20;" unicode="&#x20;" horiz-adv-x="404" d="" />
<glyph glyph-name="&amp;#xa0;" unicode="&#xa0;" horiz-adv-x="404" d="" />
<glyph glyph-name="exclam" unicode="&#x21;" horiz-adv-x="457" d="M103 1336 L103 1341 Q103 1366 120 1385 Q137 1403 161 1403 L287 1403 Q311 1403 329 1384 Q345 1366 345 1342 L345 1336 L310 570 Q308 544 291 527 Q275 510 252 510 L198 510 Q175 510 159 527 Q142 544 140 570 L103 1336 Z M78 175 Q78 246 120 290 Q160 333 225 333 Q289 333 329 290 Q369 246 371 175 Q371 104 331 60 Q290 16 225 16 Q160 16 119 60 Q78 105 78 175 Z " />
<glyph glyph-name="quotedbl" unicode="&#x22;" horiz-adv-x="626" d="M250 1664 L257 1664 Q284 1664 301 1641 Q312 1624 312 1605 Q312 1593 308 1581 Q233 1369 137 1193 Q122 1165 93 1163 L86 1163 Q61 1163 45 1184 Q31 1202 31 1222 Q31 1232 34 1243 Q89 1432 122 1610 Q125 1630 140 1644 Q154 1657 174 1659 L250 1664 Z M645 1664 L651 1664 Q678 1664 696 1640 Q708 1624 708 1606 Q708 1594 703 1581 Q627 1364 533 1193 Q519 1165 510 1165 Q500 1164 493 1164 Q455 1164 440 1184 Q426 1202 426 1222 Q426 1232 429 1243 Q484 1432 517 1609 Q520 1630 536 1644 Q550 1658 568 1659 L645 1664 Z " />
<glyph glyph-name="numbersign" unicode="&#x23;" horiz-adv-x="940" d="M610 924 Q611 931 611 937 Q611 966 593 987 Q570 1017 532 1017 L445 1017 Q415 1017 392 996 Q372 977 367 947 L348 809 L348 800 Q348 770 366 748 Q389 718 426 718 L514 718 Q544 718 566 740 Q586 758 591 788 L610 924 Z M869 1154 Q893 1154 911 1136 Q929 1118 929 1091 L929 1081 Q929 1053 911 1035 Q893 1017 869 1017 L742 1017 L701 718 L814 718 Q839 718 856 700 Q874 682 874 655 L874 647 Q874 619 856 601 Q839 583 814 583 L678 583 L635 257 Q632 233 614 217 Q598 202 577 202 L574 202 Q548 202 530 223 Q515 242 515 264 Q515 269 516 273 L557 583 L311 583 L269 257 Q266 233 248 217 Q231 202 210 202 L208 202 Q182 202 164 223 Q149 241 149 263 Q149 268 150 275 L192 583 L83 583 Q59 583 41 601 Q24 619 24 647 L24 655 Q24 682 41 700 Q59 718 83 718 L218 718 L257 1017 L140 1017 Q116 1017 98 1035 Q81 1053 81 1081 L81 1091 Q81 1118 98 1136 Q116 1154 140 1154 L278 1154 L321 1470 Q324 1494 342 1509 Q358 1525 379 1525 Q406 1525 424 1503 Q439 1485 439 1463 Q439 1458 438 1451 L398 1154 L642 1154 L688 1471 Q691 1494 708 1510 Q724 1525 746 1525 Q772 1525 790 1503 Q805 1484 805 1462 Q805 1457 804 1452 L761 1154 L869 1154 Z " />
<glyph glyph-name="dollar" unicode="&#x24;" horiz-adv-x="951" d="M577 759 Q749 696 823 609 Q892 527 892 394 Q892 261 809 165 Q720 64 532 31 L532 -119 Q532 -145 513 -163 Q497 -181 474 -181 L461 -181 Q438 -181 421 -163 Q404 -145 404 -119 L404 19 Q231 28 114 73 Q93 82 82 102 Q75 117 75 132 Q75 140 77 148 L91 205 Q98 233 122 245 Q134 252 146 252 Q156 252 167 247 Q294 198 421 198 Q519 198 581 237 Q651 283 651 365 Q651 441 588 494 Q533 540 413 583 Q242 642 161 720 Q71 807 71 939 Q71 1067 152 1159 Q236 1252 413 1290 L413 1422 Q413 1449 431 1467 Q447 1484 472 1484 L484 1484 Q509 1484 525 1467 Q542 1449 542 1422 L542 1299 Q689 1292 778 1263 Q800 1256 811 1235 Q819 1220 819 1205 Q819 1197 816 1188 L804 1137 Q798 1111 776 1098 Q763 1091 749 1091 Q739 1091 730 1094 Q629 1129 521 1129 Q417 1129 361 1084 Q311 1042 311 975 Q311 906 382 855 Q438 814 577 759 Z " />
<glyph glyph-name="percent" unicode="&#x25;" horiz-adv-x="1732" d="M386 703 Q468 703 510 786 Q545 857 545 982 Q545 1101 512 1171 Q471 1261 384 1261 Q301 1261 256 1171 Q220 1099 220 982 Q220 863 257 789 Q303 703 386 703 Z M714 997 Q714 802 612 688 Q518 586 379 586 Q238 586 147 688 Q51 796 51 973 Q51 1151 144 1264 Q238 1377 390 1377 Q542 1377 629 1272 Q714 1168 714 997 Z M1196 1377 Q1219 1377 1231 1355 Q1238 1343 1238 1331 Q1238 1320 1232 1309 L553 31 Q542 8 518 8 Q495 8 482 30 Q476 41 476 53 Q476 65 482 76 L1158 1354 Q1170 1377 1194 1377 L1196 1377 Z M1334 129 Q1416 129 1459 211 Q1494 282 1494 408 Q1494 686 1334 686 Q1248 686 1205 597 Q1170 525 1170 408 L1170 396 Q1170 285 1206 215 Q1250 129 1334 129 Z M1338 803 Q1490 803 1577 698 Q1663 594 1663 423 Q1663 227 1559 114 Q1467 12 1328 12 Q1188 12 1097 114 Q1001 221 1000 399 Q1000 577 1092 690 Q1186 803 1338 803 Z " />
<glyph glyph-name="ampersand" unicode="&#x26;" horiz-adv-x="1284" d="M685 198 Q722 219 727 259 Q728 266 728 273 Q728 306 706 330 Q617 425 467 604 Q443 631 408 632 L405 632 Q371 632 347 607 Q268 527 268 418 Q268 310 339 236 Q413 158 530 158 Q614 158 685 198 Z M566 1272 Q492 1272 446 1213 Q407 1162 407 1091 Q407 996 477 901 Q499 872 534 868 L543 868 Q572 868 595 885 Q658 935 688 980 Q721 1033 721 1095 Q721 1163 684 1213 Q641 1272 566 1272 Z M1181 772 Q1209 772 1226 749 Q1239 731 1239 710 Q1239 702 1237 694 Q1175 442 1023 264 Q1106 166 1143 121 Q1159 103 1159 82 Q1159 68 1153 54 Q1137 17 1100 17 L991 17 Q967 17 950 37 Q916 75 866 133 Q696 -6 487 -6 Q269 -6 150 112 Q46 214 46 365 Q46 491 112 590 Q172 683 305 755 L305 796 Q255 856 230 922 Q202 994 202 1061 Q202 1196 295 1294 Q399 1405 576 1405 Q724 1405 818 1323 Q912 1239 912 1104 Q912 899 647 759 L636 718 Q675 675 709 634 L738 599 L768 563 Q840 478 909 401 Q1004 554 1041 726 Q1045 746 1062 759 Q1076 772 1097 772 L1181 772 Z " />
<glyph glyph-name="quotesingle" unicode="&#x27;" horiz-adv-x="257" d="M148 1666 Q175 1666 194 1646 Q211 1628 211 1604 L211 1598 L182 1219 Q180 1194 161 1177 Q143 1160 119 1160 Q94 1160 76 1177 Q57 1194 55 1219 L26 1597 L26 1602 Q26 1627 43 1646 Q62 1666 90 1666 L148 1666 Z " />
<glyph glyph-name="parenleft" unicode="&#x28;" horiz-adv-x="453" d="M413 -164 Q419 -177 419 -190 Q419 -208 408 -225 Q392 -253 361 -253 L349 -253 Q317 -253 300 -224 Q215 -81 164 95 Q103 316 103 570 Q105 1036 300 1365 Q317 1393 349 1393 L360 1393 Q391 1393 408 1365 Q418 1349 418 1332 Q418 1319 412 1305 Q274 987 274 567 Q274 159 413 -164 Z " />
<glyph glyph-name="parenright" unicode="&#x29;" horiz-adv-x="465" d="M161 1369 Q246 1225 297 1051 Q358 830 358 576 Q358 321 296 100 Q246 -75 161 -220 Q144 -249 112 -249 L100 -249 Q69 -249 52 -220 Q42 -204 42 -187 Q42 -174 48 -161 Q188 166 188 576 Q188 986 49 1309 Q43 1323 43 1336 Q43 1354 53 1370 Q69 1397 101 1397 L113 1397 Q145 1397 161 1369 Z " />
<glyph glyph-name="asterisk" unicode="&#x2a;" horiz-adv-x="636" d="M624 1377 Q630 1379 636 1379 Q653 1379 668 1365 Q689 1348 689 1320 L689 1319 Q689 1291 669 1274 Q654 1261 637 1261 Q632 1261 626 1262 L400 1303 Q377 1303 366 1282 Q360 1276 360 1268 Q360 1257 372 1245 L522 1067 Q537 1049 537 1028 Q537 1023 536 1018 Q532 990 508 976 L504 973 Q492 966 479 966 Q470 966 460 969 Q436 979 426 1004 L348 1230 Q341 1258 322 1258 Q309 1258 295 1244 L294 1243 L288 1237 L205 1004 Q195 980 170 970 Q159 966 150 966 Q139 966 132 970 L131 972 Q101 991 98 1017 Q97 1023 97 1028 Q97 1048 111 1066 L269 1259 L269 1272 Q269 1305 233 1305 L15 1263 Q9 1262 4 1262 Q-14 1262 -30 1275 Q-49 1292 -49 1320 Q-49 1348 -28 1366 Q-14 1379 3 1379 Q9 1379 16 1377 L223 1334 Q230 1331 236 1331 Q249 1331 251 1329 Q268 1362 268 1367 Q268 1378 258 1388 L111 1573 Q98 1589 98 1609 Q98 1615 99 1621 Q103 1648 126 1662 L132 1666 Q144 1673 157 1673 Q166 1673 176 1669 Q199 1660 209 1635 L288 1408 Q298 1388 318 1388 L319 1388 Q338 1388 348 1408 L429 1635 Q439 1661 462 1670 Q472 1673 480 1673 Q494 1673 509 1664 L512 1663 Q532 1651 536 1624 Q537 1616 537 1610 Q537 1589 524 1573 L374 1388 Q364 1378 364 1367 Q364 1362 366 1358 L366 1355 Q379 1330 397 1330 Q403 1330 409 1332 L624 1377 Z " />
<glyph glyph-name="plus" unicode="&#x2b;" horiz-adv-x="1026" d="M948 805 Q969 805 983 790 Q998 773 998 750 L998 729 Q998 706 984 690 Q969 675 948 675 L575 675 L575 262 Q575 239 559 222 Q545 207 525 207 L496 207 Q477 207 463 222 Q447 239 447 262 L447 675 L73 675 Q53 675 38 690 Q23 706 23 729 L23 750 Q23 773 39 790 Q53 805 73 805 L447 805 L447 1214 Q447 1237 463 1253 Q477 1269 496 1269 L525 1269 Q544 1269 559 1253 Q575 1237 575 1214 L575 805 L948 805 Z " />
<glyph glyph-name="comma" unicode="&#x2c;" horiz-adv-x="284" d="M201 232 L205 232 Q233 232 251 208 Q263 191 263 172 Q263 161 259 149 Q174 -92 78 -269 Q62 -297 33 -300 L15 -301 L6 -301 Q-19 -301 -35 -280 Q-49 -262 -49 -241 Q-49 -232 -47 -222 Q14 -18 47 176 Q50 196 65 210 Q79 223 98 225 L201 232 Z " />
<glyph glyph-name="&amp;#x2d;" unicode="&#x2d;" horiz-adv-x="527" d="M427 790 Q447 790 461 775 Q477 758 477 735 L477 700 Q477 677 461 660 Q447 645 427 645 L66 645 Q46 645 32 660 Q16 677 16 700 L16 735 Q16 758 32 775 Q46 790 66 790 L427 790 Z " />
<glyph glyph-name="&amp;#xad;" unicode="&#xad;" horiz-adv-x="527" d="M427 790 Q447 790 461 775 Q477 758 477 735 L477 700 Q477 677 461 660 Q447 645 427 645 L66 645 Q46 645 32 660 Q16 677 16 700 L16 735 Q16 758 32 775 Q46 790 66 790 L427 790 Z " />
<glyph glyph-name="period" unicode="&#x2e;" horiz-adv-x="309" d="M151 232 Q216 232 256 189 Q297 144 297 70 Q297 -1 255 -48 Q215 -91 150 -91 Q86 -91 45 -47 Q4 -1 4 70 Q4 142 46 187 Q87 232 151 232 Z " />
<glyph glyph-name="slash" unicode="&#x2f;" horiz-adv-x="557" d="M468 1409 Q500 1409 519 1382 Q532 1364 532 1342 Q532 1332 529 1322 L150 -25 Q144 -46 128 -59 Q110 -73 90 -73 L80 -73 Q48 -73 29 -46 Q16 -28 16 -6 Q16 4 19 14 L398 1361 Q404 1382 421 1396 Q437 1409 459 1409 L468 1409 Z " />
<glyph glyph-name="zero" unicode="0" horiz-adv-x="1178" d="M621 201 Q850 201 850 733 Q850 1258 618 1258 Q503 1258 441 1116 Q384 982 384 736 L384 719 Q384 476 440 344 Q502 201 621 201 Z M624 1440 Q864 1440 986 1238 Q1100 1050 1100 736 Q1100 402 975 212 Q849 19 613 19 Q379 19 254 221 Q136 411 134 728 Q134 1049 258 1240 Q388 1440 624 1440 Z " />
<glyph glyph-name="one" unicode="1" horiz-adv-x="690" d="M498 1413 Q522 1413 541 1393 Q560 1374 560 1345 L560 79 Q560 51 541 32 Q522 12 498 12 L378 12 Q353 12 335 32 Q316 51 316 79 L316 1071 Q316 1128 257 1151 L254 1151 Q245 1154 233 1154 Q216 1154 199 1147 L102 1098 Q89 1092 76 1092 Q63 1092 50 1098 Q23 1112 17 1143 L6 1193 Q4 1201 4 1208 Q4 1224 12 1240 Q20 1260 41 1269 L321 1406 Q334 1413 347 1413 L498 1413 Z " />
<glyph glyph-name="two" unicode="2" horiz-adv-x="1027" d="M881 226 Q907 226 926 207 Q944 187 944 159 L944 84 Q944 55 926 35 Q907 16 881 16 L84 16 Q59 16 40 35 Q22 55 22 84 L22 142 Q22 173 43 193 L191 333 Q443 570 538 695 Q659 850 662 985 Q662 1095 597 1163 Q527 1237 396 1237 Q286 1237 172 1174 Q157 1166 143 1166 Q133 1166 122 1170 Q96 1180 86 1207 L67 1257 Q62 1271 62 1284 Q62 1295 66 1307 Q74 1331 95 1344 Q261 1440 462 1440 Q680 1440 801 1320 Q918 1207 918 1014 Q918 855 813 696 Q731 572 557 408 L517 372 Q494 353 489 323 Q488 316 488 311 Q488 287 501 266 Q524 226 569 226 L881 226 Z " />
<glyph glyph-name="three" unicode="3" horiz-adv-x="962" d="M620 747 Q766 718 840 635 Q919 546 919 426 Q919 248 782 137 Q638 19 393 19 Q272 19 161 48 Q65 75 26 101 L91 278 Q132 261 171 247 Q278 214 370 214 Q501 214 581 277 Q656 339 656 442 Q656 561 555 629 Q470 684 343 684 L249 684 L249 854 L337 854 Q444 856 519 897 Q618 952 618 1057 Q618 1141 554 1193 Q490 1243 380 1243 Q299 1243 205 1211 Q129 1185 115 1176 L69 1350 Q109 1377 214 1406 Q331 1437 452 1437 Q652 1437 766 1341 Q873 1252 873 1115 Q873 1010 817 934 Q759 856 620 804 L620 747 Z " />
<glyph glyph-name="four" unicode="4" horiz-adv-x="1118" d="M700 918 Q700 1029 711 1184 Q711 1227 671 1227 Q630 1227 630 1196 Q619 1174 600 1134 L570 1066 L559 997 L553 985 L553 1015 L313 605 L313 592 Q313 554 353 554 L612 554 Q650 554 675 583 Q700 609 700 645 L700 918 Z M1048 554 Q1073 554 1090 537 Q1108 517 1108 488 L1108 440 Q1108 410 1087 388 Q1067 367 1042 367 L1027 367 Q988 367 963 339 Q941 314 941 280 L941 87 Q941 58 920 38 Q900 16 874 16 L767 16 Q740 16 720 37 Q700 58 700 88 L700 278 Q700 317 674 341 Q650 367 614 367 L144 367 Q119 367 99 388 Q78 410 78 440 L78 526 Q78 547 88 566 L575 1385 Q595 1420 631 1420 L874 1420 Q900 1420 920 1398 Q941 1378 941 1348 L941 643 Q941 607 963 583 Q988 554 1027 554 L1048 554 Z " />
<glyph glyph-name="five" unicode="5" horiz-adv-x="985" d="M792 824 Q946 715 946 487 Q946 293 800 159 Q641 13 387 13 Q229 13 98 56 Q75 64 62 86 Q54 103 54 121 Q54 130 56 138 L68 195 Q74 222 99 237 Q114 246 129 246 Q137 246 145 244 Q264 208 371 208 Q496 208 582 267 Q685 339 685 464 Q685 743 260 743 Q220 743 187 740 L185 740 Q157 740 138 761 Q121 781 121 808 Q121 812 122 817 L188 1360 Q191 1387 210 1404 Q227 1420 250 1420 L828 1420 Q854 1420 871 1403 Q889 1382 889 1353 L889 1279 Q889 1251 871 1231 Q853 1212 828 1212 L357 1212 L318 917 L363 917 Q393 923 448 923 Q661 923 792 824 Z " />
<glyph glyph-name="six" unicode="6" horiz-adv-x="1155" d="M639 187 Q741 187 805 277 Q862 359 862 482 Q862 603 803 681 Q737 771 619 771 Q544 771 479 725 Q423 685 393 618 Q377 584 377 519 Q384 380 443 295 Q513 187 639 187 Z M726 941 Q893 941 1002 828 Q1120 706 1120 501 Q1120 294 986 153 Q850 9 643 9 Q394 9 257 183 Q127 347 127 610 Q127 805 192 971 Q253 1127 361 1234 Q560 1422 874 1438 Q890 1438 902 1440 L906 1440 Q929 1440 949 1423 Q967 1403 967 1372 L967 1317 Q967 1288 950 1268 Q933 1251 905 1249 Q893 1245 876 1245 Q662 1227 535 1118 Q423 1024 390 872 Q389 867 389 861 Q389 823 430 823 Q445 823 459 835 Q555 941 726 941 Z " />
<glyph glyph-name="seven" unicode="7" horiz-adv-x="971" d="M870 1417 Q895 1417 913 1397 Q934 1376 934 1347 L934 1258 Q934 1241 928 1227 L383 48 Q366 10 326 10 L205 10 Q169 10 150 43 Q140 60 140 78 Q140 94 148 111 L657 1155 L657 1164 Q657 1205 618 1205 L76 1205 Q50 1205 32 1224 Q12 1245 12 1273 L12 1347 Q12 1376 32 1397 Q50 1417 76 1417 L870 1417 Z " />
<glyph glyph-name="eight" unicode="8" horiz-adv-x="1153" d="M603 180 Q701 180 764 243 Q826 303 826 396 Q826 524 722 603 Q669 643 607 645 Q599 646 591 646 Q543 646 494 623 Q442 594 408 545 Q375 492 372 424 L372 412 Q372 320 433 255 Q500 180 603 180 Z M596 1280 Q503 1280 445 1219 Q394 1164 394 1079 Q394 968 505 898 Q553 866 606 866 Q652 866 698 892 Q797 946 800 1062 L800 1067 Q800 1155 752 1212 Q697 1280 596 1280 Z M854 746 Q955 705 1014 626 Q1082 538 1082 420 Q1082 239 949 132 Q817 19 591 19 Q360 19 229 138 Q117 239 117 385 Q117 608 340 713 Q362 727 362 749 Q362 778 337 786 Q253 833 206 908 Q164 980 164 1067 Q164 1231 291 1333 Q414 1437 610 1437 Q821 1437 934 1328 Q1030 1236 1030 1103 Q1030 1016 986 944 Q940 865 853 819 Q831 808 831 782 Q831 760 854 746 Z " />
<glyph glyph-name="nine" unicode="9" horiz-adv-x="1125" d="M772 826 Q794 867 794 929 Q794 1066 743 1156 Q681 1270 556 1270 Q456 1270 391 1186 Q330 1106 330 983 L330 979 Q330 868 386 795 Q451 711 562 711 Q633 711 692 744 Q743 776 772 826 Z M564 1446 Q802 1446 930 1276 Q1052 1115 1052 856 Q1052 437 821 215 Q631 34 315 21 Q293 19 271 19 L268 19 Q243 19 226 37 Q207 56 207 86 L207 145 Q207 172 225 193 Q242 210 268 211 Q287 212 315 215 Q487 227 605 311 Q747 414 792 591 Q793 597 793 603 Q793 631 743 655 Q638 541 476 541 Q308 541 197 652 Q79 769 79 959 Q79 1162 215 1302 Q354 1446 564 1446 Z " />
<glyph glyph-name="colon" unicode="&#x3a;" horiz-adv-x="437" d="M67 394 Q67 465 109 510 Q150 554 214 554 Q279 554 318 512 Q358 467 360 394 Q360 324 318 279 Q278 235 213 235 Q149 235 108 279 Q67 324 67 394 Z M67 1081 Q67 1153 109 1197 Q150 1242 214 1242 Q279 1242 318 1199 Q358 1155 360 1081 Q360 1011 318 966 Q278 922 213 922 Q149 922 108 966 Q67 1011 67 1081 Z " />
<glyph glyph-name="&amp;#x3b;" unicode="&#x3b;" horiz-adv-x="442" d="M261 937 Q197 937 156 981 Q116 1025 116 1090 L116 1096 Q116 1168 157 1214 Q197 1257 261 1257 Q326 1257 365 1214 Q405 1170 407 1096 Q407 1026 367 980 Q327 937 261 937 Z M293 567 L296 567 Q323 567 342 541 Q354 524 354 506 Q354 495 350 483 Q266 243 168 66 Q153 38 124 35 L109 34 L100 34 Q75 34 59 55 Q45 74 45 95 Q45 104 47 114 Q106 315 142 509 Q145 530 161 545 Q175 559 194 560 L293 567 Z " />
<glyph glyph-name="&amp;#x37e;" unicode="&#x37e;" horiz-adv-x="442" d="M261 937 Q197 937 156 981 Q116 1025 116 1090 L116 1096 Q116 1168 157 1214 Q197 1257 261 1257 Q326 1257 365 1214 Q405 1170 407 1096 Q407 1026 367 980 Q327 937 261 937 Z M293 567 L296 567 Q323 567 342 541 Q354 524 354 506 Q354 495 350 483 Q266 243 168 66 Q153 38 124 35 L109 34 L100 34 Q75 34 59 55 Q45 74 45 95 Q45 104 47 114 Q106 315 142 509 Q145 530 161 545 Q175 559 194 560 L293 567 Z " />
<glyph glyph-name="less" unicode="&#x3c;" horiz-adv-x="978" d="M196 811 L196 769 L893 448 Q911 439 922 424 Q931 407 931 386 L931 377 Q931 339 903 320 Q885 309 869 309 Q856 309 843 315 L56 700 Q19 718 19 761 L19 820 Q19 863 56 881 L843 1265 Q856 1271 869 1271 Q885 1271 903 1260 Q931 1241 931 1203 L931 1194 Q931 1173 922 1157 Q910 1141 893 1132 L196 811 Z " />
<glyph glyph-name="equal" unicode="&#x3d;" horiz-adv-x="1092" d="M983 587 Q1006 587 1023 570 Q1038 553 1038 528 L1038 509 Q1038 484 1022 466 Q1006 449 983 449 L108 449 Q86 449 70 466 Q53 484 53 509 L53 528 Q53 553 69 570 Q86 587 108 587 L983 587 Z M983 1027 Q1006 1027 1023 1010 Q1038 993 1038 968 L1038 949 Q1038 924 1022 906 Q1006 889 983 889 L108 889 Q86 889 70 906 Q53 924 53 949 L53 968 Q53 993 69 1010 Q86 1027 108 1027 L983 1027 Z " />
<glyph glyph-name="greater" unicode="&#x3e;" horiz-adv-x="987" d="M920 882 Q957 864 957 821 L957 749 Q957 706 920 688 L133 309 Q120 303 108 303 Q91 303 75 314 Q45 333 45 371 L45 380 Q45 401 55 418 Q67 434 83 443 L797 764 L797 806 L83 1127 Q67 1135 55 1152 Q45 1169 45 1190 L45 1199 Q45 1237 75 1256 Q91 1267 108 1267 Q120 1267 133 1261 L920 882 Z " />
<glyph glyph-name="question" unicode="&#x3f;" horiz-adv-x="679" d="M252 352 Q317 352 357 309 Q398 265 400 194 Q400 124 358 79 Q317 35 252 35 Q188 35 148 78 Q107 124 107 194 Q107 264 148 309 Q188 352 252 352 Z M281 1446 Q457 1446 551 1355 Q635 1276 635 1149 Q635 1051 582 961 Q561 924 528 883 Q516 867 501 848 L486 832 L471 814 Q359 684 359 534 L359 526 Q359 523 358 522 L177 522 Q169 522 164 527 Q158 534 157 545 Q156 556 156 566 Q156 713 270 855 Q330 932 355 972 Q395 1040 395 1098 Q395 1252 212 1260 Q152 1260 84 1238 Q75 1235 66 1235 Q54 1235 41 1241 Q21 1252 13 1278 L-1 1322 Q-4 1331 -4 1340 Q-4 1354 3 1368 Q15 1392 36 1400 Q151 1446 281 1446 Z " />
<glyph glyph-name="at" unicode="&#x40;" horiz-adv-x="1461" d="M882 897 Q883 903 883 910 Q883 938 865 962 Q841 993 802 993 L799 993 Q782 995 765 995 Q634 995 553 893 Q477 797 477 651 Q477 579 509 536 Q544 489 608 489 Q680 489 762 568 Q846 650 862 749 L882 897 Z M967 1082 Q974 1079 977 1071 Q981 1064 981 1057 L981 1053 Q967 914 965 776 L965 763 Q965 473 1059 470 L1062 470 Q1151 470 1216 571 Q1286 680 1286 860 Q1286 1087 1155 1230 Q1014 1380 773 1380 Q651 1380 539 1331 Q427 1283 343 1194 Q161 997 161 690 Q161 416 316 256 Q466 102 710 102 Q842 102 956 145 Q961 147 966 147 Q972 147 979 143 Q991 137 994 124 Q996 119 996 112 Q996 104 993 97 Q987 86 976 82 Q845 30 669 30 Q548 30 439 74 Q331 118 248 200 Q67 380 67 670 Q67 826 119 970 Q171 1111 266 1218 Q364 1328 495 1388 Q633 1451 794 1451 Q1050 1451 1214 1286 Q1377 1122 1377 866 Q1377 647 1272 514 Q1174 390 1022 390 Q959 390 924 421 Q884 455 878 522 Q878 553 845 553 Q813 553 813 530 Q743 410 585 410 Q498 410 445 472 Q388 540 388 657 Q388 846 506 970 Q630 1102 829 1102 Q912 1102 967 1082 Z " />
<glyph glyph-name="A" unicode="A" horiz-adv-x="1063" d="M604 555 Q647 555 670 590 Q688 612 688 640 Q688 652 684 664 L620 904 Q607 954 590 1027 Q584 1053 577 1090 L569 1122 L558 1173 Q531 1180 512 1180 Q503 1180 482 1178 Q472 1128 464 1090 L451 1025 Q435 948 424 904 L364 663 Q360 651 360 640 Q360 613 378 589 Q402 555 444 555 L604 555 Z M1057 98 Q1059 88 1059 79 Q1059 58 1046 39 Q1031 15 1005 15 L874 15 Q858 15 846 25 Q830 39 824 57 L753 320 Q736 383 673 383 L376 383 Q312 383 295 319 L230 59 Q225 39 210 26 Q197 15 181 15 L62 15 Q36 15 21 39 Q8 58 8 79 Q8 88 11 98 L353 1335 Q359 1356 375 1368 Q387 1379 404 1379 L658 1379 Q675 1379 688 1368 Q703 1356 709 1335 L1057 98 Z " />
<glyph glyph-name="B" unicode="B" horiz-adv-x="1040" d="M478 185 Q598 185 674 239 Q763 302 763 427 Q763 549 670 611 Q593 664 465 664 L411 664 Q376 664 352 637 Q330 612 330 577 L330 273 Q330 239 351 214 Q374 187 408 186 Q428 185 478 185 Z M405 1235 Q371 1232 349 1205 Q330 1181 330 1148 L330 912 Q330 877 353 853 Q376 826 411 826 L460 826 Q586 826 658 881 Q732 939 732 1037 Q732 1135 664 1189 Q602 1238 490 1238 Q441 1238 405 1235 Z M767 733 Q874 701 935 621 Q1001 536 1001 414 Q1001 247 878 136 Q740 15 391 15 Q264 15 159 26 Q138 28 124 45 Q109 63 109 89 L109 1324 Q109 1350 123 1368 Q138 1385 157 1387 Q292 1404 453 1404 Q587 1404 669 1387 Q753 1370 817 1328 Q881 1290 918 1228 Q957 1162 957 1078 Q957 989 910 919 Q862 843 766 804 Q743 792 743 769 Q743 746 767 733 Z " />
<glyph glyph-name="C" unicode="C" horiz-adv-x="980" d="M714 1225 Q516 1225 394 1097 Q266 960 266 716 Q266 486 384 351 Q506 213 716 213 Q796 213 881 232 Q888 234 894 234 Q908 234 920 225 Q940 211 944 183 L956 120 Q957 113 957 106 Q957 88 948 71 Q936 51 916 45 Q808 15 672 15 Q363 15 191 208 Q28 392 28 697 Q28 1038 225 1236 Q409 1423 701 1423 Q826 1423 927 1395 Q948 1388 960 1366 Q968 1350 968 1333 Q968 1324 966 1316 L950 1247 Q944 1221 925 1209 Q912 1200 898 1200 Q892 1200 885 1202 Q804 1225 714 1225 Z " />
<glyph glyph-name="D" unicode="D" horiz-adv-x="1149" d="M442 198 Q642 198 753 332 Q872 473 872 735 L872 739 Q872 968 764 1097 Q656 1225 464 1225 Q414 1225 374 1220 Q345 1216 325 1190 Q308 1166 308 1136 L308 284 Q308 252 326 229 Q348 202 380 199 Q392 198 409 198 L442 198 Z M898 1260 Q1086 1090 1086 746 Q1086 380 900 190 Q726 15 378 15 Q255 15 152 26 Q136 28 124 44 Q109 63 109 90 L109 1323 Q109 1349 123 1368 Q134 1384 152 1386 Q280 1404 436 1404 Q598 1404 709 1369 Q816 1334 898 1260 Z " />
<glyph glyph-name="E" unicode="E" horiz-adv-x="919" d="M812 211 Q833 211 849 194 Q866 174 866 147 L866 79 Q866 51 849 32 Q833 15 812 15 L163 15 Q143 15 126 33 Q109 51 109 79 L109 1315 Q109 1342 126 1362 Q142 1379 163 1379 L785 1379 Q806 1379 822 1362 Q839 1342 839 1315 L839 1246 Q839 1219 822 1199 Q807 1183 785 1183 L415 1183 Q381 1183 356 1157 Q333 1132 333 1096 L333 902 Q333 866 356 841 Q381 815 415 815 L757 815 Q778 815 794 798 Q810 779 810 751 L810 685 Q810 657 794 638 Q778 621 757 621 L415 621 Q381 621 356 595 Q333 570 333 534 L333 298 Q333 262 356 237 Q381 211 415 211 L812 211 Z " />
<glyph glyph-name="F" unicode="F" horiz-adv-x="877" d="M779 1379 Q800 1379 815 1363 Q831 1344 831 1317 L831 1244 Q831 1218 815 1199 Q800 1183 779 1183 L414 1183 Q379 1183 356 1156 Q333 1132 333 1097 L333 870 Q333 836 356 812 Q379 785 414 785 L747 785 Q767 785 782 769 Q799 749 799 723 L799 653 Q799 627 782 608 Q766 591 747 591 L414 591 Q379 591 356 565 Q333 541 333 506 L333 77 Q333 50 317 31 Q302 15 281 15 L162 15 Q141 15 126 31 Q109 51 109 77 L109 1317 Q109 1343 126 1363 Q141 1379 162 1379 L779 1379 Z " />
<glyph glyph-name="G" unicode="G" horiz-adv-x="1190" d="M1102 133 Q1102 111 1091 94 Q1079 78 1062 72 Q980 48 896 33 Q795 15 704 15 Q374 15 203 198 Q118 285 74 413 Q29 540 29 689 L29 695 Q31 1029 230 1223 Q422 1409 735 1409 Q883 1409 1001 1373 Q1022 1366 1034 1344 Q1043 1328 1043 1311 Q1043 1303 1040 1295 L1024 1226 Q1018 1200 997 1187 Q984 1178 972 1178 Q966 1178 960 1180 Q859 1211 732 1211 Q526 1211 400 1085 Q267 950 267 712 Q267 479 390 343 Q511 207 710 207 Q777 207 825 216 Q855 223 872 247 Q889 271 889 300 L889 513 Q889 548 867 572 Q842 598 809 598 L743 598 Q722 598 706 615 Q690 634 690 661 L690 718 Q690 745 706 764 Q722 781 743 781 L1048 781 Q1069 781 1085 764 Q1102 744 1102 718 L1102 133 Z " />
<glyph glyph-name="H" unicode="H" horiz-adv-x="1232" d="M333 912 Q333 880 355 853 Q381 828 414 828 L806 828 Q838 828 864 853 Q886 880 886 912 L886 1317 Q886 1343 903 1362 Q919 1379 939 1379 L1056 1379 Q1077 1379 1092 1362 Q1109 1343 1109 1317 L1109 77 Q1109 51 1092 32 Q1077 15 1056 15 L939 15 Q919 15 903 32 Q886 51 886 77 L886 530 Q886 565 864 589 Q839 615 806 615 L414 615 Q380 615 355 589 Q333 565 333 530 L333 77 Q333 51 317 32 Q301 15 281 15 L162 15 Q141 15 126 32 Q109 51 109 77 L109 1317 Q109 1343 126 1362 Q141 1379 162 1379 L281 1379 Q301 1379 317 1362 Q333 1343 333 1317 L333 912 Z " />
<glyph glyph-name="I" unicode="I" horiz-adv-x="458" d="M277 1379 Q300 1379 317 1361 Q335 1342 335 1316 L335 78 Q335 51 317 33 Q300 15 277 15 L168 15 Q143 15 126 33 Q109 51 109 78 L109 1316 Q109 1342 127 1361 Q144 1379 168 1379 L277 1379 Z " />
<glyph glyph-name="J" unicode="J" horiz-adv-x="672" d="M490 1402 Q514 1402 531 1384 Q549 1365 549 1339 L549 531 Q549 251 434 127 Q332 15 123 15 Q67 15 6 26 Q-17 30 -33 51 Q-45 67 -45 87 Q-45 92 -44 97 L-36 165 Q-33 191 -13 206 Q4 220 21 220 Q25 220 29 219 Q61 215 92 215 Q209 215 267 288 Q327 364 327 535 L327 1339 Q327 1365 346 1384 Q363 1402 386 1402 L490 1402 Z " />
<glyph glyph-name="K" unicode="K" horiz-adv-x="1056" d="M1069 95 Q1077 83 1077 69 Q1077 56 1069 41 Q1055 15 1029 15 L868 15 Q841 15 827 40 L549 565 Q529 599 491 603 L484 603 Q448 603 428 574 L355 480 Q340 460 340 434 L340 68 Q340 45 325 30 Q311 15 293 15 L156 15 Q138 15 124 30 Q109 45 109 68 L109 1326 Q109 1349 124 1364 Q138 1379 156 1379 L293 1379 Q311 1379 325 1364 Q340 1349 340 1326 L340 784 Q340 745 379 745 Q402 745 413 766 Q430 798 458 843 L481 881 L503 919 L783 1356 Q797 1379 821 1379 L983 1379 Q1012 1379 1025 1351 Q1031 1338 1031 1326 Q1031 1309 1020 1293 L664 805 L1069 95 Z " />
<glyph glyph-name="L" unicode="L" horiz-adv-x="871" d="M287 1379 Q309 1379 326 1361 Q344 1342 344 1315 L344 303 Q344 268 367 243 Q392 217 427 217 L821 217 Q844 217 860 200 Q878 180 878 154 L878 79 Q878 52 860 33 Q843 15 821 15 L166 15 Q144 15 127 33 Q109 52 109 79 L109 1315 Q109 1342 127 1361 Q144 1379 166 1379 L287 1379 Z " />
<glyph glyph-name="M" unicode="M" horiz-adv-x="1477" d="M1307 1379 Q1324 1379 1339 1362 Q1354 1344 1354 1315 L1354 79 Q1354 50 1339 32 Q1324 15 1307 15 L1221 15 Q1204 15 1190 32 Q1175 50 1175 79 L1175 1105 L1172 1153 L1105 1153 Q1054 856 979 567 L856 85 Q849 63 833 49 Q819 38 800 38 L663 38 Q644 38 630 50 Q613 63 608 85 L483 567 Q408 856 357 1153 L288 1153 L288 79 Q288 50 273 32 Q259 15 241 15 L156 15 Q138 15 124 32 Q109 50 109 79 L109 1315 Q109 1344 125 1362 Q138 1379 156 1379 L416 1379 Q434 1379 448 1367 Q465 1353 472 1333 L583 926 Q657 627 700 387 L763 387 Q805 627 880 926 L991 1334 Q997 1353 1015 1367 Q1028 1379 1047 1379 L1307 1379 Z " />
<glyph glyph-name="N" unicode="N" horiz-adv-x="1274" d="M109 1316 Q109 1342 127 1361 Q144 1379 166 1379 L375 1379 Q408 1379 425 1348 L677 872 Q801 638 892 392 Q892 362 929 362 Q969 362 969 395 Q969 400 968 406 Q943 648 943 994 L943 1316 Q943 1342 960 1361 Q977 1379 999 1379 L1095 1379 Q1117 1379 1134 1361 Q1151 1342 1151 1316 L1151 78 Q1151 51 1134 33 Q1117 15 1095 15 L922 15 Q889 15 872 46 L611 549 Q472 816 381 1048 Q373 1074 348 1074 Q342 1074 333 1071 Q306 1062 306 1034 Q318 751 318 412 L318 78 Q318 51 300 33 Q283 15 261 15 L166 15 Q144 15 127 33 Q109 51 109 78 L109 1316 Z " />
<glyph glyph-name="O" unicode="O" horiz-adv-x="1252" d="M610 203 Q773 203 867 358 Q953 500 953 725 Q953 937 868 1078 Q773 1238 608 1238 Q446 1238 350 1082 Q264 941 264 716 Q264 492 352 352 Q448 203 610 203 Z M616 1426 Q883 1426 1040 1225 Q1189 1033 1189 735 Q1189 399 1024 205 Q863 15 595 15 Q335 15 180 212 Q28 406 28 709 Q28 1024 191 1224 Q353 1426 616 1426 Z " />
<glyph glyph-name="P" unicode="P" horiz-adv-x="1054" d="M481 709 Q618 709 698 781 Q779 854 779 981 Q779 1099 706 1165 Q633 1230 505 1230 Q458 1230 418 1225 Q386 1221 365 1196 Q342 1171 342 1136 L342 800 Q342 765 366 741 Q387 712 423 711 Q445 709 481 709 Z M881 1300 Q943 1248 976 1170 Q1014 1087 1014 991 Q1014 787 898 670 Q758 527 483 527 Q458 527 433 530 L429 530 Q393 530 369 503 Q342 477 342 441 L342 80 Q342 53 324 33 Q307 15 284 15 L167 15 Q144 15 127 33 Q109 53 109 80 L109 1326 Q109 1351 124 1368 Q139 1387 162 1390 Q301 1407 489 1407 Q754 1407 881 1300 Z " />
<glyph glyph-name="Q" unicode="Q" horiz-adv-x="1254" d="M758 417 Q781 372 827 372 L829 372 Q881 372 901 421 Q955 550 955 726 Q955 938 870 1080 Q773 1240 610 1240 Q447 1240 351 1083 Q265 942 265 718 Q265 562 309 444 Q355 321 440 260 Q463 243 486 243 Q514 243 540 269 Q565 295 565 327 Q565 346 556 367 L501 482 Q500 484 500 487 Q500 495 504 504 Q515 524 539 538 L620 587 Q640 599 657 599 L661 599 Q672 598 674 593 L758 417 Z M617 1427 Q885 1427 1042 1226 Q1191 1035 1191 736 Q1191 536 1129 381 Q1070 232 962 142 Q939 124 931 92 Q930 83 930 76 Q930 56 938 37 L1003 -99 Q1004 -101 1004 -103 Q1004 -109 999 -120 Q988 -141 965 -155 L884 -203 Q864 -215 846 -215 L842 -215 Q832 -214 830 -209 L743 -25 Q720 20 674 20 L665 20 Q631 16 596 16 Q336 16 180 214 Q28 408 28 711 Q28 1026 191 1225 Q354 1427 617 1427 Z " />
<glyph glyph-name="R" unicode="R" horiz-adv-x="1089" d="M500 752 Q627 752 702 819 Q779 885 779 998 Q779 1112 706 1175 Q639 1235 518 1236 Q462 1236 418 1232 Q386 1228 364 1202 Q343 1177 343 1144 L343 840 Q343 805 366 780 Q391 752 428 752 L500 752 Z M1027 96 Q1030 87 1030 78 Q1030 57 1018 39 Q1001 15 972 15 L847 15 Q830 15 815 26 Q799 37 793 57 Q767 144 726 325 Q696 468 639 526 Q584 585 471 587 L428 587 Q393 587 366 561 Q343 533 343 499 L343 78 Q343 52 325 33 Q308 15 286 15 L166 15 Q144 15 127 33 Q109 52 109 78 L109 1328 Q109 1353 124 1371 Q138 1388 160 1390 Q309 1408 483 1408 Q692 1408 826 1307 Q964 1203 964 1024 Q964 896 917 811 Q872 731 772 691 L772 638 Q903 581 955 380 L974 306 L992 232 Q1016 140 1027 96 Z " />
<glyph glyph-name="S" unicode="S" horiz-adv-x="918" d="M556 819 Q726 753 802 657 Q879 563 879 425 Q879 249 759 138 Q625 15 380 15 Q231 15 96 64 Q74 72 64 93 Q56 108 56 124 Q56 132 58 140 L74 214 Q80 241 103 255 Q117 262 130 262 Q140 262 151 258 Q277 211 398 211 Q511 211 575 261 Q643 311 643 401 Q643 483 579 539 Q527 586 398 636 Q58 764 58 1027 Q58 1198 179 1308 Q308 1423 523 1423 Q655 1423 766 1387 Q788 1380 800 1358 Q808 1343 808 1327 Q808 1319 806 1310 L787 1241 Q781 1214 758 1201 Q745 1193 732 1193 Q723 1193 714 1196 Q619 1227 518 1227 Q413 1227 352 1179 Q290 1130 290 1054 Q290 971 363 917 Q413 879 556 819 Z " />
<glyph glyph-name="T" unicode="T" horiz-adv-x="871" d="M900 1398 Q925 1398 942 1380 Q960 1360 960 1333 L960 1258 Q960 1229 942 1210 Q925 1192 900 1192 L679 1192 Q645 1192 619 1168 Q594 1141 594 1106 L594 80 Q594 53 576 33 Q559 15 534 15 L421 15 Q397 15 380 33 Q361 53 361 80 L361 1106 Q361 1141 337 1167 Q311 1192 277 1192 L62 1192 Q36 1192 19 1210 Q1 1229 1 1258 L1 1333 Q1 1360 19 1380 Q36 1398 62 1398 L900 1398 Z " />
<glyph glyph-name="U" unicode="U" horiz-adv-x="1213" d="M1046 1402 Q1070 1402 1087 1384 Q1104 1366 1104 1339 L1104 633 Q1104 321 967 163 Q836 15 588 15 Q93 15 93 637 L93 1339 Q93 1366 110 1384 Q127 1402 151 1402 L265 1402 Q288 1402 305 1384 Q323 1366 323 1339 L323 611 Q323 417 391 314 Q463 205 598 205 Q876 205 876 611 L876 1339 Q876 1366 894 1384 Q911 1402 934 1402 L1046 1402 Z " />
<glyph glyph-name="V" unicode="V" horiz-adv-x="1108" d="M1051 1379 Q1080 1379 1098 1354 Q1109 1337 1109 1318 Q1109 1307 1106 1296 L721 57 Q715 38 699 27 Q685 15 667 15 L452 15 Q434 15 419 27 Q403 39 397 59 L31 1298 Q28 1309 28 1319 Q28 1338 39 1354 Q57 1379 86 1379 L218 1379 Q237 1379 252 1367 Q267 1354 274 1333 L415 798 Q484 537 517 364 Q527 324 589 320 L590 320 Q613 320 623 364 Q665 570 725 792 L875 1335 Q881 1353 897 1366 Q912 1379 930 1379 L1051 1379 Z " />
<glyph glyph-name="W" unicode="W" horiz-adv-x="1605" d="M1550 1379 Q1577 1379 1595 1355 Q1608 1337 1608 1316 Q1608 1308 1606 1300 L1312 63 Q1307 41 1291 29 Q1274 15 1255 15 L1082 15 Q1061 15 1045 28 Q1029 43 1025 66 L928 604 Q888 829 870 991 Q867 1033 834 1033 Q827 1033 820 1031 L817 1031 Q788 1019 783 993 Q748 763 714 604 L604 65 Q601 42 584 29 Q568 15 548 15 L376 15 Q354 15 337 29 Q318 45 313 68 L43 1300 Q41 1308 41 1317 Q41 1338 54 1356 Q72 1379 100 1379 L223 1379 Q244 1379 261 1365 Q277 1350 281 1326 L367 817 Q384 714 405 582 Q419 496 439 358 Q447 324 480 324 L495 324 Q520 337 526 358 Q550 527 606 819 L702 1322 Q706 1348 724 1364 Q742 1379 765 1379 L917 1379 Q940 1379 958 1363 Q977 1346 981 1321 L1071 804 Q1108 597 1138 363 Q1138 324 1199 324 Q1220 324 1220 363 Q1233 453 1255 588 L1273 704 L1292 820 L1385 1321 Q1389 1347 1407 1364 Q1425 1379 1448 1379 L1550 1379 Z " />
<glyph glyph-name="X" unicode="X" horiz-adv-x="985" d="M953 110 Q961 93 961 78 Q961 62 952 46 Q935 15 902 15 L775 15 Q739 15 723 49 L629 255 Q602 309 576 367 Q565 390 552 419 L529 469 Q517 503 513 503 L513 506 Q441 500 427 466 Q412 425 388 366 L377 340 L365 313 Q351 276 341 254 L256 52 Q249 35 235 25 Q219 15 203 15 L81 15 Q48 15 30 45 Q22 62 22 77 Q22 93 30 110 L321 662 Q333 683 333 706 Q333 726 322 749 L43 1284 Q35 1301 35 1317 Q35 1332 43 1348 Q61 1379 93 1379 L219 1379 Q236 1379 251 1369 Q265 1360 272 1343 L363 1138 Q407 1041 439 957 Q454 927 488 919 L499 919 Q536 919 552 959 Q576 1025 621 1138 L708 1342 Q715 1359 730 1369 Q745 1379 761 1379 L882 1379 Q915 1379 933 1348 Q942 1332 942 1316 Q942 1300 933 1283 L653 757 Q642 736 642 714 Q642 693 653 670 L953 110 Z " />
<glyph glyph-name="Y" unicode="Y" horiz-adv-x="892" d="M909 1379 Q942 1379 960 1348 Q969 1332 969 1316 Q969 1301 960 1283 L612 616 Q597 587 597 553 L597 79 Q597 52 578 33 Q561 15 538 15 L428 15 Q404 15 387 33 Q369 52 369 79 L369 543 Q369 575 355 604 L19 1285 Q11 1300 11 1315 Q11 1332 20 1349 Q38 1379 71 1379 L194 1379 Q212 1379 226 1369 Q242 1357 250 1339 L360 1057 Q402 950 456 798 Q465 778 523 763 L538 800 Q568 892 632 1057 L741 1340 Q747 1357 764 1369 Q778 1379 795 1379 L909 1379 Z " />
<glyph glyph-name="Z" unicode="Z" horiz-adv-x="982" d="M911 213 Q934 213 951 195 Q969 177 969 150 L969 78 Q969 51 951 33 Q934 15 911 15 L69 15 Q45 15 28 33 Q11 51 11 78 L11 124 Q11 144 22 161 L620 1094 Q628 1108 628 1125 Q628 1181 573 1181 L128 1181 Q104 1181 88 1198 Q70 1217 70 1244 L70 1316 Q70 1342 88 1361 Q105 1379 128 1379 L901 1379 Q924 1379 941 1361 Q960 1342 960 1316 L960 1256 Q960 1238 949 1221 L369 307 L360 291 L360 280 Q360 248 376 232 Q393 213 419 213 L911 213 Z " />
<glyph glyph-name="bracketleft" unicode="&#x5b;" horiz-adv-x="355" d="M163 1287 L163 -111 L300 -111 Q323 -111 339 -128 Q355 -146 355 -170 Q355 -195 339 -213 Q323 -230 300 -230 L55 -230 Q33 -230 17 -213 Q0 -195 0 -170 L0 1346 Q0 1371 16 1388 Q33 1405 55 1405 L300 1405 Q323 1405 340 1388 Q355 1371 355 1346 Q355 1321 340 1304 Q323 1287 300 1287 L163 1287 Z " />
<glyph glyph-name="backslash" unicode="&#x5c;" horiz-adv-x="507" d="M497 15 Q500 4 500 -6 Q500 -28 487 -46 Q468 -73 436 -73 L427 -73 Q407 -73 389 -59 Q373 -46 367 -23 L9 1323 Q6 1332 6 1341 Q6 1363 20 1383 Q39 1409 70 1409 L81 1409 Q101 1409 119 1395 Q136 1381 142 1359 L497 15 Z " />
<glyph glyph-name="bracketright" unicode="&#x5d;" horiz-adv-x="353" d="M298 1412 Q320 1412 337 1394 Q353 1377 353 1352 L353 -166 Q353 -191 337 -209 Q321 -226 298 -226 L55 -226 Q33 -226 17 -209 Q0 -191 0 -166 Q0 -142 17 -124 Q33 -107 55 -107 L193 -107 L193 1293 L55 1293 Q33 1293 16 1310 Q0 1327 0 1352 Q0 1377 17 1394 Q33 1412 55 1412 L298 1412 Z " />
<glyph glyph-name="asciicircum" unicode="&#x5e;" horiz-adv-x="895" d="M477 1527 Q467 1545 446 1545 Q425 1545 415 1527 L142 1015 Q137 1004 121 997 Q104 987 84 987 L72 987 Q35 987 16 1008 Q8 1018 8 1029 Q8 1036 12 1043 L355 1640 Q362 1651 378 1660 Q394 1668 415 1668 L480 1668 Q501 1668 517 1660 Q532 1652 539 1640 L882 1043 Q887 1035 887 1028 Q887 1019 878 1009 Q859 987 823 987 L807 987 Q787 987 770 997 Q754 1004 747 1016 L477 1527 Z " />
<glyph glyph-name="underscore" unicode="&#x5f;" horiz-adv-x="973" d="M943 86 Q955 86 963 77 Q973 67 973 53 Q973 40 963 28 Q955 20 943 20 L30 20 Q18 20 10 28 Q0 40 0 53 Q0 67 10 77 Q18 86 30 86 L943 86 Z " />
<glyph glyph-name="grave" unicode="&#x60;" horiz-adv-x="245" d="M225 1239 Q234 1223 234 1207 Q234 1192 225 1176 Q208 1145 175 1145 L169 1145 Q141 1145 124 1167 L27 1295 Q12 1314 12 1334 Q12 1347 20 1363 Q36 1398 72 1398 L106 1398 Q140 1398 156 1368 L225 1239 Z " />
<glyph glyph-name="a" unicode="a" horiz-adv-x="904" d="M594 443 Q594 479 570 505 Q544 529 510 529 L507 529 Q380 523 298 479 Q191 424 191 325 Q191 248 269 205 Q328 173 398 173 Q464 173 517 215 Q568 255 589 322 L589 324 Q594 350 594 383 L594 443 Z M428 1032 Q636 1032 732 912 Q816 809 816 619 L816 101 Q815 74 798 55 Q781 38 755 37 L674 35 Q649 35 630 55 Q613 73 613 98 L613 143 L554 143 Q501 74 437 44 Q375 15 306 15 L297 15 Q170 19 93 103 Q19 184 19 299 Q19 475 154 569 Q290 661 536 662 Q585 662 585 712 Q585 780 542 824 Q488 881 375 881 Q283 881 190 847 Q178 843 168 843 Q155 843 142 849 Q119 863 112 890 L109 903 Q106 912 106 922 Q106 937 113 951 Q123 973 145 981 Q275 1032 428 1032 Z " />
<glyph glyph-name="b" unicode="b" horiz-adv-x="1063" d="M545 201 Q660 201 725 291 Q787 379 787 529 Q787 666 731 753 Q665 853 545 853 Q470 853 411 799 Q353 746 335 665 Q329 633 329 599 L329 446 Q329 410 336 381 Q353 303 409 253 Q467 201 545 201 Z M660 1032 Q818 1032 918 903 Q1023 767 1023 545 L1023 541 Q1023 290 893 144 Q780 15 616 15 Q441 15 348 183 L287 183 L288 103 L288 100 Q288 75 270 57 Q253 38 230 38 L163 38 Q139 38 123 55 Q105 73 104 99 Q104 119 103 153 L101 204 Q99 264 99 314 L99 1415 Q99 1442 117 1461 Q134 1479 158 1479 L270 1479 Q293 1479 310 1461 Q329 1442 329 1415 L329 885 L387 885 Q436 963 501 996 Q571 1032 660 1032 Z " />
<glyph glyph-name="c" unicode="c" horiz-adv-x="755" d="M727 105 Q728 100 728 96 Q728 77 716 59 Q703 38 681 34 Q599 15 506 15 Q286 15 159 147 Q30 281 30 512 Q30 736 162 879 Q304 1030 547 1030 Q612 1030 678 1016 Q702 1012 715 990 Q725 975 725 957 Q725 950 723 942 L714 894 Q709 870 689 854 Q675 844 659 844 Q654 844 648 845 Q608 851 561 851 Q428 851 346 757 Q267 667 267 529 L267 525 Q267 372 355 282 Q438 198 567 198 Q613 198 653 204 Q659 205 664 205 Q681 205 696 194 Q716 179 720 152 L727 105 Z " />
<glyph glyph-name="d" unicode="d" horiz-adv-x="1078" d="M726 599 Q726 633 720 665 Q702 747 642 799 Q584 853 509 853 Q389 853 323 753 Q267 666 267 529 Q267 379 330 291 Q394 201 509 201 Q587 201 645 253 Q702 303 719 381 Q726 410 726 446 L726 599 Z M896 1479 Q919 1479 936 1461 Q955 1442 955 1415 L955 314 Q955 264 953 203 L952 152 Q951 121 950 101 Q949 73 932 55 Q916 38 892 38 L825 38 Q801 38 784 57 Q766 76 766 103 L767 183 L707 183 Q613 15 438 15 Q275 15 160 144 Q31 290 31 541 L31 545 Q31 767 136 903 Q236 1032 395 1032 Q484 1032 554 996 Q619 963 668 885 L726 885 L726 1415 Q726 1442 744 1461 Q761 1479 785 1479 L896 1479 Z " />
<glyph glyph-name="e" unicode="e" horiz-adv-x="940" d="M579 604 Q621 604 645 638 Q664 661 664 689 Q664 699 662 709 Q648 781 606 827 Q551 885 464 885 Q384 885 328 831 Q283 788 260 719 Q255 704 255 690 Q255 664 271 642 Q296 604 340 604 L579 604 Z M482 1030 Q681 1030 786 882 Q877 751 877 546 Q877 531 876 514 Q874 488 857 470 Q841 453 818 453 L346 453 Q299 453 273 411 Q260 389 260 367 Q260 346 271 326 Q306 256 388 218 Q460 185 553 185 Q650 185 734 203 Q741 205 746 205 Q763 205 778 194 Q799 179 803 154 L808 122 Q810 114 810 108 Q810 90 801 75 Q788 55 766 47 Q650 15 510 15 Q281 15 154 147 Q30 278 30 510 Q30 718 141 865 Q265 1030 482 1030 Z " />
<glyph glyph-name="f" unicode="f" horiz-adv-x="593" d="M560 1477 Q583 1475 598 1457 Q614 1438 614 1413 L613 1356 Q613 1329 596 1310 Q579 1293 554 1293 L551 1293 Q462 1293 415 1223 Q376 1166 376 1073 L376 1053 Q376 1026 394 1006 Q416 985 443 985 L511 985 Q535 985 552 968 Q569 949 569 922 L569 880 Q569 854 551 835 Q534 817 511 817 L445 817 Q418 817 397 797 Q378 777 378 749 L378 77 Q378 51 360 33 Q343 15 320 15 L203 15 Q180 15 163 33 Q146 51 146 77 L146 749 Q146 777 128 796 Q108 817 80 817 L78 817 Q55 817 38 835 Q20 854 20 880 L20 922 Q20 949 37 968 Q54 985 78 985 L80 985 Q109 985 128 1007 Q146 1026 146 1053 L146 1061 Q146 1157 173 1239 Q202 1330 259 1384 Q350 1479 500 1479 Q533 1479 560 1477 Z " />
<glyph glyph-name="g" unicode="g" horiz-adv-x="1029" d="M699 561 Q699 601 691 630 Q673 706 623 750 Q570 799 496 799 Q394 799 329 708 Q264 616 264 468 Q264 336 321 252 Q385 157 496 157 Q566 157 619 203 Q669 246 687 313 Q694 332 696 360 Q699 382 699 408 L699 561 Z M874 950 Q897 950 914 932 Q931 913 931 888 L931 885 Q928 794 928 676 L928 96 Q928 -218 794 -347 Q664 -465 425 -465 Q283 -465 168 -423 Q147 -416 136 -394 Q129 -379 129 -364 Q129 -356 131 -348 L144 -296 Q150 -269 172 -256 Q186 -249 199 -249 Q209 -249 218 -252 Q317 -289 417 -289 Q544 -289 621 -213 Q703 -130 703 21 L703 87 Q703 124 665 124 Q650 124 636 111 Q554 -12 403 -12 Q241 -12 138 117 Q30 249 30 461 Q30 693 151 837 Q266 973 433 973 Q591 973 668 842 Q683 827 699 827 Q736 827 736 863 L738 892 Q740 917 758 934 Q774 950 797 950 L874 950 Z " />
<glyph glyph-name="h" unicode="h" horiz-adv-x="1032" d="M642 1008 Q776 1008 854 911 Q944 801 944 588 L944 78 Q944 51 927 33 Q910 15 886 15 L772 15 Q749 15 732 33 Q714 51 714 78 L714 552 Q714 817 523 817 Q457 817 404 773 Q362 738 340 682 Q329 648 329 597 L329 78 Q329 51 311 33 Q294 15 271 15 L157 15 Q133 15 116 33 Q99 51 99 78 L99 1393 Q99 1419 116 1437 Q133 1455 157 1455 L271 1455 Q294 1455 311 1437 Q329 1419 329 1393 L329 900 Q329 862 366 862 Q382 862 396 875 Q437 935 504 973 Q564 1008 642 1008 Z " />
<glyph glyph-name="i" unicode="i" horiz-adv-x="436" d="M222 1183 Q167 1183 133 1219 Q100 1254 100 1306 L100 1312 Q100 1368 132 1402 Q167 1438 223 1438 Q278 1438 312 1402 Q346 1367 348 1309 Q348 1255 314 1219 Q279 1183 222 1183 Z M280 985 Q303 985 319 968 Q338 948 338 922 L338 79 Q338 51 320 33 Q303 15 280 15 L167 15 Q143 15 126 33 Q108 51 108 79 L108 922 Q108 948 127 968 Q143 985 167 985 L280 985 Z " />
<glyph glyph-name="j" unicode="j" horiz-adv-x="439" d="M215 1182 Q161 1182 128 1219 Q94 1255 94 1309 Q94 1367 128 1403 Q161 1438 219 1438 Q274 1438 307 1403 Q340 1367 342 1309 Q342 1255 307 1219 Q273 1182 215 1182 Z M276 985 Q299 985 316 967 Q333 949 333 923 L333 118 Q333 -186 208 -312 Q117 -404 -53 -424 Q-57 -425 -61 -425 Q-79 -425 -93 -413 Q-113 -396 -115 -370 L-124 -302 L-124 -294 Q-124 -273 -113 -257 Q-100 -238 -80 -231 Q-7 -212 34 -166 Q74 -122 88 -39 Q102 38 102 195 L102 923 Q102 949 120 967 Q137 985 160 985 L276 985 Z " />
<glyph glyph-name="k" unicode="k" horiz-adv-x="948" d="M915 113 Q927 95 927 78 Q927 64 919 48 Q903 15 868 15 L727 15 Q694 15 677 46 L507 360 Q484 399 441 404 L434 404 Q395 404 369 371 L346 340 Q329 318 329 288 L329 77 Q329 51 310 33 Q294 15 271 15 L157 15 Q133 15 116 33 Q99 51 99 77 L99 1393 Q99 1419 116 1438 Q133 1455 157 1455 L271 1455 Q294 1455 310 1438 Q329 1419 329 1393 L329 585 Q329 547 366 547 Q382 547 397 562 Q429 626 466 689 L634 957 Q651 985 682 985 L791 985 Q827 985 843 950 Q850 935 850 921 Q850 900 834 882 L605 601 L915 113 Z " />
<glyph glyph-name="l" unicode="l" horiz-adv-x="462" d="M281 1455 Q304 1455 321 1437 Q339 1419 339 1392 L339 78 Q339 51 321 33 Q304 15 281 15 L168 15 Q143 15 126 33 Q109 51 109 78 L109 1392 Q109 1419 126 1437 Q143 1455 168 1455 L281 1455 Z " />
<glyph glyph-name="m" unicode="m" horiz-adv-x="1564" d="M219 985 Q241 985 257 968 Q275 951 276 926 L277 884 Q277 845 316 845 Q339 845 349 864 Q366 890 385 912 Q410 939 438 959 Q512 1008 610 1008 Q691 1008 753 966 Q814 927 841 855 Q853 832 877 832 Q892 832 906 845 Q956 919 1022 962 Q1092 1008 1185 1008 Q1315 1008 1390 914 Q1476 804 1476 593 L1476 77 Q1476 51 1458 33 Q1441 15 1418 15 L1311 15 Q1289 15 1272 33 Q1254 51 1254 77 L1254 546 Q1254 819 1077 819 Q1015 819 967 777 Q925 742 906 683 Q892 641 892 588 L892 77 Q892 51 874 33 Q857 15 835 15 L728 15 Q705 15 688 33 Q671 51 671 77 L671 563 Q671 674 632 741 Q586 819 497 819 Q431 819 381 771 Q343 733 324 679 Q311 644 311 586 L311 77 Q311 51 294 33 Q277 15 254 15 L146 15 Q122 15 106 32 Q88 51 88 77 L88 263 Q87 388 86 497 Q84 789 83 922 L83 925 Q83 950 100 968 Q116 985 140 985 L219 985 Z " />
<glyph glyph-name="n" unicode="n" horiz-adv-x="1023" d="M625 1008 Q764 1008 845 912 Q935 806 935 597 L935 77 Q935 51 917 33 Q900 15 877 15 L762 15 Q740 15 723 33 Q705 51 705 77 L705 556 Q705 817 518 817 Q447 817 395 770 Q353 731 333 672 Q319 639 319 580 L319 77 Q319 51 301 33 Q284 15 261 15 L146 15 Q123 15 106 32 Q89 51 89 77 Q88 170 88 264 Q87 389 86 497 Q84 789 83 922 L83 925 Q83 950 99 968 Q117 985 140 986 L228 987 Q251 987 268 969 Q286 950 286 923 L286 882 Q286 842 324 842 Q345 842 358 861 Q392 918 451 956 Q529 1008 625 1008 Z " />
<glyph glyph-name="o" unicode="o" horiz-adv-x="1015" d="M734 460 Q737 490 737 520 Q737 609 713 685 Q669 824 557 854 Q526 863 499 863 Q396 863 335 753 Q278 652 278 513 Q278 391 318 302 Q375 178 490 167 Q500 166 510 166 Q612 166 675 263 Q725 343 734 460 Z M39 483 Q38 497 38 510 Q38 729 175 866 Q306 998 500 1007 Q514 1008 526 1008 Q702 1008 827 897 Q976 763 976 524 Q976 292 833 152 Q703 25 515 16 Q501 15 489 15 Q318 15 194 122 Q48 250 39 483 Z " />
<glyph glyph-name="p" unicode="p" horiz-adv-x="1046" d="M528 163 Q648 163 714 263 Q770 350 770 487 Q770 637 708 725 Q643 815 528 815 Q450 815 392 763 Q336 713 319 635 Q312 606 312 570 L312 417 Q312 383 318 350 Q336 269 394 216 Q453 163 528 163 Z M599 1001 Q763 1001 876 872 Q1006 725 1006 474 L1006 470 Q1006 249 901 112 Q801 -16 643 -16 Q554 -16 484 20 Q419 53 370 131 L312 131 L312 -399 Q312 -426 293 -445 Q276 -463 253 -463 L141 -463 Q117 -463 100 -445 Q82 -426 82 -399 L82 702 Q82 752 84 812 L86 863 Q87 896 87 917 Q88 943 106 960 Q122 977 146 977 L213 977 Q236 977 253 959 Q271 941 271 916 L271 913 L270 833 L331 833 Q424 1001 599 1001 Z " />
<glyph glyph-name="q" unicode="q" horiz-adv-x="1050" d="M726 571 Q726 607 719 636 Q702 714 645 764 Q587 816 509 816 Q394 816 330 726 Q267 638 267 488 Q267 351 323 264 Q389 164 509 164 Q584 164 642 217 Q702 269 720 351 Q726 384 726 418 L726 571 Z M950 916 Q951 895 952 865 L953 814 Q955 753 955 703 L955 -398 Q955 -425 936 -444 Q919 -462 896 -462 L785 -462 Q761 -462 744 -444 Q726 -425 726 -398 L726 132 L668 132 Q619 54 554 21 Q484 -15 395 -15 Q236 -15 136 113 Q31 250 31 471 L31 475 Q31 726 160 873 Q275 1002 438 1002 Q613 1002 707 834 L767 834 L766 914 Q766 941 784 960 Q801 978 825 978 L892 978 Q916 978 932 962 Q949 944 950 916 Z " />
<glyph glyph-name="r" unicode="r" horiz-adv-x="671" d="M583 1023 Q595 1023 603 1014 Q612 1006 612 992 L612 839 Q612 818 598 803 Q585 790 566 790 L565 790 Q470 790 405 737 Q340 685 322 596 Q316 559 316 515 L316 78 Q316 52 296 33 Q280 15 257 15 L141 15 Q117 15 99 33 Q82 52 82 78 L82 937 Q82 963 99 982 Q117 1000 141 1000 L217 1000 Q242 1000 258 982 Q275 964 275 939 L275 845 Q275 805 316 805 Q340 805 354 830 Q386 929 456 980 Q516 1023 583 1023 Z " />
<glyph glyph-name="s" unicode="s" horiz-adv-x="730" d="M451 604 Q579 557 635 488 Q689 420 691 316 Q691 182 597 101 Q496 15 308 15 Q187 15 87 49 Q66 56 55 78 Q47 93 47 109 Q47 117 49 125 L57 162 Q63 189 86 203 Q99 210 112 210 Q121 210 132 206 Q229 170 308 170 Q471 170 471 293 Q471 349 430 383 Q396 413 306 445 Q172 494 109 572 Q55 636 55 719 L55 725 Q55 856 149 941 Q250 1030 412 1030 Q505 1030 590 1006 Q611 999 624 977 Q632 962 632 946 Q632 938 630 930 L623 899 Q617 873 595 860 Q581 852 567 852 Q559 852 552 854 Q483 877 422 877 Q355 877 316 847 Q273 813 273 756 Q273 704 320 667 Q356 641 451 604 Z " />
<glyph glyph-name="t" unicode="t" horiz-adv-x="627" d="M372 427 Q372 302 385 271 Q411 208 506 208 Q516 208 527 209 Q548 209 563 193 Q579 177 580 152 L581 80 Q581 58 567 42 Q554 26 535 23 Q484 15 421 15 Q292 15 222 93 Q148 176 148 378 L148 761 Q148 793 126 816 Q103 838 73 838 Q52 838 36 855 Q20 871 20 896 L20 949 Q20 973 36 991 Q51 1006 73 1006 Q105 1006 126 1030 Q148 1052 148 1084 L148 1247 Q148 1271 164 1288 Q180 1304 201 1304 L319 1304 Q340 1304 356 1288 Q372 1271 372 1247 L372 1084 Q372 1052 393 1030 Q414 1006 447 1006 L534 1006 Q556 1006 571 991 Q587 973 587 949 L587 896 Q587 871 571 855 Q555 838 534 838 L447 838 Q414 838 394 815 Q372 793 372 761 L372 427 Z " />
<glyph glyph-name="u" unicode="u" horiz-adv-x="1002" d="M913 945 L913 525 Q913 270 914 103 Q914 75 895 57 Q878 38 854 38 L775 38 Q752 38 734 57 Q716 76 716 103 L716 146 Q716 185 677 185 Q654 185 643 166 Q629 141 609 118 Q584 89 554 68 Q476 15 373 15 Q234 15 158 109 Q69 215 69 433 L69 945 Q69 971 88 991 Q104 1008 129 1008 L241 1008 Q266 1008 283 991 Q301 971 301 945 L301 484 Q301 207 486 207 Q556 207 607 253 Q648 287 668 343 Q680 371 680 425 L680 945 Q680 971 699 991 Q715 1008 740 1008 L853 1008 Q878 1008 895 991 Q913 972 913 945 Z " />
<glyph glyph-name="v" unicode="v" horiz-adv-x="925" d="M818 985 Q847 985 865 960 Q876 942 876 924 Q876 913 872 901 L581 56 Q574 37 559 26 Q544 15 526 15 L357 15 Q340 15 325 26 Q309 37 303 56 L23 886 Q19 899 19 912 Q19 934 32 955 Q53 985 88 985 L196 985 Q215 985 231 973 Q246 960 252 941 L363 528 Q388 430 407 331 Q416 294 452 294 L453 294 Q496 294 503 337 Q524 440 544 528 L649 939 Q655 959 673 972 Q687 985 706 985 L818 985 Z " />
<glyph glyph-name="w" unicode="w" horiz-adv-x="1362" d="M1280 985 Q1310 985 1328 959 Q1340 942 1340 922 Q1340 913 1338 903 L1098 60 Q1092 40 1076 28 Q1060 15 1041 15 L902 15 Q881 15 866 28 Q849 41 845 62 L772 354 Q743 483 718 633 Q712 670 676 670 L668 670 Q638 664 632 634 Q610 488 576 355 L499 61 Q493 41 477 28 Q461 15 442 15 L302 15 Q283 15 268 28 Q252 41 245 61 L19 904 Q16 914 16 922 Q16 942 29 960 Q47 985 76 985 L179 985 Q200 985 216 972 Q233 956 237 933 L299 588 Q333 406 351 276 Q351 238 406 238 L406 239 Q425 243 433 271 Q445 344 465 434 Q473 469 482 512 L490 549 L498 586 L583 936 Q588 959 605 972 Q620 985 640 985 L729 985 Q750 985 765 972 Q781 959 785 938 L865 598 Q912 380 932 274 Q932 245 964 237 Q970 236 975 236 Q1008 236 1013 273 Q1029 406 1065 600 L1132 935 Q1136 957 1153 972 Q1169 985 1189 985 L1280 985 Z " />
<glyph glyph-name="x" unicode="x" horiz-adv-x="853" d="M808 111 Q818 95 818 79 Q818 63 809 46 Q793 15 759 15 L643 15 Q608 15 592 47 L521 183 Q495 234 446 343 Q429 359 413 359 Q396 359 378 342 Q362 303 341 257 L323 220 L305 182 L240 48 Q225 15 189 15 L89 15 Q54 15 38 47 Q29 64 29 79 Q29 96 40 113 L257 464 Q271 487 271 510 Q271 533 257 556 L49 888 Q38 904 38 922 Q38 936 46 953 Q63 985 97 985 L206 985 Q239 985 256 954 L324 832 L344 793 L363 754 Q389 703 406 668 Q425 658 435 658 Q451 658 468 674 L489 721 L507 761 Q528 805 543 836 L602 952 Q618 985 653 985 L747 985 Q782 985 799 952 Q807 936 807 922 Q807 905 795 887 L592 570 Q578 549 578 524 Q578 502 591 479 L808 111 Z " />
<glyph glyph-name="y" unicode="y" horiz-adv-x="927" d="M820 987 Q850 987 868 962 Q879 944 879 925 Q879 914 876 904 L694 348 Q652 224 611 81 Q604 58 595 26 L588 1 L581 -24 Q565 -78 555 -110 Q507 -263 446 -320 Q361 -397 258 -432 Q249 -435 239 -435 Q225 -435 213 -428 Q191 -414 184 -386 L162 -296 Q160 -288 160 -281 Q160 -267 168 -251 Q177 -230 197 -222 Q228 -208 259 -189 Q328 -150 371 -90 Q388 -66 388 -40 Q388 -22 381 -5 Q349 75 222 399 Q174 519 115 669 Q71 779 24 900 Q18 913 18 926 Q18 944 29 960 Q46 987 77 987 L202 987 Q220 987 236 975 Q252 962 258 943 L382 502 L387 479 L393 455 Q400 427 406 405 Q419 350 428 312 Q437 283 466 283 Q493 283 502 311 Q511 344 525 408 L536 458 Q541 485 546 502 L648 940 Q652 961 668 974 Q683 987 703 987 L820 987 Z " />
<glyph glyph-name="z" unicode="z" horiz-adv-x="839" d="M726 203 Q750 203 768 184 Q786 166 786 138 L786 79 Q786 52 768 33 Q751 15 726 15 L78 15 Q54 15 37 33 Q18 52 18 79 L18 131 Q18 153 31 171 L315 555 Q366 620 427 690 Q442 710 442 731 L442 739 Q439 766 420 783 Q402 800 377 800 L111 800 Q87 800 70 818 Q52 837 52 864 L52 921 Q52 948 70 967 Q87 985 111 985 L711 985 Q736 985 753 967 Q771 948 771 921 L771 861 Q771 838 757 821 L488 454 L460 419 L433 385 Q402 347 381 321 Q370 309 365 288 Q362 281 362 272 Q362 254 375 233 Q398 203 432 203 L726 203 Z " />
<glyph glyph-name="braceleft" unicode="&#x7b;" horiz-adv-x="440" d="M439 1292 Q281 1292 281 1106 Q281 1080 284 1045 L287 1014 Q289 992 291 981 L292 965 L294 947 Q296 926 298 912 Q301 871 301 840 L301 835 Q301 735 264 686 Q232 645 129 621 L129 560 Q232 537 264 495 Q301 445 301 345 L301 340 Q301 307 298 266 Q296 251 294 228 L291 195 L287 163 L284 132 Q281 96 281 72 Q281 -116 439 -116 Q440 -117 440 -119 L440 -225 L403 -225 Q132 -225 132 29 Q132 100 142 194 L146 236 L151 279 Q154 327 154 363 Q154 428 129 468 Q92 528 2 540 Q1 540 0 541 L0 638 Q1 639 2 639 Q92 651 129 709 Q154 750 154 817 Q154 869 142 987 Q132 1080 132 1151 Q132 1280 203 1343 Q272 1403 405 1403 L439 1403 Q440 1402 440 1399 L440 1292 L439 1292 Z " />
<glyph glyph-name="bar" unicode="&#x7c;" horiz-adv-x="145" d="M87 1676 Q111 1676 128 1659 Q145 1640 145 1613 L145 -318 Q145 -345 128 -363 Q111 -381 87 -381 L58 -381 Q34 -381 17 -363 Q0 -345 0 -318 L0 1613 Q0 1640 17 1659 Q34 1676 58 1676 L87 1676 Z " />
<glyph glyph-name="braceright" unicode="&#x7d;" horiz-adv-x="440" d="M439 634 L440 634 L440 536 L439 535 Q350 523 312 463 Q286 422 286 358 Q286 305 299 188 L303 146 L307 104 Q311 58 311 24 Q311 -230 38 -230 L1 -230 L1 -229 Q0 -229 0 -226 L0 -124 Q0 -123 1 -123 Q2 -122 2 -121 L1 -121 Q87 -120 126 -65 Q160 -19 160 67 Q160 117 150 191 L146 224 Q144 244 144 259 Q140 302 140 335 L140 340 Q140 441 176 490 Q209 532 314 555 L314 616 Q209 639 176 681 Q140 730 140 830 L140 835 Q140 866 144 909 Q144 923 146 942 L148 959 L150 975 Q160 1052 160 1101 Q160 1281 1 1287 L1 1288 Q0 1288 0 1290 L0 1394 Q0 1396 1 1396 Q2 1397 2 1398 L36 1398 Q170 1398 240 1338 Q311 1275 311 1146 Q311 1094 299 982 Q286 864 286 812 Q286 746 312 704 Q350 646 439 634 Z " />
<glyph glyph-name="asciitilde" unicode="&#x7e;" horiz-adv-x="963" d="M901 980 Q927 980 945 960 Q960 942 960 920 Q960 915 959 911 Q948 768 880 702 Q823 648 727 648 Q667 648 602 673 Q553 693 462 745 Q310 839 251 839 Q157 839 131 715 Q127 693 110 678 Q94 665 74 665 L63 665 Q36 665 19 686 Q4 704 4 726 Q4 732 5 737 Q22 871 89 936 Q148 993 245 993 Q308 993 369 969 Q418 950 512 896 Q665 808 721 808 Q806 808 831 928 Q835 951 852 966 Q868 980 888 980 L901 980 Z " />
<glyph glyph-name="exclamdown" unicode="&#xa1;" horiz-adv-x="293" d="M61 847 Q62 872 79 888 Q98 906 123 906 L168 906 Q193 906 211 888 Q228 872 230 847 L266 83 L266 78 Q266 54 249 36 Q231 17 204 17 L88 17 Q60 17 42 36 Q25 54 25 78 L25 83 L61 847 Z M150 1402 Q212 1402 252 1359 Q293 1314 293 1243 Q291 1171 252 1128 Q212 1085 148 1085 Q81 1085 41 1128 Q0 1172 0 1243 Q0 1314 42 1359 Q82 1402 148 1402 L150 1402 Z " />
<glyph glyph-name="cent" unicode="&#xa2;" horiz-adv-x="738" d="M732 96 Q734 89 734 84 Q734 68 724 53 Q711 33 686 27 Q634 14 543 6 L543 -131 Q543 -157 525 -174 Q506 -193 480 -193 L476 -193 Q449 -193 432 -175 Q414 -157 414 -131 L414 11 Q210 41 102 165 Q0 291 0 493 Q0 679 99 813 Q203 952 414 995 L414 1129 Q414 1156 432 1175 Q449 1192 476 1192 L480 1192 Q506 1192 525 1174 Q543 1156 543 1129 L543 998 Q621 997 672 984 Q697 980 709 958 Q720 942 720 925 Q720 919 718 912 L708 867 Q703 842 683 828 Q667 818 649 818 Q643 818 636 819 Q592 826 540 826 Q405 826 324 735 Q244 648 244 504 Q244 354 333 265 Q416 184 543 184 Q600 184 653 193 Q661 195 667 195 Q684 195 699 184 Q721 168 725 142 L732 96 Z " />
<glyph glyph-name="sterling" unicode="&#xa3;" horiz-adv-x="855" d="M791 229 Q818 229 835 210 Q855 192 855 165 L855 98 Q855 72 835 54 Q818 35 791 35 L63 35 Q36 35 19 54 Q0 71 0 98 L0 113 Q0 149 31 167 Q114 218 166 297 Q227 387 227 485 L227 525 Q223 559 200 582 Q176 605 142 605 L85 605 Q59 605 41 624 Q22 642 22 669 L22 693 Q22 720 40 737 Q59 756 85 756 L92 756 Q130 756 155 785 Q177 809 177 840 Q177 845 176 852 Q168 907 168 963 Q168 1148 284 1260 Q400 1371 592 1371 Q667 1371 730 1355 Q755 1349 769 1327 Q780 1311 780 1294 Q780 1288 778 1281 L767 1226 Q763 1201 741 1188 Q723 1176 706 1176 Q699 1176 693 1177 Q653 1184 608 1184 Q491 1184 431 1109 Q384 1049 384 949 Q384 894 395 826 Q401 795 424 777 Q446 756 478 756 L619 756 Q645 756 664 737 Q682 720 682 693 L682 669 Q682 642 663 624 Q645 605 619 605 L514 605 Q480 605 456 582 Q433 559 429 526 Q426 472 414 429 Q388 352 325 294 Q313 282 313 267 Q313 229 351 229 L791 229 Z " />
<glyph glyph-name="currency" unicode="&#xa4;" horiz-adv-x="909" d="M452 634 Q544 634 605 706 Q673 784 673 918 Q673 1034 614 1111 Q550 1194 452 1194 L450 1194 Q354 1194 291 1113 Q230 1036 230 916 Q230 785 301 707 Q364 634 452 634 Z M883 530 Q900 514 900 492 Q900 469 885 452 L884 451 Q867 433 843 433 L840 433 Q815 435 799 455 L743 524 Q726 549 694 555 Q687 556 682 556 Q657 556 638 542 Q554 487 452 487 Q345 487 267 539 Q247 551 225 551 Q219 551 212 550 Q183 546 163 523 L109 455 Q93 436 68 434 L63 434 Q40 434 25 452 Q9 468 9 488 L9 491 Q10 514 26 530 L108 611 Q132 637 132 665 Q132 685 120 706 Q69 795 69 914 Q69 1029 119 1122 Q130 1142 130 1162 Q130 1191 104 1216 L20 1295 Q3 1310 1 1333 L1 1336 Q1 1357 17 1374 L21 1379 Q38 1397 64 1397 Q89 1396 106 1377 L169 1304 Q187 1282 216 1278 Q222 1277 229 1277 Q250 1277 270 1289 Q347 1340 454 1340 L456 1340 Q563 1340 642 1290 Q662 1278 683 1278 Q690 1278 697 1279 Q724 1285 743 1306 L805 1378 Q822 1397 846 1397 L849 1397 Q873 1397 888 1381 L892 1376 Q908 1358 908 1338 L908 1335 Q907 1312 890 1296 L805 1215 Q778 1191 778 1160 Q778 1142 788 1123 Q834 1029 834 920 Q834 798 786 709 Q774 689 774 669 Q774 641 798 616 L883 530 Z " />
<glyph glyph-name="yen" unicode="&#xa5;" horiz-adv-x="933" d="M859 1348 Q894 1348 913 1316 Q922 1301 922 1285 Q922 1270 913 1254 L619 743 L846 743 Q864 743 874 732 Q887 720 887 703 Q887 687 874 674 Q863 662 846 662 L650 662 Q617 662 593 639 Q568 614 568 581 L568 538 Q568 505 592 480 Q617 456 650 456 L846 456 Q863 456 874 444 Q887 432 887 416 Q887 399 874 388 Q863 375 846 375 L650 375 Q617 375 593 352 Q568 327 568 293 L568 97 Q568 71 550 53 Q533 35 506 35 L411 35 Q385 35 366 54 Q348 71 348 97 L348 293 Q348 327 325 352 Q300 375 267 375 L73 375 Q56 375 44 388 Q32 399 32 416 Q32 433 43 444 Q56 456 73 456 L267 456 Q300 456 325 481 Q348 505 348 538 L348 581 Q348 614 325 639 Q300 662 267 662 L73 662 Q56 662 44 675 Q32 686 32 703 Q32 720 43 732 Q56 743 73 743 L300 743 L20 1255 Q11 1271 11 1286 Q11 1302 21 1317 Q39 1348 74 1348 L176 1348 Q194 1348 209 1337 Q226 1326 234 1309 L351 1028 Q372 977 396 911 L406 882 L416 855 L442 776 L497 776 Q512 820 524 853 L535 881 L545 911 Q571 983 591 1030 L709 1309 Q717 1327 732 1337 Q749 1348 767 1348 L859 1348 Z " />
<glyph glyph-name="brokenbar" unicode="&#xa6;" horiz-adv-x="165" d="M5 520 Q9 520 16 523 Q37 533 68 533 L97 533 Q128 533 149 523 L165 516 L155 -286 L10 -286 L5 520 Z M160 879 Q156 879 149 876 Q128 866 97 866 L68 866 Q37 866 16 876 L0 883 L10 1685 L155 1685 L160 879 Z " />
<glyph glyph-name="section" unicode="&#xa7;" horiz-adv-x="885" d="M169 891 Q169 768 369 694 Q402 682 461 661 L484 652 L505 645 Q528 636 545 630 Q569 622 590 622 Q625 622 657 642 Q712 678 713 743 L713 747 Q713 866 551 933 Q529 941 499 953 L472 963 L445 974 Q375 1000 342 1014 Q318 1023 295 1023 Q268 1023 242 1011 Q190 988 176 935 Q169 914 169 893 L169 891 Z M759 1479 Q752 1450 729 1436 Q713 1428 697 1428 Q688 1428 678 1431 Q594 1454 498 1454 Q403 1454 346 1421 Q283 1384 283 1317 Q283 1252 353 1206 Q404 1173 524 1135 Q709 1076 786 1010 Q885 930 885 795 Q885 692 810 613 Q779 583 776 540 Q775 533 775 526 Q775 492 794 462 Q828 405 828 340 Q828 185 690 103 Q576 35 413 35 Q248 35 128 85 Q105 94 93 117 Q87 130 87 143 Q87 152 90 161 L93 169 Q101 196 126 208 Q140 215 154 215 Q166 215 178 211 Q294 167 401 167 Q493 167 549 199 Q618 237 618 311 Q618 380 554 426 Q503 463 379 503 Q192 562 107 628 Q0 709 0 836 Q0 941 84 1019 Q117 1050 126 1094 Q128 1108 128 1120 Q128 1151 114 1180 Q88 1233 88 1289 Q88 1427 201 1506 Q312 1583 494 1583 Q617 1583 715 1555 Q740 1547 753 1525 Q762 1511 762 1496 Q762 1488 760 1482 L759 1479 Z " />
<glyph glyph-name="dieresis" unicode="&#xa8;" horiz-adv-x="641" d="M533 1177 Q490 1177 459 1210 Q428 1244 428 1293 Q428 1343 458 1376 Q489 1407 537 1407 Q581 1407 610 1376 Q641 1343 641 1293 Q641 1244 611 1209 Q581 1177 537 1177 L533 1177 Z M109 1177 Q63 1177 32 1210 Q0 1244 0 1293 Q0 1342 33 1375 Q64 1407 111 1407 Q154 1407 183 1376 Q214 1342 214 1293 Q214 1244 183 1209 Q153 1177 111 1177 L109 1177 Z " />
<glyph glyph-name="copyright" unicode="&#xa9;" horiz-adv-x="1240" d="M1162 659 Q1162 392 1002 206 Q926 118 828 70 Q727 20 615 20 Q503 20 400 70 Q300 118 224 206 Q62 392 62 659 Q62 924 224 1110 Q300 1197 400 1245 Q503 1295 615 1295 L617 1295 Q727 1295 828 1245 Q927 1197 1002 1110 Q1162 924 1162 659 Z M611 1214 Q417 1214 280 1050 Q145 888 145 657 Q145 426 280 264 Q417 101 613 101 L615 101 Q809 101 944 263 Q1079 426 1079 657 Q1079 888 944 1050 Q808 1214 613 1214 L611 1214 Z M833 940 Q829 925 816 918 Q807 913 798 913 Q792 913 787 915 Q722 937 659 937 Q543 937 476 860 Q409 785 409 653 Q409 529 476 449 Q546 367 657 367 Q731 367 794 390 Q800 393 807 393 Q815 393 823 388 Q838 381 841 368 L841 366 Q843 360 843 354 Q843 347 840 341 Q835 329 825 324 Q747 282 641 282 Q491 282 403 386 Q319 486 319 647 Q319 816 422 922 Q519 1022 659 1022 Q748 1022 816 991 Q827 986 833 974 Q837 967 837 959 Q837 954 836 950 L833 940 Z " />
<glyph glyph-name="ordfeminine" unicode="&#xaa;" horiz-adv-x="506" d="M376 1093 L351 1093 Q255 1093 203 1068 Q132 1032 132 961 Q132 913 164 880 Q196 848 243 848 Q281 848 317 871 Q351 896 363 929 Q371 944 374 962 Q376 974 376 988 L376 1093 Z M389 844 L342 844 Q269 763 176 763 L169 763 Q92 763 45 815 Q0 864 0 941 Q0 1045 87 1101 Q176 1159 370 1159 L370 1203 Q370 1219 364 1234 Q358 1254 342 1271 Q303 1314 225 1314 Q167 1314 110 1294 Q103 1291 96 1291 Q88 1291 79 1296 Q62 1305 58 1320 Q57 1325 57 1330 Q57 1340 61 1350 Q67 1362 81 1369 Q164 1405 262 1405 Q389 1405 451 1327 Q506 1258 506 1137 L506 910 Q506 842 505 812 Q505 794 492 778 Q480 764 466 764 L430 763 L428 763 Q414 763 403 777 Q389 794 389 813 L389 844 Z " />
<glyph glyph-name="guillemotleft" unicode="&#xab;" horiz-adv-x="722" d="M164 756 Q152 736 152 714 Q152 693 164 673 L308 434 Q318 418 318 402 Q318 388 309 372 Q291 340 255 340 Q220 340 202 371 L22 680 Q12 698 12 714 Q12 731 22 749 L202 1060 Q220 1091 275 1091 Q291 1091 309 1059 Q319 1043 319 1028 Q319 1013 309 997 L164 756 Z M701 434 Q712 417 712 401 Q712 387 703 372 Q684 340 649 340 Q613 340 595 371 L415 680 Q405 698 405 714 Q405 731 415 749 L595 1060 Q613 1091 669 1091 Q684 1091 703 1059 Q712 1044 712 1030 Q712 1014 701 997 L558 756 Q546 736 546 714 Q546 693 558 673 L701 434 Z " />
<glyph glyph-name="logicalnot" unicode="&#xac;" horiz-adv-x="890" d="M890 1017 L890 470 Q890 447 873 431 Q858 415 834 415 Q811 415 796 431 Q779 447 779 470 L779 889 L55 889 Q32 889 17 905 Q0 921 0 944 L0 961 Q0 984 17 1000 Q33 1017 55 1017 L890 1017 Z " />
<glyph glyph-name="registered" unicode="&#xae;" horiz-adv-x="620" d="M252 749 Q252 711 289 711 L300 711 Q376 711 376 772 Q376 834 302 834 L287 833 Q252 831 252 796 L252 749 Z M224 560 Q212 560 205 567 Q197 575 197 586 L197 856 L195 856 L202 857 Q215 860 230 862 Q270 867 309 867 Q385 867 416 843 Q440 826 440 786 Q440 770 426 754 Q412 738 387 729 Q373 722 373 708 Q373 694 387 687 Q422 674 433 618 Q435 604 437 591 Q438 587 438 584 Q438 576 433 570 Q425 560 412 560 L404 560 Q383 560 378 579 Q377 585 375 597 L370 616 Q359 681 300 681 L250 681 L250 586 Q250 575 243 567 Q235 560 224 560 Z M308 1007 Q200 1007 128 918 Q59 833 59 710 Q59 588 130 503 Q203 416 311 416 L316 416 Q422 416 493 503 Q564 589 564 712 Q564 833 492 919 Q419 1007 309 1007 L308 1007 Z M313 1058 Q441 1058 531 958 Q620 856 620 712 Q620 566 531 464 Q441 364 311 364 Q182 364 92 464 Q0 567 0 712 Q0 856 92 958 Q182 1058 311 1058 L313 1058 Z " />
<glyph glyph-name="macron" unicode="&#xaf;" horiz-adv-x="437" d="M437 1319 Q437 1307 429 1299 Q421 1291 409 1291 L28 1291 Q16 1291 8 1299 Q0 1307 0 1319 L0 1372 Q0 1383 8 1392 Q16 1400 28 1400 L409 1400 Q421 1400 429 1392 Q437 1383 437 1372 L437 1319 Z " />
<glyph glyph-name="degree" unicode="&#xb0;" horiz-adv-x="404" d="M203 1359 Q260 1359 295 1401 Q326 1437 326 1492 Q326 1545 296 1582 Q262 1626 203 1626 L201 1626 Q144 1626 111 1581 Q82 1544 82 1490 Q82 1439 113 1402 Q149 1359 203 1359 Z M207 1672 Q302 1672 354 1620 Q404 1572 404 1492 Q404 1414 351 1365 Q297 1313 205 1313 Q110 1313 53 1365 Q0 1413 0 1490 Q0 1569 52 1619 Q107 1672 205 1672 L207 1672 Z " />
<glyph glyph-name="plusminus" unicode="&#xb1;" horiz-adv-x="975" d="M925 999 Q945 999 960 983 Q975 967 975 944 L975 923 Q975 900 961 884 Q946 869 925 869 L552 869 L552 455 Q552 432 537 416 Q522 401 502 401 L473 401 Q454 401 440 416 Q424 432 424 455 L424 869 L50 869 Q30 869 15 884 Q0 900 0 923 L0 944 Q0 967 16 983 Q31 999 50 999 L424 999 L424 1408 Q424 1431 440 1447 Q454 1462 473 1462 L502 1462 Q522 1462 537 1447 Q552 1431 552 1408 L552 999 L925 999 Z M837 165 Q862 165 881 147 Q899 129 899 103 L899 97 Q899 71 881 54 Q862 35 837 35 L139 35 Q113 35 95 54 Q77 71 77 97 L77 103 Q77 129 95 147 Q113 165 139 165 L837 165 Z " />
<glyph glyph-name="acute" unicode="&#xb4;" horiz-adv-x="245" d="M89 1368 Q105 1398 139 1398 L173 1398 Q209 1398 225 1363 Q233 1347 233 1334 Q233 1314 218 1295 L121 1167 Q104 1145 76 1145 L70 1145 Q37 1145 20 1176 Q11 1192 11 1207 Q11 1223 20 1239 L89 1368 Z " />
<glyph glyph-name="mu" unicode="&#xb5;" horiz-adv-x="947" d="M605 199 Q572 123 520 85 Q459 41 383 41 Q311 41 208 164 L208 -21 Q208 -157 216 -275 L216 -282 Q216 -314 193 -338 Q168 -365 132 -365 L93 -365 Q62 -365 36 -343 Q12 -321 10 -289 Q0 -182 0 -23 L0 942 Q0 978 25 1002 Q49 1027 84 1027 L154 1027 Q190 1027 213 1002 Q238 978 238 942 L238 481 Q238 222 423 222 Q490 222 546 266 Q596 306 615 358 Q629 389 629 442 L629 942 Q629 978 654 1002 Q677 1027 713 1027 L783 1027 Q818 1027 842 1002 Q867 978 867 942 L867 360 Q867 263 912 227 Q944 203 944 160 L944 154 L940 110 Q938 77 914 55 Q890 33 858 33 L857 33 Q707 33 660 199 L605 199 Z " />
<glyph glyph-name="paragraph" unicode="&#xb6;" horiz-adv-x="822" d="M356 650 Q356 697 309 697 Q270 697 221 717 Q165 741 121 784 Q6 891 4 1059 L4 1072 Q4 1253 108 1361 Q249 1507 566 1507 Q680 1507 766 1497 Q790 1495 806 1478 Q822 1459 822 1436 L822 97 Q822 71 804 54 Q785 35 760 35 Q733 35 715 54 Q697 71 697 97 L697 1294 Q697 1328 673 1353 Q648 1377 613 1377 Q559 1377 520 1339 Q481 1299 481 1245 L481 97 Q481 71 462 54 Q445 35 419 35 Q392 35 375 54 Q356 71 356 97 L356 650 Z " />
<glyph glyph-name="&amp;#xb7;" unicode="&#xb7;" horiz-adv-x="212" d="M107 -58 Q63 -58 32 -25 Q0 9 0 56 Q0 107 31 140 Q62 172 109 172 Q152 172 181 140 Q212 107 212 56 Q212 9 181 -26 Q151 -58 109 -58 L107 -58 Z " />
<glyph glyph-name="&amp;#x2219;" unicode="&#x2219;" horiz-adv-x="212" d="M107 -58 Q63 -58 32 -25 Q0 9 0 56 Q0 107 31 140 Q62 172 109 172 Q152 172 181 140 Q212 107 212 56 Q212 9 181 -26 Q151 -58 109 -58 L107 -58 Z " />
<glyph glyph-name="cedilla" unicode="&#xb8;" horiz-adv-x="328" d="M161 -102 Q261 -115 293 -148 Q328 -181 328 -229 Q328 -307 269 -343 Q213 -379 116 -379 Q65 -379 22 -366 Q12 -362 6 -350 Q3 -344 3 -337 Q3 -332 5 -326 Q8 -319 19 -313 Q26 -309 33 -309 Q37 -309 40 -310 Q76 -322 105 -322 Q146 -322 172 -303 Q212 -278 212 -231 Q212 -135 72 -123 L119 -23 Q127 -7 145 -7 L166 -7 Q183 -7 190 -20 Q195 -27 195 -35 Q195 -41 191 -48 L161 -102 Z " />
<glyph glyph-name="guillemotright" unicode="&#xbb;" horiz-adv-x="722" d="M21 997 Q11 1013 11 1029 Q11 1043 20 1059 Q38 1091 73 1091 Q109 1091 127 1060 L306 751 Q317 733 317 716 Q317 700 306 682 L127 371 Q109 340 93 340 Q37 340 19 371 Q10 387 10 402 Q10 418 20 434 L165 675 Q177 695 177 717 Q177 738 165 759 L21 997 Z M414 997 Q404 1013 404 1029 Q404 1043 413 1059 Q431 1091 467 1091 Q502 1091 520 1060 L700 751 Q711 733 711 716 Q711 700 700 682 L520 371 Q502 340 467 340 L466 340 Q430 340 412 371 Q403 387 403 401 Q403 417 414 434 L558 675 Q570 695 570 717 Q570 738 558 759 L414 997 Z " />
<glyph glyph-name="questiondown" unicode="&#xbf;" horiz-adv-x="644" d="M384 1406 Q447 1406 487 1363 Q528 1319 528 1248 Q528 1176 488 1133 Q448 1089 383 1089 Q317 1089 277 1133 Q237 1176 237 1248 Q237 1319 278 1363 Q318 1406 383 1406 L384 1406 Z M455 919 Q464 919 472 912 Q479 906 480 896 L480 881 Q480 728 367 589 Q305 512 282 469 Q242 402 242 344 Q242 271 290 229 Q337 185 423 184 Q483 184 544 204 Q554 206 563 206 Q579 206 594 199 Q617 186 625 161 L637 120 Q639 111 639 102 Q639 87 633 74 Q622 53 599 44 Q484 -2 354 -2 Q179 -2 84 88 Q0 167 0 293 Q0 391 53 481 Q74 517 108 559 Q120 576 136 595 L152 612 L166 630 Q278 760 278 908 L278 916 Q278 918 279 918 Q279 919 281 919 L455 919 Z " />
<glyph glyph-name="AE" unicode="&#xc6;" horiz-adv-x="1576" d="M703 616 Q733 616 750 638 Q767 655 767 679 L767 687 L730 1002 L727 1026 L724 1052 L717 1103 Q710 1163 706 1202 Q706 1241 639 1241 Q594 1099 561 1007 L446 703 Q441 691 441 679 Q441 660 454 643 Q473 616 506 616 L703 616 Z M1504 231 Q1530 231 1548 212 Q1566 195 1566 169 L1566 97 Q1566 71 1548 54 Q1530 35 1504 35 L904 35 Q882 35 863 51 Q846 66 843 90 L811 354 Q806 387 781 406 Q758 426 727 426 L404 426 Q347 426 326 372 L213 75 Q207 57 191 47 Q175 35 155 35 L49 35 Q16 35 -3 62 Q-14 80 -14 97 Q-14 108 -9 120 L495 1361 Q501 1378 517 1388 Q533 1399 552 1399 L1429 1399 Q1455 1399 1473 1380 Q1491 1363 1491 1336 L1491 1265 Q1491 1239 1473 1221 Q1455 1203 1429 1203 L1008 1203 Q976 1203 955 1179 Q936 1160 936 1134 Q936 1128 937 1121 L962 892 Q966 867 986 847 Q1008 829 1035 829 L1421 829 Q1447 829 1465 811 Q1483 792 1483 767 L1483 697 Q1483 671 1465 654 Q1447 635 1421 635 L1084 635 Q1051 635 1029 610 Q1012 588 1012 562 L1012 554 L1045 294 Q1049 267 1070 249 Q1089 231 1117 231 L1504 231 Z " />
<glyph glyph-name="Ccedilla" unicode="&#xc7;" horiz-adv-x="980" d="M465 60 Q296 109 191 228 Q28 412 28 717 Q28 1058 225 1256 Q409 1443 701 1443 Q826 1443 927 1415 Q948 1408 960 1386 Q968 1370 968 1353 Q968 1344 966 1336 L950 1267 Q944 1241 925 1229 Q912 1220 898 1220 Q892 1220 885 1222 Q804 1245 714 1245 Q516 1245 394 1117 Q266 980 266 736 Q266 506 384 371 Q506 233 716 233 Q796 233 881 252 Q888 254 894 254 Q908 254 920 245 Q940 231 944 203 L956 140 Q957 133 957 126 Q957 108 948 91 Q936 71 916 65 Q808 35 672 35 Q611 35 538 45 Q538 22 534 15 L504 -39 Q604 -52 636 -85 Q671 -118 671 -166 Q671 -244 612 -280 Q556 -316 459 -316 Q408 -316 365 -303 Q355 -299 349 -287 Q346 -281 346 -274 Q346 -269 348 -263 Q351 -256 362 -250 Q369 -246 376 -246 Q380 -246 383 -247 Q419 -259 448 -259 Q489 -259 515 -240 Q555 -215 555 -168 Q555 -72 415 -60 L461 38 Q465 42 465 60 Z " />
<glyph glyph-name="Eth" unicode="&#xd0;" horiz-adv-x="1149" d="M308 712 L308 304 Q308 272 326 249 Q348 222 380 219 Q392 218 409 218 L442 218 Q642 218 753 352 Q859 476 871 712 L308 712 Z M872 748 Q871 989 764 1117 Q656 1245 464 1245 Q414 1245 374 1240 Q345 1236 325 1210 Q308 1186 308 1156 L308 748 L872 748 Z M898 1280 Q1086 1110 1086 766 Q1086 400 900 210 Q726 35 378 35 Q255 35 152 46 Q136 48 124 64 Q109 83 109 110 L109 1343 Q109 1369 123 1388 Q134 1404 152 1406 Q280 1424 436 1424 Q598 1424 709 1389 Q816 1354 898 1280 Z " />
<glyph glyph-name="multiply" unicode="&#xd7;" horiz-adv-x="915" d="M897 143 Q915 124 915 98 Q915 72 898 53 L896 51 Q876 30 847 30 Q818 30 798 52 L458 416 L117 52 Q97 30 68 30 Q39 30 19 51 L17 53 Q0 72 0 98 Q0 124 18 143 L365 515 L18 889 Q0 908 0 934 Q0 960 18 979 Q37 1000 67 1000 Q95 1000 115 978 L458 611 L801 978 Q821 1000 849 1000 Q878 1000 897 979 Q915 960 915 934 Q915 908 897 889 L551 515 L897 143 Z " />
<glyph glyph-name="Oslash" unicode="&#xd8;" horiz-adv-x="1252" d="M378 76 Q261 130 180 232 Q28 426 28 729 Q28 1044 191 1244 Q353 1446 616 1446 Q687 1446 761 1429 Q771 1446 779 1452 Q794 1464 814 1464 L823 1464 Q852 1464 870 1439 Q882 1422 882 1402 Q882 1398 879 1383 Q974 1329 1040 1245 Q1189 1053 1189 755 Q1189 419 1024 225 Q863 35 595 35 Q553 35 504 41 Q493 15 480 5 Q464 -8 445 -8 L435 -8 Q406 -8 388 17 Q376 34 376 54 Q376 59 378 76 Z M818 1166 L555 227 Q590 223 610 223 Q773 223 867 378 Q953 520 953 745 Q953 957 868 1098 Q853 1123 818 1166 Z M436 278 L707 1241 Q653 1258 608 1258 Q446 1258 350 1102 Q264 961 264 736 Q264 512 352 372 Q381 326 436 278 Z " />
<glyph glyph-name="Thorn" unicode="&#xde;" horiz-adv-x="1039" d="M758 551 Q758 684 704 772 Q642 871 537 871 Q472 871 420 832 Q369 795 342 730 Q334 708 327 682 Q322 652 322 629 L322 457 Q322 410 342 358 Q369 291 420 254 Q473 216 537 216 Q642 216 704 314 Q758 402 758 536 L758 551 Z M974 555 L974 531 Q974 296 865 155 Q818 94 757 62 Q700 33 640 33 L632 33 Q469 33 380 183 L322 183 L322 -73 Q322 -110 295 -135 Q271 -161 234 -161 L197 -161 Q160 -161 135 -135 Q109 -110 109 -73 L109 1159 Q109 1196 135 1221 Q160 1247 197 1247 L234 1247 Q271 1247 295 1221 Q322 1196 322 1159 L322 903 L380 903 Q469 1054 632 1054 L640 1054 Q700 1054 757 1025 Q818 992 865 932 Q974 790 974 555 Z " />
<glyph glyph-name="germandbls" unicode="&#xdf;" horiz-adv-x="1090" d="M161 58 Q135 58 118 76 Q99 95 99 120 L99 940 Q99 1258 245 1398 Q368 1522 585 1522 Q759 1522 872 1424 Q986 1325 986 1163 Q986 1145 983 1125 Q974 1040 905 988 Q821 924 821 840 Q821 763 902 677 L914 662 L928 647 Q941 630 952 616 Q982 580 1001 547 Q1051 463 1051 366 Q1051 216 955 128 Q856 35 678 35 Q618 35 562 44 Q535 48 520 69 Q510 84 510 102 Q510 109 511 116 L518 160 Q522 185 541 199 Q558 212 578 212 Q582 212 585 211 Q612 207 639 207 Q716 207 763 248 Q810 287 810 351 Q810 398 788 440 Q771 474 728 521 L716 535 L703 550 Q687 566 677 579 Q648 613 630 643 Q581 719 581 800 Q581 930 694 1012 Q760 1059 760 1139 L760 1140 Q760 1228 708 1284 Q654 1345 567 1345 Q337 1345 337 968 L337 120 Q337 95 318 76 Q301 58 275 58 L161 58 Z " />
<glyph glyph-name="ae" unicode="&#xe6;" horiz-adv-x="1451" d="M812 80 Q802 65 798 61 Q781 43 755 42 L674 40 Q649 40 630 60 Q613 78 613 103 L613 148 L554 148 Q501 79 437 49 Q375 20 306 20 L297 20 Q170 24 93 108 Q19 189 19 304 Q19 480 154 574 Q290 666 536 667 Q585 667 585 717 Q585 785 542 829 Q488 886 375 886 Q283 886 190 852 Q178 848 168 848 Q155 848 142 854 Q119 868 112 895 L109 908 Q106 917 106 927 Q106 942 113 956 Q123 978 145 986 Q275 1037 428 1037 Q611 1037 718 933 Q843 1050 1017 1050 Q1216 1050 1321 902 Q1412 771 1412 566 Q1412 551 1411 534 Q1409 508 1392 490 Q1376 473 1353 473 L881 473 Q843 473 816 443 L816 327 Q855 269 923 238 Q995 205 1088 205 Q1185 205 1269 223 Q1276 225 1281 225 Q1298 225 1313 214 Q1334 199 1338 174 L1343 142 Q1345 134 1345 128 Q1345 110 1336 95 Q1323 75 1301 67 Q1185 35 1045 35 Q919 35 812 80 Z M803 761 Q813 709 815 649 Q843 624 875 624 L1114 624 Q1156 624 1180 658 Q1199 681 1199 709 Q1199 719 1197 729 Q1183 801 1141 847 Q1086 905 999 905 Q919 905 863 851 Q826 817 803 761 Z M590 340 Q568 416 565 514 Q537 534 510 534 L507 534 Q380 528 298 484 Q191 429 191 330 Q191 253 269 210 Q328 178 398 178 Q464 178 517 220 Q568 260 589 327 L589 328 Q590 332 590 340 Z " />
<glyph glyph-name="ccedilla" unicode="&#xe7;" horiz-adv-x="755" d="M343 57 Q229 95 159 167 Q30 301 30 532 Q30 756 162 899 Q304 1050 547 1050 Q612 1050 678 1036 Q702 1032 715 1010 Q725 995 725 977 Q725 970 723 962 L714 914 Q709 890 689 874 Q675 864 659 864 Q654 864 648 865 Q608 871 561 871 Q428 871 346 777 Q267 687 267 549 L267 545 Q267 392 355 302 Q438 218 567 218 Q613 218 653 224 Q659 225 664 225 Q681 225 696 214 Q716 199 720 172 L727 125 Q728 120 728 116 Q728 97 716 79 Q703 58 681 54 Q599 35 506 35 Q464 35 409 42 Q409 19 405 12 L375 -42 Q475 -55 507 -88 Q542 -121 542 -169 Q542 -247 483 -283 Q427 -319 330 -319 Q279 -319 236 -306 Q226 -302 220 -290 Q217 -284 217 -277 Q217 -272 219 -266 Q222 -259 233 -253 Q240 -249 247 -249 Q251 -249 254 -250 Q290 -262 319 -262 Q360 -262 386 -243 Q426 -218 426 -171 Q426 -75 286 -63 L333 37 Q334 39 343 57 Z " />
<glyph glyph-name="eth" unicode="&#xf0;" horiz-adv-x="1028" d="M514 195 Q626 195 688 297 Q742 386 742 535 Q742 706 687 778 Q623 862 516 862 Q392 862 328 741 Q281 652 281 527 Q281 390 337 300 Q401 195 512 195 L514 195 Z M910 944 Q989 784 989 567 Q989 306 840 162 Q709 35 510 35 Q303 35 172 167 Q35 302 35 524 Q35 731 164 860 Q286 984 469 988 L479 988 Q543 988 621 930 L657 990 Q574 1105 485 1175 Q461 1193 435 1193 Q417 1193 398 1185 L199 1095 Q188 1090 179 1090 Q163 1090 154 1112 L153 1114 Q149 1124 149 1132 Q149 1148 169 1157 L234 1187 Q283 1210 284 1264 L284 1266 Q284 1318 238 1342 L236 1343 Q211 1356 205 1383 Q203 1391 203 1398 Q203 1417 215 1434 L233 1459 Q253 1486 279 1486 Q293 1486 309 1479 Q421 1429 526 1360 Q549 1346 572 1346 Q590 1346 608 1354 L800 1440 Q810 1445 819 1445 Q835 1445 844 1425 Q850 1413 850 1404 Q850 1389 829 1379 L752 1344 Q709 1323 702 1279 Q701 1270 701 1262 Q701 1229 726 1203 Q840 1090 910 944 Z " />
<glyph glyph-name="divide" unicode="&#xf7;" horiz-adv-x="890" d="M443 782 Q399 782 372 813 Q344 846 344 904 Q344 962 373 996 Q400 1026 445 1026 Q490 1026 517 996 Q544 963 545 904 Q545 846 517 813 Q490 782 445 782 L443 782 Z M825 594 Q853 594 871 576 Q890 558 890 531 Q890 504 870 486 Q853 467 825 467 L64 467 Q37 467 19 486 Q0 504 0 531 Q0 558 18 576 Q37 594 64 594 L825 594 Z M445 280 Q490 280 517 249 Q544 216 545 158 Q545 99 517 66 Q490 35 445 35 L443 35 Q399 35 372 66 Q344 99 344 158 Q344 215 373 249 Q400 280 445 280 Z " />
<glyph glyph-name="oslash" unicode="&#xf8;" horiz-adv-x="1015" d="M302 69 Q239 100 194 138 Q48 266 39 499 Q38 513 38 526 Q38 745 175 882 Q306 1014 500 1023 Q515 1024 530 1024 Q544 1024 570 1022 L625 1220 Q631 1239 647 1252 Q662 1264 682 1264 L691 1264 Q720 1264 738 1239 Q750 1222 750 1202 Q750 1193 748 1183 L694 994 Q772 962 827 913 Q976 779 976 540 Q976 308 833 168 Q703 41 515 32 Q501 31 489 31 Q463 31 425 35 L369 -164 Q363 -183 348 -195 Q332 -208 313 -208 L303 -208 Q274 -208 256 -183 Q244 -166 244 -146 Q244 -137 246 -127 L302 69 Z M646 822 L468 189 Q487 183 490 183 Q500 182 510 182 Q612 182 675 279 Q725 359 734 476 Q737 506 737 536 Q737 625 713 701 Q694 759 646 822 Z M354 254 L530 878 L498 878 Q396 878 335 769 Q278 668 278 529 Q278 407 318 318 Q327 300 354 254 Z " />
<glyph glyph-name="thorn" unicode="&#xfe;" horiz-adv-x="1003" d="M312 449 Q312 422 319 389 Q329 352 343 332 Q366 281 414 248 Q462 215 520 215 Q627 215 690 311 Q748 402 748 549 Q748 683 694 771 Q632 869 527 869 Q463 869 410 831 Q359 794 332 729 Q324 706 317 680 Q312 650 312 629 L312 449 Z M312 902 L370 902 Q459 1053 622 1053 L626 1053 Q688 1053 747 1024 Q808 991 855 930 Q964 789 964 554 Q964 299 840 156 Q734 36 590 36 Q519 36 462 66 Q411 93 369 157 L312 157 L312 -300 Q312 -326 294 -343 Q275 -362 250 -362 L161 -362 Q135 -362 118 -343 Q99 -326 99 -300 L99 1364 Q99 1391 118 1409 Q135 1427 161 1427 L250 1427 Q275 1427 294 1409 Q312 1391 312 1364 L312 902 Z " />
<glyph glyph-name="Aogonek" unicode="&#x104;" horiz-adv-x="1077" d="M604 575 Q647 575 670 610 Q688 632 688 660 Q688 672 684 684 L620 924 Q607 974 590 1047 Q584 1073 577 1110 L569 1142 L558 1193 Q531 1200 512 1200 Q503 1200 482 1198 Q472 1148 464 1110 L451 1045 Q435 968 424 924 L364 683 Q360 671 360 660 Q360 633 378 609 Q402 575 444 575 L604 575 Z M837 55 Q826 71 825 77 L753 340 Q736 403 673 403 L376 403 Q312 403 295 339 L230 79 Q225 59 210 46 Q197 35 181 35 L62 35 Q36 35 21 59 Q8 78 8 99 Q8 108 11 118 L353 1355 Q359 1376 375 1388 Q387 1399 404 1399 L658 1399 Q675 1399 688 1388 Q703 1376 709 1355 L1057 118 Q1059 108 1059 99 Q1059 78 1046 59 Q1031 35 1005 35 L899 35 Q899 16 898 13 Q883 -32 883 -70 Q883 -133 920 -174 Q960 -218 1025 -218 Q1047 -218 1068 -215 Q1071 -214 1073 -214 Q1081 -214 1087 -218 Q1096 -224 1100 -235 L1113 -281 Q1114 -286 1114 -291 Q1114 -296 1112 -300 Q1108 -310 1098 -315 Q1031 -348 952 -348 Q859 -348 810 -301 Q760 -254 760 -158 Q760 -109 778 -53 Q793 -8 815 36 Q819 43 837 55 Z " />
<glyph glyph-name="aogonek" unicode="&#x105;" horiz-adv-x="903" d="M594 448 Q594 484 570 510 Q544 534 510 534 L507 534 Q380 528 298 484 Q191 429 191 330 Q191 253 269 210 Q328 178 398 178 Q464 178 517 220 Q568 260 589 327 L589 329 Q594 355 594 388 L594 448 Z M627 60 Q613 88 613 104 L613 148 L554 148 Q501 79 437 49 Q375 20 306 20 L297 20 Q170 24 93 108 Q19 189 19 304 Q19 480 154 574 Q290 666 536 667 Q585 667 585 717 Q585 785 542 829 Q488 886 375 886 Q283 886 190 852 Q178 848 168 848 Q155 848 142 854 Q119 868 112 895 L109 908 Q106 917 106 927 Q106 942 113 956 Q123 978 145 986 Q275 1037 428 1037 Q636 1037 732 917 Q816 814 816 624 L816 106 Q815 79 798 60 Q781 43 755 42 L683 41 Q683 22 682 19 Q667 -26 667 -64 Q667 -127 704 -168 Q744 -212 809 -212 Q831 -212 852 -209 Q855 -208 857 -208 Q865 -208 871 -212 Q880 -218 884 -229 L897 -275 Q898 -280 898 -285 Q898 -290 896 -294 Q892 -304 882 -309 Q815 -342 736 -342 Q643 -342 594 -295 Q544 -248 544 -152 Q544 -103 562 -47 Q577 -2 599 42 Q604 51 627 60 Z " />
<glyph glyph-name="Dcroat" unicode="&#x110;" horiz-adv-x="1188" d="M148 792 L148 1343 Q148 1369 162 1388 Q173 1404 191 1406 Q319 1424 475 1424 Q637 1424 748 1389 Q855 1354 937 1280 Q1125 1110 1125 766 Q1125 400 939 210 Q765 35 417 35 Q294 35 191 46 Q175 48 163 64 Q148 83 148 110 L148 662 Q51 661 26 661 Q17 661 17 663 Q17 668 15 674 Q9 696 9 725 Q9 755 15 775 Q17 781 17 786 L17 793 L148 792 Z M347 788 L460 786 Q460 781 462 775 Q468 755 468 725 Q468 696 462 674 Q460 668 460 663 L470 654 L347 656 L347 304 Q347 272 365 249 Q387 222 419 219 Q431 218 448 218 L481 218 Q681 218 792 352 Q911 493 911 755 L911 759 Q911 988 803 1117 Q695 1245 503 1245 Q453 1245 413 1240 Q384 1236 364 1210 Q347 1186 347 1156 L347 788 Z " />
<glyph glyph-name="dcroat" unicode="&#x111;" horiz-adv-x="1052" d="M726 596 Q726 630 720 662 Q702 744 642 796 Q584 850 509 850 Q389 850 323 750 Q267 663 267 526 Q267 376 330 288 Q394 198 509 198 Q587 198 645 250 Q702 300 719 378 Q726 407 726 443 L726 596 Z M726 1223 L726 1412 Q726 1439 744 1458 Q761 1476 785 1476 L896 1476 Q919 1476 936 1458 Q955 1439 955 1412 L955 1216 L1044 1214 Q1044 1213 1045 1212 Q1049 1203 1050 1156 L955 1156 L955 311 Q955 261 953 200 L952 149 Q951 118 950 98 Q949 70 932 52 Q916 35 892 35 L825 35 Q801 35 784 54 Q766 73 766 100 L767 180 L707 180 Q613 12 438 12 Q275 12 160 141 Q31 287 31 538 L31 542 Q31 764 136 900 Q236 1029 395 1029 Q484 1029 554 993 Q619 960 668 882 L726 882 L726 1157 L602 1157 Q597 1157 597 1158 Q597 1165 593 1169 Q590 1176 590 1190 Q590 1203 594 1212 Q597 1217 597 1222 L597 1227 L726 1223 Z " />
<glyph glyph-name="Eogonek" unicode="&#x118;" horiz-adv-x="919" d="M566 35 L163 35 Q143 35 126 53 Q109 71 109 99 L109 1335 Q109 1362 126 1382 Q142 1399 163 1399 L785 1399 Q806 1399 822 1382 Q839 1362 839 1335 L839 1266 Q839 1239 822 1219 Q807 1203 785 1203 L415 1203 Q381 1203 356 1177 Q333 1152 333 1116 L333 922 Q333 886 356 861 Q381 835 415 835 L757 835 Q778 835 794 818 Q810 799 810 771 L810 705 Q810 677 794 658 Q778 641 757 641 L415 641 Q381 641 356 615 Q333 590 333 554 L333 318 Q333 282 356 257 Q381 231 415 231 L812 231 Q833 231 849 214 Q866 194 866 167 L866 99 Q866 71 849 52 Q833 35 812 35 L648 35 L648 16 Q648 12 647 9 Q632 -36 632 -74 Q632 -137 669 -178 Q709 -222 774 -222 Q796 -222 817 -219 Q820 -218 822 -218 Q830 -218 836 -222 Q845 -228 849 -239 L862 -285 Q863 -290 863 -295 Q863 -300 861 -304 Q857 -314 847 -319 Q780 -352 701 -352 Q608 -352 559 -305 Q509 -258 509 -162 Q509 -113 527 -57 Q539 -22 566 35 Z " />
<glyph glyph-name="eogonek" unicode="&#x119;" horiz-adv-x="928" d="M579 624 Q621 624 645 658 Q664 681 664 709 Q664 719 662 729 Q648 801 606 847 Q551 905 464 905 Q384 905 328 851 Q283 808 260 739 Q255 724 255 710 Q255 684 271 662 Q296 624 340 624 L579 624 Z M537 35 L510 35 Q281 35 154 167 Q30 298 30 530 Q30 738 141 885 Q265 1050 482 1050 Q681 1050 786 902 Q877 771 877 566 Q877 551 876 534 Q874 508 857 490 Q841 473 818 473 L346 473 Q299 473 273 431 Q260 409 260 387 Q260 366 271 346 Q306 276 388 238 Q460 205 553 205 Q650 205 734 223 Q741 225 746 225 Q763 225 778 214 Q799 199 803 174 L808 142 Q810 134 810 128 Q810 110 801 95 Q788 75 766 67 Q715 53 646 43 Q647 -32 683 -72 Q723 -116 788 -116 Q810 -116 831 -113 Q834 -112 836 -112 Q844 -112 850 -116 Q859 -122 863 -133 L876 -179 Q877 -184 877 -189 Q877 -194 875 -198 Q871 -208 861 -213 Q794 -246 715 -246 Q622 -246 573 -199 Q523 -152 523 -56 Q523 -22 537 35 Z " />
<glyph glyph-name="uni0122" unicode="&#x122;" horiz-adv-x="1190" d="M628 17 Q347 43 203 198 Q118 285 74 413 Q29 540 29 689 L29 695 Q31 1029 230 1223 Q422 1409 735 1409 Q883 1409 1001 1373 Q1022 1366 1034 1344 Q1043 1328 1043 1311 Q1043 1303 1040 1295 L1024 1226 Q1018 1200 997 1187 Q984 1178 972 1178 Q966 1178 960 1180 Q859 1211 732 1211 Q526 1211 400 1085 Q267 950 267 712 Q267 479 390 343 Q511 207 710 207 Q777 207 825 216 Q855 223 872 247 Q889 271 889 300 L889 513 Q889 548 867 572 Q842 598 809 598 L743 598 Q722 598 706 615 Q690 634 690 661 L690 718 Q690 745 706 764 Q722 781 743 781 L1048 781 Q1069 781 1085 764 Q1102 744 1102 718 L1102 133 Q1102 111 1091 94 Q1079 78 1062 72 Q980 48 896 33 Q803 16 707 15 Q704 2 702 -2 L672 -56 Q772 -69 804 -102 Q839 -135 839 -183 Q839 -261 780 -297 Q724 -333 627 -333 Q576 -333 533 -320 Q523 -316 517 -304 Q514 -298 514 -291 Q514 -286 516 -280 Q519 -273 530 -267 Q537 -263 544 -263 Q548 -263 551 -264 Q587 -276 616 -276 Q657 -276 683 -257 Q723 -232 723 -185 Q723 -89 583 -77 L628 17 Z " />
<glyph glyph-name="uni0123" unicode="&#x123;" horiz-adv-x="1029" d="M699 561 Q699 601 691 630 Q673 706 623 750 Q570 799 496 799 Q394 799 329 708 Q264 616 264 468 Q264 336 321 252 Q385 157 496 157 Q566 157 619 203 Q669 246 687 313 Q694 332 696 360 Q699 382 699 408 L699 561 Z M874 950 Q897 950 914 932 Q931 913 931 888 L931 885 Q928 794 928 676 L928 96 Q928 -218 794 -347 Q664 -465 425 -465 Q283 -465 168 -423 Q147 -416 136 -394 Q129 -379 129 -364 Q129 -356 131 -348 L144 -296 Q150 -269 172 -256 Q186 -249 199 -249 Q209 -249 218 -252 Q317 -289 417 -289 Q544 -289 621 -213 Q703 -130 703 21 L703 87 Q703 124 665 124 Q650 124 636 111 Q554 -12 403 -12 Q241 -12 138 117 Q30 249 30 461 Q30 693 151 837 Q266 973 433 973 Q591 973 668 842 Q683 827 699 827 Q736 827 736 863 L738 892 Q740 917 758 934 Q774 950 797 950 L874 950 Z M614 1382 L620 1382 Q641 1382 651 1370 Q657 1364 657 1358 Q657 1355 656 1353 Q589 1211 512 1106 Q502 1092 481 1091 L467 1090 L461 1090 Q440 1090 428 1101 Q422 1107 422 1112 Q422 1115 423 1118 Q470 1241 499 1359 Q500 1365 508 1371 Q518 1377 533 1378 L614 1382 Z " />
<glyph glyph-name="hcircumflex" unicode="&#x125;" horiz-adv-x="1034" d="M644 1028 Q778 1028 856 931 Q946 821 946 608 L946 98 Q946 71 929 53 Q912 35 888 35 L774 35 Q751 35 734 53 Q716 71 716 98 L716 572 Q716 837 525 837 Q459 837 406 793 Q364 758 342 702 Q331 668 331 617 L331 98 Q331 71 313 53 Q296 35 273 35 L159 35 Q135 35 118 53 Q101 71 101 98 L101 1413 Q101 1439 118 1457 Q135 1475 159 1475 L273 1475 Q296 1475 313 1457 Q331 1439 331 1413 L331 920 Q331 882 368 882 Q384 882 398 895 Q439 955 506 993 Q566 1028 644 1028 Z M433 1603 Q439 1594 439 1587 Q439 1581 435 1575 Q426 1560 410 1560 L360 1560 Q343 1560 336 1574 L242 1745 L196 1745 L102 1574 Q93 1560 77 1560 L27 1560 Q11 1560 2 1576 Q-2 1582 -2 1588 Q-2 1594 4 1603 L127 1800 Q135 1813 151 1813 L287 1813 Q303 1813 311 1799 L433 1603 Z " />
<glyph glyph-name="Hbar" unicode="&#x126;" horiz-adv-x="1232" d="M333 1163 L333 932 Q333 900 355 873 Q381 848 414 848 L806 848 Q838 848 864 873 Q886 900 886 932 L886 1163 L333 1163 Z M886 1199 L886 1337 Q886 1363 903 1382 Q919 1399 939 1399 L1056 1399 Q1077 1399 1092 1382 Q1109 1363 1109 1337 L1109 97 Q1109 71 1092 52 Q1077 35 1056 35 L939 35 Q919 35 903 52 Q886 71 886 97 L886 550 Q886 585 864 609 Q839 635 806 635 L414 635 Q380 635 355 609 Q333 585 333 550 L333 97 Q333 71 317 52 Q301 35 281 35 L162 35 Q141 35 126 52 Q109 71 109 97 L109 1337 Q109 1363 126 1382 Q141 1399 162 1399 L281 1399 Q301 1399 317 1382 Q333 1363 333 1337 L333 1199 L886 1199 Z " />
<glyph glyph-name="hbar" unicode="&#x127;" horiz-adv-x="1052" d="M349 1162 L349 920 Q349 892 376 892 Q388 892 398 902 Q440 962 509 1002 Q571 1038 652 1038 Q791 1038 872 937 Q964 824 964 608 L964 98 Q964 67 944 46 Q924 25 896 25 L782 25 Q755 25 735 46 Q714 67 714 98 L714 572 Q714 827 533 827 Q470 827 421 786 Q381 752 359 699 Q349 667 349 617 L349 98 Q349 67 328 46 Q308 25 281 25 L167 25 Q139 25 119 46 Q99 67 99 98 L99 1413 Q99 1443 119 1464 Q139 1485 167 1485 L281 1485 Q308 1485 328 1464 Q349 1443 349 1413 L349 1218 L867 1208 Q879 1206 879 1190 Q879 1175 870 1170 L349 1162 Z " />
<glyph glyph-name="Iogonek" unicode="&#x12e;" horiz-adv-x="514" d="M180 41 Q169 53 168 53 Q151 71 151 98 L151 1336 Q151 1362 169 1381 Q186 1399 210 1399 L319 1399 Q342 1399 359 1381 Q377 1362 377 1336 L377 98 Q377 71 359 53 Q342 35 319 35 L244 35 Q248 14 248 10 Q248 4 247 -1 Q232 -45 232 -83 Q232 -146 269 -187 Q309 -231 374 -231 Q396 -231 417 -228 Q420 -227 422 -227 Q430 -227 436 -231 Q445 -237 449 -248 L462 -294 Q463 -299 463 -304 Q463 -309 461 -313 Q457 -323 447 -328 Q380 -361 301 -361 Q208 -361 159 -314 Q109 -267 109 -171 Q109 -122 127 -66 Q142 -21 164 23 Q166 27 180 41 Z " />
<glyph glyph-name="iogonek" unicode="&#x12f;" horiz-adv-x="459" d="M203 1203 Q148 1203 114 1239 Q81 1274 81 1326 L81 1332 Q81 1388 113 1422 Q148 1458 204 1458 Q259 1458 293 1422 Q327 1387 329 1329 Q329 1275 295 1239 Q260 1203 203 1203 Z M112 48 L107 54 Q89 71 89 99 L89 942 Q89 968 108 988 Q124 1005 148 1005 L261 1005 Q284 1005 300 988 Q319 968 319 942 L319 99 Q319 71 301 53 Q284 35 261 35 L193 35 L193 16 Q193 12 192 9 Q177 -36 177 -74 Q177 -137 214 -178 Q254 -222 319 -222 Q341 -222 362 -219 Q365 -218 367 -218 Q375 -218 381 -222 Q390 -228 394 -239 L407 -285 Q408 -290 408 -295 Q408 -300 406 -304 Q402 -314 392 -319 Q325 -352 246 -352 Q153 -352 104 -305 Q54 -258 54 -162 Q54 -113 72 -57 Q87 -12 108 30 Q112 34 112 48 Z " />
<glyph glyph-name="dotlessi" unicode="&#x131;" horiz-adv-x="400" d="M254 1005 Q277 1005 293 988 Q312 968 312 942 L312 99 Q312 71 294 53 Q277 35 254 35 L141 35 Q117 35 100 53 Q82 71 82 99 L82 942 Q82 968 101 988 Q117 1005 141 1005 L254 1005 Z " />
<glyph glyph-name="Jcircumflex" unicode="&#x134;" horiz-adv-x="647" d="M490 1422 Q514 1422 531 1404 Q549 1385 549 1359 L549 551 Q549 271 434 147 Q332 35 123 35 Q67 35 6 46 Q-17 50 -33 71 Q-45 87 -45 107 Q-45 112 -44 117 L-36 185 Q-33 211 -13 226 Q4 240 21 240 Q25 240 29 239 Q61 235 92 235 Q209 235 267 308 Q327 384 327 555 L327 1359 Q327 1385 346 1404 Q363 1422 386 1422 L490 1422 Z M635 1602 Q641 1593 641 1586 Q641 1580 637 1574 Q628 1559 612 1559 L562 1559 Q545 1559 538 1573 L444 1744 L398 1744 L304 1573 Q295 1559 279 1559 L229 1559 Q213 1559 204 1575 Q200 1581 200 1587 Q200 1593 206 1602 L329 1799 Q337 1812 353 1812 L489 1812 Q505 1812 513 1798 L635 1602 Z " />
<glyph glyph-name="uni0136" unicode="&#x136;" horiz-adv-x="1056" d="M1069 95 Q1077 83 1077 69 Q1077 56 1069 41 Q1055 15 1029 15 L868 15 Q841 15 827 40 L549 565 Q529 599 491 603 L484 603 Q448 603 428 574 L355 480 Q340 460 340 434 L340 68 Q340 45 325 30 Q311 15 293 15 L156 15 Q138 15 124 30 Q109 45 109 68 L109 1326 Q109 1349 124 1364 Q138 1379 156 1379 L293 1379 Q311 1379 325 1364 Q340 1349 340 1326 L340 784 Q340 745 379 745 Q402 745 413 766 Q430 798 458 843 L481 881 L503 919 L783 1356 Q797 1379 821 1379 L983 1379 Q1012 1379 1025 1351 Q1031 1338 1031 1326 Q1031 1309 1020 1293 L664 805 L1069 95 Z M614 -44 L620 -44 Q641 -44 651 -56 Q657 -62 657 -68 Q657 -71 656 -73 Q589 -215 512 -320 Q502 -334 481 -335 L467 -336 L461 -336 Q440 -336 428 -325 Q422 -319 422 -314 Q422 -311 423 -308 Q470 -185 499 -67 Q500 -61 508 -55 Q518 -49 533 -48 L614 -44 Z " />
<glyph glyph-name="uni0137" unicode="&#x137;" horiz-adv-x="948" d="M915 113 Q927 95 927 78 Q927 64 919 48 Q903 15 868 15 L727 15 Q694 15 677 46 L507 360 Q484 399 441 404 L434 404 Q395 404 369 371 L346 340 Q329 318 329 288 L329 77 Q329 51 310 33 Q294 15 271 15 L157 15 Q133 15 116 33 Q99 51 99 77 L99 1393 Q99 1419 116 1438 Q133 1455 157 1455 L271 1455 Q294 1455 310 1438 Q329 1419 329 1393 L329 585 Q329 547 366 547 Q382 547 397 562 Q429 626 466 689 L634 957 Q651 985 682 985 L791 985 Q827 985 843 950 Q850 935 850 921 Q850 900 834 882 L605 601 L915 113 Z M528 -47 L534 -47 Q555 -47 565 -59 Q571 -65 571 -71 Q571 -74 570 -76 Q503 -218 426 -323 Q416 -337 395 -338 L381 -339 L375 -339 Q354 -339 342 -328 Q336 -322 336 -317 Q336 -314 337 -311 Q384 -188 413 -70 Q414 -64 422 -58 Q432 -52 447 -51 L528 -47 Z " />
<glyph glyph-name="kgreenlandic" unicode="&#x138;" horiz-adv-x="789" d="M755 78 Q759 72 759 65 Q759 57 754 48 Q747 35 734 35 L618 35 Q605 35 598 48 L397 426 Q380 455 349 458 Q345 459 340 459 Q312 459 294 433 L241 366 Q229 347 229 327 L229 63 Q229 52 220 43 Q213 35 205 35 L106 35 Q98 35 90 43 Q82 51 82 63 L82 969 Q82 981 90 989 Q98 997 106 997 L205 997 Q213 997 220 989 Q229 980 229 969 L229 579 Q229 541 266 541 Q282 541 297 556 Q312 584 332 616 L348 643 L364 671 L566 985 Q573 997 585 997 L701 997 Q716 997 722 983 Q726 975 726 968 Q726 959 720 951 L460 594 L755 78 Z " />
<glyph glyph-name="uni013B" unicode="&#x13b;" horiz-adv-x="871" d="M287 1399 Q309 1399 326 1381 Q344 1362 344 1335 L344 323 Q344 288 367 263 Q392 237 427 237 L821 237 Q844 237 860 220 Q878 200 878 174 L878 99 Q878 72 860 53 Q843 35 821 35 L166 35 Q144 35 127 53 Q109 72 109 99 L109 1335 Q109 1362 127 1381 Q144 1399 166 1399 L287 1399 Z M568 -91 L574 -91 Q595 -91 605 -103 Q611 -109 611 -115 Q611 -118 610 -120 Q543 -262 466 -367 Q456 -381 435 -382 L421 -383 L415 -383 Q394 -383 382 -372 Q376 -366 376 -361 Q376 -358 377 -355 Q424 -232 453 -114 Q454 -108 462 -102 Q472 -96 487 -95 L568 -91 Z " />
<glyph glyph-name="uni013C" unicode="&#x13c;" horiz-adv-x="478" d="M289 1475 Q312 1475 329 1457 Q347 1439 347 1412 L347 98 Q347 71 329 53 Q312 35 289 35 L176 35 Q151 35 134 53 Q117 71 117 98 L117 1412 Q117 1439 134 1457 Q151 1475 176 1475 L289 1475 Z M307 -91 L313 -91 Q334 -91 345 -103 Q350 -109 350 -113 Q350 -115 348 -118 Q281 -262 205 -367 Q195 -381 173 -382 L159 -383 L153 -383 Q132 -383 120 -372 Q114 -366 114 -361 Q114 -358 115 -356 Q163 -232 191 -114 Q192 -108 200 -102 Q210 -96 225 -95 L307 -91 Z " />
<glyph glyph-name="ldot" unicode="&#x140;" horiz-adv-x="634" d="M271 1475 Q294 1475 311 1457 Q329 1439 329 1412 L329 98 Q329 71 311 53 Q294 35 271 35 L158 35 Q133 35 116 53 Q99 71 99 98 L99 1412 Q99 1439 116 1457 Q133 1475 158 1475 L271 1475 Z M523 640 Q479 640 448 673 Q416 707 416 754 Q416 805 447 838 Q478 870 525 870 Q568 870 597 838 Q628 805 628 754 Q628 707 597 672 Q567 640 525 640 L523 640 Z " />
<glyph glyph-name="Lslash" unicode="&#x141;" horiz-adv-x="942" d="M364 689 L364 323 Q364 292 384 270 Q406 247 437 247 L831 247 Q859 247 877 227 Q898 204 898 174 L898 99 Q898 68 877 46 Q858 25 831 25 L176 25 Q149 25 130 46 Q109 68 109 99 L109 1335 Q109 1366 130 1388 Q149 1409 176 1409 L297 1409 Q324 1409 343 1388 Q364 1366 364 1335 L364 745 L899 737 Q904 730 904 717 Q904 702 894 699 L364 689 Z " />
<glyph glyph-name="lslash" unicode="&#x142;" horiz-adv-x="822" d="M287 773 L287 1412 Q287 1439 304 1457 Q321 1475 346 1475 L459 1475 Q482 1475 499 1457 Q517 1439 517 1412 L517 773 L804 773 Q808 773 810 769 Q816 763 816 755 Q816 747 810 739 Q808 737 804 737 L517 737 L517 98 Q517 71 499 53 Q482 35 459 35 L346 35 Q321 35 304 53 Q287 71 287 98 L287 737 L-10 737 Q-14 737 -16 739 Q-22 747 -22 755 Q-22 763 -16 769 Q-14 773 -10 773 L287 773 Z " />
<glyph glyph-name="uni0145" unicode="&#x145;" horiz-adv-x="1274" d="M109 1316 Q109 1342 127 1361 Q144 1379 166 1379 L375 1379 Q408 1379 425 1348 L677 872 Q801 638 892 392 Q892 362 929 362 Q969 362 969 395 Q969 400 968 406 Q943 648 943 994 L943 1316 Q943 1342 960 1361 Q977 1379 999 1379 L1095 1379 Q1117 1379 1134 1361 Q1151 1342 1151 1316 L1151 78 Q1151 51 1134 33 Q1117 15 1095 15 L922 15 Q889 15 872 46 L611 549 Q472 816 381 1048 Q373 1074 348 1074 Q342 1074 333 1071 Q306 1062 306 1034 Q318 751 318 412 L318 78 Q318 51 300 33 Q283 15 261 15 L166 15 Q144 15 127 33 Q109 51 109 78 L109 1316 Z M685 -47 L691 -47 Q712 -47 722 -59 Q728 -65 728 -71 Q728 -74 727 -76 Q660 -218 583 -323 Q573 -337 552 -338 L538 -339 L532 -339 Q511 -339 499 -328 Q493 -322 493 -317 Q493 -314 494 -311 Q541 -188 570 -70 Q571 -64 579 -58 Q589 -52 604 -51 L685 -47 Z " />
<glyph glyph-name="uni0146" unicode="&#x146;" horiz-adv-x="1023" d="M625 1008 Q764 1008 845 912 Q935 806 935 597 L935 77 Q935 51 917 33 Q900 15 877 15 L762 15 Q740 15 723 33 Q705 51 705 77 L705 556 Q705 817 518 817 Q447 817 395 770 Q353 731 333 672 Q319 639 319 580 L319 77 Q319 51 301 33 Q284 15 261 15 L146 15 Q123 15 106 32 Q89 51 89 77 Q88 170 88 264 Q87 389 86 497 Q84 789 83 922 L83 925 Q83 950 99 968 Q117 985 140 986 L228 987 Q251 987 268 969 Q286 950 286 923 L286 882 Q286 842 324 842 Q345 842 358 861 Q392 918 451 956 Q529 1008 625 1008 Z M565 -53 L571 -53 Q592 -53 602 -65 Q608 -71 608 -77 Q608 -80 607 -82 Q540 -224 463 -329 Q453 -343 432 -344 L418 -345 L412 -345 Q391 -345 379 -334 Q373 -328 373 -323 Q373 -320 374 -317 Q421 -194 450 -76 Q451 -70 459 -64 Q469 -58 484 -57 L565 -53 Z " />
<glyph glyph-name="Eng" unicode="&#x14a;" horiz-adv-x="1274" d="M925 13 Q886 20 872 46 L611 549 Q472 816 381 1048 Q373 1074 348 1074 Q342 1074 333 1071 Q306 1062 306 1034 Q318 751 318 412 L318 78 Q318 51 300 33 Q283 15 261 15 L166 15 Q144 15 127 33 Q109 51 109 78 L109 1316 Q109 1342 127 1361 Q144 1379 166 1379 L375 1379 Q408 1379 425 1348 L677 872 Q801 638 892 392 Q892 362 929 362 Q969 362 969 395 Q969 400 968 406 Q943 648 943 994 L943 1316 Q943 1342 960 1361 Q977 1379 999 1379 L1095 1379 Q1117 1379 1134 1361 Q1151 1342 1151 1316 L1151 102 Q1154 92 1154 83 Q1154 72 1150 60 Q1065 -181 969 -358 Q953 -386 924 -389 L906 -390 L897 -390 Q872 -390 856 -369 Q842 -351 842 -330 Q842 -321 844 -311 Q891 -154 925 13 Z " />
<glyph glyph-name="eng" unicode="&#x14b;" horiz-adv-x="1023" d="M705 101 L705 556 Q705 817 518 817 Q447 817 395 770 Q353 731 333 672 Q319 639 319 580 L319 77 Q319 51 301 33 Q284 15 261 15 L146 15 Q123 15 106 32 Q89 51 89 77 Q88 170 88 264 Q87 389 86 497 Q84 789 83 922 L83 925 Q83 950 99 968 Q117 985 140 986 L228 987 Q251 987 268 969 Q286 950 286 923 L286 882 Q286 842 324 842 Q345 842 358 861 Q392 918 451 956 Q529 1008 625 1008 Q764 1008 845 912 Q935 806 935 597 L935 77 Q935 51 917 33 Q904 20 881 15 Q816 -147 750 -269 Q734 -297 705 -300 L687 -301 L678 -301 Q653 -301 637 -280 Q623 -262 623 -241 Q623 -232 625 -222 Q674 -59 705 101 Z " />
<glyph glyph-name="OE" unicode="&#x152;" horiz-adv-x="1733" d="M893 1103 Q893 1218 779 1235 Q742 1240 700 1240 Q519 1240 403 1106 Q280 967 280 729 Q280 503 393 364 Q514 219 722 219 Q748 219 774 221 Q893 235 893 354 L893 1103 Z M1680 121 Q1680 94 1662 77 Q1643 58 1617 58 L956 58 Q930 58 895 54 L862 50 L830 45 L795 42 L755 39 Q708 35 668 35 Q357 35 184 238 Q28 423 28 717 Q28 1041 207 1233 Q383 1424 674 1424 Q756 1424 850 1411 L886 1408 L919 1404 Q957 1401 980 1401 L1589 1401 Q1615 1401 1633 1382 Q1652 1364 1652 1338 L1652 1271 Q1652 1245 1634 1227 Q1615 1209 1589 1209 L1213 1209 Q1126 1209 1126 1122 L1126 932 Q1126 845 1213 845 L1559 845 Q1585 845 1604 827 Q1622 809 1622 782 L1622 718 Q1622 692 1603 674 Q1585 655 1559 655 L1213 655 Q1126 655 1126 568 L1126 337 Q1126 250 1213 250 L1617 250 Q1643 250 1662 231 Q1680 214 1680 187 L1680 121 Z " />
<glyph glyph-name="oe" unicode="&#x153;" horiz-adv-x="1540" d="M1247 593 Q1301 593 1301 645 L1301 649 Q1297 729 1260 781 Q1208 856 1104 856 Q1013 856 956 785 Q911 730 901 654 Q900 648 900 642 Q900 593 954 593 L1247 593 Z M485 842 Q364 842 304 727 Q260 643 260 514 Q260 375 314 286 Q376 184 483 184 Q589 184 650 282 Q703 370 703 516 Q703 649 656 735 Q597 842 486 842 L485 842 Z M953 456 Q903 456 903 411 Q903 405 904 400 Q918 303 1004 246 Q1082 192 1192 192 Q1285 192 1365 213 Q1372 215 1379 215 Q1396 215 1411 205 Q1433 192 1438 166 L1443 141 Q1445 132 1445 123 Q1445 87 1404 73 Q1346 53 1271 43 Q1212 35 1152 35 Q942 35 834 198 L817 210 L793 210 L776 198 Q668 35 452 35 Q271 35 155 159 Q30 292 30 512 Q30 727 155 860 Q277 990 471 990 Q683 990 773 829 L797 813 L828 822 Q938 990 1129 990 Q1317 990 1416 850 Q1501 729 1501 538 L1501 512 Q1499 489 1482 472 Q1467 456 1444 456 L953 456 Z " />
<glyph glyph-name="uni0156" unicode="&#x156;" horiz-adv-x="1076" d="M494 762 Q620 762 694 828 Q770 893 770 1004 Q770 1117 698 1179 Q632 1238 512 1239 Q457 1239 414 1235 Q382 1231 361 1206 Q339 1181 339 1148 L339 849 Q339 814 362 789 Q388 762 423 762 L494 762 Z M980 249 Q1003 158 1014 115 Q1017 106 1017 97 Q1017 77 1005 59 Q988 35 960 35 L837 35 Q820 35 805 46 Q790 57 784 76 Q758 162 718 341 Q688 482 632 539 Q577 597 466 599 L423 599 Q389 599 362 573 Q339 547 339 512 L339 97 Q339 71 322 53 Q305 35 283 35 L165 35 Q143 35 127 53 Q109 71 109 97 L109 1330 Q109 1354 124 1372 Q138 1389 159 1391 Q306 1409 478 1409 Q684 1409 816 1309 Q952 1206 952 1030 Q952 904 906 820 Q862 741 763 702 L763 649 Q892 593 943 395 L962 322 L980 249 Z M614 -53 L620 -53 Q641 -53 651 -65 Q657 -71 657 -77 Q657 -80 656 -82 Q589 -224 512 -329 Q502 -343 481 -344 L467 -345 L461 -345 Q440 -345 428 -334 Q422 -328 422 -323 Q422 -320 423 -317 Q470 -194 499 -76 Q500 -70 508 -64 Q518 -58 533 -57 L614 -53 Z " />
<glyph glyph-name="uni0157" unicode="&#x157;" horiz-adv-x="652" d="M484 986 Q543 1028 609 1028 Q620 1028 628 1019 Q637 1011 637 998 L637 847 Q637 826 623 813 Q610 799 592 799 L591 799 Q497 799 433 747 Q369 695 351 607 Q345 571 345 528 L345 97 Q345 71 326 53 Q310 35 287 35 L173 35 Q149 35 132 53 Q115 71 115 97 L115 943 Q115 969 132 988 Q149 1005 173 1005 L248 1005 Q272 1005 288 988 Q305 970 305 945 L305 853 Q305 813 345 813 Q369 813 383 838 Q415 935 484 986 Z M279 -79 L285 -79 Q306 -79 316 -91 Q322 -97 322 -103 Q322 -106 321 -108 Q254 -250 177 -355 Q167 -369 146 -370 L132 -371 L126 -371 Q105 -371 93 -360 Q87 -354 87 -349 Q87 -346 88 -343 Q135 -220 164 -102 Q165 -96 173 -90 Q183 -84 198 -83 L279 -79 Z " />
<glyph glyph-name="Scedilla" unicode="&#x15e;" horiz-adv-x="918" d="M422 35 L380 35 Q231 35 96 84 Q74 92 64 113 Q56 128 56 144 Q56 152 58 160 L74 234 Q80 261 103 275 Q117 282 130 282 Q140 282 151 278 Q277 231 398 231 Q511 231 575 281 Q643 331 643 421 Q643 503 579 559 Q527 606 398 656 Q58 784 58 1047 Q58 1218 179 1328 Q308 1443 523 1443 Q655 1443 766 1407 Q788 1400 800 1378 Q808 1363 808 1347 Q808 1339 806 1330 L787 1261 Q781 1234 758 1221 Q745 1213 732 1213 Q723 1213 714 1216 Q619 1247 518 1247 Q413 1247 352 1199 Q290 1150 290 1074 Q290 991 363 937 Q413 899 556 839 Q726 773 802 677 Q879 583 879 445 Q879 269 759 158 Q662 69 492 42 Q497 24 497 22 Q497 16 493 9 L463 -45 Q563 -58 595 -91 Q630 -124 630 -172 Q630 -250 571 -286 Q515 -322 418 -322 Q367 -322 324 -309 Q314 -305 308 -293 Q305 -287 305 -280 Q305 -275 307 -269 Q310 -262 321 -256 Q328 -252 335 -252 Q339 -252 342 -253 Q378 -265 407 -265 Q448 -265 474 -246 Q514 -221 514 -174 Q514 -78 374 -66 L422 35 Z " />
<glyph glyph-name="scedilla" unicode="&#x15f;" horiz-adv-x="730" d="M331 35 Q187 35 87 69 Q66 76 55 98 Q47 113 47 129 Q47 137 49 145 L57 182 Q63 209 86 223 Q99 230 112 230 Q121 230 132 226 Q229 190 308 190 Q471 190 471 313 Q471 369 430 403 Q396 433 306 465 Q172 514 109 592 Q55 656 55 739 L55 745 Q55 876 149 961 Q250 1050 412 1050 Q505 1050 590 1026 Q611 1019 624 997 Q632 982 632 966 Q632 958 630 950 L623 919 Q617 893 595 880 Q581 872 567 872 Q559 872 552 874 Q483 897 422 897 Q355 897 316 867 Q273 833 273 776 Q273 724 320 687 Q356 661 451 624 Q579 577 635 508 Q689 440 691 336 Q691 202 597 121 Q525 59 383 39 Q398 13 398 6 Q398 0 394 -7 L364 -61 Q464 -74 496 -107 Q531 -140 531 -188 Q531 -266 472 -302 Q416 -338 319 -338 Q268 -338 225 -325 Q215 -321 209 -309 Q206 -303 206 -296 Q206 -291 208 -285 Q211 -278 222 -272 Q229 -268 236 -268 Q240 -268 243 -269 Q279 -281 308 -281 Q349 -281 375 -262 Q415 -237 415 -190 Q415 -94 275 -82 L331 35 Z " />
<glyph glyph-name="uni0162" unicode="&#x162;" horiz-adv-x="858" d="M432 33 Q390 36 375 53 Q356 72 356 99 L356 1111 Q356 1146 332 1171 Q307 1196 273 1196 L61 1196 Q36 1196 19 1214 Q1 1233 1 1261 L1 1335 Q1 1362 19 1381 Q36 1399 61 1399 L888 1399 Q912 1399 929 1381 Q947 1362 947 1335 L947 1261 Q947 1233 929 1214 Q912 1196 888 1196 L670 1196 Q636 1196 610 1172 Q586 1146 586 1111 L586 99 Q586 72 568 53 Q551 35 527 35 L499 35 Q504 14 504 12 Q504 7 500 1 L470 -54 Q570 -67 602 -100 Q637 -133 637 -181 Q637 -259 578 -295 Q522 -331 425 -331 Q374 -331 331 -318 Q321 -314 315 -302 Q312 -296 312 -289 Q312 -284 314 -278 Q317 -271 328 -265 Q335 -261 342 -261 Q346 -261 349 -262 Q385 -274 414 -274 Q455 -274 481 -255 Q521 -230 521 -183 Q521 -87 381 -75 L432 33 Z " />
<glyph glyph-name="uni0163" unicode="&#x163;" horiz-adv-x="600" d="M324 48 Q258 73 222 113 Q148 196 148 398 L148 781 Q148 813 126 836 Q103 858 73 858 Q52 858 36 875 Q20 891 20 916 L20 969 Q20 993 36 1011 Q51 1026 73 1026 Q105 1026 126 1050 Q148 1072 148 1104 L148 1267 Q148 1291 164 1308 Q180 1324 201 1324 L319 1324 Q340 1324 356 1308 Q372 1291 372 1267 L372 1104 Q372 1072 393 1050 Q414 1026 447 1026 L534 1026 Q556 1026 571 1011 Q587 993 587 969 L587 916 Q587 891 571 875 Q555 858 534 858 L447 858 Q414 858 394 835 Q372 813 372 781 L372 447 Q372 322 385 291 Q411 228 506 228 Q516 228 527 229 Q548 229 563 213 Q579 197 580 172 L581 100 Q581 78 567 62 Q554 46 535 43 Q484 35 421 35 L400 35 Q394 21 392 16 L362 -38 Q462 -51 494 -84 Q529 -117 529 -165 Q529 -243 470 -279 Q414 -315 317 -315 Q266 -315 223 -302 Q213 -298 207 -286 Q204 -280 204 -273 Q204 -268 206 -262 Q209 -255 220 -249 Q227 -245 234 -245 Q238 -245 241 -246 Q277 -258 306 -258 Q347 -258 373 -239 Q413 -214 413 -167 Q413 -71 273 -59 L324 48 Z " />
<glyph glyph-name="Tcaron" unicode="&#x164;" horiz-adv-x="871" d="M900 1398 Q925 1398 942 1380 Q960 1360 960 1333 L960 1258 Q960 1229 942 1210 Q925 1192 900 1192 L679 1192 Q645 1192 619 1168 Q594 1141 594 1106 L594 80 Q594 53 576 33 Q559 15 534 15 L421 15 Q397 15 380 33 Q361 53 361 80 L361 1106 Q361 1141 337 1167 Q311 1192 277 1192 L62 1192 Q36 1192 19 1210 Q1 1229 1 1258 L1 1333 Q1 1360 19 1380 Q36 1398 62 1398 L900 1398 Z M259 1764 Q254 1772 254 1779 Q254 1785 258 1791 Q267 1806 283 1806 L333 1806 Q349 1806 358 1792 L451 1622 L496 1622 L591 1792 Q600 1806 616 1806 L666 1806 Q682 1806 691 1791 Q695 1785 695 1779 Q695 1772 690 1764 L566 1566 Q558 1553 542 1553 L405 1553 Q389 1553 381 1567 L259 1764 Z " />
<glyph glyph-name="tcaron" unicode="&#x165;" horiz-adv-x="607" d="M372 427 Q372 302 385 271 Q411 208 506 208 Q516 208 527 209 Q548 209 563 193 Q579 177 580 152 L581 80 Q581 58 567 42 Q554 26 535 23 Q484 15 421 15 Q292 15 222 93 Q148 176 148 378 L148 761 Q148 793 126 816 Q103 838 73 838 Q52 838 36 855 Q20 871 20 896 L20 949 Q20 973 36 991 Q51 1006 73 1006 Q105 1006 126 1030 Q148 1052 148 1084 L148 1247 Q148 1271 164 1288 Q180 1304 201 1304 L319 1304 Q340 1304 356 1288 Q372 1271 372 1247 L372 1084 Q372 1052 393 1030 Q414 1006 447 1006 L534 1006 Q556 1006 571 991 Q587 973 587 949 L587 896 Q587 871 571 855 Q555 838 534 838 L447 838 Q414 838 394 815 Q372 793 372 761 L372 427 Z M58 1663 Q53 1671 53 1678 Q53 1684 57 1690 Q66 1705 82 1705 L132 1705 Q148 1705 157 1691 L250 1521 L295 1521 L390 1691 Q399 1705 415 1705 L465 1705 Q481 1705 490 1690 Q494 1684 494 1678 Q494 1671 489 1663 L365 1465 Q357 1452 341 1452 L204 1452 Q188 1452 180 1466 L58 1663 Z " />
<glyph glyph-name="Tbar" unicode="&#x166;" horiz-adv-x="994" d="M377 735 L377 1111 Q377 1146 353 1171 Q328 1196 294 1196 L82 1196 Q57 1196 40 1214 Q22 1233 22 1261 L22 1335 Q22 1362 40 1381 Q57 1399 82 1399 L909 1399 Q933 1399 950 1381 Q968 1362 968 1335 L968 1261 Q968 1233 950 1214 Q933 1196 909 1196 L691 1196 Q657 1196 631 1172 Q607 1146 607 1111 L607 735 L952 735 Q957 735 961 731 Q967 725 967 717 Q967 709 961 702 Q958 699 952 699 L607 699 L607 99 Q607 72 589 53 Q572 35 548 35 L436 35 Q413 35 396 53 Q377 72 377 99 L377 699 L39 699 Q33 699 30 702 Q24 709 24 717 Q24 725 30 731 Q34 735 39 735 L377 735 Z " />
<glyph glyph-name="tbar" unicode="&#x167;" horiz-adv-x="878" d="M486 526 L486 447 Q486 322 499 291 Q525 228 620 228 Q630 228 641 229 Q662 229 677 213 Q693 197 694 172 L695 100 Q695 78 681 62 Q668 46 649 43 Q598 35 535 35 Q406 35 336 113 Q262 196 262 398 L262 526 L-39 526 Q-45 526 -48 529 Q-54 536 -54 544 Q-54 552 -48 558 Q-44 562 -39 562 L262 562 L262 781 Q262 813 240 836 Q217 858 187 858 Q166 858 150 875 Q134 891 134 916 L134 969 Q134 993 150 1011 Q165 1026 187 1026 Q219 1026 240 1050 Q262 1072 262 1104 L262 1267 Q262 1291 278 1308 Q294 1324 315 1324 L433 1324 Q454 1324 470 1308 Q486 1291 486 1267 L486 1104 Q486 1072 507 1050 Q528 1026 561 1026 L648 1026 Q670 1026 685 1011 Q701 993 701 969 L701 916 Q701 891 685 875 Q669 858 648 858 L561 858 Q528 858 508 835 Q486 813 486 781 L486 562 L874 562 Q879 562 883 558 Q889 552 889 544 Q889 536 883 529 Q880 526 874 526 L486 526 Z " />
<glyph glyph-name="Uogonek" unicode="&#x172;" horiz-adv-x="1213" d="M511 39 Q93 96 93 657 L93 1359 Q93 1386 110 1404 Q127 1422 151 1422 L265 1422 Q288 1422 305 1404 Q323 1386 323 1359 L323 631 Q323 437 391 334 Q463 225 598 225 Q876 225 876 631 L876 1359 Q876 1386 894 1404 Q911 1422 934 1422 L1046 1422 Q1070 1422 1087 1404 Q1104 1386 1104 1359 L1104 653 Q1104 341 967 183 Q849 49 618 35 Q622 -35 656 -72 Q696 -116 761 -116 Q783 -116 804 -113 Q807 -112 809 -112 Q817 -112 823 -116 Q832 -122 836 -133 L849 -179 Q850 -184 850 -189 Q850 -194 848 -198 Q844 -208 834 -213 Q767 -246 688 -246 Q595 -246 546 -199 Q496 -152 496 -56 Q496 -19 511 39 Z " />
<glyph glyph-name="uogonek" unicode="&#x173;" horiz-adv-x="1002" d="M385 35 Q232 38 158 129 Q69 235 69 453 L69 965 Q69 991 88 1011 Q104 1028 129 1028 L241 1028 Q266 1028 283 1011 Q301 991 301 965 L301 504 Q301 227 486 227 Q556 227 607 273 Q648 307 668 363 Q680 391 680 445 L680 965 Q680 991 699 1011 Q715 1028 740 1028 L853 1028 Q878 1028 895 1011 Q913 992 913 965 L913 545 Q913 290 914 123 Q914 95 895 77 Q878 58 854 58 L775 58 Q752 58 734 77 Q716 96 716 123 L716 166 Q716 205 677 205 Q654 205 643 186 Q629 161 609 138 Q584 109 554 88 Q526 69 485 53 L485 44 Q471 2 471 -36 Q471 -99 508 -140 Q548 -184 613 -184 Q635 -184 656 -181 Q659 -180 661 -180 Q669 -180 675 -184 Q684 -190 688 -201 L701 -247 Q702 -252 702 -257 Q702 -262 700 -266 Q696 -276 686 -281 Q619 -314 540 -314 Q447 -314 398 -267 Q348 -220 348 -124 Q348 -75 366 -19 Q372 -2 385 35 Z " />
<glyph glyph-name="longs" unicode="&#x17f;" horiz-adv-x="496" d="M453 1499 Q486 1499 513 1497 Q536 1495 551 1477 Q567 1458 567 1433 L566 1376 Q566 1349 549 1330 Q532 1313 507 1313 L504 1313 Q415 1313 368 1243 Q329 1186 329 1093 L329 1073 Q329 1060 331 769 L331 97 Q331 71 313 53 Q296 35 273 35 L156 35 Q133 35 116 53 Q99 71 99 97 L99 1081 Q99 1177 126 1259 Q155 1350 212 1404 Q303 1499 453 1499 Z " />
<glyph glyph-name="uni01E3" unicode="&#x1e3;" horiz-adv-x="1451" d="M934 1317 Q934 1305 926 1297 Q918 1289 906 1289 L525 1289 Q513 1289 505 1297 Q497 1305 497 1317 L497 1370 Q497 1381 505 1390 Q513 1398 525 1398 L906 1398 Q918 1398 926 1390 Q934 1381 934 1370 L934 1317 Z M803 761 Q813 709 815 649 Q843 624 875 624 L1114 624 Q1156 624 1180 658 Q1199 681 1199 709 Q1199 719 1197 729 Q1183 801 1141 847 Q1086 905 999 905 Q919 905 863 851 Q826 817 803 761 Z M590 340 Q568 416 565 514 Q537 534 510 534 L507 534 Q380 528 298 484 Q191 429 191 330 Q191 253 269 210 Q328 178 398 178 Q464 178 517 220 Q568 260 589 327 L589 328 Q590 332 590 340 Z M812 80 Q802 65 798 61 Q781 43 755 42 L674 40 Q649 40 630 60 Q613 78 613 103 L613 148 L554 148 Q501 79 437 49 Q375 20 306 20 L297 20 Q170 24 93 108 Q19 189 19 304 Q19 480 154 574 Q290 666 536 667 Q585 667 585 717 Q585 785 542 829 Q488 886 375 886 Q283 886 190 852 Q178 848 168 848 Q155 848 142 854 Q119 868 112 895 L109 908 Q106 917 106 927 Q106 942 113 956 Q123 978 145 986 Q275 1037 428 1037 Q611 1037 718 933 Q843 1050 1017 1050 Q1216 1050 1321 902 Q1412 771 1412 566 Q1412 551 1411 534 Q1409 508 1392 490 Q1376 473 1353 473 L881 473 Q843 473 816 443 L816 327 Q855 269 923 238 Q995 205 1088 205 Q1185 205 1269 223 Q1276 225 1281 225 Q1298 225 1313 214 Q1334 199 1338 174 L1343 142 Q1345 134 1345 128 Q1345 110 1336 95 Q1323 75 1301 67 Q1185 35 1045 35 Q919 35 812 80 Z " />
<glyph glyph-name="uni01E4" unicode="&#x1e4;" horiz-adv-x="1291" d="M1102 410 L1304 410 L1304 392 Q1304 376 1303 374 L1102 374 L1102 153 Q1102 131 1091 114 Q1079 98 1062 92 Q980 68 896 53 Q795 35 704 35 Q374 35 203 218 Q118 305 74 433 Q29 560 29 709 L29 715 Q31 1049 230 1243 Q422 1429 735 1429 Q883 1429 1001 1393 Q1022 1386 1034 1364 Q1043 1348 1043 1331 Q1043 1323 1040 1315 L1024 1246 Q1018 1220 997 1207 Q984 1198 972 1198 Q966 1198 960 1200 Q859 1231 732 1231 Q526 1231 400 1105 Q267 970 267 732 Q267 499 390 363 Q511 227 710 227 Q777 227 825 236 Q855 243 872 267 Q889 291 889 320 L889 533 Q889 568 867 592 Q842 618 809 618 L743 618 Q722 618 706 635 Q690 654 690 681 L690 738 Q690 765 706 784 Q722 801 743 801 L1048 801 Q1069 801 1085 784 Q1102 764 1102 738 L1102 410 Z " />
<glyph glyph-name="uni01E5" unicode="&#x1e5;" horiz-adv-x="1049" d="M709 610 Q709 650 701 679 Q683 755 633 799 Q580 848 506 848 Q404 848 339 757 Q274 665 274 517 Q274 385 331 301 Q395 206 506 206 Q576 206 629 252 Q679 295 697 362 Q704 381 706 409 Q709 431 709 457 L709 610 Z M688 -47 Q703 7 703 70 L703 136 Q703 163 675 163 Q664 163 653 153 Q569 27 413 27 Q246 27 140 160 Q30 295 30 510 Q30 745 154 893 Q271 1032 443 1032 Q607 1032 686 897 Q697 886 709 886 Q736 886 736 912 L738 942 Q741 971 761 990 Q780 1009 807 1009 L884 1009 Q912 1009 931 988 Q951 966 951 937 L951 934 Q948 843 948 725 L948 145 Q948 -173 811 -305 Q678 -426 435 -426 Q291 -426 175 -383 Q150 -375 137 -350 Q129 -333 129 -315 Q129 -306 131 -297 L144 -244 Q151 -213 177 -198 Q193 -190 209 -190 Q220 -190 231 -194 Q329 -230 427 -230 Q550 -230 624 -157 Q644 -136 664 -103 L134 -103 L130 -97 Q130 -98 131 -100 Q125 -90 125 -75 Q125 -60 131 -50 Q130 -52 130 -54 Q130 -57 134 -57 L688 -47 Z " />
<glyph glyph-name="uni01E9" unicode="&#x1e9;" horiz-adv-x="894" d="M901 133 Q913 115 913 98 Q913 84 905 68 Q889 35 854 35 L713 35 Q680 35 663 66 L493 380 Q470 419 427 424 L420 424 Q381 424 355 391 L332 360 Q315 338 315 308 L315 97 Q315 71 296 53 Q280 35 257 35 L143 35 Q119 35 102 53 Q85 71 85 97 L85 1413 Q85 1439 102 1458 Q119 1475 143 1475 L257 1475 Q280 1475 296 1458 Q315 1439 315 1413 L315 605 Q315 567 352 567 Q368 567 383 582 Q415 646 452 709 L620 977 Q637 1005 668 1005 L777 1005 Q813 1005 829 970 Q836 955 836 941 Q836 920 820 902 L591 621 L901 133 Z M-9 1805 Q-14 1813 -14 1820 Q-14 1826 -10 1832 Q-1 1847 15 1847 L65 1847 Q81 1847 90 1833 L183 1663 L228 1663 L323 1833 Q332 1847 348 1847 L398 1847 Q414 1847 423 1832 Q427 1826 427 1820 Q427 1813 422 1805 L298 1607 Q290 1594 274 1594 L137 1594 Q121 1594 113 1608 L-9 1805 Z " />
<glyph glyph-name="uni01EA" unicode="&#x1ea;" horiz-adv-x="1252" d="M610 223 Q773 223 867 378 Q953 520 953 745 Q953 957 868 1098 Q773 1258 608 1258 Q446 1258 350 1102 Q264 961 264 736 Q264 512 352 372 Q448 223 610 223 Z M638 35 L595 35 Q335 35 180 232 Q28 426 28 729 Q28 1044 191 1244 Q353 1446 616 1446 Q883 1446 1040 1245 Q1189 1053 1189 755 Q1189 419 1024 225 Q916 96 747 53 L747 32 Q747 -31 784 -72 Q824 -116 889 -116 Q911 -116 932 -113 Q935 -112 937 -112 Q945 -112 951 -116 Q960 -122 964 -133 L977 -179 Q978 -184 978 -189 Q978 -194 976 -198 Q972 -208 962 -213 Q895 -246 816 -246 Q723 -246 674 -199 Q624 -152 624 -56 Q624 -22 638 35 Z " />
<glyph glyph-name="uni01EB" unicode="&#x1eb;" horiz-adv-x="1029" d="M734 476 Q737 506 737 536 Q737 625 713 701 Q669 840 557 870 Q526 879 499 879 Q396 879 335 769 Q278 668 278 529 Q278 407 318 318 Q375 194 490 183 Q500 182 510 182 Q612 182 675 279 Q725 359 734 476 Z M641 52 Q568 35 515 32 Q501 31 489 31 Q318 31 194 138 Q48 266 39 499 Q38 513 38 526 Q38 745 175 882 Q306 1014 500 1023 Q514 1024 526 1024 Q702 1024 827 913 Q976 779 976 540 Q976 308 833 168 Q799 136 758 107 Q745 63 745 29 Q745 -34 782 -75 Q822 -119 887 -119 Q909 -119 930 -116 Q933 -115 935 -115 Q943 -115 949 -119 Q958 -125 962 -136 L975 -182 Q976 -187 976 -192 Q976 -197 974 -201 Q970 -211 960 -216 Q893 -249 814 -249 Q721 -249 672 -202 Q622 -155 622 -59 Q622 -18 641 52 Z " />
<glyph glyph-name="aeacute" unicode="&#x1fd;" horiz-adv-x="1451" d="M732 1368 Q748 1398 782 1398 L816 1398 Q852 1398 868 1363 Q876 1347 876 1334 Q876 1314 861 1295 L764 1167 Q747 1145 719 1145 L713 1145 Q680 1145 663 1176 Q654 1192 654 1207 Q654 1223 663 1239 L732 1368 Z M803 761 Q813 709 815 649 Q843 624 875 624 L1114 624 Q1156 624 1180 658 Q1199 681 1199 709 Q1199 719 1197 729 Q1183 801 1141 847 Q1086 905 999 905 Q919 905 863 851 Q826 817 803 761 Z M590 340 Q568 416 565 514 Q537 534 510 534 L507 534 Q380 528 298 484 Q191 429 191 330 Q191 253 269 210 Q328 178 398 178 Q464 178 517 220 Q568 260 589 327 L589 328 Q590 332 590 340 Z M812 80 Q802 65 798 61 Q781 43 755 42 L674 40 Q649 40 630 60 Q613 78 613 103 L613 148 L554 148 Q501 79 437 49 Q375 20 306 20 L297 20 Q170 24 93 108 Q19 189 19 304 Q19 480 154 574 Q290 666 536 667 Q585 667 585 717 Q585 785 542 829 Q488 886 375 886 Q283 886 190 852 Q178 848 168 848 Q155 848 142 854 Q119 868 112 895 L109 908 Q106 917 106 927 Q106 942 113 956 Q123 978 145 986 Q275 1037 428 1037 Q611 1037 718 933 Q843 1050 1017 1050 Q1216 1050 1321 902 Q1412 771 1412 566 Q1412 551 1411 534 Q1409 508 1392 490 Q1376 473 1353 473 L881 473 Q843 473 816 443 L816 327 Q855 269 923 238 Q995 205 1088 205 Q1185 205 1269 223 Q1276 225 1281 225 Q1298 225 1313 214 Q1334 199 1338 174 L1343 142 Q1345 134 1345 128 Q1345 110 1336 95 Q1323 75 1301 67 Q1185 35 1045 35 Q919 35 812 80 Z " />
<glyph glyph-name="oslashacute" unicode="&#x1ff;" horiz-adv-x="1015" d="M523 1651 Q539 1681 573 1681 L607 1681 Q643 1681 659 1646 Q667 1630 667 1617 Q667 1597 652 1578 L555 1450 Q538 1428 510 1428 L504 1428 Q471 1428 454 1459 Q445 1475 445 1490 Q445 1506 454 1522 L523 1651 Z M302 69 Q239 100 194 138 Q48 266 39 499 Q38 513 38 526 Q38 745 175 882 Q306 1014 500 1023 Q515 1024 530 1024 Q544 1024 570 1022 L625 1220 Q631 1239 647 1252 Q662 1264 682 1264 L691 1264 Q720 1264 738 1239 Q750 1222 750 1202 Q750 1193 748 1183 L694 994 Q772 962 827 913 Q976 779 976 540 Q976 308 833 168 Q703 41 515 32 Q501 31 489 31 Q463 31 425 35 L369 -164 Q363 -183 348 -195 Q332 -208 313 -208 L303 -208 Q274 -208 256 -183 Q244 -166 244 -146 Q244 -137 246 -127 L302 69 Z M646 822 L468 189 Q487 183 490 183 Q500 182 510 182 Q612 182 675 279 Q725 359 734 476 Q737 506 737 536 Q737 625 713 701 Q694 759 646 822 Z M354 254 L530 878 L498 878 Q396 878 335 769 Q278 668 278 529 Q278 407 318 318 Q327 300 354 254 Z " />
<glyph glyph-name="uni0237" unicode="&#x237;" horiz-adv-x="421" d="M267 1003 Q290 1003 307 985 Q324 967 324 941 L324 136 Q324 -168 199 -294 Q108 -386 -62 -406 Q-66 -407 -70 -407 Q-88 -407 -102 -395 Q-122 -378 -124 -352 L-133 -284 L-133 -276 Q-133 -255 -122 -239 Q-109 -220 -89 -213 Q-16 -194 25 -148 Q65 -104 79 -21 Q93 56 93 213 L93 941 Q93 967 111 985 Q128 1003 151 1003 L267 1003 Z " />
<glyph glyph-name="circumflex" unicode="&#x2c6;" horiz-adv-x="527" d="M491 1195 Q497 1185 497 1176 Q497 1169 492 1161 Q482 1144 463 1144 L413 1144 Q393 1144 385 1161 L292 1329 L252 1329 L159 1161 Q149 1144 130 1144 L80 1144 Q61 1144 51 1162 Q46 1170 46 1177 Q46 1185 52 1195 L175 1392 Q185 1407 204 1407 L340 1407 Q358 1407 369 1391 L491 1195 Z " />
<glyph glyph-name="caron" unicode="&#x2c7;" horiz-adv-x="506" d="M52 1355 Q46 1363 46 1372 Q46 1379 51 1387 Q61 1404 80 1404 L130 1404 Q149 1404 159 1387 L251 1220 L290 1220 L384 1387 Q394 1404 413 1404 L463 1404 Q482 1404 492 1387 Q497 1379 497 1372 Q497 1363 491 1355 L368 1156 Q358 1141 339 1141 L202 1141 Q184 1141 174 1157 L52 1355 Z " />
<glyph glyph-name="uni02C9" unicode="&#x2c9;" horiz-adv-x="447" d="M447 1317 Q447 1303 438 1293 Q428 1284 414 1284 L33 1284 Q19 1284 9 1293 Q0 1303 0 1317 L0 1370 Q0 1383 9 1393 Q19 1403 33 1403 L414 1403 Q428 1403 438 1393 Q447 1383 447 1370 L447 1317 Z " />
<glyph glyph-name="breve" unicode="&#x2d8;" horiz-adv-x="497" d="M78 1403 Q101 1403 109 1381 Q145 1273 246 1273 Q358 1273 391 1380 Q394 1390 403 1397 Q411 1403 423 1403 L461 1403 Q476 1403 486 1391 Q494 1381 494 1371 Q494 1368 493 1365 Q477 1269 414 1216 Q351 1161 248 1161 Q145 1161 80 1218 Q20 1269 4 1365 Q3 1369 3 1372 Q3 1382 10 1391 Q20 1403 35 1403 L78 1403 Z " />
<glyph glyph-name="dotaccent" unicode="&#x2d9;" horiz-adv-x="222" d="M112 1166 Q65 1166 33 1201 Q0 1236 0 1285 Q0 1338 32 1372 Q65 1406 114 1406 Q160 1406 190 1372 Q222 1338 222 1285 Q222 1236 190 1200 Q159 1166 114 1166 L112 1166 Z " />
<glyph glyph-name="ring" unicode="&#x2da;" horiz-adv-x="360" d="M181 1127 Q233 1127 264 1166 Q292 1198 292 1248 Q292 1296 265 1329 Q234 1369 181 1369 L179 1369 Q128 1369 98 1328 Q71 1296 71 1246 Q71 1200 99 1166 Q132 1127 181 1127 Z M184 1408 Q269 1408 316 1362 Q360 1319 360 1248 Q360 1178 313 1135 Q265 1088 183 1088 Q98 1088 47 1135 Q0 1177 0 1246 Q0 1316 46 1361 Q95 1408 183 1408 L184 1408 Z " />
<glyph glyph-name="ogonek" unicode="&#x2db;" horiz-adv-x="366" d="M362 -350 Q364 -355 364 -361 Q364 -367 362 -372 Q356 -384 346 -389 Q277 -423 197 -423 Q102 -423 52 -375 Q0 -326 0 -228 Q0 -179 19 -121 Q33 -76 56 -32 Q65 -15 85 -15 L116 -15 Q134 -15 143 -28 Q149 -37 149 -47 Q149 -54 147 -59 Q133 -102 133 -140 Q133 -201 169 -241 Q208 -283 270 -283 Q292 -283 312 -280 Q315 -279 318 -279 Q328 -279 335 -284 Q345 -291 349 -304 L362 -350 Z " />
<glyph glyph-name="tilde" unicode="&#x2dc;" horiz-adv-x="518" d="M34 1184 Q20 1184 10 1195 Q1 1205 1 1218 L1 1221 Q9 1311 48 1361 Q83 1403 136 1403 Q164 1403 195 1391 Q208 1386 224 1379 L253 1363 L265 1357 L276 1351 Q290 1341 299 1336 Q329 1320 353 1320 Q412 1320 428 1387 Q431 1399 439 1406 Q448 1413 460 1413 L484 1413 Q499 1413 509 1403 Q517 1393 517 1381 L517 1378 Q505 1201 381 1201 Q350 1201 316 1214 Q304 1218 288 1227 L255 1243 Q191 1280 164 1280 Q110 1280 93 1209 Q90 1198 82 1191 Q73 1184 61 1184 L34 1184 Z " />
<glyph glyph-name="endash" unicode="&#x2013;" horiz-adv-x="822" d="M822 714 Q822 688 804 671 Q786 652 760 652 L62 652 Q36 652 19 671 Q0 688 0 714 L0 720 Q0 746 19 764 Q36 782 62 782 L760 782 Q786 782 804 764 Q822 746 822 720 L822 714 Z " />
<glyph glyph-name="emdash" unicode="&#x2014;" horiz-adv-x="1835" d="M1773 782 Q1800 782 1817 765 Q1835 746 1835 720 L1835 714 Q1835 688 1817 670 Q1800 652 1773 652 L62 652 Q36 652 19 671 Q0 688 0 714 L0 720 Q0 746 19 764 Q36 782 62 782 L1773 782 Z " />
<glyph glyph-name="quoteleft" unicode="&#x2018;" horiz-adv-x="305" d="M146 1410 Q126 1410 117 1428 L11 1624 Q6 1633 6 1642 Q6 1650 10 1658 Q20 1673 40 1673 L113 1673 Q130 1673 140 1660 L290 1464 Q298 1454 298 1444 Q298 1436 294 1428 Q285 1410 264 1410 L146 1410 Z " />
<glyph glyph-name="quoteright" unicode="&#x2019;" horiz-adv-x="305" d="M265 1671 Q285 1671 294 1653 Q298 1645 298 1637 Q298 1627 291 1618 L140 1421 Q130 1408 114 1408 L40 1408 Q22 1408 11 1424 Q6 1433 6 1441 Q6 1448 11 1456 L118 1655 Q126 1671 146 1671 L265 1671 Z " />
<glyph glyph-name="quotesinglbase" unicode="&#x201a;" horiz-adv-x="305" d="M265 167 Q285 167 294 149 Q298 141 298 133 Q298 123 291 114 L140 -83 Q130 -96 114 -96 L40 -96 Q22 -96 11 -80 Q6 -71 6 -63 Q6 -56 11 -48 L118 151 Q126 167 146 167 L265 167 Z " />
<glyph glyph-name="quotedblleft" unicode="&#x201c;" horiz-adv-x="656" d="M265 1670 Q285 1670 295 1655 Q299 1647 299 1639 Q299 1630 294 1621 L188 1425 Q179 1407 159 1407 L41 1407 Q20 1407 11 1425 Q7 1433 7 1441 Q7 1451 15 1461 L165 1657 Q175 1670 192 1670 L265 1670 Z M617 1670 Q636 1670 646 1655 Q650 1647 650 1639 Q650 1630 645 1621 L539 1425 Q530 1407 510 1407 L392 1407 Q371 1407 362 1425 Q358 1433 358 1441 Q358 1451 366 1461 L517 1657 Q527 1670 542 1670 L617 1670 Z " />
<glyph glyph-name="quotedblright" unicode="&#x201d;" horiz-adv-x="656" d="M391 1411 Q373 1411 362 1427 Q357 1436 357 1444 Q357 1451 362 1459 L469 1657 Q478 1674 497 1674 L616 1674 Q636 1674 645 1656 Q649 1648 649 1640 Q649 1630 642 1621 L491 1424 Q481 1411 465 1411 L391 1411 Z M40 1411 Q22 1411 11 1427 Q6 1436 6 1444 Q6 1451 11 1459 L118 1658 Q126 1674 146 1674 L265 1674 Q285 1674 294 1656 Q298 1648 298 1640 Q298 1630 291 1621 L140 1424 Q130 1411 114 1411 L40 1411 Z " />
<glyph glyph-name="quotedblbase" unicode="&#x201e;" horiz-adv-x="656" d="M391 -96 Q373 -96 362 -80 Q357 -71 357 -63 Q357 -56 362 -48 L469 150 Q478 167 497 167 L616 167 Q636 167 645 149 Q649 141 649 133 Q649 123 642 114 L491 -83 Q481 -96 465 -96 L391 -96 Z M40 -96 Q22 -96 11 -80 Q6 -71 6 -63 Q6 -56 11 -48 L118 151 Q126 167 146 167 L265 167 Q285 167 294 149 Q298 141 298 133 Q298 123 291 114 L140 -83 Q130 -96 114 -96 L40 -96 Z " />
<glyph glyph-name="bullet" unicode="&#x2022;" horiz-adv-x="344" d="M0 718 Q0 790 50.5 839.5 Q101 889 173 889 Q244 889 294 839 Q344 789 344 718 Q344 647 293.5 596 Q243 545 172 545 Q99 545 49.5 595.5 Q0 646 0 718 Z " />
<glyph glyph-name="ellipsis" unicode="&#x2026;" horiz-adv-x="1647" d="M1497 -160 Q1435 -160 1395 -117 Q1354 -70 1354 1 Q1354 75 1396 120 Q1436 163 1502 163 Q1565 163 1604 121 Q1646 76 1647 1 Q1647 -70 1606 -117 Q1566 -160 1499 -160 L1497 -160 Z M820 -160 Q758 -160 718 -117 Q677 -70 677 1 Q677 75 719 120 Q759 163 825 163 Q888 163 927 121 Q968 76 970 1 Q970 -70 929 -117 Q889 -160 823 -160 L820 -160 Z M144 -160 Q81 -160 41 -117 Q0 -70 0 1 Q0 75 42 120 Q82 163 148 163 Q211 163 251 121 Q291 76 293 1 Q293 -70 252 -117 Q212 -160 146 -160 L144 -160 Z " />
<glyph glyph-name="guilsinglleft" unicode="&#x2039;" horiz-adv-x="329" d="M308 436 Q318 420 318 405 Q318 390 308 373 Q291 341 255 341 Q220 341 202 372 L21 682 Q11 700 11 716 Q11 733 21 751 L202 1062 Q220 1093 255 1093 Q291 1093 309 1062 Q318 1046 318 1031 Q318 1015 308 999 L164 758 Q152 738 152 716 Q152 695 164 674 L308 436 Z " />
<glyph glyph-name="guilsinglright" unicode="&#x203a;" horiz-adv-x="329" d="M164 674 Q176 695 176 716 Q176 738 164 758 L20 999 Q10 1015 10 1031 Q10 1046 19 1062 Q37 1093 73 1093 Q109 1093 127 1062 L307 751 Q318 733 318 716 Q318 700 307 682 L127 372 Q109 341 73 341 Q38 341 19 373 Q10 389 10 403 Q10 419 21 436 L164 674 Z " />
<glyph glyph-name="&amp;#x2044;" unicode="&#x2044;" horiz-adv-x="795" d="M733 1409 Q764 1409 780 1384 Q788 1370 788 1356 Q788 1343 781 1329 L111 49 Q96 20 62 20 Q31 20 16 46 Q8 60 8 74 Q8 87 15 100 L685 1381 Q700 1409 733 1409 Z " />
<glyph glyph-name="&amp;#x2215;" unicode="&#x2215;" horiz-adv-x="795" d="M733 1409 Q764 1409 780 1384 Q788 1370 788 1356 Q788 1343 781 1329 L111 49 Q96 20 62 20 Q31 20 16 46 Q8 60 8 74 Q8 87 15 100 L685 1381 Q700 1409 733 1409 Z " />
<glyph glyph-name="Euro" unicode="&#x20ac;" horiz-adv-x="1008" d="M935 145 Q936 140 936 133 Q936 119 929 105 Q918 85 897 77 Q798 35 693 35 Q563 35 453 93 Q340 152 268 261 Q195 367 165 554 L66 554 Q60 554 55 558 Q51 562 51 569 L51 620 Q51 626 56 630 Q60 635 66 635 L151 635 L151 706 L152 736 L155 805 L64 805 Q58 805 54 810 Q49 814 49 820 L49 871 Q49 878 54 882 Q57 886 64 886 L167 886 Q207 1076 295 1189 Q371 1287 472 1341 Q576 1394 697 1394 Q793 1394 882 1366 Q905 1358 917 1337 Q925 1323 925 1308 Q925 1301 923 1293 L912 1240 Q907 1214 884 1200 Q869 1190 852 1190 Q844 1190 835 1192 Q774 1209 717 1209 Q555 1209 460 1080 Q417 1024 384 886 L841 886 Q848 886 853 882 Q857 878 857 871 L857 820 Q857 814 852 810 Q848 805 841 805 L369 805 Q364 751 364 704 L364 635 L841 635 Q848 635 852 630 Q857 626 857 620 L857 569 Q857 562 853 558 Q848 554 841 554 L381 554 Q412 410 459 349 Q554 227 726 227 Q785 227 848 244 Q857 246 865 246 Q882 246 898 236 Q920 223 925 195 L935 145 Z " />
<glyph glyph-name="uni2116" unicode="&#x2116;" horiz-adv-x="1562" d="M766 1350 Q788 1350 804 1333 Q820 1314 820 1287 L820 98 Q820 71 804 52 Q788 35 766 35 L631 35 Q615 35 602 44 Q588 54 581 72 L396 542 Q362 630 314 774 L294 835 L274 897 Q249 972 233 1024 Q215 1041 200 1041 Q162 1041 162 1004 Q174 657 174 396 L174 98 Q174 71 156 53 Q140 35 118 35 L55 35 Q34 35 18 53 Q0 71 0 98 L0 1287 Q0 1313 18 1333 Q34 1350 55 1350 L212 1350 Q228 1350 241 1341 Q255 1330 262 1313 L438 860 Q504 686 605 373 L671 373 Q647 688 647 1000 L647 1287 Q647 1313 664 1333 Q680 1350 702 1350 L766 1350 Z M1474 484 Q1489 484 1501 472 Q1513 459 1513 439 Q1513 420 1501 407 Q1489 395 1474 395 L1072 395 Q1058 395 1047 407 Q1034 420 1034 439 Q1034 459 1047 472 Q1058 484 1072 484 L1474 484 Z M1271 1229 Q1195 1229 1156 1132 Q1129 1064 1129 974 Q1129 874 1164 807 Q1204 727 1272 727 Q1348 727 1385 809 Q1415 874 1415 979 Q1415 1073 1386 1140 Q1347 1229 1272 1229 L1271 1229 Z M1271 637 Q1143 637 1064 722 Q980 815 980 972 Q980 1132 1063 1227 Q1144 1318 1276 1318 L1278 1318 Q1408 1318 1485 1227 Q1562 1136 1562 985 Q1562 809 1475 717 Q1398 637 1271 637 Z " />
<glyph glyph-name="trademark" unicode="&#x2122;" horiz-adv-x="1046" d="M336 1666 Q351 1666 361 1655 Q372 1645 372 1630 Q372 1614 361 1604 Q351 1593 336 1593 L228 1593 L228 1191 Q228 1176 217 1166 Q207 1155 191 1155 L179 1155 Q164 1155 154 1165 Q144 1176 144 1191 L144 1593 L36 1593 Q21 1593 11 1604 Q0 1614 0 1630 Q0 1645 11 1655 Q21 1666 36 1666 L336 1666 Z M1016 1666 Q1029 1666 1037 1657 Q1046 1649 1046 1637 L1045 1184 Q1045 1172 1036 1164 Q1028 1155 1016 1155 Q1003 1155 995 1164 Q987 1171 987 1181 L987 1414 Q988 1562 988 1636 L913 1636 Q886 1457 876 1381 L840 1189 Q839 1179 831 1173 Q823 1166 812 1166 L746 1166 Q734 1166 727 1172 Q719 1179 717 1190 L680 1381 Q671 1457 644 1636 L570 1636 L570 1414 Q570 1359 571 1290 L571 1184 Q571 1172 562 1164 Q554 1155 541 1155 Q529 1155 521 1164 Q512 1172 512 1184 L512 1637 Q512 1649 520 1658 Q528 1666 540 1666 L664 1666 Q674 1666 683 1659 Q690 1654 692 1643 L713 1551 Q725 1493 748 1336 L811 1336 Q832 1494 844 1551 L864 1642 Q868 1653 875 1659 Q884 1666 894 1666 L1016 1666 Z " />
<glyph glyph-name="partialdiff" unicode="&#x2202;" horiz-adv-x="895" d="M643 503 Q650 533 650 563 Q650 633 609 693 Q549 783 447 786 L441 786 Q338 786 273 689 Q213 601 213 473 Q213 360 265 294 Q318 225 404 225 L406 225 Q492 225 559 313 Q617 387 643 503 Z M376 1546 Q484 1546 578 1496 Q672 1446 742 1354 Q895 1150 895 815 Q895 443 736 228 Q666 134 571 84 Q479 35 374 35 Q197 35 92 178 Q0 304 0 475 Q0 687 105 826 Q210 965 376 965 Q463 965 533 917 Q589 878 629 805 L686 805 L686 876 Q686 1081 594 1213 Q499 1354 339 1354 Q242 1354 156 1317 Q147 1313 137 1313 Q127 1313 116 1318 Q97 1327 88 1351 L72 1393 Q67 1406 67 1418 Q67 1429 71 1441 Q78 1464 98 1474 Q155 1505 215 1524 Q293 1546 376 1546 Z " />
<glyph glyph-name="Delta" unicode="&#x2206;" horiz-adv-x="949" d="M559 229 Q623 229 661 283 Q686 319 686 361 Q686 380 680 400 L575 794 Q555 883 538 962 Q515 1068 503 1128 Q495 1160 463 1160 Q432 1160 424 1128 Q412 1063 393 978 Q372 875 357 813 L250 399 Q244 379 244 360 Q244 318 270 282 Q307 229 370 229 L559 229 Z M949 159 L949 99 Q949 72 932 52 Q916 35 893 35 L56 35 Q34 35 18 52 Q0 72 0 99 L0 157 L324 1307 Q330 1327 346 1339 Q361 1352 378 1352 L582 1352 Q599 1352 614 1339 Q630 1327 636 1307 L949 159 Z " />
<glyph glyph-name="product" unicode="&#x220f;" horiz-adv-x="1122" d="M1070 1539 Q1090 1539 1106 1522 Q1122 1505 1122 1480 L1122 1402 Q1122 1378 1106 1359 Q1091 1343 1070 1343 Q1020 1343 983 1304 Q949 1267 949 1214 L949 95 Q949 69 933 51 Q918 35 897 35 L809 35 Q788 35 773 51 Q757 69 757 95 L757 1214 Q757 1267 723 1304 Q686 1343 636 1343 L487 1343 Q435 1343 400 1304 Q365 1267 365 1214 L365 95 Q365 69 349 51 Q334 35 314 35 L225 35 Q203 35 189 50 Q173 69 173 95 L173 1214 Q173 1267 139 1303 Q104 1343 52 1343 Q31 1343 16 1359 Q0 1378 0 1402 L0 1480 Q0 1505 16 1523 Q31 1539 52 1539 L1070 1539 Z " />
<glyph glyph-name="summation" unicode="&#x2211;" horiz-adv-x="904" d="M850 231 Q872 231 888 214 Q904 195 904 169 L904 97 Q904 71 888 52 Q872 35 850 35 L55 35 Q34 35 17 53 Q0 71 0 97 L0 172 L359 705 Q382 738 382 781 L382 784 Q382 825 358 858 L20 1374 L20 1476 Q20 1503 38 1522 Q54 1539 75 1539 L800 1539 Q822 1539 837 1523 Q854 1503 854 1476 L854 1406 Q854 1379 837 1359 Q822 1343 800 1343 L350 1343 Q309 1343 309 1302 Q309 1291 315 1280 L606 832 Q618 814 618 794 Q617 773 606 756 L297 294 Q291 283 291 272 Q291 231 332 231 L850 231 Z " />
<glyph glyph-name="minus" unicode="&#x2212;" horiz-adv-x="832" d="M765 789 Q793 789 813 770 Q832 750 832 722 L832 716 Q832 688 813 669 Q793 649 765 649 L67 649 Q39 649 20 669 Q0 688 0 716 L0 722 Q0 750 20 770 Q39 789 67 789 L765 789 Z " />
<glyph glyph-name="radical" unicode="&#x221a;" horiz-adv-x="1022" d="M1002 1672 Q1010 1672 1015 1666 Q1019 1661 1019 1653 Q1019 1650 1018 1646 L616 -207 Q615 -214 610 -219 Q606 -222 600 -222 L481 -222 Q470 -222 465 -209 L170 663 L41 604 Q38 603 36 603 Q33 603 30 605 Q22 608 20 617 L3 665 Q2 669 2 671 Q2 675 5 681 Q8 690 14 693 L255 805 Q258 807 260 807 Q262 807 265 805 Q273 802 275 793 L458 214 Q471 173 483 123 Q488 103 493 81 Q496 65 509 18 L557 18 L565 51 L567 62 Q568 72 570 79 Q574 105 577 125 Q587 178 597 223 L894 1657 Q895 1665 900 1668 Q904 1672 909 1672 L1002 1672 Z " />
<glyph glyph-name="infinity" unicode="&#x221e;" horiz-adv-x="1226" d="M945 523 Q1016 523 1066 582 Q1114 640 1114 717 Q1114 799 1068 855 Q1020 912 949 912 Q888 912 827 867 Q789 839 734 779 Q711 754 711 720 Q711 686 733 661 Q757 632 774 614 Q800 589 822 571 Q883 523 943 523 L945 523 Z M279 523 Q338 523 399 567 Q437 596 493 657 Q515 682 515 715 Q515 748 495 774 Q469 803 452 819 Q428 846 404 864 Q343 912 283 912 Q210 912 160 853 Q112 795 112 717 Q112 636 159 579 Q207 523 277 523 L279 523 Z M945 397 Q867 397 783 461 Q748 487 708 528 Q683 554 612 633 L550 566 L514 527 Q474 485 441 461 Q358 397 265 397 Q148 397 75 487 Q0 576 0 717 Q0 852 77 943 Q157 1038 279 1038 Q358 1038 443 973 Q478 947 518 906 Q542 881 614 801 L676 869 L712 908 Q752 949 785 974 Q869 1038 962 1038 Q1078 1038 1151 947 Q1226 858 1226 717 Q1226 583 1149 491 Q1069 397 947 397 L945 397 Z " />
<glyph glyph-name="integral" unicode="&#x222b;" horiz-adv-x="550" d="M511 1677 Q527 1676 538 1661 Q547 1651 547 1640 Q547 1637 546 1634 L539 1583 Q538 1569 526 1559 L504 1540 Q494 1541 485 1541 Q414 1541 379 1473 Q336 1393 336 1142 Q336 986 350 681 Q357 532 360 449 Q364 316 364 196 Q364 -59 305 -179 Q269 -253 210 -289 Q158 -322 90 -322 Q62 -322 36 -318 Q20 -316 10 -302 Q2 -291 2 -278 Q2 -276 3 -273 L13 -214 Q15 -200 25 -191 Q38 -181 54 -181 L63 -181 Q128 -181 172 -118 Q224 -37 224 188 Q224 309 220 447 Q217 533 210 686 Q196 995 196 1162 Q196 1326 223 1432 Q248 1527 302 1595 Q369 1678 485 1678 Q497 1678 511 1677 Z " />
<glyph glyph-name="uni222E" unicode="&#x222e;" horiz-adv-x="946" d="M402 953 Q338 921 306 875 Q248 792 248 679 Q248 580 289 508 Q331 435 426 402 Q423 437 423 447 Q420 533 413 686 Q407 822 402 953 Z M542 953 Q547 821 553 681 Q560 532 563 449 L563 413 Q618 444 644 477 Q694 541 704 636 Q707 661 707 685 Q707 757 683 819 Q646 911 542 953 Z M400 1065 Q399 1124 399 1162 Q399 1326 426 1432 Q451 1527 505 1595 Q572 1678 688 1678 Q700 1678 714 1677 Q730 1676 741 1661 Q750 1651 750 1640 Q750 1637 749 1634 L742 1583 Q741 1569 729 1559 L707 1540 Q697 1541 688 1541 Q617 1541 582 1473 Q539 1393 539 1142 L539 1070 Q695 1057 798 983 Q946 877 946 688 Q946 505 804 394 Q708 318 567 293 L567 196 Q567 -59 508 -179 Q472 -253 413 -289 Q361 -322 293 -322 Q265 -322 239 -318 Q223 -316 213 -302 Q205 -291 205 -278 Q205 -276 206 -273 L216 -214 Q218 -200 228 -191 Q241 -181 257 -181 L266 -181 Q331 -181 375 -118 Q427 -37 427 188 L427 285 Q270 296 163 370 Q18 471 9 655 Q8 666 8 676 Q8 850 143 958 Q246 1041 400 1065 Z " />
<glyph glyph-name="approxequal" unicode="&#x2248;" horiz-adv-x="945" d="M8 799 Q1 810 1 825 L1 829 Q1 845 12 858 Q122 997 258 997 Q317 997 375 973 Q396 964 423 949 L447 935 L471 923 L491 912 L512 900 Q542 885 561 877 Q625 848 685 848 Q769 848 847 924 Q862 938 881 938 L886 938 Q908 937 922 918 L928 912 Q938 899 940 881 Q940 864 930 850 Q882 785 822 749 Q756 710 687 710 Q630 710 570 735 Q549 743 520 759 L494 772 Q482 778 473 784 L450 794 L430 805 Q400 822 381 830 Q317 859 256 859 Q169 859 89 786 Q75 773 56 773 L49 773 Q26 775 11 796 L8 799 Z M931 466 Q942 452 943 435 L943 429 Q943 415 934 403 Q886 334 823 296 Q757 257 687 257 Q631 257 571 282 Q550 290 521 306 L497 318 Q483 326 474 330 L453 342 L431 353 Q402 369 382 377 Q318 406 254 406 Q172 406 93 335 Q77 321 58 321 L51 321 Q29 324 15 344 L12 348 Q4 360 4 376 L4 379 Q4 396 14 409 Q62 470 124 506 Q190 544 258 544 Q317 544 376 520 Q397 510 426 495 L449 482 L472 470 L494 459 L514 447 Q544 432 564 423 Q627 395 687 395 Q777 395 856 469 Q870 483 890 483 L895 483 Q917 482 931 466 Z " />
<glyph glyph-name="notequal" unicode="&#x2260;" horiz-adv-x="900" d="M235 55 Q222 30 193 30 L192 30 Q164 30 150 54 Q142 67 142 79 Q142 90 149 102 L168 134 Q178 154 178 171 Q178 191 166 208 Q145 245 103 245 L68 245 Q39 245 20 265 Q0 284 0 313 L0 314 Q0 343 20 363 Q39 382 68 382 L264 382 Q308 382 329 420 L421 587 Q430 603 430 621 Q430 640 419 659 Q397 696 355 696 L68 696 Q39 696 20 715 Q0 735 0 764 L0 765 Q0 794 20 814 Q39 834 68 834 L515 834 Q559 834 580 873 L661 1023 Q674 1049 703 1049 Q731 1049 745 1025 Q753 1012 753 1000 Q753 989 746 977 L727 944 Q717 926 717 907 Q717 888 729 871 Q750 834 792 834 L831 834 Q860 834 880 814 Q900 794 900 765 L900 764 Q900 735 880 715 Q860 696 831 696 L632 696 Q588 696 567 658 L475 493 Q465 475 465 456 Q465 437 475 419 Q498 382 539 382 L831 382 Q860 382 880 363 Q900 343 900 314 L900 313 Q900 284 880 265 Q860 245 831 245 L381 245 Q337 245 315 207 L235 55 Z " />
<glyph glyph-name="lessequal" unicode="&#x2264;" horiz-adv-x="833" d="M768 155 Q795 155 813 137 Q830 119 830 92 Q830 66 813 48 Q795 30 768 30 L65 30 Q38 30 20 48 Q2 66 2 92 Q2 119 20 137 Q38 155 65 155 L768 155 Z M789 462 Q809 455 822 437 Q833 420 833 398 L833 397 Q833 360 801 340 Q784 328 765 328 Q752 328 738 334 L42 627 Q23 636 11 653 Q0 670 0 690 L0 754 Q0 774 11 792 Q23 809 42 817 L737 1109 Q750 1114 763 1114 Q782 1114 800 1102 Q830 1082 830 1045 Q830 1024 819 1006 Q807 989 788 982 L200 751 Q180 741 180 721 Q180 701 200 691 L789 462 Z " />
<glyph glyph-name="greaterequal" unicode="&#x2265;" horiz-adv-x="833" d="M768 155 Q795 155 813 137 Q830 119 830 92 Q830 66 813 48 Q795 30 768 30 L65 30 Q38 30 20 48 Q2 66 2 92 Q2 119 20 137 Q38 155 65 155 L768 155 Z M790 816 Q810 809 821 792 Q833 774 833 754 L833 690 Q833 670 821 653 Q810 636 790 627 L95 334 Q81 328 68 328 Q49 328 31 340 Q0 360 0 397 L0 398 Q0 420 13 437 Q24 455 43 462 L638 692 Q652 707 652 721 Q652 735 638 750 L45 982 Q26 989 14 1007 Q2 1024 2 1045 Q2 1082 33 1102 Q51 1114 70 1114 Q83 1114 96 1109 L790 816 Z " />
<glyph glyph-name="&amp;#xf001;" unicode="&#xf001;" horiz-adv-x="889" d="M121 724 Q121 790 56 790 Q33 790 17 807 Q0 823 0 848 L0 886 Q0 910 17 928 Q33 944 56 944 Q121 944 121 1010 L121 1021 Q121 1204 242 1307 Q360 1408 563 1408 Q655 1408 741 1384 Q763 1377 774 1358 Q782 1344 782 1329 Q782 1322 780 1314 L768 1266 Q762 1240 742 1228 Q729 1220 714 1220 Q707 1220 700 1222 Q638 1238 571 1238 Q334 1238 334 1013 L334 1010 Q334 944 399 944 L833 944 Q856 944 872 928 Q889 910 889 886 L889 93 Q889 69 872 51 Q856 35 833 35 L731 35 Q707 35 691 51 Q675 69 675 93 L675 724 Q675 790 609 790 L401 790 Q336 790 336 724 L336 93 Q336 69 319 51 Q303 35 279 35 L178 35 Q154 35 138 51 Q121 69 121 93 L121 724 Z " />
<glyph glyph-name="&amp;#xfb01;" unicode="&#xfb01;" horiz-adv-x="889" d="M121 724 Q121 790 56 790 Q33 790 17 807 Q0 823 0 848 L0 886 Q0 910 17 928 Q33 944 56 944 Q121 944 121 1010 L121 1021 Q121 1204 242 1307 Q360 1408 563 1408 Q655 1408 741 1384 Q763 1377 774 1358 Q782 1344 782 1329 Q782 1322 780 1314 L768 1266 Q762 1240 742 1228 Q729 1220 714 1220 Q707 1220 700 1222 Q638 1238 571 1238 Q334 1238 334 1013 L334 1010 Q334 944 399 944 L833 944 Q856 944 872 928 Q889 910 889 886 L889 93 Q889 69 872 51 Q856 35 833 35 L731 35 Q707 35 691 51 Q675 69 675 93 L675 724 Q675 790 609 790 L401 790 Q336 790 336 724 L336 93 Q336 69 319 51 Q303 35 279 35 L178 35 Q154 35 138 51 Q121 69 121 93 L121 724 Z " />
<glyph glyph-name="&amp;#xf002;" unicode="&#xf002;" horiz-adv-x="877" d="M120 700 Q120 765 55 765 Q32 765 16 782 Q0 797 0 820 L0 857 Q0 880 16 896 Q32 912 55 912 Q120 912 120 977 L120 988 Q120 1158 245 1264 Q362 1362 565 1362 Q721 1362 842 1312 Q877 1298 877 1261 L877 90 Q877 67 861 51 Q845 35 822 35 L722 35 Q698 35 683 51 Q666 67 666 90 L666 1177 Q608 1213 524 1213 Q329 1213 329 984 L329 977 Q329 912 394 912 L438 912 Q461 912 477 896 Q493 880 493 857 L493 820 Q493 797 477 782 Q461 765 438 765 L395 765 Q331 765 331 700 L331 90 Q331 67 314 51 Q299 35 275 35 L175 35 Q152 35 136 51 Q120 67 120 90 L120 700 Z " />
<glyph glyph-name="&amp;#xfb02;" unicode="&#xfb02;" horiz-adv-x="877" d="M120 700 Q120 765 55 765 Q32 765 16 782 Q0 797 0 820 L0 857 Q0 880 16 896 Q32 912 55 912 Q120 912 120 977 L120 988 Q120 1158 245 1264 Q362 1362 565 1362 Q721 1362 842 1312 Q877 1298 877 1261 L877 90 Q877 67 861 51 Q845 35 822 35 L722 35 Q698 35 683 51 Q666 67 666 90 L666 1177 Q608 1213 524 1213 Q329 1213 329 984 L329 977 Q329 912 394 912 L438 912 Q461 912 477 896 Q493 880 493 857 L493 820 Q493 797 477 782 Q461 765 438 765 L395 765 Q331 765 331 700 L331 90 Q331 67 314 51 Q299 35 275 35 L175 35 Q152 35 136 51 Q120 67 120 90 L120 700 Z " />
<glyph glyph-name="Agrave" unicode="&#xc0;" horiz-adv-x="1093" d="M589 555 Q632 555 655 590 Q673 612 673 640 Q673 652 669 664 L605 904 Q592 954 575 1027 Q569 1053 562 1090 L554 1122 L543 1173 Q516 1180 497 1180 Q488 1180 467 1178 Q457 1128 449 1090 L436 1025 Q420 948 409 904 L349 663 Q345 651 345 640 Q345 613 363 589 Q387 555 429 555 L589 555 Z M1042 98 Q1044 88 1044 79 Q1044 58 1031 39 Q1016 15 990 15 L859 15 Q843 15 831 25 Q815 39 809 57 L738 320 Q721 383 658 383 L361 383 Q297 383 280 319 L215 59 Q210 39 195 26 Q182 15 166 15 L47 15 Q21 15 6 39 Q-7 58 -7 79 Q-7 88 -4 98 L338 1335 Q344 1356 360 1368 Q372 1379 389 1379 L643 1379 Q660 1379 673 1368 Q688 1356 694 1335 L1042 98 Z M572 1649 Q581 1633 581 1617 Q581 1602 572 1586 Q555 1555 522 1555 L516 1555 Q488 1555 471 1577 L374 1705 Q359 1724 359 1744 Q359 1757 367 1773 Q383 1808 419 1808 L453 1808 Q487 1808 503 1778 L572 1649 Z " />
<glyph glyph-name="Aacute" unicode="&#xc1;" horiz-adv-x="1093" d="M589 555 Q632 555 655 590 Q673 612 673 640 Q673 652 669 664 L605 904 Q592 954 575 1027 Q569 1053 562 1090 L554 1122 L543 1173 Q516 1180 497 1180 Q488 1180 467 1178 Q457 1128 449 1090 L436 1025 Q420 948 409 904 L349 663 Q345 651 345 640 Q345 613 363 589 Q387 555 429 555 L589 555 Z M1042 98 Q1044 88 1044 79 Q1044 58 1031 39 Q1016 15 990 15 L859 15 Q843 15 831 25 Q815 39 809 57 L738 320 Q721 383 658 383 L361 383 Q297 383 280 319 L215 59 Q210 39 195 26 Q182 15 166 15 L47 15 Q21 15 6 39 Q-7 58 -7 79 Q-7 88 -4 98 L338 1335 Q344 1356 360 1368 Q372 1379 389 1379 L643 1379 Q660 1379 673 1368 Q688 1356 694 1335 L1042 98 Z M511 1778 Q527 1808 561 1808 L595 1808 Q631 1808 647 1773 Q655 1757 655 1744 Q655 1724 640 1705 L543 1577 Q526 1555 498 1555 L492 1555 Q459 1555 442 1586 Q433 1602 433 1617 Q433 1633 442 1649 L511 1778 Z " />
<glyph glyph-name="Acircumflex" unicode="&#xc2;" horiz-adv-x="1093" d="M589 555 Q632 555 655 590 Q673 612 673 640 Q673 652 669 664 L605 904 Q592 954 575 1027 Q569 1053 562 1090 L554 1122 L543 1173 Q516 1180 497 1180 Q488 1180 467 1178 Q457 1128 449 1090 L436 1025 Q420 948 409 904 L349 663 Q345 651 345 640 Q345 613 363 589 Q387 555 429 555 L589 555 Z M1042 98 Q1044 88 1044 79 Q1044 58 1031 39 Q1016 15 990 15 L859 15 Q843 15 831 25 Q815 39 809 57 L738 320 Q721 383 658 383 L361 383 Q297 383 280 319 L215 59 Q210 39 195 26 Q182 15 166 15 L47 15 Q21 15 6 39 Q-7 58 -7 79 Q-7 88 -4 98 L338 1335 Q344 1356 360 1368 Q372 1379 389 1379 L643 1379 Q660 1379 673 1368 Q688 1356 694 1335 L1042 98 Z M788 1605 Q794 1595 794 1586 Q794 1579 789 1571 Q779 1554 760 1554 L710 1554 Q690 1554 682 1571 L589 1739 L549 1739 L456 1571 Q446 1554 427 1554 L377 1554 Q358 1554 348 1572 Q343 1580 343 1587 Q343 1595 349 1605 L472 1802 Q482 1817 501 1817 L637 1817 Q655 1817 666 1801 L788 1605 Z " />
<glyph glyph-name="Atilde" unicode="&#xc3;" horiz-adv-x="1093" d="M589 555 Q632 555 655 590 Q673 612 673 640 Q673 652 669 664 L605 904 Q592 954 575 1027 Q569 1053 562 1090 L554 1122 L543 1173 Q516 1180 497 1180 Q488 1180 467 1178 Q457 1128 449 1090 L436 1025 Q420 948 409 904 L349 663 Q345 651 345 640 Q345 613 363 589 Q387 555 429 555 L589 555 Z M1042 98 Q1044 88 1044 79 Q1044 58 1031 39 Q1016 15 990 15 L859 15 Q843 15 831 25 Q815 39 809 57 L738 320 Q721 383 658 383 L361 383 Q297 383 280 319 L215 59 Q210 39 195 26 Q182 15 166 15 L47 15 Q21 15 6 39 Q-7 58 -7 79 Q-7 88 -4 98 L338 1335 Q344 1356 360 1368 Q372 1379 389 1379 L643 1379 Q660 1379 673 1368 Q688 1356 694 1335 L1042 98 Z M304 1594 Q290 1594 280 1605 Q271 1615 271 1628 L271 1631 Q279 1721 318 1771 Q353 1813 406 1813 Q434 1813 465 1801 Q478 1796 494 1789 L523 1773 L535 1767 L546 1761 Q560 1751 569 1746 Q599 1730 623 1730 Q682 1730 698 1797 Q701 1809 709 1816 Q718 1823 730 1823 L754 1823 Q769 1823 779 1813 Q787 1803 787 1791 L787 1788 Q775 1611 651 1611 Q620 1611 586 1624 Q574 1628 558 1637 L525 1653 Q461 1690 434 1690 Q380 1690 363 1619 Q360 1608 352 1601 Q343 1594 331 1594 L304 1594 Z " />
<glyph glyph-name="Adieresis" unicode="&#xc4;" horiz-adv-x="1093" d="M589 555 Q632 555 655 590 Q673 612 673 640 Q673 652 669 664 L605 904 Q592 954 575 1027 Q569 1053 562 1090 L554 1122 L543 1173 Q516 1180 497 1180 Q488 1180 467 1178 Q457 1128 449 1090 L436 1025 Q420 948 409 904 L349 663 Q345 651 345 640 Q345 613 363 589 Q387 555 429 555 L589 555 Z M1042 98 Q1044 88 1044 79 Q1044 58 1031 39 Q1016 15 990 15 L859 15 Q843 15 831 25 Q815 39 809 57 L738 320 Q721 383 658 383 L361 383 Q297 383 280 319 L215 59 Q210 39 195 26 Q182 15 166 15 L47 15 Q21 15 6 39 Q-7 58 -7 79 Q-7 88 -4 98 L338 1335 Q344 1356 360 1368 Q372 1379 389 1379 L643 1379 Q660 1379 673 1368 Q688 1356 694 1335 L1042 98 Z M731 1587 Q688 1587 657 1620 Q626 1654 626 1703 Q626 1753 656 1786 Q687 1817 735 1817 Q779 1817 808 1786 Q839 1753 839 1703 Q839 1654 809 1619 Q779 1587 735 1587 L731 1587 Z M307 1587 Q261 1587 230 1620 Q198 1654 198 1703 Q198 1752 231 1785 Q262 1817 309 1817 Q352 1817 381 1786 Q412 1752 412 1703 Q412 1654 381 1619 Q351 1587 309 1587 L307 1587 Z " />
<glyph glyph-name="Aring" unicode="&#xc5;" horiz-adv-x="1093" d="M589 555 Q632 555 655 590 Q673 612 673 640 Q673 652 669 664 L605 904 Q592 954 575 1027 Q569 1053 562 1090 L554 1122 L543 1173 Q516 1180 497 1180 Q488 1180 467 1178 Q457 1128 449 1090 L436 1025 Q420 948 409 904 L349 663 Q345 651 345 640 Q345 613 363 589 Q387 555 429 555 L589 555 Z M1042 98 Q1044 88 1044 79 Q1044 58 1031 39 Q1016 15 990 15 L859 15 Q843 15 831 25 Q815 39 809 57 L738 320 Q721 383 658 383 L361 383 Q297 383 280 319 L215 59 Q210 39 195 26 Q182 15 166 15 L47 15 Q21 15 6 39 Q-7 58 -7 79 Q-7 88 -4 98 L338 1335 Q344 1356 360 1368 Q372 1379 389 1379 L643 1379 Q660 1379 673 1368 Q688 1356 694 1335 L1042 98 Z M523 1537 Q575 1537 606 1576 Q634 1608 634 1658 Q634 1706 607 1739 Q576 1779 523 1779 L521 1779 Q470 1779 440 1738 Q413 1706 413 1656 Q413 1610 441 1576 Q474 1537 523 1537 Z M526 1818 Q611 1818 658 1772 Q702 1729 702 1658 Q702 1588 655 1545 Q607 1498 525 1498 Q440 1498 389 1545 Q342 1587 342 1656 Q342 1726 388 1771 Q437 1818 525 1818 L526 1818 Z " />
<glyph glyph-name="Egrave" unicode="&#xc8;" horiz-adv-x="949" d="M797 211 Q818 211 834 194 Q851 174 851 147 L851 79 Q851 51 834 32 Q818 15 797 15 L148 15 Q128 15 111 33 Q94 51 94 79 L94 1315 Q94 1342 111 1362 Q127 1379 148 1379 L770 1379 Q791 1379 807 1362 Q824 1342 824 1315 L824 1246 Q824 1219 807 1199 Q792 1183 770 1183 L400 1183 Q366 1183 341 1157 Q318 1132 318 1096 L318 902 Q318 866 341 841 Q366 815 400 815 L742 815 Q763 815 779 798 Q795 779 795 751 L795 685 Q795 657 779 638 Q763 621 742 621 L400 621 Q366 621 341 595 Q318 570 318 534 L318 298 Q318 262 341 237 Q366 211 400 211 L797 211 Z M526 1649 Q535 1633 535 1617 Q535 1602 526 1586 Q509 1555 476 1555 L470 1555 Q442 1555 425 1577 L328 1705 Q313 1724 313 1744 Q313 1757 321 1773 Q337 1808 373 1808 L407 1808 Q441 1808 457 1778 L526 1649 Z " />
<glyph glyph-name="Eacute" unicode="&#xc9;" horiz-adv-x="949" d="M797 211 Q818 211 834 194 Q851 174 851 147 L851 79 Q851 51 834 32 Q818 15 797 15 L148 15 Q128 15 111 33 Q94 51 94 79 L94 1315 Q94 1342 111 1362 Q127 1379 148 1379 L770 1379 Q791 1379 807 1362 Q824 1342 824 1315 L824 1246 Q824 1219 807 1199 Q792 1183 770 1183 L400 1183 Q366 1183 341 1157 Q318 1132 318 1096 L318 902 Q318 866 341 841 Q366 815 400 815 L742 815 Q763 815 779 798 Q795 779 795 751 L795 685 Q795 657 779 638 Q763 621 742 621 L400 621 Q366 621 341 595 Q318 570 318 534 L318 298 Q318 262 341 237 Q366 211 400 211 L797 211 Z M489 1778 Q505 1808 539 1808 L573 1808 Q609 1808 625 1773 Q633 1757 633 1744 Q633 1724 618 1705 L521 1577 Q504 1555 476 1555 L470 1555 Q437 1555 420 1586 Q411 1602 411 1617 Q411 1633 420 1649 L489 1778 Z " />
<glyph glyph-name="Ecircumflex" unicode="&#xca;" horiz-adv-x="949" d="M797 211 Q818 211 834 194 Q851 174 851 147 L851 79 Q851 51 834 32 Q818 15 797 15 L148 15 Q128 15 111 33 Q94 51 94 79 L94 1315 Q94 1342 111 1362 Q127 1379 148 1379 L770 1379 Q791 1379 807 1362 Q824 1342 824 1315 L824 1246 Q824 1219 807 1199 Q792 1183 770 1183 L400 1183 Q366 1183 341 1157 Q318 1132 318 1096 L318 902 Q318 866 341 841 Q366 815 400 815 L742 815 Q763 815 779 798 Q795 779 795 751 L795 685 Q795 657 779 638 Q763 621 742 621 L400 621 Q366 621 341 595 Q318 570 318 534 L318 298 Q318 262 341 237 Q366 211 400 211 L797 211 Z M742 1605 Q748 1595 748 1586 Q748 1579 743 1571 Q733 1554 714 1554 L664 1554 Q644 1554 636 1571 L543 1739 L503 1739 L410 1571 Q400 1554 381 1554 L331 1554 Q312 1554 302 1572 Q297 1580 297 1587 Q297 1595 303 1605 L426 1802 Q436 1817 455 1817 L591 1817 Q609 1817 620 1801 L742 1605 Z " />
<glyph glyph-name="Edieresis" unicode="&#xcb;" horiz-adv-x="949" d="M797 211 Q818 211 834 194 Q851 174 851 147 L851 79 Q851 51 834 32 Q818 15 797 15 L148 15 Q128 15 111 33 Q94 51 94 79 L94 1315 Q94 1342 111 1362 Q127 1379 148 1379 L770 1379 Q791 1379 807 1362 Q824 1342 824 1315 L824 1246 Q824 1219 807 1199 Q792 1183 770 1183 L400 1183 Q366 1183 341 1157 Q318 1132 318 1096 L318 902 Q318 866 341 841 Q366 815 400 815 L742 815 Q763 815 779 798 Q795 779 795 751 L795 685 Q795 657 779 638 Q763 621 742 621 L400 621 Q366 621 341 595 Q318 570 318 534 L318 298 Q318 262 341 237 Q366 211 400 211 L797 211 Z M685 1587 Q642 1587 611 1620 Q580 1654 580 1703 Q580 1753 610 1786 Q641 1817 689 1817 Q733 1817 762 1786 Q793 1753 793 1703 Q793 1654 763 1619 Q733 1587 689 1587 L685 1587 Z M261 1587 Q215 1587 184 1620 Q152 1654 152 1703 Q152 1752 185 1785 Q216 1817 263 1817 Q306 1817 335 1786 Q366 1752 366 1703 Q366 1654 335 1619 Q305 1587 263 1587 L261 1587 Z " />
<glyph glyph-name="Igrave" unicode="&#xcc;" horiz-adv-x="547" d="M321 1379 Q344 1379 361 1361 Q379 1342 379 1316 L379 78 Q379 51 361 33 Q344 15 321 15 L212 15 Q187 15 170 33 Q153 51 153 78 L153 1316 Q153 1342 171 1361 Q188 1379 212 1379 L321 1379 Z M319 1649 Q328 1633 328 1617 Q328 1602 319 1586 Q302 1555 269 1555 L263 1555 Q235 1555 218 1577 L121 1705 Q106 1724 106 1744 Q106 1757 114 1773 Q130 1808 166 1808 L200 1808 Q234 1808 250 1778 L319 1649 Z " />
<glyph glyph-name="Iacute" unicode="&#xcd;" horiz-adv-x="463" d="M262 1379 Q285 1379 302 1361 Q320 1342 320 1316 L320 78 Q320 51 302 33 Q285 15 262 15 L153 15 Q128 15 111 33 Q94 51 94 78 L94 1316 Q94 1342 112 1361 Q129 1379 153 1379 L262 1379 Z M223 1778 Q239 1808 273 1808 L307 1808 Q343 1808 359 1773 Q367 1757 367 1744 Q367 1724 352 1705 L255 1577 Q238 1555 210 1555 L204 1555 Q171 1555 154 1586 Q145 1602 145 1617 Q145 1633 154 1649 L223 1778 Z " />
<glyph glyph-name="Icircumflex" unicode="&#xce;" horiz-adv-x="475" d="M258 1379 Q281 1379 298 1361 Q316 1342 316 1316 L316 78 Q316 51 298 33 Q281 15 258 15 L149 15 Q124 15 107 33 Q90 51 90 78 L90 1316 Q90 1342 108 1361 Q125 1379 149 1379 L258 1379 Z M473 1605 Q479 1595 479 1586 Q479 1579 474 1571 Q464 1554 445 1554 L395 1554 Q375 1554 367 1571 L274 1739 L234 1739 L141 1571 Q131 1554 112 1554 L62 1554 Q43 1554 33 1572 Q28 1580 28 1587 Q28 1595 34 1605 L157 1802 Q167 1817 186 1817 L322 1817 Q340 1817 351 1801 L473 1605 Z " />
<glyph glyph-name="Idieresis" unicode="&#xcf;" horiz-adv-x="521" d="M279 1379 Q302 1379 319 1361 Q337 1342 337 1316 L337 78 Q337 51 319 33 Q302 15 279 15 L170 15 Q145 15 128 33 Q111 51 111 78 L111 1316 Q111 1342 129 1361 Q146 1379 170 1379 L279 1379 Z M437 1587 Q394 1587 363 1620 Q332 1654 332 1703 Q332 1753 362 1786 Q393 1817 441 1817 Q485 1817 514 1786 Q545 1753 545 1703 Q545 1654 515 1619 Q485 1587 441 1587 L437 1587 Z M13 1587 Q-33 1587 -64 1620 Q-96 1654 -96 1703 Q-96 1752 -63 1785 Q-32 1817 15 1817 Q58 1817 87 1786 Q118 1752 118 1703 Q118 1654 87 1619 Q57 1587 15 1587 L13 1587 Z " />
<glyph glyph-name="Ntilde" unicode="&#xd1;" horiz-adv-x="1304" d="M94 1316 Q94 1342 112 1361 Q129 1379 151 1379 L360 1379 Q393 1379 410 1348 L662 872 Q786 638 877 392 Q877 362 914 362 Q954 362 954 395 Q954 400 953 406 Q928 648 928 994 L928 1316 Q928 1342 945 1361 Q962 1379 984 1379 L1080 1379 Q1102 1379 1119 1361 Q1136 1342 1136 1316 L1136 78 Q1136 51 1119 33 Q1102 15 1080 15 L907 15 Q874 15 857 46 L596 549 Q457 816 366 1048 Q358 1074 333 1074 Q327 1074 318 1071 Q291 1062 291 1034 Q303 751 303 412 L303 78 Q303 51 285 33 Q268 15 246 15 L151 15 Q129 15 112 33 Q94 51 94 78 L94 1316 Z M400 1594 Q386 1594 376 1605 Q367 1615 367 1628 L367 1631 Q375 1721 414 1771 Q449 1813 502 1813 Q530 1813 561 1801 Q574 1796 590 1789 L619 1773 L631 1767 L642 1761 Q656 1751 665 1746 Q695 1730 719 1730 Q778 1730 794 1797 Q797 1809 805 1816 Q814 1823 826 1823 L850 1823 Q865 1823 875 1813 Q883 1803 883 1791 L883 1788 Q871 1611 747 1611 Q716 1611 682 1624 Q670 1628 654 1637 L621 1653 Q557 1690 530 1690 Q476 1690 459 1619 Q456 1608 448 1601 Q439 1594 427 1594 L400 1594 Z " />
<glyph glyph-name="Ograve" unicode="&#xd2;" horiz-adv-x="1282" d="M595 203 Q758 203 852 358 Q938 500 938 725 Q938 937 853 1078 Q758 1238 593 1238 Q431 1238 335 1082 Q249 941 249 716 Q249 492 337 352 Q433 203 595 203 Z M601 1426 Q868 1426 1025 1225 Q1174 1033 1174 735 Q1174 399 1009 205 Q848 15 580 15 Q320 15 165 212 Q13 406 13 709 Q13 1024 176 1224 Q338 1426 601 1426 Z M647 1649 Q656 1633 656 1617 Q656 1602 647 1586 Q630 1555 597 1555 L591 1555 Q563 1555 546 1577 L449 1705 Q434 1724 434 1744 Q434 1757 442 1773 Q458 1808 494 1808 L528 1808 Q562 1808 578 1778 L647 1649 Z " />
<glyph glyph-name="Oacute" unicode="&#xd3;" horiz-adv-x="1282" d="M595 203 Q758 203 852 358 Q938 500 938 725 Q938 937 853 1078 Q758 1238 593 1238 Q431 1238 335 1082 Q249 941 249 716 Q249 492 337 352 Q433 203 595 203 Z M601 1426 Q868 1426 1025 1225 Q1174 1033 1174 735 Q1174 399 1009 205 Q848 15 580 15 Q320 15 165 212 Q13 406 13 709 Q13 1024 176 1224 Q338 1426 601 1426 Z M610 1778 Q626 1808 660 1808 L694 1808 Q730 1808 746 1773 Q754 1757 754 1744 Q754 1724 739 1705 L642 1577 Q625 1555 597 1555 L591 1555 Q558 1555 541 1586 Q532 1602 532 1617 Q532 1633 541 1649 L610 1778 Z " />
<glyph glyph-name="Ocircumflex" unicode="&#xd4;" horiz-adv-x="1282" d="M595 203 Q758 203 852 358 Q938 500 938 725 Q938 937 853 1078 Q758 1238 593 1238 Q431 1238 335 1082 Q249 941 249 716 Q249 492 337 352 Q433 203 595 203 Z M601 1426 Q868 1426 1025 1225 Q1174 1033 1174 735 Q1174 399 1009 205 Q848 15 580 15 Q320 15 165 212 Q13 406 13 709 Q13 1024 176 1224 Q338 1426 601 1426 Z M863 1605 Q869 1595 869 1586 Q869 1579 864 1571 Q854 1554 835 1554 L785 1554 Q765 1554 757 1571 L664 1739 L624 1739 L531 1571 Q521 1554 502 1554 L452 1554 Q433 1554 423 1572 Q418 1580 418 1587 Q418 1595 424 1605 L547 1802 Q557 1817 576 1817 L712 1817 Q730 1817 741 1801 L863 1605 Z " />
<glyph glyph-name="Otilde" unicode="&#xd5;" horiz-adv-x="1282" d="M595 203 Q758 203 852 358 Q938 500 938 725 Q938 937 853 1078 Q758 1238 593 1238 Q431 1238 335 1082 Q249 941 249 716 Q249 492 337 352 Q433 203 595 203 Z M601 1426 Q868 1426 1025 1225 Q1174 1033 1174 735 Q1174 399 1009 205 Q848 15 580 15 Q320 15 165 212 Q13 406 13 709 Q13 1024 176 1224 Q338 1426 601 1426 Z M379 1594 Q365 1594 355 1605 Q346 1615 346 1628 L346 1631 Q354 1721 393 1771 Q428 1813 481 1813 Q509 1813 540 1801 Q553 1796 569 1789 L598 1773 L610 1767 L621 1761 Q635 1751 644 1746 Q674 1730 698 1730 Q757 1730 773 1797 Q776 1809 784 1816 Q793 1823 805 1823 L829 1823 Q844 1823 854 1813 Q862 1803 862 1791 L862 1788 Q850 1611 726 1611 Q695 1611 661 1624 Q649 1628 633 1637 L600 1653 Q536 1690 509 1690 Q455 1690 438 1619 Q435 1608 427 1601 Q418 1594 406 1594 L379 1594 Z " />
<glyph glyph-name="Odieresis" unicode="&#xd6;" horiz-adv-x="1282" d="M595 203 Q758 203 852 358 Q938 500 938 725 Q938 937 853 1078 Q758 1238 593 1238 Q431 1238 335 1082 Q249 941 249 716 Q249 492 337 352 Q433 203 595 203 Z M601 1426 Q868 1426 1025 1225 Q1174 1033 1174 735 Q1174 399 1009 205 Q848 15 580 15 Q320 15 165 212 Q13 406 13 709 Q13 1024 176 1224 Q338 1426 601 1426 Z M806 1587 Q763 1587 732 1620 Q701 1654 701 1703 Q701 1753 731 1786 Q762 1817 810 1817 Q854 1817 883 1786 Q914 1753 914 1703 Q914 1654 884 1619 Q854 1587 810 1587 L806 1587 Z M382 1587 Q336 1587 305 1620 Q273 1654 273 1703 Q273 1752 306 1785 Q337 1817 384 1817 Q427 1817 456 1786 Q487 1752 487 1703 Q487 1654 456 1619 Q426 1587 384 1587 L382 1587 Z " />
<glyph glyph-name="Ugrave" unicode="&#xd9;" horiz-adv-x="1213" d="M1046 1402 Q1070 1402 1087 1384 Q1104 1366 1104 1339 L1104 633 Q1104 321 967 163 Q836 15 588 15 Q93 15 93 637 L93 1339 Q93 1366 110 1384 Q127 1402 151 1402 L265 1402 Q288 1402 305 1384 Q323 1366 323 1339 L323 611 Q323 417 391 314 Q463 205 598 205 Q876 205 876 611 L876 1339 Q876 1366 894 1384 Q911 1402 934 1402 L1046 1402 Z M652 1649 Q661 1633 661 1617 Q661 1602 652 1586 Q635 1555 602 1555 L596 1555 Q568 1555 551 1577 L454 1705 Q439 1724 439 1744 Q439 1757 447 1773 Q463 1808 499 1808 L533 1808 Q567 1808 583 1778 L652 1649 Z " />
<glyph glyph-name="Uacute" unicode="&#xda;" horiz-adv-x="1243" d="M1031 1402 Q1055 1402 1072 1384 Q1089 1366 1089 1339 L1089 633 Q1089 321 952 163 Q821 15 573 15 Q78 15 78 637 L78 1339 Q78 1366 95 1384 Q112 1402 136 1402 L250 1402 Q273 1402 290 1384 Q308 1366 308 1339 L308 611 Q308 417 376 314 Q448 205 583 205 Q861 205 861 611 L861 1339 Q861 1366 879 1384 Q896 1402 919 1402 L1031 1402 Z M600 1778 Q616 1808 650 1808 L684 1808 Q720 1808 736 1773 Q744 1757 744 1744 Q744 1724 729 1705 L632 1577 Q615 1555 587 1555 L581 1555 Q548 1555 531 1586 Q522 1602 522 1617 Q522 1633 531 1649 L600 1778 Z " />
<glyph glyph-name="Ucircumflex" unicode="&#xdb;" horiz-adv-x="1243" d="M1031 1402 Q1055 1402 1072 1384 Q1089 1366 1089 1339 L1089 633 Q1089 321 952 163 Q821 15 573 15 Q78 15 78 637 L78 1339 Q78 1366 95 1384 Q112 1402 136 1402 L250 1402 Q273 1402 290 1384 Q308 1366 308 1339 L308 611 Q308 417 376 314 Q448 205 583 205 Q861 205 861 611 L861 1339 Q861 1366 879 1384 Q896 1402 919 1402 L1031 1402 Z M853 1605 Q859 1595 859 1586 Q859 1579 854 1571 Q844 1554 825 1554 L775 1554 Q755 1554 747 1571 L654 1739 L614 1739 L521 1571 Q511 1554 492 1554 L442 1554 Q423 1554 413 1572 Q408 1580 408 1587 Q408 1595 414 1605 L537 1802 Q547 1817 566 1817 L702 1817 Q720 1817 731 1801 L853 1605 Z " />
<glyph glyph-name="Udieresis" unicode="&#xdc;" horiz-adv-x="1243" d="M1031 1402 Q1055 1402 1072 1384 Q1089 1366 1089 1339 L1089 633 Q1089 321 952 163 Q821 15 573 15 Q78 15 78 637 L78 1339 Q78 1366 95 1384 Q112 1402 136 1402 L250 1402 Q273 1402 290 1384 Q308 1366 308 1339 L308 611 Q308 417 376 314 Q448 205 583 205 Q861 205 861 611 L861 1339 Q861 1366 879 1384 Q896 1402 919 1402 L1031 1402 Z M796 1587 Q753 1587 722 1620 Q691 1654 691 1703 Q691 1753 721 1786 Q752 1817 800 1817 Q844 1817 873 1786 Q904 1753 904 1703 Q904 1654 874 1619 Q844 1587 800 1587 L796 1587 Z M372 1587 Q326 1587 295 1620 Q263 1654 263 1703 Q263 1752 296 1785 Q327 1817 374 1817 Q417 1817 446 1786 Q477 1752 477 1703 Q477 1654 446 1619 Q416 1587 374 1587 L372 1587 Z " />
<glyph glyph-name="Yacute" unicode="&#xdd;" horiz-adv-x="922" d="M894 1379 Q927 1379 945 1348 Q954 1332 954 1316 Q954 1301 945 1283 L597 616 Q582 587 582 553 L582 79 Q582 52 563 33 Q546 15 523 15 L413 15 Q389 15 372 33 Q354 52 354 79 L354 543 Q354 575 340 604 L4 1285 Q-4 1300 -4 1315 Q-4 1332 5 1349 Q23 1379 56 1379 L179 1379 Q197 1379 211 1369 Q227 1357 235 1339 L345 1057 Q387 950 441 798 Q450 778 508 763 L523 800 Q553 892 617 1057 L726 1340 Q732 1357 749 1369 Q763 1379 780 1379 L894 1379 Z M491 1778 Q507 1808 541 1808 L575 1808 Q611 1808 627 1773 Q635 1757 635 1744 Q635 1724 620 1705 L523 1577 Q506 1555 478 1555 L472 1555 Q439 1555 422 1586 Q413 1602 413 1617 Q413 1633 422 1649 L491 1778 Z " />
<glyph glyph-name="agrave" unicode="&#xe0;" horiz-adv-x="934" d="M579 443 Q579 479 555 505 Q529 529 495 529 L492 529 Q365 523 283 479 Q176 424 176 325 Q176 248 254 205 Q313 173 383 173 Q449 173 502 215 Q553 255 574 322 L574 324 Q579 350 579 383 L579 443 Z M413 1032 Q621 1032 717 912 Q801 809 801 619 L801 101 Q800 74 783 55 Q766 38 740 37 L659 35 Q634 35 615 55 Q598 73 598 98 L598 143 L539 143 Q486 74 422 44 Q360 15 291 15 L282 15 Q155 19 78 103 Q4 184 4 299 Q4 475 139 569 Q275 661 521 662 Q570 662 570 712 Q570 780 527 824 Q473 881 360 881 Q268 881 175 847 Q163 843 153 843 Q140 843 127 849 Q104 863 97 890 L94 903 Q91 912 91 922 Q91 937 98 951 Q108 973 130 981 Q260 1032 413 1032 Z M456 1239 Q465 1223 465 1207 Q465 1192 456 1176 Q439 1145 406 1145 L400 1145 Q372 1145 355 1167 L258 1295 Q243 1314 243 1334 Q243 1347 251 1363 Q267 1398 303 1398 L337 1398 Q371 1398 387 1368 L456 1239 Z " />
<glyph glyph-name="aacute" unicode="&#xe1;" horiz-adv-x="934" d="M579 443 Q579 479 555 505 Q529 529 495 529 L492 529 Q365 523 283 479 Q176 424 176 325 Q176 248 254 205 Q313 173 383 173 Q449 173 502 215 Q553 255 574 322 L574 324 Q579 350 579 383 L579 443 Z M413 1032 Q621 1032 717 912 Q801 809 801 619 L801 101 Q800 74 783 55 Q766 38 740 37 L659 35 Q634 35 615 55 Q598 73 598 98 L598 143 L539 143 Q486 74 422 44 Q360 15 291 15 L282 15 Q155 19 78 103 Q4 184 4 299 Q4 475 139 569 Q275 661 521 662 Q570 662 570 712 Q570 780 527 824 Q473 881 360 881 Q268 881 175 847 Q163 843 153 843 Q140 843 127 849 Q104 863 97 890 L94 903 Q91 912 91 922 Q91 937 98 951 Q108 973 130 981 Q260 1032 413 1032 Z M419 1368 Q435 1398 469 1398 L503 1398 Q539 1398 555 1363 Q563 1347 563 1334 Q563 1314 548 1295 L451 1167 Q434 1145 406 1145 L400 1145 Q367 1145 350 1176 Q341 1192 341 1207 Q341 1223 350 1239 L419 1368 Z " />
<glyph glyph-name="acircumflex" unicode="&#xe2;" horiz-adv-x="934" d="M579 443 Q579 479 555 505 Q529 529 495 529 L492 529 Q365 523 283 479 Q176 424 176 325 Q176 248 254 205 Q313 173 383 173 Q449 173 502 215 Q553 255 574 322 L574 324 Q579 350 579 383 L579 443 Z M413 1032 Q621 1032 717 912 Q801 809 801 619 L801 101 Q800 74 783 55 Q766 38 740 37 L659 35 Q634 35 615 55 Q598 73 598 98 L598 143 L539 143 Q486 74 422 44 Q360 15 291 15 L282 15 Q155 19 78 103 Q4 184 4 299 Q4 475 139 569 Q275 661 521 662 Q570 662 570 712 Q570 780 527 824 Q473 881 360 881 Q268 881 175 847 Q163 843 153 843 Q140 843 127 849 Q104 863 97 890 L94 903 Q91 912 91 922 Q91 937 98 951 Q108 973 130 981 Q260 1032 413 1032 Z M672 1195 Q678 1185 678 1176 Q678 1169 673 1161 Q663 1144 644 1144 L594 1144 Q574 1144 566 1161 L473 1329 L433 1329 L340 1161 Q330 1144 311 1144 L261 1144 Q242 1144 232 1162 Q227 1170 227 1177 Q227 1185 233 1195 L356 1392 Q366 1407 385 1407 L521 1407 Q539 1407 550 1391 L672 1195 Z " />
<glyph glyph-name="atilde" unicode="&#xe3;" horiz-adv-x="934" d="M579 443 Q579 479 555 505 Q529 529 495 529 L492 529 Q365 523 283 479 Q176 424 176 325 Q176 248 254 205 Q313 173 383 173 Q449 173 502 215 Q553 255 574 322 L574 324 Q579 350 579 383 L579 443 Z M413 1032 Q621 1032 717 912 Q801 809 801 619 L801 101 Q800 74 783 55 Q766 38 740 37 L659 35 Q634 35 615 55 Q598 73 598 98 L598 143 L539 143 Q486 74 422 44 Q360 15 291 15 L282 15 Q155 19 78 103 Q4 184 4 299 Q4 475 139 569 Q275 661 521 662 Q570 662 570 712 Q570 780 527 824 Q473 881 360 881 Q268 881 175 847 Q163 843 153 843 Q140 843 127 849 Q104 863 97 890 L94 903 Q91 912 91 922 Q91 937 98 951 Q108 973 130 981 Q260 1032 413 1032 Z M188 1184 Q174 1184 164 1195 Q155 1205 155 1218 L155 1221 Q163 1311 202 1361 Q237 1403 290 1403 Q318 1403 349 1391 Q362 1386 378 1379 L407 1363 L419 1357 L430 1351 Q444 1341 453 1336 Q483 1320 507 1320 Q566 1320 582 1387 Q585 1399 593 1406 Q602 1413 614 1413 L638 1413 Q653 1413 663 1403 Q671 1393 671 1381 L671 1378 Q659 1201 535 1201 Q504 1201 470 1214 Q458 1218 442 1227 L409 1243 Q345 1280 318 1280 Q264 1280 247 1209 Q244 1198 236 1191 Q227 1184 215 1184 L188 1184 Z " />
<glyph glyph-name="adieresis" unicode="&#xe4;" horiz-adv-x="942" d="M587 443 Q587 479 563 505 Q537 529 503 529 L500 529 Q373 523 291 479 Q184 424 184 325 Q184 248 262 205 Q321 173 391 173 Q457 173 510 215 Q561 255 582 322 L582 324 Q587 350 587 383 L587 443 Z M421 1032 Q629 1032 725 912 Q809 809 809 619 L809 101 Q808 74 791 55 Q774 38 748 37 L667 35 Q642 35 623 55 Q606 73 606 98 L606 143 L547 143 Q494 74 430 44 Q368 15 299 15 L290 15 Q163 19 86 103 Q12 184 12 299 Q12 475 147 569 Q283 661 529 662 Q578 662 578 712 Q578 780 535 824 Q481 881 368 881 Q276 881 183 847 Q171 843 161 843 Q148 843 135 849 Q112 863 105 890 L102 903 Q99 912 99 922 Q99 937 106 951 Q116 973 138 981 Q268 1032 421 1032 Z M623 1177 Q580 1177 549 1210 Q518 1244 518 1293 Q518 1343 548 1376 Q579 1407 627 1407 Q671 1407 700 1376 Q731 1343 731 1293 Q731 1244 701 1209 Q671 1177 627 1177 L623 1177 Z M199 1177 Q153 1177 122 1210 Q90 1244 90 1293 Q90 1342 123 1375 Q154 1407 201 1407 Q244 1407 273 1376 Q304 1342 304 1293 Q304 1244 273 1209 Q243 1177 201 1177 L199 1177 Z " />
<glyph glyph-name="aring" unicode="&#xe5;" horiz-adv-x="934" d="M579 443 Q579 479 555 505 Q529 529 495 529 L492 529 Q365 523 283 479 Q176 424 176 325 Q176 248 254 205 Q313 173 383 173 Q449 173 502 215 Q553 255 574 322 L574 324 Q579 350 579 383 L579 443 Z M413 1032 Q621 1032 717 912 Q801 809 801 619 L801 101 Q800 74 783 55 Q766 38 740 37 L659 35 Q634 35 615 55 Q598 73 598 98 L598 143 L539 143 Q486 74 422 44 Q360 15 291 15 L282 15 Q155 19 78 103 Q4 184 4 299 Q4 475 139 569 Q275 661 521 662 Q570 662 570 712 Q570 780 527 824 Q473 881 360 881 Q268 881 175 847 Q163 843 153 843 Q140 843 127 849 Q104 863 97 890 L94 903 Q91 912 91 922 Q91 937 98 951 Q108 973 130 981 Q260 1032 413 1032 Z M407 1157 Q459 1157 490 1196 Q518 1228 518 1278 Q518 1326 491 1359 Q460 1399 407 1399 L405 1399 Q354 1399 324 1358 Q297 1326 297 1276 Q297 1230 325 1196 Q358 1157 407 1157 Z M410 1438 Q495 1438 542 1392 Q586 1349 586 1278 Q586 1208 539 1165 Q491 1118 409 1118 Q324 1118 273 1165 Q226 1207 226 1276 Q226 1346 272 1391 Q321 1438 409 1438 L410 1438 Z " />
<glyph glyph-name="egrave" unicode="&#xe8;" horiz-adv-x="971" d="M565 604 Q607 604 631 638 Q650 661 650 689 Q650 699 648 709 Q634 781 592 827 Q537 885 450 885 Q370 885 314 831 Q269 788 246 719 Q241 704 241 690 Q241 664 257 642 Q282 604 326 604 L565 604 Z M468 1030 Q667 1030 772 882 Q863 751 863 546 Q863 531 862 514 Q860 488 843 470 Q827 453 804 453 L332 453 Q285 453 259 411 Q246 389 246 367 Q246 346 257 326 Q292 256 374 218 Q446 185 539 185 Q636 185 720 203 Q727 205 732 205 Q749 205 764 194 Q785 179 789 154 L794 122 Q796 114 796 108 Q796 90 787 75 Q774 55 752 47 Q636 15 496 15 Q267 15 140 147 Q16 278 16 510 Q16 718 127 865 Q251 1030 468 1030 Z M493 1239 Q502 1223 502 1207 Q502 1192 493 1176 Q476 1145 443 1145 L437 1145 Q409 1145 392 1167 L295 1295 Q280 1314 280 1334 Q280 1347 288 1363 Q304 1398 340 1398 L374 1398 Q408 1398 424 1368 L493 1239 Z " />
<glyph glyph-name="eacute" unicode="&#xe9;" horiz-adv-x="970" d="M564 604 Q606 604 630 638 Q649 661 649 689 Q649 699 647 709 Q633 781 591 827 Q536 885 449 885 Q369 885 313 831 Q268 788 245 719 Q240 704 240 690 Q240 664 256 642 Q281 604 325 604 L564 604 Z M467 1030 Q666 1030 771 882 Q862 751 862 546 Q862 531 861 514 Q859 488 842 470 Q826 453 803 453 L331 453 Q284 453 258 411 Q245 389 245 367 Q245 346 256 326 Q291 256 373 218 Q445 185 538 185 Q635 185 719 203 Q726 205 731 205 Q748 205 763 194 Q784 179 788 154 L793 122 Q795 114 795 108 Q795 90 786 75 Q773 55 751 47 Q635 15 495 15 Q266 15 139 147 Q15 278 15 510 Q15 718 126 865 Q250 1030 467 1030 Z M455 1368 Q471 1398 505 1398 L539 1398 Q575 1398 591 1363 Q599 1347 599 1334 Q599 1314 584 1295 L487 1167 Q470 1145 442 1145 L436 1145 Q403 1145 386 1176 Q377 1192 377 1207 Q377 1223 386 1239 L455 1368 Z " />
<glyph glyph-name="ecircumflex" unicode="&#xea;" horiz-adv-x="971" d="M565 604 Q607 604 631 638 Q650 661 650 689 Q650 699 648 709 Q634 781 592 827 Q537 885 450 885 Q370 885 314 831 Q269 788 246 719 Q241 704 241 690 Q241 664 257 642 Q282 604 326 604 L565 604 Z M468 1030 Q667 1030 772 882 Q863 751 863 546 Q863 531 862 514 Q860 488 843 470 Q827 453 804 453 L332 453 Q285 453 259 411 Q246 389 246 367 Q246 346 257 326 Q292 256 374 218 Q446 185 539 185 Q636 185 720 203 Q727 205 732 205 Q749 205 764 194 Q785 179 789 154 L794 122 Q796 114 796 108 Q796 90 787 75 Q774 55 752 47 Q636 15 496 15 Q267 15 140 147 Q16 278 16 510 Q16 718 127 865 Q251 1030 468 1030 Z M709 1195 Q715 1185 715 1176 Q715 1169 710 1161 Q700 1144 681 1144 L631 1144 Q611 1144 603 1161 L510 1329 L470 1329 L377 1161 Q367 1144 348 1144 L298 1144 Q279 1144 269 1162 Q264 1170 264 1177 Q264 1185 270 1195 L393 1392 Q403 1407 422 1407 L558 1407 Q576 1407 587 1391 L709 1195 Z " />
<glyph glyph-name="edieresis" unicode="&#xeb;" horiz-adv-x="975" d="M569 604 Q611 604 635 638 Q654 661 654 689 Q654 699 652 709 Q638 781 596 827 Q541 885 454 885 Q374 885 318 831 Q273 788 250 719 Q245 704 245 690 Q245 664 261 642 Q286 604 330 604 L569 604 Z M472 1030 Q671 1030 776 882 Q867 751 867 546 Q867 531 866 514 Q864 488 847 470 Q831 453 808 453 L336 453 Q289 453 263 411 Q250 389 250 367 Q250 346 261 326 Q296 256 378 218 Q450 185 543 185 Q640 185 724 203 Q731 205 736 205 Q753 205 768 194 Q789 179 793 154 L798 122 Q800 114 800 108 Q800 90 791 75 Q778 55 756 47 Q640 15 500 15 Q271 15 144 147 Q20 278 20 510 Q20 718 131 865 Q255 1030 472 1030 Z M656 1177 Q613 1177 582 1210 Q551 1244 551 1293 Q551 1343 581 1376 Q612 1407 660 1407 Q704 1407 733 1376 Q764 1343 764 1293 Q764 1244 734 1209 Q704 1177 660 1177 L656 1177 Z M232 1177 Q186 1177 155 1210 Q123 1244 123 1293 Q123 1342 156 1375 Q187 1407 234 1407 Q277 1407 306 1376 Q337 1342 337 1293 Q337 1244 306 1209 Q276 1177 234 1177 L232 1177 Z " />
<glyph glyph-name="igrave" unicode="&#xec;" horiz-adv-x="459" d="M268 1005 Q291 1005 307 988 Q326 968 326 942 L326 99 Q326 71 308 53 Q291 35 268 35 L155 35 Q131 35 114 53 Q96 71 96 99 L96 942 Q96 968 115 988 Q131 1005 155 1005 L268 1005 Z M264 1239 Q273 1223 273 1207 Q273 1192 264 1176 Q247 1145 214 1145 L208 1145 Q180 1145 163 1167 L66 1295 Q51 1314 51 1334 Q51 1347 59 1363 Q75 1398 111 1398 L145 1398 Q179 1398 195 1368 L264 1239 Z " />
<glyph glyph-name="iacute" unicode="&#xed;" horiz-adv-x="444" d="M245 1005 Q268 1005 284 988 Q303 968 303 942 L303 99 Q303 71 285 53 Q268 35 245 35 L132 35 Q108 35 91 53 Q73 71 73 99 L73 942 Q73 968 92 988 Q108 1005 132 1005 L245 1005 Z M204 1368 Q220 1398 254 1398 L288 1398 Q324 1398 340 1363 Q348 1347 348 1334 Q348 1314 333 1295 L236 1167 Q219 1145 191 1145 L185 1145 Q152 1145 135 1176 Q126 1192 126 1207 Q126 1223 135 1239 L204 1368 Z " />
<glyph glyph-name="icircumflex" unicode="&#xee;" horiz-adv-x="480" d="M265 1005 Q288 1005 304 988 Q323 968 323 942 L323 99 Q323 71 305 53 Q288 35 265 35 L152 35 Q128 35 111 53 Q93 71 93 99 L93 942 Q93 968 112 988 Q128 1005 152 1005 L265 1005 Z M478 1195 Q484 1185 484 1176 Q484 1169 479 1161 Q469 1144 450 1144 L400 1144 Q380 1144 372 1161 L279 1329 L239 1329 L146 1161 Q136 1144 117 1144 L67 1144 Q48 1144 38 1162 Q33 1170 33 1177 Q33 1185 39 1195 L162 1392 Q172 1407 191 1407 L327 1407 Q345 1407 356 1391 L478 1195 Z " />
<glyph glyph-name="idieresis" unicode="&#xef;" horiz-adv-x="557" d="M319 1005 Q342 1005 358 988 Q377 968 377 942 L377 99 Q377 71 359 53 Q342 35 319 35 L206 35 Q182 35 165 53 Q147 71 147 99 L147 942 Q147 968 166 988 Q182 1005 206 1005 L319 1005 Z M475 1177 Q432 1177 401 1210 Q370 1244 370 1293 Q370 1343 400 1376 Q431 1407 479 1407 Q523 1407 552 1376 Q583 1343 583 1293 Q583 1244 553 1209 Q523 1177 479 1177 L475 1177 Z M51 1177 Q5 1177 -26 1210 Q-58 1244 -58 1293 Q-58 1342 -25 1375 Q6 1407 53 1407 Q96 1407 125 1376 Q156 1342 156 1293 Q156 1244 125 1209 Q95 1177 53 1177 L51 1177 Z " />
<glyph glyph-name="ntilde" unicode="&#xf1;" horiz-adv-x="1052" d="M609 1008 Q748 1008 829 912 Q919 806 919 597 L919 77 Q919 51 901 33 Q884 15 861 15 L746 15 Q724 15 707 33 Q689 51 689 77 L689 556 Q689 817 502 817 Q431 817 379 770 Q337 731 317 672 Q303 639 303 580 L303 77 Q303 51 285 33 Q268 15 245 15 L130 15 Q107 15 90 32 Q73 51 73 77 Q72 170 72 264 Q71 389 70 497 Q68 789 67 922 L67 925 Q67 950 83 968 Q101 985 124 986 L212 987 Q235 987 252 969 Q270 950 270 923 L270 882 Q270 842 308 842 Q329 842 342 861 Q376 918 435 956 Q513 1008 609 1008 Z M278 1184 Q264 1184 254 1195 Q245 1205 245 1218 L245 1221 Q253 1311 292 1361 Q327 1403 380 1403 Q408 1403 439 1391 Q452 1386 468 1379 L497 1363 L509 1357 L520 1351 Q534 1341 543 1336 Q573 1320 597 1320 Q656 1320 672 1387 Q675 1399 683 1406 Q692 1413 704 1413 L728 1413 Q743 1413 753 1403 Q761 1393 761 1381 L761 1378 Q749 1201 625 1201 Q594 1201 560 1214 Q548 1218 532 1227 L499 1243 Q435 1280 408 1280 Q354 1280 337 1209 Q334 1198 326 1191 Q317 1184 305 1184 L278 1184 Z " />
<glyph glyph-name="ograve" unicode="&#xf2;" horiz-adv-x="1045" d="M719 460 Q722 490 722 520 Q722 609 698 685 Q654 824 542 854 Q511 863 484 863 Q381 863 320 753 Q263 652 263 513 Q263 391 303 302 Q360 178 475 167 Q485 166 495 166 Q597 166 660 263 Q710 343 719 460 Z M24 483 Q23 497 23 510 Q23 729 160 866 Q291 998 485 1007 Q499 1008 511 1008 Q687 1008 812 897 Q961 763 961 524 Q961 292 818 152 Q688 25 500 16 Q486 15 474 15 Q303 15 179 122 Q33 250 24 483 Z M545 1239 Q554 1223 554 1207 Q554 1192 545 1176 Q528 1145 495 1145 L489 1145 Q461 1145 444 1167 L347 1295 Q332 1314 332 1334 Q332 1347 340 1363 Q356 1398 392 1398 L426 1398 Q460 1398 476 1368 L545 1239 Z " />
<glyph glyph-name="oacute" unicode="&#xf3;" horiz-adv-x="1045" d="M719 460 Q722 490 722 520 Q722 609 698 685 Q654 824 542 854 Q511 863 484 863 Q381 863 320 753 Q263 652 263 513 Q263 391 303 302 Q360 178 475 167 Q485 166 495 166 Q597 166 660 263 Q710 343 719 460 Z M24 483 Q23 497 23 510 Q23 729 160 866 Q291 998 485 1007 Q499 1008 511 1008 Q687 1008 812 897 Q961 763 961 524 Q961 292 818 152 Q688 25 500 16 Q486 15 474 15 Q303 15 179 122 Q33 250 24 483 Z M509 1368 Q525 1398 559 1398 L593 1398 Q629 1398 645 1363 Q653 1347 653 1334 Q653 1314 638 1295 L541 1167 Q524 1145 496 1145 L490 1145 Q457 1145 440 1176 Q431 1192 431 1207 Q431 1223 440 1239 L509 1368 Z " />
<glyph glyph-name="ocircumflex" unicode="&#xf4;" horiz-adv-x="1045" d="M719 460 Q722 490 722 520 Q722 609 698 685 Q654 824 542 854 Q511 863 484 863 Q381 863 320 753 Q263 652 263 513 Q263 391 303 302 Q360 178 475 167 Q485 166 495 166 Q597 166 660 263 Q710 343 719 460 Z M24 483 Q23 497 23 510 Q23 729 160 866 Q291 998 485 1007 Q499 1008 511 1008 Q687 1008 812 897 Q961 763 961 524 Q961 292 818 152 Q688 25 500 16 Q486 15 474 15 Q303 15 179 122 Q33 250 24 483 Z M762 1195 Q768 1185 768 1176 Q768 1169 763 1161 Q753 1144 734 1144 L684 1144 Q664 1144 656 1161 L563 1329 L523 1329 L430 1161 Q420 1144 401 1144 L351 1144 Q332 1144 322 1162 Q317 1170 317 1177 Q317 1185 323 1195 L446 1392 Q456 1407 475 1407 L611 1407 Q629 1407 640 1391 L762 1195 Z " />
<glyph glyph-name="otilde" unicode="&#xf5;" horiz-adv-x="1046" d="M720 460 Q723 490 723 520 Q723 609 699 685 Q655 824 543 854 Q512 863 485 863 Q382 863 321 753 Q264 652 264 513 Q264 391 304 302 Q361 178 476 167 Q486 166 496 166 Q598 166 661 263 Q711 343 720 460 Z M25 483 Q24 497 24 510 Q24 729 161 866 Q292 998 486 1007 Q500 1008 512 1008 Q688 1008 813 897 Q962 763 962 524 Q962 292 819 152 Q689 25 501 16 Q487 15 475 15 Q304 15 180 122 Q34 250 25 483 Z M278 1184 Q264 1184 254 1195 Q245 1205 245 1218 L245 1221 Q253 1311 292 1361 Q327 1403 380 1403 Q408 1403 439 1391 Q452 1386 468 1379 L497 1363 L509 1357 L520 1351 Q534 1341 543 1336 Q573 1320 597 1320 Q656 1320 672 1387 Q675 1399 683 1406 Q692 1413 704 1413 L728 1413 Q743 1413 753 1403 Q761 1393 761 1381 L761 1378 Q749 1201 625 1201 Q594 1201 560 1214 Q548 1218 532 1227 L499 1243 Q435 1280 408 1280 Q354 1280 337 1209 Q334 1198 326 1191 Q317 1184 305 1184 L278 1184 Z " />
<glyph glyph-name="odieresis" unicode="&#xf6;" horiz-adv-x="1046" d="M720 460 Q723 490 723 520 Q723 609 699 685 Q655 824 543 854 Q512 863 485 863 Q382 863 321 753 Q264 652 264 513 Q264 391 304 302 Q361 178 476 167 Q486 166 496 166 Q598 166 661 263 Q711 343 720 460 Z M25 483 Q24 497 24 510 Q24 729 161 866 Q292 998 486 1007 Q500 1008 512 1008 Q688 1008 813 897 Q962 763 962 524 Q962 292 819 152 Q689 25 501 16 Q487 15 475 15 Q304 15 180 122 Q34 250 25 483 Z M706 1177 Q663 1177 632 1210 Q601 1244 601 1293 Q601 1343 631 1376 Q662 1407 710 1407 Q754 1407 783 1376 Q814 1343 814 1293 Q814 1244 784 1209 Q754 1177 710 1177 L706 1177 Z M282 1177 Q236 1177 205 1210 Q173 1244 173 1293 Q173 1342 206 1375 Q237 1407 284 1407 Q327 1407 356 1376 Q387 1342 387 1293 Q387 1244 356 1209 Q326 1177 284 1177 L282 1177 Z " />
<glyph glyph-name="ugrave" unicode="&#xf9;" horiz-adv-x="1032" d="M898 945 L898 525 Q898 270 899 103 Q899 75 880 57 Q863 38 839 38 L760 38 Q737 38 719 57 Q701 76 701 103 L701 146 Q701 185 662 185 Q639 185 628 166 Q614 141 594 118 Q569 89 539 68 Q461 15 358 15 Q219 15 143 109 Q54 215 54 433 L54 945 Q54 971 73 991 Q89 1008 114 1008 L226 1008 Q251 1008 268 991 Q286 971 286 945 L286 484 Q286 207 471 207 Q541 207 592 253 Q633 287 653 343 Q665 371 665 425 L665 945 Q665 971 684 991 Q700 1008 725 1008 L838 1008 Q863 1008 880 991 Q898 972 898 945 Z M530 1239 Q539 1223 539 1207 Q539 1192 530 1176 Q513 1145 480 1145 L474 1145 Q446 1145 429 1167 L332 1295 Q317 1314 317 1334 Q317 1347 325 1363 Q341 1398 377 1398 L411 1398 Q445 1398 461 1368 L530 1239 Z " />
<glyph glyph-name="uacute" unicode="&#xfa;" horiz-adv-x="1032" d="M898 945 L898 525 Q898 270 899 103 Q899 75 880 57 Q863 38 839 38 L760 38 Q737 38 719 57 Q701 76 701 103 L701 146 Q701 185 662 185 Q639 185 628 166 Q614 141 594 118 Q569 89 539 68 Q461 15 358 15 Q219 15 143 109 Q54 215 54 433 L54 945 Q54 971 73 991 Q89 1008 114 1008 L226 1008 Q251 1008 268 991 Q286 971 286 945 L286 484 Q286 207 471 207 Q541 207 592 253 Q633 287 653 343 Q665 371 665 425 L665 945 Q665 971 684 991 Q700 1008 725 1008 L838 1008 Q863 1008 880 991 Q898 972 898 945 Z M493 1368 Q509 1398 543 1398 L577 1398 Q613 1398 629 1363 Q637 1347 637 1334 Q637 1314 622 1295 L525 1167 Q508 1145 480 1145 L474 1145 Q441 1145 424 1176 Q415 1192 415 1207 Q415 1223 424 1239 L493 1368 Z " />
<glyph glyph-name="ucircumflex" unicode="&#xfb;" horiz-adv-x="1032" d="M898 945 L898 525 Q898 270 899 103 Q899 75 880 57 Q863 38 839 38 L760 38 Q737 38 719 57 Q701 76 701 103 L701 146 Q701 185 662 185 Q639 185 628 166 Q614 141 594 118 Q569 89 539 68 Q461 15 358 15 Q219 15 143 109 Q54 215 54 433 L54 945 Q54 971 73 991 Q89 1008 114 1008 L226 1008 Q251 1008 268 991 Q286 971 286 945 L286 484 Q286 207 471 207 Q541 207 592 253 Q633 287 653 343 Q665 371 665 425 L665 945 Q665 971 684 991 Q700 1008 725 1008 L838 1008 Q863 1008 880 991 Q898 972 898 945 Z M746 1195 Q752 1185 752 1176 Q752 1169 747 1161 Q737 1144 718 1144 L668 1144 Q648 1144 640 1161 L547 1329 L507 1329 L414 1161 Q404 1144 385 1144 L335 1144 Q316 1144 306 1162 Q301 1170 301 1177 Q301 1185 307 1195 L430 1392 Q440 1407 459 1407 L595 1407 Q613 1407 624 1391 L746 1195 Z " />
<glyph glyph-name="udieresis" unicode="&#xfc;" horiz-adv-x="1036" d="M902 945 L902 525 Q902 270 903 103 Q903 75 884 57 Q867 38 843 38 L764 38 Q741 38 723 57 Q705 76 705 103 L705 146 Q705 185 666 185 Q643 185 632 166 Q618 141 598 118 Q573 89 543 68 Q465 15 362 15 Q223 15 147 109 Q58 215 58 433 L58 945 Q58 971 77 991 Q93 1008 118 1008 L230 1008 Q255 1008 272 991 Q290 971 290 945 L290 484 Q290 207 475 207 Q545 207 596 253 Q637 287 657 343 Q669 371 669 425 L669 945 Q669 971 688 991 Q704 1008 729 1008 L842 1008 Q867 1008 884 991 Q902 972 902 945 Z M693 1177 Q650 1177 619 1210 Q588 1244 588 1293 Q588 1343 618 1376 Q649 1407 697 1407 Q741 1407 770 1376 Q801 1343 801 1293 Q801 1244 771 1209 Q741 1177 697 1177 L693 1177 Z M269 1177 Q223 1177 192 1210 Q160 1244 160 1293 Q160 1342 193 1375 Q224 1407 271 1407 Q314 1407 343 1376 Q374 1342 374 1293 Q374 1244 343 1209 Q313 1177 271 1177 L269 1177 Z " />
<glyph glyph-name="yacute" unicode="&#xfd;" horiz-adv-x="932" d="M805 987 Q835 987 853 962 Q864 944 864 925 Q864 914 861 904 L679 348 Q637 224 596 81 Q589 58 580 26 L573 1 L566 -24 Q550 -78 540 -110 Q492 -263 431 -320 Q346 -397 243 -432 Q234 -435 224 -435 Q210 -435 198 -428 Q176 -414 169 -386 L147 -296 Q145 -288 145 -281 Q145 -267 153 -251 Q162 -230 182 -222 Q213 -208 244 -189 Q313 -150 356 -90 Q373 -66 373 -40 Q373 -22 366 -5 Q334 75 207 399 Q159 519 100 669 Q56 779 9 900 Q3 913 3 926 Q3 944 14 960 Q31 987 62 987 L187 987 Q205 987 221 975 Q237 962 243 943 L367 502 L372 479 L378 455 Q385 427 391 405 Q404 350 413 312 Q422 283 451 283 Q478 283 487 311 Q496 344 510 408 L521 458 Q526 485 531 502 L633 940 Q637 961 653 974 Q668 987 688 987 L805 987 Z M450 1368 Q466 1398 500 1398 L534 1398 Q570 1398 586 1363 Q594 1347 594 1334 Q594 1314 579 1295 L482 1167 Q465 1145 437 1145 L431 1145 Q398 1145 381 1176 Q372 1192 372 1207 Q372 1223 381 1239 L450 1368 Z " />
<glyph glyph-name="ydieresis" unicode="&#xff;" horiz-adv-x="950" d="M798 987 Q828 987 846 962 Q857 944 857 925 Q857 914 854 904 L672 348 Q630 224 589 81 Q582 58 573 26 L566 1 L559 -24 Q543 -78 533 -110 Q485 -263 424 -320 Q339 -397 236 -432 Q227 -435 217 -435 Q203 -435 191 -428 Q169 -414 162 -386 L140 -296 Q138 -288 138 -281 Q138 -267 146 -251 Q155 -230 175 -222 Q206 -208 237 -189 Q306 -150 349 -90 Q366 -66 366 -40 Q366 -22 359 -5 Q327 75 200 399 Q152 519 93 669 Q49 779 2 900 Q-4 913 -4 926 Q-4 944 7 960 Q24 987 55 987 L180 987 Q198 987 214 975 Q230 962 236 943 L360 502 L365 479 L371 455 Q378 427 384 405 Q397 350 406 312 Q415 283 444 283 Q471 283 480 311 Q489 344 503 408 L514 458 Q519 485 524 502 L626 940 Q630 961 646 974 Q661 987 681 987 L798 987 Z M639 1177 Q596 1177 565 1210 Q534 1244 534 1293 Q534 1343 564 1376 Q595 1407 643 1407 Q687 1407 716 1376 Q747 1343 747 1293 Q747 1244 717 1209 Q687 1177 643 1177 L639 1177 Z M215 1177 Q169 1177 138 1210 Q106 1244 106 1293 Q106 1342 139 1375 Q170 1407 217 1407 Q260 1407 289 1376 Q320 1342 320 1293 Q320 1244 289 1209 Q259 1177 217 1177 L215 1177 Z " />
<glyph glyph-name="Amacron" unicode="&#x100;" horiz-adv-x="1093" d="M589 555 Q632 555 655 590 Q673 612 673 640 Q673 652 669 664 L605 904 Q592 954 575 1027 Q569 1053 562 1090 L554 1122 L543 1173 Q516 1180 497 1180 Q488 1180 467 1178 Q457 1128 449 1090 L436 1025 Q420 948 409 904 L349 663 Q345 651 345 640 Q345 613 363 589 Q387 555 429 555 L589 555 Z M1042 98 Q1044 88 1044 79 Q1044 58 1031 39 Q1016 15 990 15 L859 15 Q843 15 831 25 Q815 39 809 57 L738 320 Q721 383 658 383 L361 383 Q297 383 280 319 L215 59 Q210 39 195 26 Q182 15 166 15 L47 15 Q21 15 6 39 Q-7 58 -7 79 Q-7 88 -4 98 L338 1335 Q344 1356 360 1368 Q372 1379 389 1379 L643 1379 Q660 1379 673 1368 Q688 1356 694 1335 L1042 98 Z M752 1727 Q752 1713 743 1703 Q733 1694 719 1694 L338 1694 Q324 1694 314 1703 Q305 1713 305 1727 L305 1780 Q305 1793 314 1803 Q324 1813 338 1813 L719 1813 Q733 1813 743 1803 Q752 1793 752 1780 L752 1727 Z " />
<glyph glyph-name="amacron" unicode="&#x101;" horiz-adv-x="934" d="M579 443 Q579 479 555 505 Q529 529 495 529 L492 529 Q365 523 283 479 Q176 424 176 325 Q176 248 254 205 Q313 173 383 173 Q449 173 502 215 Q553 255 574 322 L574 324 Q579 350 579 383 L579 443 Z M413 1032 Q621 1032 717 912 Q801 809 801 619 L801 101 Q800 74 783 55 Q766 38 740 37 L659 35 Q634 35 615 55 Q598 73 598 98 L598 143 L539 143 Q486 74 422 44 Q360 15 291 15 L282 15 Q155 19 78 103 Q4 184 4 299 Q4 475 139 569 Q275 661 521 662 Q570 662 570 712 Q570 780 527 824 Q473 881 360 881 Q268 881 175 847 Q163 843 153 843 Q140 843 127 849 Q104 863 97 890 L94 903 Q91 912 91 922 Q91 937 98 951 Q108 973 130 981 Q260 1032 413 1032 Z M636 1317 Q636 1303 627 1293 Q617 1284 603 1284 L222 1284 Q208 1284 198 1293 Q189 1303 189 1317 L189 1370 Q189 1383 198 1393 Q208 1403 222 1403 L603 1403 Q617 1403 627 1393 Q636 1383 636 1370 L636 1317 Z " />
<glyph glyph-name="Abreve" unicode="&#x102;" horiz-adv-x="1093" d="M589 555 Q632 555 655 590 Q673 612 673 640 Q673 652 669 664 L605 904 Q592 954 575 1027 Q569 1053 562 1090 L554 1122 L543 1173 Q516 1180 497 1180 Q488 1180 467 1178 Q457 1128 449 1090 L436 1025 Q420 948 409 904 L349 663 Q345 651 345 640 Q345 613 363 589 Q387 555 429 555 L589 555 Z M1042 98 Q1044 88 1044 79 Q1044 58 1031 39 Q1016 15 990 15 L859 15 Q843 15 831 25 Q815 39 809 57 L738 320 Q721 383 658 383 L361 383 Q297 383 280 319 L215 59 Q210 39 195 26 Q182 15 166 15 L47 15 Q21 15 6 39 Q-7 58 -7 79 Q-7 88 -4 98 L338 1335 Q344 1356 360 1368 Q372 1379 389 1379 L643 1379 Q660 1379 673 1368 Q688 1356 694 1335 L1042 98 Z M358 1813 Q381 1813 389 1791 Q425 1683 526 1683 Q638 1683 671 1790 Q674 1800 683 1807 Q691 1813 703 1813 L741 1813 Q756 1813 766 1801 Q774 1791 774 1781 Q774 1778 773 1775 Q757 1679 694 1626 Q631 1571 528 1571 Q425 1571 360 1628 Q300 1679 284 1775 Q283 1779 283 1782 Q283 1792 290 1801 Q300 1813 315 1813 L358 1813 Z " />
<glyph glyph-name="abreve" unicode="&#x103;" horiz-adv-x="934" d="M579 443 Q579 479 555 505 Q529 529 495 529 L492 529 Q365 523 283 479 Q176 424 176 325 Q176 248 254 205 Q313 173 383 173 Q449 173 502 215 Q553 255 574 322 L574 324 Q579 350 579 383 L579 443 Z M413 1032 Q621 1032 717 912 Q801 809 801 619 L801 101 Q800 74 783 55 Q766 38 740 37 L659 35 Q634 35 615 55 Q598 73 598 98 L598 143 L539 143 Q486 74 422 44 Q360 15 291 15 L282 15 Q155 19 78 103 Q4 184 4 299 Q4 475 139 569 Q275 661 521 662 Q570 662 570 712 Q570 780 527 824 Q473 881 360 881 Q268 881 175 847 Q163 843 153 843 Q140 843 127 849 Q104 863 97 890 L94 903 Q91 912 91 922 Q91 937 98 951 Q108 973 130 981 Q260 1032 413 1032 Z M242 1403 Q265 1403 273 1381 Q309 1273 410 1273 Q522 1273 555 1380 Q558 1390 567 1397 Q575 1403 587 1403 L625 1403 Q640 1403 650 1391 Q658 1381 658 1371 Q658 1368 657 1365 Q641 1269 578 1216 Q515 1161 412 1161 Q309 1161 244 1218 Q184 1269 168 1365 Q167 1369 167 1372 Q167 1382 174 1391 Q184 1403 199 1403 L242 1403 Z " />
<glyph glyph-name="Cacute" unicode="&#x106;" horiz-adv-x="1010" d="M699 1225 Q501 1225 379 1097 Q251 960 251 716 Q251 486 369 351 Q491 213 701 213 Q781 213 866 232 Q873 234 879 234 Q893 234 905 225 Q925 211 929 183 L941 120 Q942 113 942 106 Q942 88 933 71 Q921 51 901 45 Q793 15 657 15 Q348 15 176 208 Q13 392 13 697 Q13 1038 210 1236 Q394 1423 686 1423 Q811 1423 912 1395 Q933 1388 945 1366 Q953 1350 953 1333 Q953 1324 951 1316 L935 1247 Q929 1221 910 1209 Q897 1200 883 1200 Q877 1200 870 1202 Q789 1225 699 1225 Z M499 1778 Q515 1808 549 1808 L583 1808 Q619 1808 635 1773 Q643 1757 643 1744 Q643 1724 628 1705 L531 1577 Q514 1555 486 1555 L480 1555 Q447 1555 430 1586 Q421 1602 421 1617 Q421 1633 430 1649 L499 1778 Z " />
<glyph glyph-name="cacute" unicode="&#x107;" horiz-adv-x="785" d="M712 105 Q713 100 713 96 Q713 77 701 59 Q688 38 666 34 Q584 15 491 15 Q271 15 144 147 Q15 281 15 512 Q15 736 147 879 Q289 1030 532 1030 Q597 1030 663 1016 Q687 1012 700 990 Q710 975 710 957 Q710 950 708 942 L699 894 Q694 870 674 854 Q660 844 644 844 Q639 844 633 845 Q593 851 546 851 Q413 851 331 757 Q252 667 252 529 L252 525 Q252 372 340 282 Q423 198 552 198 Q598 198 638 204 Q644 205 649 205 Q666 205 681 194 Q701 179 705 152 L712 105 Z M380 1368 Q396 1398 430 1398 L464 1398 Q500 1398 516 1363 Q524 1347 524 1334 Q524 1314 509 1295 L412 1167 Q395 1145 367 1145 L361 1145 Q328 1145 311 1176 Q302 1192 302 1207 Q302 1223 311 1239 L380 1368 Z " />
<glyph glyph-name="Ccircumflex" unicode="&#x108;" horiz-adv-x="1010" d="M699 1225 Q501 1225 379 1097 Q251 960 251 716 Q251 486 369 351 Q491 213 701 213 Q781 213 866 232 Q873 234 879 234 Q893 234 905 225 Q925 211 929 183 L941 120 Q942 113 942 106 Q942 88 933 71 Q921 51 901 45 Q793 15 657 15 Q348 15 176 208 Q13 392 13 697 Q13 1038 210 1236 Q394 1423 686 1423 Q811 1423 912 1395 Q933 1388 945 1366 Q953 1350 953 1333 Q953 1324 951 1316 L935 1247 Q929 1221 910 1209 Q897 1200 883 1200 Q877 1200 870 1202 Q789 1225 699 1225 Z M832 1605 Q838 1595 838 1586 Q838 1579 833 1571 Q823 1554 804 1554 L754 1554 Q734 1554 726 1571 L633 1739 L593 1739 L500 1571 Q490 1554 471 1554 L421 1554 Q402 1554 392 1572 Q387 1580 387 1587 Q387 1595 393 1605 L516 1802 Q526 1817 545 1817 L681 1817 Q699 1817 710 1801 L832 1605 Z " />
<glyph glyph-name="ccircumflex" unicode="&#x109;" horiz-adv-x="790" d="M717 105 Q718 100 718 96 Q718 77 706 59 Q693 38 671 34 Q589 15 496 15 Q276 15 149 147 Q20 281 20 512 Q20 736 152 879 Q294 1030 537 1030 Q602 1030 668 1016 Q692 1012 705 990 Q715 975 715 957 Q715 950 713 942 L704 894 Q699 870 679 854 Q665 844 649 844 Q644 844 638 845 Q598 851 551 851 Q418 851 336 757 Q257 667 257 529 L257 525 Q257 372 345 282 Q428 198 557 198 Q603 198 643 204 Q649 205 654 205 Q671 205 686 194 Q706 179 710 152 L717 105 Z M638 1195 Q644 1185 644 1176 Q644 1169 639 1161 Q629 1144 610 1144 L560 1144 Q540 1144 532 1161 L439 1329 L399 1329 L306 1161 Q296 1144 277 1144 L227 1144 Q208 1144 198 1162 Q193 1170 193 1177 Q193 1185 199 1195 L322 1392 Q332 1407 351 1407 L487 1407 Q505 1407 516 1391 L638 1195 Z " />
<glyph glyph-name="Cdotaccent" unicode="&#x10a;" horiz-adv-x="1010" d="M699 1225 Q501 1225 379 1097 Q251 960 251 716 Q251 486 369 351 Q491 213 701 213 Q781 213 866 232 Q873 234 879 234 Q893 234 905 225 Q925 211 929 183 L941 120 Q942 113 942 106 Q942 88 933 71 Q921 51 901 45 Q793 15 657 15 Q348 15 176 208 Q13 392 13 697 Q13 1038 210 1236 Q394 1423 686 1423 Q811 1423 912 1395 Q933 1388 945 1366 Q953 1350 953 1333 Q953 1324 951 1316 L935 1247 Q929 1221 910 1209 Q897 1200 883 1200 Q877 1200 870 1202 Q789 1225 699 1225 Z M494 1576 Q447 1576 415 1611 Q382 1646 382 1695 Q382 1748 414 1782 Q447 1816 496 1816 Q542 1816 572 1782 Q604 1748 604 1695 Q604 1646 572 1610 Q541 1576 496 1576 L494 1576 Z " />
<glyph glyph-name="cdotaccent" unicode="&#x10b;" horiz-adv-x="786" d="M713 105 Q714 100 714 96 Q714 77 702 59 Q689 38 667 34 Q585 15 492 15 Q272 15 145 147 Q16 281 16 512 Q16 736 148 879 Q290 1030 533 1030 Q598 1030 664 1016 Q688 1012 701 990 Q711 975 711 957 Q711 950 709 942 L700 894 Q695 870 675 854 Q661 844 645 844 Q640 844 634 845 Q594 851 547 851 Q414 851 332 757 Q253 667 253 529 L253 525 Q253 372 341 282 Q424 198 553 198 Q599 198 639 204 Q645 205 650 205 Q667 205 682 194 Q702 179 706 152 L713 105 Z M376 1166 Q329 1166 297 1201 Q264 1236 264 1285 Q264 1338 296 1372 Q329 1406 378 1406 Q424 1406 454 1372 Q486 1338 486 1285 Q486 1236 454 1200 Q423 1166 378 1166 L376 1166 Z " />
<glyph glyph-name="Ccaron" unicode="&#x10c;" horiz-adv-x="1010" d="M699 1225 Q501 1225 379 1097 Q251 960 251 716 Q251 486 369 351 Q491 213 701 213 Q781 213 866 232 Q873 234 879 234 Q893 234 905 225 Q925 211 929 183 L941 120 Q942 113 942 106 Q942 88 933 71 Q921 51 901 45 Q793 15 657 15 Q348 15 176 208 Q13 392 13 697 Q13 1038 210 1236 Q394 1423 686 1423 Q811 1423 912 1395 Q933 1388 945 1366 Q953 1350 953 1333 Q953 1324 951 1316 L935 1247 Q929 1221 910 1209 Q897 1200 883 1200 Q877 1200 870 1202 Q789 1225 699 1225 Z M313 1765 Q307 1773 307 1782 Q307 1789 312 1797 Q322 1814 341 1814 L391 1814 Q410 1814 420 1797 L512 1630 L551 1630 L645 1797 Q655 1814 674 1814 L724 1814 Q743 1814 753 1797 Q758 1789 758 1782 Q758 1773 752 1765 L629 1566 Q619 1551 600 1551 L463 1551 Q445 1551 435 1567 L313 1765 Z " />
<glyph glyph-name="ccaron" unicode="&#x10d;" horiz-adv-x="790" d="M717 105 Q718 100 718 96 Q718 77 706 59 Q693 38 671 34 Q589 15 496 15 Q276 15 149 147 Q20 281 20 512 Q20 736 152 879 Q294 1030 537 1030 Q602 1030 668 1016 Q692 1012 705 990 Q715 975 715 957 Q715 950 713 942 L704 894 Q699 870 679 854 Q665 844 649 844 Q644 844 638 845 Q598 851 551 851 Q418 851 336 757 Q257 667 257 529 L257 525 Q257 372 345 282 Q428 198 557 198 Q603 198 643 204 Q649 205 654 205 Q671 205 686 194 Q706 179 710 152 L717 105 Z M199 1355 Q193 1363 193 1372 Q193 1379 198 1387 Q208 1404 227 1404 L277 1404 Q296 1404 306 1387 L398 1220 L437 1220 L531 1387 Q541 1404 560 1404 L610 1404 Q629 1404 639 1387 Q644 1379 644 1372 Q644 1363 638 1355 L515 1156 Q505 1141 486 1141 L349 1141 Q331 1141 321 1157 L199 1355 Z " />
<glyph glyph-name="Dcaron" unicode="&#x10e;" horiz-adv-x="1179" d="M427 198 Q627 198 738 332 Q857 473 857 735 L857 739 Q857 968 749 1097 Q641 1225 449 1225 Q399 1225 359 1220 Q330 1216 310 1190 Q293 1166 293 1136 L293 284 Q293 252 311 229 Q333 202 365 199 Q377 198 394 198 L427 198 Z M883 1260 Q1071 1090 1071 746 Q1071 380 885 190 Q711 15 363 15 Q240 15 137 26 Q121 28 109 44 Q94 63 94 90 L94 1323 Q94 1349 108 1368 Q119 1384 137 1386 Q265 1404 421 1404 Q583 1404 694 1369 Q801 1334 883 1260 Z M413 1765 Q407 1773 407 1782 Q407 1789 412 1797 Q422 1814 441 1814 L491 1814 Q510 1814 520 1797 L612 1630 L651 1630 L745 1797 Q755 1814 774 1814 L824 1814 Q843 1814 853 1797 Q858 1789 858 1782 Q858 1773 852 1765 L729 1566 Q719 1551 700 1551 L563 1551 Q545 1551 535 1567 L413 1765 Z " />
<glyph glyph-name="dcaron" unicode="&#x10f;" horiz-adv-x="1108" d="M711 599 Q711 633 705 665 Q687 747 627 799 Q569 853 494 853 Q374 853 308 753 Q252 666 252 529 Q252 379 315 291 Q379 201 494 201 Q572 201 630 253 Q687 303 704 381 Q711 410 711 446 L711 599 Z M881 1479 Q904 1479 921 1461 Q940 1442 940 1415 L940 314 Q940 264 938 203 L937 152 Q936 121 935 101 Q934 73 917 55 Q901 38 877 38 L810 38 Q786 38 769 57 Q751 76 751 103 L752 183 L692 183 Q598 15 423 15 Q260 15 145 144 Q16 290 16 541 L16 545 Q16 767 121 903 Q221 1032 380 1032 Q469 1032 539 996 Q604 963 653 885 L711 885 L711 1415 Q711 1442 729 1461 Q746 1479 770 1479 L881 1479 Z " />
<glyph glyph-name="Emacron" unicode="&#x112;" horiz-adv-x="949" d="M797 211 Q818 211 834 194 Q851 174 851 147 L851 79 Q851 51 834 32 Q818 15 797 15 L148 15 Q128 15 111 33 Q94 51 94 79 L94 1315 Q94 1342 111 1362 Q127 1379 148 1379 L770 1379 Q791 1379 807 1362 Q824 1342 824 1315 L824 1246 Q824 1219 807 1199 Q792 1183 770 1183 L400 1183 Q366 1183 341 1157 Q318 1132 318 1096 L318 902 Q318 866 341 841 Q366 815 400 815 L742 815 Q763 815 779 798 Q795 779 795 751 L795 685 Q795 657 779 638 Q763 621 742 621 L400 621 Q366 621 341 595 Q318 570 318 534 L318 298 Q318 262 341 237 Q366 211 400 211 L797 211 Z M706 1727 Q706 1713 697 1703 Q687 1694 673 1694 L292 1694 Q278 1694 268 1703 Q259 1713 259 1727 L259 1780 Q259 1793 268 1803 Q278 1813 292 1813 L673 1813 Q687 1813 697 1803 Q706 1793 706 1780 L706 1727 Z " />
<glyph glyph-name="emacron" unicode="&#x113;" horiz-adv-x="971" d="M565 604 Q607 604 631 638 Q650 661 650 689 Q650 699 648 709 Q634 781 592 827 Q537 885 450 885 Q370 885 314 831 Q269 788 246 719 Q241 704 241 690 Q241 664 257 642 Q282 604 326 604 L565 604 Z M468 1030 Q667 1030 772 882 Q863 751 863 546 Q863 531 862 514 Q860 488 843 470 Q827 453 804 453 L332 453 Q285 453 259 411 Q246 389 246 367 Q246 346 257 326 Q292 256 374 218 Q446 185 539 185 Q636 185 720 203 Q727 205 732 205 Q749 205 764 194 Q785 179 789 154 L794 122 Q796 114 796 108 Q796 90 787 75 Q774 55 752 47 Q636 15 496 15 Q267 15 140 147 Q16 278 16 510 Q16 718 127 865 Q251 1030 468 1030 Z M673 1317 Q673 1303 664 1293 Q654 1284 640 1284 L259 1284 Q245 1284 235 1293 Q226 1303 226 1317 L226 1370 Q226 1383 235 1393 Q245 1403 259 1403 L640 1403 Q654 1403 664 1393 Q673 1383 673 1370 L673 1317 Z " />
<glyph glyph-name="Ebreve" unicode="&#x114;" horiz-adv-x="949" d="M797 211 Q818 211 834 194 Q851 174 851 147 L851 79 Q851 51 834 32 Q818 15 797 15 L148 15 Q128 15 111 33 Q94 51 94 79 L94 1315 Q94 1342 111 1362 Q127 1379 148 1379 L770 1379 Q791 1379 807 1362 Q824 1342 824 1315 L824 1246 Q824 1219 807 1199 Q792 1183 770 1183 L400 1183 Q366 1183 341 1157 Q318 1132 318 1096 L318 902 Q318 866 341 841 Q366 815 400 815 L742 815 Q763 815 779 798 Q795 779 795 751 L795 685 Q795 657 779 638 Q763 621 742 621 L400 621 Q366 621 341 595 Q318 570 318 534 L318 298 Q318 262 341 237 Q366 211 400 211 L797 211 Z M312 1813 Q335 1813 343 1791 Q379 1683 480 1683 Q592 1683 625 1790 Q628 1800 637 1807 Q645 1813 657 1813 L695 1813 Q710 1813 720 1801 Q728 1791 728 1781 Q728 1778 727 1775 Q711 1679 648 1626 Q585 1571 482 1571 Q379 1571 314 1628 Q254 1679 238 1775 Q237 1779 237 1782 Q237 1792 244 1801 Q254 1813 269 1813 L312 1813 Z " />
<glyph glyph-name="ebreve" unicode="&#x115;" horiz-adv-x="971" d="M565 604 Q607 604 631 638 Q650 661 650 689 Q650 699 648 709 Q634 781 592 827 Q537 885 450 885 Q370 885 314 831 Q269 788 246 719 Q241 704 241 690 Q241 664 257 642 Q282 604 326 604 L565 604 Z M468 1030 Q667 1030 772 882 Q863 751 863 546 Q863 531 862 514 Q860 488 843 470 Q827 453 804 453 L332 453 Q285 453 259 411 Q246 389 246 367 Q246 346 257 326 Q292 256 374 218 Q446 185 539 185 Q636 185 720 203 Q727 205 732 205 Q749 205 764 194 Q785 179 789 154 L794 122 Q796 114 796 108 Q796 90 787 75 Q774 55 752 47 Q636 15 496 15 Q267 15 140 147 Q16 278 16 510 Q16 718 127 865 Q251 1030 468 1030 Z M279 1403 Q302 1403 310 1381 Q346 1273 447 1273 Q559 1273 592 1380 Q595 1390 604 1397 Q612 1403 624 1403 L662 1403 Q677 1403 687 1391 Q695 1381 695 1371 Q695 1368 694 1365 Q678 1269 615 1216 Q552 1161 449 1161 Q346 1161 281 1218 Q221 1269 205 1365 Q204 1369 204 1372 Q204 1382 211 1391 Q221 1403 236 1403 L279 1403 Z " />
<glyph glyph-name="Edotaccent" unicode="&#x116;" horiz-adv-x="949" d="M797 211 Q818 211 834 194 Q851 174 851 147 L851 79 Q851 51 834 32 Q818 15 797 15 L148 15 Q128 15 111 33 Q94 51 94 79 L94 1315 Q94 1342 111 1362 Q127 1379 148 1379 L770 1379 Q791 1379 807 1362 Q824 1342 824 1315 L824 1246 Q824 1219 807 1199 Q792 1183 770 1183 L400 1183 Q366 1183 341 1157 Q318 1132 318 1096 L318 902 Q318 866 341 841 Q366 815 400 815 L742 815 Q763 815 779 798 Q795 779 795 751 L795 685 Q795 657 779 638 Q763 621 742 621 L400 621 Q366 621 341 595 Q318 570 318 534 L318 298 Q318 262 341 237 Q366 211 400 211 L797 211 Z M484 1576 Q437 1576 405 1611 Q372 1646 372 1695 Q372 1748 404 1782 Q437 1816 486 1816 Q532 1816 562 1782 Q594 1748 594 1695 Q594 1646 562 1610 Q531 1576 486 1576 L484 1576 Z " />
<glyph glyph-name="edotaccent" unicode="&#x117;" horiz-adv-x="970" d="M564 604 Q606 604 630 638 Q649 661 649 689 Q649 699 647 709 Q633 781 591 827 Q536 885 449 885 Q369 885 313 831 Q268 788 245 719 Q240 704 240 690 Q240 664 256 642 Q281 604 325 604 L564 604 Z M467 1030 Q666 1030 771 882 Q862 751 862 546 Q862 531 861 514 Q859 488 842 470 Q826 453 803 453 L331 453 Q284 453 258 411 Q245 389 245 367 Q245 346 256 326 Q291 256 373 218 Q445 185 538 185 Q635 185 719 203 Q726 205 731 205 Q748 205 763 194 Q784 179 788 154 L793 122 Q795 114 795 108 Q795 90 786 75 Q773 55 751 47 Q635 15 495 15 Q266 15 139 147 Q15 278 15 510 Q15 718 126 865 Q250 1030 467 1030 Z M450 1166 Q403 1166 371 1201 Q338 1236 338 1285 Q338 1338 370 1372 Q403 1406 452 1406 Q498 1406 528 1372 Q560 1338 560 1285 Q560 1236 528 1200 Q497 1166 452 1166 L450 1166 Z " />
<glyph glyph-name="Ecaron" unicode="&#x11a;" horiz-adv-x="949" d="M797 211 Q818 211 834 194 Q851 174 851 147 L851 79 Q851 51 834 32 Q818 15 797 15 L148 15 Q128 15 111 33 Q94 51 94 79 L94 1315 Q94 1342 111 1362 Q127 1379 148 1379 L770 1379 Q791 1379 807 1362 Q824 1342 824 1315 L824 1246 Q824 1219 807 1199 Q792 1183 770 1183 L400 1183 Q366 1183 341 1157 Q318 1132 318 1096 L318 902 Q318 866 341 841 Q366 815 400 815 L742 815 Q763 815 779 798 Q795 779 795 751 L795 685 Q795 657 779 638 Q763 621 742 621 L400 621 Q366 621 341 595 Q318 570 318 534 L318 298 Q318 262 341 237 Q366 211 400 211 L797 211 Z M303 1765 Q297 1773 297 1782 Q297 1789 302 1797 Q312 1814 331 1814 L381 1814 Q400 1814 410 1797 L502 1630 L541 1630 L635 1797 Q645 1814 664 1814 L714 1814 Q733 1814 743 1797 Q748 1789 748 1782 Q748 1773 742 1765 L619 1566 Q609 1551 590 1551 L453 1551 Q435 1551 425 1567 L303 1765 Z " />
<glyph glyph-name="ecaron" unicode="&#x11b;" horiz-adv-x="971" d="M565 604 Q607 604 631 638 Q650 661 650 689 Q650 699 648 709 Q634 781 592 827 Q537 885 450 885 Q370 885 314 831 Q269 788 246 719 Q241 704 241 690 Q241 664 257 642 Q282 604 326 604 L565 604 Z M468 1030 Q667 1030 772 882 Q863 751 863 546 Q863 531 862 514 Q860 488 843 470 Q827 453 804 453 L332 453 Q285 453 259 411 Q246 389 246 367 Q246 346 257 326 Q292 256 374 218 Q446 185 539 185 Q636 185 720 203 Q727 205 732 205 Q749 205 764 194 Q785 179 789 154 L794 122 Q796 114 796 108 Q796 90 787 75 Q774 55 752 47 Q636 15 496 15 Q267 15 140 147 Q16 278 16 510 Q16 718 127 865 Q251 1030 468 1030 Z M270 1355 Q264 1363 264 1372 Q264 1379 269 1387 Q279 1404 298 1404 L348 1404 Q367 1404 377 1387 L469 1220 L508 1220 L602 1387 Q612 1404 631 1404 L681 1404 Q700 1404 710 1387 Q715 1379 715 1372 Q715 1363 709 1355 L586 1156 Q576 1141 557 1141 L420 1141 Q402 1141 392 1157 L270 1355 Z " />
</font>
</svg>
